<svg width="17" height="16" viewBox="0 0 17 16" fill="none" xmlns="http://www.w3.org/2000/svg">
<path d="M6.43414 0.16626C0.370736 1.73735 -1.71586 9.39639 2.72736 13.7414C4.34755 15.3371 6.06592 16.0244 8.398 15.9999C9.84634 15.9999 10.6564 15.8526 11.5156 15.4598C13.0622 14.7724 14.8051 13.1277 15.5906 11.6057C16.1798 10.5256 16.2534 10.1083 16.2534 8.04624C16.2534 6.13147 16.1552 5.51777 15.6888 4.58494C14.9278 3.0384 13.3076 1.46731 11.7366 0.730869C10.3128 0.0680676 7.78429 -0.201963 6.43414 0.16626ZM11.6138 1.17274C15.0015 2.81747 16.7198 6.89247 15.517 10.4765C14.9524 12.1703 13.0867 14.1833 11.4174 14.9197C7.90704 16.4663 3.58655 15.0425 1.81908 11.7776C0.812604 9.93645 0.542573 8.11988 1.03354 6.30331C1.69634 3.65211 3.39017 1.76189 5.86953 0.878159C7.58791 0.264453 9.99363 0.387194 11.6138 1.17274Z" fill="black"/>
<path d="M5.69634 2.12996C4.22345 2.79276 2.72601 4.56023 2.23504 6.20496C1.81772 7.7024 1.89137 8.92981 2.50507 10.4027C3.09423 11.8019 3.36426 11.3355 2.8242 9.81354C2.38233 8.61068 2.35778 8.21791 2.57872 7.01505C3.11878 4.06926 5.35267 2.1545 8.24935 2.1545C10.7533 2.1545 12.7171 3.35737 13.6991 5.46851C14.2637 6.67137 14.3128 8.95436 13.7972 10.1818C13.3799 11.1882 13.3554 11.2373 13.6254 11.2373C14.0918 11.2373 14.6564 9.44532 14.6564 7.97243C14.6319 4.26565 12.0052 1.66354 8.2739 1.66354C7.26743 1.66354 6.33459 1.83538 5.69634 2.12996Z" fill="black"/>
<path d="M6.60435 3.67657C7.68447 6.6469 7.65992 6.52416 7.21805 7.01513C6.28522 8.04615 7.02167 9.51904 8.47001 9.51904C10.1884 9.51904 10.4584 7.33425 8.83824 6.57326C8.22453 6.27868 7.92995 5.88591 7.51263 4.78124C7.21805 4.02024 6.87438 3.38199 6.75164 3.38199C6.60435 3.38199 6.55525 3.52928 6.60435 3.67657ZM9.3783 8.04615C9.3783 8.34073 9.15736 8.75805 8.88733 8.92989C8.44546 9.22446 8.29818 9.19992 7.83176 8.88079C7.11986 8.38983 7.11986 7.3588 7.85631 7.08877C8.56821 6.79419 9.3783 7.3097 9.3783 8.04615Z" fill="black"/>
</svg>
