<svg width="195" height="87" viewBox="0 0 195 87" fill="none" xmlns="http://www.w3.org/2000/svg">
<path d="M2.84121 24.3715C2.84121 38.9832 2.9691 48.735 3.12896 49.0867C3.51264 49.7901 3.22488 51.101 2.71331 50.9412C2.52147 50.8453 2.39358 50.6214 2.45753 50.3976C2.52147 50.1738 2.36161 49.8541 2.1378 49.7262C1.81806 49.5024 1.85004 49.4384 2.29766 49.4384C2.58542 49.4384 2.84121 49.2786 2.84121 49.1187C2.84121 48.4792 1.59425 48.8309 0.954788 49.6303C-0.515978 51.4847 -0.292165 53.3072 1.6582 55.3535L3.00107 56.7283L2.90515 61.2365C2.84121 65.457 2.87318 65.7128 3.41672 65.5849C4.15211 65.457 4.47184 65.6488 5.14327 66.7679C5.52695 67.3434 5.5909 67.6631 5.33511 67.7271C4.95143 67.855 4.98341 71.6918 5.36709 75.8163C5.55893 77.9905 5.5909 78.0864 6.67799 78.598C8.46848 79.4932 12.4332 79.2055 13.3604 78.0864C13.7121 77.6388 14.3196 68.0149 13.9998 67.791C13.9039 67.7271 13.3284 67.6631 12.7209 67.5992C10.7066 67.5033 10.5787 66.9917 11.6978 63.9223C11.9536 63.1549 12.3053 62.5474 12.4971 62.5474C12.6889 62.5474 12.7209 62.7712 12.625 63.059C12.4012 63.6665 13.1366 64.4658 13.9359 64.4658C14.4155 64.4978 14.3835 64.5937 13.6801 65.2012C12.9128 65.8726 12.2413 67.0237 12.625 67.0237C12.7209 67.0237 13.0726 66.7039 13.3924 66.2883L13.9679 65.5849H30.2422H46.4846L46.6445 66.5441C46.7723 67.2795 46.9962 67.5353 47.6676 67.5992C48.4349 67.6951 48.5309 67.5672 48.6268 66.64C48.6907 65.7767 48.8506 65.5849 49.522 65.5529C49.9697 65.5209 50.5772 65.489 50.8969 65.457C51.4085 65.425 51.4404 63.6345 51.4404 32.8124V0.199753H27.1408H2.84121V24.3715ZM26.7571 33.3559L26.8211 64.1141L20.906 64.21C17.6128 64.274 14.8311 64.1781 14.7033 64.0502C14.5434 63.8903 14.5114 63.4747 14.6073 63.091C14.7992 62.4515 14.8311 62.4835 15.055 63.3468C15.1828 63.9543 15.2468 63.4427 15.1509 62.0359C15.023 59.7977 15.055 59.7338 16.3019 58.0712C16.9733 57.1759 17.5489 56.2487 17.5489 56.0249C17.5169 55.8331 17.2931 56.0889 17.0373 56.6004C16.6536 57.3038 16.4618 57.3998 16.238 57.08C16.1101 56.8562 15.8543 56.7603 15.7264 56.9202C15.5985 57.08 15.6305 57.2719 15.8543 57.3358C16.0781 57.3998 16.142 57.6875 16.0461 57.9433C15.9502 58.1671 15.7264 58.295 15.5346 58.1671C15.3747 58.0712 15.2788 58.1032 15.4067 58.263C15.6944 58.7746 14.8631 59.542 14.0318 59.51C13.1366 59.51 13.1366 59.4141 13.872 56.7923C14.1277 55.8331 14.3515 54.6501 14.3515 54.1705C14.3515 53.6909 14.5114 53.2752 14.6713 53.2752C14.8631 53.2752 15.023 52.6677 15.023 51.9004C15.055 51.165 15.1189 50.8133 15.2148 51.101C15.2788 51.4208 15.5026 51.6766 15.6944 51.6766C15.8863 51.6766 15.9502 51.3249 15.7903 50.7813C15.6624 50.3017 15.5665 49.5983 15.5346 49.2466C15.3747 47.552 14.2556 49.5344 13.84 52.2521C13.7121 52.9875 13.4883 53.6909 13.3604 53.7868C13.2005 53.8827 13.0726 54.8739 13.0726 55.9929C13.0726 57.112 12.9447 58.1351 12.7529 58.2311C12.593 58.327 12.4332 58.7746 12.4332 59.1903C12.4332 60.0535 11.8257 61.5882 11.474 61.5882C11.3461 61.5882 10.9944 63.027 10.6427 64.7856C10.1311 67.6631 10.0032 68.0149 9.42768 67.9189C9.07597 67.855 8.75624 67.6312 8.72427 67.4074C8.6923 67.1835 8.72427 67.1516 8.82019 67.3434C8.88414 67.5033 9.10795 67.5992 9.26781 67.4713C9.74741 67.1835 9.58755 66.8318 8.94808 66.7999C8.05283 66.7359 6.99772 65.7128 6.99772 64.8815C6.99772 64.1141 8.02086 62.9951 8.98005 62.6753C9.29979 62.5794 9.65149 62.0678 9.77938 61.5563C9.8753 61.0447 10.0671 60.725 10.195 60.7889C10.3549 60.8848 10.5467 60.5651 10.6427 60.0855C11.1542 57.3998 11.2182 56.7923 10.8665 56.7923C10.6427 56.7923 10.5148 55.929 10.5148 54.3943C10.5148 53.0834 10.6427 51.9963 10.8025 51.9963C10.9624 51.9963 11.2501 51.5806 11.474 51.0691C11.9216 49.982 12.7209 49.6622 13.3284 50.3976C13.6481 50.8133 13.6801 50.7174 13.5202 49.918C13.3924 49.2146 13.4243 49.0867 13.6801 49.4384C13.84 49.6942 14.1277 49.7901 14.2556 49.6303C14.3835 49.4704 14.3196 49.2786 14.0958 49.2146C13.776 49.0867 13.808 48.9269 14.2237 48.4473C14.5114 48.1275 14.8631 47.9357 15.023 47.9996C15.1509 48.0956 15.3427 48.0316 15.4706 47.8398C15.9502 47.0724 14.7672 47.616 13.6801 48.6711C12.657 49.6622 12.3692 49.7901 11.5059 49.5983C10.3869 49.3745 9.36373 48.2235 9.07597 46.9126C8.82019 45.6336 7.76507 44.7064 7.22153 45.25C6.67799 45.7935 6.80588 50.9731 7.44534 53.5949C7.79705 55.0337 7.82902 55.7052 7.57324 55.865C7.3814 55.9929 7.31745 56.2167 7.3814 56.3446C7.47732 56.5045 7.44534 56.9202 7.28548 57.2719C7.09364 57.8154 7.02969 57.7515 7.02969 56.9202C6.99772 56.4086 6.80588 55.7691 6.58207 55.5453C6.26233 55.1936 6.29431 55.1616 6.64601 55.3535C6.99772 55.5453 7.06166 55.4814 6.86982 55.0337C6.74193 54.714 6.51812 53.7868 6.32628 52.9875C6.13444 52.1881 5.78274 51.197 5.52695 50.8133C5.14327 50.2058 5.07933 46.5289 5.07933 26.4497C5.07933 7.84134 5.17525 2.78957 5.49498 2.62971C5.68682 2.56577 10.5467 2.50182 16.2699 2.53379L26.6612 2.59774L26.7571 33.3559ZM49.4581 33.3559L49.522 64.1461H38.6512H27.7803V33.5158C27.7803 16.6659 27.8762 2.75761 28.0041 2.66168C28.132 2.53379 32.9599 2.46984 38.7791 2.50182L49.3622 2.59774L49.4581 33.3559ZM1.46636 49.918C1.46636 50.1738 1.33847 50.3976 1.1786 50.3976C0.858869 50.3976 0.826896 49.95 1.14663 49.6622C1.43439 49.3425 1.46636 49.3745 1.46636 49.918ZM5.17525 50.8133C5.36709 50.6214 5.49498 51.2289 5.33511 51.4527C5.27117 51.5167 5.43103 51.8045 5.68682 52.0922C5.9426 52.4119 6.03852 52.9555 5.91063 53.4671C5.75076 54.0106 5.81471 54.2024 6.03852 54.0745C6.45417 53.8188 6.45417 54.5541 6.03852 55.1936C5.78274 55.6093 5.71879 55.6093 5.71879 55.1297C5.71879 54.8419 5.52695 54.4582 5.27117 54.3303C5.04735 54.2024 4.47184 53.4671 3.99224 52.6997C3.19291 51.4208 3.19291 51.3568 3.8004 51.3568C4.24802 51.3568 4.37592 51.197 4.21605 50.7813C4.02421 50.3337 4.08816 50.3017 4.50381 50.6214C4.7596 50.8453 5.07933 50.9412 5.17525 50.8133ZM2.20174 51.7085C2.20174 52.1242 3.8004 54.4263 4.82354 55.5133C5.55893 56.2487 5.55893 56.3127 5.01538 56.8562C4.31197 57.5596 3.54462 57.6555 4.12013 56.9521C4.59973 56.3766 4.08816 56.3127 3.51264 56.8562C3.19291 57.144 3.12896 57.1759 3.28883 56.8882C3.41672 56.6644 3.22488 56.3446 2.84121 56.1528C2.4895 55.961 2.26569 55.6732 2.36161 55.4814C2.68134 54.9698 2.16977 54.4263 1.81806 54.9058C1.6582 55.1936 1.62622 55.0337 1.75412 54.4582C1.88201 53.9147 1.81806 53.5949 1.59425 53.5949C1.40241 53.5949 1.24255 53.7548 1.24255 53.9467C1.24255 54.5541 0.66703 53.9467 0.475191 53.0834C0.315325 52.4759 0.411244 52.1242 0.826896 51.8045C1.53031 51.2929 2.20174 51.2289 2.20174 51.7085ZM6.03852 57.4317C6.03852 57.5916 5.91063 57.7515 5.75076 57.7515C5.55893 57.7515 5.33511 57.5916 5.23919 57.4317C5.14327 57.2399 5.27117 57.112 5.52695 57.112C5.81471 57.112 6.03852 57.2399 6.03852 57.4317ZM6.16642 60.0535C5.62287 61.7161 5.46301 65.0733 5.87866 66.3842C6.00655 66.7359 5.9426 67.0237 5.75076 67.0237C5.43103 67.0237 5.33511 66.7679 5.43103 66.1924C5.43103 66.0965 5.20722 65.6808 4.95143 65.2332C4.66368 64.8175 4.56776 64.4658 4.72762 64.4658C4.98341 64.4658 5.30314 62.5474 5.55893 59.3181C5.5909 58.7746 5.81471 58.1991 6.0705 58.0392C6.77391 57.6236 6.77391 58.2311 6.16642 60.0535ZM14.7352 61.9719C14.5754 62.1318 14.4475 61.6842 14.4475 60.8848L14.4155 59.51L14.7352 60.5971C14.8951 61.2365 14.9271 61.7801 14.7352 61.9719ZM4.66368 63.8903C4.56776 64.1461 4.47184 64.0502 4.47184 63.6985C4.43986 63.3468 4.53578 63.1549 4.6317 63.2828C4.72762 63.3787 4.7596 63.6665 4.66368 63.8903Z" fill="white"/>
<path d="M16.174 48.1916C16.3019 48.6392 16.4298 48.7351 16.5896 48.4793C16.7495 48.1916 16.8774 48.1916 17.0372 48.4474C17.1651 48.6392 17.1651 48.7991 17.0053 48.7991C16.8774 48.7991 16.9413 48.927 17.1971 49.0868C17.6767 49.4066 17.8685 53.1154 17.4529 54.6182C17.325 55.1297 17.357 55.5134 17.4849 55.5134C17.9005 55.5134 18.1883 51.7406 17.9005 50.2379C17.7726 49.5344 17.4849 48.6392 17.2611 48.2235C16.7815 47.2963 15.9502 47.2643 16.174 48.1916Z" fill="white"/>
<path d="M12.4331 50.6216C12.593 50.6855 12.6889 50.9093 12.561 51.0692C12.4651 51.229 12.561 51.3569 12.7528 51.3569C13.2324 51.3569 12.9766 50.6216 12.497 50.5256C12.2732 50.4937 12.2413 50.5256 12.4331 50.6216Z" fill="white"/>
<path d="M14.7671 55.0339C14.7671 55.7373 14.8311 55.993 14.895 55.5774C14.9589 55.1937 14.9589 54.6182 14.895 54.2985C14.7991 54.0107 14.7351 54.3304 14.7671 55.0339Z" fill="white"/>
<path d="M11.6977 58.0393C11.5698 58.6148 11.5059 59.574 11.5059 60.1176C11.5378 60.789 11.6338 60.5652 11.8256 59.3822C12.1453 57.4638 12.0174 56.3128 11.6977 58.0393Z" fill="white"/>
<path d="M10.8664 60.5011C10.8664 60.8528 10.9623 60.9487 11.0582 60.6929C11.1541 60.4691 11.1222 60.1813 11.0262 60.0854C10.9303 59.9575 10.8344 60.1493 10.8664 60.5011Z" fill="white"/>
<path d="M10.227 61.7801C10.227 62.1318 10.3229 62.2277 10.4188 61.9719C10.5147 61.7481 10.4828 61.4604 10.3868 61.3645C10.2909 61.2366 10.195 61.4284 10.227 61.7801Z" fill="white"/>
<path d="M5.27114 52.7958C5.17522 53.0516 5.23917 53.2754 5.39903 53.2754C5.59087 53.2754 5.71877 53.0516 5.71877 52.7958C5.71877 52.54 5.65482 52.3162 5.59087 52.3162C5.52693 52.3162 5.39903 52.54 5.27114 52.7958Z" fill="white"/>
<path d="M1.40225 52.9557C1.30633 53.1155 1.37027 53.2754 1.53014 53.2754C1.72198 53.2754 1.88184 53.1155 1.88184 52.9557C1.88184 52.7638 1.8179 52.6359 1.75395 52.6359C1.65803 52.6359 1.49816 52.7638 1.40225 52.9557Z" fill="white"/>
<path d="M152.795 32.2049C152.795 32.4287 153.115 32.4927 153.595 32.4287C154.042 32.3328 154.394 32.3967 154.394 32.5566C154.394 32.7165 154.554 32.7484 154.746 32.6205C155.002 32.4927 154.97 32.3328 154.682 32.1409C154.042 31.7573 152.795 31.7892 152.795 32.2049Z" fill="white"/>
<path d="M154.906 33.0682C154.81 33.2281 154.937 33.6118 155.161 33.9315C155.545 34.475 155.577 34.475 155.513 33.8356C155.449 33.0043 155.161 32.6526 154.906 33.0682Z" fill="white"/>
<path d="M133.58 33.5158C133.58 33.5798 133.228 35.4982 132.844 37.8322L132.141 42.0207L133.068 42.2125C133.58 42.3085 134.699 42.4044 135.562 42.4044H137.129V45.282V48.1595H135.85C135.146 48.1595 134.571 48.2874 134.571 48.4793C134.571 48.6711 133.356 48.799 131.533 48.799H128.496V51.5167C128.496 53.7229 128.592 54.2344 128.975 54.2344C129.231 54.2344 129.455 54.3943 129.455 54.5542C129.455 54.746 129.839 55.2576 130.35 55.6732C131.182 56.3767 131.214 56.4086 131.437 55.8011C131.661 55.2256 132.045 55.1936 137.129 55.1936C141.253 55.1936 142.564 55.2896 142.564 55.5773C142.596 55.8011 142.852 57.3998 143.172 59.0944L143.747 62.2277H139.878H135.978L134.411 60.6291L132.844 59.0304H100.04H67.2352L65.6685 60.6291L64.1018 62.2277H61.9277C60.393 62.2277 59.7535 62.0998 59.7535 61.8121C59.7535 61.6203 59.9773 60.0216 60.297 58.295L60.8086 55.1936H65.7645C69.4094 55.1936 70.9121 55.0658 71.5196 54.746C71.9992 54.4902 72.6707 54.1705 73.0224 54.0106C73.406 53.8508 70.4965 53.6909 65.9883 53.595L58.3147 53.4351L58.2188 51.4208L58.1229 49.4385L66.2121 49.5024L74.2693 49.5983L74.1734 51.3249C74.1095 52.4759 74.2054 52.9555 74.4292 52.7957C74.621 52.6997 74.7809 51.7405 74.7809 50.6854V48.799H71.9353H69.1216L69.1536 47.8398C69.1856 47.1684 69.3454 46.8806 69.7611 46.8806C70.1128 46.8806 70.3046 46.6248 70.3046 46.0813V45.282H65.9883H61.6719V46.2412C61.6719 47.0085 61.544 47.2003 61.1283 47.1364C60.7127 47.0725 60.5209 47.2963 60.4569 47.9038C60.361 48.7031 60.2331 48.799 59.0821 48.799H57.8351V51.3569C57.8351 53.4991 57.931 54.0746 58.4746 54.6181C58.8263 55.0018 59.0501 55.5773 58.9542 55.961C58.8902 56.3447 58.5705 59.1583 58.2827 62.2277C57.995 65.553 57.6113 68.0149 57.3555 68.3026C56.1086 69.7734 55.8528 70.8925 55.9487 74.5374C56.0446 77.5749 55.9807 78.2143 55.5011 78.662C55.2133 78.9817 54.9575 79.4933 54.9575 79.845C54.9575 80.3565 55.1813 80.4525 56.5242 80.4525C58.8582 80.4525 59.6576 81.2838 59.9773 83.9695C60.2011 85.8239 60.297 86.0478 61.0004 86.1437C62.0875 86.3035 62.3113 85.76 62.3113 82.9144V80.4525H99.72H137.129V82.9144C137.129 84.2892 137.256 85.6001 137.416 85.8239C137.768 86.3995 139.175 86.1757 139.271 85.5682C139.303 85.3124 139.431 84.3852 139.527 83.5219C139.846 81.1559 140.71 80.4525 143.363 80.4525C145.346 80.4525 145.442 80.4205 145.442 79.6851C145.442 79.2694 145.122 78.7259 144.738 78.4701C144.099 78.0225 144.035 77.7987 144.131 74.9531C144.259 69.9972 144.227 69.8693 140.518 66.3203L137.288 63.1869H140.55C144.227 63.1869 143.843 62.8992 144.386 66.0326C144.706 67.6632 145.442 68.2387 145.442 66.7999C145.442 66.3203 145.218 64.0182 144.962 61.7481C144.355 56.5045 144.355 55.0338 144.93 54.4583C145.25 54.1705 145.442 53.1154 145.506 51.3888L145.633 48.799H143.012C141.541 48.799 140.262 48.6391 140.166 48.4793C140.07 48.2874 139.399 48.1595 138.695 48.1595H137.416L137.512 45.3459L137.608 42.5642L139.91 42.3724C141.189 42.2765 142.308 42.1166 142.404 42.0207C142.5 41.9248 142.244 40.0064 141.829 37.7363L141.093 33.6118L137.352 33.5158C135.306 33.4839 133.612 33.4839 133.58 33.5158ZM145.122 51.5167V53.595H137.129H129.135V51.5167V49.4385H137.129H145.122V51.5167ZM61.0324 64.9455C59.2419 66.7679 58.6344 67.0877 58.8902 66.1285C58.9861 65.8407 59.146 65.0414 59.2739 64.3699L59.4657 63.1869H61.1283H62.759L61.0324 64.9455ZM60.0732 80.932C60.0732 81.1878 59.9453 81.4116 59.7855 81.4116C59.6256 81.4116 59.3378 81.1878 59.114 80.932C58.7943 80.5164 58.8263 80.4525 59.4018 80.4525C59.7855 80.4525 60.0732 80.6443 60.0732 80.932ZM140.23 80.996C139.942 81.2838 139.622 81.4436 139.495 81.3477C139.175 81.028 139.686 80.4525 140.262 80.4525C140.742 80.4525 140.742 80.4844 140.23 80.996Z" fill="white"/>
<path d="M152.987 34.1553C153.147 34.4111 153.051 34.4431 152.7 34.3152C152.38 34.2193 152.156 34.2512 152.156 34.4111C152.156 34.7628 152.508 34.8268 153.243 34.539C153.915 34.2832 153.915 33.7716 153.243 33.7716C152.955 33.7716 152.859 33.9315 152.987 34.1553Z" fill="white"/>
<path d="M158.615 36.0738C157.911 36.5214 157.463 36.6173 157.176 36.3935C156.984 36.2336 156.28 36.0098 155.673 35.8819C154.906 35.7541 154.746 35.786 155.193 35.9779C155.801 36.2336 155.769 36.2656 155.034 36.3615C154.49 36.4575 154.234 36.6813 154.266 37.065C154.33 37.5126 154.234 37.5445 153.914 37.2888C153.595 37.001 153.467 37.0969 153.371 37.6724C153.307 38.216 153.019 38.4398 152.412 38.5037C151.9 38.5677 151.516 38.7915 151.516 39.0793C151.516 39.5908 152.348 39.6868 152.636 39.2072C152.923 38.7595 153.435 38.8235 153.435 39.3031C153.435 40.1344 152.284 40.8058 150.941 40.8058C149.502 40.8058 148.895 41.3494 149.694 41.9249C150.174 42.2766 150.238 43.4916 150.238 53.9468V65.585H151.421C152.508 65.585 152.636 65.6809 152.795 66.5442C152.923 67.2157 153.147 67.5034 153.595 67.5034C154.042 67.5034 154.266 67.2157 154.394 66.5442L154.554 65.585L172.235 65.4891L189.884 65.3932V66.1605C189.884 67.8551 191.675 68.1109 191.867 66.4803C191.963 65.7129 192.122 65.585 193.178 65.4891L194.361 65.3932V53.723C194.361 46.1773 194.488 42.0847 194.68 42.0847C194.872 42.0847 195 41.797 195 41.4453C195 40.8058 194.872 40.7738 179.141 40.8058C170.413 40.8378 163.187 40.7419 163.059 40.614C162.963 40.4861 163.155 40.4861 163.506 40.582C164.146 40.8058 164.146 40.8058 163.538 40.3262C162.739 39.7187 162.579 39.7187 162.068 40.3262C161.812 40.6459 161.076 40.8058 159.925 40.8058H158.199L158.391 39.7507C158.519 39.1752 158.423 38.3119 158.231 37.8003C157.847 36.7132 157.911 36.5854 158.998 36.5214C159.446 36.5214 159.893 36.3296 159.957 36.1058C160.245 35.4023 159.67 35.4023 158.615 36.0738ZM157.432 39.5589C157.783 40.1024 157.4 40.2303 156.952 39.6868C156.696 39.399 156.696 39.2072 156.888 39.2072C157.08 39.2072 157.336 39.367 157.432 39.5589ZM154.202 40.0065C154.298 40.2623 154.234 40.4861 154.074 40.4861C153.882 40.4861 153.755 40.2623 153.755 40.0065C153.755 39.7507 153.819 39.5269 153.882 39.5269C153.946 39.5269 154.074 39.7507 154.202 40.0065ZM156.312 40.1663C156.312 40.3262 156.153 40.4861 155.961 40.4861C155.801 40.4861 155.737 40.3262 155.833 40.1663C155.929 39.9745 156.089 39.8466 156.185 39.8466C156.248 39.8466 156.312 39.9745 156.312 40.1663ZM153.211 40.8058C153.115 41.1895 152.955 41.4133 152.859 41.3174C152.699 41.1255 153.019 40.1663 153.243 40.1663C153.307 40.1663 153.307 40.4541 153.211 40.8058ZM162.259 40.9657C162.004 41.2215 161.684 41.4453 161.556 41.4453C161.46 41.4453 161.524 41.2215 161.748 40.9657C161.972 40.7099 162.291 40.4861 162.451 40.4861C162.611 40.4861 162.547 40.7099 162.259 40.9657ZM154.938 42.7881C154.842 43.0439 154.746 42.948 154.746 42.5963C154.714 42.2446 154.81 42.0528 154.906 42.1807C155.002 42.2766 155.034 42.5643 154.938 42.7881ZM153.691 42.948C153.627 43.3956 153.819 43.4916 154.778 43.4276C155.769 43.3317 155.961 43.4276 156.089 44.0671L156.217 44.8025L156.472 44.099C156.664 43.5235 156.824 43.4276 157.272 43.6834C157.687 43.9072 157.943 43.9072 158.071 43.6834C158.167 43.5235 159.062 43.3637 160.021 43.3637C161.428 43.3637 161.748 43.4596 161.748 43.9072C161.748 44.5786 162.1 44.2589 162.196 43.4916C162.259 43.1718 162.483 42.8521 162.739 42.7881C163.027 42.7242 163.059 42.7562 162.835 42.948C162.579 43.1079 162.675 43.3956 163.123 43.8433C163.666 44.3868 163.73 44.3868 163.57 43.9072C163.379 43.3956 163.698 43.3637 167.503 43.3637H171.66V46.0814V48.7991L162.004 48.7352L152.316 48.6392L152.252 46.1453C152.188 43.8113 152.252 43.6834 152.891 43.6514C153.275 43.6514 153.435 43.5555 153.211 43.4596C152.891 43.3637 152.891 43.2358 153.211 42.8841C153.723 42.2766 153.787 42.3086 153.691 42.948ZM192.442 46.0814V48.7991L182.786 48.7352L173.098 48.6392L173.002 46.4331C172.938 45.2181 172.97 44.0351 173.066 43.7793C173.194 43.4596 175.081 43.3637 182.85 43.3637H192.442V46.0814ZM172.299 57.1121V64.1462H162.227H152.156V57.1121V50.078H162.227H172.299V57.1121ZM192.442 57.1121V64.1462H182.53H172.619V57.1121V50.078H182.53H192.442V57.1121Z" fill="white"/>
<path d="M153.243 44.4827C152.923 44.7385 152.795 44.9623 152.955 44.9623C153.147 44.9623 153.051 45.1222 152.795 45.2821C152.508 45.4739 152.476 45.6018 152.699 45.6018C152.891 45.6018 153.307 45.2821 153.563 44.8984C154.106 44.163 154.106 44.163 154.65 45.1222C154.906 45.6018 155.001 45.6338 155.033 45.2501C155.033 44.7705 154.458 44.0031 154.074 44.0031C153.978 44.0031 153.595 44.227 153.243 44.4827Z" fill="white"/>
<path d="M156.952 44.5466C156.952 44.6745 157.112 45.0262 157.272 45.282C157.527 45.6977 157.591 45.6977 157.591 45.2181C157.591 44.9303 157.463 44.5786 157.272 44.4827C157.112 44.3868 156.952 44.3868 156.952 44.5466Z" fill="white"/>
<path d="M152.124 36.2656C151.389 36.9051 151.676 37.4806 152.476 36.937C152.891 36.7132 152.891 36.6493 152.476 36.6493C152.06 36.6493 152.06 36.6173 152.476 36.3295C152.764 36.1377 153.019 36.1697 153.179 36.4255C153.339 36.6812 153.435 36.6173 153.435 36.2336C153.435 35.5302 153.051 35.5302 152.124 36.2656Z" fill="white"/>
<path d="M161.204 36.5534C160.981 36.6173 160.789 37.1609 160.821 37.7044L160.853 38.7275L161.172 37.8323C161.428 37.1289 161.62 37.001 162.164 37.1289C162.675 37.2887 162.739 37.2568 162.419 37.033C162.068 36.7772 162.068 36.7132 162.419 36.5534C162.707 36.4574 162.611 36.3935 162.227 36.3935C161.876 36.3935 161.396 36.4574 161.204 36.5534Z" fill="white"/>
<path d="M158.87 37.2887C158.87 37.9602 159.382 38.6955 159.606 38.3438C159.734 38.152 159.606 37.7364 159.35 37.4166C158.998 36.937 158.902 36.905 158.87 37.2887Z" fill="white"/>
<path d="M161.588 38.5996C161.46 38.9514 161.46 39.335 161.556 39.4309C161.652 39.5588 161.748 39.399 161.748 39.0792C161.748 38.7915 161.908 38.6316 162.067 38.7275C162.259 38.8235 162.387 38.7275 162.387 38.5037C162.387 38.2479 162.547 38.3119 162.739 38.6316C162.899 38.9514 163.187 39.2071 163.378 39.2071C163.538 39.2071 163.506 38.9194 163.282 38.5677C162.739 37.7364 161.844 37.7364 161.588 38.5996Z" fill="white"/>
<path d="M77.4346 40.6458C76.7312 41.1573 76.6992 41.3172 76.6992 46.4329C76.6992 50.2057 76.7951 51.6445 77.0509 51.4847C77.2747 51.3568 77.3707 49.95 77.3067 47.2642L77.1788 43.2356L83.8932 43.3315C87.6021 43.3955 92.0144 43.5234 93.7089 43.6512C95.4355 43.7472 97.194 43.7152 97.6736 43.5553C98.8566 43.1716 99.2403 43.6832 98.8247 45.0261C98.6328 45.6016 98.5049 47.2962 98.5369 48.7989L98.6008 51.5166L100.104 51.6126C101.319 51.6765 101.606 51.6126 101.766 51.133C101.894 50.6214 101.798 46.4649 101.574 44.3227C101.51 43.6832 101.606 43.5553 102.118 43.6193C103.045 43.7472 108.417 43.6832 108.64 43.5553C108.736 43.4914 112.062 43.3955 116.026 43.3315L123.188 43.2356L123.092 47.4561C123.028 50.3336 123.124 51.6765 123.348 51.6765C123.604 51.6765 123.7 49.9819 123.7 46.4009C123.7 41.2213 123.7 41.1254 122.932 40.6458C122.293 40.2301 120.726 40.1662 111.358 40.2621C98.441 40.422 101.99 40.422 89.0089 40.2621C79.4809 40.1662 78.0421 40.2301 77.4346 40.6458Z" fill="white"/>
</svg>
