<svg width="102" height="88" viewBox="0 0 102 88" fill="none" xmlns="http://www.w3.org/2000/svg">
<path d="M18.9348 3.06667C17.3348 4.8 16.0015 7.6 16.0015 9.33333C16.0015 11.0667 15.0681 13.4667 13.8681 14.8C12.8015 16 10.9348 20.5333 9.73481 24.8C7.73481 32.4 7.86814 32.6667 10.8015 35.0667C13.3348 37.0667 13.6015 37.8667 12.2681 40.1333C10.2681 43.3333 10.1348 48 12.1348 48C13.2015 48 13.3348 53.6 12.6681 68C12.0015 82.4 12.1348 88 13.2015 88C14.0015 88 14.6681 86.6667 14.6681 84.9333C14.6681 82.1333 15.0681 82 24.4015 82.1333C33.0681 82.2667 34.0015 82.5333 34.4015 85.2C34.6681 86.6667 35.2015 88 35.7348 88C36.2681 88 36.6681 81.4667 36.6681 73.6C36.6681 59.8667 36.8015 58.9333 40.4015 54.8C42.4015 52.4 44.0015 49.6 44.0015 48.4C44.0015 45.7333 36.4015 38.6667 33.4681 38.6667C32.1348 38.6667 33.2015 40.2667 36.6681 43.2C41.0681 47.0667 41.7348 48.2667 40.5348 50.1333C38.1348 54.1333 36.5348 53.6 31.8681 47.4667C27.4681 41.7333 25.3348 40 25.3348 42.5333C25.3348 43.0667 27.6015 46.5333 30.2681 50L35.0681 56.4L33.4681 64.2667C31.2015 75.3333 29.7348 78.6667 27.2015 78.6667C25.6015 78.6667 25.2015 77.8667 25.8681 75.7333C26.2681 74 27.3348 69.2 28.2681 64.9333L29.8681 57.3333L23.6015 50.9333C19.3348 46.5333 17.2015 43.2 16.9348 40.5333C16.6681 36.8 16.8015 36.6667 24.0015 36.2667C28.0015 36 31.7348 35.0667 32.2681 34.2667C33.4681 32.2667 32.1348 23.6 30.4015 22.5333C27.8681 20.9333 22.6681 22.9333 22.6681 25.4667C22.6681 27.3333 21.7348 28 19.3348 28C17.4681 28 16.0015 28.5333 16.0015 29.3333C16.0015 30 19.3348 30.6667 23.3348 30.6667C27.3348 30.6667 30.6681 31.2 30.6681 32C30.6681 32.8 26.4015 33.3333 20.6681 33.3333C15.2015 33.3333 10.6681 32.9333 10.6681 32.5333C10.6681 29.7333 14.0015 18.9333 15.4681 17.3333C16.6681 15.8667 19.3348 15.3333 24.2681 15.4667C31.0681 15.7333 31.4681 15.8667 32.8015 20.1333C33.6015 22.5333 34.9348 24.8 35.6015 24.9333C36.4015 25.2 38.8015 23.3333 41.0681 20.6667C44.9348 16.4 48.0015 14.6667 48.0015 16.9333C48.0015 17.4667 45.7348 20.1333 43.0681 22.9333C40.4015 25.7333 38.6681 28.4 39.2015 28.9333C40.6681 30.4 50.8015 18.5333 50.4015 16C49.7348 12.4 45.2015 12.9333 40.8015 17.2L36.5348 21.3333L34.2681 16.6667C33.0681 14 32.0015 10.1333 32.0015 7.99999C32.0015 5.46666 30.9348 3.46666 29.0681 2.13333C24.9348 -0.800003 22.2681 -0.53334 18.9348 3.06667ZM28.0015 4.53333C28.8015 5.6 29.3348 7.86666 29.0681 9.6C28.8015 12 27.7348 12.8 24.4015 13.0667C20.6681 13.4667 20.0015 13.0667 19.2015 9.86666C17.7348 4.26666 24.4015 0.266663 28.0015 4.53333ZM29.3348 26C29.3348 27.0667 28.4015 28 27.3348 28C23.8681 28 24.9348 25.3333 29.0681 24.1333C29.2015 24 29.3348 24.9333 29.3348 26ZM14.2681 45.6C13.8681 46.6667 13.4681 46.2667 13.4681 44.8C13.3348 43.3333 13.7348 42.5333 14.1348 43.0667C14.5348 43.4667 14.6681 44.6667 14.2681 45.6ZM22.6681 54L27.0681 58.5333L24.6681 69.3333C22.2681 79.7333 21.2015 81.2 17.6015 78.8C16.2681 78 16.5348 77.4667 18.6681 76.9333C20.2681 76.5333 21.2015 75.6 20.8015 74.9333C20.4015 74.1333 18.6681 73.8667 17.0681 74.4C14.4015 75.0667 14.2681 74.6667 15.0681 69.8667C15.6015 67.0667 16.0015 61.2 16.0015 56.9333C16.0015 52.8 16.5348 49.3333 17.0681 49.3333C17.6015 49.3333 20.1348 51.4667 22.6681 54Z" fill="white"/>
<path d="M72.2666 2.13333C70.3999 3.46666 69.3333 5.6 69.1999 8.39999C69.1999 10.8 68.1333 14.4 66.7999 16.6667C64.9333 19.8667 63.1999 20.8 58.2666 21.6C54.9333 22 51.4666 22.8 50.7999 23.3333C48.9333 24.4 48.9333 28.9333 50.6666 30C52.6666 31.2 65.3333 29.3333 65.3333 27.8667C65.3333 27.0667 62.5333 26.9333 58.6666 27.4667C54.1333 28 51.9999 27.8667 51.9999 26.8C51.9999 25.3333 53.7333 24.8 62.6666 23.4667C66.3999 22.8 67.7333 21.7333 68.9333 18.6667C70.2666 15.2 70.7999 14.8 73.5999 15.8667C75.3333 16.5333 77.9999 16.5333 79.8666 15.8667C84.1333 14.1333 87.4666 17.3333 88.5333 24C88.9333 26.8 89.7333 30 90.1333 31.2C90.7999 33.0667 89.4666 33.3333 80.7999 33.3333C74.9333 33.3333 70.6666 32.8 70.6666 32C70.6666 31.2 73.5999 30.6667 77.1999 30.6667C80.9333 30.6667 84.2666 30 84.6666 29.3333C85.1999 28.5333 83.9999 28 82.1333 28C79.5999 28 78.6666 27.3333 78.6666 25.3333C78.6666 23.2 77.7333 22.6667 74.1333 22.6667C69.9999 22.6667 69.5999 22.9333 68.7999 28.1333C68.2666 31.0667 68.2666 34 68.6666 34.8C69.1999 35.4667 72.7999 36 76.7999 36C81.5999 36 83.9999 36.5333 84.1333 37.6C84.5333 42.4 83.1999 45.2 77.5999 50.9333L71.4666 57.3333L73.0666 64.9333C73.9999 69.2 75.0666 74 75.4666 75.6C76.1333 78 75.7333 78.6667 73.7333 78.6667C71.5999 78.6667 70.7999 76.9333 68.9333 68.9333C67.5999 63.7333 66.6666 58.5333 66.6666 57.4667C66.6666 56.5333 68.7999 52.6667 71.4666 49.0667C76.2666 42.5333 76.9333 38.1333 72.1333 44.1333C64.2666 54.1333 64.3999 54 62.1333 52.1333C58.9333 49.4667 59.4666 47.3333 65.0666 42.8C67.9999 40.4 69.1999 38.8 67.9999 38.6667C65.3333 38.6667 57.3333 46 57.3333 48.5333C57.3333 49.6 58.9333 52.4 61.0666 54.8C64.5333 59.0667 64.6666 59.7333 64.5333 73.6C64.3999 81.4667 64.9333 88 65.4666 88C66.1333 88 66.6666 86.6667 66.6666 84.9333C66.6666 82.1333 67.1999 82 76.6666 82C86.2666 81.8667 86.6666 82 86.6666 84.9333C86.6666 86.6667 87.3333 88 88.1333 88C89.1999 88 89.3333 82.2667 88.6666 68.1333C87.9999 54 88.1333 48.1333 89.1999 47.4667C91.3333 46.1333 91.0666 42 88.6666 40C86.9333 38.5333 87.0666 37.8667 90.1333 35.2C92.1333 33.2 93.1999 31.0667 92.7999 29.6C92.3999 28.4 91.4666 24.9333 90.7999 21.8667C89.9999 18.9333 88.2666 15.3333 86.7999 14.1333C85.3333 12.8 84.5333 10.8 84.9333 9.2C85.7333 6.13333 80.6666 -7.62939e-06 77.3333 -7.62939e-06C76.2666 -7.62939e-06 73.8666 0.933327 72.2666 2.13333ZM80.1333 3.99999C83.4666 5.86666 83.3333 9.99999 79.7333 12.5333C74.3999 16.4 68.7999 9.06667 73.5999 4.26666C75.5999 2.26666 76.7999 2.26666 80.1333 3.99999ZM74.9333 26.9333C73.7333 28.1333 72.9333 28.1333 71.7333 26.9333C70.5333 25.7333 70.7999 25.3333 73.3333 25.3333C75.8666 25.3333 76.1333 25.7333 74.9333 26.9333ZM87.5999 45.6C87.1999 46.6667 86.7999 46.2667 86.7999 44.8C86.6666 43.3333 87.0666 42.5333 87.4666 43.0667C87.8666 43.4667 87.9999 44.6667 87.5999 45.6ZM85.3333 57.8667C85.3333 62.5333 85.7333 68.1333 86.1333 70.4C86.9333 74.1333 86.6666 74.5333 83.1999 75.0667C79.4666 75.6 79.4666 75.6 82.3999 76.6667C84.7999 77.4667 85.0666 78 83.7333 78.8C80.1333 81.2 79.0666 79.7333 76.6666 69.3333L74.2666 58.5333L78.6666 54C81.1999 51.4667 83.7333 49.3333 84.2666 49.3333C84.7999 49.3333 85.3333 53.2 85.3333 57.8667Z" fill="white"/>
<path d="M0 26.6667C0 27.3333 1.46667 28 3.33333 28C5.2 28 6.66667 27.3333 6.66667 26.6667C6.66667 25.8667 5.2 25.3333 3.33333 25.3333C1.46667 25.3333 0 25.8667 0 26.6667Z" fill="white"/>
<path d="M94.668 26.6667C94.668 27.3333 96.1346 28 98.0013 28C99.868 28 101.335 27.3333 101.335 26.6667C101.335 25.8667 99.868 25.3333 98.0013 25.3333C96.1346 25.3333 94.668 25.8667 94.668 26.6667Z" fill="white"/>
<path d="M0.934812 34.8C2.00148 35.8666 3.06814 35.8666 4.93481 34.8C7.06815 33.6 6.80148 33.4666 3.46815 33.3333C0.534812 33.3333 -0.131855 33.7333 0.934812 34.8Z" fill="white"/>
<path d="M36.668 34.6667C37.068 35.4667 43.3347 36 50.668 36C58.0014 36 64.268 35.4667 64.668 34.6667C65.2014 33.8667 60.268 33.3333 50.668 33.3333C41.068 33.3333 36.1347 33.8667 36.668 34.6667Z" fill="white"/>
<path d="M95.3337 34.6667C95.7337 35.3333 96.9337 36 98.0004 36C99.0671 36 100.267 35.3333 100.667 34.6667C101.2 33.8667 100 33.3333 98.0004 33.3333C96.0004 33.3333 94.8004 33.8667 95.3337 34.6667Z" fill="white"/>
</svg>
