<svg width="61" height="53" viewBox="0 0 61 53" fill="none" xmlns="http://www.w3.org/2000/svg">
<path d="M44.8236 0.441349C44.1133 0.828751 35.2892 5.90801 21.9023 13.6345C20.4173 14.4954 15.295 17.444 10.4955 20.2203C5.69603 22.9752 1.6068 25.4287 1.4131 25.6439C0.638296 26.5264 1.00417 27.3442 2.63987 28.5279L3.28554 28.9799L2.42465 29.4103C1.30549 29.9914 0.724385 30.6371 0.875041 31.1752C0.939608 31.4119 2.51074 34.2313 4.38317 37.4382C6.90128 41.7426 7.91283 43.2922 8.25719 43.3783C8.68763 43.4859 10.2803 42.7111 12.3679 41.3767C12.7984 41.0754 12.863 41.1185 13.4225 41.9578C14.1328 43.034 14.9076 43.4644 16.1128 43.4644C16.8876 43.4644 17.8346 42.9909 22.5265 40.3006C25.5611 38.5573 29.0047 36.5773 30.1884 35.8886C31.3506 35.2214 32.3837 34.7048 32.4698 34.7694C32.5559 34.8124 33.1585 35.8025 33.8257 36.9647C34.8587 38.7725 35.0309 39.246 35.0309 40.193C35.0309 45.1431 40.39 48.0486 44.6083 45.3799C45.5984 44.7557 45.5984 44.7557 48.9989 44.7557H52.3994L52.507 46.951C52.6361 49.5552 53.0451 50.6959 54.1427 51.6644C55.3049 52.6975 56.1012 52.9342 58.275 52.9342H60.212V40.6665V28.3988H58.4687C56.381 28.3988 55.3264 28.6786 54.3149 29.4964C53.0881 30.508 52.6146 31.7778 52.507 34.3605L52.3994 36.5773H49.2356C46.2871 36.5773 46.0503 36.5557 45.6629 36.1253C45.0388 35.4151 43.769 34.6833 42.7359 34.425C41.8535 34.1883 41.7243 34.0592 40.7558 32.3589C40.1317 31.2828 39.7873 30.4434 39.895 30.3358C40.0026 30.2282 41.9826 29.066 44.2855 27.7316C46.5884 26.3972 49.7952 24.5678 51.3879 23.6424C53.0451 22.6954 54.5086 21.6838 54.8099 21.2964C55.5632 20.3279 55.5417 18.9505 54.7453 17.53L54.1427 16.4539L54.7884 15.7437C55.5201 14.9689 55.8214 13.9358 55.6062 12.9673C55.5201 12.6445 53.9705 9.80354 52.1627 6.66129C49.7737 2.52901 48.6545 0.828751 48.1595 0.462872C47.2556 -0.139751 45.9642 -0.161274 44.8236 0.441349ZM47.4923 1.6466C47.7506 1.86182 49.4078 4.5521 51.1726 7.6298C53.9275 12.3647 54.401 13.3332 54.2934 13.8713C54.1212 14.7537 53.8629 14.9689 50.4193 16.9274C48.7621 17.8744 41.9826 21.7699 35.3537 25.6009C17.5763 35.8886 17.1028 36.1468 16.6294 36.1468C16.3926 36.1468 14.0252 34.6403 11.3564 32.8109C8.68763 30.9815 5.5669 28.8508 4.4047 28.0544C3.24249 27.2581 2.3816 26.5479 2.46769 26.4618C2.55378 26.3542 4.87819 25.0198 7.59 23.4487C10.3233 21.8775 14.4341 19.5101 16.737 18.1757C19.0399 16.8413 23.7532 14.1295 27.1753 12.1495C30.6188 10.1694 33.9118 8.27546 34.4929 7.93111C35.0955 7.58675 37.8934 5.95105 40.7343 4.29384C43.7474 2.55053 46.1364 1.28072 46.4592 1.28072C46.7821 1.28072 47.2341 1.4529 47.4923 1.6466ZM53.4109 17.939C54.0566 19.0581 54.1427 20.2203 53.6046 20.6938C53.1957 21.0382 51.4739 22.0497 46.5453 24.8907C44.8881 25.8592 40.0456 28.6355 35.7842 31.0891C31.5228 33.5426 27.1753 36.0607 26.0992 36.6849C18.4372 41.1615 16.5863 42.1731 16.0698 42.1731C15.7469 42.1731 15.295 42.0009 15.0582 41.7857C14.5632 41.3767 10.4309 34.2098 10.5816 34.0592C10.6246 33.9946 11.8084 34.7479 13.2073 35.6949C16.5648 37.9977 16.5002 37.9977 20.611 35.6518C24.3343 33.5211 35.4614 27.1075 40.3039 24.288C43.4892 22.4371 52.7438 17.0566 52.8298 17.0135C52.8298 16.992 53.1096 17.4224 53.4109 17.939ZM58.8776 40.7526L58.9207 51.6859L57.5217 51.5998C56.0367 51.5137 55.348 51.1479 54.5301 50.0502C54.0997 49.4906 54.0781 49.1463 54.0136 41.14C53.9705 35.8025 54.0351 32.5311 54.1642 32.0361C54.5947 30.6156 56.0797 29.6471 57.7369 29.7332L58.813 29.7977L58.8776 40.7526ZM6.148 30.8739C7.59 31.8424 7.63304 31.9069 9.9144 35.8455C11.1842 38.0623 12.1958 39.8917 12.1742 39.9132C11.959 40.1069 8.70915 41.9578 8.58002 41.9578C8.49393 41.9578 8.25719 41.635 8.06349 41.2261C7.86979 40.8172 6.49236 38.3851 5.00732 35.824C3.50076 33.2628 2.33856 31.1106 2.40312 31.0245C2.70444 30.7447 4.16795 29.9269 4.42622 29.9054C4.57688 29.9054 5.35168 30.3358 6.148 30.8739ZM39.3999 32.6602C39.9595 33.6502 40.1317 34.1237 39.938 34.1883C38.7543 34.5757 36.9894 35.7379 36.3868 36.5342C35.6981 37.4597 35.6981 37.4597 35.3968 36.9647C35.2461 36.6849 34.7942 35.9531 34.4283 35.329C34.0409 34.7048 33.7396 34.1022 33.7396 33.9946C33.7396 33.887 34.3852 33.435 35.2031 33.0046C35.9994 32.5526 36.9894 31.9715 37.3984 31.6917C37.8073 31.4119 38.2377 31.1967 38.3669 31.1967C38.4745 31.1967 38.948 31.8639 39.3999 32.6602ZM42.6498 35.7594C43.9842 36.1683 45.4477 37.7179 45.7921 39.1169C46.8682 43.6581 41.8535 46.8434 38.1301 44.0025C35.8703 42.2807 35.8918 38.4497 38.1516 36.6418C39.5291 35.5442 40.9711 35.2644 42.6498 35.7594ZM52.464 40.6665V43.4644H49.4508H46.4162L46.8036 42.7542C47.191 42.0224 47.3201 39.5473 47.0188 38.4497L46.8682 37.8686H49.6661H52.464V40.6665Z" fill="black"/>
</svg>
