<svg width="24" height="25" viewBox="0 0 24 25" fill="none" xmlns="http://www.w3.org/2000/svg">
<path d="M14.3 10.4457C14.6 11.5457 14.1 12.5457 13.3 13.0457V15.0457C13.3 15.7457 12.7 16.2457 12.1 16.2457C11.4 16.2457 10.9 15.6457 10.9 15.0457V13.0457C10.2 12.6457 9.80005 11.8457 9.80005 11.0457C9.80005 9.54572 11.2 8.34572 12.8 8.74572C13.4 9.04572 14.1 9.64572 14.3 10.4457Z" stroke="white" stroke-width="1.5" stroke-miterlimit="10"/>
<path d="M21.6 9.3457C20.3 5.3457 16.5 2.3457 12 2.3457C6.5 2.3457 2 6.8457 2 12.3457C2 17.8457 6.5 22.3457 12 22.3457C16.5 22.3457 20.3 19.4457 21.5 15.3457" stroke="white" stroke-width="1.5" stroke-miterlimit="10" stroke-linecap="round" stroke-linejoin="round"/>
</svg>
