<svg width="24" height="24" viewBox="0 0 24 24" fill="none" xmlns="http://www.w3.org/2000/svg">
<path d="M9.80269 9.00049L10.2355 9.25085L10.0911 9.50049H9.80269V9.00049ZM15 6.50049C12.9649 6.50049 11.1872 7.60559 10.2355 9.25085L9.36989 8.75013C10.493 6.80858 12.5935 5.50049 15 5.50049V6.50049ZM20.5 12.0005C20.5 8.96292 18.0376 6.50049 15 6.50049V5.50049C18.5899 5.50049 21.5 8.41064 21.5 12.0005H20.5ZM15 17.5005C18.0376 17.5005 20.5 15.0381 20.5 12.0005H21.5C21.5 15.5903 18.5899 18.5005 15 18.5005V17.5005ZM7.5 17.5005H15V18.5005H7.5V17.5005ZM3.5 13.5005C3.5 15.7096 5.29086 17.5005 7.5 17.5005V18.5005C4.73857 18.5005 2.5 16.2619 2.5 13.5005H3.5ZM7.5 9.50049C5.29086 9.50049 3.5 11.2913 3.5 13.5005H2.5C2.5 10.7391 4.73857 8.50049 7.5 8.50049V9.50049ZM9.80269 9.50049H7.5V8.50049H9.80269V9.50049Z" fill="#222222"/>
<path d="M16.3177 17.854C17.4213 17.6056 18.4321 17.0502 19.2337 16.2521C20.0352 15.4539 20.5948 14.4454 20.8479 13.3429C21.101 12.2404 21.0373 11.0888 20.6641 10.021C20.2909 8.95316 19.6234 8.01257 18.7387 7.30772C17.854 6.60287 16.788 6.16247 15.6638 6.03732C14.5396 5.91217 13.4029 6.10738 12.3848 6.60042C11.3667 7.09346 10.5088 7.86424 9.9099 8.82387C9.31102 9.7835 8.99561 10.8929 9.00005 12.024" stroke="#222222"/>
</svg>
