<svg width="35" height="26" viewBox="0 0 35 26" fill="none" xmlns="http://www.w3.org/2000/svg">
<path d="M15.0153 1.20016C13.614 1.92909 11.908 3.26546 11.1768 4.23737C10.2629 5.513 9.40987 5.99896 8.13036 5.99896C1.30633 5.99896 -2.3494 13.106 1.6719 18.3908C2.58584 19.5449 3.31698 21.185 3.31698 22.0355C3.31698 22.9466 3.9872 24.04 4.96206 24.8297C6.54621 26.0446 7.21643 26.1053 16.2948 25.9231L25.9825 25.7409L27.9322 23.5541C28.968 22.3392 30.4303 21.185 31.1615 20.9421C33.1721 20.3346 35 17.6619 35 15.4143C35 13.8957 34.5126 12.9846 33.1112 11.8304C32.0754 10.98 31.0396 10.2511 30.7959 10.2511C30.5522 10.2511 30.0038 9.21841 29.6383 7.88203C28.6634 4.66258 26.7137 2.41504 23.7891 1.07867C20.4989 -0.379196 18.2446 -0.379196 15.0153 1.20016ZM22.997 1.98983C25.7388 3.08323 28.2369 6.24194 28.6634 9.09692C28.968 10.8585 29.3336 11.4659 30.1866 11.4659C33.4158 11.4659 34.9391 16.447 32.441 18.7553C30.8568 20.2131 29.5164 20.3346 29.5164 18.9982C29.5164 17.4189 26.1044 14.5032 24.3374 14.5032C23.3626 14.5032 21.7175 13.6527 20.1943 12.3771C18.1227 10.6155 17.2697 10.2511 14.8325 10.2511C12.3954 10.2511 11.4815 10.6155 9.77544 12.0734C8.61779 13.106 7.52108 14.7461 7.27736 15.6573C6.85086 17.7226 4.23092 19.1805 2.95141 18.0871C2.52491 17.7226 1.85469 16.5077 1.48912 15.4143C0.0877525 11.1015 4.04813 6.66714 8.61779 7.39608C9.71452 7.57831 10.6284 7.51757 10.6284 7.21384C10.6284 6.91012 11.3596 5.81672 12.2735 4.72333C15.1372 1.38239 19.0976 0.349735 22.997 1.98983ZM19.7069 13.7135C21.4129 15.4751 22.3268 15.9003 23.7891 15.7788C25.2514 15.6573 26.0435 16.0218 27.0183 17.2974C28.6025 19.302 28.6634 21.2458 27.1402 23.0681C26.0435 24.4652 25.617 24.526 16.5385 24.7082C5.81507 24.9512 4.53556 24.5867 4.53556 21.7317C4.53556 20.2131 4.90113 19.7272 6.36343 19.1805C7.46015 18.7553 8.19129 18.0263 8.19129 17.3581C8.19129 14.1387 11.1159 11.5267 14.8325 11.4659C17.0869 11.4659 17.7571 11.7697 19.7069 13.7135Z" fill="white"/>
</svg>
