<svg width="21" height="20" viewBox="0 0 21 20" fill="none" xmlns="http://www.w3.org/2000/svg">
<path d="M9.67315 0.131654C9.39847 0.419413 9.20227 0.94261 9.20227 1.39387C9.20881 1.87783 9.34615 2.24406 9.69277 2.65608C10.1309 3.17928 10.1636 3.61092 9.80395 4.17335C9.58159 4.51997 9.60121 4.68347 9.87589 4.83389C10.0786 4.93853 10.3141 4.74233 10.556 4.27145C10.713 3.95754 10.7457 3.81366 10.7392 3.4605C10.7326 2.95038 10.628 2.6757 10.2617 2.23752C9.81049 1.68817 9.77125 1.23037 10.1506 0.667931C10.3402 0.380173 10.3468 0.354013 10.2552 0.190514C10.1244 -0.0383854 9.86281 -0.0645452 9.67315 0.131654Z" fill="black"/>
<path d="M6.2135 1.07987C5.83418 1.54421 5.71646 2.22437 5.91266 2.80643C5.97152 2.96992 6.1481 3.25768 6.30506 3.45388C6.7367 3.98362 6.78248 4.5199 6.43586 5.02347C6.22658 5.32431 6.25274 5.58591 6.48818 5.67093C6.76286 5.77557 7.03754 5.52705 7.25336 4.97115C7.50187 4.31716 7.37761 3.65008 6.90674 3.07456C6.76286 2.90453 6.62552 2.70179 6.59282 2.61677C6.45548 2.25707 6.5732 1.63577 6.81518 1.43303C7.04408 1.24337 6.86096 0.837894 6.54704 0.837894C6.46856 0.837894 6.32468 0.942534 6.2135 1.07987Z" fill="black"/>
<path d="M12.9562 1.07324C12.3742 1.77956 12.4526 2.77363 13.1524 3.60421C13.329 3.81349 13.3682 3.91159 13.3879 4.2582C13.4075 4.62444 13.3944 4.68984 13.2047 4.9776C12.9693 5.32422 12.9758 5.54658 13.2178 5.65122C13.4402 5.74932 13.5644 5.697 13.7606 5.41578C14.2577 4.69638 14.2315 3.77425 13.7018 3.15295C13.3944 2.79325 13.2701 2.51857 13.2701 2.21119C13.2701 1.95613 13.4598 1.47872 13.5971 1.3937C13.7018 1.3283 13.6691 1.06016 13.5448 0.948979C13.3552 0.7724 13.1655 0.81818 12.9562 1.07324Z" fill="black"/>
<path d="M2.1849 7.68524C2.0868 7.78334 2.07372 7.97954 2.10642 9.69301C2.13258 11.5111 2.13912 11.6223 2.30916 12.2174C2.83235 14.0748 3.95069 15.5332 5.61838 16.5338L6.1612 16.8608H3.15281C0.543364 16.8608 0.131346 16.8739 0.0594065 16.9589C-0.058313 17.0963 0.00708673 17.783 0.183666 18.2342C0.445265 18.9274 1.13196 19.5814 1.87752 19.843L2.3157 20H9.9413C16.5336 20 17.6061 19.9869 17.8939 19.9019C19.0122 19.5684 19.8494 18.5874 19.9278 17.5148C19.9475 17.2009 19.9344 17.0309 19.8755 16.9589C19.8036 16.8739 19.3916 16.8608 16.7756 16.8608H13.7606L14.2119 16.5992C14.8332 16.233 15.2583 15.9191 15.7553 15.4547C16.1216 15.1016 16.2327 15.0427 16.5728 14.9708C18.8814 14.4868 20.6603 12.4333 20.778 10.1181C20.8173 9.30715 20.7911 9.16327 20.5491 8.87551C20.2287 8.49619 19.9671 8.42425 18.8487 8.42425H17.8481V8.1038C17.8481 7.52174 18.6198 7.57406 9.96746 7.57406C2.88467 7.57406 2.283 7.5806 2.1849 7.68524ZM17.2595 9.48373C17.2595 10.9552 17.1549 11.7662 16.8737 12.5444C16.0954 14.6699 14.4408 16.1545 12.2238 16.7039C11.8052 16.8085 11.4782 16.8281 9.96746 16.8281C8.34555 16.8281 8.15589 16.815 7.61961 16.6777C6.91983 16.5011 5.95846 16.0564 5.39602 15.6575C4.90552 15.3108 4.10111 14.4737 3.76757 13.9636C3.39479 13.4077 3.08087 12.6752 2.89121 11.9624C2.74733 11.4065 2.72117 11.1645 2.69501 9.77803L2.65577 8.22806H9.96092H17.2595V9.48373ZM20.0063 9.19597C20.3987 9.51643 20.1502 11.0664 19.5354 12.1193C19.215 12.6687 18.4171 13.4731 17.9004 13.7739C17.5211 13.9963 16.7886 14.3168 16.7494 14.2841C16.7429 14.271 16.8213 14.1009 16.9391 13.9113C17.2007 13.46 17.4884 12.7406 17.665 12.0997C17.7696 11.7008 17.8089 11.328 17.8285 10.3339L17.8612 9.07825H18.8618C19.7251 9.07825 19.8821 9.09133 20.0063 9.19597ZM19.2869 17.6325C19.2869 17.9007 18.9665 18.4762 18.6591 18.7574C18.4956 18.9078 18.1947 19.1106 17.992 19.2021L17.6192 19.3787H9.96746H2.3157L1.94946 19.2087C1.74672 19.1106 1.45896 18.9274 1.31508 18.7901C1.03386 18.5416 0.648004 17.8549 0.648004 17.6195V17.4821H9.96746H19.2869V17.6325Z" fill="black"/>
<path d="M4.21228 10.2753C3.99646 10.6088 4.3627 12.1719 4.84012 12.9828C5.13442 13.4668 5.66415 14.0488 5.82111 14.0488C5.96499 14.0488 6.20697 13.8265 6.20697 13.6957C6.20697 13.6434 6.10233 13.4733 5.96499 13.3164C5.30446 12.5381 4.9513 11.7206 4.86628 10.7788C4.84012 10.5107 4.7878 10.2491 4.74856 10.2033C4.64392 10.066 4.32346 10.1118 4.21228 10.2753Z" fill="black"/>
</svg>
