<svg width="24" height="25" viewBox="0 0 24 25" fill="none" xmlns="http://www.w3.org/2000/svg">
<path d="M1.97998 13.96H5.76998C6.14206 13.9602 6.50672 14.0641 6.82294 14.2602C7.13916 14.4563 7.3944 14.7367 7.55998 15.07L8.44998 16.86C8.99998 17.96 9.99998 17.96 10.24 17.96H13.77C14.1421 17.9598 14.5067 17.8558 14.8229 17.6597C15.1392 17.4636 15.3944 17.1832 15.56 16.85L16.45 15.06C16.6156 14.7267 16.8708 14.4463 17.187 14.2502C17.5032 14.0541 17.8679 13.9502 18.24 13.95H21.98M19 8.95996C19.7956 8.95996 20.5587 8.64389 21.1213 8.08128C21.6839 7.51867 22 6.75561 22 5.95996C22 5.16431 21.6839 4.40125 21.1213 3.83864C20.5587 3.27603 19.7956 2.95996 19 2.95996C18.2043 2.95996 17.4413 3.27603 16.8787 3.83864C16.3161 4.40125 16 5.16431 16 5.95996C16 6.75561 16.3161 7.51867 16.8787 8.08128C17.4413 8.64389 18.2043 8.95996 19 8.95996Z" stroke="white" stroke-width="1.5" stroke-linecap="round" stroke-linejoin="round"/>
<path d="M14 2.95996H9C4 2.95996 2 4.95996 2 9.95996V15.96C2 20.96 4 22.96 9 22.96H15C20 22.96 22 20.96 22 15.96V10.96" stroke="white" stroke-width="1.5" stroke-linecap="round" stroke-linejoin="round"/>
</svg>
