<svg width="24" height="24" viewBox="0 0 24 24" fill="none" xmlns="http://www.w3.org/2000/svg">
<path d="M1.97998 13H5.76998C6.14206 13.0002 6.50672 13.1042 6.82294 13.3003C7.13916 13.4964 7.3944 13.7768 7.55998 14.11L8.44998 15.9C8.99998 17 9.99998 17 10.24 17H13.77C14.1421 16.9998 14.5067 16.8958 14.8229 16.6997C15.1392 16.5036 15.3944 16.2232 15.56 15.89L16.45 14.1C16.6156 13.7668 16.8708 13.4864 17.187 13.2903C17.5032 13.0942 17.8679 12.9902 18.24 12.99H21.98M19 8C19.7956 8 20.5587 7.68393 21.1213 7.12132C21.6839 6.55871 22 5.79565 22 5C22 4.20435 21.6839 3.44129 21.1213 2.87868C20.5587 2.31607 19.7956 2 19 2C18.2043 2 17.4413 2.31607 16.8787 2.87868C16.3161 3.44129 16 4.20435 16 5C16 5.79565 16.3161 6.55871 16.8787 7.12132C17.4413 7.68393 18.2043 8 19 8Z" stroke="white" stroke-width="1.5" stroke-linecap="round" stroke-linejoin="round"/>
<path d="M14 2H9C4 2 2 4 2 9V15C2 20 4 22 9 22H15C20 22 22 20 22 15V10" stroke="white" stroke-width="1.5" stroke-linecap="round" stroke-linejoin="round"/>
</svg>
