<svg width="80" height="80" viewBox="0 0 80 80" fill="none" xmlns="http://www.w3.org/2000/svg">
<circle cx="40" cy="40" r="40" fill="#171616"/>
<path d="M30.1216 20.3765C29.8706 20.5804 29.6039 20.9882 29.5098 21.2706L29.3216 21.8039L26.6706 21.8824C23.2667 21.9765 23 22.1176 23 23.7647C23 24.4863 23.0627 24.6431 23.5333 25.0824L24.051 25.5686L24.6941 33.1608C25.3843 41.4745 25.3059 41.1451 26.451 41.9137C26.9686 42.2745 27.0314 42.2745 32.3333 42.2745C37.6353 42.2745 37.698 42.2745 38.2157 41.9137C39.2824 41.2078 39.2824 41.1451 39.8784 34.2431C40.1608 30.7608 40.4118 27.8745 40.4118 27.7961C40.4118 27.7333 43.4235 27.6863 47.1255 27.6863C53.3059 27.6863 53.8706 27.7176 54.451 27.9843C55.1882 28.3294 55.8471 28.9882 56.0824 29.6157C56.2078 29.9137 56.2549 34.3529 56.2549 43.3882C56.2549 55.3725 56.2235 56.7686 56.0039 57.2235C55.6431 57.9451 55.3137 58.2588 54.6549 58.6039C54.0745 58.902 53.6039 58.902 41.6039 58.8706L29.149 58.8235L28.5373 58.3373C27.3137 57.3647 27.3137 57.3961 27.2667 50.5882C27.251 47.2627 27.1882 44.4549 27.1569 44.3451C27.1098 44.2353 26.9216 44.1569 26.7333 44.1882L26.3725 44.2353L26.3255 50.4314C26.2941 54.7608 26.3412 56.8314 26.4667 57.2863C26.7176 58.1804 27.5961 59.1843 28.5529 59.6235L29.3529 60H41.8392H54.3098L55.1255 59.5922C56.0196 59.1529 56.6314 58.5098 57.0549 57.5686C57.3373 56.9725 57.3529 56.1725 57.3529 43.4667C57.3529 33.2549 57.3059 29.8353 57.1647 29.349C57.0392 28.9569 56.6628 28.3922 56.1765 27.8902C54.9216 26.6039 54.8431 26.5882 47.1255 26.5882H40.5686V25.9608C40.5686 25.6157 40.6471 25.3333 40.7255 25.3333C40.8196 25.3333 41.0706 25.1451 41.2745 24.9255C41.5882 24.5961 41.6667 24.3294 41.6667 23.7333C41.6667 22.0863 41.2431 21.8824 37.902 21.8824H35.3922L35.1412 21.2549C34.702 20.1569 34.3569 20 32.3176 20C30.6863 20 30.5137 20.0314 30.1216 20.3765ZM33.949 21.2863C34.451 21.7882 34.1686 21.8824 32.3333 21.8824C30.498 21.8824 30.2157 21.7882 30.7176 21.2863C30.9686 21.0353 33.698 21.0353 33.949 21.2863ZM40.4902 23.6863V24.3137H32.3333H24.1765L24.1294 23.8745C24.0196 22.9176 23.502 22.9804 32.3647 23.0118L40.4902 23.0588V23.6863ZM39.4706 25.8353C39.4549 26.0392 39.1882 29.3961 38.8588 33.302C38.2941 40.1255 38.2627 40.4078 37.902 40.7843L37.5412 41.1765H32.3333H27.1255L26.7804 40.8C26.5922 40.5961 26.4039 40.2039 26.3569 39.9059C26.2627 39.2314 25.1961 26.3529 25.1961 25.851V25.4902H32.3333H39.4706V25.8353Z" fill="#F9D03F"/>
<path d="M27.1086 26.7768C26.9674 26.9807 27.8772 39.169 28.0811 39.7023C28.1909 39.9847 28.8968 39.9847 29.0066 39.7023C29.1164 39.4356 28.0811 26.9807 27.9399 26.7454C27.7988 26.5258 27.2968 26.5415 27.1086 26.7768Z" fill="#F9D03F"/>
<path d="M31.8654 26.7923C31.8184 26.8864 31.8027 29.8825 31.8184 33.4119L31.8654 39.8433H32.336H32.8066L32.8537 33.4276C32.8694 28.8315 32.838 26.9491 32.7125 26.808C32.4929 26.5413 31.9596 26.5256 31.8654 26.7923Z" fill="#F9D03F"/>
<path d="M36.7048 26.7611C36.5794 26.9807 35.5127 39.467 35.6225 39.718C35.6539 39.8278 35.8735 39.9219 36.0931 39.9219C36.3127 39.9219 36.5323 39.8278 36.5637 39.718C36.7362 39.2631 37.6617 27.0434 37.5362 26.8238C37.395 26.5572 36.8617 26.5101 36.7048 26.7611Z" fill="#F9D03F"/>
<path d="M48.9948 31.718C48.7281 31.969 48.9477 32.4239 49.6693 33.1141L50.4536 33.867L49.6536 34.6984C49.1046 35.2788 48.885 35.6396 48.9163 35.8906C49.0105 36.518 49.4967 36.3925 50.3909 35.5141L51.2379 34.6827L52.085 35.5141C52.9791 36.3925 53.4654 36.518 53.5595 35.8906C53.5909 35.6396 53.3712 35.2788 52.8222 34.6984L52.0379 33.867L52.8222 33.0827C53.6693 32.2513 53.7948 31.7337 53.1673 31.6396C52.9163 31.6082 52.5712 31.8121 52.0222 32.3298L51.2222 33.067L50.485 32.3455C49.7948 31.6709 49.2614 31.4357 48.9948 31.718Z" fill="#F9D03F"/>
<path d="M41.6649 32.1573C41.5708 32.2828 41.508 32.5024 41.5394 32.6592C41.5865 32.9102 41.8218 32.9416 44.0806 32.9886C45.7747 33.02 46.6374 32.9729 46.7786 32.8475C47.061 32.6122 47.061 32.471 46.7473 32.1729C46.4022 31.8122 41.9629 31.7965 41.6649 32.1573Z" fill="#F9D03F"/>
<path d="M41.3839 35.0902C41.1329 35.3412 41.1486 35.451 41.4466 35.749C41.6506 35.9529 42.1211 36 44.0976 36C46.0741 36 46.5447 35.9529 46.7486 35.749C47.0466 35.451 47.0623 35.3412 46.8113 35.0902C46.5447 34.8235 41.6506 34.8235 41.3839 35.0902Z" fill="#F9D03F"/>
<path d="M48.9899 40.9719C48.7389 41.2229 48.9272 41.615 49.6958 42.3836L50.4958 43.1993L49.6801 43.9679C49.0526 44.564 48.8644 44.8307 48.9115 45.113C49.0056 45.8032 49.6017 45.6778 50.4801 44.7836L51.2958 43.9836L52.1115 44.7993C52.6291 45.317 53.0213 45.5836 53.2095 45.5366C53.7742 45.4268 53.633 44.9248 52.8174 44.0934L52.0017 43.2778L52.8017 42.4621C53.3977 41.8817 53.6017 41.5679 53.5546 41.3013C53.4605 40.6268 52.8801 40.7523 52.033 41.6307L51.2644 42.415L50.4958 41.6464C49.7742 40.9248 49.2566 40.6895 48.9899 40.9719Z" fill="#F9D03F"/>
<path d="M40.5653 41.4122C40.4712 41.5376 40.4242 41.7729 40.4869 41.9612C40.581 42.2592 40.7065 42.2749 43.6085 42.2749C45.7418 42.2749 46.6673 42.2278 46.8085 42.0867C47.0594 41.8357 47.0438 41.7259 46.7457 41.4278C46.4006 41.0671 40.8634 41.0514 40.5653 41.4122Z" fill="#F9D03F"/>
<path d="M31.3474 44.3446C31.0965 44.5956 31.1121 44.7054 31.4102 45.0034C31.6298 45.223 32.5396 45.2544 39.0808 45.2544C45.6219 45.2544 46.5318 45.223 46.7514 45.0034C47.0494 44.7054 47.0651 44.5956 46.8141 44.3446C46.5474 44.0779 31.6141 44.0779 31.3474 44.3446Z" fill="#F9D03F"/>
<path d="M48.9948 50.2272C48.7281 50.4939 48.9477 50.9801 49.6693 51.7488L50.4379 52.5644L49.6536 53.3488C48.8065 54.1801 48.6811 54.6978 49.3085 54.7919C49.5595 54.8233 49.9046 54.6193 50.4536 54.1017L51.2536 53.3644L52.0065 54.1017C52.5712 54.6507 52.8693 54.8389 53.136 54.7919C53.7948 54.6978 53.6693 54.1958 52.8222 53.3488L52.0379 52.5801L52.8222 51.7174C53.3399 51.1527 53.5909 50.7448 53.5595 50.5252C53.4654 49.9135 52.9634 50.0546 52.085 50.9174L51.2379 51.7488L50.4065 50.9331C49.6379 50.1644 49.2458 49.9762 48.9948 50.2272Z" fill="#F9D03F"/>
<path d="M31.4102 50.6827C31.1121 50.9807 31.0965 51.0905 31.3474 51.3415C31.6141 51.6082 46.5474 51.6082 46.8141 51.3415C47.0651 51.0905 47.0494 50.9807 46.7514 50.6827C46.5318 50.4631 45.6219 50.4317 39.0808 50.4317C32.5396 50.4317 31.6298 50.4631 31.4102 50.6827Z" fill="#F9D03F"/>
<path d="M31.3328 53.6318C31.1916 53.8044 31.1759 53.9455 31.3171 54.1808C31.4897 54.5103 31.5681 54.5103 39.0034 54.5103C45.6073 54.5103 46.5328 54.4789 46.7524 54.2593C46.9406 54.071 46.9563 53.9455 46.8465 53.7103C46.6897 53.4279 46.423 53.4122 39.0975 53.4122C32.6975 53.4122 31.4897 53.4436 31.3328 53.6318Z" fill="#F9D03F"/>
</svg>
