<svg width="120" height="88" viewBox="0 0 120 88" fill="none" xmlns="http://www.w3.org/2000/svg">
<path d="M53.1103 2.90056C48.9769 7.30056 49.2436 13.5672 53.6436 17.0339C60.3103 22.2339 68.0436 19.1672 69.6436 10.9006C71.3769 1.96723 59.377 -3.76611 53.1103 2.90056ZM63.777 4.10056C68.0436 7.43389 67.377 14.1006 62.7103 15.9672C55.5103 18.6339 49.5103 9.96723 54.9769 4.63389C57.5103 2.10056 60.8436 1.96723 63.777 4.10056Z" fill="white"/>
<path d="M48.5766 23.3006C44.8432 25.1673 43.9099 27.434 43.2432 35.1673C42.8432 38.634 42.1766 39.3006 38.3099 39.834C34.1766 40.3673 33.5099 41.1673 31.3766 47.1673C30.1766 50.7673 28.4432 55.5673 27.6432 57.7006L26.0432 61.7006L23.6432 57.7006C20.0432 51.834 17.5099 50.234 12.0432 50.7673C5.5099 51.3006 2.57657 55.434 0.843239 67.034C-0.490095 75.434 -0.223428 78.634 1.50991 76.9007C1.90991 76.5007 2.84324 72.3673 3.64324 67.7006C5.37657 56.9007 7.64324 53.1673 12.7099 53.1673C17.2432 53.1673 18.9766 55.034 23.5099 64.3673C26.7099 70.7673 27.1099 71.1673 32.8432 71.834C37.2432 72.3673 38.9766 73.1673 39.2432 74.9007C39.6432 77.034 38.8432 77.3007 30.5766 76.9007L21.5099 76.5007L18.9766 70.7673C17.5099 67.7006 15.9099 65.1673 15.2432 65.1673C13.5099 65.1673 14.0432 67.5673 16.9766 73.3007C19.2432 77.834 19.3766 79.434 18.3099 82.7673C17.5099 85.034 16.8432 87.1673 16.8432 87.3007C16.8432 87.5673 36.0432 87.834 59.5099 87.834C88.8432 87.834 102.177 87.434 102.177 86.3673C102.177 85.5673 101.51 83.834 100.843 82.5007C99.7766 80.5007 100.177 78.3673 102.843 73.034C104.843 69.3006 105.91 65.834 105.51 65.434C104.577 64.5007 102.843 66.5007 99.2432 73.1673C96.9766 77.1673 96.7099 77.3007 88.5766 76.9007C82.1766 76.634 80.1766 75.9673 80.1766 74.5007C80.1766 73.034 82.0432 72.3673 86.5766 71.834C92.9766 71.1673 92.9766 71.1673 97.2432 62.5007C101.643 53.7006 103.643 52.234 109.51 53.7006C112.977 54.634 114.843 59.1673 116.31 70.1007C116.843 73.9673 117.777 77.1673 118.577 77.1673C119.377 77.1673 119.51 74.234 118.977 69.1673C117.243 54.634 114.577 50.5006 106.843 50.5006C101.643 50.5006 98.4432 52.634 95.7766 58.1006L93.2432 62.9007L89.3766 51.7006C85.6432 41.034 85.3766 40.5006 81.2432 40.1006C77.3766 39.7006 76.8432 39.1673 76.8432 35.834C76.8432 30.1006 74.7099 25.5673 70.7099 23.034C67.3766 20.7673 66.8432 20.7673 63.3766 22.7673C60.1766 24.634 59.3766 24.634 57.2432 23.034C54.1766 20.7673 53.1099 20.7673 48.5766 23.3006ZM56.8432 26.5006C60.1766 29.034 60.1766 29.034 63.1099 26.234C65.9099 23.7006 66.3099 23.5673 69.2432 25.5673C72.9766 27.9673 75.2432 36.634 72.9766 38.9007C71.9099 39.9673 71.5099 39.3006 71.5099 36.7673V33.1673H59.6432H47.6432L47.1099 36.7673C46.7099 39.434 46.5766 38.7673 46.3099 34.7673C46.1766 30.7673 46.9766 28.3673 48.8432 26.5006C52.0432 23.3006 52.7099 23.3006 56.8432 26.5006ZM68.8432 41.834V47.9673L59.9099 47.5673C51.1099 47.1673 50.8432 47.034 50.4432 43.434C49.6432 36.634 50.7099 35.834 60.1766 35.834H68.8432V41.834ZM46.5766 43.3006C45.3766 43.834 45.3766 44.7673 46.4432 47.3006C47.9099 50.3673 48.5766 50.5006 59.3766 50.5006C69.6432 50.5006 71.1099 50.234 72.7099 47.7006C74.1766 45.3006 74.1766 44.634 72.5766 43.7006C71.5099 42.9007 73.1099 42.5006 76.9766 42.5006H83.1099L87.3766 53.9673C89.6432 60.3673 91.2432 65.834 90.8432 66.234C90.5766 66.634 88.8432 65.9673 87.1099 64.7673C84.8432 63.3006 83.6432 61.034 83.1099 57.1673C82.7099 54.1007 82.1766 51.3006 81.7766 51.034C81.1099 50.3673 67.3766 54.5006 65.6432 55.9673C65.1099 56.5006 64.9766 59.9673 65.5099 63.7006C66.3099 69.9673 66.8432 70.7673 71.2432 72.5007C73.7766 73.7007 76.8432 75.7007 77.7766 77.1673C79.3766 79.3007 81.2432 79.834 88.3099 79.834C92.9766 79.834 96.8432 80.1007 96.8432 80.3673C96.8432 80.634 97.2432 81.834 97.6432 83.034C98.4432 84.9007 94.4432 85.1673 59.6432 85.1673C38.3099 85.1673 20.8432 84.9007 20.8432 84.634C20.8432 80.7673 22.9766 79.834 31.6432 79.834C39.3766 79.834 40.9766 79.434 42.1766 77.1673C42.9766 75.7007 45.6432 73.7007 48.0432 72.634C52.0432 71.034 52.7099 69.834 54.0432 63.7006C54.8432 59.834 55.1099 56.3673 54.5766 55.834C52.8432 54.234 38.1766 50.634 37.6432 51.5673C37.3766 52.1007 36.7099 55.034 36.1766 58.234C35.5099 62.7673 34.4432 64.234 31.9099 65.3006C30.0432 65.9673 28.3099 66.3673 28.0432 66.1007C27.7766 65.9673 29.5099 60.5007 31.9099 54.1007L36.1766 42.5006L42.1766 42.634C45.5099 42.634 47.5099 43.034 46.5766 43.3006ZM46.3099 56.1006C51.5099 57.5673 52.8432 60.234 50.7099 65.5673C49.6432 68.3673 38.8432 65.1673 38.9766 61.9673C39.3766 53.434 38.8432 53.834 46.3099 56.1006ZM80.9766 59.5673C81.7766 63.7006 81.6432 63.9673 75.6432 65.7006C69.7766 67.434 69.5099 67.3006 68.5766 64.634C66.8432 58.7673 67.3766 57.434 72.5766 56.1006C79.2432 54.3673 79.9099 54.634 80.9766 59.5673ZM43.3766 68.5007C45.3766 69.1673 46.0432 69.834 45.1099 70.7673C44.3099 71.5673 42.8432 71.5673 41.1099 70.634C39.6432 69.834 36.9766 69.1673 35.2432 69.1673C32.8432 69.1673 32.5766 68.9007 34.1766 67.834C35.2432 67.1673 37.1099 66.7673 38.1766 67.034C39.2432 67.434 41.6432 67.9673 43.3766 68.5007ZM85.5099 67.834C85.9099 68.634 84.9766 69.1673 83.2432 69.1673C81.5099 69.1673 79.3766 69.834 78.7099 70.5007C77.9099 71.3006 76.1766 71.434 74.8432 71.034C72.7099 70.234 73.1099 69.7006 76.9766 68.3673C82.7099 66.234 84.4432 66.1007 85.5099 67.834Z" fill="white"/>
<path d="M58.8422 41.1672C58.4422 41.8339 58.7089 42.5006 59.3756 42.5006C60.1756 42.5006 60.8422 41.8339 60.8422 41.1672C60.8422 40.3672 60.5756 39.8339 60.3089 39.8339C59.9089 39.8339 59.2422 40.3672 58.8422 41.1672Z" fill="white"/>
<path d="M12.8425 31.1673C6.70921 37.7007 11.1092 49.1673 19.6425 49.1673C25.1092 49.1673 30.5759 43.834 30.5759 38.7673C30.5759 33.034 25.6425 27.834 20.1759 27.834C17.3759 27.834 14.8425 29.034 12.8425 31.1673ZM25.1092 32.7673C29.9092 37.034 26.7092 46.5007 20.4425 46.5007C16.4425 46.5007 12.8425 42.634 12.8425 38.3673C12.8425 31.434 19.9092 28.1007 25.1092 32.7673Z" fill="white"/>
<path d="M92.1767 31.1673C85.51 37.7007 90.1767 49.1673 99.51 49.1673C104.977 49.1673 110.177 43.9673 110.177 38.5007C110.177 33.034 104.977 27.834 99.51 27.834C96.9767 27.834 94.1767 29.034 92.1767 31.1673ZM104.843 33.1673C106.31 34.634 107.51 37.034 107.51 38.5007C107.51 39.9673 106.31 42.3673 104.843 43.834C103.377 45.3007 100.977 46.5007 99.51 46.5007C98.0433 46.5007 95.6433 45.3007 94.1767 43.834C92.71 42.3673 91.51 39.9673 91.51 38.5007C91.51 37.034 92.71 34.634 94.1767 33.1673C95.6433 31.7007 98.0433 30.5007 99.51 30.5007C100.977 30.5007 103.377 31.7007 104.843 33.1673Z" fill="white"/>
</svg>
