<svg width="27" height="14" viewBox="0 0 27 14" fill="none" xmlns="http://www.w3.org/2000/svg">
<path d="M9.17862 0.167606C8.51242 0.360454 8.19685 0.781213 7.19755 2.77981C6.77679 3.6038 6.40863 4.16481 6.37356 4.04209C6.32097 3.9369 5.98787 3.77912 5.60217 3.72652C5.16388 3.65639 4.91844 3.51614 4.91844 3.34083C4.91844 3.14798 5.07622 3.09538 5.70736 3.16551C6.26837 3.23564 6.49628 3.20057 6.49628 3.04279C6.49628 2.56944 5.11129 2.42918 4.74312 2.84994C4.63793 2.99019 4.56781 3.28823 4.60287 3.51614C4.63793 3.81418 4.84831 3.95443 5.49698 4.14728C6.25084 4.35766 6.32097 4.42778 6.19825 4.76089C6.12812 4.97126 6.05799 6.56664 6.05799 8.30227V11.458H7.19755H8.3371L8.3897 10.8794C8.42476 10.5814 8.54748 10.3184 8.65267 10.3009C8.77539 10.3009 9.10849 10.2483 9.389 10.1957C9.98507 10.0905 16.3841 10.0554 17.4535 10.1606C18.0847 10.2307 18.1548 10.2833 18.1548 10.7041C18.1548 10.9671 18.2425 11.2651 18.3476 11.3703C18.6282 11.6508 20.3638 11.6157 20.5566 11.3352C20.7319 11.0547 20.6443 5.09399 20.4514 4.67323C20.3462 4.42778 20.469 4.34013 21.1702 4.12975C21.9241 3.90184 22.0118 3.83171 22.0118 3.37589C22.0118 2.79735 21.3981 2.48178 20.6268 2.67463C19.908 2.84994 20.0482 3.25317 20.8371 3.23564C21.6787 3.2181 21.7663 3.53367 20.9774 3.70899C20.6268 3.79665 20.3462 3.9369 20.3462 4.02456C20.3462 4.49791 19.9956 4.00703 19.3294 2.63956C18.3652 0.658491 18.1022 0.342922 17.2782 0.150075C16.3841 -0.0603046 9.91495 -0.0427723 9.17862 0.167606ZM17.7866 0.868871C18.3476 1.44741 20.0131 4.76089 20.1885 5.655C20.2761 6.04069 20.2937 7.46075 20.2235 8.77562L20.1183 11.195H19.3645C18.6282 11.195 18.6106 11.195 18.558 10.5288C18.5054 9.88011 18.5054 9.88011 17.5412 9.72233C16.4016 9.54701 10.3182 9.52948 9.0033 9.7048L8.07413 9.82752V10.5288V11.2125L7.25014 11.1599L6.40863 11.1073V8.12695V5.14658L7.51312 3.04279C8.12672 1.8857 8.70527 0.868871 8.79292 0.76368C9.09096 0.465644 10.5987 0.342922 13.9998 0.395517C17.3308 0.43058 17.3834 0.448112 17.7866 0.868871Z" fill="black"/>
<path d="M6.90008 5.02362C6.49685 5.28659 6.49685 5.93526 6.90008 6.39109C7.3559 6.91703 8.91621 7.2326 8.95127 6.79431C8.98634 6.35602 8.91621 6.04045 8.70583 5.58463C8.42533 5.00609 8.25001 4.88337 7.61887 4.88337C7.33837 4.88337 7.00527 4.95349 6.90008 5.02362ZM8.3026 5.67229C8.61817 6.16317 8.67077 6.63653 8.40779 6.63653C8.3026 6.63653 7.95197 6.51381 7.61887 6.39109C7.04033 6.14564 6.81242 5.65476 7.12799 5.35672C7.39096 5.09375 8.03963 5.25153 8.3026 5.67229Z" fill="black"/>
<path d="M18.1904 5.12836C17.8222 5.49652 17.4891 6.40816 17.6119 6.72373C17.7521 7.0919 18.7339 7.05683 19.4351 6.63608C19.8559 6.3731 19.9962 6.16272 19.9962 5.79456C19.9962 5.53158 19.9085 5.21602 19.7858 5.09329C19.5053 4.81279 18.506 4.83032 18.1904 5.12836ZM19.6105 5.72443C19.6631 6.04 19.5403 6.18025 19.0494 6.3731C18.7163 6.51335 18.3482 6.63608 18.243 6.63608C17.98 6.63608 18.0326 6.16272 18.3482 5.65431C18.7339 5.07576 19.5228 5.12836 19.6105 5.72443Z" fill="black"/>
<path d="M10.1602 6.61923C10.1602 6.91727 10.2303 7.19778 10.3355 7.25037C10.4231 7.30297 11.1419 7.46075 11.9133 7.601C13.123 7.81138 13.5087 7.81138 14.7534 7.601C16.2261 7.33803 16.4715 7.18025 16.4715 6.49651V6.11082H13.3158H10.1602V6.61923ZM15.9456 6.70689C15.9456 7.28544 12.2815 7.49581 10.9491 6.9874C9.93225 6.6017 10.5634 6.46145 13.2282 6.46145C15.4196 6.46145 15.9456 6.51405 15.9456 6.70689Z" fill="black"/>
<path d="M10.3398 8.54732C10.3398 8.84535 10.5502 9.26611 10.708 9.26611C10.7957 9.26611 10.8658 9.14339 10.8658 9.00314C10.8658 8.77523 11.2515 8.74017 13.3202 8.74017C15.3889 8.74017 15.7746 8.77523 15.7746 9.00314C15.7746 9.14339 15.8623 9.26611 15.95 9.26611C16.0551 9.26611 16.1253 9.07327 16.1253 8.82782V8.38953H13.2326C11.5846 8.38953 10.3398 8.45966 10.3398 8.54732Z" fill="black"/>
<path d="M1.87588 11.2829C0.841517 12.6854 0 13.86 0 13.9126C0 13.9652 0.10519 14.0003 0.227911 13.9827C0.43829 13.9827 3.89202 9.38946 3.99721 8.96871C4.15499 8.3551 3.59398 8.95117 1.87588 11.2829Z" fill="black"/>
<path d="M22.6172 8.93337C22.6172 9.24893 26.1936 13.9825 26.4391 14C26.7722 14 26.7546 13.9474 24.721 11.23C22.9854 8.88077 22.6172 8.49508 22.6172 8.93337Z" fill="black"/>
</svg>
