<svg width="18" height="18" viewBox="0 0 18 18" fill="none" xmlns="http://www.w3.org/2000/svg">
<g clip-path="url(#clip0_300_606)">
<path d="M8.25 1.5H6.75C3 1.5 1.5 3 1.5 6.75V11.25C1.5 15 3 16.5 6.75 16.5H11.25C15 16.5 16.5 15 16.5 11.25V9.75" stroke="black" stroke-width="1.5" stroke-linecap="round" stroke-linejoin="round"/>
<path d="M12.0304 2.26501L6.1204 8.17501C5.8954 8.40001 5.6704 8.84251 5.6254 9.16501L5.3029 11.4225C5.1829 12.24 5.7604 12.81 6.5779 12.6975L8.8354 12.375C9.1504 12.33 9.5929 12.105 9.8254 11.88L15.7354 5.97001C16.7554 4.95001 17.2354 3.76501 15.7354 2.26501C14.2354 0.765006 13.0504 1.24501 12.0304 2.26501Z" stroke="black" stroke-width="1.5" stroke-miterlimit="10" stroke-linecap="round" stroke-linejoin="round"/>
<path d="M11.1826 3.1125C11.4313 3.9956 11.9026 4.80005 12.5513 5.44879C13.2001 6.09752 14.0045 6.56881 14.8876 6.8175" stroke="black" stroke-width="1.5" stroke-miterlimit="10" stroke-linecap="round" stroke-linejoin="round"/>
</g>
<defs>
<clipPath id="clip0_300_606">
<rect width="18" height="18" fill="white"/>
</clipPath>
</defs>
</svg>
