<svg width="319" height="317" viewBox="0 0 319 317" fill="none" xmlns="http://www.w3.org/2000/svg">
<path d="M258.424 1.18314C256.121 2.60291 255.027 4.31847 254.279 7.69043C251.63 19.9951 232.342 122.278 232.342 124.053C232.342 126.596 233.954 129.613 236.027 131.033C237.179 131.802 274.948 139.788 283.93 141.149C288.478 141.859 292.566 139.256 293.833 134.878C294.178 133.754 297.057 118.433 300.339 100.863C304.081 80.4538 306.499 68.5632 307.075 67.8533C307.651 67.2026 307.939 65.6053 307.996 63.1207C307.996 61.1094 308.227 59.2755 308.572 59.0389C309.263 58.5656 311.163 48.3314 310.645 47.6215C310.415 47.2666 311.624 40.5227 313.351 32.5365C315.424 22.6572 316.345 17.3922 316.057 15.9724C315.654 13.4287 313.927 10.8849 311.912 9.82008C310.069 8.81441 265.506 -1.52588e-05 262.454 -1.52588e-05C261.245 -1.52588e-05 259.46 0.532394 258.424 1.18314ZM274.833 4.55508C280.418 5.61992 283.009 6.38896 283.009 6.92139C283.009 8.10452 285.139 10.0567 286.463 10.0567C287.097 10.0567 288.133 9.52429 288.824 8.81441L290.033 7.57211L298.727 9.22852C308.169 11.0624 310.069 11.9497 311.912 15.3809C312.948 17.333 313.063 21.3557 312.084 22.3614C311.796 22.6572 260.9 13.0146 257.503 12.0681C255.603 11.4765 257.848 6.15233 260.9 4.08183C263.145 2.60291 265.103 2.66206 274.833 4.55508ZM285.024 18.1021C299.59 20.9416 311.624 23.3671 311.739 23.4262C312.027 23.6629 311.624 25.6742 301.145 80.158C296.251 105.832 291.933 127.78 291.587 128.844C290.897 130.974 288.19 133.34 285.772 133.932C284.794 134.169 276.675 132.808 264.469 130.442C240.806 125.768 240.921 125.827 239.079 123.875C235.739 120.444 235.336 123.224 246.391 65.7236C251.976 36.7958 256.524 12.9554 256.524 12.7188C256.524 12.5413 256.985 12.4822 257.56 12.6596C258.079 12.8371 270.457 15.2625 285.024 18.1021Z" fill="black"/>
<path d="M298.496 12.8371C298.496 13.4879 298.324 13.6062 298.151 13.1329C297.863 12.3047 295.906 12.1864 295.445 12.9555C295.042 13.547 296.424 14.1978 298.036 14.1978C298.727 14.1978 299.13 13.7837 299.13 13.0146C299.13 11.5357 298.554 11.4174 298.496 12.8371Z" fill="black"/>
<path d="M304.887 14.4935C304.887 14.9668 305.29 15.3809 305.751 15.3809C306.212 15.3809 306.615 14.9668 306.615 14.4935C306.615 14.0202 306.212 13.6061 305.751 13.6061C305.29 13.6061 304.887 14.0202 304.887 14.4935Z" fill="black"/>
<path d="M265.794 40.2268L265.736 43.4805L266.888 40.8776C268.154 38.0972 268.385 36.914 267.348 38.7479C266.657 39.8719 266.657 39.8719 266.254 38.4521C265.966 37.3873 265.851 37.9197 265.794 40.2268Z" fill="black"/>
<path d="M268.615 39.3987C267.636 41.9425 267.866 43.7764 269.191 43.7764C269.997 43.7764 270.4 43.244 270.688 41.7059C271.321 38.0973 269.709 36.3226 268.615 39.3987ZM270.112 41.765C269.709 43.3031 268.615 43.7172 268.615 42.3566C268.615 41.8833 268.903 40.7593 269.306 39.8128C269.824 38.4522 269.997 38.3339 270.169 39.2213C270.342 39.8128 270.285 40.9368 270.112 41.765Z" fill="black"/>
<path d="M271.897 39.4579C271.033 42.7707 270.975 43.6581 271.724 44.3088C272.76 45.1962 273.566 44.1313 273.969 41.1143C274.257 39.4579 274.2 39.103 273.797 39.9312C273.509 40.5819 273.278 41.7059 273.278 42.4158C273.221 43.244 272.875 43.7764 272.357 43.7764C271.494 43.7764 271.494 43.0665 272.472 39.4579C272.588 38.9255 272.588 38.4523 272.415 38.4523C272.3 38.4523 272.012 38.9255 271.897 39.4579Z" fill="black"/>
<path d="M274.66 41.7652C274.488 43.2441 274.43 44.6047 274.603 44.8413C274.775 45.0188 274.948 44.6047 274.948 43.8948C274.948 42.0018 276.1 42.2976 276.157 44.1906C276.215 45.2554 276.445 44.8413 276.791 42.9483C277.194 40.7003 277.136 39.9313 276.56 39.5763C275.294 38.7481 275.063 38.9848 274.66 41.7652ZM276.675 41.1736C276.675 41.6468 276.445 42.0018 276.1 42.0018C275.812 42.0018 275.524 41.4694 275.524 40.7595C275.524 40.1088 275.812 39.7538 276.1 39.9313C276.445 40.1088 276.675 40.7003 276.675 41.1736Z" fill="black"/>
<path d="M279.266 41.5287C278.518 44.7823 278.691 45.8472 279.784 45.8472C280.418 45.8472 281.051 45.4331 281.166 44.9598C281.454 44.1908 281.339 44.1908 280.533 44.9007C279.497 45.7289 279.381 45.4922 279.554 43.1851C279.669 41.1737 280.591 40.2864 281.339 41.4104C281.857 42.1794 281.915 42.1794 281.684 41.4104C281.339 39.9314 279.612 39.9906 279.266 41.5287Z" fill="black"/>
<path d="M282.491 41.9429C281.166 44.3684 282.145 47.8587 283.7 46.2614C284.563 45.3741 284.621 41.2922 283.757 40.9964C283.412 40.8781 282.836 41.2922 282.491 41.9429ZM283.987 43.5402C283.815 44.7233 283.469 45.8473 283.297 46.0248C282.606 46.7347 282.318 45.4924 282.663 43.481C283.181 40.7006 284.448 40.7006 283.987 43.5402Z" fill="black"/>
<path d="M285.715 41.824C285.542 42.1197 285.312 43.362 285.254 44.6635C285.081 46.6748 285.197 47.0298 286.175 47.0298C286.981 47.0298 287.384 46.4974 287.73 44.9593C287.96 43.8353 288.018 42.5338 287.903 42.1197C287.615 41.3507 286.118 41.1141 285.715 41.824ZM287.154 44.6635C286.521 46.9706 285.139 47.4439 285.6 45.1368C286.233 42.1789 286.463 41.7648 287.039 42.3564C287.327 42.6522 287.384 43.6578 287.154 44.6635Z" fill="black"/>
<path d="M288.766 42.7116C288.766 43.1257 288.593 44.4864 288.421 45.6695C288.075 47.6217 288.19 47.9175 289.112 47.9175C289.918 47.9175 290.033 47.7992 289.457 47.3851C288.363 46.7343 289.169 42.7116 290.436 42.4159C291.069 42.2384 290.954 42.1201 290.09 42.0609C289.342 42.0609 288.766 42.3567 288.766 42.7116Z" fill="black"/>
<path d="M256.812 46.1427C256.121 46.3794 255.257 47.0301 254.797 47.5625C254.394 48.1541 252.551 56.4952 250.766 66.1379C247.37 84.4174 247.254 86.2513 249.557 87.4936C251.227 88.4401 290.724 95.8939 292.048 95.539C292.797 95.3615 293.718 94.6516 294.178 93.8826C294.639 93.1727 296.424 84.7132 298.209 75.0706C300.972 60.3996 301.375 57.3234 300.799 56.022C300.109 54.4839 298.496 53.5374 295.387 53.005C291.99 52.4134 259.691 46.0836 258.827 45.847C258.366 45.7286 257.445 45.847 256.812 46.1427ZM278.115 50.3429C300.684 54.7205 299.015 54.3064 300.051 55.9628C300.857 57.2051 300.684 58.7432 297.748 74.6565C295.963 84.1808 294.293 92.5811 293.948 93.291C293.66 94.0009 292.912 94.7108 292.221 94.9474C291.587 95.1841 282.03 93.5868 270.745 91.398C249.5 87.257 248.291 86.8429 248.348 83.885C248.348 81.9328 254.163 50.2837 254.854 48.6273C255.372 47.2076 257.33 46.2019 258.827 46.4977C259.288 46.616 267.982 48.3316 278.115 50.3429Z" fill="black"/>
<path d="M261.188 62.529C260.266 65.901 260.324 66.4334 261.706 65.546C263.375 64.4812 264.239 65.6052 263.606 68.0898C262.972 70.5744 261.13 70.8702 260.497 68.6222C260.094 67.2616 260.094 67.2616 260.036 68.9772C259.979 70.6927 260.727 71.5801 262.282 71.5801C263.548 71.5801 264.585 69.5687 264.585 67.0841C264.585 64.7178 264.469 64.4812 263.145 64.4812C262.339 64.4812 261.706 64.2446 261.706 63.9488C261.706 62.3516 262.569 61.5234 264.239 61.4642C265.966 61.405 265.966 61.405 264.585 60.9318C262.109 60.1036 261.763 60.2811 261.188 62.529Z" fill="black"/>
<path d="M267.521 62.352C267.118 62.8253 266.542 64.9549 266.197 67.0846C265.506 71.2847 266.024 72.7637 268.039 72.7637C269.363 72.7637 270.112 71.758 270.515 69.3917C270.918 67.2621 269.651 65.369 268.269 65.9014C267.406 66.2564 267.233 65.1915 267.809 63.6535C268.269 62.4703 270.342 62.4112 270.342 63.5943C270.342 64.0676 270.63 64.4817 270.918 64.4817C271.724 64.4817 271.666 63.121 270.803 62.2337C269.881 61.2872 268.327 61.3463 267.521 62.352ZM269.478 67.4395C270.227 68.6818 269.133 71.5805 267.981 71.5805C266.715 71.5805 266.369 69.9833 267.175 67.5578C267.463 66.6705 268.96 66.6113 269.478 67.4395Z" fill="black"/>
<path d="M273.394 63.4166C273.048 63.8307 272.472 66.0195 272.069 68.2675C271.378 72.0536 271.436 72.4085 272.357 73.1776C274.43 74.7156 275.697 73.8874 276.388 70.5155C276.848 68.2083 275.869 66.6703 274.315 67.1435C273.163 67.5576 273.048 67.2618 273.566 65.1913C274.027 63.6532 275.812 63.4758 276.618 64.8955C277.136 65.7829 277.194 65.7829 277.251 65.0139C277.251 63.0617 274.545 61.9377 273.394 63.4166ZM275.524 69.4506C275.524 71.6395 274.948 72.7635 273.739 72.7635C272.588 72.7635 272.242 70.9296 272.991 68.9774C273.566 67.4393 275.524 67.7942 275.524 69.4506Z" fill="black"/>
<path d="M278.978 65.014C278.691 65.6647 278.403 67.1437 278.403 68.2676C278.403 70.1607 278.575 70.3973 279.9 70.3973C281.166 70.3973 281.339 70.6339 281.166 71.9946C280.936 74.0651 279.036 74.6566 278.575 72.8228C278.23 71.403 277.251 71.1072 277.251 72.4087C277.251 73.5326 278.806 75.1299 279.842 75.1299C281.224 75.1299 282.318 72.6453 282.778 68.6817C283.066 65.783 283.009 64.8365 282.375 64.4224C281.051 63.5942 279.612 63.8309 278.978 65.014ZM282.203 65.8422C282.663 67.0845 281.397 69.8057 280.418 69.8057C279.209 69.8057 278.806 68.5634 279.497 66.6704C280.13 65.014 281.684 64.5407 282.203 65.8422Z" fill="black"/>
<path d="M284.678 66.611C284.391 67.4983 284.275 68.6815 284.448 69.2139C284.621 69.8055 284.506 70.4562 284.16 70.6928C283.124 71.3435 283.469 75.0113 284.678 75.7212C286.866 76.9043 288.766 74.5972 288.018 71.5802C287.845 70.9294 288.075 70.1604 288.536 69.7463C288.997 69.3914 289.342 68.504 289.342 67.7941C289.342 64.8363 285.715 63.9489 284.678 66.611ZM288.075 67.9716C287.96 69.0364 287.557 69.5097 286.751 69.5097C285.427 69.5097 284.909 67.735 285.887 66.5518C286.924 65.3095 288.306 66.1377 288.075 67.9716ZM287.384 71.8168C287.787 72.9408 286.636 75.1296 285.6 75.1296C284.448 75.1296 283.987 74.1239 284.391 72.4084C284.794 70.8111 286.866 70.397 287.384 71.8168Z" fill="black"/>
<path d="M250.882 97.3138C251.285 97.7871 287.154 104.768 287.442 104.472C287.787 104.176 286.694 103.939 268.212 100.331C250.709 96.8997 250.363 96.8405 250.882 97.3138Z" fill="black"/>
<path d="M249.615 104.59C249.615 104.827 253.588 105.833 258.424 106.72C263.203 107.666 271.551 109.323 276.848 110.329C282.145 111.393 286.291 112.044 286.06 111.807C285.83 111.512 277.827 109.855 268.327 108.021C258.827 106.188 250.709 104.531 250.363 104.413C249.96 104.294 249.615 104.354 249.615 104.59Z" fill="black"/>
<path d="M64.7979 55.9625C64.3373 56.14 63.301 56.6133 62.6101 56.9682C59.501 58.5063 59.6161 56.4949 59.6161 116.835C59.6161 156.885 59.7889 173.212 60.2495 174.099C61.1131 175.815 63.1282 177.412 64.3949 177.471C65.7191 177.471 65.6615 178.004 63.6464 181.257C61.1131 185.339 57.6586 192.675 56.4495 196.402C54.8374 201.371 51.6707 208.174 44.2435 222.549C40.5011 229.766 36.5284 237.812 35.3769 240.415L33.3042 245.206L30.2527 245.502L27.2588 245.798L24.1497 254.376C22.4224 259.108 20.58 263.19 20.1194 263.545C15.6861 266.326 10.5043 276.205 0.486192 301.11C0.0255891 302.234 -0.147137 302.885 0.14074 302.589C0.428617 302.234 2.55891 297.442 4.9195 291.941C12.9801 272.774 16.8376 265.734 20.0618 264.433C21.0406 264.078 22.077 261.889 24.4951 254.967L27.6618 245.975L33.1314 246.212C36.1254 246.39 37.6799 246.39 36.586 246.271C35.492 246.153 34.3405 245.798 34.1102 245.561C33.8799 245.266 36.1829 240.06 39.2344 233.907C53.1677 205.926 55.5283 201.016 56.7374 197.23C59.4434 188.711 67.7343 174.514 72.9736 169.367C78.3857 164.043 82.6463 162.268 82.6463 165.344C82.6463 167.415 81.3796 169.84 77.7524 174.869C76.0827 177.176 73.7797 180.962 72.6282 183.269C70.613 187.41 67.9646 195.869 68.3676 197.052C68.6555 197.881 77.119 183.565 81.8978 174.218C88.3463 161.736 90.5917 158.009 92.4341 157.062C93.3553 156.589 94.3341 156.175 94.6796 156.175C95.8311 156.175 97.0401 158.127 97.0401 159.961C97.0401 161.913 84.719 195.159 81.8978 200.957C81.0342 202.672 80.3433 204.27 80.3433 204.506C80.3433 204.743 82.9342 199.892 86.1008 193.74C102.567 161.736 104.755 157.831 106.713 156.885C108.382 156.057 108.728 156.057 110.513 156.944C113.392 158.304 114.14 161.026 112.701 164.812C110.973 169.308 94.1614 205.453 93.3553 206.458C92.1462 207.937 91.6281 209.061 92.319 208.588C92.6644 208.351 97.5583 201.075 103.201 192.438C114.198 175.519 117.767 170.964 120.185 170.964C121.855 170.964 123.525 172.621 123.525 174.277C123.525 174.869 120.704 181.139 117.192 188.179C113.737 195.219 109.649 204.27 108.037 208.292C104.179 218.349 103.661 219.473 101.992 221.78C101.186 222.904 100.495 224.146 100.495 224.442C100.495 224.797 101.243 223.91 102.222 222.49C103.719 220.124 104.467 219.591 109.534 217.521C112.643 216.279 116.731 214.859 118.631 214.386C121.913 213.616 121.97 213.557 119.322 213.853C117.825 213.971 114.601 214.918 112.182 215.924C109.764 216.87 107.692 217.58 107.576 217.462C106.828 216.752 119.207 189.185 123.41 182.204C124.101 181.08 124.676 179.66 124.676 179.069C124.676 178.122 125.828 178.063 140.567 178.063H156.516L157.897 179.601C159.164 181.021 159.222 181.257 158.416 182.145C157.897 182.736 157.494 183.624 157.494 184.156C157.494 185.162 157.782 185.398 164.403 189.894C170.449 193.858 177.588 202.317 185.361 214.504C189.909 221.721 192.558 224.265 198.949 227.755C202.691 229.766 204.936 231.541 208.621 235.445C213.4 240.474 214.552 242.544 213.458 243.905C213.055 244.378 213.918 247.277 216.567 253.784C218.582 258.813 220.194 263.427 220.251 263.959C220.251 264.551 222.67 270.94 225.606 278.157C228.6 285.433 231.767 293.301 232.63 295.668C233.551 297.975 234.357 299.809 234.473 299.69C234.76 299.454 230.557 288.687 224.915 274.962C222.67 269.52 220.827 264.433 220.827 263.604C220.827 262.835 221.806 260.942 223.073 259.404C229.176 251.832 239.597 245.502 255.43 239.941C258.712 238.758 260.957 237.812 260.382 237.812C259.057 237.812 247.542 242.189 241.842 244.911C235.797 247.75 229.521 252.01 225.03 256.328C221.921 259.345 221.345 259.7 221 258.753C220.827 258.103 218.985 253.488 216.97 248.46C213.976 241.006 213.4 239.054 213.861 237.989C214.782 235.978 222.727 229.766 227.333 227.518C229.636 226.394 234.185 224.679 237.524 223.673C240.863 222.727 243.167 221.898 242.706 221.898C240.806 221.78 231.248 224.975 226.873 227.163C224.339 228.406 220.597 230.831 218.582 232.488L214.955 235.564L209.082 229.707C204.879 225.448 202 223.082 198.661 221.248C192.212 217.639 190.14 215.746 187.03 210.718C179.546 198.354 169.297 186.345 163.022 182.559C158.185 179.66 157.091 178.418 158.07 177.176C159.74 175.046 162.158 174.336 166.534 174.632C170.276 174.869 171.197 175.223 175.343 177.767C183.979 183.151 185.073 184.275 186.858 189.48C187.721 192.024 188.643 194.272 188.873 194.509C189.161 194.745 189.161 194.39 188.93 193.74C188.643 193.089 187.894 190.841 187.146 188.711C182.943 176.525 178.049 165.167 171.6 152.803C167.628 145.29 164.403 138.487 164.403 137.659C164.403 136.89 164.922 135.529 165.612 134.642C167.397 132.334 170.506 132.512 172.867 134.997C174.882 137.185 178.97 143.87 183.115 151.738C185.994 157.24 195.494 172.266 195.494 171.319C195.494 171.023 193.421 167.651 190.83 163.806L186.224 156.766L187.376 155.051C188.643 153.276 192.27 151.442 194.573 151.442C197.97 151.442 199.121 152.507 203.555 159.724C205.915 163.629 208.046 166.823 208.276 166.823C208.506 166.823 206.721 163.747 204.361 159.961C201.943 156.175 200.1 152.98 200.273 152.862C200.849 152.27 206.779 150.851 208.621 150.851C210.924 150.851 214.321 152.27 216.048 153.927C216.739 154.578 218.812 157.95 220.597 161.322C222.382 164.693 223.994 167.356 224.109 167.237C224.224 167.119 223.015 164.634 221.403 161.736L218.582 156.471L220.827 156.293C223.591 156.057 226.7 157.654 229.579 160.73C233.264 164.634 242.015 184.866 248.924 205.571C249.27 206.518 249.557 207.05 249.557 206.636C249.73 204.388 240.115 179.187 235.509 169.84C231.594 161.736 230.615 160.375 227.391 157.95L224.858 156.116V144.462C224.858 133.518 224.915 132.689 226.009 131.743C227.045 130.856 227.161 130.027 227.161 122.81C227.161 115.297 227.103 114.765 225.894 113.937L224.627 112.99L225.894 111.629C227.045 110.328 227.161 109.677 227.161 102.519C227.161 95.5979 227.045 94.7105 226.009 93.764C224.397 92.285 224.397 88.144 226.009 86.6651C227.045 85.7186 227.161 84.8312 227.161 77.7324C227.161 70.456 227.045 69.7462 226.009 69.0954C225.03 68.4447 224.858 67.6757 224.858 64.6586C224.858 60.3993 224.109 58.388 222.036 56.9682C220.655 55.9625 216.048 55.9034 143.1 55.7851C100.495 55.7259 65.2585 55.8442 64.7979 55.9625ZM218.524 108.198V155.406L216.509 153.454C215.358 152.389 213.342 151.146 212.018 150.792C209.312 150.082 204.476 150.437 201.655 151.62C200.158 152.27 199.524 152.27 198.373 151.62C195.379 150.022 190.427 151.146 187.376 154.163L185.821 155.642L183.461 151.146C182.194 148.662 181.1 146.532 181.1 146.355C181.1 146.236 182.137 146.118 183.403 146.118H185.706V110.328V74.5379H142.525H99.3432V110.328V146.118H132.046H164.691L171.14 158.423C174.652 165.167 177.761 171.142 177.934 171.674C178.337 172.68 176.84 172.739 151.219 172.739C124.849 172.739 124.043 172.68 122.949 171.556C121.51 170.077 119.667 170.077 117.479 171.556C115.982 172.561 112.585 173.212 112.585 172.502C112.585 172.384 113.104 171.023 113.737 169.485C114.37 167.947 114.889 165.995 114.889 165.108C114.889 162.682 113.276 158.245 111.952 157.003C110.398 155.583 106.713 155.583 105.216 156.944C104.583 157.535 102.337 161.322 100.207 165.403C98.0765 169.485 96.2341 172.68 96.1189 172.561C96.0038 172.443 96.522 170.491 97.3856 168.243C98.3644 165.522 98.7674 163.629 98.4795 162.386C98.3068 161.44 98.0189 159.843 97.7886 158.955C97.3856 156.826 95.2553 155.347 93.4705 155.879C91.3978 156.53 89.7856 158.364 87.1372 163.096C85.8129 165.463 84.4311 167.356 84.1432 167.237C83.7978 167.119 83.3948 166.232 83.222 165.285C82.5887 161.499 78.1554 163.274 71.9948 169.722C69.9221 171.911 68.713 172.739 67.5615 172.739H65.9494V116.835V60.9317H142.237H218.524V108.198ZM185.13 110.328V145.527H182.827C180.755 145.527 180.409 145.29 179.028 142.983C173.846 134.346 172.118 132.512 169.125 132.512C166.246 132.512 163.828 134.76 163.828 137.481C163.828 138.487 164.058 139.611 164.288 140.025C164.519 140.439 164.634 141.8 164.519 143.16L164.288 145.527H132.104H99.9189V110.328V75.1295H142.525H185.13V110.328ZM109.016 182.736C107.346 185.339 105.907 187.232 105.792 186.937C105.676 186.641 106.54 184.57 107.692 182.263C109.189 179.187 110.052 178.063 110.858 178.063C111.837 178.063 111.607 178.714 109.016 182.736ZM181.273 179.364C181.791 181.257 181.446 181.317 178.97 179.601L176.782 178.063H178.912C180.524 178.063 181.043 178.3 181.273 179.364ZM76.6009 183.21C74.816 186.463 72.7433 188.948 74.01 186.345C75.2766 183.86 77.4645 180.429 77.81 180.429C77.9827 180.429 77.4645 181.672 76.6009 183.21Z" fill="black"/>
<path d="M139.876 78.6794C137.401 79.6851 136.767 81.519 136.767 87.6713V93.4688H141.373H145.979V87.6122C145.979 82.288 145.864 81.5782 144.713 80.2175C143.158 78.502 141.546 77.9696 139.876 78.6794ZM143.216 80.8683C143.791 81.4007 144.252 82.4655 144.252 83.2346C144.252 84.4769 144.022 84.5952 141.373 84.5952C138.782 84.5952 138.494 84.4769 138.494 83.2937C138.494 81.8148 140.049 79.8626 141.258 79.8626C141.776 79.8626 142.64 80.2767 143.216 80.8683ZM142.237 87.553C142.64 88.2038 142.007 91.1025 141.431 91.1025C140.625 91.1025 139.761 88.2629 140.394 87.6122C141.201 86.784 141.776 86.784 142.237 87.553Z" fill="black"/>
<path d="M105.676 102.638V107.075H142.237H178.797V102.638V98.2011H142.237H105.676V102.638ZM178.221 102.638V106.483H142.237H106.252V102.638V98.7927H142.237H178.221V102.638Z" fill="black"/>
<path d="M105.907 112.044C105.734 112.458 105.676 114.528 105.792 116.599L105.964 120.385H142.237H178.509L178.682 115.771L178.855 111.215H142.525C112.528 111.215 106.137 111.334 105.907 112.044ZM178.221 115.948V120.089L142.41 119.971L106.54 119.793L106.367 116.599C106.252 114.883 106.31 113.049 106.483 112.635C106.713 111.925 112.816 111.807 142.525 111.807H178.221V115.948Z" fill="black"/>
<path d="M119.725 130.915C119.552 131.388 119.495 133.459 119.61 135.529L119.782 139.315H123.237H126.691V134.879V130.442L123.352 130.264C120.934 130.146 119.955 130.324 119.725 130.915ZM126.116 134.879V138.724H123.237H120.358L120.185 135.529C119.955 130.974 120.128 130.619 123.352 130.856L126.116 131.033V134.879Z" fill="black"/>
<path d="M128.534 130.501C128.304 130.737 128.131 132.867 128.131 135.292V139.611H131.873H135.673L135.501 134.997L135.328 130.441L132.161 130.264C130.376 130.146 128.764 130.264 128.534 130.501ZM134.925 134.701L134.752 138.723L131.758 138.901L128.707 139.078V134.937V130.737H131.873H135.097L134.925 134.701Z" fill="black"/>
<path d="M137.17 130.56C136.94 130.737 136.767 132.867 136.767 135.292V139.611H140.51H144.252V134.878V130.146H140.913C139.07 130.146 137.343 130.323 137.17 130.56ZM143.676 134.878V139.019H140.51H137.343V134.878V130.737H140.51H143.676V134.878Z" fill="black"/>
<path d="M145.634 130.974C145.461 131.388 145.403 133.459 145.519 135.529L145.691 139.315L149.319 139.493L152.888 139.67V134.879V130.146H149.434C147.016 130.146 145.864 130.383 145.634 130.974ZM152.313 134.938V139.079L149.319 138.901L146.267 138.724L146.094 135.529C145.864 131.033 146.037 130.738 149.434 130.738H152.313V134.938Z" fill="black"/>
<path d="M154.27 130.915C154.097 131.388 154.04 133.459 154.155 135.529L154.328 139.315H158.07H161.812V134.879V130.442L158.185 130.264C155.537 130.146 154.5 130.324 154.27 130.915ZM161.237 134.879V138.724H158.07H154.903L154.731 135.529C154.443 130.915 154.673 130.619 158.185 130.856L161.237 131.033V134.879Z" fill="black"/>
<path d="M317.151 68.445C317.669 68.5633 318.475 68.5633 318.878 68.445C319.224 68.2675 318.821 68.1492 317.842 68.1492C316.921 68.1492 316.575 68.2675 317.151 68.445Z" fill="black"/>
<path d="M311.509 69.2142C310.76 69.5692 311.221 69.6283 312.948 69.3917C314.387 69.2142 315.654 68.9776 315.769 68.8593C316.287 68.386 312.602 68.741 311.509 69.2142Z" fill="black"/>
<path d="M310.069 80.4534C310.53 80.7492 311.336 80.9858 311.796 80.9858C312.372 80.9858 312.257 80.8084 311.509 80.4534C309.954 79.7435 309.033 79.7435 310.069 80.4534Z" fill="black"/>
<path d="M306.96 89.8007C308.457 91.2205 315.251 95.7164 315.251 95.3615C315.193 94.8882 307.478 89.3274 306.845 89.3274C306.615 89.3274 306.615 89.5641 306.96 89.8007Z" fill="black"/>
<path d="M225.203 172.147C225.433 173.271 225.779 174.632 226.067 175.105C226.7 176.17 226.124 173.094 225.318 171.26C225.03 170.491 224.973 170.728 225.203 172.147Z" fill="black"/>
<path d="M212.018 173.627C212.594 174.396 213.285 175.105 213.515 175.105C213.745 175.105 213.515 174.455 212.939 173.627C212.364 172.857 211.673 172.148 211.442 172.148C211.212 172.148 211.442 172.798 212.018 173.627Z" fill="black"/>
<path d="M201.655 176.525C202.23 177.294 202.749 177.885 202.864 177.767C203.152 177.471 201.597 175.105 201.079 175.105C200.849 175.105 201.079 175.756 201.655 176.525Z" fill="black"/>
<path d="M189.794 197.881C189.852 199.005 190.83 200.898 190.83 199.951C190.83 199.478 190.6 198.65 190.312 198.177C190.024 197.703 189.794 197.526 189.794 197.881Z" fill="black"/>
<path d="M66.0646 206.459C66.0646 207.287 66.1797 207.583 66.3525 207.169C66.4676 206.814 66.4676 206.104 66.3525 205.69C66.1797 205.335 66.0646 205.631 66.0646 206.459Z" fill="black"/>
<path d="M249.673 207.938C249.673 208.234 250.421 211.014 251.342 214.09C252.263 217.166 253.012 219.71 252.897 219.769C252.839 219.828 251.342 220.183 249.615 220.538L246.448 221.13L249.903 220.834C251.803 220.657 253.473 220.42 253.588 220.302C253.703 220.243 252.839 217.285 251.745 213.735C250.651 210.245 249.73 207.583 249.673 207.938Z" fill="black"/>
<path d="M66.5828 209.18C66.5828 209.831 66.7555 210.008 66.9282 209.535C67.1009 209.121 67.0434 208.588 66.8706 208.411C66.6979 208.174 66.5252 208.529 66.5828 209.18Z" fill="black"/>
<path d="M78.1554 212.374C78.1554 213.203 78.2706 213.498 78.4433 213.084C78.5585 212.729 78.5585 212.019 78.4433 211.605C78.2706 211.25 78.1554 211.546 78.1554 212.374Z" fill="black"/>
<path d="M126.691 214.09C129.513 214.8 130.952 215.865 131.355 217.462C131.931 219.71 130.261 221.07 125.252 222.49C116.616 224.916 105.907 231.482 97.2704 239.646C90.822 245.68 87.4826 248.046 79.1918 252.305C75.5645 254.139 71.7645 256.328 70.7282 257.097L68.8858 258.517L64.6828 255.618C60.307 252.601 52.0162 248.756 50.8071 249.288C50.3465 249.466 50.3465 249.584 50.8647 249.584C54.0313 249.762 64.3949 255.559 68.9433 259.641L71.0161 261.534L67.5615 272.3C65.604 278.216 63.9919 283.185 63.8767 283.304C63.7616 283.422 62.3797 282.298 60.8252 280.819C57.6586 277.743 53.5131 274.903 48.3313 272.241C44.7041 270.348 31.8072 265.557 30.5981 265.675C30.2527 265.675 32.8436 266.74 36.2981 267.923C48.3313 272.182 57.3707 277.388 62.4949 283.126C65.4312 286.38 65.4312 287.386 62.4949 295.372C61.2282 298.803 60.1919 301.997 60.1919 302.412C60.2495 303.417 64.1646 292.651 64.9131 289.574C65.2009 288.273 66.9858 282.18 68.9433 276.087C71.7645 267.035 72.2251 264.788 71.6494 264.078C70.1524 262.185 71.9373 260.469 79.3069 256.683C88.0584 252.187 91.8583 249.584 97.8462 243.905C105.907 236.215 116.155 229.53 123.525 227.104C133.601 223.851 133.888 223.555 132.391 218.822C131.298 215.51 128.994 213.498 126.404 213.617C125.079 213.676 125.137 213.735 126.691 214.09Z" fill="black"/>
<path d="M86.216 217.995C86.216 218.941 86.3311 219.296 86.5038 218.704C86.619 218.172 86.619 217.344 86.5038 216.93C86.3311 216.575 86.216 216.989 86.216 217.995Z" fill="black"/>
<path d="M254.739 219.829C255.027 220.006 256.869 223.851 258.827 228.406C260.842 232.961 262.569 236.57 262.685 236.452C263.088 235.979 255.603 219.888 254.912 219.71C254.509 219.651 254.451 219.71 254.739 219.829Z" fill="black"/>
<path d="M244.318 221.662C244.663 221.781 245.354 221.781 245.757 221.662C246.103 221.485 245.815 221.366 245.009 221.366C244.203 221.366 243.915 221.485 244.318 221.662Z" fill="black"/>
<path d="M139.934 226.572C138.897 226.868 139.991 226.927 142.525 226.75C144.885 226.572 146.958 226.336 147.073 226.217C147.534 225.803 141.661 226.099 139.934 226.572Z" fill="black"/>
<path d="M152.6 226.572C165.209 227.578 175.055 232.488 183.634 242.012C187.952 246.804 191.982 254.494 193.536 260.883C194.803 265.971 194.803 275.377 193.536 280.405C188.124 301.761 168.261 315.959 145.806 314.539C138.955 314.066 134.637 313.001 128.822 310.22C115.407 303.891 106.31 292.118 103.661 277.743C103.258 275.436 102.855 274.371 102.855 275.377C102.74 278.453 104.41 284.014 107.116 289.634C115.925 308.15 132.622 318.088 152.773 316.905C160.373 316.432 164.346 315.367 171.025 312.054C180.237 307.44 187.203 300.341 191.464 291.349C194.803 284.191 195.724 279.459 195.379 270.822C194.918 259.878 192.155 252.187 185.476 243.195C178.337 233.494 163.022 225.803 151.449 226.099L147.419 226.158L152.6 226.572Z" fill="black"/>
<path d="M133.025 228.288C125.77 230.95 118.17 236.038 113.679 241.243C108.67 246.982 104.525 255.145 103.719 260.647C103.489 262.185 103.719 261.712 104.467 259.168C106.367 252.661 109.592 246.923 114.255 241.835C120.416 235.091 125.713 231.601 134.004 228.702C136.307 227.874 137.688 227.223 137.055 227.223C136.422 227.223 134.637 227.696 133.025 228.288Z" fill="black"/>
<path d="M143.791 231.009C143.388 231.837 143.158 233.375 143.158 234.44L143.216 236.333L143.619 234.558C143.964 232.784 144.022 232.784 148.225 232.606C151.276 232.488 152.658 232.665 152.946 233.198C153.234 233.612 153.464 233.671 153.522 233.375C153.522 233.02 153.637 232.133 153.81 231.305C153.982 230.062 153.925 230.003 153.406 230.831C152.946 231.719 152.025 231.896 148.513 231.896C144.425 231.896 144.194 231.837 144.54 230.713C145.058 229.057 144.54 229.234 143.791 231.009Z" fill="black"/>
<path d="M162.619 231.837C162.273 232.843 161.582 233.73 161.064 233.848C160.2 234.085 160.2 234.144 161.122 234.203C161.64 234.203 162.1 234.558 162.1 234.913C162.1 235.209 162.331 235.327 162.676 235.15C162.964 234.972 165.382 235.919 167.973 237.28C171.543 239.173 173.961 241.066 177.358 244.556C183.806 251.182 186.858 257.393 188.009 266.207C188.355 268.988 188.47 269.165 188.528 267.154C188.643 264.019 187.088 258.399 185.015 254.139C181.215 246.331 175.228 240.356 167.225 236.274C164.864 235.091 162.849 234.026 162.734 233.908C162.619 233.789 162.791 232.902 163.137 231.955C163.482 230.95 163.655 230.122 163.482 230.122C163.309 230.122 162.906 230.891 162.619 231.837Z" fill="black"/>
<path d="M135.27 234.144C126.576 237.279 119.725 242.603 114.946 249.998C111.895 254.671 109.073 262.421 109.189 265.793C109.246 267.213 109.361 266.917 109.764 264.669C112.125 250.116 123.698 237.693 138.552 233.73C140.913 233.079 142.179 232.547 141.373 232.547C140.567 232.488 137.861 233.257 135.27 234.144Z" fill="black"/>
<path d="M155.364 232.902C155.882 233.02 156.688 233.02 157.091 232.902C157.437 232.725 157.034 232.606 156.055 232.606C155.134 232.606 154.788 232.725 155.364 232.902Z" fill="black"/>
<path d="M158.531 233.493C158.934 233.671 159.452 233.612 159.625 233.434C159.855 233.257 159.509 233.079 158.876 233.138C158.243 233.138 158.07 233.316 158.531 233.493Z" fill="black"/>
<path d="M152.428 236.629L152.313 239.291L149.031 240.001C147.188 240.356 145.231 240.829 144.713 241.066C144.022 241.362 143.676 241.066 143.504 240.06C143.273 238.818 143.273 238.818 143.158 240.297C143.1 241.539 142.467 242.19 140.107 243.61C138.437 244.615 135.904 246.568 134.522 247.928C131.988 250.531 128.707 255.264 128.707 256.388C128.707 256.683 129.685 255.382 130.894 253.43C133.485 249.348 137.401 245.503 140.797 243.728C142.122 243.018 143.273 242.545 143.388 242.663C143.676 243.018 144.828 245.444 144.828 245.68C144.828 245.858 143.561 246.804 142.007 247.869C129.628 255.974 127.67 272.774 137.919 283.127C143.273 288.569 149.664 290.876 157.609 290.285C165.843 289.693 173.5 284.606 177.243 277.152C178.97 273.839 179.085 273.188 179.085 267.391C179.085 261.534 178.97 260.943 177.185 257.216C175.228 253.075 171.6 249.23 167.455 246.863L165.152 245.562L165.44 250.176C165.612 253.252 165.497 254.968 165.037 255.204C164.576 255.5 164.403 254.435 164.403 251.596C164.403 247.81 164 245.266 163.022 242.072C162.446 240.238 163.367 240.356 168.376 242.841C178.97 248.046 185.418 260.115 183.576 271.177C182.655 276.679 180.582 280.82 176.609 285.256C161.352 301.939 133.37 295.254 127.843 273.602C126.576 268.515 126.691 264.433 128.361 258.517C128.707 257.393 128.649 257.275 128.188 257.926C127.843 258.399 127.325 260.233 126.979 261.889L126.346 265.025H119.149H112.01V267.391C112.01 268.692 112.24 269.757 112.47 269.757C112.701 269.757 112.816 268.811 112.701 267.687L112.47 265.616H119.437H126.404V267.864C126.404 270.881 127.843 276.442 129.513 279.755C130.376 281.411 131.125 284.428 131.47 287.504C132.219 293.657 134.061 299.572 136.537 303.832C138.091 306.435 138.264 307.026 137.458 307.026C136.882 307.085 137.228 307.44 138.207 307.854C139.185 308.328 140.97 309.807 142.237 311.167L144.54 313.711L150.873 313.356C161.237 312.824 170.276 309.392 177.991 303.003C181.561 300.046 186.57 294.13 187.549 291.645C188.412 289.634 188.931 272.715 188.124 272.715C187.837 272.715 187.376 271.709 187.146 270.526C186.743 268.337 183 258.162 181.215 254.435C180.697 253.311 178.74 250.709 176.84 248.638C172.867 244.26 165.67 240.179 161.467 239.883C160.085 239.824 159.625 239.824 160.431 240.001C161.582 240.179 162.1 240.77 162.561 242.427C162.906 243.61 163.137 244.615 163.022 244.734C162.906 244.852 161.697 244.674 160.316 244.379C158.934 244.024 156.919 243.728 155.882 243.728C154.04 243.728 153.694 243.373 153.349 241.066C153.234 240.119 153.579 239.824 155.479 239.528L157.782 239.173L155.364 239.055C152.946 238.995 152.946 238.995 152.716 236.452L152.485 233.967L152.428 236.629ZM152.946 242.131C153.291 243.55 153.176 243.787 151.852 244.083C150.988 244.26 149.376 244.674 148.282 244.97L146.267 245.503L146.44 249.999C146.613 252.661 146.44 254.731 146.094 255.086C145.634 255.559 145.461 254.554 145.461 251.655C145.461 249.407 145.288 246.745 145.116 245.798C144.367 241.894 144.425 241.776 146.843 241.007C150.47 239.824 152.428 240.179 152.946 242.131ZM155.709 247.1C156.458 249.762 156.458 253.016 155.767 254.672C155.191 256.092 155.191 256.21 155.019 251.123C154.903 248.815 154.616 246.508 154.385 245.917C154.097 245.325 154.155 244.911 154.5 244.911C154.846 244.911 155.422 245.917 155.709 247.1Z" fill="black"/>
<path d="M161.64 237.516C161.64 238.463 161.755 238.817 161.928 238.226C162.043 237.694 162.043 236.865 161.928 236.451C161.755 236.096 161.64 236.51 161.64 237.516Z" fill="black"/>
<path d="M263.721 238.049C264.988 238.522 266.83 239.883 267.751 241.007C270.285 244.024 279.324 260.824 294.178 289.989C296.942 295.49 299.303 299.927 299.475 299.927C299.878 299.927 291.53 283.482 281.569 264.433C269.248 240.888 267.406 238.167 263.433 237.516L261.418 237.161L263.721 238.049Z" fill="black"/>
<path d="M42.3435 247.573C44.4162 248.046 46.4889 248.401 46.9495 248.342C48.5041 248.283 42.1132 246.804 40.3284 246.804C39.4072 246.804 40.2708 247.159 42.3435 247.573Z" fill="black"/>
<path d="M48.5617 248.874C48.9647 249.052 49.4829 248.993 49.6556 248.815C49.8859 248.638 49.5404 248.46 48.9071 248.519C48.2738 248.519 48.101 248.697 48.5617 248.874Z" fill="black"/>
<path d="M102.913 265.024C102.913 266.148 103.028 266.622 103.201 266.03C103.316 265.498 103.316 264.551 103.201 263.959C103.028 263.427 102.913 263.9 102.913 265.024Z" fill="black"/>
<path d="M25.3588 264.729C29.6769 265.734 30.6557 265.734 27.6618 264.729C26.3951 264.255 24.6103 263.96 23.6315 263.96C22.5376 263.96 23.2285 264.255 25.3588 264.729Z" fill="black"/>
<path d="M102.395 270.644C102.395 272.242 102.51 272.892 102.625 271.946C102.74 271.059 102.74 269.757 102.625 268.988C102.51 268.278 102.395 268.988 102.395 270.644Z" fill="black"/>
<path d="M108.728 270.644C108.728 272.242 108.843 272.892 108.958 271.946C109.073 271.059 109.073 269.757 108.958 268.988C108.843 268.278 108.728 268.988 108.728 270.644Z" fill="black"/>
<path d="M109.246 275.673C109.246 276.797 109.361 277.27 109.534 276.678C109.649 276.146 109.649 275.199 109.534 274.608C109.361 274.075 109.246 274.549 109.246 275.673Z" fill="black"/>
<path d="M109.995 279.814C110.167 280.938 111.376 284.132 112.643 286.912C115.982 293.952 122.891 300.992 129.858 304.541C132.564 305.902 135.155 307.026 135.616 307.026C136.076 306.967 134.982 306.316 133.14 305.547C122.604 301.051 114.313 292 110.743 280.997C109.995 278.69 109.764 278.335 109.995 279.814Z" fill="black"/>
</svg>
