<svg width="335" height="291" viewBox="0 0 335 291" fill="none" xmlns="http://www.w3.org/2000/svg">
<path d="M75.91 152.16C80.21 155.48 85.8 155.48 90.1 152.16M73 155.64C79.06 160.32 86.94 160.32 93 155.64M77.79 148.51C80.94 150.95 85.05 150.95 88.2 148.51M80.4 144.85C81.98 146.07 84.03 146.07 85.61 144.85" stroke="black" stroke-width="1.5" stroke-linecap="round" stroke-linejoin="round"/>
<path d="M271.91 80.84C276.21 77.52 281.8 77.52 286.1 80.84M269 77.36C275.06 72.68 282.94 72.68 289 77.36M273.79 84.49C276.94 82.05 281.05 82.05 284.2 84.49M276.4 88.15C277.98 86.93 280.03 86.93 281.61 88.15" stroke="black" stroke-width="1.5" stroke-linecap="round" stroke-linejoin="round"/>
<path d="M225.91 61.16C230.21 64.48 235.8 64.48 240.1 61.16M223 64.64C229.06 69.32 236.94 69.32 243 64.64M227.79 57.51C230.94 59.95 235.05 59.95 238.2 57.51M230.4 53.85C231.98 55.07 234.03 55.07 235.61 53.85" stroke="black" stroke-width="1.5" stroke-linecap="round" stroke-linejoin="round"/>
<path d="M77.1599 48.09C80.4799 43.79 80.4799 38.2 77.1599 33.9M80.6399 51C85.3199 44.94 85.3199 37.06 80.6399 31M73.5099 46.21C75.9499 43.06 75.9499 38.95 73.5099 35.8M69.8499 43.6C71.0699 42.02 71.0699 39.97 69.8499 38.39" stroke="black" stroke-width="1.5" stroke-linecap="round" stroke-linejoin="round"/>
<path d="M50.6612 9.56166V19.1233L49.935 19.3135C46.8746 20.1608 45.9928 24.7255 48.4999 26.7312L49.1742 27.2672L47.9985 27.6649C45.5951 28.4602 43.33 30.4141 42.1888 32.6791C41.0477 34.9269 41.065 34.8232 41.065 44.5232V53.3413H51.2664H61.4678V44.2638C61.4678 35.2035 61.4678 35.1863 61.0701 34.0624C59.9635 30.9847 57.1452 28.3046 54.1539 27.5093L53.445 27.3018L54.1366 26.6793C55.2086 25.711 55.5717 24.8638 55.5717 23.4287C55.5717 22.5296 55.4853 22.0454 55.2086 21.5094C54.7072 20.5757 53.6179 19.6075 52.7534 19.3481L52.0445 19.1406V9.56166V-1.52588e-05H51.3528H50.6612V9.56166ZM52.3557 19.9187C53.8254 20.2818 54.9839 21.8725 54.9839 23.5324C54.9839 24.5699 54.2404 25.8666 53.3067 26.4718C52.5286 26.956 52.3903 26.9905 51.1453 26.9387C49.9696 26.8868 49.7621 26.8349 49.1569 26.3508C48.1887 25.5727 47.7045 24.5871 47.7045 23.446C47.7045 22.2529 48.0849 21.423 48.984 20.6449C50.056 19.7458 50.9206 19.5556 52.3557 19.9187ZM54.5516 28.3392C57.3699 29.3421 59.6177 31.7454 60.5341 34.6848L60.9491 36.0508V44.3503V52.6497L51.3183 52.7016L41.6701 52.7362V44.575C41.6701 37.8663 41.722 36.1891 41.9295 35.29C42.7421 31.8665 45.4568 29.0308 48.8111 28.0971C50.1252 27.7167 53.1856 27.8551 54.5516 28.3392Z" fill="black"/>
<path d="M318.146 9.56172V19.1061L317.282 19.4173C316.4 19.7286 315.362 20.645 314.93 21.4749C314.602 22.1147 314.446 23.325 314.584 24.2587C314.723 25.1751 315.535 26.4719 316.261 26.9387L316.78 27.2673L315.604 27.6476C312.458 28.6851 309.795 31.4516 308.878 34.6849C308.619 35.5667 308.567 36.8289 308.498 44.1601C308.463 48.8113 308.481 52.7881 308.533 53.0129L308.636 53.4279H318.838H329.022L329.126 52.84C329.195 52.5287 329.212 48.5865 329.177 44.0737C329.091 35.0826 329.074 34.9615 327.984 32.7138C327.345 31.417 325.685 29.5669 324.388 28.7369C323.869 28.4084 322.884 27.9416 322.192 27.6822L320.93 27.2154L321.449 26.8869C322.417 26.2298 323.16 24.7428 323.16 23.4287C323.16 22.4951 322.884 21.6997 322.261 20.8179C321.76 20.109 320.377 19.1926 319.806 19.1926C319.547 19.1926 319.529 18.3107 319.529 9.59631V4.57764e-05H318.838H318.146V9.56172ZM320.619 20.2646C320.999 20.4894 321.57 21.0081 321.864 21.4058C322.33 22.0801 322.382 22.3049 322.382 23.4287C322.382 24.5526 322.33 24.7774 321.864 25.4517C321.103 26.5065 320.221 26.9733 318.872 26.9733C316.659 26.9733 315.207 25.5555 315.207 23.3942C315.224 21.8553 316.192 20.4894 317.662 19.9361C318.44 19.6421 319.754 19.7804 320.619 20.2646ZM321.328 28.1145C324.405 28.9099 327.033 31.4689 328.105 34.7541C328.382 35.6013 328.417 36.5869 328.486 44.212L328.538 52.7362H318.855H309.155V44.7307C309.155 35.7915 309.207 35.2555 310.296 33.0423C311.455 30.7081 313.772 28.8061 316.348 28.0972C317.524 27.7687 320.031 27.786 321.328 28.1145Z" fill="black"/>
<path d="M124.924 8.21303C124.042 8.52426 123.022 9.64814 122.797 10.5818C122.607 11.3426 122.815 28.1317 123.04 29.394C123.091 29.7225 123.282 31.0366 123.472 32.2815C123.973 35.826 125.564 42.31 126.1 43.0189C126.238 43.1745 139.362 43.2264 191.112 43.1918L255.969 43.1399L256.298 42.2754C256.903 40.6674 258.131 35.4456 258.563 32.6273C259.22 28.3565 259.358 25.8321 259.358 17.8612C259.358 10.9276 259.341 10.4954 259.012 9.87292C258.597 9.04297 257.802 8.36864 256.972 8.12658C256.54 8.00554 235.428 7.95367 190.974 7.95367C135.35 7.97096 125.512 8.00554 124.924 8.21303ZM257.076 8.88736C257.716 9.21588 258.425 10.0112 258.667 10.6337C258.891 11.2389 258.753 24.5007 258.476 28.0107C258.165 31.953 257.162 37.192 255.9 41.2726L255.52 42.5348H251.647H247.774V40.0276C247.774 37.7453 247.739 37.5205 247.445 37.3476C247.203 37.2266 229.359 37.1747 191.061 37.1747C152.762 37.1747 134.918 37.2266 134.676 37.3476C134.382 37.5205 134.348 37.7453 134.348 40.0276V42.5348H130.475H126.584L126.117 41.0132C124.993 37.3303 124.025 32.5581 123.61 28.5294C123.506 27.5266 123.385 23.2039 123.334 18.8986C123.23 11.1005 123.23 11.1005 123.627 10.3052C123.87 9.76918 124.233 9.37149 124.717 9.07756L125.443 8.64529H191.026C247.151 8.64529 256.678 8.67987 257.076 8.88736ZM247.047 40.2351L247.099 42.5348H191.061H135.039V40.2006V37.8663L191.026 37.9009L246.996 37.9528L247.047 40.2351Z" fill="black"/>
<path d="M36.9153 63.5774L13.9189 63.6293L13.625 63.9924C13.331 64.3382 13.3137 69.9749 13.3137 177.003C13.3137 254.309 13.3656 289.738 13.4866 289.98C13.6768 290.308 13.5385 290.308 6.82977 290.308C0.121034 290.308 0 290.308 0 290.654C0 291 0.121034 291 167.113 291C334.105 291 334.226 291 334.226 290.654C334.226 290.326 334.105 290.308 330.561 290.308H326.878V270.735V251.145L322.088 251.093L317.282 251.059L317.247 238.817L317.195 226.593H308.204H299.213L299.161 238.817L299.127 251.059H297.916H296.706L296.671 246.771L296.619 242.5H261.693H226.766L226.714 246.788L226.679 251.076L225.33 251.024L223.999 250.972L223.913 238.783L223.826 226.593L218.483 226.541L213.141 226.506L213.262 221.008C213.486 209.89 213.884 197.424 214.247 189.245C214.42 185.458 214.403 184.784 214.161 183.764L213.884 182.606L214.922 180.462C215.924 178.369 216.668 176.156 216.91 174.635C216.979 174.133 217.481 173.078 218.293 171.695L219.538 169.534L270.614 169.447L321.691 169.361V130.371V91.3806H263.594H205.498L205.412 102.723L205.325 114.066L202.818 113.132C199.274 111.835 198.599 111.559 196.905 110.781C195.435 110.124 195.383 110.072 195.383 109.518C195.383 108.93 195.591 107.789 196.023 106.043L196.282 104.988L197.51 104.867C199.948 104.625 201.988 103.709 202.593 102.585C202.887 102.032 202.87 101.945 202.334 98.6945C202.023 96.8617 201.729 95.2018 201.694 95.0116C201.625 94.7522 201.798 94.5275 202.386 94.0952C203.752 93.0923 203.631 92.4353 201.66 90.274L200.536 89.0291L200.726 88.3029C200.916 87.6285 200.899 87.4383 200.346 85.9341C200.017 85.035 199.55 83.8073 199.308 83.2367L198.859 82.1647L199.602 81.4039C200.83 80.1936 201.193 78.43 200.657 76.3378C199.689 72.6376 196.542 70.2688 193.032 70.5974C189.643 70.9259 186.219 72.7068 186.219 74.1419C186.219 74.4013 186.34 75.0237 186.461 75.5251C186.755 76.5972 186.824 76.5626 184.974 76.6317C183.211 76.7009 182.778 77.0294 182.398 78.4645C181.827 80.6777 181.585 81.0927 180.704 81.4731C179.493 82.0091 177.176 83.5826 176.45 84.3952C174.306 86.7813 174.825 89.7034 178.127 93.5938C178.923 94.5448 179.614 95.392 179.666 95.4957C179.735 95.6168 179.874 96.2738 179.977 96.9654C180.254 98.7637 181.136 100.337 182.07 100.666C182.225 100.717 182.07 104.158 181.793 107.029C181.706 108.066 181.637 108.204 180.946 108.844C179.562 110.141 173.39 113.495 169.188 115.242C166.162 116.486 162.67 118.423 162.03 119.184C161.649 119.668 161.494 119.53 161.494 118.682C161.494 118.043 161.407 117.801 160.992 117.386C160.491 116.901 160.422 116.884 158.693 116.867C157.707 116.85 156.843 116.867 156.739 116.884C156.324 116.988 155.771 117.022 154.353 117.04C152.987 117.057 152.797 117.092 152.416 117.489L151.984 117.904V121.691C151.984 125.339 151.967 125.495 151.638 125.581C151.24 125.685 151.344 126.221 151.759 126.221C151.932 126.221 151.846 126.411 151.483 126.826C150.549 127.898 150.359 128.417 150.376 129.973C150.393 130.959 150.324 131.408 150.203 131.408C150.082 131.408 149.857 131.616 149.684 131.858C149.425 132.204 149.408 132.342 149.581 132.549C149.753 132.774 149.823 132.757 150.099 132.515C150.411 132.221 150.428 132.342 150.428 136.751V141.264L149.892 142.872C149.183 144.964 148.509 146.347 147.558 147.748C145.811 150.307 145.137 152.503 145.275 155.252C145.414 157.949 146.295 159.868 147.782 160.75C148.474 161.148 148.803 161.234 149.753 161.217C153.177 161.2 155.719 158.278 163.672 145.206C164.226 144.29 164.71 143.563 164.762 143.598C164.848 143.685 164.9 144.999 165.211 153.54C165.35 157.482 165.505 161.719 165.557 162.963C165.609 164.191 165.799 169.534 165.989 174.807C166.18 180.081 166.404 186.496 166.508 189.072C166.612 191.631 166.681 193.983 166.681 194.294C166.681 194.795 166.733 194.847 167.252 194.899L167.805 194.951L167.926 196.68C167.995 197.631 168.22 201.798 168.41 205.93C168.877 215.682 169.188 222.357 169.62 231.002C169.811 234.858 170.156 242.016 170.398 246.909C170.64 251.802 170.865 256.471 170.917 257.283C171.176 261.917 171.211 263.508 171.038 263.508C170.952 263.508 170.571 263.767 170.208 264.096L169.551 264.684L169.741 265.687C169.932 266.689 169.932 266.707 169.43 267.174C168.566 267.969 168.566 267.9 169.638 275.871C169.914 277.963 170.07 279.692 169.983 279.727C169.897 279.761 168.842 280.384 167.615 281.11C162.652 284.101 162.531 284.205 162.341 286.28C162.272 287.11 162.237 288.372 162.272 289.046L162.358 290.308H156.186H150.03L150.428 289.876C150.739 289.548 151.154 288.285 152.105 284.827C153.471 279.865 153.644 278.499 153.142 277.029C152.866 276.268 147.973 267.969 147.419 267.347C146.762 266.603 146.451 266.534 143.442 266.447L140.538 266.361L140.555 253.566C140.572 246.529 140.624 238.195 140.676 235.03L140.797 229.307L140.036 229.1C139.621 228.996 139.154 228.875 138.999 228.823C138.757 228.754 138.722 229.912 138.618 240.806C138.549 247.445 138.497 255.935 138.497 259.652V266.447H136.232H133.95L134.071 255.537L134.175 244.609L134.711 242.223C135.489 238.679 135.973 237.278 136.889 236.068C137.512 235.255 137.754 234.252 137.979 231.676C138.082 230.397 138.203 229.204 138.255 228.996C138.342 228.668 138.238 228.616 137.425 228.443C136.924 228.356 136.457 228.304 136.405 228.339C136.232 228.443 136.094 229.342 135.904 231.78C135.748 233.872 135.696 234.097 135.143 234.979C134.832 235.497 134.382 236.275 134.157 236.708L133.742 237.486L133.691 236.967C133.673 236.673 133.483 235.394 133.293 234.114C133.016 232.212 132.964 231.365 133.068 229.549L133.189 227.319L132.446 227.44C130.976 227.665 131.045 227.526 131.114 230.881C131.149 232.523 131.304 234.858 131.46 236.103C131.944 239.889 132.117 246.944 131.996 257.059L131.875 266.447H129.662C126.204 266.447 126.601 266.119 123.282 271.652C121.76 274.194 120.377 276.632 120.239 277.029C119.702 278.482 119.875 279.796 121.259 284.827C122.21 288.268 122.642 289.565 122.936 289.876L123.334 290.308H115.311H107.288L107.34 216.772C107.374 143.356 107.374 143.218 107.029 142.906L106.683 142.595V216.166C106.683 287.213 106.665 289.738 106.371 290.014C106.078 290.291 104.227 290.308 83.375 290.308H60.6898V234.373V178.439H81.8881C105.732 178.439 103.934 178.542 104.608 177.142C104.919 176.502 104.954 176.277 104.798 175.724C104.591 174.963 104.072 174.41 103.346 174.133C103 173.995 96.3948 173.943 81.8189 173.943H60.7763V119.097V64.2344L83.3405 64.1826C95.7551 64.1653 106.078 64.1826 106.302 64.2344L106.683 64.3209V83.8938C106.683 103.432 106.683 103.449 107.029 103.138C107.374 102.827 107.374 102.602 107.374 83.5998C107.374 65.5312 107.357 64.3382 107.08 63.9924L106.769 63.6293L83.3405 63.5774C70.459 63.5601 49.572 63.5601 36.9153 63.5774ZM59.9982 119.045V173.943H39.8547C18.0859 173.943 19.0542 173.908 18.1897 174.859C17.3078 175.81 17.6537 177.539 18.8467 178.127C19.4173 178.421 20.766 178.439 39.7337 178.439H59.9982V234.373V290.308H37.2784H14.5414L14.282 289.928C14.0399 289.582 14.0053 278.585 14.0053 177.055C14.0053 89.7899 14.0572 64.5111 14.2128 64.3555C14.3684 64.1998 19.7112 64.148 37.2093 64.148H59.9982V119.045ZM193.948 82.8218C195.262 82.9947 196.438 82.9255 197.821 82.5624C198.253 82.4587 198.288 82.5105 199.256 84.9831C200 86.9023 200.225 87.6458 200.138 88.0262C200.069 88.3029 199.948 88.5622 199.861 88.6141C199.498 88.8562 199.775 89.3403 201.003 90.6371C201.729 91.3806 202.403 92.1932 202.507 92.4353C202.732 92.9194 202.697 92.954 201.279 94.1125C201.003 94.3373 200.916 94.5448 200.985 94.8041C201.193 95.6859 202.127 101.392 202.127 101.841C202.127 102.775 200.294 103.795 197.977 104.124C194.45 104.642 189.504 103.017 187.049 100.51C186.427 99.8702 186.34 99.7146 186.513 99.438C186.617 99.2651 186.652 99.023 186.565 98.902C186.461 98.7464 186.237 98.8155 185.614 99.2478C184.629 99.9221 183.418 100.32 182.778 100.181C181.672 99.9221 180.704 98.2622 180.548 96.3603C180.444 94.9597 180.6 94.1817 181.153 93.5246C181.568 93.0405 181.689 92.9886 182.415 93.0578C183.487 93.1615 184.646 93.9742 185.562 95.271C185.96 95.8416 186.375 96.3084 186.479 96.3084C186.807 96.3084 186.911 96.1009 186.703 95.8416C186.565 95.6686 186.582 95.4439 186.807 94.9424C187.049 94.441 187.101 93.905 187.049 92.5045L186.997 90.7063L188.121 90.0838C189.038 89.5651 189.314 89.3057 189.677 88.5968C190.075 87.8187 190.11 87.5594 190.11 85.5364C190.11 83.3751 190.127 83.3059 190.542 82.9947C190.991 82.6489 191.597 82.4932 192.184 82.597C192.375 82.6143 193.17 82.718 193.948 82.8218ZM321.051 130.371L320.999 168.773L270.563 168.808C242.811 168.825 220.109 168.773 220.109 168.704C220.109 168.617 220.42 168.012 220.8 167.355L221.509 166.162L270.044 166.128L318.578 166.076L318.63 130.717C318.648 111.265 318.63 95.1845 318.578 94.9597L318.492 94.5793L263.543 94.6139L208.611 94.6658L208.559 105.075L208.524 115.466L207.314 114.93L206.103 114.377V103.173V91.9857H263.594H321.086L321.051 130.371ZM317.939 130.405L317.887 165.557L269.992 165.574C243.658 165.574 222.045 165.557 221.976 165.522C221.924 165.488 222.287 164.71 222.823 163.776C225.106 159.747 226.852 155.892 226.852 154.871C226.852 153.765 224.31 146.797 217.602 129.506C214.783 122.262 214.092 120.55 213.625 119.737C213.071 118.821 211.291 117.092 210.115 116.365L209.216 115.812V105.542V95.271H263.594H317.973L317.939 130.405ZM185.649 102.066C187.724 104.539 190.922 106.752 193.706 107.703L194.605 108.014L194.657 109.259L194.709 110.521L196.421 111.334C197.372 111.766 198.15 112.198 198.15 112.268C198.15 112.337 197.717 113.028 197.181 113.772C195.954 115.518 194 117.489 192.686 118.267L191.683 118.873H189.504C187.36 118.873 187.343 118.873 185.873 118.198C184.093 117.368 182.398 116.314 180.773 115.017C179.355 113.876 177.574 112.216 177.574 112.025C177.574 111.956 178.024 111.645 178.577 111.334C180.098 110.469 181.672 109.328 182.052 108.775C182.363 108.343 182.45 107.772 182.675 104.746C182.813 102.827 182.934 101.15 182.934 101.063C182.934 100.96 183.176 100.856 183.487 100.839C183.799 100.804 184.075 100.752 184.127 100.717C184.3 100.527 184.473 100.683 185.649 102.066ZM178.145 113.616C180.513 115.933 183.85 118.216 186.081 119.045L186.876 119.339L186.237 119.979C185.355 120.861 185.113 121.812 185.216 123.939C185.337 126.498 185.77 127.086 187.931 127.622L189.072 127.916V128.573C189.072 129.212 189.055 129.247 188.346 129.368C187.395 129.524 186.34 130.077 185.891 130.647C185.32 131.374 185.13 132.376 185.216 134.175C185.32 136.232 185.631 136.976 186.513 137.425C187.274 137.823 189.401 138.324 190.265 138.324H190.853L191.009 137.149C191.078 136.509 191.112 134.711 191.078 133.137C190.974 129.022 190.974 127.137 191.095 124.406C191.147 123.074 191.147 121.483 191.078 120.878C190.957 119.824 190.974 119.789 191.406 119.633C193.533 118.838 196.213 116.504 197.96 113.893C198.444 113.167 198.945 112.562 199.049 112.562C199.291 112.562 201.418 113.34 204.634 114.585C207.539 115.726 209.596 116.763 210.478 117.558L211.118 118.129V119.633C211.118 120.446 210.962 122.59 210.772 124.406C210.374 128.037 210.253 132.255 209.804 155.961C209.648 164.191 209.51 170.934 209.492 170.952C209.492 170.969 208.887 171.142 208.178 171.332C207.469 171.522 206.19 171.885 205.325 172.127C202.178 173.009 192.53 174.911 183.885 176.346C176.104 177.643 167.027 179.009 166.923 178.905C166.854 178.853 166.698 175.274 166.422 167.545C166.37 166.076 166.128 159.799 165.886 153.609L165.471 142.336L166.093 141.264C166.629 140.399 166.698 140.175 166.491 140.036C166.128 139.811 166.11 139.811 165.488 140.866C163.811 143.719 159.644 150.359 157.88 153.021L155.874 156.047L155.771 153.021C155.667 150.03 155.529 148.578 154.993 145.102L154.716 143.339L155.494 142.474C156.376 141.489 156.808 140.659 157.379 138.791L157.776 137.46L158.641 137.443C160.889 137.356 161.39 137.166 161.684 136.267C161.805 135.921 162.22 135.368 162.6 135.022C163.24 134.434 163.292 134.348 163.136 133.898C162.998 133.518 162.825 133.379 162.427 133.345C161.891 133.293 161.874 133.258 161.77 132.238C161.649 131.235 161.667 131.149 162.185 130.423C162.773 129.61 162.773 129.558 162.393 127.794C162.289 127.362 162.116 126.93 161.978 126.844C161.788 126.688 161.701 125.962 161.615 123.697C161.476 120.187 161.407 120.36 163.62 118.89C165.09 117.922 167.079 116.919 170.917 115.224C172.162 114.688 173.943 113.824 174.894 113.322C175.845 112.821 176.675 112.406 176.761 112.406C176.83 112.389 177.453 112.942 178.145 113.616ZM212.726 119.685C213.417 120.705 214.247 122.728 218.328 133.31C223.757 147.402 226.16 154.007 226.16 154.82C226.16 155.563 224.466 159.488 223.619 160.75C223.498 160.923 223.169 160.871 222.201 160.543C220.091 159.834 217.273 159.696 215.233 160.197L214.783 160.318L215.112 159.039C215.285 158.347 215.44 157.603 215.44 157.396C215.44 157.171 214.386 154.457 213.089 151.344L210.737 145.673L210.841 137.892C210.927 132.273 211.066 129.126 211.308 126.567C211.498 124.613 211.688 122.071 211.757 120.896C211.809 119.737 211.913 118.786 211.982 118.786C212.051 118.786 212.397 119.201 212.726 119.685ZM159.592 123.697C159.592 124.06 158.917 124.561 156.601 125.962C155.39 126.688 154.266 127.466 154.128 127.691C153.73 128.296 153.592 130.163 153.921 130.284C154.059 130.336 155.252 129.869 156.583 129.23C160.439 127.397 161.77 126.999 161.632 127.743C161.598 127.898 160.076 128.953 158.243 130.094C155.165 132.031 154.578 132.532 155.2 132.74C155.286 132.774 156.791 131.91 158.537 130.803C160.266 129.714 161.77 128.815 161.857 128.815C161.943 128.815 162.012 129.022 162.012 129.281C162.012 129.662 161.511 130.25 159.419 132.273C158.001 133.656 156.825 134.884 156.825 135.005C156.825 135.316 157.275 135.264 159.938 134.607C161.304 134.261 162.445 134.036 162.497 134.088C162.721 134.313 161.978 134.728 160.197 135.385C157.102 136.526 157.258 136.422 157.016 137.564C156.618 139.379 155.788 141.108 154.854 142.094L153.99 143.01L154.37 145.638C154.578 147.091 154.802 148.82 154.854 149.494L154.975 150.739L154.076 151.033C153.402 151.258 152.779 151.31 151.586 151.258C149.857 151.189 148.941 150.86 147.817 149.926L147.229 149.425L147.938 148.405C148.924 147.022 149.667 145.5 150.462 143.252L151.154 141.35L151.102 135.039C151.05 127.829 150.964 128.244 152.589 126.757C153.609 125.841 155.753 124.682 158.07 123.818C159.367 123.334 159.592 123.316 159.592 123.697ZM190.196 128.555C190.196 128.884 190.127 129.16 190.023 129.16C189.937 129.16 189.85 128.884 189.85 128.555C189.85 128.227 189.937 127.95 190.023 127.95C190.127 127.95 190.196 128.227 190.196 128.555ZM212.829 152.52C213.884 155.062 214.749 157.24 214.749 157.361C214.749 157.707 212.881 165.315 212.778 165.419C212.605 165.592 210.34 165.557 210.34 165.384C210.357 165.28 210.426 161.252 210.495 156.428C210.582 151.586 210.703 147.696 210.772 147.782C210.841 147.852 211.775 149.996 212.829 152.52ZM147.869 150.826C149.356 151.759 150.099 151.984 151.794 151.984C152.624 151.984 153.678 151.88 154.128 151.742C155.165 151.431 155.165 151.413 155.062 154.128C154.941 156.722 154.612 157.638 153.298 158.866C151.5 160.56 149.494 161.027 148.042 160.076C146.572 159.09 145.673 156.047 146.053 153.402C146.243 152.209 146.762 150.255 146.901 150.255C146.935 150.255 147.367 150.514 147.869 150.826ZM219.59 160.629C221.129 160.837 223.048 161.442 223.048 161.736C223.048 162.082 217.221 172.3 216.754 172.785C216.633 172.888 216.409 173.684 216.236 174.548C216.063 175.395 215.734 176.675 215.509 177.384C215.025 178.836 213.071 182.761 212.847 182.761C212.674 182.761 206.916 177.781 206.83 177.574C206.812 177.505 206.951 177.09 207.141 176.64C207.573 175.62 207.59 175.067 207.21 175.222C207.054 175.274 206.173 175.828 205.256 176.45C204.322 177.073 203.441 177.574 203.285 177.574C202.87 177.574 202.127 177.194 202.127 176.986C202.127 176.761 204.599 174.323 206.017 173.148C207.054 172.3 207.106 172.283 209.734 171.73C213.175 171.004 213.002 171.055 212.899 170.658C212.847 170.468 212.726 170.347 212.605 170.364C212.38 170.398 212.363 170.537 212.916 168.133C213.158 167.096 213.607 165.229 213.884 164.001C214.178 162.756 214.455 161.615 214.507 161.459C214.61 161.113 215.492 160.802 216.824 160.629C218.172 160.456 218.155 160.456 219.59 160.629ZM212.535 166.249C212.657 166.37 212.172 168.427 211.965 168.687C211.878 168.79 211.481 168.86 211.083 168.86L210.34 168.842L210.288 167.736C210.219 166.197 210.236 166.162 211.429 166.162C211.982 166.162 212.484 166.197 212.535 166.249ZM211.74 170.001C211.602 170.675 211.636 170.658 210.876 170.779L210.253 170.883V170.156V169.447H211.048H211.861L211.74 170.001ZM204.374 173.701C203.942 174.133 203.371 174.635 203.078 174.807C201.798 175.603 190.317 179.441 185.441 180.686C180.271 182.035 172.145 183.557 168.306 183.902L167.079 184.023L166.975 181.897C166.906 180.721 166.871 179.753 166.888 179.718C166.923 179.701 168.375 179.476 170.139 179.234C171.903 178.975 174.271 178.611 175.413 178.439C176.554 178.248 179.476 177.781 181.897 177.401C189.47 176.191 200.034 174.185 204.029 173.182C204.547 173.044 205.014 172.94 205.066 172.923C205.101 172.906 204.789 173.269 204.374 173.701ZM103.398 174.894C104.366 175.395 104.435 176.848 103.536 177.47C103.19 177.73 99.3861 177.747 61.2431 177.747H19.3308L18.8294 177.245C18.2934 176.709 18.2242 176.329 18.5009 175.603C18.8813 174.583 15.7863 174.652 61.2604 174.635C97.7262 174.635 102.965 174.669 103.398 174.894ZM201.642 176.398C201.314 176.727 201.4 177.245 201.815 177.712L202.213 178.127L201.729 178.473C201.47 178.663 200.57 179.389 199.74 180.064C192.893 185.701 187.481 188.796 179.839 191.441C175.845 192.807 169.983 194.173 168.012 194.173H167.407L167.303 191.441C167.234 189.954 167.165 187.827 167.148 186.738L167.113 184.75L168.324 184.629C173.303 184.093 181.637 182.467 187.602 180.859C189.504 180.358 197.251 177.799 200.138 176.727C201.677 176.156 201.954 176.087 201.642 176.398ZM190.957 192.824C191.009 193.135 191.476 196.732 192.012 200.83C193.032 208.697 193.153 209.648 195.47 227.284C197.614 243.468 198.496 250.384 198.496 250.73C198.496 250.99 198.323 251.059 197.51 251.093L196.507 251.145L196.455 270.718L196.421 290.308H190.196H183.971L184.058 289.651C184.11 289.306 184.179 288.735 184.231 288.406C184.507 286.383 184.525 282.51 184.248 280.453L183.954 278.291L184.559 273.104L185.182 267.917L184.629 267.45L184.093 266.983L184.386 262.004C184.542 259.272 184.784 255.157 184.94 252.874C185.251 247.843 187.845 205.343 188.208 199.274C188.536 193.741 188.623 192.738 188.778 192.582C188.882 192.478 189.522 192.375 190.473 192.306C190.767 192.271 190.87 192.392 190.957 192.824ZM210.132 214.697C209.129 216.322 207.124 218.483 205.688 219.452C204.219 220.472 202.403 221.25 200.778 221.578C200 221.734 199.274 221.838 199.17 221.803C198.997 221.751 210.028 214.23 210.305 214.23C210.374 214.23 210.305 214.437 210.132 214.697ZM223.238 239.128L223.221 250.972L217.844 251.024L212.449 251.059L212.57 248.863C212.622 247.635 212.76 242.362 212.864 237.14C212.968 231.901 213.089 227.526 213.123 227.405C213.175 227.232 214.282 227.198 218.207 227.232L223.238 227.284V239.128ZM316.59 239.128V251.059H308.204H299.818V239.128V227.198H308.204H316.59V239.128ZM177.885 238.35C181.032 240.148 183.626 241.687 183.626 241.739C183.626 241.791 182.951 241.739 182.139 241.601C179.32 241.151 176.64 240.027 174.704 238.471C173.459 237.468 171.315 234.719 172.006 235.013C172.093 235.03 174.721 236.535 177.885 238.35ZM296.014 247.082V251.059H261.693H227.371V247.082V243.105H261.693H296.014V247.082ZM198.738 252.39C199.464 256.851 199.879 261.087 199.879 264.096C199.879 266.966 199.844 267.381 199.585 267.571C199.308 267.779 199.308 267.952 199.585 270.442C199.827 272.568 199.879 274.626 199.879 280.557C199.879 286.85 199.913 288.095 200.138 288.51C200.276 288.787 200.398 289.306 200.398 289.651V290.308H198.755H197.112V271.029V251.75H197.873C198.617 251.75 198.634 251.768 198.738 252.39ZM326.273 271.029V290.308H274.176H222.08L222.184 289.392L222.27 288.493L272.845 288.406L323.42 288.32L323.472 271.116C323.506 255.088 323.489 253.894 323.212 253.687C322.988 253.531 311.61 253.48 267.71 253.48H212.501V252.615V251.75H269.387H326.273V271.029ZM240.944 271.029V287.801H231.607H222.27L222.149 286.504C222.08 285.796 221.959 285 221.855 284.741C221.648 284.188 220.022 283.012 216.789 281.093C214.922 279.986 214.403 279.588 214.403 279.312C214.403 279.104 214.593 277.513 214.835 275.767C215.492 270.926 215.769 268.332 215.665 268.021C215.613 267.865 215.337 267.502 215.06 267.191C214.558 266.672 214.541 266.638 214.731 265.756C214.887 265.047 214.887 264.788 214.714 264.58C214.282 264.044 213.625 263.525 212.968 263.231L212.311 262.92L212.328 259.981C212.345 258.355 212.397 256.384 212.449 255.589L212.553 254.171L226.748 254.206L240.944 254.258V271.029ZM281.144 271.029V287.888L261.399 287.853L241.635 287.801L241.584 271.202C241.566 262.073 241.584 254.5 241.635 254.379C241.687 254.223 245.82 254.171 261.433 254.171H281.144V271.029ZM322.78 270.978L322.728 287.801H302.325H281.922L281.871 271.202C281.853 262.073 281.871 254.5 281.922 254.379C281.974 254.223 286.245 254.171 302.412 254.171H322.815L322.78 270.978ZM176.623 263.422C177.781 263.733 179.459 264.58 179.96 265.116L180.306 265.496L178.819 270.027L177.315 274.574L174.738 274.522L172.162 274.488L171.211 269.767C170.277 265.185 170.277 265.047 170.571 264.718C171.764 263.404 174.393 262.851 176.623 263.422ZM212.57 263.837C214.403 264.736 214.351 264.303 213.262 269.646C212.76 272.222 212.328 274.366 212.328 274.436C212.328 274.522 211.17 274.574 209.752 274.574H207.175L205.637 269.975L204.115 265.375L204.616 264.978C206.864 263.18 210.253 262.695 212.57 263.837ZM183.107 267.329C183.626 267.589 184.162 267.883 184.283 267.969C184.456 268.073 184.369 269.179 183.885 273.208L183.28 278.291L183.557 280.193C183.833 282.095 183.833 287.231 183.557 287.698C183.47 287.836 180.565 287.888 173.13 287.888H162.825L162.946 286.539C163.015 285.813 163.171 285.035 163.309 284.845C163.586 284.412 165.229 283.306 168.202 281.542C169.932 280.522 170.398 280.314 170.658 280.453C171.073 280.678 178.439 280.678 178.784 280.453C178.992 280.332 179.044 279.796 179.061 277.652C179.096 274.937 179.009 274.574 178.421 274.574C178.231 274.574 178.093 274.522 178.093 274.436C178.093 274.263 180.634 266.689 180.755 266.465C180.876 266.275 181.568 266.534 183.107 267.329ZM205.066 270.321C205.74 272.413 206.345 274.211 206.397 274.349C206.449 274.505 206.345 274.574 206.052 274.574C205.827 274.574 205.55 274.678 205.446 274.781C205.343 274.92 205.291 276.096 205.308 277.652C205.325 279.796 205.377 280.332 205.585 280.453C205.982 280.712 213.296 280.678 213.694 280.418C213.988 280.245 214.386 280.435 216.702 281.819C219.798 283.686 220.973 284.533 221.267 285.121C221.388 285.363 221.492 286.072 221.492 286.712V287.888H211.221H200.951L200.864 287.49C200.57 286.349 200.536 282.873 200.812 280.971C201.176 278.395 201.158 277.876 200.674 273.882C200.432 272.032 200.19 269.957 200.138 269.283L200.017 268.055L200.674 267.658C201.694 267.07 203.579 266.275 203.7 266.413C203.769 266.482 204.374 268.246 205.066 270.321ZM146.503 267.45C147.212 267.883 152.278 276.407 152.606 277.738C152.935 278.983 152.9 279.242 151.707 283.738C150.445 288.458 150.341 288.821 149.978 289.375C149.356 290.326 149.529 290.308 136.665 290.308C125.996 290.308 124.751 290.274 124.198 290.032C123.87 289.859 123.489 289.565 123.351 289.34C123.126 289.012 122.019 285.087 120.757 280.228C120.394 278.862 120.567 277.755 121.38 276.234C122.901 273.364 126.532 267.554 126.93 267.364C127.241 267.191 129.61 267.139 136.682 267.139C145.258 267.139 146.053 267.174 146.503 267.45ZM170.139 267.779C170.139 267.917 171.263 273.433 171.436 274.176C171.505 274.488 171.453 274.574 171.194 274.574C171.004 274.574 170.692 274.73 170.519 274.92C170.191 275.266 170.191 275.231 169.811 272.119C169.378 268.488 169.378 268.142 169.655 267.865C169.897 267.623 170.139 267.589 170.139 267.779ZM214.87 268.004C215.094 268.332 214.991 269.612 214.386 274.055C214.213 275.283 214.143 275.456 214.005 275.127C213.901 274.92 213.642 274.695 213.4 274.626C213.089 274.557 213.002 274.436 213.054 274.159C213.106 273.969 213.4 272.413 213.729 270.718C214.057 269.041 214.403 267.658 214.489 267.658C214.593 267.658 214.766 267.813 214.87 268.004ZM178.404 275.473C178.335 275.646 177.453 275.715 174.877 275.75C171.401 275.784 170.9 275.75 171.09 275.439C171.263 275.162 178.49 275.214 178.404 275.473ZM213.193 275.525C213.193 275.802 206.069 275.75 205.965 275.473C205.913 275.3 206.657 275.266 209.544 275.3C211.827 275.335 213.193 275.421 213.193 275.525ZM214.109 276.217C213.988 276.58 213.884 276.545 213.884 276.113C213.884 275.923 213.953 275.802 214.057 275.871C214.143 275.923 214.178 276.078 214.109 276.217ZM178.404 276.856C178.335 277.029 177.453 277.098 174.877 277.133C171.401 277.168 170.9 277.133 171.09 276.822C171.263 276.545 178.49 276.597 178.404 276.856ZM213.193 276.908C213.193 277.185 206.069 277.133 205.965 276.856C205.913 276.683 206.657 276.649 209.544 276.683C211.827 276.718 213.193 276.804 213.193 276.908ZM178.352 278.291C178.352 278.464 171.661 278.637 171.211 278.464C171.09 278.412 171.038 278.309 171.09 278.205C171.246 277.963 178.352 278.049 178.352 278.291ZM213.279 278.291C213.279 278.395 211.913 278.482 209.613 278.516C206.259 278.551 205.688 278.499 206.052 278.136C206.242 277.946 213.279 278.101 213.279 278.291ZM178.404 279.709C178.456 279.882 177.66 279.934 174.825 279.934C171.522 279.934 170.796 279.848 171.125 279.519C171.194 279.467 172.836 279.433 174.79 279.45C177.436 279.484 178.335 279.554 178.404 279.709ZM213.279 279.675C213.279 279.778 211.913 279.865 209.613 279.899C206.259 279.934 205.688 279.882 206.052 279.519C206.242 279.329 213.279 279.484 213.279 279.675ZM183.453 289.063C183.453 289.323 183.401 289.703 183.349 289.911L183.245 290.308H173.165H163.102L162.998 289.496C162.946 289.029 162.929 288.631 162.963 288.579C162.998 288.527 167.615 288.51 173.234 288.545L183.453 288.579V289.063ZM221.492 289.444V290.308H211.291H201.089V289.824C201.089 289.565 201.037 289.184 200.985 288.96L200.882 288.579H211.187H221.492V289.444Z" fill="black"/>
<path d="M23.5151 141.523V158.9L35.6704 158.866L47.8084 158.814V141.523V124.233L35.6704 124.181L23.5151 124.146V141.523ZM27.7167 132.48C27.7859 136.699 27.8378 144.203 27.8378 149.166V158.208H25.9358H24.0339V141.523V124.838H25.8148H27.613L27.7167 132.48ZM42.8806 129.766V134.693H35.6185H28.3565V129.766V124.838H35.6185H42.8806V129.766ZM47.2032 141.523V158.208H45.3877H43.5722V141.523V124.838H45.3877H47.2032V141.523ZM42.8806 146.797V158.208H35.6185H28.3565V146.797V135.385H35.6185H42.8806V146.797Z" fill="black"/>
<path d="M196.075 86.9022C194.986 87.5247 194.64 87.9224 194.951 88.1817C195.124 88.3373 195.366 88.2336 196.006 87.7495C196.784 87.1616 196.905 87.1097 197.873 87.1789C198.997 87.2307 199.395 86.9368 198.582 86.6256C197.804 86.3316 196.905 86.4354 196.075 86.9022Z" fill="black"/>
<path d="M196.594 88.8561C196.317 89.3922 196.386 90.1875 196.766 90.6198C197.112 91.0348 197.112 91.0348 197.372 90.7062C197.856 90.0838 197.614 88.5276 197.026 88.5276C196.888 88.5276 196.697 88.6832 196.594 88.8561Z" fill="black"/>
<path d="M194.553 95.2364C194.398 95.3401 194.432 95.4784 194.744 95.7551C195.435 96.4121 196.403 96.7061 197.925 96.7061C199.447 96.7233 199.637 96.6542 199.481 96.2392C199.395 96.0144 199.17 95.9799 198.375 96.0663C197.251 96.1873 196.075 95.928 195.366 95.4266C194.83 95.0462 194.847 95.0635 194.553 95.2364Z" fill="black"/>
<path d="M153.644 73.5193C153.419 73.8306 153.367 74.453 153.367 76.7181V79.5364L152.918 79.3635C152.261 79.1042 151.656 79.1561 150.86 79.5364C150.013 79.9514 149.563 80.643 149.563 81.5767C149.563 83.6516 152.641 84.4815 154.145 82.8216C154.457 82.4758 154.491 82.1992 154.491 79.5537C154.491 76.6835 154.491 76.6835 154.889 76.7008C155.096 76.7008 156.48 76.7181 157.949 76.7354L160.629 76.77V78.1705C160.629 79.5364 160.629 79.5537 160.249 79.4327C159.212 79.1042 158.001 79.4154 157.344 80.1589C156.929 80.643 156.826 80.9197 156.826 81.5594C156.826 82.2338 156.912 82.424 157.5 83.0118C158.122 83.6516 158.226 83.6862 159.194 83.6862C160.353 83.6862 161.252 83.2193 161.598 82.4758C161.719 82.1819 161.753 80.6949 161.684 77.7555C161.598 74.211 161.529 73.4502 161.321 73.3118C161.183 73.2254 159.454 73.1389 157.483 73.1389C153.973 73.1389 153.903 73.1389 153.644 73.5193ZM160.629 74.9026V75.6461L157.569 75.5942C155.875 75.5596 154.474 75.5077 154.422 75.4732C154.388 75.4386 154.422 75.1274 154.474 74.7815L154.595 74.1764H157.604H160.629V74.9026ZM152.555 80.3837C153.592 80.7814 153.852 81.6805 153.091 82.2856C152.831 82.4931 152.382 82.6487 152.071 82.6487C151.379 82.6487 150.601 82.0609 150.601 81.5421C150.601 81.0234 151.05 80.4356 151.517 80.3491C151.725 80.3145 151.95 80.2626 152.019 80.2454C152.088 80.2454 152.33 80.2972 152.555 80.3837ZM160.37 80.8332C160.923 81.3692 160.923 81.8361 160.353 82.2856C159.419 83.0291 157.863 82.545 157.863 81.5249C157.863 80.4528 159.54 79.986 160.37 80.8332Z" fill="black"/>
<path d="M146.33 78.257C146.278 78.3954 146.295 78.5856 146.382 78.672C146.607 78.8795 147.316 78.551 147.316 78.2398C147.316 77.8939 146.468 77.8939 146.33 78.257Z" fill="black"/>
<path d="M144.082 78.6894C143.65 78.8104 143.563 78.9142 143.633 79.2081C143.702 79.4329 143.823 79.5193 143.978 79.4675C144.117 79.3983 144.428 79.3119 144.653 79.26C145.12 79.1389 145.102 79.1562 144.964 78.7758C144.843 78.4646 144.843 78.4646 144.082 78.6894Z" fill="black"/>
<path d="M141.402 79.5884C140.883 79.7959 140.849 79.8478 141.074 80.1936C141.281 80.5394 142.509 80.0034 142.37 79.6403C142.249 79.3291 142.076 79.3118 141.402 79.5884Z" fill="black"/>
<path d="M138.809 80.6086C138.29 80.7815 138.238 80.868 138.497 81.2657C138.636 81.4731 138.722 81.4731 139.258 81.2138C139.69 81.0236 139.846 80.8507 139.777 80.6605C139.656 80.3665 139.483 80.3493 138.809 80.6086Z" fill="black"/>
<path d="M128.866 81.3002C128.763 81.4212 128.642 82.6834 128.573 84.1013C128.469 86.3663 128.486 86.7121 128.745 86.9888C129.109 87.3865 129.558 87.4038 129.921 87.0407C130.146 86.8159 130.198 86.2972 130.198 84.1358C130.198 82.3203 130.129 81.4385 129.99 81.3002C129.714 81.0235 129.074 81.0408 128.866 81.3002Z" fill="black"/>
<path d="M136.803 81.5941C136.63 81.6978 136.63 81.7842 136.855 81.9572C137.183 82.2338 137.373 82.0782 137.166 81.7151C137.079 81.5595 136.941 81.5076 136.803 81.5941Z" fill="black"/>
<path d="M126.394 83.5825C125.547 84.1358 124.682 85.1559 124.25 86.0896C123.697 87.3345 123.731 89.3575 124.371 90.637C124.941 91.7955 125.927 92.7292 127.207 93.3171C128.469 93.9049 130.544 93.8358 131.806 93.196C132.826 92.6773 133.898 91.5361 134.399 90.4641C134.918 89.3229 134.918 87.2135 134.399 86.0896C133.933 85.0522 132.912 83.9283 132.048 83.496C131.408 83.1675 131.356 83.1675 131.045 83.4442C130.492 83.9456 130.647 84.4124 131.529 85.0695C134.002 86.9023 133.725 90.4814 130.993 91.7436C130.474 91.9857 129.783 92.1586 129.333 92.1586C126.947 92.1586 125.063 89.859 125.529 87.542C125.789 86.349 126.29 85.6228 127.397 84.8966C128.002 84.4989 128.296 84.1877 128.296 83.9456C128.296 83.0983 127.397 82.9254 126.394 83.5825Z" fill="black"/>
<path d="M70.4071 111.472L70.459 137.546H83.9456H97.4323L97.4841 111.472L97.5187 85.4153H83.9456H70.3726L70.4071 111.472ZM96.8271 111.438L96.8444 136.855H83.9456H71.0642V111.472C71.0642 97.5187 71.0642 86.0724 71.0642 86.0205C71.0642 85.9686 76.8565 85.9513 83.9456 85.9686L96.8271 86.0205V111.438Z" fill="black"/>
<path d="M72.4821 103.778L72.534 118.181H83.9457H95.3575L95.4094 103.778L95.4439 89.3922H83.9457H72.4475L72.4821 103.778ZM94.7696 90.3432C94.7869 90.4815 94.8042 90.7236 94.8042 90.8619C94.8042 91.0002 94.7869 97.0692 94.7696 104.349L94.7523 117.576H83.9457H73.1391V103.83V90.0838H83.9457C93.4209 90.0838 94.7523 90.1184 94.7696 90.3432Z" fill="black"/>
<path d="M72.6896 120.913C72.655 121.034 72.6377 121.916 72.655 122.867L72.7068 124.578H74.5224H76.3379V122.676V120.774L74.5569 120.723C73.191 120.688 72.7587 120.723 72.6896 120.913ZM75.7327 122.676V123.973H74.5224H73.312V122.676V121.38H74.5224H75.7327V122.676Z" fill="black"/>
<path d="M77.4273 120.895C77.2889 121.328 77.41 124.336 77.5829 124.509C77.6693 124.596 78.4993 124.648 79.4675 124.63L81.1793 124.578V122.676V120.774L79.3465 120.723C77.9633 120.688 77.4791 120.74 77.4273 120.895ZM80.5741 122.676V123.973H79.2774H77.9806V122.676V121.38H79.2774H80.5741V122.676Z" fill="black"/>
<path d="M82.1993 120.913C82.1647 121.034 82.1475 121.916 82.1647 122.867L82.2166 124.578H84.0321H85.8476L85.8995 122.625L85.9514 120.688H84.1186C82.7699 120.688 82.2685 120.74 82.1993 120.913ZM85.3808 122.625L85.3289 123.887L84.084 123.939L82.8218 123.991V122.676V121.38H84.1186H85.4327L85.3808 122.625Z" fill="black"/>
<path d="M87.0406 120.913C87.0061 121.034 86.9888 121.916 87.0061 122.867L87.0579 124.578H88.8734H90.6889V122.676V120.774L88.908 120.723C87.5421 120.688 87.1098 120.723 87.0406 120.913ZM90.1184 122.676L90.0492 123.973H88.8561H87.6631V122.676V121.38H88.9253H90.1702L90.1184 122.676Z" fill="black"/>
<path d="M91.8303 121.017C91.5363 121.535 91.5882 124.233 91.8821 124.475C92.0377 124.613 92.7121 124.665 93.8187 124.63L95.5304 124.579V122.677V120.775L93.7668 120.723C92.1588 120.688 91.9859 120.705 91.8303 121.017ZM94.9253 122.677V123.973H93.6285H92.3317V122.677V121.38H93.6285H94.9253V122.677Z" fill="black"/>
<path d="M72.6204 127.95V129.852H74.5223H76.4243V127.95V126.048H74.5223H72.6204V127.95ZM75.6116 126.74C75.6808 126.74 75.7327 127.328 75.7327 128.037V129.333H74.5223H73.312V127.985V126.653L74.384 126.688C74.9892 126.705 75.5252 126.722 75.6116 126.74Z" fill="black"/>
<path d="M77.4443 126.308C77.427 126.446 77.427 127.189 77.427 127.95C77.427 128.711 77.427 129.454 77.4443 129.593C77.4616 129.8 77.7901 129.852 79.3635 129.852H81.2828L81.2309 127.985L81.1791 126.135L79.329 126.083C77.7555 126.048 77.4616 126.083 77.4443 126.308ZM80.4874 127.95V129.247H79.2771H78.0668L78.0149 128.14C77.9803 127.535 77.9976 126.947 78.0322 126.844C78.084 126.705 78.5509 126.636 79.2944 126.653H80.4874V127.95Z" fill="black"/>
<path d="M82.1995 126.273C82.1476 126.411 82.1476 127.241 82.1649 128.14L82.2168 129.765L84.0841 129.817L85.9342 129.869V127.95V126.048H84.1187C82.7528 126.048 82.2686 126.1 82.1995 126.273ZM85.3809 128.002L85.3291 129.247H84.1187H82.9084L82.8565 128.14C82.8219 127.535 82.8392 126.947 82.8738 126.843C82.9257 126.722 83.3925 126.67 84.1879 126.705L85.4328 126.774L85.3809 128.002Z" fill="black"/>
<path d="M86.9714 127.95V129.852L87.5766 129.869C87.9051 129.869 88.493 129.887 88.8734 129.887C89.2538 129.887 89.8417 129.869 90.1702 129.869L90.7754 129.852V127.95V126.048H88.8734H86.9714V127.95ZM90.1183 127.95V129.247L88.8907 129.299L87.6631 129.351V128.054C87.6631 126.601 87.6112 126.636 89.2019 126.653H90.1183V127.95Z" fill="black"/>
<path d="M91.7436 126.48C91.6052 127.051 91.6398 129.403 91.8127 129.662C91.8819 129.8 92.5043 129.852 93.732 129.818L95.5302 129.766V127.95V126.135L93.6974 126.083L91.8473 126.031L91.7436 126.48ZM94.8386 127.967V129.247H93.6282H92.4179L92.366 128.054C92.3314 127.397 92.3833 126.809 92.487 126.757C92.5735 126.705 93.1441 126.671 93.7493 126.671L94.8386 126.705V127.967Z" fill="black"/>
<path d="M156.652 89.9108C156.652 90.4814 156.704 90.6024 156.998 90.6024C157.292 90.6024 157.344 90.4814 157.344 89.9108C157.344 89.3402 157.292 89.2191 156.998 89.2191C156.704 89.2191 156.652 89.3402 156.652 89.9108Z" fill="black"/>
<path d="M156.652 92.6773C156.652 93.2479 156.704 93.3689 156.998 93.3689C157.292 93.3689 157.344 93.2479 157.344 92.6773C157.344 92.1067 157.292 91.9857 156.998 91.9857C156.704 91.9857 156.652 92.1067 156.652 92.6773Z" fill="black"/>
<path d="M121.19 94.5102C120.999 94.735 121.017 94.8041 121.224 94.9425C121.57 95.15 121.674 95.1327 121.777 94.856C121.933 94.4583 121.466 94.1817 121.19 94.5102Z" fill="black"/>
<path d="M156.652 95.4612C156.652 96.0318 156.704 96.1529 156.964 96.101C157.171 96.0664 157.275 95.8589 157.309 95.3921C157.361 94.8388 157.309 94.7523 157.015 94.7523C156.704 94.7523 156.652 94.8561 156.652 95.4612Z" fill="black"/>
<path d="M119.824 96.4294C119.443 96.9136 119.443 97.2248 119.841 97.3113C120.135 97.3631 120.757 96.3949 120.602 96.1355C120.429 95.8588 120.221 95.928 119.824 96.4294Z" fill="black"/>
<path d="M135.402 96.5504C135.108 96.9135 135.835 97.951 136.198 97.6743C136.492 97.415 136.474 97.3458 136.008 96.7752C135.662 96.3602 135.593 96.3257 135.402 96.5504Z" fill="black"/>
<path d="M156.652 98.2277C156.652 98.7983 156.704 98.9194 156.964 98.8675C157.171 98.8329 157.275 98.6254 157.309 98.1586C157.361 97.6053 157.309 97.5188 157.015 97.5188C156.704 97.5188 156.652 97.6226 156.652 98.2277Z" fill="black"/>
<path d="M118.285 98.781C118.042 99.1786 117.991 99.3861 118.129 99.5417C118.388 99.8703 118.492 99.8184 118.838 99.2305C119.201 98.5908 119.201 98.4524 118.89 98.3314C118.734 98.2622 118.509 98.4352 118.285 98.781Z" fill="black"/>
<path d="M137.01 98.7983C136.959 98.9366 137.062 99.2478 137.235 99.4899C137.581 99.974 137.616 99.9913 137.961 99.7838C138.152 99.6628 138.117 99.5245 137.789 99.0922C137.356 98.5043 137.149 98.4352 137.01 98.7983Z" fill="black"/>
<path d="M156.652 100.994C156.652 101.565 156.704 101.686 156.964 101.634C157.171 101.599 157.275 101.392 157.309 100.925C157.361 100.372 157.309 100.285 157.015 100.285C156.704 100.285 156.652 100.389 156.652 100.994Z" fill="black"/>
<path d="M138.705 100.942C138.532 101.063 138.567 101.202 138.878 101.599C139.085 101.876 139.275 102.135 139.31 102.17C139.327 102.204 139.466 102.135 139.604 102.032C139.829 101.841 139.829 101.755 139.5 101.305C139.085 100.769 139.033 100.735 138.705 100.942Z" fill="black"/>
<path d="M113.858 102.222C113.806 102.446 113.772 103.138 113.806 103.743C113.858 104.815 113.876 104.867 114.291 104.867C114.723 104.867 114.723 104.85 114.723 103.397C114.723 102.014 114.706 101.928 114.342 101.876C114.066 101.841 113.927 101.928 113.858 102.222Z" fill="black"/>
<path d="M140.417 103.121C140.226 103.346 140.261 103.467 140.607 103.882C141.333 104.746 141.748 104.227 141.039 103.328C140.693 102.896 140.624 102.879 140.417 103.121Z" fill="black"/>
<path d="M156.652 103.761C156.652 104.331 156.704 104.452 156.964 104.4C157.171 104.366 157.275 104.158 157.309 103.691C157.361 103.138 157.309 103.052 157.015 103.052C156.704 103.052 156.652 103.155 156.652 103.761Z" fill="black"/>
<path d="M108.585 104.227C108.585 104.694 110.193 106.199 110.539 106.06C111.023 105.887 110.867 105.42 110.089 104.642C109.311 103.882 108.585 103.674 108.585 104.227Z" fill="black"/>
<path d="M118.63 104.66C117.887 105.438 117.731 106.077 118.302 106.077C118.717 106.077 120.204 104.625 120.135 104.279C120.031 103.726 119.409 103.882 118.63 104.66Z" fill="black"/>
<path d="M113.218 105.369C110.815 106.026 109.38 108.637 110.21 110.832C110.348 111.161 110.729 112.164 111.057 113.063C111.731 114.809 112.164 115.414 113.028 115.778C113.772 116.089 115.051 116.089 115.674 115.76C116.244 115.466 116.953 114.585 117.143 113.945C117.213 113.703 117.541 112.89 117.887 112.129C118.423 110.954 118.509 110.556 118.509 109.449C118.527 107.997 118.25 107.323 117.334 106.475C116.158 105.386 114.654 104.971 113.218 105.369ZM115.466 106.389C117.368 107.08 118.094 109.276 117.126 111.351C116.884 111.87 116.521 112.717 116.348 113.236C115.95 114.377 115.639 114.74 114.878 114.982C114.187 115.207 113.305 114.982 112.838 114.481C112.389 113.997 111.005 110.158 111.005 109.432C111.005 107.201 113.322 105.628 115.466 106.389Z" fill="black"/>
<path d="M142.025 105.369C141.904 105.663 142.457 106.493 142.768 106.51C143.166 106.51 143.183 106.164 142.82 105.645C142.422 105.075 142.163 104.988 142.025 105.369Z" fill="black"/>
<path d="M156.652 106.527C156.652 107.098 156.704 107.219 156.964 107.167C157.171 107.132 157.275 106.925 157.309 106.458C157.361 105.905 157.309 105.818 157.015 105.818C156.704 105.818 156.652 105.922 156.652 106.527Z" fill="black"/>
<path d="M143.754 107.616C143.702 107.755 143.806 108.066 143.978 108.308C144.324 108.809 144.359 108.809 144.722 108.585C144.947 108.446 144.929 108.36 144.618 107.962C144.186 107.374 143.892 107.253 143.754 107.616Z" fill="black"/>
<path d="M156.652 109.276C156.652 109.985 157.015 110.262 157.24 109.691C157.465 109.103 157.361 108.585 156.998 108.585C156.704 108.585 156.652 108.706 156.652 109.276Z" fill="black"/>
<path d="M107.236 109.086C107.098 109.173 107.028 109.38 107.063 109.553C107.115 109.83 107.288 109.881 108.325 109.881C109.363 109.881 109.536 109.83 109.587 109.553C109.674 109.103 109.328 108.93 108.325 108.93C107.858 108.93 107.357 109 107.236 109.086Z" fill="black"/>
<path d="M119.167 109.086C119.028 109.172 118.959 109.38 118.994 109.553C119.046 109.83 119.236 109.881 120.221 109.933C121.19 109.968 121.397 109.933 121.501 109.691C121.57 109.501 121.484 109.311 121.293 109.172C120.93 108.913 119.53 108.844 119.167 109.086Z" fill="black"/>
<path d="M145.344 109.76C145.293 109.847 145.431 110.124 145.656 110.4C145.932 110.746 146.14 110.85 146.347 110.781C146.624 110.677 146.624 110.625 146.278 110.141C145.915 109.639 145.517 109.484 145.344 109.76Z" fill="black"/>
<path d="M156.514 111.991C156.549 112.458 156.652 112.665 156.877 112.7C157.119 112.752 157.171 112.631 157.171 112.06C157.171 111.455 157.119 111.351 156.808 111.351C156.514 111.351 156.462 111.438 156.514 111.991Z" fill="black"/>
<path d="M147.143 111.87C146.918 112.008 146.935 112.095 147.246 112.51C147.627 113.011 148.024 113.132 148.128 112.803C148.163 112.682 148.024 112.389 147.8 112.146C147.506 111.818 147.333 111.749 147.143 111.87Z" fill="black"/>
<path d="M124.613 113.028C124.354 113.288 124.527 113.582 125.028 113.755C125.322 113.858 125.633 113.893 125.72 113.841C126.048 113.651 125.858 113.288 125.339 113.098C124.682 112.873 124.751 112.873 124.613 113.028Z" fill="black"/>
<path d="M127.189 114.048C127.051 114.429 127.172 114.567 127.777 114.792C128.21 114.93 128.331 114.913 128.417 114.705C128.521 114.412 128.4 114.256 127.743 113.979C127.362 113.824 127.276 113.841 127.189 114.048Z" fill="black"/>
<path d="M148.785 114.1C148.543 114.515 149.339 115.397 149.736 115.155C149.944 115.017 149.926 114.93 149.632 114.533C149.235 113.979 148.958 113.841 148.785 114.1Z" fill="black"/>
<path d="M156.549 114.36C156.376 114.792 156.549 115.414 156.877 115.466C157.119 115.518 157.171 115.397 157.171 114.827C157.171 114.308 157.102 114.118 156.912 114.118C156.756 114.118 156.601 114.221 156.549 114.36Z" fill="black"/>
<path d="M129.766 114.948C129.558 115.155 129.714 115.466 130.111 115.639C130.751 115.933 131.062 115.899 131.062 115.535C131.062 115.242 129.973 114.757 129.766 114.948Z" fill="black"/>
<path d="M132.394 115.968C132.134 116.227 132.307 116.521 132.809 116.694C133.103 116.798 133.414 116.832 133.5 116.78C133.829 116.59 133.639 116.227 133.12 116.037C132.463 115.812 132.532 115.812 132.394 115.968Z" fill="black"/>
<path d="M106.683 122.849C106.683 129.541 106.683 129.558 107.029 129.247C107.357 128.953 107.374 128.711 107.374 122.849C107.374 116.988 107.357 116.746 107.029 116.452C106.683 116.141 106.683 116.158 106.683 122.849Z" fill="black"/>
<path d="M150.549 116.314C150.359 116.487 150.411 116.642 150.791 117.126C151.085 117.489 151.206 117.541 151.396 117.386C151.604 117.23 151.569 117.109 151.275 116.694C150.912 116.193 150.756 116.106 150.549 116.314Z" fill="black"/>
<path d="M134.97 116.832C134.676 117.126 134.918 117.524 135.454 117.697C135.956 117.852 136.077 117.835 136.163 117.61C136.267 117.316 136.302 117.351 135.627 117.005C135.333 116.849 135.039 116.78 134.97 116.832Z" fill="black"/>
<path d="M137.46 118.095C137.321 118.371 137.373 118.44 137.909 118.613C138.324 118.752 138.584 118.769 138.705 118.648C138.947 118.406 138.757 118.164 138.151 117.956C137.719 117.801 137.615 117.818 137.46 118.095Z" fill="black"/>
<path d="M140.053 119.115C140.053 119.461 140.987 119.91 141.281 119.72C141.61 119.53 141.419 119.167 140.901 118.976C140.157 118.717 140.053 118.734 140.053 119.115Z" fill="black"/>
<path d="M111.87 120.083C111.87 120.567 111.939 120.688 112.216 120.688C112.492 120.688 112.561 120.567 112.561 120.083C112.561 119.599 112.492 119.478 112.216 119.478C111.939 119.478 111.87 119.599 111.87 120.083Z" fill="black"/>
<path d="M142.647 120.083C142.647 120.446 143.719 120.913 143.892 120.636C144.099 120.308 144.065 120.238 143.598 120.031C142.993 119.754 142.647 119.772 142.647 120.083Z" fill="black"/>
<path d="M145.241 121.034C145.102 121.311 145.154 121.38 145.69 121.553C146.105 121.691 146.365 121.708 146.486 121.587C146.728 121.345 146.538 121.103 145.932 120.896C145.5 120.74 145.396 120.757 145.241 121.034Z" fill="black"/>
<path d="M147.765 122.002C147.627 122.365 148.855 122.901 149.062 122.555C149.287 122.21 149.252 122.158 148.647 121.933C147.921 121.674 147.886 121.674 147.765 122.002Z" fill="black"/>
<path d="M111.87 122.763C111.87 123.334 111.922 123.455 112.216 123.455C112.51 123.455 112.561 123.334 112.561 122.763C112.561 122.192 112.51 122.071 112.216 122.071C111.922 122.071 111.87 122.192 111.87 122.763Z" fill="black"/>
<path d="M150.359 123.022C150.22 123.385 151.465 123.921 151.673 123.593C151.88 123.247 151.846 123.178 151.379 122.97C150.774 122.694 150.48 122.711 150.359 123.022Z" fill="black"/>
<path d="M112.043 125.512C112.043 126.117 112.095 126.221 112.406 126.221C112.7 126.221 112.752 126.135 112.7 125.581C112.665 125.115 112.561 124.907 112.354 124.872C112.095 124.821 112.043 124.942 112.043 125.512Z" fill="black"/>
<path d="M149.183 126.256C148.733 126.411 148.543 126.809 148.837 126.965C148.906 126.999 149.218 126.965 149.529 126.878C149.909 126.774 150.082 126.619 150.082 126.394C150.082 126.014 149.892 125.979 149.183 126.256Z" fill="black"/>
<path d="M146.537 126.965C146.157 127.103 146.019 127.258 146.071 127.483C146.105 127.691 146.226 127.76 146.399 127.708C146.537 127.656 146.849 127.552 147.073 127.501C147.54 127.38 147.523 127.397 147.385 127.016C147.264 126.705 147.229 126.705 146.537 126.965Z" fill="black"/>
<path d="M143.65 127.725C143.321 127.812 143.235 128.21 143.477 128.365C143.754 128.538 144.636 128.192 144.687 127.898C144.739 127.604 144.359 127.535 143.65 127.725Z" fill="black"/>
<path d="M141.177 128.417C140.693 128.538 140.555 128.694 140.728 128.953C140.918 129.282 142.025 128.97 142.094 128.59C142.163 128.296 141.904 128.244 141.177 128.417Z" fill="black"/>
<path d="M138.376 129.16C137.615 129.472 137.961 129.921 138.826 129.748C139.189 129.662 139.362 129.541 139.362 129.316C139.362 128.953 139.016 128.901 138.376 129.16Z" fill="black"/>
<path d="M112.821 129.281C112.216 129.42 111.524 130.232 111.42 130.907C111.317 131.529 111.282 131.546 110.763 131.46C110.037 131.339 109.536 131.788 109.795 132.29C109.933 132.532 110.158 132.618 110.66 132.618C111.23 132.618 111.351 132.67 111.351 132.964C111.351 133.258 111.23 133.31 110.677 133.31C109.328 133.31 109.276 134.382 110.642 134.486C111.196 134.538 111.351 134.607 111.351 134.866C111.351 135.126 111.196 135.195 110.642 135.247C109.726 135.316 109.346 135.783 109.882 136.18C110.072 136.319 110.4 136.405 110.625 136.37C111.075 136.284 111.127 136.457 110.729 136.785C109.933 137.442 109.64 139.448 110.176 140.486C110.988 142.024 112.735 142.768 114.291 142.215C115.76 141.696 116.59 140.555 116.59 139.016C116.59 137.978 116.296 137.252 115.605 136.595L115.138 136.18L115.173 133.379C115.173 131.616 115.121 130.44 114.982 130.215C114.637 129.558 113.599 129.108 112.821 129.281ZM113.789 130.544C114.101 130.716 114.118 130.941 114.118 133.829C114.118 136.785 114.135 136.941 114.481 137.114C115.38 137.598 115.76 139.068 115.242 140.071C114.17 142.111 111.006 141.298 111.006 138.981C111.006 138.342 111.524 137.391 112.008 137.131C112.302 136.976 112.354 136.647 112.458 133.898C112.596 130.371 112.735 129.99 113.789 130.544Z" fill="black"/>
<path d="M135.783 129.852C135.558 129.938 135.385 130.146 135.385 130.302C135.385 130.544 135.506 130.578 136.007 130.492C136.751 130.371 136.837 130.302 136.716 129.938C136.595 129.645 136.353 129.627 135.783 129.852Z" fill="black"/>
<path d="M133.189 130.561C132.601 130.734 132.532 130.838 132.757 131.201C132.878 131.374 133.034 131.374 133.5 131.218C134.244 130.959 134.209 130.993 134.071 130.647C133.95 130.336 133.967 130.336 133.189 130.561Z" fill="black"/>
<path d="M117.109 130.89C116.469 131.27 116.02 132.048 116.02 132.757C116.02 133.362 116.659 134.348 117.23 134.642C118.613 135.351 120.342 134.279 120.342 132.705C120.342 131.045 118.527 130.025 117.109 130.89ZM119.063 132.204C119.391 132.688 119.253 133.224 118.7 133.587C118.336 133.812 118.215 133.829 117.8 133.622C117.42 133.449 117.299 133.258 117.264 132.757C117.213 132.221 117.282 132.083 117.679 131.875C118.267 131.564 118.734 131.685 119.063 132.204Z" fill="black"/>
<path d="M130.595 131.27C130.077 131.408 129.835 131.806 130.163 131.979C130.405 132.117 131.408 131.737 131.408 131.495C131.408 131.149 131.218 131.097 130.595 131.27Z" fill="black"/>
<path d="M128.002 131.996C127.449 132.186 127.345 132.29 127.466 132.618C127.518 132.809 128.815 132.515 128.815 132.307C128.797 131.91 128.538 131.806 128.002 131.996Z" fill="black"/>
<path d="M124.976 132.739C124.803 132.774 124.665 132.964 124.665 133.172C124.665 133.466 124.734 133.5 125.235 133.397C125.944 133.241 126.048 133.172 126.048 132.861C126.048 132.618 125.616 132.567 124.976 132.739Z" fill="black"/>
<path d="M148.024 134.036C147.679 134.451 147.644 134.572 147.852 134.711C148.215 134.936 148.249 134.918 148.647 134.365C148.924 134.002 148.975 133.829 148.82 133.673C148.56 133.414 148.491 133.431 148.024 134.036Z" fill="black"/>
<path d="M146.33 136.232C146.053 136.595 146.001 136.768 146.157 136.924C146.451 137.218 146.572 137.166 146.987 136.578C147.298 136.129 147.315 136.008 147.125 135.887C146.762 135.662 146.728 135.679 146.33 136.232Z" fill="black"/>
<path d="M144.739 138.342C144.393 138.809 144.376 138.912 144.601 139.137C144.826 139.362 144.895 139.327 145.241 138.843C145.587 138.376 145.604 138.255 145.379 138.048C145.172 137.84 145.085 137.875 144.739 138.342Z" fill="black"/>
<path d="M143.01 140.589C142.63 141.108 142.647 141.437 143.062 141.437C143.304 141.437 143.857 140.728 143.857 140.416C143.857 140.019 143.356 140.123 143.01 140.589Z" fill="black"/>
<path d="M141.298 142.803C140.987 143.235 140.97 143.339 141.177 143.512C141.385 143.685 141.506 143.615 141.852 143.218C142.146 142.872 142.215 142.682 142.094 142.509C141.834 142.198 141.713 142.249 141.298 142.803Z" fill="black"/>
<path d="M139.569 145.05C139.241 145.5 139.223 145.586 139.466 145.777C139.69 145.967 139.794 145.915 140.14 145.483C140.365 145.206 140.538 144.895 140.503 144.808C140.399 144.445 139.932 144.566 139.569 145.05Z" fill="black"/>
<path d="M118.873 145.932C118.7 146.209 119.443 147.143 119.737 147.022C120.066 146.901 120.066 146.866 119.703 146.261C119.391 145.759 119.063 145.621 118.873 145.932Z" fill="black"/>
<path d="M137.979 147.143C137.685 147.558 137.633 147.73 137.788 147.886C137.927 148.024 138.1 147.955 138.445 147.609C138.878 147.177 138.895 147.125 138.636 146.866C138.394 146.624 138.342 146.641 137.979 147.143Z" fill="black"/>
<path d="M120.429 148.18C120.308 148.387 120.965 149.39 121.224 149.39C121.553 149.39 121.57 148.889 121.259 148.457C120.93 147.99 120.602 147.886 120.429 148.18Z" fill="black"/>
<path d="M136.509 149.027C136.37 149.287 136.561 149.563 136.872 149.563C137.027 149.563 137.114 149.442 137.079 149.269C137.01 148.924 136.664 148.785 136.509 149.027Z" fill="black"/>
<path d="M122.158 150.428C122.002 150.67 122.763 151.621 123.04 151.517C123.385 151.396 123.333 151.068 122.936 150.635C122.538 150.22 122.331 150.168 122.158 150.428Z" fill="black"/>
<path d="M127.172 150.929C126.048 151.621 125.962 151.828 125.962 153.955C125.962 155.753 125.979 155.874 126.307 155.874C126.619 155.874 126.653 155.736 126.74 154.197C126.809 152.745 126.878 152.468 127.241 152.088C127.794 151.5 128.624 151.361 129.299 151.707C130.042 152.088 130.198 152.468 130.198 153.782C130.198 154.975 130.198 154.992 129.299 154.923C129.057 154.906 128.607 155.027 128.313 155.183L127.777 155.459V158.9C127.777 162.255 127.794 162.341 128.158 162.6C128.469 162.825 129.126 162.877 131.633 162.877C135.748 162.877 135.471 163.154 135.541 158.969C135.593 154.975 135.679 155.114 133.137 155.01L131.322 154.923L131.235 153.575C131.132 152.088 130.734 151.327 129.852 150.86C129.16 150.497 127.812 150.532 127.172 150.929ZM134.52 158.9V161.84H131.581H128.642V159.021C128.642 157.465 128.694 156.134 128.763 156.082C128.815 156.013 130.146 155.961 131.702 155.961H134.52V158.9Z" fill="black"/>
<path d="M131.097 157.724C130.855 157.966 130.82 158.762 131.045 158.987C131.132 159.09 131.235 159.436 131.27 159.765C131.305 160.18 131.426 160.387 131.633 160.422C131.875 160.474 131.927 160.352 131.927 159.799C131.927 159.401 132.031 159.021 132.186 158.9C132.515 158.623 132.515 158.139 132.169 157.793C131.858 157.465 131.391 157.43 131.097 157.724Z" fill="black"/>
</svg>
