<svg width="319" height="297" viewBox="0 0 319 297" fill="none" xmlns="http://www.w3.org/2000/svg">
<path d="M271.69 0.124542C266.701 0.673485 261.412 2.15562 256.663 4.24158C252.516 6.05308 250.592 7.37053 246.144 11.4876C241.756 15.4948 240.193 17.3612 238.15 21.1489C234.964 27.0774 233.702 32.1276 233.641 38.7149C233.641 48.8703 237.188 57.1592 245.002 65.064C252.275 72.5295 254.74 76.2074 257.505 84.0023C258.346 86.3628 259.849 89.2721 260.871 90.37L262.614 92.4011L261.291 94.5968C260.089 96.6828 260.029 96.9024 260.991 98.659C261.772 100.251 261.832 100.69 261.111 101.568C259.789 103.215 260.089 104.917 262.193 107.058C263.215 108.156 264.477 109.857 265.018 110.791C266.521 113.48 269.827 114.743 275.597 114.743C278.242 114.743 281.127 114.578 282.029 114.359C284.133 113.81 287.318 111.339 287.318 110.242C287.318 109.748 288.28 108.43 289.422 107.277C291.646 104.972 292.067 103.325 290.684 101.513C289.963 100.58 289.963 100.306 290.684 99.3726C291.887 97.8905 291.706 95.6398 290.264 93.9381L289.001 92.456L290.504 90.9738C292.427 89.0526 292.848 88.2292 294.832 82.9044C296.996 76.8661 299.761 72.5844 304.509 67.7537C311.722 60.4529 314.367 56.4456 316.832 49.1447C317.913 45.906 318.214 43.7103 318.214 38.9894C318.214 31.7434 317.192 27.7361 313.646 21.1489C311.602 17.3612 310.099 15.5497 305.711 11.4876C301.203 7.37053 299.34 6.10797 295.132 4.24158C292.307 3.03392 288.4 1.66157 286.417 1.16753C282.389 0.289223 274.936 -0.259712 271.69 0.124542ZM281.127 0.893059C300.362 3.30839 314.728 16.3731 317.433 33.9391C319.116 45.0826 315.148 56.1712 306.252 65.0091C299.16 72.0355 296.395 76.2623 293.93 83.673C292.307 88.4487 289.783 91.6326 285.816 93.8832C282.99 95.4751 282.63 95.53 275.898 95.53C269.166 95.53 268.805 95.4751 265.98 93.8832C262.073 91.6875 260.089 88.9977 257.685 82.5751C255.16 75.9878 252.395 71.8159 246.925 66.3265C237.729 57.1043 234.243 49.4192 234.243 38.4404C234.303 19.7765 249.751 3.63775 270.187 0.893059C275.297 0.234329 275.898 0.234329 281.127 0.893059ZM288.821 99.0981C288.22 99.9764 280.766 101.843 275.597 102.447C270.608 103.05 262.674 102.611 262.674 101.788C262.674 101.568 264.898 101.513 267.663 101.678C272.952 102.008 281.848 100.855 285.575 99.4275C287.979 98.4394 289.362 98.3296 288.821 99.0981ZM284.674 107.058C282.089 108.869 269.166 110.296 267.002 109.034C266.461 108.759 268.745 108.485 272.712 108.265C276.379 108.156 280.225 107.662 281.608 107.168C284.794 106.015 286.236 106.015 284.674 107.058Z" fill="black"/>
<path d="M279.504 6.87667C277.881 8.3588 278.001 9.95072 279.805 11.5426C282.87 14.3971 286.837 12.2563 285.455 8.57838C284.373 5.7239 281.608 4.95538 279.504 6.87667ZM283.832 7.26093C285.154 8.68817 285.395 9.73115 284.854 11.1035C284.193 12.7503 282.149 12.7503 280.286 11.1584C278.663 9.78604 278.542 8.4137 279.865 7.20603C281.067 6.05326 282.69 6.10816 283.832 7.26093Z" fill="black"/>
<path d="M256.843 12.4213C247.106 18.1852 241.636 27.4622 241.636 38.1665C241.636 45.5223 244.401 52.7683 248.909 57.4343C251.133 59.6849 250.592 58.6968 247.526 54.6347C246.204 52.933 244.521 49.6942 243.619 47.0593C242.237 43.0521 242.117 41.8993 242.417 36.904C242.597 33.2261 243.138 30.2069 243.98 28.0112C246.384 21.8631 252.034 15.5503 257.805 12.5311C261.171 10.7745 261.111 10.7745 260.81 10.4451C260.63 10.3354 258.827 11.2137 256.843 12.4213Z" fill="black"/>
<path d="M288.761 10.939C286.897 11.7075 286.116 12.7505 286.116 14.3973C286.116 14.8364 288.099 17.142 290.564 19.4475C295.673 24.2233 298.919 28.7795 299.941 32.6769C301.864 39.9778 306.973 37.0135 306.432 28.8893C305.952 21.2041 298.979 12.4211 291.826 10.5547C291.165 10.39 289.782 10.5547 288.761 10.939ZM294.952 12.476C297.837 14.0679 302.105 18.6241 303.968 22.1373C305.351 24.7722 305.591 25.9799 305.651 29.7127C305.651 33.3357 305.411 34.4335 304.569 35.3118C302.946 36.9038 301.924 36.2999 300.782 33.0612C299.099 28.1756 295.673 23.2352 291.465 19.5024C287.138 15.6049 286.176 13.9032 287.378 12.5309C289.241 10.5547 291.465 10.4998 294.952 12.476Z" fill="black"/>
<path d="M252.455 20.9847C241.876 31.9085 242.297 47.0043 253.417 57.1597C254.86 58.4772 256.302 59.575 256.603 59.575C256.903 59.575 255.701 58.3125 253.898 56.7205C249.871 53.2622 246.685 47.6631 245.723 42.3933C244.401 35.1473 247.286 27.0779 253.117 21.4238C254.86 19.777 255.942 18.4046 255.581 18.4046C255.22 18.4046 253.838 19.5574 252.455 20.9847Z" fill="black"/>
<path d="M274.335 22.357C273.974 22.851 261.532 52.878 261.472 53.2622C261.472 53.3171 264.657 52.9329 268.564 52.4388C272.411 51.9448 275.777 51.6703 275.958 51.835C276.138 51.9997 275.838 56.995 275.237 62.8686C273.974 75.8785 273.854 78.9525 274.756 78.6781C275.477 78.4585 289.903 45.7967 289.422 45.4124C289.302 45.3026 285.936 45.4673 281.909 45.8516C277.881 46.2358 274.515 46.4005 274.335 46.2358C274.155 46.0711 274.395 40.6915 274.876 34.269C275.717 23.2902 275.537 20.5455 274.335 22.357Z" fill="black"/>
<path d="M304.689 51.9995C302.285 56.3361 296.034 62.3195 291.766 64.3506C289.963 65.174 288.52 66.1072 288.52 66.3267C288.52 67.1502 294.531 63.7467 297.777 61.1118C301.203 58.3671 304.569 54.1403 306.132 50.6271C307.635 47.4433 306.793 48.2118 304.689 51.9995Z" fill="black"/>
<path d="M120.217 17.8557C119.555 18.4595 119.014 19.4476 119.014 20.0514C119.014 21.5336 121.118 23.3451 122.801 23.3451C125.807 23.3451 127.369 19.5025 125.145 17.691C123.643 16.4284 121.659 16.5382 120.217 17.8557ZM124.905 17.9655C126.047 19.0084 125.807 21.5885 124.484 22.2472C122.621 23.1255 121.539 22.9059 120.457 21.4238C119.555 20.1612 119.555 19.9416 120.457 18.6791C121.539 17.197 123.703 16.8676 124.905 17.9655Z" fill="black"/>
<path d="M153.998 17.6907C152.916 18.4043 152.315 18.4592 151.113 17.9103C149.009 17.032 147.566 17.1418 146.604 18.2397C145.943 19.0631 145.943 19.118 146.665 18.5141C147.145 18.1848 147.987 17.8554 148.588 17.8554C149.189 17.8554 150.211 18.1848 150.872 18.5141C151.894 19.118 152.435 19.0631 153.938 18.2397C156.522 16.9222 157.424 17.032 159.648 19.2277C160.67 20.2707 161.812 21.149 162.112 21.149C162.473 21.149 163.916 20.4354 165.358 19.5022C166.801 18.6239 168.304 17.8554 168.664 17.8554C169.025 17.8554 170.107 18.7337 171.129 19.7767C172.151 20.8197 173.473 21.698 174.014 21.698C175.096 21.698 178.762 18.4592 178.221 17.9652C178.041 17.8005 177.5 18.1848 176.959 18.8435C176.478 19.5022 175.517 20.3256 174.795 20.655C173.713 21.2039 173.293 20.9843 171.549 19.2826C170.468 18.1848 169.205 17.3065 168.784 17.3065C168.364 17.3065 166.801 18.075 165.358 18.9533C163.916 19.8865 162.473 20.6001 162.233 20.6001C161.632 20.6001 160.009 19.118 159.287 17.8005C158.506 16.5379 155.921 16.4831 153.998 17.6907Z" fill="black"/>
<path d="M74.1737 26.2543C51.4527 36.9586 32.8792 51.9446 19.2947 70.5536C15.1473 76.2077 11.3003 82.1362 11.6009 82.4107C11.7211 82.5204 13.4642 80.0502 15.5079 76.9213C28.852 56.2263 50.3708 38.0015 75.1354 26.4738C79.5835 24.3879 83.3703 22.5764 83.4905 22.4666C84.4523 21.6432 81.5069 22.796 74.1737 26.2543Z" fill="black"/>
<path d="M106.091 24.7172C73.1519 32.6768 44.7807 52.219 27.6498 78.7328C26.6881 80.2698 26.087 81.5323 26.3875 81.5323C26.628 81.5323 27.169 80.8736 27.5897 80.0502C29.2126 76.8664 36.4858 67.5344 41.7753 61.8804C58.1248 44.479 82.2884 30.7007 105.49 25.4857C108.496 24.827 111.14 24.0585 111.501 23.8389C112.222 23.2351 112.403 23.1802 106.091 24.7172Z" fill="black"/>
<path d="M76.4578 42.0636C75.3157 42.9968 74.5944 43.8751 74.7747 44.0398C75.2556 44.4789 80.6654 45.3572 81.026 45.0278C81.4468 44.6436 79.7036 40.7461 79.0424 40.5814C78.6818 40.4717 77.5397 41.1304 76.4578 42.0636ZM80.1845 43.4908C80.6053 44.5887 80.485 44.6985 78.3211 44.3691C75.2556 43.93 75.1354 43.7653 77.2392 42.2283C79.1025 40.9108 79.343 41.0206 80.1845 43.4908Z" fill="black"/>
<path d="M146.965 49.3648L127.73 52.8231L111.501 59.9593C102.605 63.9116 82.5889 72.7496 67.0209 79.6113C51.4528 86.473 38.4093 92.3466 37.9885 92.7309C37.3874 93.2249 37.8082 93.7739 39.9721 95.1462C42.8573 96.9577 44.901 97.342 47.0048 96.299C47.9665 95.805 48.3873 95.8599 48.7479 96.4088C49.0485 96.8479 49.2889 103.106 49.2889 110.352V123.526L24.6444 138.348C11.1201 146.472 0 153.334 0 153.498C0 153.663 1.08195 154.267 2.34423 154.816C4.68846 155.749 4.74856 155.749 6.79225 154.596L8.83593 153.443L9.19659 164.587C9.43702 170.68 9.61734 181.22 9.61734 188.027V200.378L7.57366 205.318C3.24585 215.638 2.46444 226.397 5.40976 234.961C9.43702 246.708 20.6172 256.644 36.3656 262.298C49.5293 267.074 63.234 268.94 81.7474 268.556C95.7527 268.227 102.485 267.458 123.823 263.78C150.091 259.224 165.659 257.467 176.418 257.852L181.227 258.016V260.212C181.227 262.298 181.347 262.463 183.391 262.902C185.434 263.341 185.615 263.561 185.975 265.811C186.637 270.532 190.604 275.088 195.052 276.406C196.013 276.68 202.806 277.943 210.079 279.15C217.352 280.358 224.024 281.621 224.986 281.895C227.33 282.609 230.155 281.566 230.576 279.864C230.936 278.547 231.057 278.492 234.363 278.931C236.226 279.205 239.231 279.37 241.035 279.425C244.04 279.425 244.341 279.315 244.521 278.217C244.761 276.625 243.679 276.241 236.647 275.308C233.16 274.869 231.417 274.43 231.598 273.99C231.718 273.661 232.319 270.971 232.92 268.062C233.461 265.098 234.122 262.682 234.363 262.682C234.543 262.682 237.188 263.066 240.133 263.451C245.843 264.219 247.046 264 247.046 262.078C247.046 260.651 246.324 260.432 240.494 259.718L235.324 259.059L235.445 256.479C235.565 254.393 235.384 253.844 234.423 253.35C233.762 253.021 226.549 251.264 218.374 249.453C204.549 246.324 203.227 246.159 200.341 246.653C197.156 247.257 191.746 250.057 189.702 252.143C188.8 253.131 188.139 253.24 185.855 252.966C182.91 252.582 181.527 253.515 181.527 255.82C181.527 256.973 181.287 257.028 171.189 257.358C159.708 257.687 150.511 258.675 136.446 261.035C131.337 261.914 122.02 263.506 115.709 264.549C87.8184 269.215 67.4416 269.434 48.3272 265.207C33.6607 261.914 23.8029 257.083 15.2074 248.794C3.72672 237.76 1.26228 223.049 7.93431 205.977C8.5955 204.275 9.37691 202.848 9.61734 202.848C9.91789 202.848 10.2184 210.917 10.3386 220.743L10.519 238.639L12.5025 240.231L14.426 241.823L37.4475 241.768C50.0703 241.713 66.9007 241.493 74.835 241.274L89.261 240.889L71.9498 240.944C56.1412 240.999 54.5183 240.889 53.8571 240.066C53.0156 238.968 52.8954 235.839 51.3326 170.735C49.349 86.1437 49.4091 95.7501 50.7916 94.9267C51.4528 94.5424 69.0646 87.5709 89.9823 79.3917L127.911 64.5155L165.418 80.3798L202.866 96.299L202.806 120.617C202.806 134.011 202.866 140.049 202.986 134.066C203.106 128.137 203.407 123.252 203.707 123.252C203.948 123.252 206.593 124.295 209.538 125.612C212.483 126.93 228.773 133.901 245.663 141.147L276.499 154.267L276.619 183.91L276.799 213.552L276.919 184.294C277.1 158.604 277.22 155.09 278.001 155.09C278.542 155.09 282.81 152.895 287.498 150.26C292.187 147.57 296.395 145.209 296.815 144.99C297.356 144.66 297.537 153.718 297.537 189.399V234.247L295.793 235.839L294.05 237.431H285.274H276.499L276.318 227.385L276.198 217.395L276.018 227.66L275.898 237.98H239.532H203.166L203.046 209.819L202.866 181.714L202.565 209.819C202.265 235.839 202.205 238.035 201.183 238.913C200.221 239.791 198.238 239.956 180.746 240.231L161.391 240.56L180.686 240.505C197.697 240.45 200.161 240.34 201.123 239.572C202.145 238.749 206.713 238.639 247.947 238.419C298.078 238.145 295.733 238.309 297.416 234.906C297.957 233.918 298.138 221.457 298.138 188.85V144.221L301.203 142.52C303.067 141.422 304.148 140.489 304.028 139.94C303.908 139.391 291.285 133.846 269.887 124.899C242.537 113.536 235.685 110.846 234.603 111.23L233.221 111.724V99.7024V87.6807L239.231 85.0458C244.04 82.9598 245.242 82.1913 245.122 81.4228C244.882 79.8858 171.008 45.8516 168.183 45.9065C167.101 45.9614 157.544 47.4984 146.965 49.3648ZM174.915 51.835L179.424 53.9759L177.019 54.5797C175.697 54.9091 174.254 55.1835 173.833 55.1835C172.752 55.1835 164.577 51.2861 164.937 50.9567C165.238 50.6822 168.724 49.8039 169.806 49.8039C170.167 49.749 172.451 50.6822 174.915 51.835ZM168.243 53.4818L172.691 55.5678L168.784 56.501L164.877 57.4891L161.631 56.0069C159.828 55.1835 157.724 54.0856 156.943 53.5916L155.5 52.7682L158.145 52.1095C162.293 51.0665 163.495 51.2312 168.243 53.4818ZM158.746 55.2384C161.451 56.4461 163.495 57.544 163.315 57.7086C163.194 57.8733 161.331 58.4223 159.227 58.9712L155.38 59.9044L150.451 57.7086C147.686 56.501 145.462 55.2933 145.462 55.1286C145.462 54.7993 150.932 53.372 153.457 53.0427C153.697 53.0427 156.102 53.9759 158.746 55.2384ZM174.254 73.0789C197.937 83.8381 216.991 92.7309 216.571 92.8956C215.909 93.1152 130.435 54.3601 130.435 53.8112C130.435 53.6465 130.616 53.5367 130.796 53.5367C131.036 53.5367 150.572 62.3197 174.254 73.0789ZM188.139 57.9831C188.139 58.2027 186.937 58.6418 185.495 59.0261C183.03 59.6299 182.73 59.575 178.762 57.7635C176.178 56.5559 174.976 55.7325 175.517 55.5678C179.784 54.2503 179.965 54.2503 184.052 55.952C186.276 56.8852 188.079 57.8184 188.139 57.9831ZM182.008 59.8495C182.128 59.9593 180.506 60.5082 178.462 61.1669L174.735 62.3197L170.648 60.3435C168.364 59.2457 166.5 58.2027 166.5 57.9831C166.5 57.7635 168.063 57.2146 169.987 56.7754L173.413 55.952L177.62 57.8184C179.965 58.8614 181.888 59.7946 182.008 59.8495ZM169.506 60.3435L173.954 62.4295L170.167 63.747L166.44 65.0644L161.211 62.6491L155.981 60.2337L158.686 59.6299C160.189 59.2457 162.052 58.7516 162.894 58.4772C164.697 57.9282 163.976 57.7635 169.506 60.3435ZM193.669 60.1789C195.893 61.1669 197.757 62.1001 197.757 62.3197C197.757 62.5393 196.675 63.0333 195.352 63.4176C193.008 64.1312 192.708 64.0763 188.74 62.3197C186.396 61.2767 184.533 60.2886 184.533 60.124C184.533 59.7397 187.658 58.6418 188.981 58.532C189.281 58.4772 191.385 59.2457 193.669 60.1789ZM191.746 64.5155C191.746 64.9546 185.675 66.9857 184.713 66.9308C184.352 66.8759 182.189 65.8878 179.965 64.7899L175.877 62.704L179.484 61.4963L183.03 60.3435L187.418 62.2648C189.762 63.3627 191.746 64.3508 191.746 64.5155ZM179.604 65.2291C181.948 66.327 183.932 67.3699 183.932 67.4797C183.932 67.5895 182.309 68.1934 180.385 68.907L176.839 70.1147L172.271 67.8091C169.686 66.5466 167.763 65.3938 167.883 65.284C168.243 64.9546 174.555 62.9235 174.915 63.0333C175.096 63.0882 177.2 64.0763 179.604 65.2291ZM203.227 64.5155C205.21 65.4487 206.653 66.4368 206.472 66.7112C206.292 66.9857 205.21 67.4797 204.128 67.8091C202.265 68.358 201.664 68.2483 197.937 66.4916L193.85 64.6253L195.953 63.747C198.839 62.5942 199.079 62.6491 203.227 64.5155ZM197.156 66.7112C199.139 67.6444 200.762 68.5776 200.762 68.8521C200.762 69.1266 199.319 69.8951 197.636 70.5538L194.451 71.8164L190.724 69.95C188.68 68.907 186.997 67.864 186.937 67.5895C186.877 67.0406 191.385 65.1742 192.828 65.1193C193.249 65.0644 195.172 65.8329 197.156 66.7112ZM212.784 68.8521L217.232 70.938L214.827 72.0908L212.363 73.2436L208.095 71.2125C205.691 70.1147 203.767 69.0168 203.767 68.8521C203.767 68.5776 207.314 66.7661 207.975 66.7661C208.155 66.7661 210.319 67.6993 212.784 68.8521ZM189.281 69.95L193.729 72.0908L190.664 73.5181L187.538 74.9453L183.03 72.9142C180.566 71.7615 178.522 70.7185 178.522 70.5538C178.522 70.2793 183.511 68.0287 184.533 67.864C184.713 67.8091 186.877 68.7972 189.281 69.95ZM206.893 71.2125C209.117 72.2006 210.92 73.1887 210.92 73.4083C210.98 73.6278 209.598 74.5061 207.855 75.2747L204.729 76.7568L200.341 74.6159C197.937 73.4083 195.953 72.3653 195.953 72.1457C195.953 71.7615 200.882 69.5108 201.964 69.5108C202.445 69.4559 204.669 70.2244 206.893 71.2125ZM226.008 75.0002C226.008 75.1649 224.986 75.7687 223.663 76.2628L221.379 77.2508L217.232 75.3296L213.144 73.4632L215.489 72.3653L217.833 71.2674L221.86 72.9691C224.144 73.9023 225.947 74.8355 226.008 75.0002ZM202.806 76.647C203.106 76.8666 202.084 77.6351 200.522 78.2938L197.757 79.5564L193.489 77.69C191.145 76.647 189.101 75.604 188.981 75.3845C188.8 75.1649 190.003 74.3964 191.565 73.6278L194.451 72.3104L198.358 74.2866C200.522 75.3296 202.505 76.4274 202.806 76.647ZM216.21 75.604C218.314 76.5921 219.997 77.5802 219.997 77.7449C219.997 77.9096 218.434 78.6781 216.571 79.3917L213.144 80.764L209.237 78.8428L205.39 76.9764L208.636 75.4393C210.44 74.6159 212.002 73.9023 212.183 73.8474C212.303 73.8474 214.106 74.6708 216.21 75.604ZM231.357 77.2508C233.701 78.2389 235.625 79.227 235.625 79.4466C235.625 79.9955 232.319 81.5326 231.177 81.5326C230.095 81.5326 222.401 78.1291 222.401 77.69C222.401 77.3606 225.947 75.604 226.729 75.5491C226.969 75.4942 229.073 76.3177 231.357 77.2508ZM209.718 79.776L212.363 81.1483L209.538 82.4658L206.713 83.7832L202.806 81.9717C200.702 80.9836 198.959 80.0504 198.959 79.8858C198.959 79.6662 200.221 79.0623 201.844 78.4036C204.91 77.2508 204.849 77.2508 209.718 79.776ZM225.707 79.9955C227.871 80.9836 229.614 81.9168 229.614 82.0815C229.614 82.3011 228.051 83.1245 226.188 83.9479L222.702 85.43L218.674 83.4538C216.39 82.356 214.587 81.3679 214.587 81.2581C214.587 80.8738 220.177 78.2938 221.019 78.2389C221.439 78.2389 223.543 79.0074 225.707 79.9955ZM215.849 82.6304C217.172 83.2892 219.095 84.2224 220.117 84.8262L221.98 85.8692L219.215 87.0768L216.39 88.3394L212.183 86.473C209.899 85.43 207.975 84.4419 207.975 84.1675C207.975 83.7283 212.062 81.5875 212.964 81.5326C213.204 81.5326 214.527 82.0266 215.849 82.6304ZM232.499 100.032L232.319 111.999L219.396 116.774C212.303 119.354 205.991 121.77 205.39 122.154C204.729 122.483 204.068 122.593 203.828 122.319C203.587 122.099 203.527 116.225 203.647 109.364C203.888 97.9458 203.948 96.8479 204.849 97.2322C207.855 98.4399 209.538 98.0007 220.598 93.1152C226.729 90.4254 231.898 88.1747 232.199 88.1747C232.439 88.1198 232.559 93.4994 232.499 100.032ZM241.756 116.225L247.166 118.531L244.281 119.848L241.395 121.166L236.106 118.805C233.221 117.488 230.816 116.28 230.816 116.116C230.816 115.677 234.483 113.975 235.505 113.975C235.986 113.92 238.751 114.963 241.756 116.225ZM235.324 119.08L240.734 121.44L237.007 123.142L233.221 124.899L227.39 122.209L221.499 119.519L224.805 118.147C226.609 117.378 228.532 116.72 229.013 116.72C229.494 116.72 232.379 117.762 235.324 119.08ZM253.898 121.385C257.084 122.758 259.548 124.075 259.428 124.295C259.248 124.514 258.045 125.173 256.663 125.722L254.259 126.71L248.548 124.295C245.423 122.977 242.898 121.77 242.838 121.55C242.838 121.385 243.98 120.727 245.423 120.123C246.805 119.464 248.007 118.915 248.007 118.915C248.067 118.86 250.712 120.013 253.898 121.385ZM226.308 122.428C229.494 123.746 231.958 125.063 231.778 125.338C231.658 125.557 230.155 126.326 228.532 127.04L225.587 128.302L219.816 125.832C216.631 124.46 213.986 123.197 213.986 122.977C213.986 122.758 218.975 120.397 220.418 120.013C220.478 119.958 223.122 121.056 226.308 122.428ZM251.734 126.161C252.455 126.436 253.056 126.875 253.056 127.04C253.056 127.204 251.614 128.083 249.811 128.906L246.625 130.443L240.494 127.863L234.363 125.283L237.849 123.526L241.335 121.825L245.843 123.691C248.308 124.734 250.953 125.832 251.734 126.161ZM267.302 126.985C270.007 128.083 272.291 129.18 272.291 129.455C272.291 129.674 271.089 130.388 269.586 131.047L266.881 132.254L261.472 129.839C258.466 128.522 256.062 127.259 256.062 127.094C256.062 126.491 260.63 124.46 261.472 124.734C261.952 124.844 264.597 125.887 267.302 126.985ZM239.231 127.973C242.537 129.4 245.242 130.717 245.242 130.882C245.242 131.102 243.86 131.87 242.117 132.639L238.991 134.066L233.1 131.596C229.855 130.223 227.27 128.906 227.33 128.631C227.45 128.412 228.712 127.643 230.215 126.93C231.718 126.161 232.98 125.557 233.04 125.503C233.16 125.503 235.925 126.6 239.231 127.973ZM260.269 129.894C263.215 131.157 265.679 132.364 265.679 132.639C265.679 133.078 260.45 135.877 259.608 135.877C259.368 135.877 256.483 134.725 253.237 133.352L247.346 130.827L250.652 129.29C252.455 128.412 254.138 127.698 254.379 127.643C254.619 127.643 257.264 128.686 260.269 129.894ZM50.0703 142.575C50.3107 149.601 50.4911 158.109 50.4911 161.513V167.661L47.3654 167.826L44.1797 167.99V180.067V192.144L47.666 192.308C50.5512 192.473 51.0921 192.638 51.0921 193.516C51.0921 194.394 50.5512 194.559 47.666 194.724L44.1797 194.888V206.965V219.042L47.8463 219.206L51.5129 219.371L51.9337 222.225C52.114 223.817 52.2943 228.154 52.2943 231.942C52.2943 237.266 52.5347 239.133 53.256 240.066L54.1577 241.274H34.3219H14.4861L12.8632 240.011L11.2403 238.694L10.7594 212.674C10.519 198.347 10.1583 179.079 9.91789 169.857L9.55724 153.059L29.2728 141.477C40.0923 135.109 49.1687 129.894 49.349 129.894C49.5293 129.839 49.89 135.603 50.0703 142.575ZM279.384 132.145C282.389 133.462 284.914 134.615 284.914 134.78C284.914 134.944 283.712 135.658 282.209 136.426L279.504 137.799L273.674 135.109L267.783 132.474L270.488 131.157C271.991 130.443 273.313 129.894 273.493 129.839C273.674 129.839 276.318 130.882 279.384 132.145ZM258.406 136.426C258.466 136.591 257.024 137.414 255.34 138.293L252.155 139.83L245.843 137.14L239.532 134.395L243.138 132.749L246.685 131.102L252.515 133.627C255.761 134.999 258.406 136.262 258.406 136.426ZM272.892 135.438C275.898 136.646 278.242 137.909 278.182 138.183C278.061 138.457 276.739 139.336 275.236 140.159L272.471 141.586L266.641 139.171C263.455 137.854 260.87 136.591 260.87 136.426C260.87 136.042 266.28 133.188 267.002 133.133C267.242 133.133 269.887 134.176 272.892 135.438ZM291.886 137.36C294.651 138.512 296.935 139.61 296.935 139.83C296.935 140.049 295.733 140.873 294.291 141.641L291.706 143.014L286.236 140.708C283.231 139.391 280.766 138.238 280.766 138.073C280.706 137.634 285.094 135.383 286.056 135.329C286.537 135.329 289.121 136.262 291.886 137.36ZM265.559 139.281C268.564 140.598 271.029 141.806 270.909 142.08C270.848 142.355 269.466 143.178 267.963 143.947L265.138 145.374L259.368 142.959C256.242 141.641 253.657 140.379 253.657 140.214C253.657 139.775 258.526 137.03 259.368 136.975C259.728 136.975 262.493 138.018 265.559 139.281ZM285.335 140.873C288.4 142.135 290.744 143.343 290.624 143.563C290.444 143.837 289.061 144.66 287.559 145.484L284.794 146.966L279.143 144.551C276.078 143.288 273.493 142.08 273.493 141.916C273.493 141.641 278.903 138.677 279.504 138.622C279.684 138.622 282.329 139.61 285.335 140.873ZM278.182 144.77C281.187 146.033 283.712 147.186 283.712 147.35C283.712 147.789 278.663 150.699 277.941 150.699C277.22 150.754 266.34 146.088 266.28 145.758C266.28 145.484 271.69 142.52 272.291 142.465C272.471 142.465 275.116 143.508 278.182 144.77ZM50.7315 171.119C50.9118 172.711 51.0921 178.036 51.0921 182.976V191.924L47.9665 191.759L44.7808 191.595L44.6004 179.902L44.4802 168.265H47.3654H50.3107L50.7315 171.119ZM51.3326 197.194C51.5129 198.347 51.6932 203.671 51.6932 208.996V218.767H48.0867H44.4802V206.965V195.163H47.7261H50.9118L51.3326 197.194ZM217.352 249.782C224.926 251.484 231.658 253.021 232.319 253.295C233.461 253.735 233.461 253.789 232.018 254.119C231.057 254.393 225.346 253.35 215.849 251.155C207.795 249.343 200.522 247.861 199.62 247.806L198.057 247.751L199.56 247.312C202.205 246.543 203.407 246.708 217.352 249.782ZM215.068 252.746C226.068 255.272 227.751 255.766 227.15 256.315C227.029 256.424 221.62 255.326 215.188 253.844C208.756 252.417 202.505 251.209 201.363 251.209C195.833 251.155 191.626 254.942 190.363 260.981C189.522 264.933 188.38 265.537 189.041 261.694C189.882 256.589 192.647 252.801 196.855 251.1C200.341 249.617 202.205 249.782 215.068 252.746ZM187.959 254.064C188.079 254.229 187.779 255.107 187.298 256.04C186.757 256.973 186.156 258.84 185.915 260.212C185.555 262.737 185.254 262.902 182.91 262.353C181.648 262.023 181.587 261.804 181.888 258.895C182.489 253.131 182.489 253.186 185.194 253.515C186.576 253.68 187.779 253.954 187.959 254.064ZM234.783 255.656C234.603 256.369 234.423 257.303 234.423 257.797C234.423 258.291 233.882 258.84 233.221 259.004C232.379 259.224 232.018 259.773 232.018 260.926C232.018 261.859 232.319 262.682 232.68 262.792C233.461 263.012 231.297 274.155 230.396 274.704C229.314 275.308 228.893 277.504 229.614 278.327C230.456 279.26 229.434 281.346 228.051 281.346C227.33 281.346 227.15 281.017 227.39 280.084C227.57 279.425 228.532 273.661 229.614 267.348C230.636 260.981 231.598 255.491 231.718 255.107C231.898 254.778 232.68 254.448 233.581 254.448C234.904 254.448 235.084 254.613 234.783 255.656ZM228.232 263.561C227.991 264.658 227.39 268.885 226.849 272.892C226.248 276.955 225.587 280.248 225.286 280.248C224.625 280.248 224.625 279.919 226.068 270.203C226.789 265.482 227.631 261.584 227.991 261.584C228.352 261.584 228.412 262.408 228.232 263.561Z" fill="black"/>
<path d="M25.3657 179.902L25.546 192.144H33.3601H41.1742L41.3545 179.902L41.4748 167.716H33.3601H25.2455L25.3657 179.902ZM40.8737 180.067V191.869H33.3601H25.8466V180.067V168.265H33.3601H40.8737V180.067Z" fill="black"/>
<path d="M25.2455 206.965V219.316H33.3601H41.4748V206.965V194.614H33.3601H25.2455V206.965ZM40.8737 206.965V218.767H33.3601H25.8466V206.965V195.163H33.3601H40.8737V206.965Z" fill="black"/>
<path d="M124.004 76.8663C120.337 78.2935 118.534 83.1242 120.397 86.4727C121.419 88.2842 124.845 90.3153 126.949 90.3153C131.217 90.3153 134.643 87.1314 134.643 83.1791C134.643 80.105 133.08 77.9642 130.075 76.8114C127.61 75.8782 126.468 75.8782 124.004 76.8663ZM130.014 77.3603C132.659 78.3484 134.042 80.4344 134.042 83.2889C134.042 86.0336 132.9 87.7902 130.435 88.9429C128.211 89.9859 126.588 89.9859 124.064 88.888C118.955 86.6923 119.015 79.7208 124.064 77.4701C126.408 76.4271 127.55 76.3722 130.014 77.3603Z" fill="black"/>
<path d="M60.9499 101.459C60.8297 101.843 60.7696 106.125 60.8297 110.9L61.0101 119.683L68.4635 119.848C73.3924 119.958 76.1574 119.793 76.6984 119.354C77.8404 118.531 77.9005 102.392 76.8186 101.404C75.7366 100.416 61.3707 100.471 60.9499 101.459ZM76.6382 102.502C76.8186 103.215 76.8787 107.223 76.8186 111.449L76.6382 119.135L69.0045 119.299L61.3106 119.464V110.736C61.3106 105.96 61.4909 101.843 61.7314 101.678C61.9117 101.459 65.2778 101.294 69.1848 101.294C76.0973 101.294 76.3377 101.349 76.6382 102.502Z" fill="black"/>
<path d="M80.0644 101.404C79.283 102.118 78.9824 117.378 79.7037 119.08C80.0043 119.794 81.3267 119.958 87.7583 119.958C94.1899 119.958 95.5122 119.794 95.8128 119.08C96.5341 117.378 96.2335 102.118 95.4521 101.404C94.9713 100.965 92.3866 100.745 87.7583 100.745C83.1299 100.745 80.5452 100.965 80.0644 101.404ZM95.2718 110.352V119.135H87.7583H80.2447L80.0644 110.901C80.0043 106.399 80.0644 102.392 80.2447 102.008C80.425 101.404 82.2283 101.294 87.8785 101.404L95.2718 101.569V110.352Z" fill="black"/>
<path d="M110.359 101.623C109.638 103.325 109.938 118.585 110.72 119.299C111.561 120.068 124.845 120.232 126.108 119.519C126.648 119.134 126.829 116.884 126.709 110.022L126.528 101.019L118.654 100.855C111.862 100.745 110.72 100.855 110.359 101.623ZM125.927 110.351V119.134H118.414H110.9L110.72 110.9C110.66 106.399 110.72 102.392 110.9 102.007C111.08 101.404 112.884 101.294 118.534 101.404L125.927 101.568V110.351Z" fill="black"/>
<path d="M129.534 101.459C129.353 101.843 129.293 106.125 129.353 110.9L129.534 119.683L136.146 119.848C146.424 120.068 145.523 121.001 145.342 110.187L145.162 101.019L137.468 100.855C131.577 100.745 129.714 100.855 129.534 101.459ZM144.741 110.187L144.561 119.134H137.348H130.135L129.954 110.187L129.834 101.294H137.348H144.861L144.741 110.187Z" fill="black"/>
<path d="M158.987 101.459C158.806 101.843 158.746 106.125 158.806 110.901L158.987 119.684H166.801H174.615V110.352V101.02L166.921 100.855C161.03 100.745 159.167 100.855 158.987 101.459ZM174.314 110.352V119.409H166.801H159.287V110.736C159.287 105.96 159.468 101.843 159.708 101.679C159.888 101.459 163.314 101.294 167.222 101.294H174.314V110.352Z" fill="black"/>
<path d="M177.981 101.514C177.5 102.008 177.32 105.027 177.44 110.955L177.62 119.684L185.374 119.848C191.205 119.958 193.249 119.793 193.669 119.299C194.451 118.147 194.27 102.172 193.429 101.404C192.347 100.416 178.883 100.526 177.981 101.514ZM193.249 110.352V119.135H185.735H178.221L178.041 110.901C177.981 106.399 178.041 102.392 178.221 102.008C178.402 101.404 180.205 101.294 185.855 101.404L193.249 101.569V110.352Z" fill="black"/>
<path d="M110.66 121.825C110.179 122.319 109.998 125.228 110.119 131.266L110.299 139.994H118.414H126.528V130.662V121.33L118.955 121.166C113.004 121.056 111.201 121.166 110.66 121.825ZM126.107 130.827L126.228 139.775L118.594 139.61L110.9 139.445L110.72 131.211C110.66 126.71 110.72 122.703 110.9 122.319C111.08 121.715 112.884 121.605 118.534 121.715L125.927 121.879L126.107 130.827Z" fill="black"/>
<path d="M129.954 121.495C129.413 121.879 129.233 124.13 129.353 130.992L129.534 139.994H137.348H145.162L145.342 130.992C145.462 124.13 145.282 121.879 144.741 121.495C144.32 121.276 141.014 121.056 137.348 121.056C133.741 121.056 130.375 121.276 129.954 121.495ZM144.741 130.772L144.861 139.72H137.348H129.834V131.047C129.834 126.271 130.014 122.154 130.255 121.934C130.495 121.77 133.801 121.66 137.588 121.715L144.561 121.879L144.741 130.772Z" fill="black"/>
<path d="M60.7096 130.937V140.324L69.0046 140.159L77.2394 139.995V130.937V121.88L69.0046 121.715L60.7096 121.55V130.937ZM76.6383 130.937V139.446L69.0046 139.61L61.3107 139.775V130.937V122.099L69.0046 122.264L76.6383 122.428V130.937Z" fill="black"/>
<path d="M79.6438 122.319C79.4635 122.703 79.4034 126.82 79.4635 131.486L79.6438 139.994H87.7584H95.8731V130.937V121.879L87.8786 121.715C81.7476 121.605 79.8241 121.715 79.6438 122.319ZM95.272 130.937V139.445H87.7584H80.2449L80.0645 131.486C80.0044 127.149 80.0645 123.252 80.2449 122.868C80.4252 122.264 82.2284 122.154 87.8786 122.264L95.272 122.428V130.937Z" fill="black"/>
<path d="M158.686 130.937V140.269H166.741H174.855L175.036 131.321C175.156 126.436 175.156 122.264 175.036 121.989C174.916 121.77 171.189 121.605 166.741 121.605H158.686V130.937ZM174.314 130.937V139.72H166.801H159.287V130.937V122.154H166.801H174.314V130.937Z" fill="black"/>
<path d="M177.62 122.319C177.44 122.703 177.38 126.82 177.44 131.486L177.62 139.994H185.735H193.85V130.937V121.879L185.855 121.715C179.724 121.605 177.801 121.715 177.62 122.319ZM193.249 130.937V139.445L185.615 139.61L177.921 139.775V131.321C177.921 126.655 178.101 122.703 178.342 122.483C178.582 122.319 182.008 122.209 185.975 122.264L193.249 122.428V130.937Z" fill="black"/>
<path d="M99.7798 147.954L65.8186 148.228L97.9766 148.283C115.648 148.338 144.2 148.173 161.391 148.009L192.647 147.624H163.194C147.025 147.679 118.474 147.789 99.7798 147.954Z" fill="black"/>
<path d="M107.474 162.83C106.452 163.324 106.392 165.63 106.392 198.95C106.392 230.13 106.272 234.631 105.49 234.906C104.829 235.125 104.589 236.114 104.589 238.803V242.371H130.075C158.506 242.371 156.282 242.701 156.282 238.309C156.282 235.4 155.5 234.686 152.255 234.686H149.67V199.335V163.928L148.348 163.105C147.205 162.336 144.2 162.226 127.73 162.226C115.769 162.226 108.075 162.446 107.474 162.83ZM147.927 163.324C149.009 163.873 149.069 164.861 149.069 199.28C149.069 230.405 148.949 234.686 148.167 234.686C147.386 234.686 147.266 230.569 147.266 200.872C147.266 178.64 147.025 166.728 146.665 166.014C146.063 165.026 145.222 164.971 128.151 164.971C114.987 164.971 110.058 165.136 109.518 165.63C108.977 166.124 108.796 174.632 108.796 200.487C108.796 230.514 108.676 234.686 107.895 234.686C107.113 234.686 106.993 230.405 106.993 199.28C106.993 166.179 107.053 163.873 108.075 163.379C109.457 162.611 146.364 162.556 147.927 163.324ZM154.959 238.639L155.14 241.823H130.135H105.19V238.913C105.19 237.266 105.37 235.784 105.61 235.62C105.851 235.4 116.971 235.29 130.375 235.345L154.779 235.51L154.959 238.639Z" fill="black"/>
<path d="M219.095 165.63C218.915 166.069 218.855 171.668 218.915 178.146L219.095 189.948H227.21H235.324V177.597V165.246L227.33 165.081C221.199 164.971 219.276 165.081 219.095 165.63ZM235.024 177.597V189.728L227.39 189.564L219.696 189.399L219.516 178.146C219.456 171.998 219.516 166.618 219.636 166.234C219.877 165.685 221.92 165.52 227.51 165.52H235.024V177.597Z" fill="black"/>
<path d="M238.029 177.597V190.222H246.144H254.259V177.597V164.971H246.144H238.029V177.597ZM253.657 177.597V189.673H246.144H238.63V177.597V165.52H246.144H253.657V177.597Z" fill="black"/>
<path d="M60.9499 167.331C60.8297 167.716 60.7696 173.205 60.8297 179.518L61.0101 191.046L68.764 191.21C74.5946 191.32 76.6382 191.155 77.059 190.661C77.6 189.838 77.7202 168.814 77.1792 167.496C76.8787 166.783 75.5563 166.618 69.0646 166.618C63.2942 166.618 61.1904 166.783 60.9499 167.331ZM76.6382 178.969V190.497L69.0045 190.661L61.3106 190.826V178.969V167.112L69.0045 167.277L76.6382 167.441V178.969Z" fill="black"/>
<path d="M79.6438 167.276C79.4635 167.716 79.4034 173.205 79.4635 179.518L79.6438 191.046L87.5781 191.21C95.4523 191.375 95.5725 191.32 95.8731 190.112C96.0534 189.399 96.1135 183.909 96.0534 177.871L95.8731 166.892L87.8786 166.728C81.7476 166.618 79.8241 166.728 79.6438 167.276ZM95.272 178.969V190.497H87.7584H80.2449L80.0645 179.518C80.0044 173.479 80.0645 168.265 80.2449 167.825C80.4252 167.276 82.2284 167.167 87.8786 167.276L95.272 167.441V178.969Z" fill="black"/>
<path d="M158.927 167.331C158.807 167.716 158.746 173.205 158.807 179.518L158.987 191.046L166.44 191.21C170.528 191.265 174.134 191.155 174.375 190.936C174.735 190.606 175.216 171.558 174.976 167.277C174.916 166.289 159.348 166.343 158.927 167.331ZM174.315 178.969V190.771H166.801H159.287V178.969V167.167H166.801H174.315V178.969Z" fill="black"/>
<path d="M177.62 167.276C177.44 167.716 177.38 173.205 177.44 179.518L177.62 191.046L185.555 191.21C193.429 191.375 193.549 191.32 193.85 190.112C194.03 189.399 194.09 183.909 194.03 177.871L193.85 166.892L185.855 166.728C179.724 166.618 177.801 166.728 177.62 167.276ZM193.249 178.969V190.497H185.735H178.221L178.041 178.804L177.921 167.112L185.555 167.276L193.249 167.441V178.969Z" fill="black"/>
<path d="M219.035 193.68C218.915 194.065 218.855 199.664 218.915 206.141L219.095 217.944L227.39 218.108L235.625 218.273V205.592V192.967H227.51C221.439 192.967 219.276 193.132 219.035 193.68ZM235.024 205.592V217.669H227.21H219.396V205.592V193.516H227.21H235.024V205.592Z" fill="black"/>
<path d="M238.029 205.592V218.273L246.024 218.108L253.958 217.944L254.138 205.428L254.259 192.967H246.144H238.029V205.592ZM253.657 205.592V217.669H246.144H238.63V205.592V193.516H246.144H253.657V205.592Z" fill="black"/>
<path d="M61.1304 193.9C60.8899 194.065 60.7096 199.664 60.7096 206.251V218.273L69.0046 218.108L77.2394 217.944L77.4197 206.965C77.4798 200.926 77.4197 195.437 77.2394 194.723C76.9389 193.571 76.6984 193.516 69.1849 193.516C64.9773 193.516 61.3107 193.68 61.1304 193.9ZM76.6383 205.867V217.395L69.0046 217.559L61.3107 217.724V205.867V194.01L69.0046 194.175L76.6383 194.339V205.867Z" fill="black"/>
<path d="M79.6438 194.723C79.4635 195.437 79.4034 200.926 79.4635 206.965L79.6438 217.943H87.7584H95.8731L96.0534 206.965C96.1135 200.926 96.0534 195.437 95.8731 194.723C95.5725 193.571 95.3321 193.516 87.7584 193.516C80.1848 193.516 79.9443 193.571 79.6438 194.723ZM95.272 205.867V217.394H87.7584H80.2449L80.0645 206.416C80.0044 200.377 80.0645 195.162 80.2449 194.723C80.4252 194.174 82.2284 194.065 87.8786 194.174L95.272 194.339V205.867Z" fill="black"/>
<path d="M159.107 193.9C158.867 194.065 158.686 199.664 158.686 206.251V218.218H166.801H174.916V205.867V193.516H167.222C162.954 193.516 159.287 193.681 159.107 193.9ZM174.314 205.867V217.669H166.801H159.287V205.867V194.065H166.801H174.314V205.867Z" fill="black"/>
<path d="M177.56 194.229C177.44 194.614 177.38 200.103 177.44 206.416L177.62 217.943H185.735H193.85L194.03 206.965C194.09 200.926 194.03 195.437 193.85 194.723C193.549 193.571 193.309 193.516 185.675 193.516C179.904 193.516 177.801 193.68 177.56 194.229ZM193.248 205.867V217.394H185.735H178.221L178.041 206.416C177.981 200.377 178.041 195.162 178.221 194.723C178.402 194.174 180.205 194.065 185.855 194.174L193.248 194.339V205.867Z" fill="black"/>
<path d="M300.242 245.171C290.744 255.326 276.258 264.548 264.297 268.171C262.013 268.83 260.33 269.489 260.45 269.599C260.871 269.983 268.925 267.238 273.493 265.152C280.165 262.133 287.739 257.138 293.75 251.978C299.22 247.312 305.231 241.273 304.329 241.328C304.088 241.328 302.225 243.085 300.242 245.171Z" fill="black"/>
<path d="M289.662 245.994C284.794 250.551 279.204 254.338 270.608 259.114C266.941 261.2 263.996 262.957 264.116 263.066C264.417 263.341 276.138 256.808 281.067 253.625C285.455 250.77 294.351 243.195 293.87 242.701C293.69 242.536 291.826 244.018 289.662 245.994Z" fill="black"/>
<path d="M173.052 281.016C172.391 281.62 155.801 285.902 148.468 287.329C124.004 292.215 103.567 292.324 82.9496 287.658C81.8076 287.384 81.6873 287.439 82.4086 287.878C84.0917 288.866 95.2117 290.678 103.867 291.336C118.053 292.379 135.785 290.787 153.637 286.835C161.03 285.243 174.314 281.51 174.314 281.016C174.314 280.742 173.413 280.742 173.052 281.016Z" fill="black"/>
<path d="M161.391 290.733C155.681 292.105 142.878 294.411 135.244 295.344C129.534 296.058 129.353 296.113 133.441 295.893C139.331 295.564 150.571 293.752 159.588 291.721C166.32 290.129 168.424 289.525 166.44 289.635C165.959 289.635 163.735 290.129 161.391 290.733Z" fill="black"/>
<path d="M75.1354 290.843C75.1354 291.392 84.6325 294.026 90.5832 295.069C99.4192 296.606 114.266 297.43 122.32 296.771L128.932 296.222L121.118 296.497C104.528 296.991 90.8237 295.289 76.2173 290.843C75.6162 290.678 75.1354 290.678 75.1354 290.843Z" fill="black"/>
</svg>
