<svg width="9" height="11" viewBox="0 0 9 11" fill="none" xmlns="http://www.w3.org/2000/svg">
<path d="M3.062 0.0176048C2.96599 0.0621576 2.89932 0.167971 2.56329 0.800066C1.22719 3.31731 0.381783 5.25257 0.0857593 6.46942C0.00575276 6.79243 -0.0022479 6.86762 0.000418987 7.21847C0.00308587 8.10953 0.315111 8.88921 0.928494 9.53244C1.37386 10.0002 1.91791 10.3065 2.56063 10.4513C2.81931 10.5098 3.4887 10.5182 3.74206 10.4653C4.61413 10.2843 5.37952 9.76077 5.83556 9.02843C6.10225 8.6024 6.27026 8.17914 6.23826 8.00929C6.20092 7.80044 5.97424 7.68071 5.78756 7.77538C5.70755 7.81437 5.67821 7.85335 5.60887 8.03435C5.29952 8.81681 4.89148 9.28183 4.2381 9.59927C3.88607 9.77191 3.60338 9.83317 3.18201 9.83317C2.89399 9.83317 2.77398 9.81925 2.58196 9.76913C1.47521 9.47396 0.70981 8.51607 0.63247 7.32985C0.619136 7.13215 0.627137 7.01798 0.67514 6.78686C0.816485 6.06009 1.23519 4.97133 1.96325 3.43147C2.33127 2.6518 3.15801 1.02283 3.18201 1.02283C3.19001 1.02561 3.31002 1.24003 3.4487 1.50456C3.67272 1.92781 3.71272 1.98907 3.80339 2.03641C3.8914 2.08096 3.9234 2.08375 4.00874 2.0559C4.14476 2.01413 4.24876 1.88326 4.24876 1.75517C4.24876 1.64657 4.17409 1.49064 3.72072 0.644131C3.57138 0.36846 3.42203 0.115065 3.38469 0.0788651C3.31535 0.00925159 3.14734 -0.0213785 3.062 0.0176048Z" fill="black"/>
<path d="M6.99664 2.26788C6.90063 2.30408 6.81262 2.44053 6.47659 3.05591C6.01256 3.91356 5.3005 5.23065 4.65511 6.42523C4.36976 6.9543 4.1244 7.41932 4.11107 7.46108C4.0524 7.63651 4.19374 7.84257 4.38842 7.86485C4.59644 7.88712 4.61244 7.86206 5.19649 6.78444C5.48985 6.24145 5.82054 5.62885 5.93255 5.42279C7.07131 3.32602 7.40467 2.69671 7.41534 2.62152C7.45001 2.40154 7.19932 2.18992 6.99664 2.26788Z" fill="black"/>
<path d="M3.70195 2.59887C3.38192 2.67962 3.08056 2.91074 2.88588 3.22539C2.62453 3.64586 2.62186 4.23897 2.87521 4.69286C3.25391 5.36672 4.13398 5.57835 4.7687 5.14952C5.2034 4.85436 5.44609 4.30302 5.37142 3.77395C5.25407 2.9358 4.49135 2.39838 3.70195 2.59887ZM4.27266 3.26438C4.7367 3.43424 4.89671 4.05519 4.57402 4.44503C4.28866 4.7931 3.74195 4.78196 3.4806 4.42275C3.36859 4.2696 3.30192 4.03849 3.32592 3.88255C3.40059 3.40082 3.84863 3.10844 4.27266 3.26438Z" fill="black"/>
<path d="M7.13707 4.95998C6.67837 5.07693 6.29434 5.46398 6.15833 5.9485C6.11032 6.12114 6.10232 6.48592 6.14499 6.67248C6.21166 6.97321 6.44368 7.32407 6.68904 7.49671C6.92906 7.661 7.15041 7.7334 7.43843 7.7334C7.83046 7.7334 8.15315 7.60252 8.40384 7.33521C8.94789 6.75602 8.94255 5.89002 8.39584 5.32476C8.06515 4.98504 7.58778 4.84581 7.13707 4.95998ZM7.70245 5.63663C7.8838 5.70067 8.06781 5.89559 8.12915 6.08772C8.21983 6.37453 8.14515 6.67805 7.9318 6.87854C7.78512 7.01777 7.66245 7.0651 7.45176 7.0651C7.0464 7.0651 6.75571 6.7588 6.75571 6.33555C6.75837 5.80927 7.22241 5.46398 7.70245 5.63663Z" fill="black"/>
</svg>
