<svg width="343" height="204" viewBox="0 0 343 204" fill="none" xmlns="http://www.w3.org/2000/svg">
<path d="M98.624 13.6591V27.296L95.1705 22.6913C92.1376 18.6401 91.6727 18.1309 91.3849 18.4187C91.0971 18.7065 91.5177 19.3485 94.8384 23.776L98.624 28.8235L98.5797 45.0948L98.5133 61.3661L95.3033 57.1156C93.5323 54.769 92.0269 52.7323 91.9383 52.5995C91.8277 52.4224 91.6727 52.4445 91.4513 52.688C91.1635 52.9758 91.5399 53.5957 94.8605 58.0011L98.624 62.9821V78.3236V93.6651L95.5025 89.5032C91.6727 84.4115 91.6948 84.4558 91.3628 84.8543C91.1414 85.0978 91.8498 86.1604 94.8605 90.1674L98.624 95.1926V113.567V131.964L95.2812 127.47C93.4216 124.99 91.8719 122.931 91.8277 122.887C91.7834 122.821 91.6063 122.931 91.4292 123.108C91.1192 123.418 91.4956 123.994 94.8605 128.466C96.9194 131.233 98.624 133.624 98.624 133.779C98.624 133.956 97.8713 134.332 96.8087 134.709C91.9605 136.369 87.9093 138.406 85.939 140.132C84.6771 141.261 83.5481 143.431 82.7069 146.331C81.9099 149.142 81.7107 150.161 81.1572 154.301C80.1389 161.761 79.4969 172.83 79.6297 181.198L79.6961 186.068L81.9763 186.179L84.2565 186.29L84.81 187.95C85.1199 188.858 85.8062 190.54 86.3596 191.691C86.8909 192.82 87.3337 193.794 87.3337 193.861C87.3337 193.905 83.4817 193.905 78.7442 193.883L70.1769 193.817L68.6936 193.086C67.0554 192.289 65.7714 190.983 64.9302 189.323L64.421 188.282L64.3546 163.997L64.3104 139.712L64.7974 139.645C65.2844 139.579 65.3066 139.468 65.4172 137.144L65.5279 134.709L66.1921 134.598L66.8562 134.487V131.499V128.51L63.7126 128.444L60.5469 128.377V115.714C60.5469 108.763 60.4362 101.9 60.3255 100.506C59.5507 91.9162 56.4957 84.6108 51.7582 80.1389C49.7437 78.2351 48.1719 77.2389 45.9581 76.4641C39.4939 74.206 32.5869 77.4824 28.0929 84.8764C26.0783 88.2192 24.6837 92.0269 23.7539 96.853L23.2668 99.2881L23.2004 147.15L23.1119 195.034L11.5559 195.078L0 195.145V199.572V204H171.015H342.029V199.572V195.145L322.238 195.078C303.532 195.034 302.469 195.012 302.624 194.636C304.926 189.079 305.878 183.7 305.9 176.217C305.945 170.063 305.303 165.657 303.731 160.787C303.111 158.927 303 158.33 303.111 157.289C303.177 156.603 303.31 156.138 303.399 156.227C303.62 156.492 304.063 158.086 304.838 161.385C305.325 163.532 305.613 164.373 305.834 164.373C306.122 164.373 306.166 162.226 306.232 148.678L306.277 133.004L305.679 131.676C304.926 129.993 303.554 128.754 301.871 128.267C298.329 127.226 297.156 126.363 287.747 118.039C283.453 114.209 282.833 113.589 282.833 113.014C282.811 112.416 283.209 112.017 286.242 109.405C288.124 107.767 289.673 106.35 289.673 106.239C289.673 105.332 287.725 106.704 283.43 110.645L282.811 111.22V98.469V85.6955L286.087 82.884C287.88 81.3344 289.43 79.984 289.563 79.8733C289.695 79.7626 289.651 79.5633 289.43 79.3641C289.142 79.0763 288.744 79.342 286.043 81.6886C284.382 83.1497 282.966 84.3451 282.899 84.3451C282.855 84.3451 282.811 78.2794 282.811 70.8632V57.3591L286.198 54.4369C288.035 52.8209 289.607 51.4705 289.651 51.4262C289.718 51.3819 289.607 51.2048 289.43 51.0277C289.142 50.7399 288.721 51.0277 286.021 53.3743L282.921 56.0308L282.855 44.9398C282.811 34.048 282.788 33.8709 282.368 33.8709C281.925 33.8709 281.925 34.0258 281.925 45.0505C281.925 51.2048 281.859 56.2301 281.77 56.2079C281.659 56.2079 280.42 54.614 279.003 52.6659C277.564 50.7399 276.28 49.146 276.169 49.146C275.417 49.146 275.97 50.1422 278.804 53.9277L281.925 58.0675V71.3281C281.925 78.6114 281.859 84.5665 281.77 84.5665C281.659 84.5443 280.42 82.9504 278.959 81.0244C277.52 79.0763 276.258 77.4824 276.147 77.4824C275.417 77.4824 275.992 78.5007 278.804 82.2642L281.925 86.4039V98.779C281.925 105.575 281.837 111.132 281.748 111.132C281.659 111.132 280.398 109.538 278.936 107.59C276.656 104.535 276.258 104.092 275.992 104.358C275.704 104.623 275.992 105.133 278.051 107.9C279.357 109.693 280.53 111.198 280.619 111.265C280.73 111.331 280.818 111.464 280.818 111.597C280.818 111.707 279.756 110.933 278.449 109.892C273.955 106.239 268.93 103.384 264.303 101.856C260.341 100.528 260.341 100.528 246.106 100.484C238.911 100.484 232.978 100.417 232.912 100.351C232.868 100.284 233.975 99.2439 235.391 98.0263C236.808 96.8087 238.004 95.7461 238.026 95.6575C238.07 95.5911 238.004 95.3697 237.871 95.1926C237.694 94.927 237.627 94.927 237.273 95.2148C237.052 95.414 235.856 96.4324 234.639 97.4728C233.399 98.5354 232.336 99.3988 232.248 99.3988C232.181 99.3988 232.115 94.1964 232.115 87.8207V76.2427L235.104 73.719C237.827 71.3945 238.402 70.6861 237.76 70.4647C237.627 70.4204 236.365 71.3945 234.949 72.6121C233.532 73.8297 232.314 74.8259 232.248 74.8259C232.181 74.8259 232.115 70.5311 232.115 65.3066C232.115 55.9423 232.115 55.7873 231.672 55.7873C231.252 55.7873 231.229 55.9644 231.185 65.4394L231.119 75.0915L228.927 72.0808C227.71 70.4204 226.603 69.07 226.448 69.07C225.695 69.07 226.071 69.8006 228.551 73.0991L231.229 76.6854V88.1528C231.229 94.4621 231.207 99.6202 231.163 99.6202C231.141 99.6202 230.123 98.2698 228.905 96.6316C227.687 94.9934 226.581 93.6651 226.426 93.643C225.717 93.6209 226.071 94.3514 228.108 97.0744C229.348 98.7126 230.344 100.129 230.344 100.218C230.344 100.329 214.294 100.439 194.658 100.484C157.112 100.55 158.529 100.528 156.603 101.524C156.182 101.723 154.367 103.052 152.53 104.446C150.714 105.863 145.755 109.671 141.527 112.925L133.867 118.836L132.118 118.393C131.056 118.127 129.528 117.95 128.134 117.928C125.942 117.884 125.876 117.906 125.034 118.57C123.883 119.5 122.754 121.758 122.754 123.153C122.754 124.282 122.976 124.879 123.706 125.676C124.215 126.252 124.105 126.473 122.776 127.381C122.112 127.846 120.806 128.244 117.198 129.063C110.623 130.547 101.856 132.871 99.7973 133.646C99.6202 133.712 99.5095 133.58 99.5095 133.314C99.5095 132.982 100.771 131.742 103.671 129.263C105.952 127.292 107.833 125.61 107.855 125.544C107.9 125.477 107.833 125.256 107.7 125.079C107.523 124.813 107.457 124.813 107.103 125.101C103.893 127.868 100.196 131.012 99.908 131.255C99.5316 131.543 99.5095 130.635 99.5095 113.058V94.5728L103.671 90.9643C105.952 88.994 107.833 87.3116 107.855 87.2452C107.9 87.1787 107.833 86.9574 107.7 86.7803C107.523 86.5146 107.457 86.5146 107.103 86.8024C106.881 87.0016 105.11 88.5292 103.162 90.2338L99.6202 93.2888L99.5538 78.1465C99.5316 69.8006 99.5538 62.7829 99.6202 62.5394C99.6866 62.2959 101.568 60.547 103.782 58.6431C107.546 55.4331 108.188 54.7247 107.568 54.5255C107.435 54.4812 105.73 55.8095 103.782 57.4919C101.856 59.1744 100.107 60.6798 99.8858 60.8569C99.5316 61.1447 99.5095 60.1927 99.5095 44.6741V28.1815L103.716 24.5509C106.04 22.5806 107.922 20.876 107.922 20.7874C107.922 20.721 107.789 20.5439 107.656 20.4111C107.435 20.2561 106.394 21.031 103.605 23.4661C101.546 25.2814 99.7751 26.7646 99.6866 26.7646C99.5759 26.7868 99.5095 20.7653 99.5095 13.3934C99.5095 0.154999 99.5095 3.05176e-05 99.0667 3.05176e-05C98.624 3.05176e-05 98.624 0.154999 98.624 13.6591ZM44.5856 76.9289C51.6918 78.6114 57.4476 86.9795 59.2408 98.1812C59.6614 100.794 59.595 107.855 59.1301 110.468C57.824 117.84 55.101 123.529 51.0941 127.315C48.0391 130.193 45.4047 131.344 41.8405 131.344C39.3832 131.344 37.745 130.901 35.5312 129.683C33.7602 128.687 30.1296 124.924 28.8234 122.71C24.3737 115.249 22.9126 104.845 24.9272 95.4362C26.344 88.9276 29.5983 82.9504 33.4281 79.8511C34.9777 78.5893 37.8778 77.106 39.2946 76.8404C40.8664 76.5305 43.0359 76.5747 44.5856 76.9289ZM233.333 101.989C233.111 102.343 232.691 102.941 232.403 103.317L231.871 104.048H193.352C172.188 104.048 154.854 103.981 154.854 103.871C154.876 103.561 157.112 102.188 158.241 101.812C159.326 101.436 161.473 101.413 196.562 101.391H233.709L233.333 101.989ZM261.071 101.834C264.99 102.764 269.705 104.867 273.513 107.368C276.324 109.206 278.715 111.154 284.139 116.002C296.58 127.115 297.776 128.023 301.119 128.953C302.602 129.373 304.063 130.436 304.616 131.499L304.926 132.096L303.709 132.229C301.428 132.473 299.99 133.934 299.967 136.037C299.967 137.055 300.211 137.587 302.69 142.169L305.391 147.194L305.369 153.238V159.282L304.417 156.404C302.004 148.988 299.259 145.468 295.916 145.445C294.654 145.445 293.68 145.888 292.463 146.995C288.057 151.068 284.737 163.377 284.227 177.545C284.139 179.671 284.05 181.442 284.028 181.464C284.006 181.508 282.811 181.132 281.372 180.645L278.737 179.759H254.009H229.259L229.149 178.586C229.082 177.966 228.971 176.593 228.905 175.553C228.551 170.483 227.378 164.373 225.916 159.968C223.57 153.017 220.138 147.991 216.464 146.198C215.357 145.645 214.914 145.556 213.187 145.556C211.416 145.556 211.04 145.623 209.756 146.242C206.258 147.903 203.137 152.131 200.79 158.374C198.975 163.266 197.447 170.926 197.204 176.593C197.137 178.077 197.004 179.361 196.938 179.471C196.872 179.56 170.616 179.604 138.605 179.582L80.4045 179.493L80.5374 178.254C80.6259 177.346 80.958 176.438 81.6885 175.044L82.7069 173.118H85.939H89.149L87.1123 174.8C85.784 175.885 85.1199 176.593 85.1642 176.837C85.2306 177.191 87.9535 177.213 123.817 177.28C157.887 177.324 162.403 177.28 162.514 176.992C162.602 176.815 162.16 175.907 161.518 174.889L160.388 173.118H169.576H178.763L181.486 174.667L184.209 176.217H186.068C187.109 176.217 188.061 176.128 188.194 176.04C188.592 175.796 188.747 155.917 188.371 155.607C188.216 155.474 187.994 155.43 187.884 155.496C187.773 155.562 185.603 158.463 183.08 161.938L178.475 168.247H130.68C92.6468 168.247 82.884 168.181 82.7954 167.96C82.7512 167.827 82.4634 165.547 82.1534 162.912C81.6221 158.352 81.6221 158.02 81.9321 155.607C82.1092 154.212 82.3084 152.817 82.3748 152.463L82.5076 151.865H85.1863H87.865L89.7467 150.028C92.5582 147.349 92.5582 147.349 87.6215 147.261C83.371 147.194 83.3489 147.194 83.7031 146.242C83.8138 145.933 84.3894 145.888 87.8207 145.888C91.7612 145.888 91.7834 145.888 91.717 145.423C91.6727 145.047 90.9421 144.582 88.7062 143.431C87.0902 142.59 85.7619 141.837 85.7176 141.748C85.6955 141.66 86.2711 141.106 87.0016 140.509C91.0971 137.21 102.874 133.159 117.995 129.883L121.537 129.108L177.944 129.019L234.351 128.909L234.307 129.484C234.218 130.79 234.351 131.344 234.971 131.964C235.325 132.318 235.746 132.561 235.923 132.495C236.078 132.428 236.919 131.587 237.76 130.613L239.31 128.842H256.931H274.553L275.859 128.001C279.269 125.787 281.084 122.09 280.707 118.105C280.508 115.759 280.22 114.94 279.246 113.899C277.099 111.575 268.908 106.881 263.506 104.845L261.359 104.048H247.279C239.553 104.048 233.222 104.003 233.222 103.937C233.222 103.893 233.576 103.295 233.997 102.609L234.794 101.391H247.014C258.437 101.391 259.345 101.413 261.071 101.834ZM170.35 109.804C170.35 109.914 168.557 112.77 166.344 116.157C164.13 119.544 161.518 123.573 160.521 125.123L158.728 127.934H147.239L135.771 127.957L136.9 126.938C141.837 122.511 146.53 118.725 149.873 116.489C152.618 114.652 157.4 112.217 160.721 110.999C162.713 110.268 163.311 110.158 166.476 109.914C168.424 109.759 170.085 109.626 170.196 109.604C170.284 109.604 170.35 109.671 170.35 109.804ZM184.917 112.704L185.404 114.054L184.74 114.873C183.345 116.6 183.124 117.596 183.013 123.02L182.925 127.957H179.958C178.32 127.957 176.992 127.868 176.992 127.78C176.992 127.691 177.545 126.008 178.232 124.082C178.918 122.134 180.18 118.482 181.043 115.936L182.615 111.353H183.522H184.43L184.917 112.704ZM199.617 113.146C201.675 113.589 201.742 113.744 200.325 115.139C198.953 116.467 198.355 117.463 198.133 118.769C197.868 120.275 197.801 120.43 197.226 120.43C196.827 120.43 196.694 120.319 196.694 119.921C196.672 119.655 196.584 118.459 196.473 117.242C196.318 115.316 196.23 115.006 195.676 114.43C195.344 114.076 194.746 113.678 194.326 113.545C193.927 113.412 193.639 113.213 193.706 113.102C193.905 112.814 198.2 112.859 199.617 113.146ZM25.1043 116.489C26.6097 121.182 28.7127 124.747 31.7456 127.735C33.8266 129.794 36.1289 131.189 38.5419 131.831C40.2244 132.273 43.4565 132.273 45.139 131.831C49.5002 130.68 53.6399 126.894 56.4293 121.559C57.6247 119.234 59.2187 114.962 59.2187 114.054C59.2187 113.788 59.3293 113.523 59.44 113.456C59.6614 113.324 59.7721 182.659 59.5729 182.881C59.5286 182.925 51.4926 182.947 41.7519 182.903L24.0195 182.858L24.0417 148.036C24.0417 128.909 24.1302 113.478 24.2409 113.788C24.3295 114.098 24.7279 115.316 25.1043 116.489ZM243.206 118.947C247.346 120.031 250.268 121.603 250.268 122.776V123.308H241.856H233.443V122.798C233.443 121.581 234.949 119.19 236.21 118.459C236.919 118.039 240.749 118.327 243.206 118.947ZM61.4324 137.144C61.5431 139.468 61.5653 139.579 62.0523 139.645L62.5393 139.712V163.466C62.5393 189.655 62.4951 188.592 63.934 191.027C64.731 192.356 66.347 193.905 67.5203 194.459C67.941 194.658 68.2952 194.879 68.2952 194.923C68.2952 194.99 66.5463 195.034 64.421 195.034H60.5469V164.794C60.5469 136.125 60.5691 134.576 60.9454 134.642C61.2775 134.709 61.3439 135.063 61.4324 137.144ZM215.733 157.311C218.611 158.684 220.692 160.831 222.463 164.263C226.049 171.214 226.138 180.822 222.64 187.839C219.12 194.946 213.298 197.691 207.631 194.923C206.391 194.326 205.638 193.728 204.243 192.245C202.738 190.651 202.229 189.92 201.233 187.862C199.351 184.01 198.643 180.777 198.665 176.084C198.709 169.244 200.923 163.266 204.797 159.614C207.343 157.201 209.114 156.47 212.191 156.581C214.006 156.625 214.493 156.736 215.733 157.311ZM296.27 156.824C297.001 157.201 298.683 158.972 299.37 160.079C300.632 162.137 301.916 166.233 302.535 170.129C302.956 172.764 302.89 180.224 302.425 182.969C301.207 190.208 298.462 195.211 295.341 195.92C292.551 196.54 289.695 193.462 287.924 187.884C286.685 183.987 286.463 182.239 286.463 176.217C286.463 171.457 286.53 170.483 286.973 168.292C288.124 162.536 290.315 158.241 292.75 156.957C293.702 156.448 295.429 156.382 296.27 156.824ZM59.6171 189.433L59.6614 195.034H41.8405H24.0195V189.389V183.744L41.7962 183.788L59.5507 183.855L59.6171 189.433ZM179.427 186.6C179.427 187.552 178.497 189.898 177.745 190.828C177.324 191.359 176.505 192.134 175.929 192.533C173.893 193.994 175.221 193.927 147.947 193.927C134.332 193.927 123.197 193.905 123.197 193.861C123.197 193.839 123.64 192.953 124.171 191.891C124.702 190.85 125.411 189.123 125.743 188.083L126.363 186.179H152.884C178.785 186.179 179.427 186.179 179.427 186.6ZM183.855 186.423C183.855 187.042 185.758 191.426 186.732 193.064C187.352 194.06 187.795 194.923 187.773 194.968C187.729 195.012 184.895 195.012 181.508 194.99L175.331 194.923L176.283 194.414C177.567 193.728 179.006 192.267 179.848 190.806C180.445 189.765 180.645 189.079 181.109 186.666C181.198 186.223 181.331 186.179 182.526 186.179C183.323 186.179 183.855 186.268 183.855 186.423ZM231.229 190.607V195.034H227.665H224.101L224.588 194.304C225.452 192.998 227.378 188.946 227.798 187.552L228.219 186.179H229.724H231.229V190.607ZM273.933 187.662C274.155 188.902 275.417 193.02 276.059 194.658C276.214 195.012 275.107 195.034 254.231 194.99L232.226 194.923L232.159 190.54L232.115 186.179H252.88H273.668L273.933 187.662ZM90.1009 197.314C90.8315 198.089 91.8277 199.019 92.3147 199.417L93.2002 200.104L46.9986 200.126H0.774824V198.023V195.92H44.7627H88.7726L90.1009 197.314ZM190.252 197.536C191.182 198.421 192.245 199.373 192.599 199.639L193.263 200.104H155.297H117.33L117.995 199.639C118.371 199.373 119.367 198.443 120.208 197.558L121.758 195.964L155.164 195.942L188.592 195.92L190.252 197.536ZM277.475 197.159C277.874 197.846 278.516 198.731 278.87 199.152C279.246 199.572 279.512 199.971 279.446 200.015C279.379 200.082 265.698 200.104 249.05 200.082L218.744 200.015L219.651 199.417C220.161 199.085 221.179 198.178 221.954 197.381L223.371 195.942L250.047 195.92H276.723L277.475 197.159ZM341.254 198.023V200.126H320.224C308.668 200.126 299.193 200.059 299.193 199.993C299.193 199.927 299.569 199.417 300.034 198.886C300.499 198.355 301.141 197.469 301.428 196.916L301.96 195.92H321.596H341.254V198.023Z" fill="black"/>
<path d="M40.7334 83.0612C39.9365 83.4818 39.5159 84.2124 39.5159 85.1643C39.5159 87.5773 42.8144 88.3522 43.9213 86.1827C44.4747 85.12 44.032 83.6368 43.0358 83.1055C42.3052 82.7292 41.3533 82.707 40.7334 83.0612Z" fill="black"/>
<path d="M36.948 94.9712C35.8854 95.414 35.7526 95.9232 35.7526 99.8637V103.561L36.4388 104.158L37.1472 104.734L41.9954 104.668L46.8657 104.601L47.3971 103.981C47.9062 103.384 47.9284 103.251 47.9284 99.7309C47.9284 96.2109 47.9062 96.0781 47.3971 95.4804L46.8657 94.8605L42.1283 94.8163C39.5381 94.7941 37.1915 94.8605 36.948 94.9712ZM46.6886 95.9896C47.1978 96.4987 47.1978 102.963 46.6886 103.472C46.4009 103.782 45.626 103.826 41.7519 103.826C38.4755 103.826 37.103 103.76 36.9037 103.561C36.7266 103.384 36.6381 102.232 36.6381 99.8194C36.6381 96.9415 36.7045 96.2774 36.9923 95.9896C37.2801 95.6796 38.0328 95.6354 41.8405 95.6354C45.6482 95.6354 46.4009 95.6796 46.6886 95.9896Z" fill="black"/>
<path d="M39.826 114.231C38.6305 114.607 36.9923 115.847 36.2618 116.954C34.0701 120.253 35.3099 124.68 38.9626 126.584C40.4901 127.381 42.8589 127.403 44.5413 126.65C47.8177 125.189 49.3674 121.182 47.8841 117.972C46.7108 115.404 44.9398 114.187 42.1726 114.098C41.2649 114.054 40.2023 114.12 39.826 114.231Z" fill="black"/>
<path d="M283.918 129.794C283.918 129.949 284.272 130.414 284.692 130.835C286.64 132.716 288.699 136.369 290.072 140.376C291.378 144.162 291.378 144.184 290.515 144.516C289.341 144.936 287.349 146.641 286.131 148.257C282.191 153.437 279.8 163.311 279.645 174.999C279.601 178.475 279.645 178.984 279.955 179.051C280.265 179.095 280.331 178.586 280.464 174.955C280.973 160.721 283.696 151.356 288.611 146.907C289.341 146.22 290.404 145.512 290.979 145.291C291.533 145.091 292.064 144.826 292.153 144.715C292.286 144.494 292.042 143.497 291.068 140.465C289.541 135.661 285.644 129.506 284.139 129.506C284.028 129.506 283.918 129.639 283.918 129.794Z" fill="black"/>
<path d="M257.795 133.27C257.795 133.403 258.083 134.022 258.437 134.664C259.876 137.21 261.359 141.881 262.045 145.999C262.466 148.7 262.422 156.47 261.935 159.614C261.359 163.333 260.119 168.159 258.858 171.635C258.038 173.893 257.817 174.778 257.994 174.955C258.393 175.354 258.614 174.955 259.677 171.945C263.551 160.942 264.348 151.069 262.09 141.904C261.071 137.786 258.99 133.048 258.216 133.048C257.972 133.048 257.795 133.159 257.795 133.27Z" fill="black"/>
<path d="M247.169 136.258V137.033H250.489H253.81V136.258V135.484H250.489H247.169V136.258Z" fill="black"/>
<path d="M277.055 136.258V137.033H280.375H283.696V136.258V135.484H280.375H277.055V136.258Z" fill="black"/>
<path d="M190.916 138.428C190.872 138.494 189.588 138.583 188.061 138.671C184.187 138.848 181.397 139.18 179.294 139.69C177.235 140.177 173.273 141.815 169.908 143.586C167.627 144.781 166.919 145.335 167.163 145.689C167.229 145.8 171.679 145.888 177.058 145.866H186.843L191.492 142.501C194.06 140.642 196.141 138.981 196.141 138.804C196.141 138.538 195.676 138.45 193.573 138.406C192.178 138.384 190.983 138.384 190.916 138.428Z" fill="black"/>
<path d="M194.901 141.815C192.289 143.719 189.942 145.49 189.655 145.733C189.19 146.176 189.168 146.331 189.212 148.877L189.278 151.533L189.898 151.6C190.762 151.711 192.776 150.692 193.418 149.807C194.481 148.412 200.237 138.937 200.17 138.716C200.126 138.605 199.993 138.472 199.86 138.428C199.727 138.384 197.514 139.911 194.901 141.815Z" fill="black"/>
<path d="M92.5804 145.822C92.4918 145.888 92.4254 147.925 92.4254 150.338V154.721L95.4804 156.935L98.5133 159.171H122.024H145.534L151.024 156.824C154.035 155.518 156.581 154.367 156.669 154.212C156.78 154.079 156.824 152.131 156.78 149.873L156.736 145.778L124.724 145.711C107.125 145.689 92.6468 145.733 92.5804 145.822Z" fill="black"/>
<path d="M167.273 147.526C167.008 147.836 167.163 148.036 168.38 149.142C169.155 149.851 170.063 150.692 170.373 151.024L170.97 151.644H179.516H188.061V149.541V147.438H179.803C175.243 147.438 170.638 147.371 169.554 147.305C167.893 147.172 167.539 147.216 167.273 147.526Z" fill="black"/>
<path d="M40.2688 144.516C40.136 144.604 39.494 146.11 38.852 147.881C38.21 149.652 37.6344 151.223 37.5901 151.356C37.5016 151.556 37.7451 151.644 38.4092 151.644C39.2062 151.644 39.3169 151.71 39.184 152.02C38.6527 153.393 36.1954 160.167 36.1954 160.256C36.1954 160.322 38.5863 157.998 41.5085 155.075C44.4307 152.153 46.8216 149.718 46.8216 149.652C46.8216 149.585 46.4231 149.563 45.9361 149.607C44.3643 149.762 44.3422 149.718 45.2941 147.128C45.759 145.844 46.1575 144.693 46.1575 144.56C46.1575 144.294 40.6451 144.25 40.2688 144.516Z" fill="black"/>
</svg>
