<svg width="24" height="24" viewBox="0 0 24 24" fill="none" xmlns="http://www.w3.org/2000/svg">
<path d="M10.9377 2.89721C11.0039 4.55177 11.1362 4.98195 11.6326 5.08122C12.129 5.1805 12.1952 4.91577 12.1952 3.02958C12.1952 1.04411 12.129 0.845562 11.5333 0.845562C10.9046 0.845562 10.8384 1.01102 10.9377 2.89721Z" fill="white"/>
<path d="M6.04017 3.33046C5.77544 3.95919 6.93363 5.94466 7.66164 6.07702C8.42273 6.24248 8.38964 5.44829 7.52927 4.02537C6.76818 2.73482 6.33799 2.53627 6.04017 3.33046Z" fill="white"/>
<path d="M16.1003 3.29568C15.4716 3.89132 14.6774 5.77752 14.9421 6.04225C15.3392 6.43934 16.1996 5.77752 16.729 4.65242C17.3578 3.29568 16.9607 2.40222 16.1003 3.29568Z" fill="white"/>
<path d="M18.8802 7.33188C17.9868 7.86134 17.5897 8.32462 17.722 8.62244C17.9537 9.28426 18.2184 9.25117 19.6082 8.42389C20.7333 7.76207 21.1304 7.03406 20.5348 6.67006C20.3693 6.57079 19.6413 6.86861 18.8802 7.33188Z" fill="white"/>
<path d="M2.26794 7.26758C2.26794 7.86322 4.51814 9.21996 5.11378 8.98832C5.87488 8.6905 5.64324 8.16104 4.51814 7.46613C3.22759 6.70503 2.26794 6.60576 2.26794 7.26758Z" fill="white"/>
<path d="M9.65604 7.96606C8.13385 8.76024 7.5713 9.38897 6.97566 10.9443C5.88365 13.8232 7.1742 16.8014 10.0862 18.0919C12.1048 18.9854 13.9248 18.6876 15.7117 17.1654C19.6826 13.7901 17.4655 7.4366 12.3364 7.4366C11.4099 7.4366 10.2186 7.66824 9.65604 7.96606ZM14.9837 9.85225C16.4397 11.1759 16.8368 13.2937 15.9433 15.0145C15.1492 16.5697 12.7997 17.5625 11.1782 17.0661C6.31383 15.6101 7.14111 8.76024 12.171 8.76024C13.5608 8.76024 13.991 8.9257 14.9837 9.85225Z" fill="white"/>
<path d="M0.0178968 12.3287C0.084079 12.792 0.514263 12.9575 1.871 13.0237C3.59174 13.1229 4.78302 12.6597 4.38592 12.064C4.28665 11.8986 3.26083 11.7662 2.06955 11.7662C0.183352 11.7662 -0.0813765 11.8324 0.0178968 12.3287Z" fill="white"/>
<path d="M18.8798 12.3292C18.9791 12.8255 19.3431 12.9248 20.9645 12.9248C22.586 12.9248 22.95 12.8255 23.0493 12.3292C23.1485 11.8328 22.8838 11.7666 20.9645 11.7666C19.0452 11.7666 18.7805 11.8328 18.8798 12.3292Z" fill="white"/>
<path d="M3.52541 16.1337C2.7974 16.5638 2.26794 17.1264 2.26794 17.4573C2.26794 18.2846 2.89668 18.2184 4.35268 17.1926C5.37851 16.4977 5.54396 16.266 5.21305 15.8689C5.01451 15.6042 4.81596 15.4056 4.78287 15.4056C4.78287 15.4056 4.18723 15.7366 3.52541 16.1337Z" fill="white"/>
<path d="M17.8203 15.872C17.5224 16.2691 17.6879 16.5008 18.7799 17.1957C20.3683 18.2215 20.7985 18.2546 20.7985 17.4604C20.7985 17.0964 20.269 16.567 19.5079 16.1368C18.4159 15.508 18.1843 15.4749 17.8203 15.872Z" fill="white"/>
<path d="M6.603 19.5765C5.77572 20.9663 5.70954 21.6943 6.40445 21.6943C6.967 21.6943 8.22446 19.8412 8.22446 18.9478C8.22446 17.9881 7.331 18.319 6.603 19.5765Z" fill="white"/>
<path d="M14.8425 18.7161C14.8425 19.4772 16.1993 21.6943 16.6625 21.6943C17.3575 21.6943 17.2913 20.8009 16.464 19.5103C15.8022 18.4514 14.8425 17.9881 14.8425 18.7161Z" fill="white"/>
<path d="M11.0037 19.8086C10.9044 20.0733 10.8713 21.0991 10.9375 22.0588C11.0037 23.3824 11.1691 23.8457 11.5331 23.8457C12.195 23.8457 12.2612 19.6762 11.6324 19.4777C11.4008 19.3784 11.1361 19.5439 11.0037 19.8086Z" fill="white"/>
</svg>
