<svg width="17" height="27" viewBox="0 0 17 27" fill="none" xmlns="http://www.w3.org/2000/svg">
<path d="M3.89954 0.446308C-0.650862 2.50644 -1.39794 9.02641 2.60913 11.7883C3.28829 12.2411 3.80898 12.2411 3.80898 11.7883C3.80898 11.6752 3.31093 11.0865 2.69968 10.4753C0.662189 8.4378 0.390523 5.76643 1.97524 3.38935C2.79024 2.1895 4.23912 1.21603 5.52953 1.01228C9.9441 0.355753 13.2494 4.27227 11.8231 8.48308C11.5288 9.32072 11.5062 9.61502 11.7326 9.81877C12.1401 10.2263 12.7966 9.27544 13.0909 7.80392C13.7021 4.90615 12.1174 1.84991 9.35549 0.559503C7.88397 -0.142301 5.2805 -0.187578 3.89954 0.446308Z" fill="white"/>
<path d="M5.2805 2.77783C4.46551 3.07213 3.42412 3.97768 2.99398 4.81532C2.45065 5.87934 2.67704 8.39225 3.33357 8.39225C3.44676 8.39225 3.4694 7.69045 3.40148 6.85281C3.31093 5.42657 3.3562 5.2681 3.92217 4.58893C4.80509 3.52491 5.73328 3.11741 6.88786 3.25324C9.24229 3.50227 10.3969 5.58504 9.58188 8.09795C9.31021 8.98086 9.92146 8.68655 10.2837 7.781C11.0081 6.06045 10.1478 3.93241 8.33674 3.00422C7.27272 2.46088 6.36717 2.39297 5.2805 2.77783Z" fill="white"/>
<path d="M5.28042 5.33652L4.71445 5.87985V10.9962C4.71445 13.8034 4.66917 16.0899 4.60125 16.0899C4.53334 16.0899 4.19375 15.773 3.85417 15.3881C3.31084 14.7995 3.03917 14.6637 2.22418 14.6637C1.43182 14.6637 1.13752 14.7995 0.707378 15.275C-0.0397024 16.1579 0.0508528 16.9729 1.22807 19.3273C3.89945 24.6474 5.77847 26.3 9.21957 26.3453C11.6872 26.368 13.7926 25.3719 15.1509 23.4928C16.215 22.0213 16.5545 20.4819 16.5772 16.8144L16.5998 13.5544L15.9433 13.0111C15.5132 12.6262 15.083 12.4677 14.6755 12.513C14.2227 12.5583 13.8605 12.3998 13.453 11.947C13.0229 11.4943 12.6607 11.3358 12.0494 11.3358C11.4834 11.3358 11.008 11.1773 10.6685 10.8377C10.3515 10.5434 9.83082 10.3397 9.31012 10.3397L8.44985 10.2944L8.33665 7.8947C8.2461 5.81193 8.15554 5.42707 7.77068 5.13276C7.06888 4.58943 5.9143 4.67999 5.28042 5.33652ZM7.15944 5.94776C7.36319 6.15151 7.4311 7.4872 7.4311 10.5887C7.4311 14.3241 7.47638 14.9806 7.77068 15.1165C7.97443 15.1844 8.17818 15.207 8.22346 15.1391C8.26874 15.0938 8.40457 14.2336 8.49513 13.2601C8.6536 11.7886 8.74415 11.449 9.08374 11.3811C9.92137 11.2226 10.1478 11.7433 10.1478 13.8713C10.1478 15.5013 10.2157 15.9088 10.51 16.022C11.0533 16.2258 11.2797 15.6824 11.2797 14.143C11.2797 12.5809 11.6872 11.947 12.3664 12.3998C12.6607 12.5809 12.7739 13.1016 12.8644 14.8675C12.9776 16.9276 13.0229 17.1087 13.4304 17.1087C13.8379 17.1087 13.8832 16.9276 13.9511 15.524C14.019 13.7355 14.3812 13.1922 15.1962 13.6223C15.6263 13.8713 15.6263 14.0525 15.5358 17.3124C15.4 21.1837 15.1736 21.9987 13.8152 23.4023C12.4343 24.8285 11.4382 25.2587 9.3554 25.2587C7.79332 25.2587 7.40846 25.1681 6.48027 24.6474C5.03139 23.7871 4.12584 22.6552 2.63168 19.7574C1.31863 17.2672 1.09224 16.4069 1.59029 15.9088C2.11098 15.3881 2.65432 15.6598 3.87681 17.0408C5.82375 19.1915 5.84639 19.1235 5.84639 12.0376C5.84639 6.21943 5.9143 5.6761 6.63874 5.6761C6.77458 5.6761 7.00097 5.78929 7.15944 5.94776Z" fill="white"/>
</svg>
