<svg width="24" height="24" viewBox="0 0 24 24" fill="none" xmlns="http://www.w3.org/2000/svg">
<path d="M10.07 2.81985L3.14002 8.36985C2.36002 8.98985 1.86002 10.2998 2.03002 11.2798L3.36002 19.2398C3.60002 20.6598 4.96002 21.8098 6.40002 21.8098H17.6C19.03 21.8098 20.4 20.6498 20.64 19.2398L21.97 11.2798C22.13 10.2998 21.63 8.98985 20.86 8.36985L13.93 2.82985C12.86 1.96985 11.13 1.96985 10.07 2.81985Z" stroke="black" stroke-width="1.5" stroke-linecap="round" stroke-linejoin="round"/>
<path d="M9.88 14.3802C11.15 13.1702 12.85 13.1702 14.12 14.3802M16.24 12.2602C15.7247 11.7539 15.1302 11.335 14.48 11.0202C13.7053 10.6451 12.8557 10.4502 11.995 10.4502C11.1343 10.4502 10.2847 10.6451 9.51 11.0202C8.89 11.3202 8.3 11.7302 7.75 12.2602" stroke="black" stroke-width="1.5" stroke-linecap="round" stroke-linejoin="round"/>
<path d="M11.9951 17H12.0051" stroke="black" stroke-width="2" stroke-linecap="round" stroke-linejoin="round"/>
</svg>
