<svg width="25" height="28" viewBox="0 0 25 28" fill="none" xmlns="http://www.w3.org/2000/svg">
<path d="M8.52563 0.0456448C8.25831 0.164452 8.07267 0.446621 7.13706 2.13221C3.41689 8.84485 1.06301 14.0056 0.238782 17.2505C0.0160176 18.1119 -0.00625889 18.3123 0.0011666 19.248C0.00859209 21.6241 0.877374 23.7032 2.58524 25.4185C3.82529 26.666 5.34009 27.4828 7.12963 27.8689C7.84991 28.0249 9.7137 28.0472 10.4191 27.9061C12.8473 27.4234 14.9784 26.0274 16.2481 24.0745C16.9907 22.9384 17.4585 21.8097 17.3694 21.3568C17.2654 20.7999 16.6343 20.4806 16.1145 20.7331C15.8917 20.837 15.81 20.941 15.617 21.4236C14.7556 23.5102 13.6195 24.7502 11.8003 25.5967C10.8201 26.0571 10.033 26.2205 8.85977 26.2205C8.05782 26.2205 7.72367 26.1834 7.18904 26.0497C4.10746 25.2626 1.97635 22.7082 1.76101 19.545C1.72388 19.0178 1.74616 18.7133 1.87981 18.097C2.27337 16.159 3.43917 13.2556 5.46632 9.14929C6.49104 7.07016 8.79294 2.72625 8.85977 2.72625C8.88205 2.73367 9.2162 3.30543 9.60232 4.01085C10.2261 5.13953 10.3374 5.30289 10.5899 5.42912C10.835 5.54793 10.9241 5.55536 11.1617 5.4811C11.5404 5.36972 11.83 5.02072 11.83 4.67915C11.83 4.38955 11.6221 3.97373 10.3597 1.71638C9.94389 0.981256 9.52807 0.305536 9.42411 0.209005C9.23105 0.0233688 8.76324 -0.0583115 8.52563 0.0456448Z" fill="black"/>
<path d="M19.478 6.04574C19.2107 6.14227 18.9656 6.50612 18.03 8.14715C16.738 10.4342 14.7554 13.9465 12.9584 17.132C12.1639 18.5428 11.4807 19.7829 11.4436 19.8943C11.2802 20.3621 11.6738 20.9116 12.2158 20.971C12.795 21.0304 12.8396 20.9635 14.4658 18.0899C15.2826 16.6419 16.2033 15.0083 16.5152 14.4588C19.6859 8.86742 20.6141 7.18926 20.6438 6.98878C20.7403 6.40216 20.0423 5.83783 19.478 6.04574Z" fill="black"/>
<path d="M10.3148 6.92902C9.42374 7.14436 8.58466 7.76067 8.0426 8.59975C7.3149 9.721 7.30747 11.3026 8.01289 12.513C9.06731 14.31 11.5177 14.8743 13.285 13.7308C14.4953 12.9437 15.1711 11.4734 14.9631 10.0626C14.6364 7.8275 12.5127 6.39438 10.3148 6.92902ZM11.9038 8.70371C13.1959 9.15666 13.6414 10.8125 12.7429 11.8521C11.9484 12.7803 10.4262 12.7506 9.69848 11.7927C9.38661 11.3843 9.20097 10.768 9.2678 10.3522C9.47571 9.06756 10.7232 8.28788 11.9038 8.70371Z" fill="black"/>
<path d="M19.8709 13.2263C18.5938 13.5382 17.5245 14.5703 17.1458 15.8623C17.0121 16.3227 16.9899 17.2955 17.1087 17.793C17.2943 18.5949 17.9403 19.5305 18.6235 19.9909C19.2918 20.429 19.9081 20.6221 20.71 20.6221C21.8016 20.6221 22.7001 20.2731 23.3981 19.5602C24.9129 18.0157 24.898 15.7064 23.3758 14.199C22.455 13.2931 21.1259 12.9218 19.8709 13.2263ZM21.4451 15.0307C21.9501 15.2015 22.4624 15.7212 22.6332 16.2336C22.8857 16.9984 22.6778 17.8078 22.0837 18.3424C21.6753 18.7137 21.3338 18.84 20.7472 18.84C19.6185 18.84 18.8091 18.0231 18.8091 16.8945C18.8165 15.4911 20.1086 14.5703 21.4451 15.0307Z" fill="black"/>
</svg>
