<svg width="167" height="120" viewBox="0 0 167 120" fill="none" xmlns="http://www.w3.org/2000/svg">
<rect x="5.44775" y="5.68384" width="20.6053" height="7.57896" fill="#1E1E1E"/>
<path d="M64.4224 48.552H79.3434V52.4599C79.3434 56.5802 76.0032 59.9204 71.8829 59.9204C67.7626 59.9204 64.4224 56.5802 64.4224 52.4599V48.552Z" fill="white"/>
<path d="M6.86865 57.0784H31.0266C31.0266 59.302 29.2239 61.1047 27.0003 61.1047H10.895C8.67129 61.1047 6.86865 59.302 6.86865 57.0784Z" fill="white"/>
<path d="M85.7373 52.8165H100.658C100.658 56.7407 97.4772 59.9218 93.5531 59.9218H92.8426C88.9184 59.9218 85.7373 56.7407 85.7373 52.8165Z" fill="white"/>
<path d="M0 1.73725V3.47409H1.10527H2.21053V16.1057V28.7373H83.2107H164.211V16.1057V3.47409H165.158C166.106 3.47409 166.106 3.44251 166.106 1.73725V0.000402451H83.0528H0V1.73725ZM78.5686 13.8004L78.4738 24.1583H68.2107H57.9475L57.8528 13.8004L57.7896 3.47409H68.2107H78.6317L78.5686 13.8004ZM108.632 13.8952V24.3162L98.3055 24.2531L87.9476 24.1583L87.8528 13.8004L87.7897 3.47409H98.2107H108.632V13.8952ZM26.2106 15.7899V25.5794H15.7895H5.36843V15.7899V6.00041H15.7895H26.2106V15.7899ZM132.632 15.7899V25.5794H122.211H111.79V15.7899V6.00041H122.211H132.632V15.7899ZM161.053 15.7899V25.5794H150.632H140.211V15.7899V6.00041H150.632H161.053V15.7899ZM50.7159 10.1688C50.4317 10.5478 49.8948 11.0531 49.5159 11.2741C48.8843 11.6215 49.1054 11.6531 51.2527 11.6846C52.5791 11.6846 53.6843 11.811 53.6843 11.9373C53.6843 12.6004 51.0001 14.211 49.2001 14.6531C48.6948 14.7478 48.3159 15.0004 48.3159 15.1583C48.3159 15.6636 41.0527 15.5689 40.4527 15.0636C40.1685 14.811 39.3159 14.4636 38.5896 14.2425C37.8317 14.0215 36.6948 13.3583 36.0632 12.7899L34.8948 11.7162L37.4211 11.6846H39.9475L38.9369 10.8636C38.3685 10.4215 37.8948 9.91621 37.8948 9.75832C37.8948 9.60042 40.6738 9.47411 44.558 9.47411H51.1896L50.7159 10.1688ZM52.958 22.6426C53.5264 24.4426 52.7685 25.0741 49.8001 25.2005L47.5264 25.3268L46.958 24.1899C46.6738 23.5583 46.4212 22.6741 46.4212 22.2636C46.4212 21.4741 46.4527 21.4741 49.5159 21.4741H52.5791L52.958 22.6426ZM41.2738 22.7689C41.7159 23.9373 41.4948 24.632 40.7369 24.632C40.3896 24.632 40.0422 24.7583 39.9475 24.9478C39.8527 25.1057 38.9369 25.2636 37.9264 25.2636H36.0632L35.4001 23.8426C35.0211 23.0531 34.7369 22.2952 34.7369 22.1057C34.7369 21.9162 35.9685 21.7899 37.8317 21.7899H40.9264L41.2738 22.7689ZM79.8949 25.8952C79.8949 26.2426 79.6739 26.5268 79.4212 26.5268C79.1686 26.5268 78.9475 26.2426 78.9475 25.8952C78.9475 25.5478 79.1686 25.2636 79.4212 25.2636C79.6739 25.2636 79.8949 25.5478 79.8949 25.8952ZM82.6107 25.611C82.9265 26.1478 82.2002 26.7478 81.7581 26.3057C81.3791 25.9268 81.6318 25.2636 82.1054 25.2636C82.2633 25.2636 82.4844 25.4215 82.6107 25.611ZM85.137 25.611C85.4528 26.1478 84.7265 26.7478 84.2844 26.3057C83.9054 25.9268 84.1581 25.2636 84.6318 25.2636C84.7896 25.2636 85.0107 25.4215 85.137 25.611ZM87.6633 25.611C87.9791 26.1478 87.2528 26.7478 86.8107 26.3057C86.4318 25.9268 86.6844 25.2636 87.1581 25.2636C87.316 25.2636 87.537 25.4215 87.6633 25.611Z" fill="white"/>
<path d="M52.2633 23.7161C52.1369 23.9055 52.1054 24.095 52.2001 24.1897C52.2633 24.2845 52.4212 24.1266 52.5159 23.8424C52.7369 23.3055 52.5475 23.2108 52.2633 23.7161Z" fill="white"/>
<path d="M40.6417 23.4951C40.5154 23.8109 40.4838 24.1582 40.5785 24.253C40.8627 24.5372 41.1154 24.0635 40.989 23.4635C40.8943 22.9266 40.8627 22.9266 40.6417 23.4951Z" fill="white"/>
<path d="M113.368 34.1043C113.368 34.6095 113.589 34.7358 114.442 34.7358C115.421 34.7358 115.516 34.8306 115.705 35.9043C115.8 36.5674 115.926 38.8095 115.958 40.8937L116.021 44.6832L116.21 40.1043C116.337 37.578 116.463 35.4306 116.494 35.2727C116.494 35.1464 117.726 35.0516 119.21 35.0516C121.863 35.0516 121.894 35.0516 121.894 35.8411C121.894 36.2832 122.052 36.6306 122.21 36.6306C122.4 36.6306 122.526 36.1885 122.526 35.6832V34.7358H125.179C127.831 34.7358 127.863 34.7358 127.958 35.5885C128.084 36.8201 128.842 36.9148 128.842 35.7148C128.842 34.8937 128.968 34.7358 129.631 34.7358C130.2 34.7358 130.421 34.5779 130.421 34.1043C130.421 33.4727 130.2 33.4727 121.894 33.4727C113.589 33.4727 113.368 33.4727 113.368 34.1043Z" fill="white"/>
<path d="M141.695 34.1046C141.537 34.7046 141.695 34.7361 144.284 34.7361C145.989 34.7361 147.189 34.894 147.411 35.1151C147.695 35.3993 147.789 35.3993 147.789 35.1151C147.789 34.8309 149.242 34.7361 153.347 34.7361C158.463 34.7361 158.874 34.7046 158.779 34.1677C158.684 33.6625 157.99 33.6309 150.284 33.5361C142.074 33.473 141.853 33.473 141.695 34.1046Z" fill="white"/>
<path d="M71.3066 45.189C71.2435 45.4101 69.6329 45.9469 67.7382 46.389C65.875 46.8311 64.2645 47.368 64.2013 47.5575C64.0119 48.1259 65.654 48.2522 72.0014 48.2522C78.1908 48.2522 79.6751 48.1259 79.4856 47.589C79.3908 47.2417 74.5908 45.8522 73.3908 45.8206C73.0119 45.789 72.6329 45.568 72.5066 45.3153C72.3171 44.7469 71.4645 44.6838 71.3066 45.189Z" fill="white"/>
<path d="M11.5257 45.4107C9.12569 46.2318 8.8099 47.116 8.77832 52.6423V57.316L9.5678 57.4108L10.3888 57.5055L10.4836 52.9581C10.5783 48.9792 10.6731 48.2844 11.1783 47.716C12.4099 46.3897 14.5257 47.3686 14.5257 49.2634C14.5257 50.116 14.6204 50.2107 15.4731 50.2107C16.2625 50.2107 16.4204 50.0844 16.4204 49.4213C16.4204 48.3476 15.6941 46.7055 14.9678 46.0423C14.2731 45.4423 12.4415 45.0949 11.5257 45.4107Z" fill="white"/>
<path d="M92.6523 50.9992C92.4944 51.3782 91.7997 51.4729 89.0207 51.4729C86.1786 51.4729 85.5786 51.5677 85.5786 51.9466C85.5786 52.3571 86.6523 52.4203 93.3155 52.4203C99.9786 52.4203 101.052 52.3571 101.052 51.9466C101.052 51.5677 100.452 51.4729 97.6102 51.4729C94.8313 51.4729 94.1365 51.3782 93.9786 50.9992C93.8839 50.7466 93.5997 50.5255 93.3155 50.5255C93.0313 50.5255 92.747 50.7466 92.6523 50.9992Z" fill="white"/>
<path d="M58.737 60.7894V61.5788H29.3685H0V63.1262C0 64.6736 0.031579 64.7052 1.04211 64.7999L2.05264 64.8946L2.14737 90.6315L2.21053 116.368L3.78948 116.274L5.36843 116.147V118.074V120H83.2107H161.053V118.105V116.211H162.474H163.895V90.4736V64.7367H165H166.106V63.1578V61.5788L140.937 61.5157C127.074 61.4525 113.779 61.4841 111.411 61.5473L107.053 61.642V60.8209V59.9999H82.8949H58.737V60.7894ZM107.053 86.9999V108.947H83.0528H59.0528V86.9999V65.0525H83.0528H107.053V86.9999ZM2.74737 95.4315C2.68422 96.1894 2.62106 95.5894 2.62106 94.1052C2.62106 92.621 2.68422 92.021 2.74737 92.7473C2.81053 93.5052 2.81053 94.7052 2.74737 95.4315ZM107.053 113.368V116.526H83.0528H59.0528V113.368V110.211H83.0528H107.053V113.368Z" fill="white"/>
<path d="M72.1265 70.2306C71.8107 71.0517 72.2529 71.7464 73.0107 71.6201C73.5476 71.5569 73.7371 71.3043 73.7371 70.7359C73.7371 70.1675 73.5476 69.9148 73.0107 69.8517C72.6002 69.7885 72.2213 69.9464 72.1265 70.2306Z" fill="white"/>
<path d="M78.9482 70.2634C78.4745 70.8318 79.0114 71.6844 79.8956 71.6844C80.6219 71.6844 80.9693 70.8002 80.4956 70.2318C80.0219 69.6634 79.4535 69.6634 78.9482 70.2634Z" fill="white"/>
<path d="M85.7051 70.2306C85.3894 71.0517 85.8315 71.7464 86.5894 71.6201C87.1262 71.5569 87.3157 71.3043 87.3157 70.7359C87.3157 70.1675 87.1262 69.9148 86.5894 69.8517C86.1788 69.7885 85.7999 69.9464 85.7051 70.2306Z" fill="white"/>
<path d="M92.6522 70.2634C92.368 70.9897 92.747 71.6844 93.4417 71.6844C94.1049 71.6844 94.4838 70.9897 94.2312 70.2634C94.1049 70.0108 93.7575 69.7897 93.4417 69.7897C93.0943 69.7897 92.747 70.0108 92.6522 70.2634Z" fill="white"/>
<path d="M79.3899 112.894C79.0426 113.81 79.611 113.999 82.7689 113.999C85.3584 113.999 85.9584 113.904 86.1163 113.494C86.432 112.673 85.611 112.42 82.4847 112.42C80.211 112.42 79.5162 112.515 79.3899 112.894Z" fill="white"/>
</svg>
