<svg width="198" height="127" viewBox="0 0 198 127" fill="none" xmlns="http://www.w3.org/2000/svg">
<path d="M162.665 0.0979881C162.665 0.193373 162.665 3.95157 162.684 8.43471L162.722 16.5997L162.055 17.5917C161.521 18.3739 159.444 23.2577 159.444 23.7346C159.444 23.7918 159.196 24.3641 158.872 25.0128C158.567 25.6423 158.3 26.3291 158.3 26.558C158.3 26.9586 159.215 28.5611 159.901 29.3051C160.244 29.7248 160.416 29.7439 162.817 29.7439H165.352L166.4 28.3322C166.972 27.55 167.449 26.806 167.449 26.7106C167.449 26.5008 166.515 24.1734 165.467 21.7315C165.123 20.9493 164.685 19.881 164.495 19.385C164.323 18.889 163.866 18.0305 163.523 17.4964L162.855 16.5234L162.894 8.33932C162.894 3.83711 162.855 0.0979881 162.798 0.0407562C162.741 -0.035553 162.684 0.00260162 162.665 0.0979881ZM162.112 19.5185C162.112 19.6712 161.864 20.7776 161.559 21.9604C161.254 23.1432 160.911 24.6121 160.778 25.2035L160.568 26.2909L159.596 26.4817C159.063 26.6152 158.586 26.6534 158.529 26.5962C158.472 26.5389 158.605 26.1002 158.834 25.6423C159.177 24.9174 159.882 23.1241 161.14 19.7665C161.35 19.2133 162.112 19.0225 162.112 19.5185ZM164.171 21.121C164.514 22.1321 164.971 23.5629 165.181 24.3069C165.39 25.0318 165.6 25.7949 165.657 25.9666C165.752 26.2909 165.543 26.31 163.256 26.31C160.969 26.31 160.759 26.2909 160.835 25.9666C160.892 25.7949 161.254 24.2115 161.655 22.4564L162.398 19.2515H162.97C163.523 19.2515 163.561 19.3087 164.171 21.121ZM164.399 19.6712C164.495 19.9192 165.181 21.5598 165.905 23.3149C166.648 25.0891 167.258 26.558 167.258 26.6152C167.258 26.7297 166.248 26.4817 166.057 26.31C165.981 26.2528 165.714 25.4134 165.447 24.4786C165.2 23.5438 164.78 22.2656 164.514 21.6361C163.923 20.1481 163.732 19.2515 163.999 19.2515C164.113 19.2515 164.304 19.4422 164.399 19.6712ZM165.352 26.6152C165.352 26.6916 165.028 27.0922 164.647 27.5309C164.247 27.9506 163.77 28.523 163.599 28.79C163.256 29.267 163.256 29.267 162.951 28.8854C162.798 28.6756 162.36 28.046 162.017 27.4928L161.369 26.5008H163.37C164.456 26.5008 165.352 26.558 165.352 26.6152ZM166.972 26.8823C167.048 26.9968 166.21 28.3322 165.714 28.8854C165.543 29.0571 165.6 28.542 165.848 27.302C165.905 27.0159 165.867 26.9014 165.733 26.9777C165.638 27.0349 165.543 27.3211 165.543 27.6073C165.543 27.8934 165.447 28.4466 165.333 28.8282C165.143 29.534 165.123 29.5531 164.285 29.5531H163.427L163.98 28.7328C165.009 27.2639 165.848 26.5389 166.381 26.6343C166.667 26.6916 166.915 26.806 166.972 26.8823ZM160.969 27.8743C161.083 28.542 161.235 29.1907 161.274 29.3051C161.312 29.4577 161.14 29.5531 160.816 29.5531C160.359 29.5531 160.13 29.3433 159.387 28.2559C158.529 27.0159 158.51 26.9777 158.929 26.8442C159.158 26.7869 159.653 26.7297 160.035 26.7106L160.721 26.6916L160.969 27.8743ZM162.207 28.2177C162.57 28.8282 162.874 29.3624 162.874 29.4387C162.874 29.4959 162.589 29.5531 162.226 29.5531C161.598 29.5531 161.578 29.534 161.274 28.3131C161.102 27.6454 160.969 26.9968 160.969 26.8632C160.969 26.4817 161.502 27.054 162.207 28.2177Z" fill="white"/>
<path d="M168.782 0.0405197C168.725 0.0977516 168.687 6.18337 168.706 13.5472L168.725 26.9584L168.077 27.855C167.734 28.351 167.277 29.2095 167.086 29.7627C166.648 30.9837 164.971 35.276 164.532 36.249L164.227 36.9358L165.161 38.3856C166.248 40.0644 166.209 40.0453 169.316 39.9881L171.489 39.969L172.518 38.5001C173.09 37.6988 173.547 36.9739 173.547 36.8976C173.547 36.7068 170.993 30.5449 170.231 28.8852C169.888 28.1412 169.469 27.3972 169.297 27.2255C169.011 26.9393 168.973 25.6612 168.935 13.4327C168.897 6.01167 168.84 0.00236511 168.782 0.0405197ZM168.211 29.6292C168.211 29.7818 167.925 31.06 167.563 32.4526C167.201 33.8453 166.857 35.3333 166.781 35.753C166.667 36.5161 166.648 36.5351 165.619 36.7259C164.437 36.9358 164.361 36.8404 164.952 35.6957C165.256 35.1043 165.962 33.3111 167.239 29.8772C167.448 29.324 168.211 29.1332 168.211 29.6292ZM170.25 31.3652C170.612 32.4145 171.089 33.9025 171.298 34.6656C171.508 35.4287 171.718 36.0201 171.775 35.9819C171.889 35.8674 171.108 33.1585 170.593 31.8994C170.059 30.564 169.812 29.3621 170.078 29.3621C170.174 29.3621 170.364 29.6483 170.498 29.9726C170.612 30.316 170.974 31.1554 171.26 31.8422C171.565 32.5289 172.156 33.9216 172.594 34.9708L173.395 36.8594L172.671 37.8896C171.927 38.9579 171.489 39.3967 171.698 38.8244C171.775 38.6336 171.832 38.0995 171.832 37.6416V36.7831L172.556 36.8785L173.261 36.993L172.651 36.7641C172.308 36.6496 172.023 36.4779 172.023 36.3634C172.023 36.249 171.927 36.2681 171.775 36.3825C171.622 36.5161 170.707 36.5351 169.202 36.4779C167.181 36.3825 166.877 36.3253 166.953 36.0582C166.991 35.8865 167.353 34.3031 167.753 32.548L168.497 29.343L169.03 29.4003C169.545 29.4575 169.621 29.591 170.25 31.3652ZM170.441 36.7259L171.413 36.8594L170.345 38.1758C169.126 39.6638 169.354 39.7019 168.115 37.7752C167.753 37.2219 167.448 36.7259 167.448 36.6878C167.448 36.5733 169.335 36.5924 170.441 36.7259ZM167.01 37.8515C167.143 38.3665 167.258 39.0342 167.258 39.3395C167.258 39.8164 167.201 39.8546 166.743 39.7401C166.438 39.6638 166.209 39.6066 166.209 39.5875C166.209 39.5684 165.828 39.0342 165.39 38.3856L164.57 37.2028L165.104 37.0693C165.39 37.0121 165.733 36.9358 165.828 36.8976C166.457 36.6687 166.762 36.9358 167.01 37.8515ZM167.677 37.5081C168.344 38.5192 168.973 39.5875 168.973 39.7401C168.973 39.7973 168.668 39.8546 168.306 39.8546C167.734 39.8546 167.62 39.7783 167.525 39.3204C167.467 39.0342 167.296 38.3475 167.162 37.7942C167.029 37.2601 166.972 36.8022 167.067 36.8022C167.143 36.8022 167.429 37.1265 167.677 37.5081ZM171.451 38.8625C171.222 39.8736 171.222 39.8927 170.65 39.7783C170.326 39.721 169.945 39.6638 169.793 39.6638C169.488 39.6638 170.04 38.7862 171.05 37.6988C171.47 37.2219 171.565 37.2028 171.622 37.489C171.66 37.6798 171.584 38.2902 171.451 38.8625Z" fill="white"/>
<path d="M174.882 4.82912V9.6938L174.31 10.5141C174.005 10.972 173.262 12.5745 172.69 14.1006C172.099 15.6268 171.375 17.401 171.07 18.0687C170.746 18.7173 170.498 19.4041 170.498 19.5948C170.498 19.7856 170.898 20.5487 171.413 21.2736L172.309 22.59L174.786 22.6853C176.159 22.7426 177.378 22.7426 177.512 22.6853C177.855 22.5137 179.646 19.9764 179.646 19.633C179.646 19.4613 179.17 18.1641 178.579 16.7524C177.988 15.3597 177.34 13.7572 177.131 13.2422C176.692 12.0784 175.873 10.495 175.492 10.0372C175.244 9.77011 175.206 8.96887 175.244 4.96266C175.282 1.7577 175.225 0.174295 175.091 0.0789089C174.939 0.00260162 174.882 1.41431 174.882 4.82912ZM174.253 13.1849L174.157 14.196L174.386 13.2422C174.596 12.3837 174.672 12.2883 175.206 12.2311C175.777 12.1738 175.796 12.1929 176.311 13.7572C176.997 15.8557 177.931 18.9271 177.931 19.0988C177.931 19.1942 176.826 19.2515 175.492 19.2515C174.138 19.2515 172.556 19.3468 171.947 19.4613C171.337 19.5758 170.803 19.6139 170.746 19.5758C170.708 19.5185 170.86 19.0607 171.108 18.5456C171.375 18.0496 172.042 16.409 172.595 14.9019C173.433 12.7271 173.7 12.1929 174.005 12.1929C174.329 12.1929 174.348 12.3074 174.253 13.1849ZM176.902 13.2803C177.131 13.8908 177.798 15.5314 178.408 16.924C178.998 18.3358 179.437 19.5185 179.38 19.5758C179.342 19.633 179.056 19.5948 178.751 19.4995C178.274 19.3278 178.16 19.1179 177.721 17.5154C177.436 16.5234 176.997 15.1689 176.73 14.4822C176.082 12.7461 175.968 12.1929 176.254 12.1929C176.387 12.1929 176.692 12.6889 176.902 13.2803ZM177.55 19.6139C177.55 19.6712 177.112 20.2435 176.597 20.873C176.063 21.5026 175.644 22.094 175.644 22.2084C175.663 22.3038 175.892 22.094 176.178 21.7315C176.464 21.369 176.978 20.7776 177.302 20.3961C178.007 19.633 178.065 19.7856 177.683 21.4453L177.455 22.3992L176.578 22.4564C175.587 22.5137 175.53 22.4564 174.215 20.4342L173.567 19.4232L175.549 19.4613C176.654 19.4804 177.55 19.5376 177.55 19.6139ZM173.166 20.625C173.605 22.6281 173.605 22.4946 172.995 22.4946C172.537 22.4946 172.328 22.3038 171.661 21.2927C171.241 20.625 170.879 20.0336 170.879 19.9573C170.879 19.8429 171.565 19.7093 172.442 19.6521C172.9 19.633 172.957 19.7284 173.166 20.625ZM174.577 21.369L175.244 22.4946H174.52C173.814 22.4946 173.795 22.4946 173.567 21.4835C173.452 20.9493 173.3 20.2816 173.224 20.0145C173.109 19.5376 173.109 19.5376 173.509 19.9001C173.719 20.0909 174.215 20.7586 174.577 21.369ZM179.056 19.8047C179.246 19.9382 179.151 20.1862 178.598 20.9875L177.893 22.0176L178.007 21.2546C178.065 20.8349 178.122 20.3007 178.122 20.0527C178.122 19.6139 178.56 19.4995 179.056 19.8047Z" fill="white"/>
<path d="M173.929 14.3481C173.929 14.4054 173.7 15.3402 173.433 16.3894C173.166 17.4577 172.976 18.507 173.014 18.7359C173.052 18.9648 173.3 18.0873 173.586 16.79C173.872 15.4737 174.081 14.3672 174.024 14.3291C173.967 14.2718 173.929 14.2718 173.929 14.3481Z" fill="white"/>
<path d="M101.18 7.74773C100.875 8.22466 100.837 8.70159 100.913 12.9558C101.066 20.8156 101.027 42.0103 100.875 49.6793C100.78 54.1815 100.78 57.024 100.894 57.1767C101.085 57.4628 109.928 57.6917 128.11 57.9207C135.01 57.997 136.344 57.9779 136.535 57.749C136.992 57.1767 137.145 52.0067 137.145 36.8022C137.145 28.2557 137.24 19.0223 137.354 16.2943C137.488 13.2992 137.507 10.7619 137.411 9.90345L137.24 8.47267L135.143 8.33913C134 8.26282 126.662 8.16743 118.848 8.1102C105.411 8.01482 103.524 7.93851 102.209 7.4425C101.504 7.17542 101.561 7.15634 101.18 7.74773ZM119.686 9.42653C130.798 9.6173 135.734 9.75084 135.887 9.90345C136.153 10.1705 136.153 13.0512 135.868 24.0015C135.734 28.6563 135.696 33.9216 135.753 35.7339C135.81 37.5272 135.791 42.8116 135.715 47.4855L135.582 55.9748L133.352 55.9176C132.132 55.8794 129.216 55.9748 126.853 56.1274C123.289 56.3754 120.887 56.3945 112.749 56.2419C107.355 56.1465 102.724 56.032 102.495 55.9748L102.038 55.8603L102.152 51.7206C102.209 49.4504 102.323 38.9007 102.438 28.3129C102.533 17.706 102.628 9.00683 102.628 8.96867C102.647 8.93052 102.876 8.96867 103.181 9.02591C103.467 9.10221 110.9 9.27391 119.686 9.42653Z" fill="white"/>
<path d="M9.63851 14.9589C9.63851 15.2641 9.61945 19.3466 9.60039 24.0205L9.54321 32.5099L12.5927 32.6243C14.2699 32.7006 17.205 32.7579 19.0919 32.7769C22.5416 32.796 22.5606 32.796 22.6559 32.3572C22.7131 32.1283 22.7893 28.0649 22.8275 23.3528L22.8846 14.7681L19.5493 14.6346C17.7196 14.5583 14.7273 14.4819 12.9167 14.4438L9.63851 14.3866V14.9589ZM20.9215 23.5245C20.9025 26.8821 20.8262 29.6674 20.7691 29.7246C20.5975 29.9154 16.0043 29.9917 13.6981 29.8391L11.5444 29.7055V25.2796C11.5444 22.8377 11.6016 20.0716 11.6588 19.1368L11.7922 17.4389H16.3855H20.9787L20.9215 23.5245Z" fill="white"/>
<path d="M73.6013 16.9239C73.5441 17.0193 73.4678 22.2083 73.4488 28.4274L73.3916 39.7593L77.9658 39.8737C80.4816 39.95 84.1791 40.0073 86.1803 40.0263L89.8397 40.0454L89.954 38.8435C90.1256 36.9358 90.1827 17.5725 90.0112 17.4008C89.9159 17.3245 86.3518 17.21 82.1016 17.1528C77.8324 17.0956 74.2111 16.9811 74.0396 16.8857C73.849 16.8094 73.6584 16.8285 73.6013 16.9239ZM87.5907 17.8777L89.5919 18.0113L89.5347 26.4052C89.5157 31.0219 89.4394 35.7912 89.3823 36.9931L89.2679 39.1869L87.8003 39.206C82.4638 39.2823 74.173 39.2632 74.0015 39.1488C73.8871 39.0725 73.849 38.2903 73.9443 36.9168C74.0015 35.753 74.0777 31.4988 74.0968 27.4545C74.1159 23.4101 74.154 19.5565 74.2111 18.8698L74.2683 17.6297L79.9289 17.687C83.0355 17.7251 86.4853 17.8014 87.5907 17.8777Z" fill="white"/>
<path d="M30.0129 21.4641C29.7842 21.7502 29.7461 24.5927 29.7461 41.1708C29.7461 51.8349 29.6698 62.6135 29.5745 65.1317C29.4983 67.7834 29.4983 70.0345 29.5936 70.4733C29.7651 71.2173 29.7842 71.2364 30.6037 71.2555C41.0482 71.5035 49.9107 71.6179 56.8101 71.6179H65.3677L65.5392 70.9502C65.6345 70.5878 65.787 61.6024 65.8823 51.0146C65.9585 40.4077 66.0919 29.8962 66.1491 27.6451C66.2253 25.2795 66.2063 23.2573 66.111 22.8758C65.9394 22.2462 65.8823 22.2081 65.0818 22.2081C64.6244 22.189 61.6702 22.1127 58.5254 22.0364C55.3807 21.941 48.2716 21.8647 42.7063 21.8265C35.3876 21.8075 32.3953 21.7311 31.8426 21.5594C30.4322 21.1207 30.2988 21.1207 30.0129 21.4641ZM39.7521 23.1047C55.6475 23.4099 64.815 23.6007 64.8721 23.6198C64.9103 23.6198 64.8912 25.2413 64.834 27.2063C64.7959 29.1903 64.6625 39.3775 64.5672 49.87C64.4528 60.3624 64.3575 69.1188 64.3575 69.3477C64.3385 69.7293 64.2241 69.7484 59.1544 69.9201C53.6082 70.0917 34.2059 70.0345 32.1285 69.8247L30.8896 69.7102L30.9087 66.4671C30.9658 61.3735 31.328 24.1921 31.347 23.3909C31.3661 22.8567 31.4233 22.7041 31.6139 22.8185C31.7282 22.8949 35.4066 23.0284 39.7521 23.1047Z" fill="white"/>
<path d="M194.799 32.7579C190.968 34.78 188.166 36.8213 185.765 39.3967C183.192 42.1629 181.762 44.8719 180.905 48.6682C180.504 50.3852 180.314 50.843 179.361 52.2547C178.293 53.819 176.407 57.4437 176.407 57.9206C176.407 58.0542 176.311 58.1686 176.216 58.1686C175.987 58.1686 176.044 57.8443 176.921 54.7348C178.999 47.2947 182.448 40.1216 186.336 35.1425C188.414 32.4908 186.794 33.9406 183.173 37.985C179.475 42.1247 177.988 44.7002 176.978 48.7064C176.464 50.7095 176.292 52.0639 175.854 57.6917C175.663 59.8665 175.282 61.9841 175.072 61.9841C175.015 61.9841 174.748 61.5262 174.463 60.973C173.986 60.0954 173.929 59.7711 173.929 58.264C173.948 53.6855 175.187 46.9894 176.845 42.5635C177.207 41.6097 177.474 40.8084 177.436 40.8084C177.302 40.8084 175.358 44.8146 174.348 47.142C172.938 50.3852 172.137 53.1513 171.737 56.1465L171.604 57.0812L169.869 55.3643C168.897 54.4295 167.525 53.1513 166.782 52.5218L165.448 51.3962L166.61 52.7317C168.059 54.3914 170.193 57.2148 171.032 58.5883C171.47 59.3514 171.718 60.0764 171.909 61.2401C172.061 62.1176 172.347 63.3386 172.557 63.9299C172.766 64.5404 172.881 65.0364 172.823 65.0364C172.747 65.0364 172.099 63.8536 171.375 62.4228C167.925 55.4788 165.448 53.2086 157.824 50.0608C155.785 49.2215 155.594 49.2215 157.138 50.0799C160.244 51.7969 163.332 54.2387 166.553 57.5009C168.364 59.3133 171.623 63.1859 171.813 63.7392C171.851 63.8536 171.222 63.3767 170.422 62.6709C169.602 61.965 168.364 61.0111 167.639 60.5342C166.705 59.9428 166.057 59.3133 165.371 58.3785C162.817 54.8492 159.806 52.9415 154.812 51.6824C152.945 51.2055 148.066 50.6141 147.837 50.8239C147.818 50.8621 148.161 50.9956 148.599 51.1101C153.059 52.2547 158.739 54.7157 162.474 57.1003C163.16 57.5582 164.113 58.1496 164.552 58.4357C165.009 58.7219 165.352 58.989 165.314 59.0271C165.276 59.0843 164.132 58.6265 162.779 58.0542C159.253 56.5089 157.252 56.032 154.298 56.0129C152.659 56.0129 151.496 56.1083 150.581 56.3182C149.076 56.6997 146.141 58.0923 145.169 58.9127L144.501 59.4468L147.456 59.5804C150.753 59.733 153.917 59.5231 157.328 58.9127C159.634 58.493 162.379 58.493 163.827 58.9127C165.219 59.3323 170.517 62.7853 170.212 63.0905C170.174 63.1287 169.736 63.0142 169.221 62.8235C167.849 62.2893 165.085 62.3656 160.587 63.0905C158.548 63.4339 156.585 63.701 156.261 63.701C155.251 63.701 155.537 64.0253 157.119 64.6167C159.215 65.437 160.645 65.666 162.913 65.5706C164.533 65.4943 165.238 65.3607 166.972 64.7693C170.574 63.5484 171.108 63.6056 172.499 65.3607C173.395 66.4863 174.215 67.8789 174.062 68.0125C174.024 68.0506 173.433 67.8408 172.766 67.5355C171.299 66.8488 169.545 66.3718 168.497 66.3718C168.078 66.3718 166.801 66.5817 165.657 66.8488C164.094 67.2112 163.503 67.2684 163.218 67.1158C162.932 66.9632 162.855 66.9632 162.951 67.1158C163.103 67.3448 162.951 67.3829 161.826 67.3638L161.064 67.3448L161.922 67.7263C162.398 67.9361 163.465 68.3177 164.285 68.5466C165.448 68.89 166.076 69.2143 166.953 69.9202L168.116 70.855L167.315 70.9122C166.648 70.9694 166.381 70.855 165.619 70.2826C163.827 68.9091 162.246 68.3177 158.891 67.7072C156.109 67.2112 155.746 67.2303 157.538 67.7835C159.387 68.3368 160.549 68.8328 162.703 69.9011C164.914 71.0266 169.888 74.2888 169.679 74.4987C169.641 74.5368 169.012 74.2888 168.287 73.9264C167.563 73.583 166.496 73.1251 165.924 72.9534C165.352 72.7627 164.514 72.2857 164.056 71.9042C162.913 70.8931 160.797 69.8248 159.31 69.5196C157.862 69.2143 156.89 69.1571 157.862 69.4432C158.281 69.5768 158.529 69.7676 158.605 70.0919C158.701 70.4925 158.986 70.6451 160.664 71.1411C162.97 71.847 164.266 72.3048 164.171 72.4002C164.132 72.4384 163.294 72.343 162.303 72.1904C160.111 71.847 159.787 71.847 160.263 72.114C160.435 72.2094 160.587 72.4384 160.587 72.591C160.587 72.8771 160.759 72.8771 162.512 72.5528C163.122 72.4384 165.524 72.9725 166.686 73.4685C167.163 73.6784 167.754 73.9455 168.02 74.0599C168.44 74.2316 168.287 74.2888 166.972 74.3842C165.791 74.4987 165.028 74.7085 163.542 75.3381C162.493 75.7769 160.873 76.4827 159.939 76.8643C158.739 77.3793 158.357 77.6083 158.605 77.6846C160.225 78.1615 162.836 77.9326 164.514 77.1695C165.047 76.9215 166.038 76.3683 166.705 75.9295C167.372 75.4907 168.249 75.0329 168.649 74.9184C169.317 74.7085 169.412 74.7467 170.365 75.4144C170.898 75.7959 171.661 76.3683 172.023 76.6926L172.69 77.284L172.118 77.1695C171.813 77.0932 170.727 76.9978 169.736 76.9406L167.925 76.8261L166.115 77.7418C165.124 78.2187 163.961 78.7338 163.542 78.8674L162.779 79.0963L164.209 79.2298C166.019 79.4015 167.163 79.1726 169.183 78.2569C170.479 77.6846 171.013 77.532 171.966 77.532H173.147L172.728 77.0741C172.499 76.8261 171.89 76.2729 171.356 75.8722C170.841 75.4526 170.022 74.6704 169.564 74.1553L168.707 73.2014L169.564 73.335C170.022 73.4113 170.517 73.5639 170.651 73.6784C171.184 74.0981 173.224 77.1313 173.281 77.551C173.3 77.799 173.662 78.4095 174.1 78.9055C174.52 79.4015 174.844 79.8212 174.806 79.8594C174.787 79.8785 174.386 79.7258 173.929 79.4969C172.614 78.8483 171.47 78.9246 169.45 79.8021C168.116 80.3935 167.506 80.5652 166.705 80.5462H165.657L166.591 81.0231C167.277 81.3665 167.944 81.5191 169.069 81.5763C170.403 81.6717 170.803 81.6145 172.309 81.0994C175.32 80.1074 175.091 80.0692 175.911 81.6145C176.521 82.7973 176.673 82.9499 177.131 82.9308C177.417 82.9117 177.817 82.9499 178.046 83.0262C178.408 83.1597 178.465 83.0834 178.56 82.1677C178.636 81.6145 178.694 80.8705 178.694 80.5271C178.694 79.7449 178.922 79.7449 181.209 80.508C183.84 81.3855 186.546 81.2902 188.033 80.2409C188.376 80.012 188.299 79.9738 187.308 79.9738C186.47 79.9929 185.841 79.8212 184.545 79.2871C182.582 78.4477 181.305 78.3523 180.123 78.9627C179.723 79.1726 179.342 79.3061 179.304 79.2489C179.113 79.0772 181.019 77.055 181.476 76.9406C182.143 76.7689 183.153 76.9978 184.983 77.7609C185.879 78.1234 187.08 78.5049 187.651 78.5812C188.852 78.772 191.235 78.5431 190.606 78.3141C190.396 78.2378 189.367 77.7609 188.319 77.284C186.489 76.4255 186.336 76.3873 184.697 76.3873C183.763 76.3873 182.639 76.4636 182.22 76.559L181.457 76.7307L181.838 76.2919C182.048 76.063 182.734 75.4907 183.363 75.0138C184.793 73.9455 185.136 73.9645 187.537 75.4144C189.576 76.6544 190.568 77.036 192.149 77.1886C193.388 77.303 195.847 77.1123 195.847 76.9024C195.847 76.8261 195.351 76.5781 194.761 76.3683C194.151 76.1393 192.454 75.4526 191.006 74.8612C188.643 73.8691 188.204 73.7547 186.946 73.7356C186.184 73.7165 185.555 73.6975 185.555 73.6784C185.555 73.5258 187.556 72.6482 188.7 72.2857C191.006 71.5608 192.912 71.7707 195.752 73.0488C196.457 73.3731 197.067 73.6211 197.105 73.6211C197.143 73.6211 197.181 73.0679 197.181 72.3811V71.1411H195.237C194.151 71.1411 192.512 71.2747 191.578 71.4463C190.663 71.599 189.862 71.6943 189.805 71.6562C189.615 71.4463 195.885 69.6149 196.762 69.6149C197.124 69.6149 197.181 69.5196 197.181 68.9282V68.2605L196.285 68.3749C193.941 68.6992 191.806 69.6149 190.053 71.0457C189.462 71.5227 188.414 72.114 187.709 72.3811C187.003 72.6482 185.974 73.1251 185.383 73.4304C184.812 73.7547 184.316 73.9645 184.278 73.9264C184.145 73.7928 186.641 71.9233 188.528 70.7214C190.93 69.2143 193.293 68.0315 195.523 67.2112C197.543 66.4863 197.295 66.41 194.608 66.9441C190.377 67.7645 188.414 68.9663 184.964 72.8581C184.087 73.8501 183.192 74.8039 182.982 74.9565C182.772 75.1092 182.143 75.6433 181.61 76.1775C181.057 76.6926 180.6 77.055 180.6 76.9787C180.6 76.7116 182.601 73.8501 183.802 72.4002C185.25 70.6642 187.747 68.4131 189.615 67.1731C190.32 66.6961 190.892 66.2764 190.892 66.2383C190.892 66.0857 187.118 68.1842 185.631 69.1571C182.772 71.0266 180.828 73.6593 180.104 76.5781C179.799 77.8372 178.96 79.5351 178.656 79.5351C178.56 79.5351 178.503 79.2871 178.503 78.9627C178.503 77.9326 177.779 74.6132 177.169 72.9153C176.845 71.9996 176.559 71.122 176.54 70.9694C176.521 70.7977 176.921 70.5688 177.645 70.3399C181.572 69.0808 183.554 67.9934 185.326 66.1047C186.432 64.922 187.651 62.8425 187.651 62.1558C187.651 61.8887 187.442 62.0032 186.832 62.6136C185.746 63.7201 184.735 64.1589 181.648 64.941C178.98 65.6087 177.493 66.3146 176.883 67.1921C176.731 67.402 176.578 67.5546 176.521 67.4974C176.483 67.4592 176.33 66.7724 176.178 65.9712L175.911 64.5213L176.673 64.0444C177.76 63.3958 178.846 63.0333 181.267 62.461C184.354 61.7361 186.165 60.7822 188.299 58.7219L190.034 57.0431L188.814 57.52C188.147 57.7871 186.432 58.2259 185.021 58.4739C183.611 58.741 181.991 59.1034 181.438 59.2942C179.856 59.8665 178.179 61.1638 176.54 63.1287C175.949 63.8346 175.778 63.9299 175.625 63.701C175.168 62.9952 176.464 58.3976 177.264 57.8634C178.084 57.3292 179.513 57.0049 182.029 56.8142C185.555 56.5471 187.671 55.9557 190.072 54.5249C191.12 53.8954 194.703 50.6522 194.703 50.3279C194.703 50.2516 194.303 50.3089 193.808 50.4615C193.293 50.6141 190.872 51.2436 188.414 51.8732C181.591 53.5901 180.333 54.0861 178.465 55.8412C177.95 56.3182 177.55 56.6234 177.55 56.528C177.569 56.1655 179.342 53.0369 180.333 51.6633C183.058 47.9051 184.869 46.8177 191.063 45.2725C192.912 44.8337 195.027 44.2423 195.752 43.9943L197.086 43.5365L197.143 41.3426L197.2 39.1296L196.285 39.3013C193.903 39.7592 190.701 41.19 188.223 42.926C187.442 43.4792 185.536 45.2152 183.992 46.7987C182.429 48.363 181.171 49.603 181.171 49.5076C181.171 49.2405 184.221 44.8719 185.898 42.7734C187.88 40.2743 193.217 34.8945 195.523 33.1013C197.867 31.2317 197.791 31.1935 194.799 32.7579ZM174.501 65.7995C174.501 66.0094 174.463 66.181 174.424 66.181C174.386 66.181 174.31 66.0094 174.253 65.7995C174.196 65.5897 174.234 65.418 174.329 65.418C174.424 65.418 174.501 65.5897 174.501 65.7995ZM175.339 68.0315C175.701 69.0617 175.606 69.3288 175.187 68.4894C174.901 67.9743 174.767 67.1349 174.958 67.1349C174.996 67.1349 175.168 67.5355 175.339 68.0315ZM174.119 68.5657C174.234 68.6229 174.31 69.1762 174.31 69.7866V70.9122L173.605 70.6451C172.766 70.3589 171.718 70.3208 170.498 70.5688C169.698 70.7214 169.564 70.6833 168.516 69.9774C167.906 69.5768 167.334 69.2334 167.239 69.2334C167.144 69.2334 167.068 69.138 167.068 69.0426C167.068 68.9282 167.43 68.8519 167.887 68.8328C168.325 68.8328 169.297 68.6992 170.022 68.5657C171.28 68.2986 173.7 68.3177 174.119 68.5657ZM175.187 69.3288C175.32 69.6722 175.111 70.6642 174.939 70.4925C174.71 70.2826 174.672 69.0426 174.882 69.0426C174.996 69.0426 175.13 69.1762 175.187 69.3288ZM176.483 71.9424C176.826 72.8199 176.711 72.8581 175.892 72.0568C175.32 71.5036 175.301 71.4463 175.606 71.2174C175.987 70.9313 176.083 71.0076 176.483 71.9424ZM177.016 73.5448C177.226 73.6784 177.912 76.8452 178.103 78.5812C178.255 80.0311 178.236 80.26 177.893 80.9468C177.436 81.8434 177.455 81.8625 176.521 79.1726C175.968 77.5892 175.072 73.9645 175.072 73.335C175.072 73.2014 176.75 73.3922 177.016 73.5448ZM174.882 74.8039C175.187 76.559 176.083 79.5923 176.692 80.9849C177.188 82.1105 177.302 82.7782 176.978 82.7782C176.883 82.7782 176.616 82.4157 176.387 81.9579C176.159 81.5191 175.606 80.5843 175.149 79.8975C174.672 79.1726 174.062 77.8754 173.738 76.8643C173.414 75.8722 172.995 74.8039 172.785 74.4796C172.194 73.5448 172.29 73.4304 173.51 73.4304H174.634L174.882 74.8039ZM178.312 81.9197C178.312 82.8354 178.008 83.0834 177.817 82.3203C177.722 81.9197 177.988 81.0612 178.217 81.0612C178.274 81.0612 178.312 81.4428 178.312 81.9197Z" fill="white"/>
<path d="M82.0634 49.2215C82.0634 49.4696 82.0443 53.4948 82.0062 58.1306C81.9872 62.7854 82.0253 66.639 82.1206 66.6962C82.1968 66.7344 85.0748 66.8298 88.5245 66.887L94.7759 67.0015L94.9093 58.1687C94.9855 53.3231 95.0046 49.3169 94.9665 49.2788C94.9474 49.2406 92.1648 49.1834 88.8294 49.1452C85.475 49.088 82.578 48.9926 82.4065 48.9163C82.1396 48.8019 82.0634 48.8782 82.0634 49.2215ZM94.2422 49.6985L94.6996 49.7939L94.5853 52.2167C94.5091 53.5521 94.4519 57.2721 94.4519 60.4771V66.2956L88.4482 66.3528L82.4446 66.4101V59.7521C82.4446 56.1084 82.5018 52.293 82.5589 51.301L82.6924 49.4886L88.2386 49.5459C91.2881 49.5649 93.9945 49.6412 94.2422 49.6985Z" fill="white"/>
<path d="M83.9695 57.749V64.0254L87.1524 64.1399C88.8868 64.2162 90.888 64.2734 91.5932 64.2734H92.8701L92.9845 58.1306C93.0417 54.7349 93.0607 51.9496 93.0417 51.9305C93.0226 51.8924 91.1548 51.8351 88.9058 51.7779C86.6568 51.7207 84.6366 51.6253 84.4078 51.568L83.9695 51.4917V57.749ZM88.982 52.0641H92.7367L92.6986 57.9207L92.6414 63.7965L88.5627 63.8537C86.3328 63.8919 84.4269 63.8537 84.3507 63.7584C84.2744 63.682 84.2554 60.954 84.3125 57.73C84.4078 51.8542 84.4078 51.8351 84.8081 51.9496C85.0368 52.0068 86.9046 52.0641 88.982 52.0641Z" fill="white"/>
<path d="M151.915 73.5068C151.82 73.9265 151.477 74.4416 150.924 74.9758L150.047 75.8152L150.181 75.1475C150.257 74.785 150.524 74.1555 150.772 73.7739L151.248 73.0681L150.714 73.2588C150.009 73.5259 149.399 74.1364 149.247 74.7087C149.152 75.1475 149.056 75.1856 148.485 75.0903C148.122 75.033 147.779 75.0712 147.722 75.1666C147.646 75.2619 147.722 75.3383 147.875 75.3383C148.084 75.3383 148.961 76.5973 148.961 76.9217C148.961 77.0743 147.208 77.3032 145.854 77.3223L144.558 77.3414L145.092 77.7801C145.95 78.4669 146.445 78.5051 147.951 77.99L149.304 77.513L149.628 78.5623C149.8 79.1537 150.028 79.8023 150.124 80.0122C150.41 80.6608 150.105 79.1728 149.723 78.1808C149.476 77.513 149.457 77.2269 149.609 77.017C149.8 76.75 149.933 76.8072 150.524 77.3604C151.191 77.9518 151.229 78.0854 151.305 79.2872L151.362 80.5845L151.401 79.2872C151.42 78.4478 151.515 78.0091 151.667 78.0091C151.801 78.0091 152.22 77.6847 152.62 77.3032C153.287 76.6546 153.364 76.6164 153.65 76.9026C153.935 77.1887 153.916 77.3414 153.364 78.7912C153.04 79.6497 152.811 80.3937 152.849 80.4509C152.906 80.5082 153.04 80.2983 153.154 79.9931C153.764 78.3334 153.573 78.4478 155.155 78.6577C156.756 78.8485 157.29 78.6958 157.843 77.8564C158.148 77.3986 158.148 77.3795 157.804 77.5321C157.595 77.6275 156.68 77.7229 155.746 77.7801L154.069 77.8564L154.202 77.4177C154.279 77.1697 154.526 76.6164 154.774 76.1776C155.251 75.281 155.155 75.0139 154.202 74.5561C153.802 74.3653 153.611 74.1173 153.573 73.7548C153.535 73.4305 153.421 73.2398 153.287 73.297C152.315 73.6976 152.334 73.6976 152.43 73.2779C152.506 72.9918 152.468 72.8582 152.296 72.8582C152.144 72.8582 151.972 73.1444 151.915 73.5068ZM149.113 76.0632C149.228 76.4066 148.828 76.3303 148.694 75.9869C148.618 75.7961 148.675 75.7198 148.809 75.758C148.923 75.7961 149.075 75.9487 149.113 76.0632ZM154.412 76.2349C154.221 76.4257 154.05 76.1395 154.221 75.8915C154.336 75.6816 154.374 75.6816 154.45 75.8915C154.488 76.025 154.469 76.1776 154.412 76.2349ZM152.201 76.4829C151.706 77.1697 151.629 77.1887 151.629 76.5973C151.629 76.1776 151.82 76.025 152.449 75.9296C152.544 75.9296 152.43 76.1586 152.201 76.4829ZM151.362 76.8263C151.286 76.8835 151.134 76.8263 151 76.6927C150.829 76.521 150.829 76.4257 151.058 76.2921C151.267 76.1586 151.362 76.1967 151.401 76.4066C151.439 76.5783 151.42 76.75 151.362 76.8263Z" fill="white"/>
<path d="M8.99058 78.5241C6.551 88.4633 5.97923 90.9242 4.7785 96.7046C4.09237 100.005 3.36812 103.878 3.15847 105.308C2.94882 106.72 2.56763 108.742 2.3008 109.792C1.8815 111.547 1.90056 112.176 2.35798 111.89C2.64387 111.718 3.25376 108.914 3.73024 105.671C4.09237 103.229 5.6171 95.6363 6.77971 90.4091C6.98936 89.4171 7.94232 85.5444 8.87622 81.8244C10.8012 74.0791 10.7821 74.1363 10.401 74.06C10.1722 74.0028 9.8673 74.9757 8.99058 78.5241Z" fill="white"/>
<path d="M12.9358 74.1173C12.7833 74.1936 12.8214 74.5179 13.0883 75.3001C13.7553 77.2078 15.6613 84.9722 17.0526 91.4584C17.7959 94.9114 18.4629 97.9256 18.5201 98.1545C18.6154 98.4979 18.463 98.6124 17.51 98.9558C16.881 99.1847 15.5278 99.7952 14.4605 100.31C13.3932 100.825 12.4784 101.207 12.4212 101.15C12.364 101.092 12.3068 96.8191 12.3068 91.6683C12.3068 86.5174 12.2115 80.9278 12.1162 79.2491C12.0209 77.5703 11.9257 75.7389 11.9066 75.1856C11.8685 74.3653 11.7922 74.1936 11.5063 74.1936C11.1823 74.1936 11.1633 74.3081 11.2586 75.281C11.5635 78.486 11.7351 84.419 11.7351 92.6031L11.716 101.76L10.2484 102.638C9.44796 103.134 8.26629 103.916 7.61828 104.393C6.5319 105.194 6.45567 105.308 6.24602 106.339C5.90295 108.036 5.96013 110.04 6.36037 110.841C6.66532 111.451 6.66532 111.585 6.43661 112.176C6.28413 112.539 6.13166 113.683 6.07448 114.733C5.99825 116.316 6.05542 116.755 6.34131 117.308C6.68438 117.957 6.70344 117.976 8.03758 118.033L9.39078 118.09L9.40984 120.036C9.44796 122.611 9.65761 125.32 9.8482 125.835C10.0197 126.331 10.6868 126.427 10.8393 126.007C10.8965 125.855 10.8774 125.187 10.7821 124.519C10.6868 123.871 10.5915 122.135 10.5915 120.685V118.033L13.1264 118.166C16.9954 118.338 33.1195 118.643 38.9897 118.643C44.0404 118.643 50.8064 118.376 52.0833 118.147L52.7123 118.033L52.7504 121.524C52.8076 124.595 52.8457 125.034 53.1125 125.091C53.6653 125.187 53.8559 124.099 53.8559 120.723V117.518L54.4086 117.232C55.4378 116.698 57.2293 114.504 58.1251 112.672C58.6016 111.699 59.0399 110.65 59.1162 110.326C59.2496 109.62 58.1823 106.816 56.6575 103.859L55.6665 101.951L54.1417 101.722C49.4341 100.997 46.4609 100.806 40.4191 100.825C34.8538 100.825 33.9581 100.883 30.3178 101.359C25.1337 102.046 23.3612 101.932 20.9597 100.787C19.8162 100.234 18.7679 99.2419 19.1872 99.1084C19.5684 99.013 27.5351 98.4407 31.5185 98.2499C34.9682 98.0782 35.3684 97.9637 35.3684 97.1816C35.3684 95.9225 33.4053 95.2929 32.0331 96.1133C31.1564 96.6283 30.9467 96.6283 30.2415 96.0179C29.1551 95.1022 29.5363 93.9957 31.69 91.7255C34.0915 89.2073 35.5209 88.2916 37.808 87.8338C38.2845 87.7384 38.4179 87.7765 38.4179 88.0245C38.4179 88.2725 38.4941 88.2535 38.8563 87.9101C39.6568 87.147 40.8765 86.403 41.2958 86.403C41.5627 86.403 42.0963 86.7655 42.6491 87.2996L43.5639 88.1962L44.0785 87.7002C44.879 86.9753 46.3656 86.0214 46.7087 86.0214C47.0327 86.0214 49.0911 87.9292 49.0911 88.2344C49.0911 88.5206 46.6705 90.2184 46.2322 90.2184C46.0035 90.2184 45.3555 89.8369 44.7646 89.36C44.1928 88.883 43.6592 88.5015 43.583 88.5015C43.4114 88.5015 42.6491 89.0356 41.8867 89.6843C41.5436 89.9704 41.1053 90.2184 40.8956 90.2184C40.686 90.2184 40.0951 89.8369 39.5615 89.36C39.0278 88.883 38.5704 88.5015 38.5323 88.5015C38.4179 88.5015 38.8182 90.104 38.9516 90.2375C39.2184 90.4855 41.6389 90.8098 44.0404 90.9052C45.8129 90.9815 47.0898 90.9243 48.5193 90.7144C50.9589 90.352 54.4276 89.3027 54.5801 88.883C54.7516 88.4252 54.9613 88.3489 56.6957 88.2153C57.8011 88.139 58.8303 88.1962 59.8785 88.3679C62.7184 88.883 64.4528 90.1421 65.5963 92.584C66.3968 94.2628 66.7399 96.056 67.0067 99.6998C67.121 101.264 67.3307 103.076 67.4832 103.763C67.6356 104.45 67.8262 106.129 67.8834 107.502L68.0168 110.001L77.4511 110.116C92.2029 110.326 116.675 110.269 124.813 110.04C128.873 109.925 132.265 109.887 132.342 109.963C132.418 110.021 132.475 111.28 132.456 112.749C132.456 115.152 132.494 115.4 132.78 115.4C133.218 115.4 133.428 114.217 133.428 111.718C133.428 110.116 133.466 109.868 133.752 109.868C133.981 109.868 134.095 109.677 134.133 109.143C134.171 108.723 134.286 108.437 134.438 108.456C134.552 108.475 135.315 108.494 136.096 108.494L137.526 108.532V109.486C137.526 110.669 137.792 111.356 139.012 113.149C139.527 113.912 140.175 115 140.461 115.553C140.956 116.545 141.013 116.583 141.604 116.469C142.5 116.297 159.387 116.278 160.263 116.45L160.968 116.583V114.217C160.968 112.901 161.026 111.184 161.083 110.383L161.216 108.914H162.131C162.874 108.914 163.027 108.857 162.951 108.628C162.874 108.418 162.55 108.342 161.864 108.342H160.911L161.045 105.9C161.159 103.744 161.197 95.064 161.102 93.8431L161.064 93.3662L162.951 93.3471C164.38 93.3089 164.895 93.2326 165.123 93.0037C165.409 92.7175 165.257 92.6985 163.313 92.6985H161.178L161.216 88.9403L161.254 85.163L158.167 85.1057C155.098 85.0294 155.06 85.0294 155.06 85.4491C155.06 85.6781 155.136 85.7925 155.251 85.7353C155.365 85.659 156.642 85.6781 158.11 85.7544L160.778 85.8879L160.759 87.6239C160.74 88.5778 160.683 89.7987 160.625 90.3138L160.492 91.2677L158.205 88.8449C156.375 86.899 155.822 86.4221 155.441 86.4602C155.079 86.4984 154.946 86.6319 154.85 87.147C154.679 88.0055 154.126 88.5206 153.135 88.7113C151.839 88.9593 149.971 88.9021 149.247 88.6159C148.904 88.4633 148.561 88.4061 148.485 88.4633C148.408 88.5396 148.37 88.5015 148.408 88.4061C148.428 88.2916 148.332 87.8147 148.18 87.2996L147.932 86.403H146.35C144.787 86.403 144.768 86.403 144.768 85.9261V85.4491L146.483 85.5827C147.97 85.6781 148.199 85.659 148.199 85.3919C148.199 85.2393 148.104 85.0676 147.97 85.0294C147.818 84.9722 147.741 84.0947 147.741 82.0915L147.722 79.2491L146.388 79.1346C145.664 79.0583 141.357 79.001 136.84 78.982C131.922 78.9629 128.187 78.8866 127.539 78.753C126.738 78.6195 126.357 78.6195 126.224 78.753C126.09 78.8866 126.033 79.974 126.052 81.71L126.071 84.4571L124.68 84.5334L123.269 84.5907L123.193 81.9962C123.117 79.001 122.926 78.486 121.764 78.2761C121.383 78.1998 118.142 78.257 114.578 78.3906C110.995 78.5241 105.068 78.6577 101.409 78.6767C94.3185 78.7149 94.166 78.734 93.5561 79.6497L93.2512 80.1457L93.0415 79.5161C92.9272 79.1727 92.6032 78.734 92.3173 78.5241C91.8027 78.1426 91.7264 78.1235 84.6936 78.3906C80.7865 78.5241 74.7066 78.6577 71.1997 78.6958C67.6928 78.7149 64.7005 78.734 64.5671 78.753C64.4337 78.7721 64.0906 79.001 63.8238 79.2681C63.3854 79.726 63.3092 79.726 63.1377 79.4398C62.7565 78.734 61.8226 78.5814 58.1442 78.5814H54.6182V77.9518V77.3223L52.7695 76.8263C50.025 76.0632 48.8814 75.9105 46.3847 75.9105C43.8498 75.9105 41.8867 76.2539 39.8474 77.0361C38.78 77.4367 38.4941 77.6275 38.456 77.99C38.3798 78.4478 38.3798 78.4478 36.4929 78.3333C34.7204 78.238 34.568 78.257 34.2058 78.6386C33.5959 79.2872 32.8717 81.9008 32.7573 83.8466L32.643 85.5827L31.4804 85.6971C29.3457 85.8688 24.9621 87.5858 20.5976 89.9323L18.5964 91.0006V92.7366C18.5964 93.6905 18.5392 94.4345 18.482 94.3772C18.4248 94.32 17.8721 91.8781 17.2432 88.9403C15.4325 80.4128 13.7935 74.1936 13.3551 74.0791C13.2407 74.0601 13.0692 74.0791 12.9358 74.1173ZM48.1381 77.742L49.1863 78.8103L48.6336 79.2109C48.3287 79.4398 47.7379 79.9167 47.3376 80.2411C46.9183 80.5844 46.4228 80.8706 46.2131 80.8706C46.0225 80.8706 45.4317 80.4891 44.898 80.0121C44.3644 79.5352 43.8498 79.1537 43.7545 79.1537C43.6401 79.1537 43.5639 79.0201 43.5639 78.8675C43.5639 78.4478 46.0416 76.6736 46.6134 76.6736C46.9564 76.6736 47.4138 76.9979 48.1381 77.742ZM53.7034 78.1426C54.1989 78.6386 54.6182 79.0964 54.6182 79.1727C54.6182 79.4017 52.2739 81.0614 51.9499 81.0614C51.5878 81.0614 49.6819 79.5352 49.6819 79.23C49.6628 79.0201 50.3871 78.2952 51.2829 77.6656C52.1786 77.0361 52.6742 77.1315 53.7034 78.1426ZM42.4775 78.3143C43.2971 79.1346 43.6211 79.726 43.2018 79.726C43.1255 79.726 42.6109 80.0694 42.0773 80.4891C41.5627 80.9088 40.9718 81.2522 40.8003 81.2522C40.6288 81.2522 40.0951 80.9088 39.6186 80.4891C39.1422 80.0694 38.6657 79.726 38.5894 79.726C38.4941 79.726 38.4179 79.5924 38.4179 79.4398C38.4179 79.0583 40.6288 77.4367 41.1624 77.4367C41.3911 77.4367 41.9629 77.8183 42.4775 78.3143ZM141.528 79.8977L146.96 80.0121L147.017 81.5383C147.055 82.3777 147.017 83.5223 146.96 84.0947L146.827 85.1057L145.855 84.9722C143.987 84.7433 144.101 84.7051 144.006 85.5445L143.91 86.3076L140.575 86.3648L137.24 86.4221L137.011 86.9181C136.687 87.6239 136.706 87.9292 137.144 88.635C137.488 89.2073 137.507 89.7033 137.545 98.4598L137.564 107.674L137.068 107.655C136.801 107.655 136.077 107.636 135.448 107.617L134.343 107.579L134.419 98.9558L134.495 90.352L133.599 89.0356C132.113 86.8608 129.406 84.7623 127.805 84.5525L127.043 84.438V82.0152V79.5924L131.579 79.6688C134.057 79.726 138.536 79.8214 141.528 79.8977ZM47.8141 82.5494L48.9195 83.6559L47.6235 84.6479C46.9183 85.2011 46.1559 85.6399 45.9082 85.6399C45.4889 85.6399 43.5258 84.0756 43.4114 83.6559C43.3352 83.3125 45.851 81.4429 46.4037 81.4429C46.5752 81.4429 47.2233 81.9389 47.8141 82.5494ZM53.2841 82.3396C54.561 83.5033 54.561 83.5605 53.2841 84.5716C52.6551 85.0485 51.9499 85.4491 51.7022 85.4491C51.4735 85.43 50.8445 85.0294 50.2918 84.5143L49.2816 83.6177L49.8153 83.1217C50.5967 82.3777 51.7784 81.6337 52.1596 81.6337C52.3311 81.6337 52.8457 81.958 53.2841 82.3396ZM42.2679 82.7211C42.7634 83.2171 43.1827 83.7131 43.1636 83.8276C43.1636 84.1328 40.9718 85.6399 40.5335 85.6399C40.0951 85.6399 38.2654 84.1519 38.2464 83.7703C38.2273 83.446 40.4763 81.8245 40.9528 81.8245C41.1815 81.8245 41.7723 82.2251 42.2679 82.7211ZM115.913 82.8928C116.484 83.3888 116.942 83.923 116.923 84.0947C116.923 84.2663 116.351 84.8196 115.665 85.3156C114.712 86.0024 114.293 86.2122 113.969 86.1359C113.454 86.0024 111.643 84.4953 111.624 84.19C111.586 83.7513 113.892 82.0152 114.521 82.0152C114.712 82.0152 115.341 82.4159 115.913 82.8928ZM121.535 83.3697C122.355 84.0565 122.774 84.8768 122.297 84.8768C122.202 84.8768 121.707 85.2202 121.211 85.6399C120.696 86.0596 120.144 86.403 119.972 86.403C119.629 86.403 117.514 84.7242 117.514 84.4571C117.514 84.19 119.839 82.5876 120.22 82.5876C120.43 82.5876 121.02 82.9309 121.535 83.3697ZM110.557 83.7322C111.148 84.3236 111.434 84.7433 111.319 84.8577C110.69 85.4682 108.994 86.5938 108.708 86.5938C108.365 86.5938 106.364 84.934 106.364 84.6479C106.364 84.3427 108.67 82.7783 109.127 82.7783C109.471 82.7783 109.909 83.0836 110.557 83.7322ZM53.3031 86.7655C53.8177 87.2615 54.237 87.7765 54.237 87.8719C54.237 88.0436 53.6462 88.5205 52.1786 89.4935C51.9118 89.6652 51.5687 89.7415 51.3782 89.6843C50.9207 89.4935 49.2816 88.0055 49.2816 87.7765C49.2816 87.4713 51.6069 85.8498 52.0262 85.8307C52.2168 85.8307 52.8076 86.2504 53.3031 86.7655ZM115.722 87.7575C116.866 88.8449 116.961 89.131 116.332 89.4744C116.084 89.6079 115.55 89.9895 115.15 90.352C114.216 91.1341 113.606 91.1532 112.844 90.4473C112.539 90.1421 112.044 89.7606 111.758 89.5698C111.243 89.2455 111.224 89.2455 110.404 89.7987C109.947 90.123 109.471 90.5046 109.337 90.6763C108.899 91.1914 108.194 91.0387 107.279 90.2184C106.802 89.7987 106.326 89.4553 106.25 89.4553C105.906 89.4553 106.097 89.0166 106.574 88.6159C107.584 87.8147 108.613 87.1661 108.918 87.1661C109.089 87.1661 109.661 87.5858 110.176 88.1009L111.129 89.0547L111.7 88.5206C112.653 87.643 113.949 86.7845 114.331 86.7845C114.521 86.7845 115.15 87.2233 115.722 87.7575ZM121.363 87.8719C121.859 88.3679 122.278 88.8639 122.259 88.9784C122.259 89.2646 120.087 90.7907 119.667 90.7907C119.248 90.7907 117.342 89.2836 117.342 88.9403C117.323 88.6159 119.591 86.9753 120.048 86.9753C120.277 86.9753 120.868 87.3759 121.363 87.8719ZM139.127 91.5538C139.508 92.088 140.022 92.6031 140.27 92.6794L140.709 92.8511L140.613 100.177C140.556 105.27 140.461 107.521 140.308 107.617C140.194 107.693 139.737 107.769 139.317 107.769H138.517L138.383 105.289C138.269 103.305 138.307 90.6 138.421 90.6C138.421 90.6 138.745 91.0387 139.127 91.5538ZM121.211 92.1071C121.726 92.6221 122.107 93.1181 122.069 93.2326C121.916 93.6523 119.972 94.9877 119.534 94.9877C119.153 94.9877 118.447 94.5108 117.151 93.3471C116.885 93.1181 119.438 91.1723 119.991 91.1723C120.163 91.1723 120.696 91.592 121.211 92.1071ZM116.046 92.4886L117.19 93.5951L116.122 94.3772C115.55 94.816 115.017 95.2548 114.941 95.3693C114.655 95.8462 113.702 95.5409 112.711 94.6634C112.158 94.1865 111.681 93.6714 111.643 93.5378C111.567 93.2708 114.178 91.3631 114.617 91.3631C114.75 91.3631 115.398 91.8591 116.046 92.4886ZM110.519 92.6412C111.338 93.4425 111.643 94.0339 111.243 94.0339C111.167 94.0339 110.652 94.3772 110.119 94.7969C109.604 95.2166 109.032 95.56 108.88 95.56C108.727 95.56 108.175 95.2166 107.679 94.7969C107.164 94.3772 106.688 94.0339 106.612 94.0339C106.307 94.0339 106.478 93.5188 106.898 93.1372C107.66 92.4123 108.784 91.7446 109.204 91.7446C109.432 91.7446 110.004 92.1261 110.519 92.6412ZM143.968 100.043C143.93 103.973 143.834 107.254 143.777 107.312C143.701 107.369 143.129 107.464 142.5 107.521L141.337 107.636V103.553C141.337 101.302 141.395 97.9828 141.471 96.1705L141.585 92.8892H142.824H144.063L143.968 100.043ZM150.238 97.7921C150.162 100.482 150.105 103.878 150.105 105.328V107.96H147.36C144.902 107.96 144.616 107.922 144.539 107.617C144.501 107.445 144.501 104.049 144.539 100.081L144.616 92.8892H147.494H150.352L150.238 97.7921ZM155.822 93.2708H157.252L157.29 100.806L157.328 108.342H153.897C150.715 108.342 150.467 108.323 150.562 107.998C150.6 107.827 150.715 104.45 150.791 100.52C150.867 95.5791 150.981 93.328 151.134 93.2135C151.248 93.1181 152.03 93.0991 152.868 93.1563C153.707 93.2135 155.041 93.2708 155.822 93.2708ZM160.282 94.072C160.454 95.1022 160.454 101.188 160.282 105.232L160.149 108.342H159.253H158.357L158.224 107.044C158.071 105.423 158.052 93.7095 158.205 93.4615C158.262 93.3471 158.739 93.2708 159.234 93.2708H160.149L160.282 94.072ZM140.27 108.647C140.461 108.723 140.575 108.99 140.575 109.315C140.575 109.868 140.575 109.868 139.432 109.868C138.231 109.868 138.078 109.696 138.402 108.838C138.517 108.532 139.66 108.418 140.27 108.647ZM153.726 108.971C157.099 109.009 157.252 109.028 157.252 109.391C157.252 109.715 157.138 109.753 156.299 109.677C155.784 109.639 155.041 109.601 154.679 109.62C154.317 109.62 151.153 109.696 147.684 109.773L141.337 109.925V109.315V108.704L145.778 108.819C148.199 108.876 151.782 108.952 153.726 108.971ZM160.13 109.162C160.168 109.296 160.187 110.478 160.168 111.776L160.111 114.122L159.043 112.52C158.052 110.993 157.995 110.86 158.071 109.906L158.148 108.914H159.082C159.691 108.914 160.054 109.009 160.13 109.162ZM140.48 110.822C140.556 110.936 140.537 111.585 140.48 112.253L140.346 113.493L139.622 112.501C139.241 111.947 138.822 111.299 138.688 111.051C138.479 110.65 138.498 110.631 139.413 110.631C139.927 110.631 140.423 110.726 140.48 110.822ZM157.252 111.222C157.423 111.528 158.071 112.577 158.7 113.531C159.31 114.465 159.825 115.305 159.825 115.381C159.825 115.438 155.708 115.496 150.696 115.515H141.566L141.452 114.961C141.395 114.656 141.337 113.588 141.337 112.615V110.822L145.588 110.765C147.913 110.745 151.42 110.707 153.383 110.669L156.947 110.631L157.252 111.222Z" fill="white"/>
<path d="M45.927 77.6846C45.3552 78.0089 44.4404 78.772 44.5357 78.8293C44.5738 78.8674 44.9359 79.1536 45.3362 79.497C45.7364 79.8403 46.1176 80.1074 46.2129 80.1074C46.2891 80.1074 46.7656 79.8022 47.2612 79.4016L48.1569 78.7148L47.528 78.0662C46.88 77.3985 46.556 77.3222 45.927 77.6846Z" fill="white"/>
<path d="M51.1495 78.5812L50.5205 79.1535L51.1495 79.7258C51.4925 80.031 51.8928 80.2981 52.0262 80.2981C52.1787 80.2981 52.6361 80.0119 53.0744 79.6495L53.8559 79.0008L53.1888 78.5048C52.3502 77.8562 51.9118 77.8753 51.1495 78.5812Z" fill="white"/>
<path d="M40.2094 78.5622C39.2755 79.1345 39.2374 79.3443 39.9235 79.9548C40.6859 80.6416 40.9527 80.6225 41.8485 79.8594L42.5918 79.249L42.0963 78.7148C41.5055 78.1043 41.029 78.0662 40.2094 78.5622Z" fill="white"/>
<path d="M44.9745 83.026L44.2883 83.6555L44.9745 84.266C45.3556 84.6094 45.8131 84.8765 46.0037 84.8765C46.1752 84.8574 46.6707 84.5712 47.09 84.2088L47.8524 83.5601L47.2806 82.9878C46.5373 82.2057 45.8512 82.2057 44.9745 83.026Z" fill="white"/>
<path d="M51.2828 82.7401C50.2345 83.3888 50.1774 83.5986 50.9207 84.19C51.683 84.8005 52.1214 84.7623 52.9791 83.9992L53.5318 83.5223L52.9791 82.95C52.3692 82.3014 52.0642 82.2632 51.2828 82.7401Z" fill="white"/>
<path d="M39.7712 83.1597L38.9897 83.7321L39.6378 84.3044C40.4382 85.0293 40.7432 85.0293 41.658 84.2853L42.3823 83.6939L41.7533 83.1407C40.9719 82.4539 40.7623 82.4539 39.7712 83.1597Z" fill="white"/>
<path d="M113.359 83.3507C112.92 83.675 112.558 83.9993 112.558 84.0756C112.558 84.2854 113.301 84.9722 113.854 85.2393C114.235 85.4491 114.407 85.3919 115.245 84.7433L116.198 84.0184L115.531 83.3888C114.693 82.6257 114.35 82.6257 113.359 83.3507Z" fill="white"/>
<path d="M119.172 83.8276C118.791 84.0946 118.467 84.3999 118.467 84.4762C118.467 84.686 119.705 85.6399 119.991 85.6399C120.106 85.6399 120.544 85.3728 120.963 85.0294L121.707 84.419L121.192 83.8848C120.563 83.2171 120.087 83.2171 119.172 83.8276Z" fill="white"/>
<path d="M107.946 84.0562C107.603 84.3424 107.279 84.5904 107.241 84.6095C107.127 84.7048 108.251 85.6205 108.613 85.735C108.823 85.8113 109.223 85.6396 109.719 85.239L110.481 84.6285L109.966 84.0944C109.299 83.4076 108.766 83.3885 107.946 84.0562Z" fill="white"/>
<path d="M51.2446 86.899C50.9206 87.0707 50.5013 87.3569 50.3298 87.5477C50.0248 87.8911 50.0439 87.9292 50.8063 88.4825C51.683 89.112 51.7592 89.0929 52.8075 88.2154L53.3602 87.7575L52.8075 87.1661C52.1785 86.5175 52.0832 86.4984 51.2446 86.899Z" fill="white"/>
<path d="M112.939 88.3299L112.139 88.9213L112.768 89.4554C113.873 90.4093 114.045 90.4093 115.226 89.3982L115.855 88.864L115.322 88.2917C114.616 87.5668 113.968 87.5859 112.939 88.3299Z" fill="white"/>
<path d="M108.27 88.1198C108.06 88.1961 107.698 88.4822 107.45 88.7493L107.012 89.2262L107.66 89.7222C108.48 90.3518 108.689 90.3518 109.566 89.6269L110.29 89.0164L109.776 88.4822C109.223 87.9099 108.937 87.8336 108.27 88.1198Z" fill="white"/>
<path d="M118.981 88.2155C118.6 88.4826 118.276 88.7878 118.276 88.8641C118.276 89.1312 119.419 90.0278 119.724 90.0278C119.896 90.0278 120.353 89.7608 120.773 89.4174L121.535 88.8069L120.925 88.2727C120.182 87.6241 119.896 87.605 118.981 88.2155Z" fill="white"/>
<path d="M119.324 92.164C119.114 92.2785 118.752 92.5455 118.505 92.7554L118.085 93.156L118.6 93.6902C119.248 94.3579 119.781 94.3579 120.601 93.7093C120.944 93.4231 121.268 93.1751 121.306 93.1369C121.44 93.0415 120.125 91.9542 119.896 91.9542C119.801 91.9542 119.534 92.0495 119.324 92.164Z" fill="white"/>
<path d="M113.225 92.9464L112.501 93.5759L113.206 94.1864C113.587 94.5298 114.026 94.7969 114.178 94.7969C114.331 94.7969 114.845 94.5107 115.303 94.1483L116.141 93.4996L115.531 92.9082C114.75 92.1451 114.14 92.1451 113.225 92.9464Z" fill="white"/>
<path d="M108.251 92.8701C107.317 93.4424 107.279 93.6522 107.984 94.2627C108.346 94.5489 108.747 94.7969 108.899 94.7969C109.032 94.7969 109.49 94.5107 109.89 94.1673L110.633 93.5569L110.138 93.0227C109.547 92.4122 109.071 92.3741 108.251 92.8701Z" fill="white"/>
<path d="M45.2793 87.5664L44.4407 88.1769L45.203 88.8065C45.6033 89.1689 46.0798 89.4551 46.2513 89.4551C46.4991 89.4551 47.6236 88.7111 48.1191 88.196C48.1763 88.1578 47.9666 87.8526 47.6617 87.5474C46.9565 86.8034 46.3275 86.8224 45.2793 87.5664Z" fill="white"/>
<path d="M40.2096 87.5853C39.9047 87.8143 39.5807 88.0623 39.4854 88.1386C39.2948 88.2912 40.2096 89.1878 40.7624 89.3595C40.972 89.4358 41.3723 89.2641 41.8678 88.8635L42.6302 88.253L42.1156 87.7189C41.4866 87.0512 40.953 87.013 40.2096 87.5853Z" fill="white"/>
<g filter="url(#filter0_d_79_1772)">
<circle cx="11" cy="68" r="7" fill="white"/>
</g>
<defs>
<filter id="filter0_d_79_1772" x="0" y="61" width="22" height="22" filterUnits="userSpaceOnUse" color-interpolation-filters="sRGB">
<feFlood flood-opacity="0" result="BackgroundImageFix"/>
<feColorMatrix in="SourceAlpha" type="matrix" values="0 0 0 0 0 0 0 0 0 0 0 0 0 0 0 0 0 0 127 0" result="hardAlpha"/>
<feOffset dy="4"/>
<feGaussianBlur stdDeviation="2"/>
<feComposite in2="hardAlpha" operator="out"/>
<feColorMatrix type="matrix" values="0 0 0 0 0 0 0 0 0 0 0 0 0 0 0 0 0 0 0.25 0"/>
<feBlend mode="normal" in2="BackgroundImageFix" result="effect1_dropShadow_79_1772"/>
<feBlend mode="normal" in="SourceGraphic" in2="effect1_dropShadow_79_1772" result="shape"/>
</filter>
</defs>
</svg>
