<svg width="24" height="25" viewBox="0 0 24 25" fill="none" xmlns="http://www.w3.org/2000/svg">
<path d="M12 13.7756C12.4097 13.7756 12.8154 13.6949 13.194 13.5381C13.5725 13.3814 13.9165 13.1515 14.2062 12.8618C14.4959 12.5721 14.7257 12.2282 14.8825 11.8496C15.0393 11.4711 15.12 11.0654 15.12 10.6556C15.12 10.2459 15.0393 9.84021 14.8825 9.46167C14.7257 9.08314 14.4959 8.73919 14.2062 8.44947C13.9165 8.15975 13.5725 7.92994 13.194 7.77314C12.8154 7.61635 12.4097 7.53564 12 7.53564C11.1725 7.53564 10.3789 7.86436 9.79383 8.44947C9.20872 9.03458 8.88 9.82817 8.88 10.6556C8.88 11.4831 9.20872 12.2767 9.79383 12.8618C10.3789 13.4469 11.1725 13.7756 12 13.7756Z" stroke="white" stroke-width="1.5"/>
<path d="M3.61995 8.83571C5.58995 0.175705 18.42 0.185706 20.38 8.84571C21.53 13.9257 18.37 18.2257 15.6 20.8857C14.632 21.8192 13.3397 22.3409 11.995 22.3409C10.6502 22.3409 9.35788 21.8192 8.38995 20.8857C5.62995 18.2257 2.46995 13.9157 3.61995 8.83571Z" stroke="white" stroke-width="1.5"/>
</svg>
