<svg width="249" height="311" viewBox="0 0 249 311" fill="none" xmlns="http://www.w3.org/2000/svg">
<path d="M244 37L244 298" stroke="black" stroke-width="9" stroke-linecap="round"/>
<path d="M96.1601 0.477417C91.895 1.7854 87.8573 5.42502 85.9806 9.6333C84.8433 12.1355 84.7864 13.1591 84.7864 60.7584C84.7864 85.5212 84.5911 105.94 84.3815 108.538C84.3656 108.734 84.2615 108.74 84.1707 108.564C83.8487 107.942 83.3307 106.39 82.8528 104.718C80.18 94.5385 73.1283 85.6669 66.1334 83.4491C64.2567 82.8804 63.4037 82.0842 61.527 79.2408C60.219 77.3072 59.0248 75.3168 58.8542 74.805C58.6267 74.2363 59.3091 72.2459 60.3896 70.0849C62.0957 66.7296 62.3232 65.7628 62.3232 62.0095C62.3232 57.0619 61.4702 54.844 57.9443 50.8632C54.9302 47.4511 53.0536 46.5412 47.5942 45.9156C45.0919 45.6313 41.9073 45.0626 40.5993 44.6076C34.4006 42.5035 27.5763 44.6076 24.4485 49.669C23.4818 51.1476 23.3112 52.3418 23.4249 57.1188C23.4818 60.2466 23.3112 63.545 23.0837 64.4549C22.515 66.6159 23.823 67.6395 27.1214 67.6395C29.1118 67.6395 29.6236 67.867 29.9648 68.8906C30.1923 69.6299 30.9316 71.3929 31.6709 72.9283C32.6945 75.0893 32.8651 75.9993 32.4102 77.4778C31.3865 81.0037 31.6709 81.8568 33.8319 81.8568C35.538 81.8568 35.936 82.198 37.1872 84.3021C37.9833 85.667 39.6894 87.7142 40.9405 88.8516C43.8977 91.5244 45.8881 91.5813 48.6178 89.1928C49.6288 88.3262 51.1851 88.6405 51.7806 89.8315L52.0868 90.4439L52.8815 91.9745C53.3442 92.8657 53.3304 93.9292 52.8447 94.808L52.428 95.5621C49.1865 101.306 46.343 114.784 46.9117 121.494C47.1392 123.769 47.2529 125.646 47.1392 125.646C47.0255 125.646 41.9641 123.997 35.8792 122.006L26.1198 118.803C25.2767 118.526 24.5994 117.891 24.2699 117.067L23.4249 114.954C21.8326 110.974 20.1265 109.836 17.4537 110.86C16.3163 111.258 14.7808 111.258 12.108 110.803C7.61535 110.007 6.87605 109.666 3.40705 106.822C1.92846 105.571 0.56361 104.604 0.393004 104.604C-0.573767 104.604 0.279266 105.742 2.55402 107.448C4.99938 109.268 5.05625 109.381 4.37382 110.803C3.63453 112.168 3.74827 112.623 5.79555 116.319C8.75273 121.665 12.0511 124.395 31.7846 137.531C42.3054 144.526 47.2529 148.166 47.2529 148.848C47.2529 149.36 46.8549 152.488 46.3999 155.786C45.2625 164.146 45.2625 171.482 46.4568 172.164C47.2529 172.619 47.0823 173.927 45.0351 184.278C41.5661 202.078 40.8268 208.333 39.86 228.635L39.3177 240.404C39.3002 240.782 39.3545 241.16 39.4774 241.517L41.7935 248.255C44.6938 256.842 50.6651 273.22 54.3047 282.774C56.6932 289.144 56.8069 289.712 56.5226 293.693L56.3272 296.102C56.2375 297.209 55.5434 298.176 54.5232 298.615L47.5942 301.598L40.8208 304.514C39.7201 304.988 39.007 306.071 39.007 307.269V307.74C39.007 309.09 40.1018 310.185 41.4523 310.185H55.7833H70.2172C71.5938 310.185 72.7944 309.246 73.1283 307.91C73.4695 306.659 74.0382 305.067 74.4362 304.385C75.4599 302.565 75.2893 300.119 73.9244 296.537C72.8439 293.636 72.7871 292.954 73.3557 288.746C74.55 279.817 74.095 268.614 71.6497 246.776C70.3417 235.175 70.3986 226.759 71.9909 212.314C73.3557 200.258 74.3794 194.457 76.4835 187.462C77.564 183.936 78.7583 178.875 79.1564 176.259C79.5544 173.586 80.2369 171.141 80.5781 170.857C81.0899 170.458 81.6017 165.795 82.2273 155.786C83.36 137.715 83.8867 130.97 84.2717 129.517C84.3251 129.316 84.4119 129.309 84.4242 129.518C84.6335 133.073 84.7864 168.931 84.7864 212.485V295.363C84.7864 295.836 84.8979 296.301 85.1119 296.722L86.5493 299.551C87.5161 301.598 89.1653 303.759 90.4733 304.783C95.0796 308.422 90.7007 308.195 166.564 308.195C212.314 308.195 232.395 307.214 241.578 307.012C245.023 306.936 249 303.446 249 300C249 299.147 249 295.684 249 295.684C249 290 248.865 284 248.865 282.5C248.865 281.5 248.865 278.509 248.865 276.348H242.882H245.441H248.865L249 258.264L248.877 240.987C248.87 239.947 248.324 238.986 247.436 238.445L244.509 236.665C244.372 236.582 244.246 236.483 244.132 236.371C242.822 235.082 240.607 236.01 240.607 237.847V253.487V271.073C240.607 272.73 239.264 274.073 237.607 274.073H166.393H95.1793C93.5225 274.073 92.1793 272.73 92.1793 271.073V154.08V37.0869C92.1793 35.4301 93.5225 34.0869 95.1793 34.0869H165.995H237.034C238.624 34.0869 239.938 35.3284 240.029 36.9165L240.266 41.0818C240.436 44.892 240.607 85.9513 240.607 132.299V215.28C240.607 216.075 240.923 216.838 241.486 217.401L244.304 220.219L244.826 220.642C246.24 221.788 248.32 220.58 248.026 218.785C248.009 218.679 248 218.569 248 218.462C248 213.392 247.978 213.255 245.953 210.892C243.45 207.878 241.176 203.499 241.176 201.623C241.176 200.883 241.858 199.405 242.711 198.438C243.962 196.959 244.531 196.675 246.066 196.846C247.095 196.967 247.998 196.162 247.996 195.126L247.829 104.604L247.717 12.8875C247.716 12.4301 247.611 11.979 247.409 11.5685L246.123 8.95087C245.213 7.13107 243.507 4.79944 242.199 3.71893C237.593 -0.261902 242.199 -0.0343933 166.166 0.0224609C128.462 0.0224609 96.9563 0.249939 96.1601 0.477417ZM183.852 13.5004C184.364 14.0122 184.421 14.4672 183.966 15.2065C183.397 16.0595 181.748 16.1732 167.189 16.3438C158.318 16.4007 150.47 16.3438 149.787 16.1732C148.195 15.7751 148.025 13.9553 149.503 13.1023C150.982 12.1355 182.885 12.5336 183.852 13.5004ZM37.0165 46.9961C38.0444 47.7077 39.0448 48.6941 39.4445 49.3249C39.6661 49.6745 39.3693 49.864 39.034 49.6214C38.7197 49.394 38.3019 49.0489 37.8696 48.6453C36.0498 46.9393 33.775 46.7686 31.3297 48.0198C30.3629 48.5316 29.6236 48.6453 29.6236 48.4178C29.6236 47.6786 33.0357 46.0862 34.4574 46.0294C35.083 46.0294 36.2773 46.4843 37.0165 46.9961ZM34.9693 51.1476C35.7654 51.4319 36.4479 52.0006 36.4479 52.3987C36.4479 52.9105 36.2772 52.9105 35.7654 52.3987C35.3673 52.0006 34.23 51.7162 33.1495 51.7162C30.5904 51.7162 28.2587 54.1047 27.7469 57.1757C27.3488 59.4504 25.2447 62.9194 24.6191 62.2939C24.4485 62.1232 24.7897 61.4977 25.3016 60.8721C25.8703 60.3034 26.6095 58.4836 27.0645 56.8344C27.9744 53.4223 28.7137 52.3987 31.0453 51.375C33.1495 50.4651 33.2063 50.4651 34.9693 51.1476ZM47.8216 53.991C50.4945 54.9009 53.3379 55.6971 54.2478 55.6971C55.1008 55.6971 55.7833 55.9245 55.7833 56.2658C55.7833 57.1757 54.4753 56.9482 48.7884 55.1284C42.8172 53.2517 40.3718 53.0242 39.2913 54.2753C38.8932 54.7303 38.2677 55.1284 37.9264 55.1284C36.7322 55.0715 40.4855 52.2849 41.7935 52.2849C42.476 52.2849 45.2057 53.0242 47.8216 53.991ZM44.0114 58.6543C47.5373 61.4408 50.5513 62.5213 54.9302 62.5213C58.1149 62.5782 58.6836 62.6919 57.8305 63.2038C55.1008 64.7961 47.7079 62.6919 43.2721 59.0523C42.0779 58.0287 40.6562 57.4031 39.5756 57.4031C38.2677 57.4031 38.0971 57.2325 38.7226 56.8344C39.86 56.0952 41.4523 56.607 44.0114 58.6543ZM35.4811 58.5405C36.2773 59.1661 37.1872 59.6779 37.5284 59.6779C37.8127 59.6779 38.1539 61.1565 38.2677 62.9194C38.4383 66.0472 38.552 66.2747 40.3718 67.1846C41.3954 67.6964 42.7603 68.6632 43.329 69.2887C44.0114 69.9711 45.1488 70.483 46.1156 70.483C47.5373 70.483 47.9354 70.1418 48.6178 68.4926C49.0727 67.4121 49.8689 66.3315 50.3807 66.1609C51.6318 65.6491 53.9635 67.9807 54.589 70.3692C55.2146 72.5302 54.9302 73.6108 53.3948 75.1462C52.5417 75.9993 52.428 76.7386 52.7123 79.1839C52.9967 81.4018 52.8261 82.7098 52.2005 83.904C50.8925 86.4062 46.343 90.3871 44.8076 90.3871C43.2721 90.3871 38.3814 85.5532 36.8459 82.6529C36.0498 81.1174 35.7086 80.9468 34.1162 81.1743C33.2558 81.3131 32.5168 80.5592 32.6727 79.7018L32.8083 78.9564C33.3769 75.4874 33.3769 75.2031 31.6709 71.336C29.6805 66.6727 29.7373 64.7961 32.0121 62.5782C32.9789 61.6114 34.2868 60.7015 34.8555 60.4741C36.4479 60.0191 35.0261 58.5405 32.9789 58.5405C30.9884 58.5405 29.6236 60.3603 29.6236 63.09C29.5667 64.7392 29.5099 64.9098 28.998 64.0568C28.2019 62.6919 29.3393 59.3935 30.9316 58.2562C32.5808 57.1188 33.7182 57.1757 35.4811 58.5405ZM61.0152 79.6957L61.5465 80.5568C62.216 81.6419 62.1265 83.0317 61.3233 84.0219L58.513 87.4868C56.74 89.6586 55.1398 91.5541 54.4393 92.2847C54.2162 92.5174 53.929 92.5318 53.7519 92.2623C53.4444 91.7943 52.9772 90.8978 52.4849 89.8753L51.8084 88.3378C51.4448 87.5115 51.4727 86.5654 51.8842 85.7619L52.428 84.7002C53.3948 82.8235 53.6223 81.743 53.3379 79.2408C53.0536 76.6248 53.1673 76.0561 53.9635 75.8286C54.4753 75.658 55.5558 75.1462 56.352 74.7481C57.6599 74.0089 57.8305 74.0657 58.5698 75.4874C58.9679 76.3405 60.1053 78.2171 61.0152 79.6957ZM68.6356 85.212C74.0382 88.3398 78.7014 94.5385 81.488 102.443C84.3883 110.632 84.6158 114.443 83.1941 132.868C82.4548 141.853 81.7723 152.715 81.5449 156.924C81.3742 161.132 80.9762 164.999 80.7487 165.511C79.6113 167.729 65.0529 168.98 54.6459 167.729C48.9021 167.046 46.8549 166.307 46.3999 164.828C46.0587 163.862 47.651 148.962 48.106 148.507C48.1628 148.45 49.6414 149.246 51.2906 150.384C56.6932 153.966 61.8114 154.763 64.4842 152.488C65.0529 151.976 66.9296 149.133 68.6925 146.175C70.4554 143.161 72.5027 140.034 73.2989 139.181C74.2656 138.157 74.7775 136.678 75.1187 134.347C75.3462 132.527 75.9717 130.082 76.4835 128.944C76.9953 127.75 77.3934 125.305 77.3934 123.314C77.3934 121.437 77.9053 117.229 78.5877 114.101C80.2369 106.083 79.9525 101.477 77.5072 96.5289C75.1755 91.8088 72.4458 89.2497 69.6593 89.2497C61.7545 89.2497 56.9206 93.9129 55.2715 103.183C54.4753 107.675 53.3948 123.314 53.8497 124.053C54.0772 124.395 53.9066 125.646 53.5085 126.84C52.8261 128.774 52.883 129.399 54.0203 132.243C54.5092 133.505 54.8521 134.681 54.9655 135.308C55.0204 135.612 54.831 135.802 54.5285 135.74C53.1982 135.47 49.468 134.143 48.8453 133.664C48.6178 133.494 48.1628 129.627 47.8216 125.077C47.2529 117.002 47.2529 116.66 48.9021 108.756L50.3965 101.439C50.498 100.941 50.7242 100.478 51.0537 100.092L57.8305 92.15C61.1791 88.2827 64.0973 84.963 65.0933 83.9424C65.3185 83.7116 65.6153 83.635 65.9103 83.7653C66.4866 84.0199 67.5192 84.574 68.6356 85.212ZM73.6401 91.7519C76.3698 94.5385 78.7014 99.5998 78.9858 103.41C79.0995 105.173 78.7583 109.04 78.2465 111.997C77.6778 114.954 77.0522 119.902 76.8247 122.916C76.5973 126.499 76.0854 128.887 75.5168 129.854C74.9481 130.65 74.55 132.299 74.55 133.551C74.55 134.802 74.3225 135.939 74.095 136.11C73.3557 136.565 62.835 135.313 58.6267 134.233C55.044 133.38 54.9302 133.266 54.1341 130.935C53.3948 128.944 53.3948 128.319 54.0203 127.124C54.4753 126.385 54.6459 124.906 54.5322 123.826C54.1341 121.437 55.4989 104.661 56.2951 100.965C57.1481 97.3819 58.1149 95.619 60.5034 93.3443C62.7781 91.1264 65.9059 89.8753 69.2612 89.8184C71.2516 89.8184 71.9909 90.1596 73.6401 91.7519ZM11.653 115.068C15.577 118.139 16.5438 118.139 13.1885 115.125C10.8 112.907 10.1176 111.599 11.8236 112.225C12.3355 112.452 13.0179 112.282 13.3022 111.883C13.7003 111.315 13.7572 111.372 13.5297 112.054C13.3022 112.737 13.9847 113.191 15.9751 113.931L17.1115 114.348C18.1306 114.723 18.8679 115.618 19.0394 116.69L19.4441 119.22C19.9559 122.461 20.4108 123.655 21.3207 124.224C22.0032 124.622 29.9648 127.636 39.0638 130.935C55.3852 136.849 55.7264 137.02 61.6976 141.342C64.996 143.73 67.7257 145.834 67.7257 146.062C67.7257 146.232 66.9296 147.711 66.0197 149.36C63.6312 153.568 60.9015 154.194 55.1577 151.919C52.7123 150.952 17.738 127.466 12.7335 123.428C8.86646 120.3 7.78595 119.106 6.2505 115.921C5.22686 113.703 4.6013 111.713 4.82877 111.144C5.22686 110.064 5.39746 110.177 11.653 115.068ZM10.2882 111.429C10.2882 111.713 10.0607 111.997 9.77637 111.997C9.43515 111.997 9.03707 111.713 8.86646 111.429C8.69586 111.087 8.92333 110.86 9.37828 110.86C9.8901 110.86 10.2882 111.087 10.2882 111.429ZM20.0088 111.155C20.18 111.279 20.3475 111.475 20.2901 111.678C20.1809 112.065 19.2746 112.347 16.7144 112.85C15.6907 113.078 14.8377 113.078 14.8377 112.907C14.8377 112.509 18.193 110.974 19.2166 110.917C19.4642 110.875 19.7718 110.984 20.0088 111.155ZM23.0268 115.807L23.5679 117.401C23.8717 118.295 24.5789 118.994 25.4768 119.288L35.538 122.575C41.7935 124.622 47.0255 126.328 47.0823 126.385C47.1392 126.442 47.3667 128.091 47.5373 130.025C47.7197 131.641 46.1337 132.881 44.6094 132.314L41.5092 131.162C33.6613 128.205 20.6952 121.437 20.2971 120.073C20.1834 119.561 19.899 118.025 19.6715 116.717C19.3872 115.011 18.9891 114.272 18.0792 113.988C16.8281 113.59 16.8281 113.59 18.2498 113.135C21.0364 112.225 21.8894 112.68 23.0268 115.807ZM24.5054 123.94C26.3821 124.906 27.9175 125.76 27.9175 125.93C27.9175 126.214 23.5386 124.736 21.8326 123.826C20.6383 123.257 20.0696 122.234 20.8089 122.234C20.9795 122.234 22.6287 123.03 24.5054 123.94ZM79.0995 171.937C79.0995 174.155 77.2228 182.913 75.6874 187.917C71.4222 201.85 68.92 230.171 70.7398 244.502C73.4695 265.714 73.9244 283.627 72.0478 293.693C71.4791 296.821 70.9104 299.551 70.7966 299.721C70.5944 300.075 66.1235 299.485 64.773 299.03C64.53 298.949 64.401 298.742 64.4026 298.485C64.4099 297.303 64.6794 293.57 65.1098 289.314C66.3609 276.917 66.304 269.581 64.8254 261.278C64.143 257.525 63.4037 251.383 63.1762 247.629C62.9487 243.876 62.4369 239.895 62.0957 238.815C60.9583 235.175 60.7877 228.01 61.6976 221.185C62.1526 217.603 63.0056 208.561 63.5174 201.111L64.3907 188.884C64.4503 188.05 64.159 187.229 63.587 186.619L62.7781 185.756C60.4465 183.311 59.1385 180.581 58.6267 177.112L58.5762 176.796C58.5315 176.517 58.1212 176.545 58.1149 176.828C58.058 179.842 59.4797 183.197 61.982 186.04L62.9633 187.145C63.4995 187.748 63.7701 188.542 63.7138 189.347L62.8919 201.111C62.3801 208.219 61.6976 215.84 61.4133 218.058C60.219 226.19 60.1622 233.185 61.1858 237.677C61.7545 240.009 62.3801 244.9 62.6075 248.482C62.835 252.065 63.4606 257.183 63.9724 259.856C65.5647 267.989 65.7353 275.381 64.5979 287.665L63.865 295.687C63.7075 297.411 62.1279 298.644 60.4174 298.378L60.2759 298.356L59.5699 298.235C58.0864 297.979 57.0222 296.663 57.082 295.159L57.3187 289.201C57.7168 278.964 57.3187 275.666 53.5085 258.435C51.9731 251.553 50.6082 243.592 50.3807 240.805C50.2101 237.962 49.2434 226.361 48.2766 214.93C46.6843 195.481 46.6274 193.547 47.2529 184.505C48.106 171.653 47.9922 172.108 50.8925 172.506C55.5558 173.245 70.1711 172.961 74.2656 172.108C79.3838 171.027 79.0995 171.027 79.0995 171.937ZM46.3999 188.315C46.1156 194.173 46.343 199.803 47.4804 212.939C48.2766 222.323 49.1865 233.697 49.5277 238.246C49.9826 244.274 50.9494 249.904 52.9398 259.003C54.4753 265.884 56.0107 273.675 56.2951 276.348C57.0344 282.149 57.0913 287.04 56.4657 286.243C55.897 285.618 45.6037 257.638 42.2485 247.629L40.1497 241.333C40.0334 240.984 39.9822 240.617 39.9987 240.249L40.4855 229.431C41.0542 215.726 41.9073 205.603 43.0446 198.722C44.4095 190.363 46.2862 180.809 46.5136 180.809C46.6274 180.809 46.5705 184.221 46.3999 188.315ZM169.862 280.272C175.777 282.945 177.028 289.883 172.364 294.546C169.407 297.503 166.166 298.072 162.469 296.252C155.702 293.011 155.588 283.684 162.299 280.386C165.199 278.907 166.848 278.907 169.862 280.272ZM73.7538 297.674C74.8343 300.29 74.7775 302.508 73.697 302.508C72.389 302.508 71.5359 300.063 71.934 297.731C72.1615 296.594 72.4458 295.684 72.6164 295.684C72.7871 295.684 73.2989 296.594 73.7538 297.674ZM64.0861 299.721C67.8395 300.347 71.1947 301.2 71.5928 301.598C72.0478 301.996 72.5027 303.418 72.6733 304.726C72.8532 305.955 71.9003 307.057 70.6581 307.057H56.0676C42.9309 307.057 39.2344 306.887 39.405 306.375C39.6325 305.693 55.3852 298.584 56.6932 298.527C57.0344 298.527 60.3896 299.039 64.0861 299.721ZM73.8107 304.328C73.6401 304.783 73.4695 304.612 73.4695 303.987C73.4335 303.59 73.4887 303.308 73.5774 303.212C73.6739 303.108 73.8123 303.297 73.8583 303.431C73.9386 303.666 73.9388 304.029 73.8107 304.328ZM72.2752 308.422C72.2752 309.56 64.6548 310.015 50.6651 309.787C40.6562 309.617 39.5756 309.503 39.405 308.593C39.2344 307.683 40.3149 307.626 55.7264 307.626C69.5455 307.626 72.2752 307.74 72.2752 308.422Z" fill="black"/>
<path d="M165.583 139.266V131.891M158.258 102.022L145.007 112.347C142.795 114.068 141 117.731 141 120.509V138.725C141 144.428 145.646 149.099 151.35 149.099H179.817C185.52 149.099 190.167 144.428 190.167 138.75V120.853C190.167 117.878 188.175 114.068 185.742 112.372L170.549 101.727C167.108 99.318 161.576 99.4409 158.258 102.022Z" stroke="black" stroke-width="1.5" stroke-linecap="round" stroke-linejoin="round"/>
<path d="M33.2633 70.028C32.4672 70.9948 32.4103 71.1085 33.1496 70.5967C33.6614 70.1418 34.7988 69.6299 35.7087 69.3456L37.301 68.8906L35.8224 68.8338C34.9694 68.7769 33.8889 69.2887 33.2633 70.028Z" fill="black"/>
<path d="M34.23 73.1559C34.0593 75.6581 36.0498 76.3405 38.2108 74.4638C39.8031 73.2127 39.0069 72.9284 37.3577 74.1795C35.8792 75.3169 35.5948 75.26 34.8555 73.7246C34.5143 73.0421 34.23 72.7578 34.23 73.1559Z" fill="black"/>
<path d="M42.7601 81.1175C42.7033 81.5156 42.1915 82.3686 41.5659 82.9942C40.9403 83.6197 40.656 84.1315 40.8835 84.1315C41.7934 84.1315 43.3857 81.9136 43.1014 81.1744C42.8739 80.6057 42.7601 80.6057 42.7601 81.1175Z" fill="black"/>
<path d="M65.1666 176.6C64.9392 177.851 64.5411 179.785 64.3136 180.922C64.0861 182.117 64.0293 183.083 64.3136 183.083C64.7686 183.083 66.1903 175.122 65.7922 174.724C65.6216 174.553 65.3373 175.406 65.1666 176.6Z" fill="black"/>
<path d="M161.56 288.291V293.466L166.28 293.295L170.943 293.125V288.291V283.457L166.28 283.286L161.56 283.116V288.291ZM170.09 288.291V292.272H166.109H162.128V288.291V284.31H166.109H170.09V288.291Z" fill="black"/>
<rect x="118.5" y="220.5" width="93" height="19" rx="3.5" stroke="black"/>
<line x1="133" y1="253" x2="198" y2="253" stroke="black" stroke-width="2" stroke-linecap="round"/>
<rect x="161" y="283" width="10" height="11" fill="black"/>
<circle cx="111" cy="114" r="7.75" stroke="black" stroke-width="0.5"/>
<path d="M110.342 109.319C109.629 109.725 109.573 109.935 109.573 112.269V114.478L109.07 115.135C108.594 115.764 108.567 115.848 108.622 116.672C108.692 117.693 108.972 118.154 109.797 118.629C111.838 119.804 114.13 117.553 113.068 115.442C112.9 115.135 112.69 114.855 112.578 114.799C112.411 114.743 112.369 114.31 112.369 112.437V110.144L111.991 109.725C111.558 109.25 110.789 109.054 110.342 109.319ZM111.642 110.102C111.754 110.27 111.81 111.011 111.81 112.618V114.897L112.243 115.288C112.606 115.61 112.69 115.82 112.746 116.379C112.816 117.203 112.606 117.637 111.949 118.084C111.544 118.35 111.334 118.406 110.775 118.35C110.202 118.294 110.006 118.196 109.615 117.777C109.224 117.357 109.154 117.176 109.154 116.602C109.154 115.931 109.391 115.414 109.881 115.065C110.104 114.897 110.132 114.631 110.132 112.576C110.132 110.438 110.146 110.27 110.426 109.99C110.761 109.655 111.334 109.711 111.642 110.102Z" fill="black"/>
<path d="M110.691 114.128C110.691 115.414 110.677 115.484 110.314 115.792C109.587 116.421 109.978 117.553 110.929 117.553C111.893 117.553 112.341 116.351 111.6 115.764C111.264 115.498 111.25 115.414 111.25 114.142C111.25 112.898 111.236 112.8 110.971 112.8C110.705 112.8 110.691 112.898 110.691 114.128ZM111.292 116.323C111.628 116.84 110.943 117.26 110.552 116.784C110.412 116.603 110.426 116.519 110.621 116.295C110.901 115.987 111.083 115.987 111.292 116.323Z" fill="black"/>
<circle cx="156" cy="184" r="7.75" stroke="black" stroke-width="0.5"/>
<circle cx="178" cy="184" r="7.75" stroke="black" stroke-width="0.5"/>
<circle cx="221" cy="113" r="7.75" stroke="black" stroke-width="0.5"/>
<circle cx="221" cy="144" r="7.75" stroke="black" stroke-width="0.5"/>
<path d="M219.878 110.031C219.875 110.049 219.676 110.861 219.436 111.833C219.196 112.805 219 113.608 219 113.618C219 113.627 219.382 113.742 219.85 113.875C220.318 114.007 220.703 114.118 220.708 114.121C220.712 114.126 220.551 114.944 220.351 115.942C220.15 116.938 219.989 117.756 219.994 117.761C219.997 117.764 220.044 117.695 220.098 117.605C220.152 117.514 220.484 116.958 220.836 116.368C222.527 113.535 222.99 112.755 223 112.733C223.006 112.713 222.854 112.656 222.266 112.462C221.857 112.326 221.518 112.209 221.51 112.203C221.503 112.197 221.724 111.709 222.002 111.119C222.279 110.53 222.51 110.038 222.515 110.028C222.522 110.011 222.245 110.006 221.206 110.002C219.899 109.997 219.887 109.997 219.878 110.031ZM222.001 110.336C222.001 110.343 221.786 110.805 221.523 111.364C221.26 111.922 221.045 112.385 221.045 112.39C221.045 112.396 221.377 112.51 221.783 112.646C222.188 112.782 222.52 112.894 222.52 112.898C222.52 112.899 222.294 113.281 222.016 113.746C221.739 114.21 221.33 114.897 221.107 115.273C220.884 115.648 220.696 115.955 220.691 115.957C220.685 115.957 220.775 115.493 220.889 114.924C221.003 114.356 221.095 113.89 221.092 113.887C221.089 113.885 220.71 113.774 220.249 113.645C219.788 113.514 219.406 113.402 219.401 113.395C219.396 113.389 219.434 113.206 219.488 112.99C219.541 112.773 219.712 112.084 219.867 111.459L220.147 110.324H221.074C221.583 110.324 222.001 110.329 222.001 110.336Z" fill="black"/>
<path d="M219.878 141.031C219.875 141.049 219.676 141.861 219.436 142.833C219.196 143.805 219 144.608 219 144.618C219 144.627 219.382 144.742 219.85 144.875C220.318 145.007 220.703 145.118 220.708 145.121C220.712 145.126 220.551 145.944 220.351 146.942C220.15 147.938 219.989 148.756 219.994 148.761C219.997 148.764 220.044 148.695 220.098 148.605C220.152 148.514 220.484 147.958 220.836 147.368C222.527 144.535 222.99 143.755 223 143.733C223.006 143.713 222.854 143.656 222.266 143.462C221.857 143.326 221.518 143.209 221.51 143.203C221.503 143.197 221.724 142.709 222.002 142.119C222.279 141.53 222.51 141.038 222.515 141.028C222.522 141.011 222.245 141.006 221.206 141.002C219.899 140.997 219.887 140.997 219.878 141.031ZM222.001 141.336C222.001 141.343 221.786 141.805 221.523 142.364C221.26 142.922 221.045 143.385 221.045 143.39C221.045 143.396 221.377 143.51 221.783 143.646C222.188 143.782 222.52 143.894 222.52 143.898C222.52 143.899 222.294 144.281 222.016 144.746C221.739 145.21 221.33 145.897 221.107 146.273C220.884 146.648 220.696 146.955 220.691 146.957C220.685 146.957 220.775 146.493 220.889 145.924C221.003 145.356 221.095 144.89 221.092 144.887C221.089 144.885 220.71 144.774 220.249 144.645C219.788 144.514 219.406 144.402 219.401 144.395C219.396 144.389 219.434 144.206 219.488 143.99C219.541 143.773 219.712 143.084 219.867 142.459L220.147 141.324H221.074C221.583 141.324 222.001 141.329 222.001 141.336Z" fill="black"/>
<circle cx="111" cy="144" r="7.75" stroke="black" stroke-width="0.5"/>
<path d="M109.947 139.168C109.29 139.377 108.326 140.369 108.144 141.026C107.823 142.199 108.033 143.149 108.829 144.057C109.248 144.532 109.388 144.812 109.388 145.161C109.388 145.468 109.485 145.748 109.667 145.902C109.891 146.097 109.947 146.335 109.947 147.033C109.947 147.829 109.974 147.927 110.38 148.262C110.91 148.71 110.994 148.71 111.581 148.262C112.014 147.927 112.042 147.871 112.042 147.033C112.042 146.335 112.098 146.097 112.321 145.902C112.503 145.748 112.601 145.468 112.601 145.161C112.601 144.812 112.741 144.532 113.16 144.057C114.305 142.758 114.277 141.068 113.09 139.894C112.266 139.056 111.12 138.791 109.947 139.168ZM112.391 139.601C113.97 140.439 114.249 142.521 112.978 143.96C112.573 144.421 112.377 144.784 112.321 145.189L112.252 145.762H110.994H109.737L109.667 145.189C109.611 144.784 109.416 144.421 109.011 143.96C107.446 142.185 108.242 139.699 110.505 139.266C111.162 139.14 111.721 139.238 112.391 139.601ZM111.483 146.237C110.659 146.488 110.086 146.516 110.086 146.307C110.086 146.153 110.282 146.111 110.966 146.125C111.581 146.125 111.735 146.167 111.483 146.237ZM111.874 146.558C111.805 146.754 111.26 146.907 110.547 146.935C109.835 146.963 110.002 146.726 110.827 146.572C111.86 146.363 111.93 146.363 111.874 146.558ZM111.902 147.075C111.902 147.285 111.763 147.326 110.896 147.438C109.863 147.564 109.793 147.299 110.827 147.117C111.819 146.935 111.902 146.935 111.902 147.075ZM111.902 147.634C111.902 147.815 111.218 148.346 110.994 148.346C110.896 148.346 110.673 148.221 110.491 148.081L110.156 147.815L110.505 147.732C111.274 147.564 111.427 147.536 111.665 147.522C111.791 147.522 111.902 147.564 111.902 147.634Z" fill="black"/>
<path d="M109.848 139.922C109.653 139.992 109.597 140.243 109.778 140.243C109.848 140.243 110.016 140.146 110.17 140.034C110.365 139.88 110.379 139.838 110.225 139.838C110.114 139.838 109.932 139.88 109.848 139.922Z" fill="black"/>
<path d="M108.898 140.984C108.591 141.724 108.633 142.898 108.982 142.898C109.038 142.898 109.024 142.702 108.94 142.478C108.828 142.143 108.856 141.892 109.024 141.347C109.303 140.509 109.205 140.243 108.898 140.984Z" fill="black"/>
<line x1="118" y1="116.7" x2="142" y2="116.7" stroke="black" stroke-width="0.6"/>
<line x1="118" y1="142.7" x2="142" y2="142.7" stroke="black" stroke-width="0.6"/>
<line x1="188" y1="116.7" x2="214" y2="116.7" stroke="black" stroke-width="0.6"/>
<line x1="156.3" y1="149" x2="156.3" y2="176" stroke="black" stroke-width="0.6"/>
<line x1="178.3" y1="149" x2="178.3" y2="176" stroke="black" stroke-width="0.6"/>
<line x1="189" y1="143.7" x2="213" y2="143.7" stroke="black" stroke-width="0.6"/>
<path d="M160.092 85.8667C163.675 83.1 168.333 83.1 171.917 85.8667M157.667 82.9667C162.717 79.0667 169.283 79.0667 174.333 82.9667M161.658 88.9083C164.283 86.875 167.708 86.875 170.333 88.9083M163.833 91.9583C165.15 90.9417 166.858 90.9417 168.175 91.9583" stroke="black" stroke-width="0.4" stroke-linecap="round" stroke-linejoin="round"/>
<path d="M177.742 179.889C177.771 180.607 177.828 180.793 178.044 180.836C178.259 180.879 178.287 180.764 178.287 179.947C178.287 179.086 178.259 179 178 179C177.728 179 177.699 179.072 177.742 179.889Z" fill="black"/>
<path d="M175.617 180.076C175.502 180.349 176.004 181.21 176.32 181.267C176.65 181.339 176.635 180.994 176.262 180.378C175.932 179.818 175.746 179.732 175.617 180.076Z" fill="black"/>
<path d="M179.978 180.062C179.705 180.32 179.361 181.138 179.476 181.252C179.648 181.425 180.021 181.138 180.25 180.65C180.523 180.062 180.351 179.675 179.978 180.062Z" fill="black"/>
<path d="M181.185 181.811C180.798 182.041 180.626 182.242 180.683 182.371C180.784 182.658 180.898 182.643 181.501 182.285C181.988 181.998 182.161 181.682 181.902 181.524C181.831 181.481 181.515 181.61 181.185 181.811Z" fill="black"/>
<path d="M173.982 181.784C173.982 182.042 174.957 182.63 175.216 182.529C175.545 182.4 175.445 182.171 174.957 181.87C174.398 181.54 173.982 181.497 173.982 181.784Z" fill="black"/>
<path d="M177.186 182.086C176.526 182.43 176.282 182.703 176.024 183.377C175.551 184.625 176.11 185.916 177.372 186.475C178.247 186.863 179.036 186.734 179.811 186.074C181.532 184.611 180.571 181.857 178.348 181.857C177.946 181.857 177.43 181.957 177.186 182.086ZM179.495 182.904C180.126 183.477 180.298 184.395 179.911 185.141C179.567 185.816 178.548 186.246 177.846 186.031C175.737 185.4 176.096 182.43 178.276 182.43C178.878 182.43 179.065 182.502 179.495 182.904Z" fill="black"/>
<path d="M173.008 183.978C173.036 184.179 173.223 184.25 173.811 184.279C174.557 184.322 175.073 184.121 174.901 183.863C174.858 183.791 174.413 183.734 173.897 183.734C173.079 183.734 172.965 183.763 173.008 183.978Z" fill="black"/>
<path d="M181.185 183.978C181.228 184.193 181.386 184.236 182.089 184.236C182.792 184.236 182.949 184.193 182.992 183.978C183.035 183.763 182.921 183.734 182.089 183.734C181.257 183.734 181.142 183.763 181.185 183.978Z" fill="black"/>
<path d="M174.527 185.627C174.211 185.813 173.982 186.057 173.982 186.2C173.982 186.559 174.254 186.53 174.886 186.086C175.33 185.785 175.402 185.684 175.259 185.512C175.172 185.397 175.086 185.311 175.072 185.311C175.072 185.311 174.814 185.455 174.527 185.627Z" fill="black"/>
<path d="M180.723 185.513C180.594 185.685 180.666 185.785 181.139 186.087C181.828 186.531 182.014 186.546 182.014 186.201C182.014 186.044 181.785 185.814 181.455 185.628C180.982 185.355 180.881 185.341 180.723 185.513Z" fill="black"/>
<path d="M175.862 187.119C175.503 187.722 175.474 188.037 175.776 188.037C176.019 188.037 176.565 187.234 176.565 186.847C176.565 186.431 176.177 186.574 175.862 187.119Z" fill="black"/>
<path d="M179.434 186.746C179.434 187.076 180.022 188.037 180.223 188.037C180.524 188.037 180.495 187.65 180.136 187.091C179.85 186.632 179.434 186.431 179.434 186.746Z" fill="black"/>
<path d="M177.77 187.22C177.727 187.335 177.712 187.779 177.741 188.195C177.77 188.769 177.841 188.97 177.999 188.97C178.286 188.97 178.315 187.163 178.042 187.076C177.942 187.033 177.827 187.105 177.77 187.22Z" fill="black"/>
<path d="M156.082 180.212C156.051 180.347 156.031 180.762 156.051 181.125C156.082 181.768 156.093 181.799 156.342 181.799C156.601 181.799 156.601 181.789 156.601 180.917C156.601 180.087 156.591 180.035 156.373 180.004C156.207 179.984 156.124 180.035 156.082 180.212Z" fill="black"/>
<path d="M152.919 181.415C152.919 181.695 153.884 182.598 154.091 182.515C154.382 182.411 154.288 182.131 153.821 181.664C153.355 181.208 152.919 181.083 152.919 181.415Z" fill="black"/>
<path d="M158.945 181.675C158.499 182.141 158.406 182.525 158.748 182.525C158.997 182.525 159.889 181.654 159.848 181.446C159.785 181.114 159.412 181.208 158.945 181.675Z" fill="black"/>
<path d="M155.698 182.1C154.256 182.494 153.395 184.061 153.893 185.378C153.976 185.575 154.204 186.177 154.401 186.717C154.805 187.764 155.065 188.127 155.583 188.345C156.03 188.532 156.797 188.532 157.171 188.335C157.513 188.159 157.938 187.63 158.052 187.246C158.094 187.1 158.291 186.613 158.499 186.156C158.82 185.451 158.872 185.212 158.872 184.548C158.882 183.677 158.716 183.272 158.167 182.764C157.461 182.11 156.559 181.861 155.698 182.1ZM157.046 182.712C158.187 183.127 158.623 184.445 158.042 185.69C157.897 186.001 157.679 186.509 157.575 186.82C157.337 187.505 157.15 187.723 156.694 187.868C156.279 188.003 155.749 187.868 155.469 187.567C155.2 187.277 154.37 184.974 154.37 184.538C154.37 183.2 155.76 182.256 157.046 182.712Z" fill="black"/>
<path d="M152.109 184.33C152.026 184.382 151.985 184.507 152.005 184.611C152.036 184.777 152.14 184.808 152.763 184.808C153.385 184.808 153.489 184.777 153.52 184.611C153.572 184.341 153.364 184.237 152.763 184.237C152.482 184.237 152.182 184.279 152.109 184.33Z" fill="black"/>
<path d="M159.267 184.33C159.184 184.382 159.142 184.507 159.163 184.611C159.194 184.777 159.308 184.808 159.9 184.839C160.48 184.86 160.605 184.839 160.667 184.694C160.709 184.579 160.657 184.465 160.543 184.382C160.325 184.227 159.485 184.185 159.267 184.33Z" fill="black"/>
</svg>
