<svg width="270" height="289" viewBox="0 0 270 289" fill="none" xmlns="http://www.w3.org/2000/svg">
<path d="M137.534 0.0457764C135.965 0.0915222 135.787 0.106781 135.2 0.297485C133.947 0.709412 132.888 1.60956 132.316 2.75378C131.814 3.75308 131.775 4.00479 131.775 6.31613V8.35287L130.523 7.1171C126.812 3.45557 123.232 1.50275 119.019 0.84671C118.207 0.72467 116.607 0.717041 115.54 0.839111C110.523 1.41885 105.112 4.33282 100.048 9.19962C91.8612 17.0643 86.3569 28.2167 85.6457 38.3775C85.5529 39.7582 85.5916 42.3975 85.7385 43.7172C86.2951 48.9578 88.0345 53.2601 91.3587 57.6158C92.4719 59.0728 93.245 59.9729 96.8784 64.0082C97.6283 64.8473 98.6642 66.045 99.1745 66.6781L100.102 67.8223L99.1049 67.9138C97.35 68.0664 95.3864 68.5699 94.2113 69.1573C93.3378 69.5921 92.1782 70.9728 91.6834 72.1704C91.4901 72.6281 91.4592 72.8112 91.4592 73.4443C91.4592 73.8562 91.436 74.1919 91.4051 74.1919C91.1422 74.1919 89.9981 74.3902 89.3796 74.5428C86.8826 75.1606 85.1355 76.4498 84.3779 78.2272C83.7981 79.5926 83.3574 82.1099 83.1641 85.2222L83.11 86.0766L82.5225 85.2985C78.9973 80.6453 76.6085 75.6717 75.2324 70.1337C74.9232 68.8979 74.5676 67.2731 74.5676 67.09C74.5676 67.029 74.8304 66.6476 75.1551 66.2509C76.4925 64.6108 77.915 62.1851 78.7035 60.2018C79.4147 58.4015 79.9791 56.113 80.2187 54.0534C80.4429 52.1387 80.3038 49.1485 79.8941 47.1499C78.3788 39.6971 73.4544 33.5336 66.4581 30.3373C64.3708 29.3914 61.7269 28.6439 59.6087 28.4227C59.1835 28.3769 58.766 28.3235 58.6732 28.3083C58.5882 28.2854 58.1321 27.965 57.6682 27.5836C51.0121 22.1141 42.7634 18.2848 35.6048 17.3313C34.2055 17.1482 34.0973 17.1329 32.7058 17.049C28.3456 16.7897 23.9855 17.6364 19.8109 19.5663C16.6104 21.0462 12.977 23.6779 10.6268 26.2334C7.22533 29.9254 5.38542 33.8692 5.26173 37.7291C5.19988 39.8878 5.59415 41.5813 6.62234 43.5265C7.58094 45.3191 8.48544 46.4328 11.9488 50.0486C12.9151 51.0555 14.0052 52.2074 14.3685 52.6041C18.2184 56.8148 21.0092 61.2468 22.5244 65.5796C23.1893 67.4714 23.7381 69.8743 23.8928 71.5983C23.9237 71.911 23.9623 72.2543 23.9778 72.3611C23.9933 72.4679 24.0164 73.307 24.0319 74.23C24.086 76.999 23.9546 78.4637 23.1197 84.2229C22.2384 90.3026 22.192 90.7756 22.1997 94.254C22.1997 96.8858 22.2152 97.3282 22.3775 98.4877C22.679 100.73 23.0656 102.416 23.7536 104.514C25.9955 111.364 29.9768 116.742 36.1846 121.319C38.9754 123.378 42.5392 125.514 47.8193 128.291C50.2004 129.55 50.8807 129.908 52.2645 130.663C57.7997 133.661 61.5259 136.057 64.6955 138.635L65.2907 139.123L64.6182 139.588C63.273 140.504 61.5491 141.823 60.0338 143.105C58.851 144.097 55.7897 147.148 54.8233 148.3C52.5892 150.947 50.6024 153.907 49.1954 156.683C48.9403 157.187 48.5383 157.934 48.3141 158.339C47.8502 159.147 47.8116 159.17 47.0462 159.17H46.6829L46.2191 158.346C45.9639 157.896 45.6934 157.423 45.6161 157.301L45.4769 157.072L46.6597 155.303C47.4019 154.174 47.8193 153.479 47.8039 153.38C47.7729 153.174 44.8275 150.169 44.6652 150.169C44.5956 150.169 43.7143 150.657 42.7093 151.26L40.8926 152.35L39.8412 151.733C38.8981 151.183 38.7898 151.099 38.813 150.932C38.8285 150.825 38.8594 150.26 38.8826 149.673C38.9135 149.086 38.9522 148.468 38.9676 148.3C39.045 147.491 39.0295 146.873 38.9213 146.767C38.8594 146.713 37.8776 146.393 36.7412 146.072C34.8472 145.531 34.6694 145.493 34.5534 145.607C34.4838 145.676 33.9813 146.53 33.4402 147.506L32.4429 149.291L31.2215 149.269L30 149.253L29.0337 147.362C28.1756 145.691 28.0441 145.477 27.8663 145.454C27.5494 145.416 23.684 146.4 23.5758 146.545C23.5062 146.637 23.4985 147.224 23.5217 148.788C23.5681 150.855 23.5603 150.916 23.4134 150.962C23.3284 150.985 22.8646 151.237 22.3775 151.504C21.8982 151.778 21.4576 151.984 21.4112 151.969C21.3648 151.954 20.5531 151.435 19.6099 150.825C18.6668 150.215 17.8319 149.711 17.7546 149.711C17.5536 149.711 14.5463 152.594 14.5154 152.816C14.4922 152.991 14.585 153.159 16.0306 155.493C16.3785 156.058 16.6645 156.531 16.6645 156.554C16.6645 156.599 15.6132 158.339 15.4895 158.491C15.3967 158.606 15.2112 158.606 13.2398 158.499C11.6782 158.407 11.0752 158.4 11.0134 158.461C10.8897 158.583 9.77647 162.45 9.79966 162.671C9.82285 162.824 10.1321 163.015 11.7401 163.884C13.6496 164.922 13.665 164.922 13.6186 165.143C13.5954 165.265 13.5722 165.799 13.5722 166.333V167.294L11.7091 168.209C10.6887 168.713 9.79966 169.186 9.73008 169.254C9.62185 169.377 9.65278 169.567 10.1321 171.451C10.4181 172.588 10.7042 173.572 10.766 173.633C10.8588 173.725 11.1989 173.732 12.9383 173.694C14.0747 173.671 15.0411 173.641 15.0875 173.625C15.1339 173.61 15.2498 173.763 15.3426 173.953C15.4431 174.152 15.7059 174.625 15.9378 175.014L16.3553 175.716L15.1957 177.462C14.5618 178.424 14.0361 179.286 14.0361 179.377C14.0361 179.629 16.9351 182.589 17.1825 182.589C17.2753 182.589 18.1643 182.108 19.1384 181.521C20.1202 180.933 20.9396 180.453 20.9551 180.453C20.9783 180.453 21.2257 180.598 21.5117 180.781C21.8055 180.964 22.2538 181.231 22.5244 181.368C22.9805 181.62 23.0037 181.643 23.0037 181.925C23.0037 182.207 22.8878 184.351 22.8105 185.35C22.7873 185.754 22.8027 185.892 22.911 186.006C22.996 186.105 23.684 186.334 24.9905 186.7C26.0651 186.998 27.0082 187.242 27.0855 187.242C27.1706 187.242 27.2865 187.188 27.3407 187.12C27.4025 187.051 27.8895 186.197 28.423 185.236L29.4048 183.473L30.5876 183.496C31.2447 183.504 31.8013 183.542 31.8322 183.565C31.8554 183.596 32.296 184.45 32.814 185.464C33.4402 186.693 33.7958 187.326 33.8963 187.356C34.0818 187.41 38.0786 186.433 38.2255 186.288C38.3028 186.212 38.326 185.876 38.3183 184.709C38.3105 183.901 38.2873 182.939 38.2641 182.573L38.2255 181.917L38.8285 181.612C39.1609 181.444 39.6402 181.185 39.8953 181.032C40.2432 180.826 40.3669 180.781 40.3824 180.865C40.3978 180.926 40.3051 181.673 40.1736 182.528C40.0499 183.382 39.8876 184.557 39.818 185.144C39.7562 185.731 39.6789 186.342 39.6634 186.509C39.5861 187.135 39.4006 189.462 39.3542 190.331C39.3233 190.835 39.2846 191.414 39.2614 191.628C39.2459 191.834 39.215 193.665 39.1996 195.686L39.1764 199.371L38.9908 199.691C38.8749 199.889 38.7589 200.011 38.6893 199.989C38.6275 199.973 37.6302 199.943 36.4706 199.92L34.3601 199.882L32.698 196.609C31.7858 194.809 30.9895 193.321 30.9277 193.291C30.7576 193.23 23.8696 194.946 23.7227 195.084C23.6222 195.19 23.6067 195.358 23.6531 196.197C23.6763 196.747 23.7227 198.402 23.7459 199.882L23.8 202.559L22.795 203.055C22.2461 203.33 21.4653 203.749 21.0633 203.993C20.6613 204.23 20.2439 204.482 20.1356 204.543C19.9346 204.665 19.9114 204.649 18.3576 203.642C14.0361 200.835 13.6418 200.599 13.5027 200.652C13.4254 200.683 12.2116 201.804 10.7969 203.147C9.05751 204.802 8.23806 205.633 8.23806 205.74C8.23806 205.824 9.1039 207.304 10.163 209.02L12.0802 212.148L11.6396 212.796C11.1216 213.567 10.5418 214.528 10.1243 215.306L9.82285 215.863L8.62459 215.817C7.96748 215.787 7.23306 215.748 7.00114 215.733C6.76922 215.71 5.62507 215.642 4.45774 215.573C2.6101 215.466 2.32406 215.466 2.23129 215.565C2.16944 215.626 1.67468 217.198 1.1258 219.059C0.314073 221.851 0.151728 222.469 0.229035 222.591C0.314073 222.721 1.16445 223.193 5.40861 225.497L6.79241 226.245L6.7383 226.931C6.7151 227.313 6.69191 228.289 6.69191 229.113V230.608L3.38317 232.263C1.56645 233.171 0.0512285 233.965 0.0048442 234.033C-0.103386 234.201 1.63602 241.074 1.81383 241.166C1.88341 241.204 3.03528 241.204 4.3727 241.166C6.66872 241.112 8.33082 241.082 9.06524 241.089L9.3822 241.097L9.81512 241.959C10.0548 242.432 10.5263 243.271 10.8665 243.835C11.2066 244.392 11.485 244.865 11.485 244.873C11.485 244.888 10.8278 245.887 10.0161 247.1C7.37221 251.075 7.36448 251.082 7.43406 251.235C7.57321 251.525 12.4436 256.43 12.5827 256.43C12.6678 256.43 14.1598 255.575 15.8992 254.53L19.0688 252.631L20.0042 253.226C20.5144 253.554 21.3648 254.057 21.8905 254.347C22.8027 254.843 22.8491 254.881 22.8491 255.102C22.8491 255.316 22.679 258.314 22.5863 259.9C22.4471 262.105 22.4394 262.265 22.5631 262.364C22.7022 262.479 29.2888 264.363 29.5439 264.363C29.6521 264.363 29.7681 264.271 29.8686 264.111C30.0541 263.821 32.9609 258.596 33.1928 258.146L33.3474 257.833L34.0354 257.894C34.4065 257.925 35.4038 257.948 36.2464 257.948C37.0968 257.948 37.7926 257.955 37.808 257.97C37.8158 257.986 38.5656 259.435 39.4547 261.205C40.3514 262.967 41.14 264.462 41.2096 264.515C41.3255 264.607 41.8048 264.508 44.8507 263.76C46.7757 263.287 48.3991 262.852 48.4455 262.791C48.5151 262.715 48.5228 261.868 48.4842 259.534C48.4532 257.81 48.4146 256.147 48.3914 255.857L48.3527 255.323L49.3809 254.812C49.9453 254.53 50.7956 254.072 51.2595 253.79C51.7311 253.516 52.1485 253.271 52.1949 253.249C52.334 253.195 55.8593 255.514 55.8593 255.659C55.8593 255.728 55.7046 256.483 55.5114 257.345C54.9857 259.679 54.1198 265.866 53.5014 271.724C52.8288 278.094 52.7051 281.191 53.0839 282.007C53.1844 282.228 53.4318 282.335 53.6792 282.259C53.8879 282.19 53.9343 281.954 53.7797 281.74C53.6715 281.587 53.656 281.32 53.656 279.924C53.656 278.506 53.7256 276.759 53.8106 276.232C53.8261 276.148 53.857 275.798 53.8879 275.462C53.9498 274.653 54.3672 270.626 54.5064 269.436C55.3568 262.319 55.6814 260.03 56.2149 257.574C56.7869 254.904 58.3563 248.397 58.5495 247.894C58.6114 247.733 58.6269 247.741 59.2994 248.161C60.7605 249.068 61.0311 249.221 62.0438 249.724C63.3735 250.373 64.564 250.815 66.2571 251.281C66.5122 251.349 67.1925 251.57 67.7723 251.776C74.1037 254.011 82.2442 255.651 88.7534 256.01C89.225 256.041 89.743 256.071 89.9131 256.086C90.0831 256.102 91.2118 256.14 92.4255 256.17C100.094 256.346 107.632 255.148 113.685 252.791C120.681 250.068 126.077 245.666 129.386 239.968C129.827 239.205 129.796 239.144 129.92 241.021C129.966 241.753 130.02 242.493 130.035 242.661C130.051 242.828 130.09 243.256 130.113 243.614C130.144 244.148 130.376 247.367 130.577 250.098C130.6 250.411 130.638 250.93 130.662 251.242C130.677 251.555 130.716 252.02 130.731 252.272C130.754 252.524 130.855 253.996 130.963 255.552C131.071 257.101 131.172 258.565 131.195 258.794C131.211 259.023 131.249 259.542 131.272 259.939C131.296 260.335 131.334 260.831 131.35 261.045C131.365 261.251 131.404 261.754 131.427 262.151C131.45 262.547 131.535 263.89 131.62 265.126C131.705 266.361 131.806 267.925 131.852 268.597C131.891 269.268 131.945 270.076 131.968 270.389C132.015 271.038 132.316 275.79 132.548 279.619C132.633 281.023 132.718 282.465 132.741 282.823C132.803 283.784 132.927 286.035 132.973 286.904C132.996 287.324 133.035 287.919 133.058 288.224C133.112 288.933 133.313 289.155 133.669 288.895C133.8 288.804 133.808 288.712 133.762 287.614C133.715 286.576 133.244 278.521 133.128 276.835C133.105 276.499 133.02 275.126 132.934 273.784C132.849 272.441 132.764 271.099 132.741 270.809C132.718 270.511 132.648 269.466 132.587 268.482C132.424 265.934 132.246 263.28 132.2 262.608C132.177 262.296 132.092 261.022 132.007 259.786C131.922 258.55 131.837 257.345 131.814 257.116C131.798 256.887 131.759 256.369 131.736 255.972C131.713 255.575 131.674 255.095 131.659 254.904C131.643 254.713 131.605 254.164 131.574 253.683C131.551 253.203 131.512 252.753 131.504 252.692C131.489 252.631 131.458 252.165 131.435 251.662C131.404 251.158 131.365 250.624 131.35 250.48C131.334 250.335 131.296 249.9 131.272 249.526C131.226 248.71 130.855 243.683 130.809 243.08C130.785 242.851 130.731 242.127 130.693 241.478C130.646 240.83 130.592 240.174 130.577 240.029C130.523 239.541 130.43 238.007 130.453 237.855C130.461 237.771 130.608 237.29 130.77 236.787C131.558 234.361 132.161 231.34 132.579 227.671C132.641 227.145 132.71 226.474 132.741 226.184C132.803 225.436 132.842 225.047 132.896 224.414L132.95 223.857L133.445 224.307C133.97 224.78 134.751 225.207 135.524 225.436C135.965 225.566 137.032 225.573 156.614 225.589L177.231 225.612V226.054C177.231 226.291 177.27 226.626 177.317 226.794C177.432 227.191 177.95 227.702 178.352 227.816C178.847 227.953 206.624 227.931 207.018 227.793C207.737 227.534 208.162 226.931 208.216 226.085L208.247 225.612H226.391C237.322 225.612 244.752 225.581 245.092 225.535C245.401 225.497 245.903 225.368 246.213 225.253L246.769 225.047L249.514 225.001C252.065 224.963 252.289 224.948 252.761 224.788C254.655 224.162 255.93 222.568 256.162 220.554C256.224 220.066 256.239 186.998 256.224 112.371C256.201 8.21558 256.193 4.87442 256.062 4.39383C255.977 4.11923 255.76 3.57001 255.567 3.17334C255.258 2.54782 255.118 2.35712 254.469 1.72397C253.634 0.900116 252.915 0.48819 251.794 0.175446L251.176 0.00762939L195.205 0C164.422 0 138.47 0.0228882 137.534 0.0457764ZM245.478 0.892487C246.924 1.18237 248.277 2.49442 248.679 3.9819C248.764 4.28705 248.779 24.4636 248.779 112.829C248.779 217.915 248.772 221.317 248.64 221.759C248.169 223.262 246.924 224.429 245.44 224.734C244.991 224.834 242.193 224.849 226.577 224.849H208.232V203.566C208.232 188.333 208.208 182.177 208.147 181.887C207.938 180.895 207.165 179.858 206.33 179.438C205.394 178.973 206.237 178.996 193.11 179.019L181.135 179.041L180.633 179.209C179.149 179.713 178.028 180.804 177.479 182.299L177.27 182.856L177.247 203.848L177.231 224.849H156.799C134.256 224.849 135.818 224.879 134.805 224.353C134.148 224.017 133.653 223.598 133.298 223.079L133.012 222.675L133.089 221.416C133.321 217.427 133.344 205.778 133.128 201.926C133.112 201.629 133.081 200.721 133.05 199.905C133.027 199.088 132.989 198.127 132.973 197.769C132.958 197.41 132.919 196.655 132.896 196.09C132.834 194.611 132.78 193.489 132.741 192.658C132.718 192.261 132.687 191.552 132.664 191.094C132.641 190.629 132.587 189.584 132.548 188.767C132.509 187.951 132.471 185.304 132.471 182.886V178.5L132.672 178.103C133.221 177.02 134.589 176.585 136.846 176.791C138.253 176.913 139.668 177.165 142.868 177.859C148.071 178.988 152.107 179.621 156.513 179.995C159.791 180.27 164.252 180.254 167.066 179.949C176.327 178.958 182.751 175.342 186.91 168.751C187.529 167.775 188.758 165.349 189.183 164.266L189.477 163.518L195.978 163.503L202.48 163.48L202.797 163.274C203.415 162.87 203.4 163.022 203.423 158.308C203.439 155.562 203.415 154.029 203.361 153.83C203.261 153.479 202.975 153.113 202.635 152.93C202.418 152.816 201.939 152.8 197.223 152.778L192.059 152.755L192.105 152.511C192.19 152.03 192.461 149.49 192.577 148.033C192.786 145.371 192.84 144.036 192.971 138.841C193.025 136.446 192.871 128.337 192.762 128.268C192.716 128.245 192.337 128.177 191.904 128.123L191.131 128.024L191.178 127.521C191.286 126.514 191.541 125.118 191.68 124.805C191.873 124.378 192.299 123.92 192.894 123.501C193.157 123.317 193.389 123.165 193.412 123.165C193.435 123.165 193.466 124.012 193.481 125.049L193.505 126.941L193.721 127.299C193.837 127.498 194.046 127.749 194.185 127.849C194.765 128.291 194.564 128.276 201.382 128.276C208.556 128.276 208.224 128.306 208.85 127.666C209.043 127.467 209.291 127.277 209.399 127.246C209.77 127.132 210.095 126.88 210.303 126.537L210.512 126.178L210.535 119.885L210.551 113.584L210.342 113.172C210.18 112.859 210.033 112.699 209.747 112.524L209.368 112.295L204.66 112.272L199.96 112.249L200.014 111.7C200.053 111.395 200.076 110.426 200.076 109.533L200.068 107.916L203.786 107.893C207.482 107.87 207.497 107.87 207.861 107.695C208.062 107.596 208.34 107.39 208.479 107.237C208.626 107.077 208.943 106.856 209.19 106.734C209.7 106.49 209.963 106.154 210.087 105.582C210.141 105.323 210.164 103.24 210.149 99.1742L210.126 93.1479L209.932 92.7665C209.809 92.5224 209.615 92.3012 209.407 92.1563L209.067 91.9274L202.063 91.9045L195.059 91.8893L194.548 92.1334C194.27 92.2707 193.938 92.4614 193.814 92.5529L193.574 92.7208L193.18 92.5301C192.36 92.1258 191.286 92.3394 190.59 93.0564C190.15 93.4988 189.856 94.1091 189.608 95.0855L189.407 95.8941L189.369 94.2922C189.346 93.2547 189.299 92.6369 189.237 92.5301C189.067 92.2402 188.534 91.8206 188.217 91.7367C188.008 91.6833 185.728 91.6604 180.927 91.6757L173.946 91.6986L173.304 92.0342C172.941 92.2249 172.57 92.4843 172.431 92.6445C171.967 93.2013 171.975 93.0793 171.975 99.8302C171.975 105.803 171.982 106.009 172.129 106.406C172.292 106.833 172.686 107.268 173.134 107.497C173.389 107.634 173.722 107.642 179.265 107.664C182.481 107.672 185.117 107.703 185.117 107.725C185.117 107.748 185.009 108.122 184.869 108.542C184.738 108.969 184.467 109.938 184.266 110.693L183.903 112.066L178.924 112.104C173.273 112.15 173.784 112.081 173.041 112.844C172.322 113.592 172.361 113.172 172.361 120.236C172.361 125.682 172.377 126.407 172.485 126.727C172.663 127.254 172.995 127.627 173.505 127.872C173.946 128.085 173.954 128.085 175.608 128.1C176.984 128.108 177.278 128.131 177.293 128.222C177.317 128.329 176.628 131.586 176.458 132.181L176.373 132.456L175.392 132.487L174.41 132.509L173.714 132.853C173.134 133.143 172.98 133.257 172.771 133.562C172.632 133.768 172.485 134.058 172.438 134.211C172.392 134.386 172.361 136.171 172.361 139.024V143.555L172.114 143.982C170.173 147.369 167.545 149.62 164.654 150.375C163.618 150.642 161.739 150.703 160.487 150.512C158.933 150.276 157.07 149.658 155.454 148.841L154.774 148.498H160.386C166.756 148.491 166.455 148.521 167.089 147.88C167.328 147.651 167.545 147.506 167.723 147.468C168.102 147.4 168.519 147.102 168.735 146.759L168.921 146.469L168.944 140.138C168.967 133.028 168.991 133.394 168.403 132.898C168.202 132.723 167.947 132.601 167.692 132.548C167.413 132.487 165.249 132.471 160.494 132.487L153.691 132.509L153.088 132.807C152.408 133.143 151.952 133.593 151.813 134.058C151.743 134.279 151.72 135.965 151.72 140.283C151.72 143.54 151.697 146.202 151.674 146.202C151.651 146.202 151.256 145.897 150.808 145.531C145.737 141.404 139.413 137.514 133.514 134.905L132.509 134.455V69.3327V4.20312L132.687 3.70731C133.275 2.10538 134.597 1.02982 136.22 0.823853C136.993 0.7323 245.007 0.793335 245.478 0.892487ZM119.05 1.60956C122.645 2.10538 126.224 4.01242 129.564 7.21628C130.113 7.74261 130.832 8.46729 131.164 8.83344L131.775 9.50473V64.8168V120.121L130.87 119.336C129.726 118.336 129.154 117.886 127.368 116.567C125.312 115.049 124.508 114.392 123.472 113.401L122.56 112.516L122.676 112.18C122.738 111.99 122.815 111.456 122.846 110.998C122.869 110.533 122.908 110.037 122.923 109.892C122.939 109.747 122.97 109.198 123.001 108.671C123.024 108.145 123.062 107.458 123.086 107.146C123.256 104.567 123.256 100.791 123.078 98.9835C122.931 97.4808 122.776 96.2145 122.606 95.1008L122.413 93.8497L122.776 93.3081C122.977 93.0106 123.65 92.08 124.261 91.2409C127.136 87.3276 127.855 86.2749 128.837 84.5052C129.78 82.8041 130.453 81.0115 130.832 79.2265C131.017 78.3569 131.033 78.1128 131.033 76.404C131.04 74.764 131.017 74.4207 130.863 73.6198C130.291 70.6371 129.131 68.1885 127.129 65.7246C126.216 64.6032 124.106 62.5284 121.841 60.5374C119.39 58.3786 116.746 55.7698 115.664 54.4348C114.334 52.7948 113.183 50.9945 112.371 49.3087C110.036 44.4266 109.178 38.7207 109.897 32.9615C110.098 31.3366 110.577 29.0787 111.064 27.4081C111.304 26.6148 111.304 26.5843 111.173 26.4393C111.002 26.2486 110.809 26.241 110.655 26.4164C110.461 26.6377 109.704 29.5364 109.441 31.0544C108.822 34.5786 108.737 37.752 109.17 41.0473C109.789 45.7921 111.605 50.2851 114.388 53.9848C115.958 56.0596 117.72 57.8599 121.338 61.0866C123.851 63.3141 125.714 65.1448 126.611 66.2585C128.373 68.4478 129.525 70.7973 130.028 73.2765C130.291 74.5656 130.345 75.0996 130.337 76.4422C130.329 78.9519 129.804 80.9505 128.451 83.6127C127.678 85.1307 126.889 86.3817 125.412 88.4032C124.825 89.2118 123.874 90.5238 123.287 91.3248C122.405 92.5453 122.22 92.7589 122.173 92.6216C122.15 92.5377 122.034 92.0419 121.926 91.5308C121.617 90.1196 121.153 88.4947 120.596 86.8928C120.318 86.0919 120.071 85.3748 120.055 85.2909C120.024 85.1688 120.117 85.0849 120.581 84.8561C121.57 84.3603 122.452 83.5059 122.923 82.5829C124.222 80.0503 123.217 76.1218 120.619 73.5435C119.537 72.4755 118.447 71.8271 116.151 70.8889C111.629 69.0352 105.9 67.8147 101.586 67.7842H100.968L100.342 66.9603C99.4528 65.8085 98.3627 64.5422 96.3296 62.2919C92.2941 57.837 90.717 55.7469 89.2559 52.955C87.3001 49.24 86.4188 45.6166 86.3569 41.0473C86.326 38.9496 86.3801 38.0495 86.6352 36.1272C88.6143 21.1759 101.045 5.25583 113.268 2.02145C115.169 1.51801 117.311 1.36545 119.05 1.60956ZM33.5175 17.8271C40.8539 18.4679 48.2909 21.4886 55.2795 26.6529C56.47 27.5378 57.2431 28.1328 57.2431 28.1938C57.2508 28.2167 56.9106 28.232 56.5009 28.232C47.6415 28.232 39.3928 33.2666 35.3961 41.116C34.105 43.6486 33.301 46.3871 32.9686 49.3239C32.8681 50.2241 32.8449 52.6651 32.93 53.4813C33.2624 56.7233 33.9118 59.1185 35.1796 61.735C37.522 66.5713 41.4724 70.4693 46.3582 72.773C49.4273 74.2224 52.535 74.9547 56.0525 75.0615C57.0343 75.092 58.7042 75.0081 59.6087 74.886C59.9024 74.8403 60.1575 74.8174 60.1653 74.8326C60.2271 74.8937 60.5827 77.5254 60.7219 78.9213C60.9693 81.4844 61.0234 82.6286 61.1161 87.8082C61.2244 93.4683 61.4099 95.3601 62.1598 98.1826C63.3812 102.805 65.8551 107.153 69.0788 110.35C71.9778 113.233 74.6835 114.888 81.3397 117.863C86.326 120.098 89.0163 121.502 91.5288 123.195C92.039 123.531 92.4874 123.836 92.526 123.859C92.5724 123.89 92.4333 124.233 92.1936 124.66C91.4747 125.987 90.632 127.223 89.6425 128.39L89.1245 129.008L88.1659 129.184C85.3365 129.718 81.2237 130.93 78.6649 131.998C74.8459 133.585 70.4626 135.843 67.1384 137.933C66.5122 138.33 65.9788 138.65 65.9478 138.65C65.9247 138.65 65.3217 138.192 64.6104 137.636C63.1107 136.453 62.0284 135.668 60.575 134.706C57.4672 132.662 55.3181 131.434 48.3605 127.742C41.2173 123.943 38.0245 121.96 34.7544 119.275C33.5948 118.321 31.291 116.078 30.4793 115.102C27.6963 111.768 25.7868 108.343 24.4494 104.285C22.6713 98.8844 22.4394 93.804 23.6222 85.9012C24.0938 82.7049 24.4803 79.9664 24.5962 78.9213C24.7741 77.3042 24.8127 73.0781 24.6658 71.7127C24.0474 65.961 21.7359 60.6289 17.5226 55.1976C16.2084 53.5042 15.157 52.3294 12.0184 49.0569C10.0857 47.0355 9.37447 46.2421 8.54728 45.1437C7.10937 43.2443 6.32084 41.4364 6.06572 39.4378C5.95749 38.5453 6.01161 36.8289 6.18942 35.883C7.04753 31.207 10.4877 26.4775 15.7059 22.8007C17.5072 21.5268 19.9965 20.1995 22.107 19.3832C23.9469 18.6738 26.4748 18.0712 28.3766 17.9034C28.8868 17.8576 29.4279 17.8042 29.5748 17.789C30.1082 17.7432 32.7985 17.7661 33.5175 17.8271ZM59.0598 34.3269C61.1084 34.8456 63.0102 36.4552 63.8683 38.408C64.4017 39.6209 64.4326 39.9107 64.4945 43.7248C64.5331 45.609 64.5486 47.2262 64.5331 47.3177C64.5099 47.4932 64.4867 47.4932 63.4817 47.4932H62.4536L62.3994 43.9766C62.3453 40.8795 62.3221 40.3837 62.1907 39.8726C61.7578 38.1715 60.4977 36.8366 58.8124 36.3026C58.0548 36.0585 56.8642 36.028 56.0912 36.2339C54.7228 36.6001 53.4859 37.607 52.8829 38.8352C52.45 39.72 52.3804 40.1472 52.3804 42.0695C52.3804 43.6486 52.365 43.7935 52.2258 44.0223C51.9011 44.5334 51.1358 44.6326 50.6874 44.2207C50.3241 43.885 50.2699 43.5341 50.3163 41.6194C50.3627 39.6361 50.4555 39.1479 51.0276 37.9961C52.4887 35.0592 55.8515 33.5259 59.0598 34.3269ZM68.2284 47.7525C68.9783 48.0119 69.7591 48.79 70.0528 49.5757C70.2539 50.1096 70.2384 50.5902 69.8905 55.2739C69.8673 55.5485 69.7977 56.5555 69.7282 57.5242C69.5504 60.217 69.303 61.346 68.584 62.803C66.7596 66.5026 63.2344 68.6767 58.8897 68.7911C57.9388 68.814 57.9388 68.814 59.0598 68.5012C62.1598 67.6392 64.9738 65.0838 66.1875 62.0478C66.69 60.7815 66.8601 59.8203 67.0301 57.3335C67.092 56.3876 67.1616 55.3731 67.1848 55.0832C67.3316 53.1762 67.5326 49.9647 67.5326 49.5375C67.5326 49.2553 67.494 48.9349 67.4476 48.8129C67.3007 48.4238 66.9683 48.0195 66.6281 47.8212C66.4426 47.7144 66.2957 47.6152 66.2957 47.5923C66.2957 47.5084 67.9037 47.6457 68.2284 47.7525ZM66.1179 48.378C66.5431 48.584 66.7982 48.973 66.7982 49.4307C66.7982 49.8655 66.69 51.8336 66.6436 52.1845C66.6127 52.4134 66.5972 52.7109 66.4503 54.9307C66.404 55.6019 66.3576 56.3724 66.3344 56.647C66.3112 56.9216 66.2571 57.6539 66.2107 58.2871C66.1643 58.9126 66.0638 59.7364 65.9865 60.1178C64.8887 65.366 59.7633 68.9131 54.3982 68.1351C50.2158 67.5248 46.8684 64.5117 45.8402 60.423C45.6624 59.6983 45.6315 59.4008 45.6161 58.2871C45.6006 57.57 45.6393 56.4258 45.6934 55.7316C45.7475 55.0375 45.8171 54.0458 45.848 53.5194C45.8789 52.9931 45.9176 52.5125 45.9253 52.4515C45.9408 52.3905 45.9717 51.8565 46.0026 51.2691C46.0335 50.6817 46.0722 50.1478 46.0799 50.0867C46.0954 50.0181 46.1263 49.5833 46.1572 49.1104L46.2191 48.256H56.0293C64.9738 48.256 65.8705 48.2636 66.1179 48.378ZM74.4903 70.1871C75.9823 76.2515 78.5489 81.4844 82.507 86.4885L83.1487 87.2971L83.1873 88.0142C83.7053 96.6111 87.4083 104.102 94.0722 110.014L94.7525 110.617L94.8375 112.028C94.9767 114.331 94.7602 116.925 94.2345 119.267C94.0258 120.205 93.4228 122.074 93.0904 122.806L92.8971 123.241L91.9462 122.6C89.3178 120.831 86.8053 119.511 81.7185 117.238C76.3147 114.812 73.7636 113.386 71.3825 111.479C68.7077 109.327 66.6591 106.726 64.8965 103.255C63.9147 101.325 63.2575 99.5785 62.786 97.6867C62.1289 95.0703 61.9279 92.8962 61.8506 87.5794C61.7733 81.8582 61.5645 78.7612 61.0775 75.7556C60.8919 74.6343 60.8765 74.6801 61.4872 74.5733C62.384 74.4055 64.077 73.9096 65.2057 73.4748C67.2157 72.7044 69.1484 71.6364 70.88 70.3549C71.6608 69.7675 73.3693 68.2953 73.7559 67.8605L73.9105 67.6926L74.011 68.1732C74.0728 68.4402 74.2816 69.348 74.4903 70.1871ZM119.661 86.4199C120.735 89.3262 121.609 93.0183 122.073 96.6188C122.421 99.3115 122.49 100.547 122.459 103.179C122.436 104.583 122.405 105.994 122.382 106.307C122.359 106.619 122.289 107.825 122.227 108.976C122.073 111.776 122.026 112.104 121.81 112.104C121.74 112.104 121.315 111.951 120.859 111.768C119.962 111.41 119.011 110.822 118.308 110.197C117.311 109.32 116.352 107.741 115.981 106.352C115.788 105.62 115.656 105.467 115.339 105.612C115.084 105.727 115.1 106.017 115.386 106.917C116.128 109.274 117.86 111.212 120.14 112.264C120.48 112.417 120.905 112.592 121.083 112.646C121.261 112.691 121.393 112.768 121.369 112.806C121.269 112.958 120.65 113.18 119.073 113.622C118.153 113.874 117.226 114.171 117.025 114.27C116.561 114.507 116.12 114.972 115.857 115.529L115.656 115.956L115.695 118.321C115.71 119.618 115.726 122.089 115.726 123.813C115.726 126.666 115.71 127.04 115.556 128.047C115.2 130.282 114.69 131.609 113.863 132.441C113.09 133.211 112.293 133.516 110.631 133.684C110.168 133.73 109.24 133.875 108.583 133.997C107.029 134.287 106.387 134.363 104.586 134.462C101.486 134.622 98.0071 134.287 95.0694 133.539C91.7375 132.685 89.5652 131.281 89.5652 129.977C89.5652 129.695 89.6425 129.565 90.3614 128.68C92.2168 126.384 93.3764 124.34 94.25 121.83C95.255 118.954 95.6338 116.437 95.5874 112.943L95.5565 111.074L97.2959 111.067C99.476 111.067 101.246 110.861 103.055 110.418C105.05 109.915 106.611 108.656 107.423 106.886C107.709 106.261 107.825 105.788 108.119 104.079C108.544 101.547 109.077 99.3268 109.866 96.779L110.144 95.9093L110.392 96.4815C110.74 97.2672 111.412 98.2665 112 98.8538C112.796 99.6548 113.724 100.174 114.752 100.372C115.107 100.441 115.177 100.441 115.308 100.318C115.393 100.242 115.463 100.128 115.463 100.067C115.463 99.876 115.223 99.67 114.991 99.67C114.659 99.67 113.847 99.3497 113.36 99.0369C112.842 98.6936 112.139 97.9766 111.729 97.3587C111.358 96.8095 110.786 95.6347 110.655 95.1465C110.562 94.7956 110.57 94.7728 110.84 94.2311C111.103 93.6972 111.111 93.6514 111.041 93.2547C110.933 92.6979 111.002 91.546 111.165 91.1646C111.544 90.2797 112.34 89.9822 113.198 90.4094C113.863 90.7298 114.404 91.3934 115.301 92.9649C115.741 93.7353 116.12 94.3837 116.128 94.399C116.19 94.4753 117.056 93.8726 117.342 93.5675C118.076 92.7513 118.316 91.8435 118.177 90.3331C117.976 88.1362 118.076 86.9386 118.517 86.1987C118.702 85.8935 119.12 85.4816 119.251 85.4816C119.282 85.4816 119.468 85.9088 119.661 86.4199ZM186.477 92.797C186.655 92.8733 186.879 93.0564 186.98 93.1937L187.165 93.4531L187.189 98.0681L187.204 102.676L186.934 103.354C186.779 103.728 186.439 104.514 186.168 105.109C185.898 105.704 185.619 106.352 185.542 106.551L185.403 106.917L179.674 106.924C176.528 106.932 173.861 106.924 173.753 106.917C173.459 106.902 173.018 106.581 172.879 106.284C172.763 106.04 172.748 105.429 172.748 99.7845C172.748 93.0793 172.732 93.3615 173.15 92.9801C173.242 92.8886 173.413 92.7818 173.521 92.736C173.644 92.6902 175.995 92.6597 179.937 92.6597C185.843 92.6521 186.176 92.6597 186.477 92.797ZM207.76 93.0945C207.868 93.1708 208.031 93.3539 208.116 93.4988C208.27 93.7506 208.27 93.8955 208.27 100.013V106.268L208.092 106.551C207.992 106.711 207.783 106.894 207.582 106.985C207.265 107.138 207.142 107.146 203.547 107.146H199.828L199.743 106.757C199.651 106.368 199.658 106.352 199.929 105.857C200.277 105.223 201.042 104.148 202.975 101.577C205.997 97.5418 206.771 96.3594 207.033 95.3449C207.142 94.9253 207.142 94.849 207.041 94.5973C206.724 93.865 205.642 93.9947 204.127 94.9482C202.967 95.6805 201.776 96.6569 198.762 99.3497C197.154 100.791 197.115 100.814 196.164 101.196C195.839 101.325 195.174 101.653 194.695 101.92C194.216 102.195 193.814 102.416 193.798 102.416C193.783 102.416 193.775 101.135 193.775 99.5709C193.775 97.0612 193.791 96.6417 193.93 95.9628C194.123 94.9635 194.169 94.315 194.077 93.804C193.992 93.3692 194.061 93.2166 194.432 93.0106C194.602 92.9115 206.825 92.8047 207.296 92.8962C207.443 92.9267 207.652 93.0106 207.76 93.0945ZM192.956 93.2242C193.435 93.537 193.505 94.3685 193.164 95.9704C193.041 96.5577 192.685 98.2054 192.384 99.6319C191.757 102.592 191.564 103.507 191.41 104.087C191.278 104.59 191.379 104.88 191.703 104.918C191.858 104.934 192.044 104.819 192.554 104.377C193.968 103.141 195.035 102.47 196.628 101.798C197.594 101.394 197.625 101.371 199.689 99.5099C203.214 96.3365 205.085 94.9711 205.997 94.8795C206.361 94.849 206.376 94.849 206.376 95.0397C206.376 95.4974 205.232 97.3206 203.384 99.7921C202.797 100.585 201.869 101.814 201.344 102.531C199.133 105.483 198.8 106.124 199.032 106.917C199.372 108.046 199.457 110.273 199.233 111.944C198.97 113.912 198.274 116.193 197.432 117.863C196.45 119.793 195.329 120.999 193.195 122.402C192.159 123.081 191.634 123.531 191.309 124.012C190.907 124.607 190.807 124.95 190.567 126.544C190.459 127.261 190.35 127.864 190.335 127.879C190.32 127.894 189.214 127.765 187.884 127.589C186.555 127.414 185.364 127.261 185.233 127.238C185.109 127.223 184.637 127.162 184.189 127.101C183.741 127.04 183.084 126.948 182.72 126.903C182.357 126.857 181.97 126.804 181.862 126.781L181.661 126.743L181.808 126.041C181.885 125.652 182.21 123.966 182.527 122.288C183.617 116.505 184.444 112.73 185.233 109.938C185.782 108.008 186.16 106.955 186.864 105.368C188.225 102.332 189.253 99.3726 190.15 95.9322C190.366 95.116 190.629 94.2769 190.745 94.071C190.977 93.6514 191.456 93.2166 191.804 93.1098C192.121 93.0106 192.716 93.0717 192.956 93.2242ZM193.079 101.562V102.996L192.716 103.271C192.515 103.423 192.337 103.545 192.33 103.538C192.314 103.515 193.025 100.128 193.056 100.128C193.072 100.128 193.079 100.776 193.079 101.562ZM183.609 113.309C183.292 114.545 182.434 118.741 181.677 122.783C181.244 125.118 180.95 126.598 180.911 126.651C180.904 126.659 180.192 126.567 179.319 126.445C178.445 126.323 177.726 126.239 177.711 126.247C177.703 126.262 177.649 126.506 177.595 126.796L177.502 127.322H175.709C174.016 127.322 173.907 127.315 173.699 127.162C173.583 127.078 173.405 126.887 173.312 126.75L173.134 126.498V120.251C173.134 114.217 173.142 113.996 173.281 113.714C173.451 113.393 173.683 113.218 174.054 113.119C174.186 113.088 176.404 113.065 178.979 113.08L183.663 113.096L183.609 113.309ZM124.276 115.125C124.639 115.422 125.822 116.33 126.905 117.139C129.262 118.901 129.943 119.45 130.986 120.449L131.775 121.204V127.673V134.134L130.453 133.608C128.172 132.693 124.956 131.602 122.815 130.999C122.266 130.846 122.15 130.785 122.104 130.633C122.073 130.534 122.011 129.763 121.965 128.924C121.655 123.638 121.052 120.526 119.661 117.062C119.383 116.368 119.019 115.537 118.849 115.201C118.679 114.873 118.571 114.576 118.609 114.545C118.64 114.515 119.243 114.324 119.947 114.133C121.184 113.782 121.702 113.569 121.972 113.271C122.104 113.134 122.127 113.157 122.861 113.859C123.279 114.255 123.913 114.827 124.276 115.125ZM207.969 113.408C208.17 113.5 208.379 113.683 208.479 113.843L208.657 114.125L208.68 120.152C208.695 124.332 208.68 126.3 208.618 126.567C208.533 126.956 208.309 127.246 207.946 127.429C207.822 127.49 206.044 127.513 201.429 127.513C194.641 127.513 194.873 127.528 194.525 127.147C194.216 126.811 194.169 126.491 194.162 124.53V122.646L194.726 122.234C196.35 121.021 197.455 119.633 198.344 117.665C198.8 116.666 199.334 115.102 199.581 114.034L199.767 113.248H203.701C207.528 113.248 207.652 113.256 207.969 113.408ZM118.269 115.705C120.063 119.595 120.797 122.761 121.184 128.314C121.23 128.939 121.284 129.71 121.307 130.007C121.331 130.313 121.338 130.564 121.315 130.564C121.292 130.564 120.519 130.381 119.584 130.16C118.656 129.931 117.489 129.664 116.986 129.565L116.074 129.382L116.112 129.153C116.429 127.467 116.576 125.141 116.514 122.86C116.491 121.914 116.445 120.045 116.414 118.702C116.368 116.078 116.383 115.941 116.746 115.453C116.963 115.163 117.512 114.774 117.705 114.774C117.798 114.774 117.96 115.041 118.269 115.705ZM166.223 133.623C166.424 133.715 166.633 133.898 166.733 134.058L166.911 134.34L166.934 140.519L166.95 146.698L166.78 147.041C166.679 147.232 166.486 147.461 166.339 147.552L166.076 147.728H159.729L153.382 147.72L152.918 147.308L152.455 146.889V140.618V134.34L152.632 134.058C152.733 133.905 152.949 133.715 153.135 133.623C153.46 133.463 153.521 133.463 159.675 133.463C165.805 133.463 165.898 133.463 166.223 133.623ZM176.118 133.593C176.095 133.669 175.933 134.226 175.763 134.844C175.144 137.071 174.201 139.733 173.474 141.312L173.134 142.045V138.208C173.134 133.982 173.119 134.111 173.614 133.745C173.954 133.493 174.016 133.486 175.167 133.471C176.08 133.463 176.157 133.471 176.118 133.593ZM28.5312 148.04C29.0414 149.047 29.4975 149.902 29.5362 149.94C29.5826 149.97 30.3479 150.009 31.2369 150.024L32.8604 150.054L33.8422 148.3C34.3833 147.331 34.8549 146.5 34.8936 146.439C34.9477 146.347 35.2182 146.4 36.5557 146.774C37.437 147.018 38.1868 147.24 38.2178 147.262C38.2487 147.293 38.2332 147.995 38.1868 148.834C38.1327 149.673 38.0863 150.642 38.0863 150.985L38.0786 151.603L38.7357 151.954C39.0991 152.144 39.6943 152.488 40.0577 152.724C40.4133 152.953 40.7766 153.144 40.8617 153.144C40.939 153.144 41.8125 152.663 42.7943 152.076L44.5724 151L45.7552 152.198C46.3969 152.861 46.9226 153.441 46.9226 153.487C46.9148 153.533 46.4046 154.341 45.7784 155.28C45.1599 156.21 44.6497 157.019 44.6497 157.072C44.6497 157.133 44.8198 157.446 45.0285 157.774C45.2373 158.11 45.5697 158.689 45.7629 159.071C45.9562 159.46 46.1572 159.796 46.2113 159.826C46.2654 159.864 46.5592 159.879 46.8684 159.872L47.425 159.849L46.5437 161.626C45.2141 164.311 44.3791 166.318 43.3973 169.163C42.3692 172.153 41.4337 175.639 40.8462 178.683C40.6143 179.873 40.5756 179.995 40.4442 179.964C40.3592 179.942 40.0113 180.102 39.5552 180.369C39.1455 180.613 38.5193 180.956 38.1637 181.132L37.5143 181.46L37.5529 183.611L37.5916 185.77L35.9372 186.174C34.9786 186.41 34.2519 186.548 34.2133 186.509C34.1823 186.471 33.7649 185.67 33.2856 184.724C32.8063 183.779 32.3656 182.947 32.296 182.878C32.1955 182.756 32.0177 182.741 30.7963 182.749C30.0309 182.749 29.3893 182.734 29.3661 182.718C29.3506 182.695 29.2424 182.703 29.1342 182.734C28.9718 182.779 28.7554 183.115 27.9127 184.61C27.3561 185.617 26.8613 186.441 26.8227 186.433C26.784 186.433 26.0264 186.227 25.1451 185.976L23.5371 185.525L23.5758 184.991C23.684 183.618 23.7923 181.368 23.7536 181.269C23.7304 181.208 23.4134 181.002 23.0501 180.811C22.679 180.621 22.0838 180.27 21.7204 180.033C21.3648 179.804 21.0247 179.614 20.9705 179.614C20.9164 179.614 20.0815 180.094 19.0997 180.682C18.1256 181.269 17.3062 181.749 17.2753 181.749C17.1516 181.749 14.8787 179.362 14.9174 179.263C14.9406 179.209 15.4431 178.424 16.0383 177.531C16.6336 176.631 17.1438 175.845 17.167 175.784C17.1902 175.731 17.0279 175.388 16.8114 175.037C16.595 174.678 16.2548 174.076 16.0693 173.702C15.876 173.32 15.675 172.985 15.6286 172.954C15.5822 172.924 14.585 172.916 13.4176 172.947L11.2917 172.992L10.8742 171.345C10.6423 170.437 10.4722 169.682 10.4877 169.666C10.5032 169.651 11.3303 169.232 12.3199 168.743C13.3094 168.255 14.1675 167.805 14.2216 167.744C14.3067 167.668 14.3299 167.363 14.3299 166.485C14.3299 165.852 14.3531 165.173 14.384 164.975C14.4226 164.693 14.4072 164.578 14.3144 164.494C14.2526 164.426 13.7191 164.113 13.1316 163.8C12.5441 163.488 11.8406 163.099 11.5623 162.946C11.284 162.801 10.9438 162.618 10.8047 162.549C10.6655 162.481 10.565 162.381 10.5882 162.343C10.6037 162.298 10.8201 161.558 11.0675 160.703L11.5236 159.147L12.8378 159.208C13.5568 159.231 14.2603 159.269 14.384 159.284C14.8633 159.345 15.7832 159.353 15.8683 159.3C15.9147 159.269 16.1002 158.979 16.2857 158.651C16.4635 158.331 16.8114 157.751 17.0588 157.37C17.3139 156.988 17.5149 156.63 17.5149 156.576C17.5149 156.523 17.3603 156.233 17.1825 155.936C16.997 155.638 16.5099 154.852 16.1002 154.189C15.6827 153.525 15.3503 152.953 15.3503 152.923C15.3503 152.892 15.9069 152.343 16.5872 151.702L17.8241 150.535L19.5481 151.664C20.4912 152.282 21.3416 152.8 21.4267 152.823C21.5272 152.839 21.7513 152.747 22.0065 152.579C22.2384 152.434 22.8414 152.091 23.3516 151.832L24.2793 151.351V149.185V147.011L25.8641 146.614C26.7377 146.393 27.4875 146.21 27.5262 146.21C27.5726 146.202 28.021 147.026 28.5312 148.04ZM202.519 153.746C202.658 153.914 202.666 154.105 202.666 158.14C202.666 162.176 202.658 162.366 202.519 162.534L202.372 162.717L196.141 162.755C192.716 162.778 189.879 162.786 189.848 162.771C189.809 162.763 189.949 162.221 190.15 161.581C190.838 159.384 191.471 156.66 191.819 154.418L191.958 153.525L197.161 153.54L202.372 153.563L202.519 153.746ZM205.626 179.903C206.253 180.155 206.91 180.773 207.196 181.383L207.42 181.864L207.443 204.123C207.459 228.739 207.505 226.664 206.972 226.985C206.732 227.137 206.469 227.137 192.67 227.137C182.465 227.137 178.569 227.114 178.445 227.053C178.352 227.008 178.213 226.893 178.144 226.802C178.012 226.649 178.005 225.383 178.005 204.878V183.115L178.198 182.535C178.669 181.147 179.837 180.117 181.275 179.804C181.669 179.72 183.88 179.705 193.466 179.713L205.178 179.728L205.626 179.903ZM65.6773 187.356C65.77 187.463 65.7546 188.622 65.6386 190.331C65.6232 190.583 65.5845 191.201 65.5613 191.704C65.4995 192.948 65.2289 197.319 65.1748 197.883C65.1593 198.135 65.1207 198.6 65.0975 198.913C64.6877 204.687 63.9379 212.552 63.3194 217.602C63.1648 218.868 62.8169 221.622 62.7782 221.912C62.7628 222.034 62.6546 222.789 62.5463 223.59C61.4022 231.928 59.9565 239.594 58.449 245.292C57.8924 247.413 56.9184 251.265 56.5164 252.951C56.2844 253.905 56.0834 254.706 56.0603 254.728C56.0448 254.751 55.2021 254.225 54.1894 253.577C53.1767 252.921 52.3031 252.387 52.2413 252.387C52.1794 252.387 51.8006 252.593 51.4064 252.844C50.5946 253.355 49.1799 254.126 48.2522 254.545L47.6492 254.828L47.6956 258.054C47.7265 259.824 47.7652 261.502 47.7884 261.777L47.8348 262.28L44.8121 263.02C43.15 263.425 41.7507 263.753 41.6966 263.753C41.6425 263.753 40.8462 262.28 39.934 260.488L38.2719 257.231L36.803 257.223C35.9991 257.215 34.8626 257.185 34.2906 257.154C32.9763 257.078 32.9609 257.078 32.8681 257.246C32.8217 257.322 32.01 258.771 31.0591 260.472C29.714 262.891 29.312 263.554 29.2038 263.539C28.8327 263.463 23.3439 261.899 23.282 261.846C23.2511 261.807 23.3129 260.198 23.4289 258.192C23.5449 256.216 23.6222 254.545 23.599 254.484C23.5681 254.423 23.3129 254.256 23.0192 254.111C22.1765 253.691 21.0401 253.027 20.0429 252.379L19.1306 251.776L18.8832 251.898C18.7518 251.967 17.3062 252.829 15.675 253.805C14.0361 254.789 12.6909 255.59 12.6755 255.59C12.6136 255.59 8.31536 251.143 8.31536 251.075C8.31536 251.029 9.20439 249.663 10.2867 248.039C11.369 246.406 12.2812 245.018 12.3044 244.949C12.3353 244.873 12.2116 244.606 11.9875 244.24C11.3071 243.164 10.851 242.363 10.3949 241.448C10.1398 240.944 9.89243 240.487 9.84604 240.426C9.76101 240.334 9.39766 240.319 7.27172 240.365C5.91111 240.395 4.23354 240.433 3.54551 240.456C2.84975 240.479 2.2854 240.487 2.2854 240.464C2.2854 240.441 1.96071 239.129 1.55872 237.535C1.15672 235.948 0.816569 234.59 0.801108 234.514C0.785646 234.392 1.36545 234.079 4.10212 232.721L7.42633 231.066L7.43406 229.349C7.43406 228.404 7.46498 227.236 7.49591 226.756C7.54229 226.054 7.53456 225.856 7.44952 225.787C7.39541 225.741 6.6378 225.314 5.76423 224.849C1.89114 222.751 1.08714 222.316 1.03303 222.27C1.00211 222.24 1.36545 220.875 1.84475 219.242L2.71059 216.267L3.56097 216.29C4.03255 216.298 4.60462 216.32 4.83654 216.343C6.21261 216.45 10.0857 216.633 10.1939 216.587C10.2635 216.565 10.4645 216.259 10.6423 215.909C11.0366 215.138 11.9952 213.559 12.5054 212.842C12.7064 212.552 12.8765 212.247 12.8765 212.163C12.8765 212.079 12.6755 211.683 12.4204 211.278C10.6655 208.448 9.15028 205.969 9.11936 205.893C9.0807 205.801 13.5259 201.507 13.6496 201.507C13.6882 201.507 14.6314 202.102 15.7523 202.826C19.3394 205.16 19.8341 205.473 19.9501 205.473C20.0119 205.473 20.3521 205.29 20.7 205.069C21.5349 204.543 22.6172 203.94 23.5758 203.482C23.9933 203.276 24.3875 203.07 24.4571 203.017C24.5731 202.918 24.5731 202.674 24.4262 197.265L24.3798 195.579L27.4412 194.824C29.4048 194.344 30.5257 194.1 30.5644 194.145C30.603 194.191 31.3606 195.625 32.2419 197.349C33.1232 199.065 33.8808 200.522 33.9195 200.568C33.9813 200.637 34.4838 200.667 35.8676 200.667C36.8881 200.667 38.0245 200.698 38.3878 200.728C38.7666 200.767 39.0991 200.767 39.1841 200.728C39.3001 200.667 39.3155 200.713 39.3155 201.179C39.3155 201.735 39.331 201.903 39.5088 204.138C39.6943 206.373 40.1659 210.264 40.3669 211.21C40.4056 211.408 40.3978 211.416 40.1504 211.347C39.215 211.088 37.9627 210.95 36.4165 210.927C34.0586 210.889 32.3965 211.133 30.3479 211.805C27.5262 212.735 25.2766 214.116 23.1119 216.259C20.3985 218.945 18.7596 222.095 18.0483 226.001C17.8319 227.221 17.77 229.944 17.9401 231.18C18.373 234.346 19.5867 237.283 21.5117 239.815C22.2152 240.746 24.0242 242.561 24.8977 243.21C26.1501 244.141 27.3948 244.865 28.6858 245.43C30.0851 246.032 31.9482 246.574 33.2701 246.749C33.6025 246.788 33.9504 246.841 34.0586 246.864C34.1669 246.887 34.7931 246.925 35.4579 246.948C39.8026 247.116 44.0931 245.697 47.5874 242.951C48.4455 242.279 49.7443 240.99 50.3627 240.197L50.8575 239.579L51.1667 240.014C51.8161 240.929 52.8907 242.279 53.6869 243.172C54.5296 244.118 56.4004 245.956 56.9957 246.421C57.2817 246.643 57.3204 246.65 57.359 246.536C57.5291 245.979 58.3949 242.493 58.7119 241.097C59.9875 235.414 61.2166 228.266 62.0825 221.492C62.1521 220.966 62.2216 220.455 62.2371 220.348C62.2526 220.241 62.2912 219.967 62.3144 219.738C62.3376 219.509 62.4072 218.937 62.469 218.479C62.6004 217.434 62.6004 217.396 62.9329 214.474C63.0797 213.155 63.2885 211.164 63.3967 210.05C63.5049 208.936 63.6054 207.876 63.6286 207.685C63.6441 207.495 63.675 207.151 63.6982 206.923C63.7369 206.495 63.791 205.938 63.8605 205.168C63.8992 204.695 64.3399 199.111 64.4017 198.226C64.4249 197.914 64.4558 197.41 64.479 197.12C64.5022 196.823 64.5331 196.327 64.5563 196.014C64.6182 195.091 64.7419 193.146 64.7882 192.2C64.8192 191.72 64.8501 191.17 64.8655 190.98C64.881 190.789 64.9119 190.034 64.9428 189.301C64.9892 187.844 65.0279 187.486 65.1516 187.333C65.2598 187.204 65.5613 187.219 65.6773 187.356ZM38.1173 211.728C38.7821 211.805 39.6789 211.965 40.2509 212.117C40.5215 212.186 40.5292 212.194 40.622 212.735C41.7275 219.082 43.6602 225.581 46.0567 230.982C47.0385 233.186 48.5615 236.047 49.6901 237.817C50.5019 239.075 50.4709 238.854 49.9453 239.541C49.3113 240.38 47.626 242.02 46.6829 242.722C42.6707 245.674 37.7617 246.81 32.8217 245.933C32.4584 245.872 31.8013 245.712 31.3606 245.59C26.5212 244.224 22.6558 241.074 20.4139 236.673C17.0356 230.044 18.3498 221.973 23.6531 216.732C26.3047 214.108 30.0077 212.27 33.5561 211.805C33.9427 211.759 34.306 211.705 34.3679 211.69C34.6694 211.629 37.4988 211.66 38.1173 211.728Z" fill="black"/>
<path d="M150.73 13.3188C149.849 13.6316 149.153 14.3334 148.867 15.203L148.705 15.6835V38.858C148.705 64.5116 148.666 62.5207 149.207 63.3293C149.694 64.0692 150.429 64.5193 151.341 64.649C151.643 64.6947 167.073 64.7176 191.34 64.71C230.048 64.6947 230.852 64.6947 231.23 64.5498C232.289 64.1531 233.001 63.3598 233.248 62.2995C233.387 61.7197 233.41 16.2328 233.271 15.592C233.124 14.9436 232.923 14.5546 232.467 14.0893C232.181 13.7918 231.872 13.5705 231.555 13.4256L231.076 13.2044L191.108 13.1891C151.944 13.1739 151.132 13.1739 150.73 13.3188ZM231.284 14.1045C231.756 14.3334 232.096 14.669 232.367 15.1725L232.545 15.4928V38.9114V62.33L232.367 62.6504C232.096 63.1538 231.756 63.4895 231.284 63.7183L230.844 63.9319H190.992H151.14L150.754 63.7259C150.259 63.4666 149.841 63.0394 149.633 62.5817L149.478 62.2308V38.9114C149.478 16.2175 149.486 15.5844 149.625 15.264C149.903 14.6309 150.437 14.1808 151.14 13.9596C151.388 13.8833 159.288 13.868 191.147 13.8757L230.844 13.8909L231.284 14.1045Z" fill="black"/>
<path d="M215.019 36.2797C214.115 36.4323 213.473 36.7603 212.862 37.3782C211.448 38.797 211.448 41.1084 212.87 42.5272C214.679 44.3351 217.748 43.8698 218.892 41.6042C219.202 41.0016 219.317 40.4142 219.263 39.6743C219.217 38.9114 218.993 38.3165 218.529 37.7062C217.733 36.6764 216.241 36.0738 215.019 36.2797Z" fill="black"/>
<path d="M203.067 36.707C202.093 36.9663 201.181 37.63 200.71 38.4233C200.454 38.8657 200.192 39.7888 200.192 40.2617C200.192 41.9323 201.374 43.4427 203.013 43.8698C205.394 44.4801 207.698 42.7332 207.69 40.3304C207.683 39.2624 207.397 38.5301 206.67 37.7596C205.75 36.7909 204.32 36.3713 203.067 36.707Z" fill="black"/>
<path d="M191.533 36.8289C191.301 36.8594 190.853 37.012 190.536 37.1646C188.974 37.9198 188.124 39.7048 188.557 41.3372C189.052 43.229 190.845 44.4266 192.739 44.1367C193.837 43.9689 194.989 43.1908 195.491 42.2602C196.287 40.8108 196.009 38.9953 194.819 37.8435C193.953 37.0044 192.762 36.6382 191.533 36.8289Z" fill="black"/>
<path d="M179.164 37.1112C177.95 37.5002 177.092 38.3393 176.69 39.5293C176.373 40.4676 176.505 41.6805 177.023 42.5501C177.316 43.0459 178.089 43.7325 178.638 43.9842C179.481 44.3732 180.285 44.4571 181.128 44.2436C184.328 43.4273 185.055 39.3234 182.303 37.5613C181.398 36.9815 180.13 36.7984 179.164 37.1112Z" fill="black"/>
<path d="M167.568 37.2408C165.813 37.6985 164.654 39.2776 164.762 41.0397C164.947 44.1901 168.805 45.6776 171.086 43.4883C172.616 42.0237 172.616 39.6056 171.086 38.1562C170.166 37.2866 168.766 36.9281 167.568 37.2408Z" fill="black"/>
<path d="M152.694 71.5983C151.96 71.9568 151.782 72.117 151.527 72.6205L151.333 73.0019V79.3256C151.333 83.956 151.357 85.7333 151.426 85.9546C151.55 86.3588 152.029 86.8776 152.478 87.0988L152.841 87.2742H159.296H165.751L166.115 87.0988C166.316 86.9996 166.594 86.786 166.741 86.6335C166.903 86.458 167.127 86.3131 167.344 86.2521C167.8 86.1224 168.148 85.8478 168.364 85.4587L168.534 85.1383L168.55 78.9748C168.565 74.7258 168.55 72.7044 168.488 72.4832C168.38 72.056 168.009 71.6135 167.614 71.4381C167.313 71.3008 166.942 71.2932 160.301 71.2932H153.305L152.694 71.5983ZM166.006 72.4908C166.122 72.5747 166.277 72.7501 166.354 72.8722C166.478 73.0858 166.486 73.5282 166.486 79.4172C166.486 85.6418 166.486 85.7333 166.331 85.9774C166.238 86.1224 166.022 86.3054 165.836 86.3894C165.512 86.5496 165.427 86.5496 159.288 86.5496C153.398 86.5496 153.057 86.5419 152.756 86.4046C152.563 86.3131 152.369 86.1529 152.253 85.9698L152.068 85.6723V79.3714V73.0705L152.284 72.7959C152.4 72.6433 152.578 72.4755 152.671 72.4221C152.802 72.3458 154.233 72.3153 158.987 72.2848C162.365 72.2619 165.28 72.2696 165.465 72.2924C165.651 72.3153 165.89 72.4069 166.006 72.4908Z" fill="black"/>
<path d="M173.405 71.583C172.663 71.9416 172.269 72.3382 172.098 72.9027C171.921 73.4901 171.913 85.329 172.091 85.9088C172.245 86.4199 172.585 86.8013 173.119 87.0606L173.56 87.2742H179.976C186.354 87.2742 186.393 87.2742 186.748 87.114C186.941 87.0225 187.235 86.8165 187.405 86.6487C187.614 86.4351 187.8 86.3207 188.016 86.2826C188.464 86.2063 188.874 85.9546 189.114 85.6113L189.33 85.3062L189.353 78.8908L189.369 72.4755L189.199 72.1323C189.091 71.9339 188.882 71.6974 188.689 71.5601L188.348 71.3313L181.182 71.3084L174.023 71.2932L173.405 71.583ZM186.586 72.445C186.748 72.5366 186.949 72.7349 187.042 72.8951C187.204 73.1849 187.204 73.2078 187.204 79.3714C187.204 86.2215 187.227 85.8935 186.694 86.2902L186.408 86.5114H179.968C173.56 86.5114 173.529 86.5114 173.312 86.3512C173.196 86.2673 173.018 86.0766 172.926 85.9393L172.748 85.6876V79.4401C172.748 72.4679 172.717 72.8493 173.281 72.4679L173.56 72.2848H179.922C186.269 72.2848 186.292 72.2848 186.586 72.445Z" fill="black"/>
<path d="M194.935 71.5602C194.494 71.7204 193.907 72.056 193.667 72.2696C193.543 72.384 193.365 72.6434 193.265 72.857L193.079 73.2384V79.6156V85.9851L193.28 86.3818C193.389 86.603 193.605 86.8852 193.76 87.0073C194.332 87.4726 194.2 87.465 201.073 87.465C208.177 87.465 207.791 87.4955 208.456 86.8547C208.649 86.664 208.951 86.4504 209.121 86.3741C209.515 86.1987 209.747 85.9775 209.955 85.5961C210.126 85.2909 210.126 85.2681 210.149 79.2342C210.164 74.9013 210.149 73.0553 210.079 72.7578C209.979 72.2467 209.523 71.728 209.043 71.5602C208.603 71.4076 195.344 71.4076 194.935 71.5602ZM207.582 72.5976C207.783 72.6892 207.992 72.8722 208.092 73.0324L208.27 73.3147V79.5698C208.27 85.6876 208.27 85.8325 208.116 86.0843C207.922 86.4047 207.629 86.6259 207.312 86.6945C207.172 86.7174 204.25 86.725 200.81 86.7022C194.61 86.664 194.556 86.664 194.339 86.5038C194.223 86.4123 194.053 86.2292 193.968 86.0843C193.814 85.8325 193.814 85.6876 193.814 79.5698V73.3147L193.992 73.0324C194.092 72.8799 194.309 72.6892 194.494 72.5976C194.819 72.4374 194.881 72.4374 201.034 72.4374C207.165 72.4374 207.257 72.4374 207.582 72.5976Z" fill="black"/>
<path d="M215.46 71.5526C214.439 71.9569 213.836 72.4451 213.659 73.0325C213.589 73.2537 213.566 75.031 213.566 79.6614V85.9851L213.767 86.3818C213.875 86.603 214.092 86.8776 214.246 87.0073C214.834 87.4803 214.602 87.4726 221.652 87.4497C227.845 87.4269 228.069 87.4192 228.37 87.2743C228.533 87.198 228.811 86.9921 228.973 86.8242C229.136 86.6564 229.414 86.4581 229.592 86.3742C230.001 86.1987 230.233 85.9851 230.442 85.5961L230.612 85.291V79.0358C230.612 74.0928 230.589 72.7197 230.512 72.4985C230.38 72.14 229.824 71.6365 229.445 71.5297C228.996 71.4076 215.769 71.4229 215.46 71.5526ZM228.069 72.5976C228.27 72.6892 228.478 72.8723 228.579 73.0325L228.757 73.3147V79.5698C228.757 85.741 228.757 85.8249 228.594 86.0919C228.509 86.2369 228.324 86.4352 228.177 86.5267L227.922 86.7022H221.552C214.494 86.7022 214.934 86.7327 214.517 86.1911L214.3 85.9165V79.6156V73.3147L214.478 73.0325C214.579 72.8799 214.795 72.6892 214.981 72.5976C215.305 72.4375 215.367 72.4375 221.521 72.4375C227.651 72.4375 227.744 72.4375 228.069 72.5976Z" fill="black"/>
<path d="M153.382 91.7138C153.034 91.7978 152.246 92.2097 151.983 92.4385C151.821 92.5758 151.612 92.8581 151.519 93.0717L151.333 93.4531V99.8302V106.2L151.534 106.596C151.643 106.818 151.859 107.092 152.014 107.222C152.601 107.695 152.369 107.687 159.42 107.664C165.62 107.642 165.836 107.634 166.138 107.489C166.308 107.405 166.586 107.199 166.756 107.024C166.965 106.818 167.158 106.688 167.344 106.657C167.514 106.627 167.769 106.482 167.985 106.299C168.596 105.765 168.573 106.078 168.55 99.0293L168.534 92.8428L168.318 92.4843C168.179 92.2478 167.978 92.0495 167.738 91.9122L167.375 91.6986L160.456 91.691C156.652 91.6833 153.467 91.691 153.382 91.7138ZM165.821 92.8047C165.999 92.8886 166.215 93.0717 166.316 93.209L166.486 93.4607V99.7921C166.486 105.971 166.478 106.124 166.331 106.368C166.246 106.505 166.068 106.68 165.929 106.764C165.682 106.909 165.527 106.917 159.312 106.917C152.261 106.917 152.702 106.947 152.284 106.406L152.068 106.131V99.8302C152.068 93.6438 152.068 93.5217 152.223 93.2624C152.315 93.1022 152.524 92.9267 152.725 92.8199L153.065 92.6521H159.288C165.334 92.6521 165.519 92.6597 165.821 92.8047Z" fill="black"/>
<path d="M215.012 92.1486C214.254 92.5301 213.999 92.7436 213.767 93.2013L213.566 93.598V99.9218C213.566 104.552 213.589 106.329 213.659 106.551C213.782 106.955 214.262 107.474 214.71 107.695L215.073 107.87H221.529H227.984L228.347 107.695C228.548 107.596 228.826 107.39 228.965 107.237C229.112 107.077 229.429 106.856 229.677 106.734C230.202 106.482 230.465 106.139 230.573 105.536C230.628 105.269 230.643 102.943 230.635 99.1361L230.612 93.1479L230.419 92.7665C230.295 92.5224 230.102 92.3012 229.893 92.1563L229.553 91.9274L222.549 91.9045L215.537 91.8893L215.012 92.1486ZM228.162 93.0335C228.301 93.1174 228.478 93.2929 228.564 93.4302C228.71 93.6743 228.718 93.8268 228.718 100.006C228.718 106.23 228.718 106.329 228.564 106.581C228.471 106.719 228.254 106.902 228.069 106.985C227.744 107.146 227.651 107.146 221.521 107.146H215.298L214.957 106.97C214.718 106.856 214.563 106.703 214.439 106.467L214.262 106.131V100.021V93.9031L214.439 93.5675C214.532 93.3768 214.726 93.1479 214.872 93.0564L215.135 92.8809H221.521C227.76 92.8809 227.914 92.8886 228.162 93.0335Z" fill="black"/>
<path d="M153.228 112.348C152.524 112.653 152.223 112.89 151.968 113.317L151.759 113.668L151.736 120.098C151.72 126.521 151.72 126.521 151.883 126.903C151.975 127.109 152.184 127.406 152.354 127.559C152.988 128.123 152.501 128.085 159.683 128.085H166.138L166.501 127.91C166.702 127.81 166.988 127.597 167.135 127.429C167.29 127.269 167.475 127.132 167.545 127.132C167.777 127.124 168.287 126.857 168.511 126.628C168.975 126.132 168.96 126.422 168.96 119.595V113.355L168.766 112.966C168.643 112.722 168.449 112.501 168.248 112.363L167.932 112.142L160.85 112.127L153.769 112.104L153.228 112.348ZM166.339 113.271C166.486 113.363 166.679 113.592 166.772 113.782L166.95 114.118L166.927 120.304L166.911 126.483L166.733 126.765C166.633 126.926 166.424 127.109 166.223 127.2C165.898 127.36 165.813 127.36 159.675 127.36C153.784 127.36 153.444 127.353 153.143 127.215C152.949 127.124 152.756 126.964 152.64 126.781L152.455 126.483V120.19V113.897L152.64 113.645C152.741 113.5 152.934 113.317 153.065 113.241C153.297 113.103 153.56 113.096 159.691 113.096H166.076L166.339 113.271Z" fill="black"/>
<path d="M215.962 112.333C215.568 112.447 214.764 112.874 214.547 113.08C214.424 113.195 214.238 113.454 214.138 113.668L213.952 114.049V120.426V126.796L214.153 127.193C214.261 127.414 214.478 127.688 214.632 127.818C215.212 128.291 214.988 128.276 221.915 128.276C229.089 128.276 228.702 128.306 229.336 127.666C229.537 127.467 229.777 127.277 229.885 127.246C230.225 127.147 230.62 126.826 230.813 126.498L230.998 126.178V119.809V113.439L230.805 113.096C230.589 112.722 230.241 112.455 229.808 112.333C229.475 112.241 216.256 112.241 215.962 112.333ZM228.455 113.408C228.656 113.5 228.865 113.683 228.965 113.843L229.143 114.126V120.381C229.143 126.498 229.143 126.643 228.988 126.895C228.903 127.04 228.733 127.223 228.617 127.315C228.401 127.475 228.347 127.475 222.278 127.513C218.908 127.536 215.993 127.536 215.792 127.513C215.367 127.46 215.058 127.261 214.841 126.895C214.687 126.643 214.687 126.498 214.687 120.381V114.126L214.864 113.843C214.965 113.691 215.181 113.5 215.367 113.408C215.692 113.248 215.753 113.248 221.907 113.248C228.038 113.248 228.13 113.248 228.455 113.408Z" fill="black"/>
<path d="M195.051 132.914C194.394 133.204 194.069 133.417 193.868 133.692C193.458 134.233 193.466 134.073 193.466 140.809C193.466 145.378 193.489 147.14 193.559 147.362C193.683 147.766 194.162 148.285 194.61 148.506L194.974 148.681H201.429H207.884L208.247 148.506C208.448 148.407 208.727 148.201 208.866 148.048C209.013 147.888 209.291 147.697 209.492 147.621C209.917 147.461 210.334 147.026 210.458 146.591C210.582 146.202 210.59 134.249 210.466 133.821C210.365 133.448 209.979 133.021 209.585 132.845C209.291 132.708 208.889 132.7 202.395 132.7L195.515 132.708L195.051 132.914ZM207.946 133.776C208.232 133.898 208.518 134.249 208.618 134.607C208.672 134.806 208.696 136.919 208.68 140.992L208.657 147.079L208.471 147.377C208.355 147.56 208.162 147.72 207.969 147.812C207.667 147.949 207.327 147.957 201.429 147.957C195.53 147.957 195.19 147.949 194.889 147.812C194.695 147.72 194.502 147.56 194.386 147.377L194.2 147.079V140.824C194.2 134.706 194.2 134.561 194.355 134.31C194.572 133.951 194.873 133.745 195.26 133.699C195.924 133.608 207.714 133.684 207.946 133.776Z" fill="black"/>
<path d="M215.537 132.914C214.602 133.326 214.208 133.699 214.03 134.31C213.914 134.706 213.929 146.98 214.045 147.362C214.169 147.766 214.648 148.285 215.097 148.506L215.46 148.681H221.915H228.37L228.734 148.506C228.935 148.407 229.228 148.185 229.383 148.018C229.545 147.834 229.777 147.682 229.94 147.636C230.311 147.537 230.821 147.011 230.945 146.606C231.068 146.202 231.076 134.264 230.952 133.821C230.852 133.448 230.465 133.021 230.071 132.845C229.777 132.708 229.375 132.7 222.881 132.7L216.001 132.708L215.537 132.914ZM228.432 133.776C228.718 133.898 229.004 134.249 229.105 134.607C229.159 134.806 229.182 136.919 229.167 140.992L229.143 147.079L228.958 147.377C228.842 147.56 228.649 147.72 228.455 147.812C228.154 147.949 227.814 147.957 221.915 147.957C216.017 147.957 215.676 147.949 215.375 147.812C215.182 147.72 214.988 147.56 214.872 147.377L214.687 147.079V140.824C214.687 134.706 214.687 134.561 214.842 134.31C215.035 133.989 215.329 133.768 215.646 133.699C216.102 133.608 228.192 133.684 228.432 133.776Z" fill="black"/>
<path d="M55.2021 51.9405C53.5787 52.3601 52.4655 53.9925 52.7592 55.5258C52.9602 56.5708 53.6715 57.5015 54.5914 57.921C54.978 58.0965 55.0166 58.127 54.978 58.3101C54.9548 58.4245 54.9006 59.2865 54.8465 60.2324C54.7615 61.819 54.7615 61.9716 54.8852 62.2004C54.9702 62.3606 55.1248 62.4979 55.3026 62.5742C55.55 62.6734 55.6273 62.681 55.8902 62.5895C56.47 62.3911 56.4932 62.2996 56.6401 60.1103C56.7096 59.0424 56.7869 58.1575 56.7947 58.1422C56.8101 58.1346 56.9493 58.0736 57.0962 58.0202C57.9311 57.7074 58.7196 56.9065 59.0057 56.0903C59.1912 55.5563 59.1912 54.5341 59.0057 54.0001C58.7119 53.161 57.9311 52.3753 57.073 52.0549C56.5705 51.8642 55.7046 51.8108 55.2021 51.9405Z" fill="black"/>
<path d="M30.1932 155.714C29.4588 155.768 28.3687 155.981 27.6498 156.21C23.854 157.408 21.1173 160.413 20.2901 164.304C20.066 165.341 20.0428 167.195 20.2438 168.248C21.0787 172.649 24.542 176.105 28.9408 176.913C29.8299 177.081 31.6002 177.111 32.4351 176.982C36.9266 176.288 40.3591 173.213 41.4337 168.934C42.0598 166.424 41.7506 163.884 40.5524 161.55C38.7588 158.072 35.28 155.89 31.2755 155.714C30.8735 155.699 30.3865 155.699 30.1932 155.714ZM32.9917 156.653C36.3314 157.347 39.0758 159.651 40.3127 162.793C41.3409 165.395 41.2095 168.324 39.9571 170.803C39.4546 171.787 38.9985 172.443 38.2486 173.221C36.687 174.831 34.7002 175.883 32.5279 176.227C27.0236 177.096 21.8749 173.419 20.955 167.95C20.7617 166.829 20.8313 165.158 21.1019 164.067C22.1223 160.032 25.4543 157.072 29.6211 156.508C30.4251 156.393 32.1181 156.47 32.9917 156.653Z" fill="black"/>
<path d="M187.15 188.226C186.972 188.31 186.694 188.516 186.524 188.691C185.952 189.263 185.967 189.134 185.967 194.443C185.967 199.043 185.975 199.188 186.13 199.523C186.323 199.943 186.679 200.324 187.088 200.538C187.398 200.706 187.421 200.706 192.384 200.706H197.37L197.687 200.538C198.105 200.317 198.592 199.767 198.708 199.386C198.831 198.989 198.839 189.858 198.723 189.439C198.599 189.004 198.19 188.531 197.726 188.294L197.316 188.081H192.392C187.738 188.081 187.459 188.089 187.15 188.226Z" fill="black"/>
<path d="M263.398 57.9133C263.329 57.9743 263.274 58.0811 263.274 58.1498C263.274 58.2184 263.591 58.5922 263.986 58.9812C264.705 59.7135 264.96 59.8356 265.192 59.6067C265.393 59.4084 265.277 59.1948 264.565 58.493C263.831 57.776 263.638 57.6768 263.398 57.9133Z" fill="black"/>
<path d="M268.701 58.5082C268.307 58.8973 267.99 59.2634 267.99 59.3092C267.99 59.5228 268.16 59.6982 268.369 59.6982C268.531 59.6982 268.732 59.5457 269.289 58.9812C269.683 58.5922 270 58.2184 270 58.1497C270 58.0811 269.946 57.9743 269.876 57.9132C269.629 57.6691 269.436 57.7683 268.701 58.5082Z" fill="black"/>
<path d="M264.782 62.4445C264.565 62.5284 263.274 63.8481 263.274 63.9854C263.274 64.138 263.522 64.3516 263.707 64.3516C263.792 64.3516 264.163 64.0464 264.581 63.6345C265.13 63.0853 265.292 62.8869 265.269 62.7496C265.238 62.5208 264.983 62.3606 264.782 62.4445Z" fill="black"/>
<path d="M268.067 62.5894C268.029 62.6734 267.99 62.7802 267.99 62.8336C267.99 62.8793 268.307 63.2455 268.701 63.6345C269.258 64.199 269.459 64.3516 269.621 64.3516C269.83 64.3516 270 64.1761 270 63.9625C270 63.9168 269.683 63.5506 269.289 63.1616C268.732 62.5971 268.531 62.4445 268.369 62.4445C268.23 62.4445 268.121 62.4979 268.067 62.5894Z" fill="black"/>
<path d="M10.5727 108.038C10.3253 108.252 9.67593 109.762 9.73777 109.991C9.78416 110.189 10.047 110.304 10.2248 110.205C10.3253 110.151 11.0056 108.778 11.137 108.374C11.168 108.275 11.1293 108.168 11.0288 108.069C10.8278 107.87 10.7737 107.87 10.5727 108.038Z" fill="black"/>
<path d="M5.00664 110.09C4.80564 110.227 4.79018 110.433 4.97571 110.601C5.15352 110.754 6.65328 111.417 6.83882 111.417C7.03208 111.417 7.17124 111.234 7.14031 111.021C7.12485 110.884 6.94705 110.761 6.29767 110.456C5.26175 109.96 5.21537 109.945 5.00664 110.09Z" fill="black"/>
<path d="M10.9824 112.897C10.8896 113.035 10.8742 113.126 10.936 113.225C11.0056 113.37 12.6909 114.164 12.9151 114.164C12.9692 114.164 13.0697 114.095 13.1316 114.003C13.348 113.698 13.2166 113.561 12.2734 113.126C11.7864 112.897 11.3226 112.714 11.2453 112.714C11.168 112.714 11.0443 112.798 10.9824 112.897Z" fill="black"/>
<path d="M7.49586 114.522C6.93925 115.735 6.89286 115.857 6.97017 115.979C7.09386 116.162 7.27167 116.254 7.41855 116.2C7.56544 116.147 8.39262 114.484 8.39262 114.255C8.39262 114.057 8.23801 113.935 7.99063 113.935C7.78963 113.935 7.74324 113.988 7.49586 114.522Z" fill="black"/>
<path d="M22.5784 130.511C22.0527 130.686 21.8053 130.847 21.4034 131.274C20.3365 132.426 20.6225 134.333 21.9754 135.118C23.2819 135.874 24.9672 135.37 25.6321 134.035C25.7944 133.707 25.8253 133.547 25.8253 132.929C25.8253 132.296 25.7944 132.159 25.6166 131.823C25.3692 131.35 24.8126 130.831 24.3333 130.618C23.8849 130.427 23.0113 130.374 22.5784 130.511ZM24.1478 131.342C24.5729 131.541 24.9131 131.953 25.06 132.456C25.2687 133.15 25.0522 133.837 24.4724 134.317C23.7071 134.966 22.6557 134.897 21.9677 134.142C21.3879 133.509 21.3106 132.693 21.7667 131.991C22.2769 131.19 23.2587 130.923 24.1478 131.342Z" fill="black"/>
<path d="M162.018 234.75L160.758 235.093L160.796 235.597C160.819 235.871 160.858 236.497 160.881 236.985L160.928 237.878L160.363 238.183C160.054 238.358 159.698 238.564 159.575 238.641L159.358 238.793L158.199 238.068C157.557 237.679 156.993 237.359 156.939 237.374C156.892 237.389 156.459 237.801 155.98 238.29L155.114 239.182L155.864 240.342L156.622 241.501L156.475 241.738C156.397 241.867 156.196 242.218 156.034 242.516L155.74 243.065L154.318 243.027L152.895 242.981L152.81 243.278C152.772 243.446 152.625 243.973 152.501 244.453C152.37 244.934 152.261 245.369 152.261 245.414C152.261 245.46 152.818 245.788 153.498 246.139L154.735 246.772V247.665V248.565L153.498 249.221C152.316 249.854 152.261 249.884 152.308 250.075C152.339 250.182 152.493 250.739 152.648 251.311L152.934 252.348L153.815 252.325C154.302 252.318 154.944 252.287 155.253 252.272C155.748 252.234 155.81 252.249 155.856 252.379C155.879 252.455 156.073 252.806 156.281 253.157C156.498 253.5 156.668 253.798 156.668 253.813C156.668 253.821 156.336 254.355 155.934 254.995L155.199 256.162L156.104 257.055C156.606 257.551 157.039 257.955 157.078 257.955C157.109 257.955 157.658 257.627 158.291 257.223L159.451 256.49L159.892 256.757C160.139 256.902 160.495 257.101 160.68 257.192L161.02 257.36L160.974 258.764L160.928 260.167L161.33 260.274C161.554 260.335 162.118 260.488 162.597 260.61L163.463 260.839L164.12 259.61L164.77 258.375L165.69 258.359L166.602 258.337L167.197 259.465C167.53 260.083 167.831 260.633 167.87 260.694C167.932 260.785 168.14 260.747 169.192 260.465L170.444 260.129L170.39 258.695C170.351 257.795 170.359 257.269 170.405 257.269C170.452 257.269 170.8 257.078 171.186 256.849L171.897 256.429L173.003 257.108C173.614 257.49 174.163 257.818 174.224 257.841C174.294 257.864 174.665 257.551 175.245 256.979L176.157 256.071L175.392 254.889L174.619 253.699L174.912 253.233C175.067 252.974 175.26 252.623 175.345 252.455L175.485 252.142L176.922 252.196L178.353 252.249L178.654 251.082C178.824 250.434 178.971 249.869 178.987 249.823C179.01 249.77 178.469 249.45 177.781 249.099L176.536 248.458V247.848C176.528 247.512 176.513 247.115 176.49 246.955L176.451 246.681L177.44 246.162C177.982 245.88 178.554 245.575 178.708 245.483L178.987 245.33L178.654 244.118C178.469 243.454 178.306 242.889 178.283 242.874C178.26 242.851 177.618 242.859 176.861 242.897L175.469 242.966L175.291 242.622C175.191 242.439 174.982 242.088 174.827 241.852L174.549 241.425L175.268 240.288C175.67 239.663 175.995 239.113 175.995 239.075C175.995 239.03 175.585 238.595 175.09 238.107L174.178 237.214L172.98 237.969L171.782 238.724L171.55 238.572C171.426 238.496 171.063 238.282 170.753 238.114C170.204 237.809 170.181 237.786 170.228 237.557C170.251 237.428 170.274 236.81 170.29 236.177L170.305 235.04L169.068 234.712C168.395 234.537 167.823 234.392 167.8 234.384C167.777 234.384 167.468 234.941 167.112 235.627L166.471 236.863H165.566L164.662 236.871L163.981 235.627C163.61 234.941 163.301 234.392 163.293 234.392C163.285 234.399 162.713 234.559 162.018 234.75ZM167.012 241.143C169.563 241.661 171.642 243.721 172.168 246.246C172.307 246.932 172.33 248.138 172.207 248.801C171.805 250.998 170.235 252.89 168.109 253.737C167.182 254.11 166.78 254.179 165.597 254.179C164.708 254.172 164.406 254.141 163.896 254.004C161.067 253.203 159.126 250.823 158.933 247.924C158.802 245.842 159.853 243.622 161.562 242.348C162.389 241.738 163.556 241.242 164.553 241.074C165.048 240.99 166.463 241.028 167.012 241.143Z" fill="black"/>
<path d="M222.688 235.223C219.511 235.513 219.387 235.528 218.823 235.574C217.795 235.65 217.663 235.681 217.578 235.864C217.509 236.009 217.733 236.505 219.117 239.274C220.083 241.219 220.786 242.539 220.864 242.569C220.941 242.6 221.065 242.592 221.134 242.546C221.242 242.493 223.515 239.114 225.842 235.544C225.943 235.399 225.935 235.353 225.827 235.185C225.664 234.949 225.672 234.949 222.688 235.223ZM224.775 235.795C224.775 235.833 224.474 236.291 222.812 238.808C222.294 239.586 221.699 240.487 221.49 240.807C221.273 241.135 221.08 241.394 221.049 241.379C220.941 241.349 218.506 236.421 218.568 236.367C218.599 236.337 219.526 236.238 220.624 236.146C221.722 236.055 222.765 235.963 222.943 235.94C223.121 235.917 223.546 235.879 223.886 235.849C224.227 235.818 224.567 235.788 224.644 235.78C224.714 235.772 224.775 235.78 224.775 235.795Z" fill="black"/>
<path d="M213.295 244.232C209.283 247.154 203.477 250.93 198.414 253.928C191.448 258.054 183.864 261.922 177.193 264.767C167.56 268.871 158.856 271.434 150.568 272.601C149.957 272.685 149.409 272.792 149.347 272.838C149.223 272.945 149.215 273.227 149.339 273.349C149.478 273.486 149.803 273.463 151.705 273.173C165.604 271.045 181.932 264.561 199.148 254.347C203.748 251.616 208.193 248.74 212.174 245.933C214.47 244.308 214.919 243.973 214.942 243.797C214.973 243.607 214.772 243.385 214.586 243.385C214.517 243.393 213.937 243.774 213.295 244.232Z" fill="black"/>
<path d="M203.052 257.52C202.944 257.581 202.526 257.825 202.124 258.07C197.308 260.968 189.531 265.004 183.416 267.773C171.047 273.372 160.17 276.751 150.792 277.903C150.089 277.987 148.875 278.101 147.862 278.17C147.252 278.208 146.711 278.284 146.649 278.33C146.517 278.437 146.51 278.719 146.633 278.841C146.935 279.139 152.114 278.574 156.011 277.819C164.839 276.095 175.299 272.441 186.477 267.162C191.889 264.607 197.556 261.617 202.163 258.893C203.415 258.153 203.555 258.047 203.578 257.841C203.601 257.696 203.562 257.589 203.47 257.52C203.299 257.398 203.292 257.398 203.052 257.52Z" fill="black"/>
<path d="M143.387 271.945C142.358 272.281 141.593 273.303 141.593 274.364C141.593 275.256 142.211 276.217 143.046 276.621C143.642 276.911 144.593 276.927 145.188 276.66C145.675 276.438 146.185 275.958 146.448 275.462C146.633 275.126 146.657 274.997 146.657 274.356C146.657 273.715 146.633 273.585 146.448 273.25C146.185 272.754 145.667 272.266 145.188 272.06C144.708 271.846 143.858 271.793 143.387 271.945ZM145.157 272.868C146.641 273.83 145.922 276.126 144.144 276.118C142.281 276.11 141.678 273.631 143.325 272.769C143.866 272.495 144.654 272.533 145.157 272.868Z" fill="black"/>
</svg>
