<svg width="121" height="84" viewBox="0 0 121 84" fill="none" xmlns="http://www.w3.org/2000/svg">
<path d="M31.7969 6.66674C31.7969 10.2667 32.4635 13.3334 33.1302 13.3334C33.9302 13.3334 34.4635 10.9334 34.4635 8.00007V2.66674H60.4635H86.4635V8.00007C86.4635 10.9334 87.1302 13.3334 87.7969 13.3334C88.5969 13.3334 89.1302 10.2667 89.1302 6.66674V7.05719e-05H60.4635H31.7969V6.66674Z" fill="white"/>
<path d="M54.8652 7.46672C52.8652 10.6667 52.8652 11.3334 54.5985 14.5334C58.3319 21.0667 67.7985 18.8001 67.7985 11.3334C67.7985 4.00006 58.8652 1.33339 54.8652 7.46672ZM62.9985 7.46672C66.1985 8.66672 65.6652 14.2667 62.1985 15.4667C58.4652 16.6667 55.2652 12.8001 57.2652 9.20006C58.5985 6.53339 59.6652 6.13339 62.9985 7.46672Z" fill="white"/>
<path d="M25.1321 18.6668C23.6654 20.1335 22.4654 21.8668 22.4654 22.6668C22.4654 23.3335 20.9987 24.0001 19.2654 24.0001C10.1987 24.0001 6.46541 36.0001 13.6654 42.1335C18.1987 46.1335 22.3321 46.1335 26.9987 42.5335L30.4654 39.7335L33.1321 45.7335C35.9321 52.1335 37.6654 53.3335 43.9321 53.3335C46.0654 53.3335 47.7987 53.8668 47.7987 54.6668C47.7987 55.4668 44.3321 56.0002 40.0654 56.0002C32.9987 56.0002 32.0654 55.7335 30.7321 52.6668C29.9321 50.8002 28.5987 49.3335 27.7987 49.3335C26.0654 49.3335 26.0654 50.1335 27.7987 53.4668C28.7321 55.0668 28.7321 56.8002 27.9321 58.2668C26.8654 60.2668 26.3321 59.6002 24.3321 54.8002C20.5987 45.3335 11.2654 43.2001 4.86541 50.2668C2.59874 52.8002 -1.13459 71.4668 0.332075 72.9335C1.79874 74.5335 2.59874 72.2668 3.93208 63.2002C5.39874 52.6668 7.79874 49.3335 13.9321 49.3335C18.0654 49.3335 18.5987 49.8668 22.3321 57.8668C26.5987 66.5335 28.4654 68.0002 36.1987 68.0002C39.7987 68.0002 41.6654 71.8668 38.1987 72.1335C37.2654 72.1335 34.0654 72.4002 31.1321 72.6668C23.5321 73.4668 21.7987 72.6668 19.1321 66.6668C17.7987 63.7335 16.1987 61.3335 15.5321 61.3335C13.7987 61.3335 14.3321 64.2668 16.9987 69.3335C19.2654 73.4668 19.3987 74.4002 17.6654 77.7335C16.5987 79.7335 16.0654 82.0002 16.4654 82.6668C16.9987 83.4668 33.9321 84.0002 60.4654 84.0002C86.9987 84.0002 103.932 83.4668 104.465 82.6668C104.865 82.0002 104.332 79.7335 103.265 77.7335C101.532 74.4002 101.665 73.4668 103.932 69.3335C106.599 64.2668 107.132 61.3335 105.399 61.3335C104.732 61.3335 103.132 63.7335 101.799 66.6668C99.9321 70.8002 98.5987 72.0002 95.9321 72.1335C94.0654 72.2668 90.1987 72.4002 87.3987 72.5335C84.5987 72.8002 81.7987 72.1335 80.9987 71.0668C80.1987 70.1335 79.6654 69.3335 79.9321 69.2002C80.1987 69.2002 83.7987 68.4002 87.6654 67.6002C94.7321 66.0002 95.1321 65.7335 97.6654 59.3335C101.665 49.8668 102.065 49.3335 106.999 49.3335C112.599 49.3335 115.265 52.4002 116.332 60.0002C118.065 71.2002 118.732 73.6002 119.932 72.4002C121.532 70.8002 118.865 54.8002 116.332 50.9335C111.132 43.0668 101.399 44.6668 96.7321 54.2668C93.7987 60.4002 91.3987 59.7335 92.7321 53.0668C93.6654 48.4002 91.1321 48.0002 89.9321 52.6668C89.1321 55.7335 88.4654 56.0002 81.1321 56.0002C71.7987 56.0002 70.4654 54.0002 78.9987 52.8002C84.5987 51.8668 85.1321 51.4668 87.2654 45.8668C88.4654 42.6668 89.7987 40.0001 90.0654 40.0001C90.4654 40.0001 92.1987 41.2001 94.0654 42.6668C98.5987 46.1335 102.865 46.0001 106.999 42.2668C113.932 36.1335 110.465 24.0001 101.799 24.0001C99.9321 24.0001 98.4654 23.4668 98.4654 22.6668C98.4654 20.4002 92.7321 16.0002 89.6654 16.0002C78.9987 16.0002 77.5321 31.4668 88.0654 34.9335C88.9987 35.3335 88.8654 36.6668 87.5321 39.2001C86.1987 41.6002 85.1321 42.5335 84.5987 41.4668C83.3987 39.6002 38.3321 39.3335 36.3321 41.3335C35.5321 42.1335 34.3321 41.0668 32.8654 38.6668C30.5987 34.8002 30.5987 34.6668 33.9321 33.8668C37.7987 32.9335 39.7987 29.6002 39.7987 24.1335C39.7987 16.8001 30.4654 13.3335 25.1321 18.6668ZM34.9987 20.4002C38.0654 22.6668 37.3987 29.7335 34.0654 30.4002C32.7321 30.6668 30.1987 29.3335 28.3321 27.3335C24.5987 23.2001 24.5987 23.4668 27.2654 20.8001C29.7987 18.2668 31.9321 18.1335 34.9987 20.4002ZM93.6654 21.2001C95.7987 23.4668 95.6654 23.8668 92.3321 27.7335C89.3987 31.0668 88.1987 31.6002 86.1987 30.5335C84.7321 29.7335 83.7987 27.7335 83.7987 25.6002C83.7987 18.9335 89.3987 16.4001 93.6654 21.2001ZM25.7987 28.8001C28.9987 32.1335 27.9321 38.8002 23.6654 41.2001C20.4654 42.9335 19.7987 42.9335 16.5987 40.9335C14.0654 39.2001 13.1321 37.4668 13.1321 34.2668C13.1321 31.8668 13.7987 29.2001 14.7321 28.2668C16.9987 26.0001 23.2654 26.2668 25.7987 28.8001ZM105.799 28.8001C109.265 32.2668 107.932 38.9335 103.399 41.0668C100.199 42.6668 99.2654 42.5335 96.3321 40.8002C92.7321 38.4002 91.7987 31.2001 94.7321 28.2668C96.9987 26.0001 103.265 26.2668 105.799 28.8001ZM82.5987 44.8002C84.0654 46.6668 83.9321 47.2001 81.7987 48.8002C78.7321 51.0668 76.1987 51.2001 75.3987 48.9335C74.9987 47.8668 74.0654 48.1335 72.5987 50.0002C67.5321 56.5335 72.0654 60.6668 83.2654 59.7335C88.7321 59.2002 90.5987 59.6002 91.1321 61.0668C92.0654 63.6002 91.7987 63.7335 86.8654 64.8002C83.5321 65.4668 82.5987 65.2002 82.1987 63.2002C81.7987 61.2002 81.2654 61.6002 79.3987 65.2002C76.5987 70.8002 76.5987 71.3335 79.2654 73.8668C80.7321 75.4668 83.9321 76.0002 90.5987 76.0002C98.9987 76.0002 99.7987 76.2668 99.7987 78.6668C99.7987 81.3335 99.1321 81.3335 59.7987 81.3335C37.7987 81.2002 19.7987 80.9335 19.7987 80.6668C19.7987 77.2002 22.0654 76.0002 28.9987 76.0002C42.4654 76.0002 44.5987 74.0002 41.1321 64.8002C39.7987 61.0668 37.1321 60.1335 37.1321 63.3335C37.1321 65.4668 33.5321 66.0002 30.7321 64.2668C29.7987 63.6002 29.3987 62.1335 29.7987 61.0668C30.4654 59.4668 32.1987 59.0668 37.7987 59.6002C48.9987 60.5335 53.3987 56.5335 48.3321 50.0002C46.8654 48.0002 46.0654 47.7335 45.2654 49.0668C43.9321 51.2001 37.1321 49.8668 37.1321 47.4668C37.1321 43.3335 40.4654 42.6668 60.5987 42.6668C77.5321 42.6668 81.1321 43.0668 82.5987 44.8002Z" fill="white"/>
<path d="M51.264 22.5334C49.1306 24.8001 48.3306 28.0001 49.9306 28.0001C50.3306 28.0001 51.7973 26.6667 52.9973 25.2001C54.9973 22.8001 55.7973 22.5334 58.1973 23.8667C60.3306 24.9334 61.9306 25.0667 63.7973 24.0001C65.9306 22.9334 66.864 23.0667 68.7306 25.3334C72.7306 29.8667 74.864 28.2667 71.264 23.3334C68.5973 19.7334 54.3306 19.2001 51.264 22.5334Z" fill="white"/>
<path d="M41.6641 30.5335C41.3975 30.8002 41.5308 31.6002 41.9308 32.1335C42.8641 33.7335 78.4641 33.6002 78.4641 32.1335C78.4641 30.9335 42.8641 29.3335 41.6641 30.5335Z" fill="white"/>
</svg>
