<svg width="21" height="20" viewBox="0 0 21 20" fill="none" xmlns="http://www.w3.org/2000/svg">
<path d="M6.87646 0.325218C4.1627 1.20154 1.56201 3.68915 0.600885 6.31811C-0.218897 8.43824 -0.190629 11.5195 0.629154 13.6962C1.44894 15.9576 4.04963 18.5583 6.3111 19.3781C7.80932 19.9435 8.48776 20 14.0001 20C17.8729 20 20.0778 19.8869 20.0778 19.7173C20.0778 19.5477 18.9188 19.4346 17.1944 19.4064C14.3958 19.4064 14.311 19.3781 14.9895 18.9541C15.3852 18.6997 16.4029 17.7668 17.2792 16.8905C19.4842 14.6855 20.1626 12.8198 20.0213 9.54071C19.8799 6.6008 19.2297 5.04604 17.364 3.03898C15.4418 0.975391 13.4913 0.12734 10.4948 0.014267C8.99659 -0.0422688 7.61144 0.0708046 6.87646 0.325218ZM13.8587 1.51249C18.523 3.60435 20.6149 9.06014 18.523 13.6962C15.7527 19.9152 7.75278 21.2155 3.14504 16.1555C-0.247166 12.4241 -0.0210184 6.65733 3.68214 3.20859C6.56551 0.523098 10.2687 -0.0988064 13.8587 1.51249Z" fill="black"/>
<path d="M8.85526 2.53C8.51604 2.69961 8.09201 3.18017 7.89413 3.63246C7.01781 5.78086 9.84465 7.70311 11.5408 6.14835C12.3323 5.3851 12.5867 4.39571 12.1344 3.54766C11.4277 2.24731 10.2404 1.85156 8.85526 2.53ZM11.145 3.49112C12.5019 4.848 10.4383 6.68545 8.9966 5.3851C8.37469 4.81973 8.34643 4.2261 8.96833 3.54766C9.5337 2.92575 10.5514 2.89749 11.145 3.49112Z" fill="black"/>
<path d="M3.82347 6.20505C2.94715 6.68562 2.55139 7.30752 2.55139 8.24038C2.57966 9.85167 3.99308 10.9259 5.43476 10.417C7.27221 9.76687 7.66796 7.84462 6.19801 6.60081C5.26515 5.8093 4.69979 5.72449 3.82347 6.20505ZM5.71745 7.19445C6.33935 7.75981 6.36762 8.63613 5.74572 9.31457C4.8694 10.2757 3.39944 9.65379 3.39944 8.26864C3.39944 6.91176 4.72806 6.28986 5.71745 7.19445Z" fill="black"/>
<path d="M14.2827 6.20521C12.3888 7.2794 12.6714 9.73875 14.7916 10.4737C15.4135 10.6999 16.6573 10.2476 17.1378 9.59741C17.5336 9.08858 17.6467 7.90131 17.364 7.13806C17.1661 6.6575 15.8375 5.86599 15.2156 5.86599C15.0177 5.86599 14.5937 6.0356 14.2827 6.20521ZM16.2615 7.16633C16.9965 7.90131 16.7138 9.34299 15.781 9.65395C14.311 10.1628 13.2651 8.41014 14.3393 7.22287C14.9046 6.60096 15.6396 6.5727 16.2615 7.16633Z" fill="black"/>
<path d="M9.30754 8.7775C8.51602 9.37114 8.40295 10.304 9.02485 10.9259C9.36407 11.2651 9.81637 11.5195 10.0425 11.5195C10.2687 11.5195 10.721 11.2651 11.0602 10.9259C11.6821 10.304 11.5973 9.37114 10.8058 8.74923C10.2404 8.32521 9.90117 8.32521 9.30754 8.7775ZM10.6927 9.90823C10.8058 10.4736 9.98598 10.8694 9.56195 10.4453C9.13793 10.0213 9.53368 9.20153 10.0991 9.3146C10.3817 9.37114 10.6361 9.62555 10.6927 9.90823Z" fill="black"/>
<path d="M5.74571 12.3673C4.4171 12.9044 4.10615 14.968 5.18035 15.9856C6.62203 17.3425 9.05311 16.3531 9.05311 14.4309C9.05311 12.7913 7.30047 11.6888 5.74571 12.3673ZM7.66796 13.2153C8.48775 13.6676 8.37467 15.0528 7.49835 15.6464C6.84818 16.0704 6.73511 16.0704 6.08494 15.6464C5.26515 15.1093 5.15208 14.0634 5.83052 13.3849C6.33935 12.8478 6.90472 12.8196 7.66796 13.2153Z" fill="black"/>
<path d="M11.7669 12.7351C10.2404 14.2616 11.2015 16.6079 13.3499 16.6079C14.1414 16.6079 14.5372 16.41 14.9612 15.8729C16.1485 14.3464 15.4135 12.4807 13.5195 12.198C12.6715 12.0567 12.3605 12.1415 11.7669 12.7351ZM14.1697 13.2157C14.9895 13.668 14.8764 15.0532 14.0001 15.6468C13.3499 16.0708 13.2368 16.0708 12.5866 15.6468C11.3428 14.827 11.7951 12.9613 13.2368 12.933C13.4347 12.933 13.8587 13.0744 14.1697 13.2157Z" fill="black"/>
</svg>
