<svg width="18" height="23" viewBox="0 0 18 23" fill="none" xmlns="http://www.w3.org/2000/svg">
<path d="M10.8711 2.26C9.66185 1.91559 8.38043 1.91559 7.17114 2.26C7.46114 1.52 8.18114 1 9.02114 1C9.86114 1 10.5811 1.52 10.8711 2.26Z" stroke="white" stroke-width="1.5" stroke-miterlimit="10" stroke-linecap="round" stroke-linejoin="round"/>
<path d="M9.04597 2.25977C5.73597 2.25977 3.04597 4.94977 3.04597 8.25977V11.1498C3.04597 11.7598 2.78597 12.6898 2.47597 13.2098L1.32597 15.1198C0.615967 16.2998 1.10597 17.6098 2.40597 18.0498C6.71597 19.4898 11.366 19.4898 15.676 18.0498C16.886 17.6498 17.416 16.2198 16.756 15.1198L15.606 13.2098C15.306 12.6898 15.046 11.7598 15.046 11.1498V8.25977C15.046 4.95977 12.346 2.25977 9.04597 2.25977Z" stroke="white" stroke-width="1.5" stroke-miterlimit="10" stroke-linecap="round"/>
<path d="M12.0212 19.1299C12.0212 20.7799 10.6712 22.1299 9.02124 22.1299C8.20124 22.1299 7.44124 21.7899 6.90124 21.2499C6.3394 20.6872 6.02303 19.925 6.02124 19.1299" stroke="white" stroke-width="1.5" stroke-miterlimit="10"/>
</svg>
