<svg width="17" height="16" viewBox="0 0 17 16" fill="none" xmlns="http://www.w3.org/2000/svg">
<path d="M5.42828 0.224913C5.08312 0.357668 4.81761 0.596628 4.81761 0.755935C4.81761 0.88869 4.47244 1.02145 4.07418 1.02145C3.06523 1.02145 2.1625 1.89763 2.1625 2.88002C2.1625 3.33139 2.05629 3.67655 1.95009 3.67655C1.81733 3.67655 1.57837 3.96861 1.41907 4.34033C1.10045 5.03066 1.33941 6.11925 1.87044 6.46442C2.02974 6.54407 2.1625 6.91578 2.1625 7.2344C2.1625 8.11058 2.95903 8.98677 3.78211 9.09297C4.18038 9.11952 4.79105 9.41158 5.18932 9.70365C5.74689 10.155 5.87965 10.4736 5.87965 11.5091V12.757L4.81761 11.695C4.07418 10.925 3.3573 10.4736 2.3218 10.1816C0.516331 9.65054 0.197719 9.80985 0.436678 11.0578C0.702189 12.5181 1.52527 13.9253 2.53421 14.6952C5.98585 17.3238 10.6854 15.8104 11.8802 11.695C12.4378 9.80985 12.1988 9.59744 10.3137 10.155C9.30474 10.4471 8.5082 10.925 7.76477 11.6419C7.18065 12.226 6.64963 12.5977 6.59653 12.4915C6.54342 12.3853 6.49032 11.8808 6.51687 11.3233C6.54342 10.2347 7.57892 9.19918 8.77372 9.09297C9.57025 8.98677 10.3933 8.11058 10.3933 7.2875C10.3933 6.99544 10.5792 6.49097 10.7916 6.22546C11.2961 5.53513 11.2961 4.36688 10.7916 3.94206C10.5792 3.75621 10.3933 3.27829 10.3933 2.90657C10.3933 1.97728 9.49059 1.02145 8.64096 1.02145C8.26924 1.02145 7.65857 0.782485 7.28685 0.490423C6.54342 -0.0937004 6.30447 -0.120251 5.42828 0.224913ZM7.2072 1.07455C7.57892 1.49936 8.00373 1.65867 8.53475 1.60557C9.43749 1.49936 9.96851 2.24279 9.703 3.22518C9.5968 3.72965 9.67645 3.88896 10.1013 4.02172C10.8447 4.20757 10.8712 5.66788 10.1278 6.11925C9.7561 6.35821 9.6499 6.62372 9.7561 7.04854C9.96851 7.89817 9.43749 8.45575 8.42855 8.45575C7.89753 8.45575 7.47271 8.6416 7.2603 8.98677C6.83549 9.67709 5.74689 9.67709 5.24242 8.96022C4.97691 8.5885 4.6583 8.42919 4.31313 8.5354C3.4635 8.74781 2.61387 7.97783 2.77317 7.15474C2.87938 6.62372 2.77317 6.35821 2.40146 6.11925C1.71113 5.66788 1.71113 4.31378 2.42801 3.94206C2.79972 3.72965 2.93248 3.49069 2.82627 3.14553C2.56076 2.2959 3.17144 1.49936 3.99452 1.57902C4.44589 1.63212 4.92381 1.44626 5.29552 1.07455C6.03895 0.331118 6.51687 0.331118 7.2072 1.07455ZM3.22454 11.1109C4.39279 11.7215 5.50793 13.1818 5.77344 14.5094C5.93275 15.2794 5.87965 15.359 5.34863 15.359C3.78211 15.359 1.68458 13.3942 1.10045 11.3764C0.888046 10.6329 0.914597 10.5798 1.52527 10.5798C1.89699 10.5798 2.66697 10.8188 3.22454 11.1109ZM11.4554 11.3764C10.8712 13.3677 8.98612 15.1732 7.2072 15.4121C6.62308 15.4918 6.54342 15.4121 6.64963 14.828C6.94169 12.7039 9.06578 10.6064 10.9775 10.5798C11.6412 10.5798 11.6678 10.6329 11.4554 11.3764Z" fill="black"/>
<path d="M5.16159 3.19875C4.41816 3.54392 3.94024 4.73871 4.1792 5.64145C4.63057 7.44692 7.28568 7.71243 8.16186 6.03972C9.1177 4.15459 7.12637 2.24291 5.16159 3.19875ZM7.31223 3.80943C7.976 4.3139 8.00256 5.74766 7.33878 6.22557C6.03778 7.18141 4.31196 6.14592 4.71022 4.63251C5.00228 3.46426 6.30329 3.03945 7.31223 3.80943Z" fill="black"/>
<path d="M12.1461 1.73845C11.854 2.03051 11.9868 2.34912 12.385 2.34912C12.5974 2.34912 12.7833 2.24292 12.7833 2.11016C12.7833 1.765 12.3585 1.52604 12.1461 1.73845Z" fill="black"/>
<path d="M15.7031 3.27849C15.7031 3.4909 15.8359 3.67676 15.9686 3.67676C16.1279 3.67676 16.2341 3.4909 16.2341 3.27849C16.2341 3.06608 16.1279 2.88023 15.9686 2.88023C15.8359 2.88023 15.7031 3.06608 15.7031 3.27849Z" fill="black"/>
<path d="M13.3164 6.73005C13.3164 6.96901 13.4492 7.12832 13.6085 7.07522C13.7678 7.02211 13.9005 6.86281 13.9005 6.73005C13.9005 6.5973 13.7678 6.43799 13.6085 6.38489C13.4492 6.33179 13.3164 6.49109 13.3164 6.73005Z" fill="black"/>
<path d="M15.3336 8.64177C15.0415 8.93383 15.1743 9.25244 15.5725 9.25244C15.7849 9.25244 15.9708 9.14624 15.9708 9.01348C15.9708 8.66832 15.546 8.42936 15.3336 8.64177Z" fill="black"/>
<path d="M13.8438 10.686C13.8438 10.925 14.0296 11.1108 14.2686 11.1108C14.5075 11.1108 14.6403 10.9781 14.5872 10.7922C14.4279 10.3143 13.8438 10.2347 13.8438 10.686Z" fill="black"/>
<path d="M14.9608 13.5534C15.1201 14.0314 15.7043 14.111 15.7043 13.6596C15.7043 13.4207 15.5184 13.2348 15.2795 13.2348C15.0405 13.2348 14.9077 13.3676 14.9608 13.5534Z" fill="black"/>
<path d="M12.6508 14.2968C12.4384 14.642 12.757 15.1464 13.0756 14.9606C13.3942 14.7482 13.3942 14.0313 13.0756 14.0313C12.9163 14.0313 12.7305 14.1375 12.6508 14.2968Z" fill="black"/>
</svg>
