<svg width="20" height="16" viewBox="0 0 20 16" fill="none" xmlns="http://www.w3.org/2000/svg">
<path d="M1.67009 0.1736C1.39732 0.421572 1.47171 0.669544 1.86847 0.843125C2.11644 0.942313 2.24042 0.818327 2.24042 0.495964C2.24042 1.94907e-05 1.96765 -0.148764 1.67009 0.1736Z" fill="black"/>
<path d="M3.21875 0.446334C3.21875 0.694306 3.39233 0.91748 3.59071 0.91748C3.78909 0.91748 3.96267 0.694306 3.96267 0.446334C3.96267 0.198362 3.78909 -1.60336e-05 3.59071 -1.60336e-05C3.39233 -1.60336e-05 3.21875 0.198362 3.21875 0.446334Z" fill="black"/>
<path d="M4.96875 0.347335C4.96875 0.644901 5.58868 0.719293 8.19239 0.793685C11.1185 0.868076 11.416 0.818482 11.416 0.421727C11.416 0.0497686 11.0937 0.000174224 8.19239 0.000174224C5.53909 0.000174224 4.96875 0.0745658 4.96875 0.347335Z" fill="black"/>
<path d="M7.44922 2.6035C7.44922 2.90106 7.89557 2.97545 9.90414 2.97545C12.2599 2.97545 12.3839 3.00025 13.3014 3.74417C13.9461 4.24011 14.5412 5.10801 15.1611 6.42227L16.0786 8.38124L17.6657 8.65401C19.699 9.00117 19.8478 9.00117 19.8478 8.57962C19.8478 8.33165 19.3023 8.13327 18.1864 7.9349L16.5002 7.66213L15.7563 5.92632C15.2355 4.71126 14.69 3.86815 13.9213 3.19863L12.8302 2.23154H10.1521C7.92037 2.23154 7.44922 2.30593 7.44922 2.6035Z" fill="black"/>
<path d="M16.7891 2.97558C15.4749 4.01706 16.194 6.19922 17.8554 6.19922C18.8473 6.19922 19.5912 5.43051 19.5912 4.38902C19.5912 2.87639 17.9546 2.05809 16.7891 2.97558ZM18.4505 3.54592C19.3928 4.21544 18.4009 5.90165 17.4339 5.30652C16.8139 4.90976 16.7147 3.94267 17.2603 3.54592C17.5082 3.37234 17.781 3.22355 17.8554 3.22355C17.9298 3.22355 18.2026 3.37234 18.4505 3.54592Z" fill="black"/>
<path d="M8.93109 3.79404C8.93109 4.04201 9.30305 4.24039 10.0718 4.36437C11.882 4.71153 11.9811 5.18268 10.5925 6.67051C9.67501 7.6624 9.42704 8.08395 9.42704 8.77828C9.42704 9.91895 9.7494 10.6877 10.6421 11.7043L11.3612 12.5475L9.7742 13.5145C8.18718 14.4816 7.9888 14.7296 8.41035 15.0024C8.60873 15.1016 11.7332 13.3162 12.3779 12.7458C12.4275 12.6962 12.0555 12.2003 11.5596 11.6548C9.79899 9.69577 9.7742 8.85267 11.4356 6.91849L12.7003 5.45545L12.1547 4.58755C11.8572 4.1164 11.4356 3.71965 11.2124 3.71965C10.9893 3.71965 10.3693 3.64526 9.87339 3.57086C9.12947 3.44688 8.93109 3.49647 8.93109 3.79404Z" fill="black"/>
<path d="M13.0552 8.65432L12.0881 9.64621L13.1048 11.2332C13.6751 12.1011 14.1463 12.9194 14.1463 13.0682C14.1463 13.217 13.08 13.7625 11.7657 14.2833C9.65799 15.1264 8.88927 15.6471 9.23643 15.9943C9.36042 16.1183 14.1463 14.1841 14.5926 13.8369C15.1134 13.3906 14.915 12.4235 14.0223 11.1092C13.1792 9.89418 13.1544 9.81979 13.5759 9.37344C13.9727 8.92709 13.9975 8.92709 14.5926 9.67101C15.1382 10.3653 15.287 10.4149 16.7748 10.4149C18.0146 10.4149 18.3618 10.3405 18.3618 10.043C18.3618 9.7454 18.0394 9.67101 16.874 9.67101C16.0557 9.67101 15.3861 9.59662 15.3861 9.47263C15.3861 9.37344 15.0638 8.92709 14.6918 8.48074L14.0223 7.66243L13.0552 8.65432Z" fill="black"/>
<path d="M0.75 8.30675C0.75 8.60432 1.22115 8.67871 3.60168 8.67871C5.98221 8.67871 6.45336 8.60432 6.45336 8.30675C6.45336 8.00919 5.98221 7.93479 3.60168 7.93479C1.22115 7.93479 0.75 8.00919 0.75 8.30675Z" fill="black"/>
<path d="M5.28746 11.6545C3.1797 13.1671 2.33659 13.911 2.48537 14.1342C2.63416 14.3822 3.45247 13.911 5.60982 12.3984C9.18062 9.89389 9.03184 10.0427 8.63508 9.7451C8.38711 9.57152 7.49441 10.0923 5.28746 11.6545Z" fill="black"/>
<path d="M6.3484 13.0189C3.49673 14.6059 3.54632 14.5563 3.86868 14.8787C4.19105 15.201 9.17529 12.4981 9.17529 12.0022C9.17529 11.4814 9.0265 11.531 6.3484 13.0189Z" fill="black"/>
</svg>
