<svg width="331" height="309" viewBox="0 0 331 309" fill="none" xmlns="http://www.w3.org/2000/svg">
<circle cx="104" cy="244" r="7.75" stroke="black" stroke-width="0.5"/>
<path d="M103.342 239.319C102.629 239.725 102.573 239.934 102.573 242.269V244.477L102.07 245.134C101.594 245.763 101.567 245.847 101.622 246.672C101.692 247.692 101.972 248.154 102.797 248.629C104.838 249.803 107.13 247.553 106.068 245.442C105.9 245.134 105.69 244.855 105.578 244.799C105.411 244.743 105.369 244.31 105.369 242.436V240.144L104.991 239.725C104.558 239.249 103.789 239.054 103.342 239.319ZM104.642 240.102C104.754 240.27 104.81 241.011 104.81 242.618V244.897L105.243 245.288C105.606 245.61 105.69 245.819 105.746 246.378C105.816 247.203 105.606 247.637 104.949 248.084C104.544 248.349 104.334 248.405 103.775 248.349C103.202 248.294 103.006 248.196 102.615 247.776C102.224 247.357 102.154 247.175 102.154 246.602C102.154 245.931 102.391 245.414 102.881 245.064C103.104 244.897 103.132 244.631 103.132 242.576C103.132 240.437 103.146 240.27 103.426 239.99C103.761 239.655 104.334 239.711 104.642 240.102Z" fill="black"/>
<path d="M103.691 244.128C103.691 245.414 103.677 245.484 103.314 245.791C102.587 246.42 102.978 247.553 103.929 247.553C104.893 247.553 105.341 246.351 104.6 245.763C104.264 245.498 104.25 245.414 104.25 244.142C104.25 242.898 104.236 242.8 103.971 242.8C103.705 242.8 103.691 242.898 103.691 244.128ZM104.292 246.323C104.628 246.84 103.943 247.259 103.552 246.784C103.412 246.602 103.426 246.518 103.621 246.295C103.901 245.987 104.083 245.987 104.292 246.323Z" fill="black"/>
<circle cx="104" cy="265" r="7.75" stroke="black" stroke-width="0.5"/>
<circle cx="104" cy="286" r="7.75" stroke="black" stroke-width="0.5"/>
<path d="M77.4996 297.901C78.5209 302.022 80.8454 304.875 84.649 306.776L87.3609 308.115L95.9895 308.22C100.744 308.291 104.794 308.502 104.97 308.678C105.428 309.101 111.169 309.101 111.169 308.643C111.169 308.432 112.507 308.291 114.515 308.291C116.522 308.291 117.861 308.432 117.861 308.643C117.861 308.854 120.22 308.995 124.2 308.995C128.18 308.995 130.539 308.854 130.539 308.643C130.539 308.432 131.42 308.291 132.476 308.291C133.533 308.291 134.413 308.432 134.413 308.643C134.413 309.101 146.811 309.136 147.304 308.643C147.515 308.432 164.667 308.256 195.166 308.22L242.712 308.115L244.719 307.305C247.572 306.142 250.354 303.501 251.763 300.613L252.925 298.253L253.031 266.063C253.102 234.401 253.102 233.803 252.397 231.725C251.446 228.907 249.65 226.512 247.326 224.963C243.698 222.568 247.22 222.709 192.454 222.709C159.63 222.709 142.866 222.603 142.866 222.356C142.866 221.899 122.369 221.863 121.876 222.356C121.699 222.533 114.761 222.709 104.301 222.779L87.0439 222.885L85.0364 223.836C81.0567 225.702 78.1687 229.4 77.3587 233.591C76.7952 236.515 76.9361 295.647 77.4996 297.901ZM81.4793 286.173C81.8315 285.997 82.7472 285.715 83.4868 285.61C85.2125 285.293 86.3043 284.588 86.7974 283.426C87.1143 282.792 87.22 277.545 87.22 265.112V247.644L86.0578 246.481C85.2125 245.636 84.4377 245.249 83.2403 245.073C82.3598 244.932 81.4441 244.615 81.1976 244.333C80.951 244.016 80.8454 242.15 80.951 238.663C81.0567 233.662 81.0919 233.38 82.1133 231.584C83.2403 229.506 84.4377 228.379 86.6565 227.181L88.1005 226.407L164.596 226.301C240.986 226.231 241.092 226.231 243.029 226.935C245.353 227.815 247.607 229.929 248.629 232.147C249.404 233.803 249.404 233.908 249.509 264.584C249.615 298.641 249.685 297.584 247.361 300.613C246.621 301.564 245.389 302.55 243.98 303.255L241.761 304.417H165.441C80.7397 304.417 87.3961 304.593 84.4377 302.057C83.0289 300.86 81.7963 298.923 81.1976 297.021C81.0567 296.528 80.9158 293.957 80.9158 291.315C80.8806 287.054 80.951 286.455 81.4793 286.173Z" fill="black"/>
<path d="M102.878 262.031C102.875 262.049 102.676 262.86 102.436 263.833C102.196 264.805 102 265.608 102 265.618C102 265.626 102.382 265.742 102.85 265.875C103.318 266.007 103.703 266.118 103.708 266.121C103.712 266.126 103.551 266.944 103.351 267.942C103.15 268.937 102.989 269.755 102.994 269.76C102.997 269.764 103.044 269.695 103.098 269.604C103.152 269.514 103.484 268.957 103.836 268.367C105.527 265.534 105.99 264.755 106 264.733C106.006 264.713 105.854 264.656 105.266 264.461C104.857 264.326 104.518 264.208 104.51 264.203C104.503 264.197 104.724 263.709 105.002 263.119C105.279 262.53 105.51 262.037 105.515 262.027C105.522 262.011 105.245 262.006 104.206 262.002C102.899 261.997 102.887 261.997 102.878 262.031ZM105.001 262.336C105.001 262.342 104.786 262.805 104.523 263.363C104.26 263.922 104.045 264.384 104.045 264.389C104.045 264.396 104.377 264.51 104.783 264.646C105.188 264.782 105.52 264.894 105.52 264.897C105.52 264.899 105.294 265.281 105.016 265.746C104.739 266.21 104.33 266.897 104.107 267.273C103.884 267.648 103.696 267.955 103.691 267.957C103.685 267.957 103.775 267.492 103.889 266.924C104.003 266.356 104.095 265.89 104.092 265.886C104.089 265.885 103.71 265.774 103.249 265.645C102.788 265.514 102.406 265.402 102.401 265.395C102.396 265.388 102.434 265.206 102.488 264.989C102.541 264.773 102.712 264.084 102.867 263.459L103.147 262.324H104.074C104.583 262.324 105.001 262.329 105.001 262.336Z" fill="black"/>
<path d="M175.498 279.225V271.85M168.173 241.981L154.922 252.306C152.71 254.027 150.915 257.69 150.915 260.468V278.684C150.915 284.388 155.561 289.059 161.265 289.059H189.732C195.435 289.059 200.082 284.388 200.082 278.709V260.812C200.082 257.838 198.09 254.027 195.657 252.331L180.464 241.686C177.023 239.277 171.491 239.4 168.173 241.981Z" stroke="black" stroke-width="1.5" stroke-linecap="round" stroke-linejoin="round"/>
<path d="M128.455 244.92C130.605 243.26 133.4 243.26 135.55 244.92M127 243.18C130.03 240.84 133.97 240.84 137 243.18M129.395 246.745C130.97 245.525 133.025 245.525 134.6 246.745M130.7 248.575C131.49 247.965 132.515 247.965 133.305 248.575" stroke="black" stroke-width="0.4" stroke-linecap="round" stroke-linejoin="round"/>
<line x1="111.998" y1="265.85" x2="150.998" y2="265.85" stroke="black" stroke-width="0.3"/>
<line x1="110.998" y1="256.85" x2="150.998" y2="256.85" stroke="black" stroke-width="0.3"/>
<line x1="109.998" y1="280.85" x2="150.998" y2="280.85" stroke="black" stroke-width="0.3"/>
<line x1="111.148" y1="247" x2="111.148" y2="257" stroke="black" stroke-width="0.3"/>
<path d="M215.617 261.657C211.847 266.886 215.199 274.664 221.459 275.181C222.51 275.252 223.093 274.917 222.802 274.411C222.729 274.284 221.793 273.945 220.717 273.654C217.127 272.682 215.107 269.866 215.354 266.187C215.495 264.321 216.492 262.301 217.805 261.244C222.325 257.673 228.54 259.933 229.649 265.563C229.857 266.689 230.021 267.033 230.405 267.116C231.123 267.31 231.247 265.824 230.631 263.988C229.454 260.352 225.717 257.949 221.797 258.279C219.699 258.439 216.756 260.061 215.617 261.657Z" fill="black"/>
<path d="M218.663 263.38C217.94 264.233 217.356 265.916 217.413 267.129C217.488 268.669 219.356 271.337 220.091 270.915C220.217 270.842 219.792 270.042 219.178 269.148C218.16 267.61 218.109 267.404 218.306 266.28C218.611 264.522 219.388 263.469 220.768 262.88C223.563 261.646 226.193 263.235 226.895 266.572C227.159 267.734 227.654 267.012 227.477 265.766C227.183 263.375 224.853 261.546 222.23 261.67C220.69 261.745 219.632 262.251 218.663 263.38Z" fill="black"/>
<path d="M220.306 266.243L220.022 267.215L223.309 272.942C225.112 276.084 226.53 278.672 226.454 278.716C226.378 278.76 225.794 278.623 225.167 278.41C224.181 278.101 223.789 278.123 222.877 278.647C221.99 279.156 221.748 279.497 221.572 280.305C221.303 281.773 221.928 282.627 224.758 284.507C231.166 288.745 234.331 289.388 238.211 287.228C240.988 285.668 242.705 283.201 243.018 280.225C243.264 277.895 242.655 275.953 240.324 271.834L238.255 268.17L237.172 267.984C236.443 267.829 235.86 267.928 235.433 268.241C234.955 268.582 234.448 268.638 233.701 268.393C232.928 268.162 232.421 268.217 231.737 268.61C231.103 268.974 230.47 269.102 229.871 268.94C229.327 268.814 228.614 268.92 228.031 269.255L227.039 269.757L225.371 267.143C223.931 264.87 223.583 264.498 222.963 264.416C221.828 264.258 220.594 265.101 220.306 266.243ZM222.802 265.72C223.161 265.818 224.095 267.269 226.088 270.741C228.487 274.922 228.96 275.627 229.376 275.59C229.648 275.536 229.891 275.43 229.898 275.325C229.919 275.245 229.519 274.195 228.995 273.047C228.227 271.298 228.11 270.86 228.446 270.566C229.282 269.85 229.87 270.288 231.237 272.67C232.284 274.494 232.622 274.907 233.024 274.844C233.763 274.723 233.668 273.97 232.679 272.247C231.675 270.498 231.724 269.527 232.775 269.597C233.221 269.611 233.682 270.121 234.918 272.04C236.368 274.273 236.535 274.446 236.991 274.185C237.447 273.923 237.382 273.691 236.556 272.076C235.483 270.031 235.539 269.19 236.728 269.148C237.369 269.15 237.486 269.353 239.479 273.06C241.813 277.481 242.084 278.538 241.465 280.982C240.835 283.465 239.997 284.587 237.665 285.925C235.917 286.928 235.428 287.074 234.055 287.087C231.88 287.055 230.139 286.37 226.605 284.086C223.536 282.142 222.73 281.325 222.968 280.448C223.216 279.53 223.999 279.485 226.254 280.246C229.815 281.402 229.797 281.312 225.245 273.38C221.507 266.868 221.234 266.216 222.045 265.751C222.197 265.664 222.523 265.645 222.802 265.72Z" fill="black"/>
<path d="M102.947 281.168C102.29 281.377 101.326 282.369 101.144 283.026C100.823 284.199 101.033 285.149 101.829 286.057C102.248 286.532 102.388 286.811 102.388 287.161C102.388 287.468 102.485 287.747 102.667 287.901C102.891 288.097 102.947 288.334 102.947 289.033C102.947 289.829 102.974 289.927 103.38 290.262C103.91 290.709 103.994 290.709 104.581 290.262C105.014 289.927 105.042 289.871 105.042 289.033C105.042 288.334 105.098 288.097 105.321 287.901C105.503 287.747 105.601 287.468 105.601 287.161C105.601 286.811 105.741 286.532 106.16 286.057C107.305 284.758 107.277 283.067 106.09 281.894C105.266 281.056 104.12 280.79 102.947 281.168ZM105.391 281.601C106.97 282.439 107.249 284.52 105.978 285.959C105.573 286.42 105.377 286.784 105.321 287.189L105.252 287.761H103.994H102.737L102.667 287.189C102.611 286.784 102.416 286.42 102.011 285.959C100.446 284.185 101.242 281.698 103.505 281.265C104.162 281.14 104.721 281.237 105.391 281.601ZM104.483 288.236C103.659 288.488 103.086 288.516 103.086 288.306C103.086 288.153 103.282 288.111 103.966 288.125C104.581 288.125 104.735 288.167 104.483 288.236ZM104.874 288.558C104.805 288.753 104.26 288.907 103.547 288.935C102.835 288.963 103.002 288.725 103.827 288.572C104.86 288.362 104.93 288.362 104.874 288.558ZM104.902 289.075C104.902 289.284 104.763 289.326 103.896 289.438C102.863 289.564 102.793 289.298 103.827 289.117C104.819 288.935 104.902 288.935 104.902 289.075ZM104.902 289.633C104.902 289.815 104.218 290.346 103.994 290.346C103.896 290.346 103.673 290.22 103.491 290.081L103.156 289.815L103.505 289.731C104.274 289.564 104.427 289.536 104.665 289.522C104.791 289.522 104.902 289.564 104.902 289.633Z" fill="black"/>
<path d="M102.848 281.922C102.653 281.992 102.597 282.243 102.778 282.243C102.848 282.243 103.016 282.145 103.17 282.034C103.365 281.88 103.379 281.838 103.225 281.838C103.114 281.838 102.932 281.88 102.848 281.922Z" fill="black"/>
<path d="M101.898 282.983C101.591 283.724 101.633 284.897 101.982 284.897C102.038 284.897 102.024 284.702 101.94 284.478C101.828 284.143 101.856 283.891 102.024 283.347C102.303 282.508 102.205 282.243 101.898 282.983Z" fill="black"/>
<path d="M88.2318 109.507C67.8715 123.968 50.7459 136.227 50.2702 136.706C49.6042 137.376 49.9848 137.664 51.3168 137.664C52.3633 137.664 69.584 126.65 89.4687 113.242C109.448 99.8337 126.003 88.8199 126.384 88.8199C127.525 88.8199 151.501 105.388 151.501 106.155C151.501 106.538 150.835 107.112 149.979 107.4C149.123 107.687 144.746 105.388 138.562 101.175C133.139 97.5352 128.001 94.2789 127.145 93.8959C126.289 93.6085 113.349 101.749 93.3695 115.253L61.0213 137.185L67.2055 137.472L73.4848 137.759V164.48V191.2L65.6832 191.488L57.7864 191.775L57.501 194.84L57.2156 198H187.56H318V194.648V191.296H312.291H306.583V164.959V138.621H252.827C217.625 138.621 199.072 138.909 199.072 139.579C199.072 140.058 198.596 140.537 198.121 140.537C197.55 140.537 187.941 134.312 176.619 126.746L156.068 112.954L135.803 126.746C124.671 134.312 115.062 140.537 114.586 140.537C114.11 140.537 113.444 139.866 113.064 139.1C112.683 138.047 118.297 133.833 133.9 123.298C145.698 115.349 155.783 108.932 156.353 108.932C156.924 108.932 165.868 114.774 176.238 121.861L195.171 134.79L255.587 134.599L316.002 134.312L284.129 113.912L252.257 93.6085H197.074H141.892L134.471 88.3411C130.38 85.4679 126.574 83.0736 126.193 83.1694C125.718 83.1694 108.687 95.0451 88.2318 109.507ZM123.91 109.411C123.91 112.571 123.72 112.763 120.58 112.763C117.44 112.763 117.25 112.571 117.25 109.411C117.25 106.25 117.44 106.059 120.58 106.059C123.72 106.059 123.91 106.25 123.91 109.411ZM130.57 109.411C130.57 112.476 130.38 112.763 127.716 112.763C125.052 112.763 124.861 112.476 124.861 109.411C124.861 106.346 125.052 106.059 127.716 106.059C130.38 106.059 130.57 106.346 130.57 109.411ZM123.91 116.594C123.91 119.275 123.625 119.467 120.58 119.467C117.536 119.467 117.25 119.275 117.25 116.594C117.25 113.912 117.536 113.721 120.58 113.721C123.625 113.721 123.91 113.912 123.91 116.594ZM130.57 116.594C130.57 119.18 130.285 119.467 127.716 119.467C125.147 119.467 124.861 119.18 124.861 116.594C124.861 114.008 125.147 113.721 127.716 113.721C130.285 113.721 130.57 114.008 130.57 116.594ZM167.675 166.874V191.296H155.783H143.89V167.545C143.89 154.424 144.175 143.41 144.556 143.123C144.841 142.74 150.264 142.452 156.449 142.452H167.675V166.874ZM102.979 151.167V155.956L98.9829 155.669L94.8918 155.381L94.6064 150.784L94.3209 146.283H98.6023H102.979V151.167ZM112.493 151.167V155.956L108.497 155.669L104.406 155.381L104.121 150.784L103.835 146.283H108.117H112.493V151.167ZM211.441 168.79V183.634H206.684H201.926V168.79V153.945H206.684H211.441V168.79ZM221.906 158.733V163.522H217.625H213.343V158.733V153.945H217.625H221.906V158.733ZM231.42 158.733V163.522H227.139H222.858V158.733V153.945H227.139H231.42V158.733ZM242.837 168.694V183.443L238.461 183.826C236.082 184.017 233.989 183.922 233.704 183.73C233.514 183.538 233.323 176.739 233.323 168.598V153.945H238.08H242.837V168.694ZM260.914 168.79V183.634H256.157H251.4V169.46C251.4 161.607 251.686 154.903 252.066 154.615C252.352 154.232 254.54 153.945 256.823 153.945H260.914V168.79ZM271.38 158.733V163.522H267.099H262.817V159.404C262.817 157.105 263.103 154.903 263.483 154.615C263.769 154.232 265.767 153.945 267.765 153.945H271.38V158.733ZM281.655 158.925L282.036 163.522H277.184H272.331V159.404C272.331 157.105 272.617 154.903 272.997 154.52C273.378 154.136 275.376 153.945 277.564 154.136L281.37 154.424L281.655 158.925ZM292.597 155.094C292.406 155.573 292.311 162.086 292.311 169.747V183.634H287.554H282.797V169.46C282.797 161.607 283.083 154.903 283.463 154.52C284.319 153.658 292.882 154.232 292.597 155.094ZM102.979 161.128V165.438H98.6975H94.4161V161.128V156.818H98.6975H102.979V161.128ZM112.493 161.128V165.438H108.212H103.93V161.128V156.818H108.212H112.493V161.128ZM221.906 168.79V173.099H217.625H213.343V168.79V164.48H217.625H221.906V168.79ZM231.42 168.79V173.099H227.139H222.858V168.79V164.48H227.139H231.42V168.79ZM271.38 168.79V173.099H267.099H262.817V169.46C262.817 167.449 263.103 165.438 263.483 165.15C263.769 164.767 265.767 164.48 267.765 164.48H271.38V168.79ZM281.655 168.981L281.941 173.099H277.184H272.331V169.46C272.331 164.767 272.807 164.288 277.564 164.671C281.275 164.959 281.37 165.054 281.655 168.981ZM102.979 171.184V175.972H98.6975H94.4161V171.184V166.395H98.6975H102.979V171.184ZM112.493 171.184V175.972H108.212H103.93V171.184V166.395H108.212H112.493V171.184ZM221.716 179.037L222.001 183.634H217.72H213.343V179.516C213.343 174.44 213.819 173.865 218.101 174.249C221.335 174.536 221.431 174.632 221.716 179.037ZM231.42 178.846V183.634H227.139H222.858V179.516C222.858 177.217 223.143 175.015 223.524 174.727C223.809 174.344 225.807 174.057 227.805 174.057H231.42V178.846ZM271.38 178.846V183.634H267.099H262.817V179.516C262.817 177.217 263.103 175.015 263.483 174.727C263.769 174.344 265.767 174.057 267.765 174.057H271.38V178.846ZM280.989 178.846C280.894 181.24 280.609 183.347 280.323 183.538C280.133 183.73 278.421 183.922 276.423 183.922C272.902 184.017 272.807 183.922 272.522 180.378C272.046 174.727 272.712 173.865 277.279 174.249L281.37 174.536L280.989 178.846Z" fill="black"/>
<path d="M147.695 149.157C147.695 151.838 147.981 152.03 151.025 152.03C154.07 152.03 154.355 151.838 154.355 149.157C154.355 146.475 154.07 146.283 151.025 146.283C147.981 146.283 147.695 146.475 147.695 149.157Z" fill="black"/>
<path d="M157.211 149.157C157.211 151.838 157.401 152.03 161.017 152.03C164.632 152.03 164.822 151.838 164.822 149.157C164.822 146.475 164.632 146.283 161.017 146.283C157.401 146.283 157.211 146.475 157.211 149.157Z" fill="black"/>
<path d="M147.695 158.254C147.695 161.415 147.886 161.606 151.025 161.606C154.165 161.606 154.355 161.415 154.355 158.254C154.355 155.094 154.165 154.902 151.025 154.902C147.886 154.902 147.695 155.094 147.695 158.254Z" fill="black"/>
<path d="M157.877 155.573C157.496 155.86 157.211 157.392 157.211 158.925C157.211 161.415 157.496 161.606 161.017 161.606C164.727 161.606 164.822 161.511 164.822 158.254C164.822 155.094 164.632 154.902 161.683 154.902C159.875 154.902 158.162 155.19 157.877 155.573Z" fill="black"/>
<path d="M119.977 63.6308C123.812 60.6499 128.799 60.6499 132.634 63.6308M117.381 60.5062C122.787 56.3042 129.815 56.3042 135.221 60.5062M121.654 66.908C124.464 64.7172 128.13 64.7172 130.939 66.908M123.982 70.1942C125.391 69.0988 127.22 69.0988 128.629 70.1942" stroke="black" stroke-width="1.5" stroke-linecap="round" stroke-linejoin="round"/>
<path d="M28.0426 91.7877C28.0426 99.4487 21.8739 105.653 14.2713 105.653C6.66872 105.653 0.5 99.4487 0.5 91.7877C0.5 84.1267 6.66872 77.9219 14.2713 77.9219C21.8739 77.9219 28.0426 84.1267 28.0426 91.7877Z" stroke="black"/>
<path d="M13.0928 83.3814C11.821 84.1094 11.7212 84.4859 11.7212 88.678V92.6441L10.8235 93.8239C9.97563 94.9535 9.92575 95.1041 10.0255 96.5852C10.1502 98.4176 10.6489 99.246 12.1202 100.099C15.761 102.208 19.8507 98.1666 17.9555 94.3762C17.6562 93.8239 17.2822 93.3219 17.0827 93.2215C16.7834 93.1211 16.7086 92.3429 16.7086 88.9792V84.8625L16.0353 84.1094C15.2623 83.2559 13.8907 82.9045 13.0928 83.3814ZM15.4119 84.7872C15.6114 85.0884 15.7111 86.4188 15.7111 89.3055V93.3972L16.4842 94.1C17.1325 94.6774 17.2822 95.0539 17.3819 96.058C17.5066 97.539 17.1325 98.3172 15.9605 99.1205C15.2373 99.5974 14.8633 99.6978 13.8658 99.5974C12.8434 99.497 12.4943 99.3213 11.796 98.5682C11.0978 97.8152 10.9731 97.4888 10.9731 96.4596C10.9731 95.2547 11.397 94.326 12.2698 93.6984C12.6688 93.3972 12.7187 92.9202 12.7187 89.2302C12.7187 85.3896 12.7436 85.0884 13.2424 84.5863C13.8409 83.9839 14.8633 84.0843 15.4119 84.7872Z" fill="black"/>
<path d="M13.7158 92.0172C13.7158 94.3266 13.6909 94.4521 13.0425 95.0044C11.7458 96.134 12.444 98.1672 14.1397 98.1672C15.8604 98.1672 16.6584 96.0085 15.3367 94.9542C14.7382 94.4772 14.7133 94.3266 14.7133 92.0423C14.7133 89.8082 14.6883 89.6325 14.2145 89.6325C13.7407 89.6325 13.7158 89.8082 13.7158 92.0172ZM14.7881 95.9582C15.3866 96.887 14.1647 97.6401 13.4664 96.7866C13.2171 96.4603 13.242 96.3097 13.5911 95.908C14.0899 95.3558 14.414 95.3558 14.7881 95.9582Z" fill="black"/>
<line x1="13.3438" y1="106.152" x2="13.3438" y2="171.517" stroke="black"/>
<path d="M13 171L74 171.218" stroke="black"/>
<path d="M193.043 14.3658C193.043 22.0268 186.874 28.2316 179.271 28.2316C171.669 28.2316 165.5 22.0268 165.5 14.3658C165.5 6.70481 171.669 0.5 179.271 0.5C186.874 0.5 193.043 6.70481 193.043 14.3658Z" stroke="black"/>
<line x1="178.344" y1="28.7305" x2="178.344" y2="94.0948" stroke="black"/>
<path d="M178 93.5781L239 93.7962" stroke="black"/>
<path d="M78.0426 31.3658C78.0426 39.0268 71.8739 45.2316 64.2713 45.2316C56.6687 45.2316 50.5 39.0268 50.5 31.3658C50.5 23.7048 56.6687 17.5 64.2713 17.5C71.8739 17.5 78.0426 23.7048 78.0426 31.3658Z" stroke="black"/>
<line x1="63.3438" y1="45.7305" x2="63.3438" y2="111.095" stroke="black"/>
<path d="M63 110.578L87 110.664" stroke="black"/>
<path d="M330.043 68.3658C330.043 76.0268 323.874 82.2316 316.271 82.2316C308.669 82.2316 302.5 76.0268 302.5 68.3658C302.5 60.7048 308.669 54.5 316.271 54.5C323.874 54.5 330.043 60.7048 330.043 68.3658Z" stroke="black"/>
<line x1="316.5" y1="83" x2="316.5" y2="148.364" stroke="black"/>
<path d="M306 148.578L317 148.617" stroke="black"/>
<path d="M176.196 6.07685C176.188 6.12295 175.689 8.15134 175.09 10.5821C174.49 13.0128 174 15.0202 174 15.0454C174 15.0663 174.956 15.3555 176.125 15.6866C177.294 16.0177 178.258 16.2943 178.271 16.3026C178.279 16.3152 177.877 18.3604 177.378 20.854C176.875 23.3433 176.473 25.3885 176.485 25.4011C176.494 25.4095 176.611 25.2376 176.745 25.0113C176.879 24.785 177.709 23.3936 178.589 21.9184C182.818 14.8358 183.974 12.8871 183.999 12.8326C184.016 12.7823 183.635 12.6398 182.164 12.1537C181.141 11.8142 180.295 11.5208 180.274 11.5083C180.257 11.4915 180.81 10.2719 181.506 8.79674C182.197 7.32574 182.776 6.09361 182.788 6.06847C182.805 6.02656 182.114 6.01399 179.515 6.00561C176.246 5.99303 176.217 5.99303 176.196 6.07685ZM181.502 6.83959C181.502 6.85636 180.965 8.01305 180.307 9.40861C179.649 10.8042 179.113 11.9609 179.113 11.9734C179.113 11.9902 179.943 12.2752 180.957 12.6146C181.971 12.9541 182.801 13.2349 182.801 13.2433C182.801 13.2475 182.235 14.203 181.539 15.3639C180.848 16.5248 179.825 18.243 179.268 19.1818C178.711 20.1205 178.241 20.8875 178.229 20.8917C178.212 20.8917 178.438 19.7308 178.723 18.3101C179.008 16.8894 179.239 15.7243 179.23 15.7159C179.222 15.7117 178.275 15.4351 177.122 15.1124C175.97 14.7855 175.014 14.5047 175.002 14.488C174.989 14.4712 175.085 14.0144 175.22 13.4738C175.354 12.9332 175.781 11.2107 176.167 9.6475L176.867 6.81026H179.184C180.458 6.81026 181.502 6.82283 181.502 6.83959Z" fill="black"/>
<path d="M314.244 60.2796C313.15 60.6289 311.543 62.282 311.241 63.3763C310.705 65.3322 311.054 66.9155 312.381 68.4289C313.08 69.2205 313.313 69.6862 313.313 70.2683C313.313 70.7805 313.476 71.2462 313.779 71.5023C314.151 71.8283 314.244 72.2241 314.244 73.3883C314.244 74.7155 314.291 74.8785 314.966 75.4373C315.851 76.1824 315.99 76.1824 316.968 75.4373C317.69 74.8785 317.737 74.7853 317.737 73.3883C317.737 72.2241 317.83 71.8283 318.202 71.5023C318.505 71.2462 318.668 70.7805 318.668 70.2683C318.668 69.6862 318.901 69.2205 319.599 68.4289C321.509 66.2635 321.462 63.4462 319.483 61.4903C318.109 60.0933 316.2 59.6509 314.244 60.2796ZM318.319 61.0014C320.95 62.3984 321.416 65.8677 319.297 68.2659C318.622 69.0343 318.296 69.6396 318.202 70.3149L318.086 71.2695H315.99H313.895L313.779 70.3149C313.685 69.6396 313.359 69.0343 312.684 68.2659C310.076 65.3089 311.404 61.1644 315.176 60.4426C316.27 60.233 317.201 60.396 318.319 61.0014ZM316.805 72.0611C315.432 72.4803 314.477 72.5268 314.477 72.1776C314.477 71.9214 314.803 71.8516 315.944 71.8749C316.968 71.8749 317.224 71.9447 316.805 72.0611ZM317.457 72.5967C317.341 72.9226 316.433 73.1788 315.245 73.2253C314.058 73.2719 314.337 72.8761 315.711 72.62C317.434 72.2707 317.55 72.2707 317.457 72.5967ZM317.504 73.4582C317.504 73.8074 317.271 73.8773 315.827 74.0635C314.104 74.2731 313.988 73.8307 315.711 73.528C317.364 73.2253 317.504 73.2253 317.504 73.4582ZM317.504 74.3895C317.504 74.6922 316.363 75.577 315.99 75.577C315.827 75.577 315.455 75.3674 315.152 75.1346L314.593 74.6922L315.176 74.5525C316.456 74.2731 316.712 74.2265 317.108 74.2032C317.318 74.2032 317.504 74.2731 317.504 74.3895Z" fill="black"/>
<path d="M314.082 61.5367C313.756 61.6532 313.663 62.0723 313.965 62.0723C314.082 62.0723 314.361 61.9093 314.617 61.723C314.943 61.4669 314.966 61.397 314.71 61.397C314.524 61.397 314.221 61.4669 314.082 61.5367Z" fill="black"/>
<path d="M312.497 63.3067C311.984 64.5408 312.054 66.4966 312.636 66.4966C312.729 66.4966 312.706 66.1706 312.566 65.7981C312.38 65.2393 312.427 64.8202 312.706 63.9121C313.172 62.5151 313.009 62.0727 312.497 63.3067Z" fill="black"/>
<path d="M63.6399 26.2452C63.6801 27.2493 63.7604 27.5104 64.0617 27.5707C64.3629 27.6309 64.4031 27.4703 64.4031 26.3255C64.4031 25.1205 64.3629 25 64.0014 25C63.6198 25 63.5796 25.1004 63.6399 26.2452Z" fill="black"/>
<path d="M60.664 26.5072C60.5034 26.8888 61.2063 28.0938 61.6481 28.1741C62.1101 28.2746 62.09 27.7925 61.5678 26.9289C61.1059 26.1457 60.8448 26.0252 60.664 26.5072Z" fill="black"/>
<path d="M66.7699 26.4868C66.3883 26.8483 65.9062 27.9931 66.0669 28.1537C66.3079 28.3947 66.8301 27.9931 67.1514 27.3102C67.533 26.4868 67.292 25.9445 66.7699 26.4868Z" fill="black"/>
<path d="M68.4602 28.9363C67.918 29.2576 67.677 29.5388 67.7573 29.7195C67.8979 30.1212 68.0585 30.1011 68.9021 29.599C69.5849 29.1973 69.8259 28.7555 69.4644 28.5346C69.364 28.4743 68.9221 28.6551 68.4602 28.9363Z" fill="black"/>
<path d="M58.375 28.8974C58.375 29.2589 59.7407 30.0824 60.1022 29.9418C60.5641 29.761 60.4235 29.4397 59.7407 29.0179C58.9574 28.556 58.375 28.4958 58.375 28.8974Z" fill="black"/>
<path d="M62.8605 29.3209C61.9366 29.8029 61.5952 30.1845 61.2337 31.1284C60.5709 32.8757 61.3542 34.6833 63.1216 35.4665C64.3467 36.0088 65.4513 35.828 66.5358 34.9042C68.9459 32.8556 67.6003 28.9996 64.4873 28.9996C63.9249 28.9996 63.2019 29.1401 62.8605 29.3209ZM66.094 30.4657C66.9777 31.269 67.2187 32.5544 66.6764 33.5987C66.1944 34.5427 64.7685 35.1452 63.7844 34.8439C60.832 33.9603 61.3341 29.8029 64.3869 29.8029C65.2304 29.8029 65.4915 29.9033 66.094 30.4657Z" fill="black"/>
<path d="M57.0109 31.9697C57.051 32.2509 57.3121 32.3513 58.1356 32.3915C59.1799 32.4517 59.9029 32.1706 59.6619 31.8091C59.6017 31.7086 58.9791 31.6283 58.2561 31.6283C57.1113 31.6283 56.9506 31.6685 57.0109 31.9697Z" fill="black"/>
<path d="M68.4601 31.9698C68.5203 32.271 68.7412 32.3313 69.7253 32.3313C70.7094 32.3313 70.9304 32.271 70.9906 31.9698C71.0509 31.6685 70.8902 31.6284 69.7253 31.6284C68.5605 31.6284 68.3998 31.6685 68.4601 31.9698Z" fill="black"/>
<path d="M59.1382 34.2784C58.6963 34.5395 58.375 34.8809 58.375 35.0817C58.375 35.5838 58.7566 35.5437 59.6403 34.9211C60.2629 34.4993 60.3633 34.3587 60.1625 34.1177C60.042 33.957 59.9215 33.8365 59.9014 33.8365C59.9014 33.8365 59.5399 34.0374 59.1382 34.2784Z" fill="black"/>
<path d="M67.8139 34.119C67.6332 34.36 67.7336 34.5006 68.3963 34.9223C69.3604 35.5449 69.6214 35.565 69.6214 35.083C69.6214 34.8621 69.3001 34.5407 68.8382 34.2797C68.1754 33.8981 68.0348 33.878 67.8139 34.119Z" fill="black"/>
<path d="M61.007 36.3682C60.5049 37.2117 60.4647 37.6536 60.8865 37.6536C61.2279 37.6536 61.9911 36.5289 61.9911 35.9866C61.9911 35.4042 61.4488 35.605 61.007 36.3682Z" fill="black"/>
<path d="M66.0078 35.846C66.0078 36.308 66.8312 37.6536 67.1124 37.6536C67.5342 37.6536 67.494 37.1113 66.9919 36.328C66.5902 35.6854 66.0078 35.4042 66.0078 35.846Z" fill="black"/>
<path d="M63.6783 36.509C63.618 36.6697 63.5979 37.2923 63.6381 37.8747C63.6783 38.6781 63.7787 38.9592 63.9996 38.9592C64.4013 38.9592 64.4414 36.4287 64.0598 36.3082C63.9193 36.2479 63.7586 36.3483 63.6783 36.509Z" fill="black"/>
</svg>
