<svg width="246" height="243" viewBox="0 0 246 243" fill="none" xmlns="http://www.w3.org/2000/svg">
<path d="M130.646 0.106178C148.914 0.212329 178.679 0.212329 196.732 0.106178C214.838 0.0531031 199.902 2.7895e-05 163.528 2.7895e-05C127.207 2.7895e-05 112.378 0.0531031 130.646 0.106178Z" fill="black"/>
<path d="M95.2924 0.902312C93.6806 1.75151 91.7463 3.55607 91.1553 4.7768C90.8867 5.36063 91.2628 5.04218 92.0687 4.08682C92.8746 3.13147 94.379 1.91074 95.4536 1.32691C96.5819 0.796162 97.2266 0.318485 96.9043 0.318485C96.6356 0.318485 95.8834 0.583861 95.2924 0.902312Z" fill="black"/>
<path d="M231.225 1.00841C233.32 1.96376 235.523 4.29906 236.544 6.74052C237.296 8.492 237.403 18.2578 237.403 95.4292C237.403 159.544 237.242 182.632 236.759 183.959C235.039 189.107 232.675 190.434 224.777 190.858C219.404 191.177 219.673 191.177 227.464 191.124C237.242 191.071 238.908 190.54 241.916 186.878L243.582 184.861L243.743 112.148C243.851 40.0717 243.851 39.4348 244.925 39.1695C245.946 38.9041 246 38.4264 246 31.049C246 23.6715 245.946 23.1938 244.925 22.9285C243.904 22.6631 243.851 22.1854 243.851 15.1795C243.851 8.86353 243.689 7.32434 242.83 5.67902C240.896 1.96376 237.726 0.26535 232.729 0.26535C229.666 0.31842 229.666 0.31842 231.225 1.00841ZM242.776 31.049V39.0102H241.433H240.09V31.049V23.0877H241.433H242.776V31.049Z" fill="black"/>
<path d="M159.498 3.44961C158.154 4.77649 158.154 5.67877 159.498 6.8995C161.862 8.96943 165.3 5.73184 162.99 3.55576C162.13 2.70656 162.13 2.70656 162.775 3.87421C163.688 5.30724 162.936 6.79335 161.271 7.05872C158.799 7.43025 158.369 4.13959 160.733 3.02501C161.378 2.70656 161.593 2.44118 161.271 2.44118C160.895 2.38811 160.089 2.86578 159.498 3.44961Z" fill="black"/>
<path d="M3.14851 3.92743C3.14851 4.24588 5.94238 8.70419 9.38098 13.8525C13.0882 19.4785 15.3448 23.406 15.0224 23.5652C14.7001 23.7775 12.1211 24.4675 9.32725 25.1575C6.53339 25.8475 4.22308 26.5375 4.22308 26.7498C4.22308 26.9621 6.15729 27.599 8.4676 28.1297C13.8941 29.3504 14.3777 29.6158 13.3031 30.8896C7.33931 37.7894 0.999387 45.5914 1.2143 45.8037C1.37548 45.963 4.33053 43.9461 7.71541 41.3454C16.9029 34.3926 18.1387 33.4903 18.461 33.7557C18.5685 33.9149 18.8909 36.091 19.0521 38.6386C19.267 41.1862 19.6431 43.2561 19.858 43.2561C20.1266 43.2561 20.3415 43.0438 20.3415 42.7785C20.3415 42.5131 21.2012 40.4962 22.222 38.2671L24.1025 34.1803L25.983 35.6664C27.8097 37.1525 27.8635 37.1525 26.7889 37.9486C25.7681 38.6917 25.7143 39.2755 25.8755 43.7869L26.0367 48.829L26.1442 43.6807C26.2516 39.0101 26.3591 38.5324 27.3799 38.214C28.2396 37.9486 29.3141 38.5855 32.108 41.0801C34.1497 42.8315 35.9227 44.1584 36.0839 43.9461C36.2988 43.7869 35.4391 41.8762 34.2034 39.7001C33.0214 37.524 32.108 35.6664 32.2155 35.5602C32.4304 35.401 53.062 23.6714 55.1574 22.6099L56.3394 21.973V32.6411V43.2561H54.1903C49.0324 43.2561 47.2056 45.9099 47.2056 53.2873V58.1172H44.4655H41.6716L41.994 61.2486C42.4775 65.6539 44.1968 69.7937 46.6683 72.6067C48.9786 75.2074 52.5784 77.2243 54.8887 77.2243H56.3394V88.6354C56.3394 97.9766 56.1782 100.047 55.5872 100.047C54.1366 100.047 46.8295 94.7921 43.3909 91.2361C39.6299 87.3085 37.3196 84.2302 35.4391 80.5149C34.7944 79.2411 34.0959 78.2858 33.9885 78.445C33.5049 78.9227 38.0718 85.9817 41.1881 89.5377C44.949 93.8899 49.1398 97.3397 53.3844 99.5158L56.608 101.214L56.7692 89.2192L56.8767 77.2243H58.2199C60.3153 77.2243 64.2374 75.2074 66.0105 73.1905C68.9655 69.8468 71.3833 63.6901 71.3833 59.4441C71.3833 58.2233 71.1684 58.1172 68.6969 58.1172H66.0105V53.075C66.0105 45.6976 64.2912 43.2561 59.0258 43.2561H56.8767V32.3757C56.8767 26.3782 56.7155 21.4953 56.5006 21.4953C56.2319 21.4953 50.8054 24.4675 44.3043 28.1297C37.8569 31.7919 32.3766 34.7641 32.108 34.7641C31.7319 34.7641 29.4753 30.9958 29.4753 30.3058C29.4753 30.1996 31.7856 29.2974 34.5795 28.3951C37.3734 27.4928 39.7911 26.5375 39.9523 26.2721C40.1135 26.0067 39.5225 25.6883 38.6091 25.476C37.7495 25.2636 36.9973 24.9452 36.9973 24.786C36.9973 24.4675 52.9545 15.2324 55.8021 13.9056C56.5006 13.534 60.369 15.5509 71.4907 21.9199C87.2868 30.9958 89.1673 32.0042 88.3077 31.2081C86.9107 29.8281 56.6618 12.9502 56.0708 13.2156C55.6947 13.3217 50.9666 15.9755 45.5938 19.0539C37.5883 23.6714 35.6003 24.6267 34.4183 24.3614C31.7319 23.7245 31.6244 23.2999 33.6124 19.6377C34.6332 17.727 35.3854 15.9224 35.278 15.657C35.1705 15.3917 33.29 16.1878 31.0872 17.5147C28.8843 18.7885 26.9501 19.6908 26.7352 19.4785C26.574 19.2662 25.6069 15.8163 24.6398 11.7826C23.6727 7.80192 22.7056 4.51125 22.4907 4.51125C22.2757 4.51125 21.4161 6.89964 20.6102 9.81877C19.7505 12.7379 18.8371 15.1263 18.5685 15.1263C18.1387 15.1263 14.324 12.2602 5.45883 5.14816C4.16935 4.13973 3.14851 3.60898 3.14851 3.92743ZM56.3394 52.2789V58.1172H53.653H50.9666V53.1281C50.9666 48.5106 51.074 48.0329 52.1486 47.2899C52.7933 46.8122 54.0291 46.4406 54.835 46.4406H56.3394V52.2789ZM61.0675 47.2899C62.142 48.0329 62.2495 48.5106 62.2495 53.1281V58.1172H59.5631H56.8767V52.2789V46.4406H58.3811C59.187 46.4406 60.4227 46.8122 61.0675 47.2899ZM58.3811 61.4078C59.187 62.204 59.2407 64.0616 58.4348 64.8577C58.005 65.2823 58.005 66.0254 58.4348 67.4584C59.4556 71.1206 59.3482 71.386 56.3394 71.386C54.8887 71.386 53.653 71.2268 53.653 71.0675C53.653 70.9083 53.9216 69.7407 54.244 68.4138C54.7276 66.6623 54.6738 65.7069 54.1903 64.5393C53.3306 62.4163 54.244 60.7709 56.2319 60.7709C57.0916 60.7709 58.005 61.0363 58.3811 61.4078Z" fill="black"/>
<path d="M167.718 4.29927C166.912 6.3692 169.814 7.8553 170.996 5.99767C171.425 5.25462 171.372 4.83002 170.566 4.14004C169.599 3.23776 169.599 3.23776 170.297 4.35234C171.157 5.7323 170.351 7.0061 168.954 6.47535C167.933 6.05075 167.826 4.19312 168.793 3.82159C169.276 3.60929 169.276 3.50314 168.739 3.50314C168.363 3.45006 167.933 3.82159 167.718 4.29927Z" fill="black"/>
<path d="M89.9733 6.89978C89.8121 7.32438 89.6509 13.2157 89.6509 20.0093L89.5972 32.2697L91.4777 33.3312C93.1432 34.2866 93.3581 34.7112 93.5731 36.8342L93.7342 39.2756L93.8417 36.7811C93.9492 34.4989 93.8417 34.2335 92.0687 33.172L90.1344 32.0043L90.2956 19.054C90.4031 11.9419 90.4031 6.10365 90.4031 6.10365C90.3494 6.10365 90.1882 6.47518 89.9733 6.89978Z" fill="black"/>
<path d="M99.8593 83.6464V156.943L97.9251 155.245C96.8506 154.343 94.7014 152.963 93.0896 152.166L90.1883 150.786V106.681L90.1345 62.6286L88.0929 68.7323C82.2902 86.1409 73.049 98.4013 58.7036 107.902C57.8439 108.432 57.8976 108.486 59.0259 107.955C61.8198 106.681 67.7299 101.957 71.5983 97.8705C78.5293 90.5992 84.8692 80.0903 87.9854 70.696C88.6839 68.7323 89.3286 67.14 89.4361 67.14C89.5435 67.14 89.651 85.8755 89.651 108.804V150.468H84.3856C81.4306 150.468 76.8637 150.309 74.1773 150.15L69.2343 149.778V145.957C69.2343 142.135 69.2343 142.082 70.8999 141.445C73.4788 140.384 75.3593 137.093 75.3593 133.802C75.2518 128.866 72.2968 125.523 67.9985 125.523C66.333 125.523 65.5808 125.151 63.9689 123.453C60.799 120.162 56.9305 119.897 53.868 122.71C52.5248 123.984 51.9338 124.143 49.6235 123.984C47.3132 123.877 46.7222 124.037 45.4864 125.204C44.7342 126 43.982 127.168 43.8746 127.805C43.4985 129.716 44.4119 132.263 45.9163 133.431C47.0446 134.28 47.152 134.652 46.7222 135.554C45.7551 137.252 46.0237 141.021 47.2057 142.931C49.3549 146.381 54.5665 147.867 57.9514 145.957C59.9393 144.842 60.1005 144.948 60.1005 147.549V149.937L55.4261 150.043C52.7935 150.097 48.2803 150.15 45.3252 150.203C42.3702 150.256 39.0928 150.574 38.0719 150.946C35.4393 151.795 35.3855 151.742 36.0303 149.884C36.3526 149.035 36.4601 148.186 36.3526 148.027C36.1915 147.92 35.8154 148.77 35.4393 149.937C34.902 151.689 34.3647 152.273 32.2693 153.334C28.8844 155.033 24.7474 158.748 22.2221 162.41C21.0938 164.002 19.8581 165.329 19.482 165.329C19.1059 165.329 18.6761 164.533 18.5686 163.578L18.3537 161.879L18.3 163.843C18.2463 165.17 18.4612 165.86 18.9984 165.966C19.5357 166.072 17.1717 170.053 11.1541 179.076C0.247314 195.476 0.247314 195.529 0.247314 199.828C0.247314 203.756 1.42933 206.462 4.33066 209.222C7.87671 212.619 7.17825 212.566 36.9437 212.194L63.8615 211.876V199.722V187.621H41.0807C26.4129 187.621 18.1388 187.408 17.9239 187.09C17.709 186.718 20.5566 186.559 26.1443 186.559H34.6871L36.9974 183.375C38.2869 181.623 39.4689 180.296 39.5763 180.456C39.7375 180.615 38.9316 181.942 37.857 183.481L35.8691 186.294L50.2682 186.559L64.6674 186.825V199.828V212.831L45.1103 213.097L25.4996 213.362L21.0401 227.427C18.6223 235.176 16.5807 241.81 16.5807 242.129C16.5807 242.66 24.9623 242.819 56.6082 242.819H96.6357V227.692V212.566H99.537C101.149 212.566 103.889 212.938 105.662 213.362C108.187 213.999 109.423 214.052 111.411 213.627C116.999 212.407 118.234 211.08 124.467 200.093L129.249 191.601L149.88 191.336L170.512 191.071L150.256 190.911C139.081 190.858 129.947 190.699 129.947 190.593C129.947 190.487 131.129 188.311 132.58 185.71L135.212 180.986L153.426 180.721L171.586 180.456L153.749 180.19L135.857 179.925L140.424 171.804C142.949 167.346 144.991 163.578 144.991 163.471C144.991 163.365 143.809 162.622 142.358 161.826L139.672 160.393L141.176 157.792C142.842 154.926 150.095 148.504 153.802 146.647C157.51 144.789 158.96 143.568 158.96 142.294C158.96 140.968 158.047 139.853 156.919 139.853C156.489 139.853 154.232 140.702 151.868 141.711L147.57 143.515L147.892 142.241C148.054 141.551 148.913 139.481 149.773 137.624C153.534 129.556 155.683 123.93 155.414 123.134C154.877 121.861 153.211 121.171 152.083 121.754C151.546 122.02 150.31 123.93 149.343 125.947C147.516 129.875 147.409 129.981 144.024 128.92C142.627 128.548 141.015 130.034 134.836 137.571C132.096 140.915 130.699 143.303 128.926 147.496L126.616 153.069L124.574 152.06L122.533 151.052L117.482 160.022L112.485 169.044H109.53H106.575L103.352 163.153L100.128 157.262L100.289 84.071L100.397 10.8803H163.796H227.195V95.5352V180.137L222.789 180.349L218.33 180.509L223.058 180.615L227.732 180.721V95.5352V10.3496H163.796H99.8593V83.6464ZM154.447 123.187C154.984 124.037 154.662 125.151 152.191 130.83C148.161 139.906 145.421 146.806 145.689 147.124C145.851 147.23 146.173 146.647 146.495 145.797C146.925 144.524 147.839 143.94 151.707 142.294C157.08 140.012 158.154 140.012 158.154 142.188C158.154 143.568 157.725 143.993 154.608 145.638C150.31 147.974 142.681 154.236 141.284 156.625L140.209 158.376L136.556 156.731C134.568 155.882 131.666 154.555 130.108 153.918L127.314 152.697L129.571 147.23C131.29 143.144 132.634 140.861 135.266 137.783C142.197 129.663 144.078 128.123 144.776 130.034C144.991 130.565 144.185 131.839 142.627 133.484C141.284 134.917 140.155 136.297 140.155 136.509C140.155 136.722 141.606 135.342 143.325 133.484C147.731 128.654 148 129.185 144.722 136.403C143.916 138.155 143.54 139.322 143.809 139.057C144.078 138.738 145.958 134.97 147.892 130.565C152.083 121.383 152.782 120.587 154.447 123.187ZM71.9744 132.422C74.6071 133.749 75.1444 134.227 74.9295 135.076C74.7146 135.66 74.4996 136.615 74.3385 137.146C74.1773 137.73 73.1564 138.951 72.1356 139.8C68.9119 142.613 64.0764 141.817 61.7661 138.102C59.9393 135.182 60.2617 134.439 64.0227 132.582C65.8494 131.626 67.6762 130.883 68.0523 130.883C68.4284 130.83 70.2014 131.573 71.9744 132.422ZM66.333 143.462L68.4284 143.887L68.5895 152.06C68.6433 156.572 68.6433 160.128 68.4821 159.968C68.3746 159.862 66.5479 157.633 64.4525 155.033C60.6915 150.415 60.6378 150.309 60.6378 147.177C60.6378 145.214 60.9601 143.568 61.4974 142.719C62.3034 141.551 62.4645 141.498 63.2705 142.188C63.8077 142.666 65.1509 143.197 66.333 143.462ZM48.0117 160.128L49.516 169.044H55.6411H61.7123V174.299V179.553L69.2343 179.925C73.3714 180.137 76.7562 180.509 76.7562 180.721C76.7562 181.092 62.6257 180.827 61.3362 180.456C60.8527 180.296 60.6378 178.704 60.6378 174.883V169.575H54.7277C49.0325 169.575 48.8176 169.522 48.5489 168.354C47.9579 165.648 45.5939 152.113 45.5939 151.211C45.5939 150.627 45.7551 150.468 46.0237 150.733C46.2924 151.052 47.152 155.245 48.0117 160.128ZM64.6674 155.935L68.9656 161.348L69.1268 155.882L69.288 150.468H72.1893H75.1444V163.471C75.1444 170.637 74.9832 176.475 74.7683 176.422C74.4996 176.422 69.3417 170.53 63.163 163.418L52.0413 150.468L56.1783 150.521H60.3691L64.6674 155.935ZM118.073 172.6C117.536 174.246 117.16 175.679 117.267 175.838C117.428 175.944 117.697 175.466 117.912 174.67C118.181 173.45 118.503 173.29 120.652 173.29C122.694 173.29 123.07 173.45 122.801 174.193C122.479 175.52 110.927 211.717 110.874 211.929C110.712 212.088 77.1861 212.141 77.0249 211.929C76.9711 211.823 77.4547 209.965 78.1532 207.736L79.3889 203.756L83.9021 202.057C86.3736 201.102 89.4361 200.359 90.6181 200.359C93.1971 200.359 98.7848 198.076 98.7848 197.068C98.7848 196.537 98.6773 196.484 98.355 197.068C97.3878 198.554 92.4449 199.828 87.3407 199.881C83.9558 199.934 83.0424 200.093 84.5468 200.306L86.6959 200.624L82.3977 202.11C78.9054 203.278 77.1861 203.543 73.1564 203.543C68.9119 203.543 68.2134 203.437 67.9448 202.588C67.8374 202.11 67.515 198.979 67.3538 195.688L66.9777 189.744H68.5895C69.5029 189.744 72.9953 188.417 76.3801 186.771C80.6784 184.702 82.9887 183.905 84.0633 184.012L85.6214 184.224L84.2782 184.808L82.935 185.445H84.2782C85.2453 185.498 85.6751 185.179 85.7288 184.542C85.7826 184.065 86.5348 181.305 87.5019 178.439L89.1674 173.29H91.8538C94.4328 173.29 94.4865 173.343 94.2179 174.723C94.0567 175.573 94.4865 174.723 95.1313 172.866L96.3133 169.575H107.704H119.148L118.073 172.6ZM61.1751 229.125C61.1751 232.628 61.0139 233.849 60.584 233.425C60.2617 233.106 60.1005 231.355 60.208 229.072L60.3691 225.304H46.561H32.6991V231.938C32.6991 236.025 32.4842 238.573 32.1618 238.573C31.5708 238.573 31.4097 225.198 32.0007 224.614C32.1618 224.402 38.8241 224.243 46.7759 224.243H61.1751V229.125Z" fill="black"/>
<path d="M94.3788 183.375C93.8953 183.693 92.2297 184.224 90.6179 184.649C88.7374 185.179 88.2538 185.445 89.2209 185.445C89.9731 185.498 91.7462 185.02 93.1431 184.436C96.1519 183.163 97.6563 183.109 98.0861 184.224C98.8383 186.188 93.8416 188.258 87.233 188.682L82.3975 189.001L86.7494 189.107C90.403 189.213 91.6924 189.001 94.8087 187.727C98.5696 186.188 99.483 185.126 98.2473 183.64C97.4951 182.738 95.722 182.632 94.3788 183.375Z" fill="black"/>
<path d="M99.9666 187.09C100.88 188.47 100.074 189.16 95.8295 190.805C93.6267 191.654 90.9402 192.185 87.5016 192.397L82.3975 192.716L87.0181 192.822C90.8328 192.928 92.176 192.716 95.0236 191.548C97.9249 190.38 98.5159 190.327 99.1607 190.964C101.31 193.087 95.8295 195.582 87.7703 196.112L82.3975 196.484L87.0718 196.537C90.5641 196.643 92.4984 196.378 94.4863 195.635C97.0115 194.679 97.2264 194.679 98.0861 195.476C98.9457 196.325 98.9457 196.325 98.6234 195.422C98.3547 194.733 98.6234 194.149 99.4293 193.459C100.504 192.61 100.558 192.344 99.9666 191.336C99.3756 190.433 99.4293 190.115 100.128 189.425C100.558 188.947 100.934 188.417 100.934 188.151C100.934 187.249 100.289 186.028 99.8054 186.028C99.5368 186.028 99.5905 186.506 99.9666 187.09Z" fill="black"/>
<path d="M157.94 22.8755C153.265 24.5208 148.43 28.4484 146.818 31.8452C146.388 32.7475 146.334 32.9598 146.71 32.376C148.537 29.6161 152.836 25.7416 155.576 24.3616C158.37 23.0347 159.229 22.8224 163.796 22.8224C166.59 22.8224 169.652 22.9817 170.512 23.247C171.909 23.5655 172.016 23.5655 171.049 22.9817C169.33 21.9202 160.734 21.8671 157.94 22.8755Z" fill="black"/>
<path d="M172.393 23.8307C172.393 23.9368 172.769 24.2022 173.252 24.3614C173.682 24.5206 173.897 24.4676 173.736 24.1491C173.413 23.6184 172.393 23.4061 172.393 23.8307Z" fill="black"/>
<path d="M177.927 27.9705C179.753 29.8281 181.58 31.7919 181.956 32.3757C182.332 32.9596 182.225 32.6411 181.795 31.6858C180.882 29.7751 177.443 26.1659 175.67 25.2637C175.079 24.9452 176.1 26.1659 177.927 27.9705Z" fill="black"/>
<path d="M160.733 27.3335C157.241 29.4034 156.113 33.0125 157.832 36.5155C159.175 39.2754 161.324 40.6023 164.333 40.6023C170.351 40.6023 173.843 33.8087 170.189 29.2442C167.825 26.272 163.85 25.4228 160.733 27.3335Z" fill="black"/>
<path d="M145.313 34.4988C144.83 35.8787 144.937 36.1972 145.582 35.1357C145.904 34.6049 146.066 34.0211 145.904 33.9149C145.797 33.7557 145.528 34.0211 145.313 34.4988Z" fill="black"/>
<path d="M182.601 33.9679C182.601 34.2333 182.87 34.8702 183.138 35.2948C183.407 35.7194 183.676 35.8255 183.676 35.5602C183.676 35.2417 183.407 34.6579 183.138 34.2333C182.87 33.8087 182.601 33.6494 182.601 33.9679Z" fill="black"/>
<path d="M144.508 37.2055C144.508 37.7893 144.669 37.9485 144.83 37.5239C144.991 37.1524 144.937 36.6747 144.776 36.5155C144.615 36.3032 144.454 36.6216 144.508 37.2055Z" fill="black"/>
<path d="M183.729 37.2055C183.729 37.7893 183.89 37.9485 184.052 37.5239C184.213 37.1524 184.159 36.6747 183.998 36.5155C183.837 36.3032 183.676 36.6216 183.729 37.2055Z" fill="black"/>
<path d="M144.078 42.1946C144.078 44.3707 144.186 45.273 144.293 44.1584C144.4 43.0969 144.4 41.2924 144.293 40.1778C144.186 39.1163 144.078 40.0186 144.078 42.1946Z" fill="black"/>
<path d="M184.374 42.1946C184.374 44.3707 184.481 45.273 184.589 44.1584C184.696 43.0969 184.696 41.2924 184.589 40.1778C184.481 39.1163 184.374 40.0186 184.374 42.1946Z" fill="black"/>
<path d="M93.0359 44.0522C93.0359 45.8036 93.1433 46.4405 93.2508 45.4852C93.3583 44.5298 93.3583 43.0968 93.2508 42.3007C93.1433 41.5046 93.0359 42.3007 93.0359 44.0522Z" fill="black"/>
<path d="M19.9658 46.7062C19.9658 48.4577 20.0733 49.0946 20.1807 48.1392C20.2882 47.1839 20.2882 45.7509 20.1807 44.9547C20.0733 44.1586 19.9658 44.9547 19.9658 46.7062Z" fill="black"/>
<path d="M156.758 45.0076C154.77 45.6445 152.298 46.8653 151.224 47.6614C149.343 49.0944 149.343 49.2006 150.042 50.5805C151.277 52.8628 154.716 55.835 157.617 57.1618C159.659 58.0641 161.271 58.3826 164.333 58.3826C167.396 58.3826 169.008 58.0641 171.049 57.1618C175.616 55.0919 180.452 49.6252 178.732 48.4575C171.479 43.6807 164.172 42.5131 156.758 45.0076Z" fill="black"/>
<path d="M144.454 46.9716C144.454 48.67 147.194 53.4468 149.665 56.0474C152.083 58.6481 157.563 61.8326 159.498 61.8326C159.927 61.8326 158.853 61.2488 157.133 60.5058C151.653 58.2766 148.053 54.7206 145.797 49.3069C145.045 47.6085 144.454 46.547 144.454 46.9716Z" fill="black"/>
<path d="M183.729 47.29C183.729 47.8739 183.89 48.0331 184.052 47.6085C184.213 47.237 184.159 46.7593 183.998 46.6001C183.837 46.3878 183.676 46.7062 183.729 47.29Z" fill="black"/>
<path d="M92.4991 49.8905C92.4991 51.0582 92.6065 51.4828 92.714 50.7928C92.8215 50.1559 92.8215 49.2006 92.714 48.6698C92.5528 48.1921 92.4454 48.7229 92.4991 49.8905Z" fill="black"/>
<path d="M182.225 50.8992C179.968 55.4105 176.53 58.4889 171.372 60.5588C169.706 61.2488 168.739 61.8326 169.169 61.8326C170.942 61.8326 176.046 58.9666 178.464 56.6313C180.774 54.4021 184.105 49.3069 183.568 48.7761C183.407 48.67 182.816 49.6253 182.225 50.8992Z" fill="black"/>
<path d="M26.4131 51.7481C26.4131 53.075 26.5205 53.6057 26.628 52.9158C26.7355 52.2789 26.7355 51.2174 26.628 50.5274C26.5205 49.8905 26.4131 50.4212 26.4131 51.7481Z" fill="black"/>
<path d="M20.4495 51.4828C20.3958 52.332 20.6107 54.0304 20.8256 55.1981C21.4166 58.0111 21.4703 55.4635 20.9331 52.2789C20.6107 50.4744 20.4495 50.3152 20.4495 51.4828Z" fill="black"/>
<path d="M91.9077 53.6058C91.9077 54.455 92.0152 54.7735 92.1764 54.2427C92.2838 53.765 92.2838 53.022 92.1764 52.6505C92.0152 52.332 91.9077 52.7035 91.9077 53.6058Z" fill="black"/>
<path d="M26.8962 55.7286C26.8962 56.5778 27.1112 58.0109 27.3261 58.9132C27.9171 61.1423 27.9171 58.9662 27.3798 56.2594C27.0037 54.4548 26.8962 54.4018 26.8962 55.7286Z" fill="black"/>
<path d="M91.0481 57.6396C90.8332 58.8603 90.7795 59.9749 90.9406 60.081C91.0481 60.1872 91.3167 59.338 91.5317 58.1172C91.7466 56.8965 91.8003 55.835 91.6391 55.6758C91.5317 55.5166 91.263 56.4188 91.0481 57.6396Z" fill="black"/>
<path d="M21.5237 58.6482C21.5237 59.3912 21.6311 59.6566 21.7923 59.2851C21.8998 58.9666 21.8998 58.3297 21.7923 57.9582C21.6311 57.6397 21.5237 57.9051 21.5237 58.6482Z" fill="black"/>
<path d="M22.061 61.3017C22.061 62.0447 22.1685 62.3101 22.3297 61.9386C22.4371 61.6201 22.4371 60.9832 22.3297 60.6117C22.1685 60.2932 22.061 60.5586 22.061 61.3017Z" fill="black"/>
<path d="M27.9712 61.567C27.9712 62.6816 29.3144 67.246 29.4219 66.3438C29.4219 66.0253 29.0995 64.5923 28.7234 63.1593C28.2936 61.6732 27.9712 60.9832 27.9712 61.567Z" fill="black"/>
<path d="M90.242 61.6202C90.242 62.2041 90.4032 62.3633 90.5644 61.9387C90.7255 61.5672 90.6718 61.0895 90.5106 60.9303C90.3494 60.718 90.1883 61.0364 90.242 61.6202Z" fill="black"/>
<path d="M162.345 62.2042C163.42 62.3104 165.247 62.3104 166.375 62.2042C167.449 62.0981 166.536 61.9919 164.333 61.9919C162.13 61.9919 161.217 62.0981 162.345 62.2042Z" fill="black"/>
<path d="M22.5447 63.7432C22.5447 64.327 22.7059 64.4862 22.8671 64.0616C23.0283 63.6901 22.9745 63.2124 22.8134 63.0532C22.6522 62.8409 22.491 63.1593 22.5447 63.7432Z" fill="black"/>
<path d="M23.0816 65.8661C23.0816 66.4499 23.2428 66.6091 23.404 66.1845C23.5651 65.813 23.5114 65.3353 23.3502 65.1761C23.189 64.9638 23.0279 65.2823 23.0816 65.8661Z" fill="black"/>
<path d="M23.6194 67.5116C23.5119 68.7854 27.0042 77.7021 29.4757 82.5319C32.7532 88.954 36.7828 94.5269 41.2422 98.9852C46.2389 103.921 54.2444 109.123 56.7159 109.069C57.2532 109.016 56.7696 108.698 55.6414 108.326C51.8804 106.946 47.5821 104.027 42.6391 99.4098C34.956 92.1916 29.9593 84.2303 25.661 72.4476C24.5327 69.3693 23.6194 67.1401 23.6194 67.5116Z" fill="black"/>
<path d="M29.4761 67.5647C29.4761 68.4139 32.5386 76.1629 33.2908 77.2244C33.9892 78.1267 33.9892 78.1798 31.3028 71.3861C30.3357 68.8916 29.5298 67.1932 29.4761 67.5647Z" fill="black"/>
<path d="M117.159 80.5682L117.052 87.8395L165.031 87.7333L212.957 87.5741L213.118 80.5151C213.172 76.6937 213.064 73.5092 212.849 73.5092C212.634 73.5092 212.42 76.5345 212.42 80.2497V87.0434L165.031 87.2026L117.643 87.3087L117.428 80.3028L117.267 73.2438L117.159 80.5682Z" fill="black"/>
<path d="M124.574 77.8081C124.091 78.6574 124.144 79.1881 124.843 80.2496C125.326 80.9396 125.649 81.5765 125.541 81.6296C122.533 83.1157 121.351 83.8587 121.351 84.2302C121.351 84.4425 123.661 84.6548 126.455 84.6548C131.989 84.6548 132.795 84.1241 129.571 82.6911C128.443 82.1603 127.476 81.7357 127.368 81.6826C127.261 81.6296 127.583 80.9396 128.067 80.2496C129.195 78.4981 128.389 76.6936 126.455 76.6936C125.703 76.6936 124.897 77.1182 124.574 77.8081Z" fill="black"/>
<path d="M139.081 79.0286C138.006 80.3555 138.651 82.2662 140.209 82.4255C142.143 82.6378 143.164 81.3109 142.412 79.6125C141.713 78.1264 140.101 77.861 139.081 79.0286Z" fill="black"/>
<path d="M148 79.0819C147.462 79.6657 147.301 80.2495 147.623 81.0988C148.161 82.5849 150.364 82.9564 151.277 81.6826C152.19 80.4618 152.137 80.1434 151.116 79.135C150.041 78.0735 149.074 78.0735 148 79.0819Z" fill="black"/>
<path d="M156.811 79.3473C155.952 80.9926 157.026 82.638 158.853 82.4257C159.874 82.3195 160.357 81.8949 160.465 81.0457C160.841 78.5512 157.94 77.2243 156.811 79.3473Z" fill="black"/>
<path d="M165.945 79.0818C164.548 80.7802 166.644 83.3809 168.524 82.2132C170.351 81.0456 169.706 78.2857 167.557 78.2857C167.02 78.2857 166.321 78.6572 165.945 79.0818Z" fill="black"/>
<path d="M175.079 79.0818C173.682 80.7802 175.778 83.3809 177.658 82.2132C179.485 81.0456 178.84 78.2857 176.691 78.2857C176.154 78.2857 175.455 78.6572 175.079 79.0818Z" fill="black"/>
<path d="M184.213 79.0286C183.138 80.3555 183.783 82.2662 185.341 82.4255C187.275 82.6378 188.296 81.3109 187.544 79.6125C186.845 78.1264 185.233 77.861 184.213 79.0286Z" fill="black"/>
<path d="M117.321 102.276V109.335H165.139H212.957L213.119 102.276C213.172 98.4544 213.065 95.2699 212.85 95.2699C212.635 95.2699 212.42 98.2951 212.42 102.01V108.804L165.032 108.963L117.644 109.069L117.429 102.17L117.268 95.2699L117.321 102.276Z" fill="black"/>
<path d="M124.359 97.7113C123.876 98.1359 123.5 99.0913 123.5 99.8343C123.5 100.63 123.177 101.108 122.694 101.108C122.049 101.108 121.888 101.798 121.888 104.027V106.946H125.918H129.947V104.293C129.947 102.382 129.732 101.533 129.141 101.32C128.711 101.108 128.335 100.418 128.335 99.7813C128.335 98.4013 127.046 96.8621 125.918 96.8621C125.541 96.8621 124.789 97.2337 124.359 97.7113ZM127.153 98.0298C127.529 98.4013 127.798 99.1974 127.798 99.8874C127.798 100.949 127.529 101.108 125.918 101.108C124.306 101.108 124.037 100.949 124.037 99.8874C124.037 98.6136 124.95 97.3929 125.918 97.3929C126.24 97.3929 126.777 97.6583 127.153 98.0298ZM126.509 104.293C126.509 104.876 126.24 105.354 125.918 105.354C125.488 105.354 125.327 104.187 125.595 102.913C125.756 102.17 126.562 103.337 126.509 104.293Z" fill="black"/>
<path d="M139.081 100.79C138.006 102.117 138.651 104.027 140.209 104.186C142.143 104.399 143.164 103.072 142.412 101.373C141.713 99.8874 140.101 99.622 139.081 100.79Z" fill="black"/>
<path d="M148 100.896C146.979 101.851 146.979 101.957 147.677 103.284C148.43 104.611 150.686 104.611 151.438 103.231C152.674 100.896 149.88 98.9851 148 100.896Z" fill="black"/>
<path d="M156.811 101.108C155.952 102.754 157.026 104.399 158.853 104.187C159.874 104.08 160.357 103.656 160.465 102.807C160.841 100.312 157.94 98.9853 156.811 101.108Z" fill="black"/>
<path d="M165.945 100.843C164.548 102.541 166.644 105.142 168.524 103.974C170.351 102.807 169.706 100.047 167.557 100.047C167.02 100.047 166.321 100.418 165.945 100.843Z" fill="black"/>
<path d="M175.079 100.843C173.682 102.541 175.778 105.142 177.658 103.974C179.485 102.807 178.84 100.047 176.691 100.047C176.154 100.047 175.455 100.418 175.079 100.843Z" fill="black"/>
<path d="M184.213 100.79C183.138 102.117 183.783 104.027 185.341 104.186C187.275 104.399 188.296 103.072 187.544 101.373C186.845 99.8874 185.233 99.622 184.213 100.79Z" fill="black"/>
<path d="M19.1059 125.894C21.1475 126.053 21.9535 126.319 22.1147 127.009C22.2758 127.646 22.3833 127.593 22.437 126.69C22.4908 125.576 22.2758 125.523 19.4282 125.629L16.312 125.735L19.1059 125.894Z" fill="black"/>
<path d="M14.9687 129.079C14.9687 130.299 14.5389 130.777 12.8196 131.52L10.7242 132.476L8.89743 131.149L7.1244 129.822L5.029 132.476C3.84698 133.909 2.82615 135.289 2.71869 135.554C2.61123 135.819 3.3097 136.615 4.22308 137.412C5.62001 138.526 5.7812 138.951 5.29764 139.8C5.029 140.384 4.76036 141.18 4.76036 141.551C4.81409 141.923 5.19019 141.392 5.62001 140.384C6.42594 138.579 6.42594 138.526 4.65291 137.146L2.9336 135.713L4.97527 133.272C6.04984 131.945 7.1244 130.83 7.28559 130.83C7.44677 130.83 8.25269 131.361 9.16607 131.945L10.7779 133.112L13.142 131.945C15.1299 130.936 15.506 130.512 15.506 129.185C15.506 128.336 15.3985 127.646 15.2374 127.646C15.0762 127.646 14.9687 128.283 14.9687 129.079Z" fill="black"/>
<path d="M28.9384 129.503C28.24 130.246 27.2728 130.83 26.843 130.83C26.0908 130.83 26.0908 130.936 26.7893 131.361C27.3803 131.679 27.9176 131.414 28.9921 130.14L30.3891 128.495L33.1292 130.565C35.8694 132.582 35.9231 132.635 34.9022 133.696C34.365 134.333 33.774 135.129 33.5053 135.501C32.968 136.456 35.4395 140.914 36.4604 140.861C37.0514 140.861 37.0514 140.755 36.5678 140.543C36.1917 140.384 35.3858 139.322 34.7948 138.154L33.7202 136.031L35.0634 134.28L36.4604 132.528L33.7202 130.352C32.1621 129.132 30.7652 128.176 30.5503 128.176C30.3891 128.176 29.6369 128.76 28.9384 129.503Z" fill="black"/>
<path d="M22.491 129.397C22.491 130.193 25.0162 131.149 25.6072 130.565C25.7684 130.405 25.4997 130.299 25.0162 130.299C24.5864 130.299 23.7804 129.928 23.3506 129.45C22.5984 128.76 22.491 128.76 22.491 129.397Z" fill="black"/>
<path d="M20.9863 136.668C24.5861 137.252 27.0576 138.951 28.3471 141.657C30.7649 146.593 28.9918 151.37 23.8339 153.706C22.6519 154.236 22.0072 154.714 22.437 154.714C22.8668 154.714 24.21 154.13 25.4995 153.387C28.0785 151.901 30.0127 148.557 30.0127 145.638C30.0127 143.515 28.4546 139.959 27.0039 138.685C25.392 137.305 22.2221 136.138 20.2341 136.191C18.7298 136.244 18.8909 136.35 20.9863 136.668Z" fill="black"/>
<path d="M15.3989 137.624C14.0019 138.526 11.7454 141.021 11.7454 141.658C11.7454 141.87 12.5513 141.127 13.4647 140.065C14.4318 139.004 15.9362 137.783 16.8495 137.412C17.7092 137.04 18.0853 136.722 17.6555 136.669C17.2256 136.669 16.2048 137.093 15.3989 137.624Z" fill="black"/>
<path d="M38.6094 140.065C38.6094 140.171 38.9855 140.384 39.4153 140.596C39.8451 140.755 40.2212 140.649 40.2212 140.384C40.2212 140.065 39.8451 139.853 39.4153 139.853C38.9855 139.853 38.6094 139.959 38.6094 140.065Z" fill="black"/>
<path d="M40.3826 143.568C40.3826 144.895 40.49 145.426 40.5975 144.736C40.7049 144.099 40.7049 143.037 40.5975 142.348C40.49 141.711 40.3826 142.241 40.3826 143.568Z" fill="black"/>
<path d="M3.68565 143.038C2.98718 143.462 3.04091 143.568 3.84684 143.568C4.33039 143.568 4.76021 143.303 4.76021 143.038C4.76021 142.401 4.70649 142.401 3.68565 143.038Z" fill="black"/>
<path d="M11.2615 143.356C11.2615 143.94 11.4227 144.099 11.5839 143.674C11.7451 143.303 11.6913 142.825 11.5302 142.666C11.369 142.454 11.2078 142.772 11.2615 143.356Z" fill="black"/>
<path d="M0.0324696 146.063L0.0861977 148.61L0.30111 146.381C0.462295 144.842 0.784664 144.099 1.4294 143.94C2.07414 143.781 2.02041 143.674 1.16076 143.621C0.0324696 143.568 -0.0749868 143.781 0.0324696 146.063Z" fill="black"/>
<path d="M10.7242 145.479C10.7242 146.063 10.8853 146.222 11.0465 145.797C11.2077 145.426 11.154 144.948 10.9928 144.789C10.8316 144.577 10.6704 144.895 10.7242 145.479Z" fill="black"/>
<path d="M38.6097 147.283L36.7292 147.655L38.7172 147.761C39.7918 147.761 40.8663 147.549 41.0275 147.283C41.4036 146.7 41.4036 146.7 38.6097 147.283Z" fill="black"/>
<path d="M11.208 147.867C11.208 150.15 15.9898 154.714 18.4076 154.714C19.1598 154.661 18.8374 154.396 17.4942 153.971C14.8078 153.016 13.4109 151.742 12.2288 149.141C11.6916 147.973 11.208 147.39 11.208 147.867Z" fill="black"/>
<path d="M0.51591 150.256C0.51591 150.84 0.677095 150.999 0.838279 150.574C0.999464 150.203 0.945735 149.725 0.784551 149.566C0.623366 149.354 0.462182 149.672 0.51591 150.256Z" fill="black"/>
<path d="M3.1488 150.84C4.65319 150.999 5.2442 151.424 6.15757 153.069L7.28587 155.086L5.99639 156.625C5.35165 157.474 4.76064 158.323 4.76064 158.536C4.76064 158.695 5.99639 159.862 7.50078 161.083L10.1872 163.365L11.9065 161.773C13.196 160.499 13.8944 160.234 14.7004 160.552C15.2914 160.818 16.151 161.03 16.5808 161.03C17.0107 161.03 16.4197 160.659 15.2914 160.234C13.196 159.491 13.1422 159.491 11.7453 161.189L10.2946 162.888L7.82315 160.818C6.42622 159.65 5.29792 158.589 5.29792 158.429C5.35165 158.27 5.88893 157.474 6.5874 156.625L7.82315 155.139L6.53367 152.803C5.29792 150.68 5.02928 150.468 3.25625 150.574L1.26831 150.627L3.1488 150.84Z" fill="black"/>
<path d="M205.167 171.061C199.149 180.031 194.099 187.567 193.884 187.833C193.561 188.151 187.329 180.402 182.225 173.343C182.171 173.237 181.688 173.449 181.204 173.874C180.398 174.511 180.129 174.352 178.786 172.812L177.282 171.008L173.521 173.821C170.942 175.679 169.814 176.793 170.136 177.271C170.351 177.642 175.455 184.542 181.526 192.609C192.487 207.205 192.541 207.258 193.454 206.091L194.367 204.87L195.926 206.727L197.484 208.532L202.212 201.42C204.844 197.492 209.304 190.752 212.205 186.506L217.471 178.704L216.127 176.262L214.838 173.821L219.458 166.921C222.037 163.1 224.025 159.915 223.918 159.809C223.596 159.544 217.363 155.457 216.665 155.085C216.289 154.873 211.829 161.03 205.167 171.061ZM220.264 157.951C222.306 159.278 223.327 160.287 223.058 160.711C221.93 162.569 193.185 205.454 192.863 205.825C192.541 206.144 172.769 180.668 170.673 177.271C170.458 176.899 171.64 175.679 173.843 174.086C176.583 172.069 177.443 171.698 177.765 172.282C178.034 172.706 181.365 177.165 185.18 182.207L192.111 191.336L204.092 173.556C210.647 163.79 216.235 155.775 216.503 155.775C216.826 155.775 218.491 156.731 220.264 157.951Z" fill="black"/>
<path d="M128.926 206.091C129.732 206.569 132.311 207.949 134.729 209.063L139.081 211.186L139.242 224.19L139.35 237.246L139.511 224.137L139.618 210.974L134.675 208.532C131.935 207.152 129.625 205.879 129.517 205.613C129.41 205.348 128.926 205.136 128.443 205.136C127.798 205.136 127.959 205.401 128.926 206.091Z" fill="black"/>
<path d="M186.899 224.349C186.738 231.567 186.792 237.299 187.06 237.034C187.275 236.821 187.383 230.93 187.329 223.924L187.168 211.239L186.899 224.349Z" fill="black"/>
<path d="M167.718 212.672C166.751 212.938 165.623 213.628 165.193 214.265L164.387 215.379L162.937 213.999C159.605 210.709 153.588 213.097 153.588 217.715C153.588 220.209 154.34 221.271 159.82 227.109L164.226 231.673L169.33 226.366C174.596 220.899 175.455 219.307 174.811 216.335C174.166 213.469 170.942 211.823 167.718 212.672Z" fill="black"/>
</svg>
