<svg width="24" height="25" viewBox="0 0 24 25" fill="none" xmlns="http://www.w3.org/2000/svg">
<path d="M22 11.3799V16.3799C22 19.8799 20 21.3799 17 21.3799H7C4 21.3799 2 19.8799 2 16.3799V9.37988C2 5.87988 4 4.37988 7 4.37988H14" stroke="white" stroke-width="1.5" stroke-miterlimit="10" stroke-linecap="round" stroke-linejoin="round"/>
<path d="M7 9.87988L10.13 12.3799C11.16 13.1999 12.85 13.1999 13.88 12.3799L15.06 11.4399M19.5 8.87988C20.163 8.87988 20.7989 8.61649 21.2678 8.14765C21.7366 7.67881 22 7.04292 22 6.37988C22 5.71684 21.7366 5.08096 21.2678 4.61212C20.7989 4.14327 20.163 3.87988 19.5 3.87988C18.837 3.87988 18.2011 4.14327 17.7322 4.61212C17.2634 5.08096 17 5.71684 17 6.37988C17 7.04292 17.2634 7.67881 17.7322 8.14765C18.2011 8.61649 18.837 8.87988 19.5 8.87988Z" stroke="white" stroke-width="1.5" stroke-miterlimit="10" stroke-linecap="round" stroke-linejoin="round"/>
</svg>
