<svg width="239" height="105" viewBox="0 0 239 105" fill="none" xmlns="http://www.w3.org/2000/svg">
<path d="M33.964 0.72995C33.3327 1.41006 33.2485 2.85528 33.2485 11.9942V22.4508L31.565 30.2295C30.597 34.5226 29.5449 39.3259 29.2082 40.9836C28.156 45.8719 28.1139 45.9569 25.7992 45.7019C24.6628 45.5743 21.8009 45.3618 19.3599 45.2343C16.9189 45.1068 12.121 44.8092 8.62777 44.5967C0.715474 44.0866 0 44.0866 0 44.5542C0 44.7242 1.93599 45.0218 4.33493 45.1918C6.69179 45.3618 9.97455 45.5743 11.5738 45.7019C18.0552 46.1269 28.4085 46.637 28.5348 46.5095C28.619 46.4245 29.124 44.2991 29.6711 41.7487C30.2183 39.2409 31.1862 34.8627 31.7755 32.0573C32.4068 29.2518 32.996 26.8715 33.0802 26.7864C33.1643 26.7014 33.2485 38.9433 33.2485 53.9906C33.2485 74.7338 33.3748 81.5349 33.7535 81.9174C34.6374 82.8101 36.5733 82.555 37.0363 81.4924C37.2888 80.9398 38.5935 76.009 39.9403 70.5257C44.9486 50.5051 48.4418 36.7755 48.5681 36.648C48.7364 36.4354 49.2414 61.4718 49.2414 71.7158C49.2414 77.1567 49.4098 81.1098 49.6623 81.6199C50.1674 82.555 52.2717 82.725 52.903 81.8749C53.1555 81.6199 53.871 78.9845 54.4602 76.0515C55.7649 70.0581 56.7329 65.6374 58.248 58.8364C58.7951 56.2435 59.5527 52.7154 59.9315 50.9727C60.3102 49.2299 61.3624 44.5117 62.2462 40.5586C63.1301 36.563 64.1401 31.9722 64.4347 30.357C64.9819 27.5941 65.024 28.9543 65.2765 47.9972C65.4448 66.3175 65.5711 68.8679 66.2445 70.9507C69.0222 79.452 76.3453 82.7675 81.6482 77.9218C83.4158 76.3066 85.436 73.1611 85.436 72.0134C85.436 71.6308 85.6464 71.4608 85.8569 71.5883C86.1094 71.7584 86.2777 73.9262 86.2777 76.6466C86.2777 81.9599 86.5303 82.5975 88.6767 82.3425C89.813 82.215 89.8972 82.0449 90.9915 77.5392C91.6228 74.9463 92.5487 71.0357 93.0116 68.8254C93.4746 66.6151 94.4426 62.1094 95.158 58.8364C96.9257 50.6326 100.082 36.0954 100.882 32.2698C101.219 30.527 101.681 28.7843 101.892 28.4442C102.102 28.1042 102.271 39.5384 102.271 54.2882C102.271 71.7158 102.439 81.0673 102.692 81.6199C103.197 82.555 105.301 82.725 106.016 81.8749C106.269 81.5349 106.732 79.8771 107.069 78.1343C107.405 76.3916 108.289 72.396 109.005 69.2505C109.72 66.105 110.941 60.4516 111.74 56.711C112.54 52.9705 113.676 47.7847 114.223 45.2343C114.813 42.6414 115.907 37.6681 116.664 34.1826L118.053 27.8066L118.348 33.9701C118.474 37.3706 118.6 49.3574 118.6 60.6642C118.642 76.3066 118.769 81.3648 119.147 81.8324C119.442 82.215 120.2 82.4275 120.957 82.3425C122.094 82.215 122.262 82.0024 122.767 80.0896C123.062 78.8995 123.482 76.9867 123.693 75.839C123.903 74.6488 124.913 69.8881 125.966 65.2124C127.018 60.5366 128.869 52.2054 130.048 46.722C136.024 18.9652 135.519 20.9631 135.982 22.7058C136.193 23.3859 136.529 25.5113 136.782 27.3815C137.034 29.2518 137.708 33.8425 138.297 37.5831C139.938 48.3798 141.79 60.4516 143.305 70.7382C143.894 74.6913 144.568 78.9845 144.82 80.2172L145.283 82.47L147.851 82.3425L150.46 82.215L151.975 73.2886C152.859 68.3578 154.795 56.711 156.31 47.3596C157.867 38.0082 159.677 26.999 160.392 22.9184C161.108 18.8377 161.823 14.247 162.034 12.7168C162.244 11.1866 162.623 8.93371 162.876 7.65852C163.591 3.74791 163.633 3.79042 160.771 3.79042C158.499 3.79042 158.246 3.87543 158.078 4.72556C157.951 5.27814 157.404 8.93371 156.773 12.9293C155.763 19.6454 154.079 30.3995 149.871 57.6887C148.945 63.6396 148.103 68.5704 148.019 68.6554C147.809 68.8679 147.346 65.7224 145.83 54.5857C145.241 50.1225 144.357 43.9166 143.894 40.7711C141.201 22.2383 138.465 4.04546 138.339 3.96045C138.255 3.87543 134.299 3.70541 133.583 3.74791C133.289 3.79042 133.373 5.32066 133.92 8.55115C135.645 19.3478 135.688 17.6901 133.373 28.3592C132.236 33.6725 130.848 40.006 130.3 42.4714C129.711 44.9367 128.954 48.3798 128.575 50.1225C128.238 51.8653 127.144 56.7536 126.218 60.9617C125.292 65.1698 124.072 70.6957 123.567 73.2886C122.136 80.1321 121.673 81.5774 120.915 81.8749C119.147 82.555 119.105 82.0449 119.105 51.9503V23.3434H124.787C128.28 23.3434 130.469 23.1734 130.469 22.9184C130.469 22.6633 128.364 22.4933 124.998 22.4933C118.727 22.4933 119.063 22.8333 120.115 18.0301C123.609 2.30269 123.44 3.32285 122.725 1.79261C122.22 0.687447 121.799 0.3899 120.831 0.3899C120.158 0.3899 119.4 0.644936 119.147 0.984985C118.811 1.41006 118.6 4.76807 118.516 11.7391C118.432 17.3075 118.348 21.9832 118.306 22.1532C118.264 22.5783 103.112 22.6208 103.112 22.1957C103.112 22.0257 103.365 20.7505 103.702 19.3478C107.574 2.85528 107.742 0.3899 104.838 0.3899C102.397 0.3899 102.271 0.899979 102.271 12.2067V22.4933H99.3246C97.6412 22.4933 96.3786 22.6633 96.3786 22.9184C96.3786 23.1734 97.557 23.3434 99.03 23.3434C100.503 23.3434 101.808 23.4284 101.934 23.556C102.06 23.6835 101.261 27.8491 100.166 32.8224C98.2304 41.4512 95.4947 54.0756 92.3382 68.6129C89.5605 81.3648 89.3922 82.0024 88.1716 82.0024C86.909 82.0024 86.6986 79.7921 86.6144 64.4472C86.5723 55.9884 86.4461 50.8877 86.404 53.098C86.3198 55.3083 86.0673 57.3061 85.8569 57.5187C85.5623 57.8162 85.436 57.7312 85.436 57.3061C85.436 56.9661 85.0572 55.9459 84.5522 55.0108C80.2593 46.7645 71.0844 47.3596 67.1704 56.0734L66.1182 58.4113V40.6011C66.0761 21.0481 65.8657 23.1734 69.0222 9.31627C70.4952 2.77026 70.5373 2.30269 69.3168 1.07C67.9279 -0.33271 67.2125 -0.33271 66.1182 1.07C65.2765 2.13267 65.2344 2.72775 65.2344 12.9293V23.6835L63.1301 33.1624C61.152 42.3863 56.9012 61.8968 54.2498 74.1387C52.7767 80.9398 52.44 82.0024 51.5983 82.0024C49.9569 82.0024 49.9148 81.4498 49.6623 57.0086L49.3677 33.3325L51.43 25.1287C52.5242 20.623 53.4501 16.5849 53.4501 16.1598C53.4501 15.0546 51.8508 13.1419 50.967 13.1419C50.5461 13.1419 49.9148 13.4819 49.5361 13.907C48.9048 14.5871 48.8206 15.9048 48.8206 23.5985V32.5248L47.095 39.3259C44.4436 49.8675 39.309 70.2281 37.878 75.7965C36.5733 80.9398 36.1104 82.0024 35.1424 82.0024C33.7115 82.0024 33.6273 80.0046 33.7956 50.2926L33.9219 21.0056L35.9 12.7168C38.1306 3.45037 38.2568 2.21767 37.0363 0.899979C35.9841 -0.247704 34.8899 -0.290207 33.964 0.72995ZM36.3629 1.36755C37.6255 2.30269 37.4151 4.25799 34.7636 14.8421L33.7535 18.8802L33.7115 10.804C33.6694 4.08797 33.7956 2.55773 34.3428 1.75011C35.1003 0.644936 35.3528 0.602432 36.3629 1.36755ZM68.6855 1.53757C69.6956 2.43021 69.6535 2.94029 68.1805 9.95387C66.2024 19.3053 66.1603 19.3478 66.1182 10.2939C66.0761 3.40786 66.1603 2.04765 66.7495 1.49506C67.5492 0.644936 67.7175 0.644936 68.6855 1.53757ZM106.101 2.13267C106.353 2.64275 106.479 3.53538 106.395 4.17298C105.848 7.40347 103.407 17.6475 103.07 18.0301C102.523 18.5827 102.565 3.06781 103.112 2.04765C103.702 0.942482 105.469 0.984985 106.101 2.13267ZM122.136 2.30269C122.514 3.15282 122.43 4.25799 121.673 7.74353C121.168 10.1239 120.41 13.6094 120.031 15.4797L119.316 18.8802L119.19 10.634C119.105 4.9381 119.232 2.21767 119.568 1.83512C120.326 0.899979 121.588 1.15501 122.136 2.30269ZM51.5983 14.332C52.8609 15.1822 52.9872 16.4149 52.2296 19.3478C51.8087 20.9631 51.1353 23.556 50.7145 25.1287C50.3357 26.7439 49.8307 28.0191 49.6202 28.0191C49.4098 28.0191 49.2414 25.2137 49.2414 21.7707C49.2414 16.5849 49.3677 15.4372 49.9569 14.7571C50.7145 13.907 50.9249 13.8645 51.5983 14.332ZM118.011 23.6835C118.095 23.8535 117.59 26.8715 116.791 30.3995C116.033 33.885 114.434 41.2387 113.213 46.722C112.035 52.2054 110.141 60.9192 109.005 66.0625C107.868 71.2058 106.732 76.6041 106.437 78.0493C106.185 79.5371 105.722 81.0248 105.427 81.4073C104.754 82.3425 103.66 81.9174 103.112 80.5147C102.649 79.2395 102.523 24.1085 102.986 23.641C103.365 23.2159 117.759 23.2584 118.011 23.6835ZM79.4597 50.9302C82.7425 52.6304 85.0151 56.456 85.899 61.8118C86.4882 65.5524 85.6464 70.7807 83.963 73.7137C82.0691 76.9867 78.4917 79.452 75.7561 79.452C74.5776 79.452 70.9161 77.4542 69.906 76.264C69.3589 75.6265 68.3067 73.7987 67.5912 72.2684C66.3707 69.6755 66.2866 69.123 66.2866 64.7873C66.2866 60.7067 66.4128 59.7715 67.3808 57.4762C68.6855 54.3732 69.9481 52.7579 72.1787 51.2702C74.241 49.8675 77.187 49.74 79.4597 50.9302Z" fill="black"/>
<path d="M188.885 11.9515L186.865 12.8016V17.2223V21.6005L185.097 21.728L183.288 21.8555L183.077 23.9808L182.825 26.1062L182.278 24.831C180.973 21.643 180.3 20.6228 178.574 18.8801C174.702 14.9695 169.778 15.267 165.99 19.6452C163.507 22.4931 162.413 25.6811 162.16 30.6119C161.866 35.5426 162.834 39.3682 165.106 42.6412C167.253 45.6167 169.147 46.8494 172.093 47.0619C174.997 47.2744 177.185 46.3393 179.289 43.9164C182.067 40.6859 183.835 34.4375 183.288 29.8042L183.035 27.5939H184.929H186.865V55.0106V82.4273H189.39H191.915V55.0106V27.5939L194.567 27.5514C195.998 27.5089 197.471 27.4664 197.808 27.4239C198.313 27.3814 198.439 26.7863 198.439 24.6184V21.8555L195.198 21.728L191.915 21.6005V16.3297C191.915 10.3788 192.042 10.5913 188.885 11.9515ZM176.722 18.37C181.857 21.813 184.129 30.8244 181.646 37.923C179.163 44.9366 174.155 47.9545 169.189 45.3616C164.307 42.8112 161.276 33.9699 163.044 27.2964C165.275 18.795 171.419 14.8419 176.722 18.37Z" fill="black"/>
<path d="M168.768 24.6185C168.768 25.0861 169.062 25.4686 169.399 25.4686C169.736 25.4686 170.03 25.2561 170.03 25.0011C170.03 24.7885 169.862 24.7035 169.609 24.831C169.399 24.9586 169.189 24.9161 169.189 24.661C169.189 24.4485 169.441 24.1509 169.736 24.0659C170.03 23.9384 169.946 23.8109 169.525 23.8109C169.02 23.7684 168.768 24.0659 168.768 24.6185Z" fill="black"/>
<path d="M172.008 31.4619C172.303 31.7595 172.64 31.887 172.766 31.7595C172.892 31.632 172.682 31.3769 172.261 31.2494C171.672 30.9944 171.63 31.0369 172.008 31.4619Z" fill="black"/>
<path d="M178.658 31.4195C178.532 31.6321 178.616 31.8446 178.826 31.8446C179.079 31.8446 179.289 31.6321 179.289 31.4195C179.289 31.1645 179.205 30.9945 179.121 30.9945C178.995 30.9945 178.784 31.1645 178.658 31.4195Z" fill="black"/>
<path d="M168.557 37.4128C168.389 37.6678 168.347 37.9229 168.473 38.0504C168.557 38.1779 168.768 37.9654 168.894 37.5828C169.189 36.8602 168.936 36.7327 168.557 37.4128Z" fill="black"/>
<path d="M205.804 11.824L203.91 12.6316L203.784 17.0948L203.658 21.6005L201.679 21.728L199.701 21.8555V24.6184V27.3814L201.722 27.5089L203.7 27.6364V55.0531V82.4273H206.014H208.329V55.0106V27.6364L211.612 27.5089L214.853 27.3814V24.6184V21.8555L211.612 21.728L208.329 21.6005V16.3297C208.329 13.3967 208.203 11.0163 208.035 11.0589C207.824 11.0589 206.856 11.3989 205.804 11.824Z" fill="black"/>
<path d="M225.585 42.3436C225.248 42.4286 223.775 43.1087 222.302 43.8314C220.408 44.809 219.735 45.3616 219.861 45.8292C219.987 46.2117 220.282 47.3169 220.534 48.2945L220.997 50.1223L223.27 48.8046C227.184 46.5943 230.13 47.0618 232.487 50.2923C233.16 51.185 233.371 52.0776 233.371 54.0754V56.7108L230.719 57.0509C225.038 57.731 221.039 60.3239 219.146 64.4895C218.388 66.1473 218.22 67.295 218.22 70.9505C218.22 74.7761 218.346 75.7112 219.23 77.454C220.366 79.8344 222.386 81.5346 224.743 82.0447C227.226 82.5973 229.204 81.9172 231.772 79.6644C232.95 78.6017 234.044 77.7516 234.17 77.7516C234.255 77.7516 234.423 78.5592 234.507 79.5368L234.633 81.3646H236.696H238.8L238.674 68.1876C238.547 51.3125 238.085 48.2945 235.096 44.724C233.371 42.6837 228.362 41.4085 225.585 42.3436ZM233.792 66.6999C233.792 72.0132 233.371 73.3309 231.14 75.4137C228.531 77.8791 225.164 77.539 223.607 74.6911C222.597 72.7783 222.597 67.8475 223.607 65.9347C224.996 63.3844 228.615 61.5991 232.108 61.7266L233.792 61.8116V66.6999Z" fill="black"/>
<path d="M170.03 66.0625V82.47L172.471 82.3425L174.87 82.215V66.0625V49.91L172.471 49.7825L170.03 49.655V66.0625Z" fill="black"/>
<path d="M108.205 97.3048C103.954 98.3249 103.239 100.45 106.648 101.768C107.616 102.151 108.584 102.406 108.836 102.363C109.047 102.321 109.552 102.406 109.973 102.618C111.151 103.128 116.033 102.533 117.801 101.683C119.737 100.705 119.905 99.1326 118.179 98.1974C117.548 97.8149 116.917 97.6873 116.706 97.8999C116.538 98.0699 116.706 98.41 117.127 98.6225C117.969 99.1326 118.095 100.408 117.338 101.045C116.496 101.725 111.614 102.491 110.856 102.066C110.309 101.768 110.646 101.513 112.329 100.875C114.56 100.068 114.981 99.6001 113.76 99.3451C113.213 99.2176 113.466 98.92 114.686 98.2399C116.075 97.4323 116.159 97.3048 115.233 97.5173C114.56 97.6448 114.055 97.5598 114.055 97.3048C114.055 96.7947 110.309 96.7947 108.205 97.3048ZM113.802 97.6448C113.929 97.8574 113.045 98.3674 111.824 98.7925C110.52 99.3026 109.93 99.6852 110.393 99.7702C111.488 99.9827 111.277 100.408 109.678 101.3C108.331 102.023 108.205 102.023 107.153 101.343C105.848 100.45 105.722 99.2176 106.9 98.58C108.626 97.6448 113.382 97.0072 113.802 97.6448Z" fill="black"/>
<path d="M42.8021 98.4523C42.3392 98.9199 42.4654 104.956 42.9284 104.956C43.1809 104.956 43.3492 103.893 43.3492 102.618C43.3492 101.343 43.4755 100.28 43.6859 100.28C43.8543 100.28 44.5277 101.343 45.2011 102.618C46.9266 105.933 47.5579 105.721 47.5579 101.768C47.5579 99.9401 47.3896 98.5799 47.1371 98.5799C46.9266 98.5799 46.7162 99.685 46.7162 101.003L46.6741 103.468L45.2011 100.79C43.728 98.2398 43.3492 97.8573 42.8021 98.4523Z" fill="black"/>
<path d="M49.536 98.4523C49.3677 98.5799 49.2414 100.11 49.2414 101.853V104.956H51.1774C52.3137 104.956 52.9871 104.786 52.8188 104.531C52.6925 104.276 52.0191 104.106 51.3036 104.106C50.2936 104.106 50.0831 103.936 50.0831 103.043C50.0831 102.193 50.2936 101.98 51.0932 101.98C51.6824 101.98 52.2716 101.768 52.3979 101.555C52.5662 101.3 52.1033 101.13 51.3878 101.13C50.2936 101.13 50.0831 100.96 50.0831 100.068C50.0831 99.175 50.2936 99.0049 51.3457 99.0049C52.0612 99.0049 52.6083 98.7924 52.6083 98.5799C52.6083 98.1123 49.9569 97.9848 49.536 98.4523Z" fill="black"/>
<path d="M54.1656 98.4523C53.7868 99.0474 55.6807 104.956 56.2699 104.956C56.5645 104.956 56.9854 104.148 57.2379 103.128C58.0375 100.025 58.1638 99.9401 58.8793 102.405C59.3001 103.681 59.8473 104.743 60.1419 104.743C60.689 104.743 62.2883 100.408 62.2883 98.8774C62.2883 97.6872 61.5307 98.4523 61.194 99.9826C61.0678 100.705 60.7311 101.81 60.5207 102.405C60.0998 103.383 60.0156 103.298 59.3843 100.96C58.9634 99.5575 58.4584 98.3673 58.2059 98.2823C57.9954 98.1973 57.5325 99.0474 57.2379 100.153C56.3962 103.553 56.312 103.596 55.5123 101.003C54.7127 98.3248 54.5023 97.8998 54.1656 98.4523Z" fill="black"/>
<path d="M66.3708 98.4523C66.2024 98.5799 66.0762 100.11 66.0762 101.853V104.956H68.0122C69.1485 104.956 69.8219 104.786 69.6535 104.531C69.5273 104.276 68.8539 104.106 68.1384 104.106C67.1283 104.106 66.9179 103.936 66.9179 103.043C66.9179 102.193 67.1283 101.98 67.928 101.98C68.5172 101.98 69.1064 101.768 69.2327 101.555C69.401 101.3 68.9381 101.13 68.2226 101.13C67.1283 101.13 66.9179 100.96 66.9179 100.068C66.9179 99.175 67.1283 99.0049 68.1805 99.0049C68.896 99.0049 69.4431 98.7924 69.4431 98.5799C69.4431 98.1123 66.7916 97.9848 66.3708 98.4523Z" fill="black"/>
<path d="M71.4211 98.4523C70.9582 98.9199 71.0844 104.956 71.5474 104.956C71.7999 104.956 71.9683 103.893 71.9683 102.618C71.9683 101.343 72.0945 100.28 72.305 100.28C72.4733 100.28 73.1888 101.3 73.8622 102.49C75.7982 105.806 76.1769 105.636 76.1769 101.513C76.1769 97.6872 75.4615 97.2197 75.251 100.918L75.1248 103.043L73.7359 100.578C72.4312 98.2398 72.0104 97.8573 71.4211 98.4523Z" fill="black"/>
<path d="M78.0288 98.75C77.9025 99.0475 77.8604 100.535 77.9446 102.023L78.0709 104.743L79.8806 104.871C80.9328 104.956 81.6482 104.828 81.6482 104.573C81.6482 104.318 80.9749 104.106 80.1752 104.106C78.8705 104.106 78.7022 103.978 78.7022 103.043C78.7022 102.193 78.9126 101.98 79.7123 101.98C81.1853 101.98 81.4799 101.215 80.091 101.045C79.2493 100.96 78.9126 100.663 78.9126 100.068C78.9126 99.4301 79.2493 99.1751 80.3015 99.09C81.059 99.005 81.5641 98.75 81.4378 98.5375C81.059 97.9424 78.2813 98.0699 78.0288 98.75Z" fill="black"/>
<path d="M83.2054 98.8774C83.1213 99.3025 83.0371 100.748 83.0792 102.065C83.1213 104.701 83.8788 105.636 84.0893 103.341C84.2576 101.513 85.3098 101.555 86.1094 103.468C86.4461 104.276 86.9091 104.956 87.1195 104.956C87.6666 104.956 87.6666 104.701 86.9091 103.298C86.404 102.32 86.404 101.853 86.8249 100.705C87.2879 99.515 87.2458 99.3025 86.5303 98.7499C85.3519 97.8998 83.4159 97.9848 83.2054 98.8774ZM85.8569 99.6425C86.4882 100.408 86.0673 101.13 84.9731 101.13C84.3839 101.13 84.1734 100.833 84.1734 100.068C84.1734 98.8774 85.0573 98.6649 85.8569 99.6425Z" fill="black"/>
<path d="M89.4343 99.2175C87.2879 101.343 88.6767 104.956 91.6228 104.956C93.2221 104.956 93.9376 104.106 93.7692 102.533C93.685 101.598 93.3904 101.3 92.5066 101.215C91.1598 101.045 90.9073 101.768 92.1278 102.108C93.3063 102.405 92.8012 104.106 91.5807 104.106C90.3181 104.106 89.771 103.638 89.4343 102.278C89.2239 101.513 89.3501 100.748 89.8552 100.025C90.4865 99.0474 90.739 98.9199 92.2962 99.175C93.9376 99.43 94.0217 99.3875 93.2642 98.7924C92.0437 97.8573 90.5706 98.0273 89.4343 99.2175Z" fill="black"/>
<path d="M95.0318 98.4098C94.9055 98.5374 95.2422 99.5575 95.7893 100.705C96.3364 101.895 96.7994 103.298 96.7994 103.893C96.7994 104.488 97.0098 104.956 97.2203 104.956C97.4728 104.956 97.6411 104.318 97.6411 103.553C97.6411 102.831 98.0199 101.343 98.4829 100.323C99.4509 98.1973 99.4509 98.1548 98.9037 98.1548C98.6933 98.1548 98.1883 98.8774 97.8095 99.7275L97.1361 101.343L96.3364 99.7275C95.4947 98.0698 95.4105 97.9848 95.0318 98.4098Z" fill="black"/>
<path d="M125.629 99.2175C123.482 101.343 124.871 104.956 127.859 104.956C129.417 104.956 130.258 103.766 129.88 102.15C129.669 101.428 129.332 101.13 128.575 101.13C127.986 101.13 127.523 101.3 127.523 101.555C127.523 101.768 127.817 101.98 128.154 101.98C128.533 101.98 128.785 102.363 128.785 103.043C128.785 103.893 128.575 104.106 127.775 104.106C126.428 104.106 125.418 103.043 125.418 101.598C125.418 99.9401 126.765 98.8349 128.364 99.1324C129.669 99.43 130.132 98.8774 128.954 98.4098C127.691 97.8998 126.639 98.1548 125.629 99.2175Z" fill="black"/>
<path d="M131.731 101.555V104.956H133.415C134.341 104.956 135.098 104.743 135.098 104.531C135.098 104.276 134.551 104.106 133.836 104.106C132.784 104.106 132.573 103.936 132.573 103.043C132.573 102.193 132.784 101.98 133.625 101.98C134.215 101.98 134.678 101.768 134.678 101.555C134.678 101.3 134.215 101.13 133.625 101.13C132.784 101.13 132.573 100.918 132.573 100.068C132.573 99.175 132.784 99.0049 133.836 99.0049C134.551 99.0049 135.098 98.7924 135.098 98.5799C135.098 98.3248 134.341 98.1548 133.415 98.1548H131.731V101.555Z" fill="black"/>
<path d="M135.94 98.5798C135.94 98.7923 136.319 99.0049 136.782 99.0049C137.497 99.0049 137.581 99.3449 137.708 101.768C137.792 103.298 138.044 104.531 138.255 104.531C138.676 104.531 138.76 104.191 138.844 100.918C138.886 99.3024 139.012 99.0049 139.728 99.0049C140.191 99.0049 140.57 98.7923 140.57 98.5798C140.57 98.3248 139.517 98.1547 138.255 98.1547C136.992 98.1547 135.94 98.3248 135.94 98.5798Z" fill="black"/>
<path d="M145.031 99.0474C144.189 99.7275 143.937 100.28 143.937 101.598C143.937 104.148 145.704 105.551 147.893 104.701C149.071 104.233 148.608 103.851 147.135 104.021C145.367 104.233 144.568 103.085 144.947 100.918C145.241 99.3874 146.251 98.7498 147.724 99.2174C148.734 99.5149 148.861 98.7923 147.893 98.4098C146.798 97.9847 146.209 98.1122 145.031 99.0474Z" fill="black"/>
<path d="M149.829 101.513C149.829 103.511 149.997 104.956 150.25 104.956C150.502 104.956 150.67 104.276 150.67 103.468C150.67 102.065 150.755 101.98 152.143 101.98C153.532 101.98 153.616 102.065 153.616 103.468C153.616 104.276 153.827 104.956 154.037 104.956C154.29 104.956 154.458 103.511 154.458 101.513C154.458 99.345 154.29 98.1973 154.037 98.3673C153.827 98.4949 153.616 99.175 153.616 99.8976C153.616 101.045 153.49 101.13 152.143 101.13C150.797 101.13 150.67 101.045 150.67 99.8976C150.67 99.175 150.502 98.4949 150.25 98.3673C149.997 98.1973 149.829 99.345 149.829 101.513Z" fill="black"/>
<path d="M156.857 101.215C156.226 102.916 155.721 104.446 155.721 104.616C155.721 105.296 156.521 104.913 156.773 104.106C156.983 103.468 157.404 103.256 158.457 103.256C159.509 103.256 159.93 103.468 160.14 104.106C160.393 104.871 161.192 105.338 161.192 104.701C161.192 103.766 158.877 98.1548 158.499 98.1548C158.246 98.1548 157.489 99.5575 156.857 101.215ZM159.004 100.918C159.677 102.405 159.677 102.405 158.414 102.405C157.573 102.405 157.362 102.235 157.573 101.725C157.699 101.343 157.825 100.79 157.825 100.45C157.825 99.515 158.499 99.77 159.004 100.918Z" fill="black"/>
<path d="M162.244 98.6649C161.95 99.685 162.244 104.318 162.623 104.318C162.876 104.318 163.086 103.851 163.128 103.298C163.212 102.745 163.339 102.235 163.423 102.15C163.759 101.81 164.98 102.49 164.98 103.001C164.98 103.766 166.116 105.211 166.453 104.871C166.621 104.743 166.411 103.978 166.032 103.256C165.527 102.278 165.443 101.768 165.78 101.428C166.537 100.663 166.327 99.0899 165.443 98.5798C164.307 97.9848 162.455 98.0273 162.244 98.6649ZM164.938 99.3875C165.275 99.6 165.401 100.068 165.275 100.45C164.896 101.385 163.423 101.3 163.17 100.323C162.833 99.0474 163.675 98.5798 164.938 99.3875Z" fill="black"/>
<path d="M169.483 98.4523C168.641 98.6649 167.505 100.663 167.505 101.98C167.505 103.256 169.357 104.956 170.746 104.956C172.513 104.956 173.061 104.403 172.892 102.788C172.808 101.555 172.598 101.343 171.63 101.215C170.956 101.13 170.451 101.258 170.451 101.513C170.451 101.768 170.83 101.98 171.335 101.98C172.682 101.98 172.261 103.851 170.83 104.021C169.483 104.191 168.641 103.213 168.641 101.47C168.641 99.77 169.778 98.8774 171.63 99.175C173.018 99.3875 173.481 98.8774 172.303 98.4098C171.588 98.1123 170.662 98.1548 169.483 98.4523Z" fill="black"/>
<path d="M174.828 98.75C174.702 99.0475 174.66 100.535 174.744 102.023L174.87 104.743L176.68 104.871C177.732 104.956 178.448 104.828 178.448 104.573C178.448 104.318 177.774 104.106 176.975 104.106C175.67 104.106 175.502 103.978 175.502 103.043C175.502 102.193 175.712 101.98 176.512 101.98C177.101 101.98 177.69 101.768 177.816 101.555C177.985 101.3 177.522 101.13 176.806 101.13C175.712 101.13 175.502 100.96 175.502 100.068C175.502 99.1326 175.67 99.005 177.017 99.005C177.901 99.005 178.406 98.835 178.237 98.58C177.858 97.9424 175.081 98.0699 174.828 98.75Z" fill="black"/>
<path d="M180.005 98.4098C179.837 98.5799 179.71 100.11 179.71 101.853V104.956H181.183C184.087 104.956 185.813 101.64 184.045 99.515C183.246 98.5799 180.552 97.8573 180.005 98.4098ZM183.119 99.8976C183.793 100.578 183.961 101.088 183.751 102.108C183.456 103.596 182.867 104.106 181.52 104.106C180.636 104.106 180.552 103.936 180.552 101.555C180.552 99.3025 180.636 99.0049 181.394 99.0049C181.857 99.0049 182.614 99.3875 183.119 99.8976Z" fill="black"/>
<path d="M186.318 98.4522C185.813 98.9198 186.023 102.575 186.57 103.68C187.244 104.998 189.138 105.338 190.274 104.276C190.905 103.723 191.074 102.958 191.074 100.833C191.074 97.262 190.316 97.3895 190.148 101.003L190.021 103.893H188.759C187.496 103.893 187.496 103.851 187.286 101.258C187.075 98.6222 186.823 97.8996 186.318 98.4522Z" fill="black"/>
<path d="M193.052 98.4522C192.589 98.8773 192.715 104.446 193.178 104.743C193.431 104.913 193.599 104.446 193.599 103.723C193.599 102.618 193.767 102.405 194.567 102.405C196.882 102.405 197.765 99.0048 195.619 98.4097C194.356 98.0697 193.388 98.0697 193.052 98.4522ZM195.661 99.5999C196.377 100.45 195.787 101.555 194.609 101.555C193.851 101.555 193.599 101.343 193.599 100.578C193.599 98.9623 194.693 98.4522 195.661 99.5999Z" fill="black"/>
</svg>
