<svg width="11" height="16" viewBox="0 0 11 16" fill="none" xmlns="http://www.w3.org/2000/svg">
<path d="M8.06511 14.978L8.0253 14.4796L8.06511 14.978ZM9.7845 14.4867L9.29646 14.378L9.7845 14.4867ZM7.55957 1.21354L7.27777 0.80052L7.55957 1.21354ZM1 8.00049C1 4.41064 3.91015 1.50049 7.5 1.50049V0.500488C3.35786 0.500488 0 3.85835 0 8.00049H1ZM7.5 14.5005C3.91015 14.5005 1 11.5903 1 8.00049H0C0 12.1426 3.35786 15.5005 7.5 15.5005V14.5005ZM8.0253 14.4796C7.85212 14.4934 7.67694 14.5005 7.5 14.5005V15.5005C7.70354 15.5005 7.90529 15.4924 8.10493 15.4764L8.0253 14.4796ZM8.28648 12.6514C6.32242 11.532 5 9.42011 5 6.99995H4C4 9.79382 5.5279 12.2302 7.79132 13.5202L8.28648 12.6514ZM5 6.99995C5 4.76747 6.12503 2.79762 7.84137 1.62656L7.27777 0.80052C5.30005 2.14991 4 4.42304 4 6.99995H5ZM8.10493 15.4764C8.63294 15.4342 9.08974 15.3992 9.41938 15.3214C9.73473 15.2469 10.1648 15.079 10.2725 14.5954L9.29646 14.378C9.32392 14.2548 9.4407 14.2889 9.18962 14.3481C8.95281 14.404 8.59004 14.4345 8.0253 14.4796L8.10493 15.4764ZM7.79132 13.5202C8.41284 13.8744 8.83632 14.1169 9.10021 14.3128C9.23232 14.4108 9.28689 14.4707 9.30506 14.4971C9.31417 14.5103 9.27842 14.459 9.29646 14.378L10.2725 14.5954C10.3307 14.3343 10.249 14.1045 10.1285 13.9297C10.0171 13.768 9.85849 13.6303 9.69631 13.5099C9.37165 13.2688 8.8822 12.9909 8.28648 12.6514L7.79132 13.5202ZM7.5 1.50049C7.30338 1.50049 7.16491 1.35856 7.12559 1.21528C7.08768 1.07717 7.12982 0.901462 7.27777 0.80052L7.84137 1.62656C8.08338 1.46145 8.15267 1.17921 8.08993 0.950617C8.02577 0.716858 7.81048 0.500488 7.5 0.500488V1.50049Z" fill="#222222"/>
</svg>
