<svg width="31" height="28" viewBox="0 0 31 28" fill="none" xmlns="http://www.w3.org/2000/svg">
<path d="M18.2934 0.461077C17.9021 0.754569 17.6086 2.02637 17.7065 3.1025C17.7065 4.96128 17.8043 4.96128 18.6848 2.80901C19.6631 0.461077 19.4674 -0.712889 18.2934 0.461077Z" fill="black"/>
<path d="M9.87978 2.41695C9.78195 3.59092 10.2711 4.86272 10.7603 5.15621C11.9342 5.84102 11.9342 4.96055 10.7603 2.22129C9.97761 0.362513 9.87978 0.362512 9.87978 2.41695Z" fill="black"/>
<path d="M24.3596 6.62347C23.0878 7.60177 22.5008 8.48225 23.0878 8.58008C23.6748 8.58008 24.9466 7.6996 25.9249 6.62347C28.175 4.07987 27.2945 4.07987 24.3596 6.62347Z" fill="black"/>
<path d="M3.52246 8.09131C4.50076 8.87395 5.87039 9.46094 6.35954 9.46094C6.94652 9.46094 6.45737 8.87395 5.47907 8.09131C4.40293 7.30867 3.13113 6.62385 2.54415 6.62385C2.055 6.62385 2.44632 7.30867 3.52246 8.09131Z" fill="black"/>
<path d="M11.2499 7.79836C8.5106 9.36365 6.94531 11.6137 6.94531 13.9617C6.94531 15.3313 7.33663 14.94 8.31494 12.6899C11.0542 6.42873 19.3698 6.52656 22.109 12.8855C23.1852 15.4291 23.3808 15.527 23.4787 13.766C23.4787 11.2224 18.2936 6.62439 15.3587 6.62439C14.1848 6.62439 12.326 7.21137 11.2499 7.79836Z" fill="black"/>
<path d="M0 14.4504C0 14.9396 0.880475 15.4287 1.85878 15.4287C2.93492 15.4287 4.10888 14.9396 4.40237 14.4504C4.79369 13.8634 3.91322 13.4721 2.54359 13.4721C1.17397 13.4721 0 13.8634 0 14.4504Z" fill="black"/>
<path d="M25.4375 14.4504C25.4375 14.9396 26.5136 15.4287 27.8833 15.4287C29.2529 15.4287 30.329 14.9396 30.329 14.4504C30.329 13.8634 29.2529 13.4721 27.8833 13.4721C26.5136 13.4721 25.4375 13.8634 25.4375 14.4504Z" fill="black"/>
<path d="M6.16432 19.0486C11.4472 19.2442 19.7628 19.2442 24.7521 19.0486C29.7415 18.9507 25.4369 18.7551 15.1647 18.7551C4.99036 18.7551 0.881475 18.9507 6.16432 19.0486Z" fill="black"/>
<path d="M8.12139 22.9617C12.3281 23.1573 18.8827 23.1573 22.796 22.9617C26.7092 22.8638 23.2851 22.6682 15.1652 22.6682C7.14309 22.6682 3.91468 22.8638 8.12139 22.9617Z" fill="black"/>
<path d="M9.58677 27.8533C12.326 28.0489 17.0219 28.0489 19.859 27.8533C22.5982 27.6576 20.3481 27.5598 14.674 27.5598C8.99979 27.5598 6.74969 27.6576 9.58677 27.8533Z" fill="black"/>
</svg>
