<svg width="17" height="27" viewBox="0 0 17 27" fill="none" xmlns="http://www.w3.org/2000/svg">
<path d="M3.89954 0.446308C-0.650862 2.50644 -1.39794 9.02641 2.60913 11.7883C3.28829 12.2411 3.80898 12.2411 3.80898 11.7883C3.80898 11.6752 3.31093 11.0865 2.69968 10.4753C0.662189 8.4378 0.390523 5.76643 1.97524 3.38935C2.79024 2.1895 4.23912 1.21603 5.52953 1.01228C9.9441 0.355753 13.2494 4.27227 11.8231 8.48308C11.5288 9.32072 11.5062 9.61502 11.7326 9.81877C12.1401 10.2263 12.7966 9.27544 13.0909 7.80392C13.7021 4.90615 12.1174 1.84991 9.35549 0.559503C7.88397 -0.142301 5.2805 -0.187578 3.89954 0.446308Z" fill="black"/>
<path d="M5.2805 2.77783C4.46551 3.07213 3.42412 3.97768 2.99398 4.81532C2.45065 5.87934 2.67704 8.39225 3.33357 8.39225C3.44676 8.39225 3.4694 7.69045 3.40148 6.85281C3.31093 5.42657 3.3562 5.2681 3.92217 4.58893C4.80509 3.52491 5.73328 3.11741 6.88786 3.25324C9.24229 3.50227 10.3969 5.58504 9.58188 8.09795C9.31021 8.98086 9.92146 8.68655 10.2837 7.781C11.0081 6.06045 10.1478 3.93241 8.33674 3.00422C7.27272 2.46088 6.36717 2.39297 5.2805 2.77783Z" fill="black"/>
<path d="M5.28036 5.33652L4.71439 5.87985V10.9962C4.71439 13.8034 4.66911 16.0899 4.60119 16.0899C4.53328 16.0899 4.19369 15.773 3.85411 15.3881C3.31078 14.7995 3.03911 14.6637 2.22412 14.6637C1.43176 14.6637 1.13745 14.7995 0.707317 15.275C-0.0397635 16.1579 0.0507917 16.9729 1.22801 19.3273C3.89939 24.6474 5.77841 26.3 9.21951 26.3453C11.6871 26.368 13.7925 25.3719 15.1509 23.4928C16.2149 22.0213 16.5545 20.4819 16.5771 16.8144L16.5998 13.5544L15.9432 13.0111C15.5131 12.6262 15.083 12.4677 14.6755 12.513C14.2227 12.5583 13.8605 12.3998 13.453 11.947C13.0228 11.4943 12.6606 11.3358 12.0494 11.3358C11.4834 11.3358 11.008 11.1773 10.6684 10.8377C10.3514 10.5434 9.83075 10.3397 9.31006 10.3397L8.44979 10.2944L8.33659 7.8947C8.24604 5.81193 8.15548 5.42707 7.77062 5.13276C7.06882 4.58943 5.91424 4.67999 5.28036 5.33652ZM7.15938 5.94776C7.36312 6.15151 7.43104 7.4872 7.43104 10.5887C7.43104 14.3241 7.47632 14.9806 7.77062 15.1165C7.97437 15.1844 8.17812 15.207 8.2234 15.1391C8.26868 15.0938 8.40451 14.2336 8.49507 13.2601C8.65354 11.7886 8.74409 11.449 9.08367 11.3811C9.92131 11.2226 10.1477 11.7433 10.1477 13.8713C10.1477 15.5013 10.2156 15.9088 10.5099 16.022C11.0533 16.2258 11.2796 15.6824 11.2796 14.143C11.2796 12.5809 11.6871 11.947 12.3663 12.3998C12.6606 12.5809 12.7738 13.1016 12.8644 14.8675C12.9775 16.9276 13.0228 17.1087 13.4303 17.1087C13.8378 17.1087 13.8831 16.9276 13.951 15.524C14.0189 13.7355 14.3812 13.1922 15.1962 13.6223C15.6263 13.8713 15.6263 14.0525 15.5357 17.3124C15.3999 21.1837 15.1735 21.9987 13.8152 23.4023C12.4342 24.8285 11.4381 25.2587 9.35534 25.2587C7.79326 25.2587 7.4084 25.1681 6.48021 24.6474C5.03133 23.7871 4.12578 22.6552 2.63162 19.7574C1.31856 17.2672 1.09218 16.4069 1.59023 15.9088C2.11092 15.3881 2.65425 15.6598 3.87675 17.0408C5.82369 19.1915 5.84633 19.1235 5.84633 12.0376C5.84633 6.21943 5.91424 5.6761 6.63868 5.6761C6.77452 5.6761 7.0009 5.78929 7.15938 5.94776Z" fill="black"/>
</svg>
