<svg width="14" height="28" viewBox="0 0 14 28" fill="none" xmlns="http://www.w3.org/2000/svg">
<path d="M4.51811 0.138287C4.29996 0.208658 3.98329 0.349403 3.8144 0.447924C3.42032 0.673113 2.83623 1.29942 2.63215 1.70054C2.27326 2.39722 2.28029 2.18611 2.28029 10.3985V18.076L1.59065 18.7727C0.992491 19.3709 0.858784 19.5538 0.577297 20.1309C0.133956 21.0387 -0.0067879 21.665 0.000249276 22.6291C0.00728645 23.8043 0.288773 24.6769 0.971379 25.6762C1.90732 27.0555 3.42735 27.8999 5.13739 27.9914C9.21191 28.2166 12.076 23.9662 10.3308 20.2787C10.0071 19.589 9.46525 18.8642 8.97264 18.4631L8.57856 18.1394L8.54338 10.2507C8.50819 2.67167 8.50115 2.34796 8.37449 2.04536C7.70595 0.483109 6.03111 -0.347277 4.51811 0.138287ZM6.09444 1.24312C6.5026 1.37683 6.9389 1.75684 7.19224 2.17203L7.38224 2.50278L7.40336 10.6096L7.41743 18.7094L7.86781 19.0331C9.64118 20.2998 10.2323 22.5446 9.28228 24.4658C8.53634 25.9929 7.10779 26.8795 5.41184 26.8866C3.27253 26.8866 1.47806 25.3314 1.14731 23.178C0.89397 21.4891 1.62584 19.955 3.22327 18.8431L3.40624 18.7164L3.41328 10.7152C3.41328 3.24872 3.42032 2.69278 3.53995 2.41129C3.76514 1.84832 4.20848 1.41905 4.77849 1.21498C5.09516 1.10238 5.72851 1.11646 6.09444 1.24312Z" fill="black"/>
<path d="M4.60162 7.26714C4.60162 7.3164 4.60162 10.089 4.60162 13.4247V19.4907L4.08086 19.7511C2.98307 20.2859 2.27231 21.3978 2.27935 22.5941C2.28639 23.7834 2.98307 24.8812 4.0879 25.423C4.55236 25.6482 4.59458 25.6553 5.41089 25.6553C6.21313 25.6553 6.27646 25.6412 6.72684 25.4301C8.35947 24.656 9.01392 22.7278 8.19057 21.1093C7.9302 20.6096 7.325 20.0255 6.7761 19.7652L6.29054 19.5329V13.3543V7.18269H5.44608C4.81977 7.18269 4.60162 7.2038 4.60162 7.26714Z" fill="black"/>
<path d="M9.74023 4.85988V5.42285H11.5418H13.3433L13.5473 5.21877C13.6599 5.10618 13.7514 4.94432 13.7514 4.85988C13.7514 4.77543 13.6599 4.61358 13.5473 4.50098L13.3433 4.2969H11.5418H9.74023V4.85988Z" fill="black"/>
<path d="M9.74023 7.74562V8.30859H10.9717C12.1892 8.30859 12.2103 8.30859 12.3792 8.13266C12.6255 7.8934 12.6184 7.52747 12.3721 7.33043C12.1962 7.19672 12.0907 7.18265 10.9647 7.18265H9.74023V7.74562Z" fill="black"/>
<path d="M9.74023 10.6304V11.1934H11.4573C12.4073 11.1934 13.2588 11.1652 13.3573 11.123C13.7585 10.9752 13.8499 10.5178 13.5403 10.2082C13.4066 10.0744 13.301 10.0674 11.5699 10.0674H9.74023V10.6304Z" fill="black"/>
<path d="M9.93728 12.9322C9.74023 12.9603 9.74023 12.9674 9.74023 13.4811V14.0018L10.7817 14.023C11.3517 14.037 11.9218 14.03 12.0414 14.0089C12.3721 13.9596 12.5551 13.7696 12.5551 13.5022C12.5481 13.1926 12.4073 13.0237 12.0836 12.9463C11.8232 12.89 10.3102 12.8759 9.93728 12.9322Z" fill="black"/>
<path d="M9.74023 16.3306V16.8936H11.5558C13.2729 16.8865 13.3714 16.8795 13.5403 16.7458C13.7655 16.5558 13.7725 16.1758 13.5544 15.9576C13.3996 15.8098 13.3503 15.8028 11.5699 15.7817L9.74023 15.7606V16.3306Z" fill="black"/>
</svg>
