<svg width="54" height="83" viewBox="0 0 54 83" fill="none" xmlns="http://www.w3.org/2000/svg">
<path d="M-2.3906 1.86717C-5.9766 3.74451 -8.4375 7.22109 -9.2812 11.6015C-9.7031 13.6875 -9.9844 27.5937 -9.9844 43.725C-9.9844 75.7094 -9.9844 75.5703 -14.9766 78.8383C-20.5312 82.4539 -28.2656 81.2023 -31.9219 76.057C-33.5391 73.832 -33.5391 73.6234 -33.8906 43.3078C-34.1719 19.7367 -34.4531 12.7141 -35.0859 12.4359C-35.7891 12.2273 -36 18.4156 -36 41.9867C-36 69.4516 -35.8594 71.9547 -34.6641 74.5273C-32.1328 79.8812 -27.9844 82.5234 -21.9375 82.5234C-15.8906 82.5234 -11.7422 79.8812 -9.2109 74.5273C-8.0156 71.9547 -7.875 69.4516 -7.875 41.6391C-7.875 8.40309 -7.9453 8.75079 -3.4453 4.85701C2.5312 -0.288298 11.9531 1.9367 15.0469 9.30699C15.8203 11.0453 16.0312 17.9984 16.0312 41.6391C16.0312 75.3617 16.0312 75.0836 21.1641 79.5336C25.6641 83.4273 33.75 83.6359 38.3906 79.9508C43.6641 75.7094 43.8047 75.2226 44.0156 55.893C44.2266 39.5531 44.2969 38.7187 45.6328 38.7187C46.3359 38.7187 47.9531 37.8148 49.2188 36.7023C51.3984 34.825 51.5391 34.3383 51.75 29.2625C51.9609 25.5078 52.3828 23.5609 53.0156 23.2133C54.4922 22.3789 53.5078 21.3359 51.1875 21.3359C49.1484 21.3359 49.1484 21.2664 48.9375 17.025C48.7969 13.4094 48.5156 12.6445 47.3906 12.4359C45.5625 12.0883 44.8594 13.4789 44.8594 17.6508C44.8594 21.1969 44.7891 21.3359 42.8906 21.3359C41.2031 21.3359 40.9922 21.0578 40.9219 19.0414C40.7812 12.5055 40.7109 12.2969 38.9531 12.2969C36.9141 12.2969 36.4219 13.4094 36.4219 17.9289C36.4219 21.2664 36.3516 21.3359 34.3125 21.3359C32.1328 21.3359 31.4297 22.4484 33.2578 23.1437C34.0312 23.4914 34.3125 24.8125 34.3125 28.7758C34.3125 33.782 34.3828 34.0601 36.7031 36.3547C38.0391 37.6758 39.7266 38.7187 40.5703 38.7187C42.0469 38.7187 42.0469 38.9273 42.0469 55.5453C42.0469 72.1633 42.0469 72.3719 40.2891 75.2922C38.3203 78.6297 33.8906 81.1328 30.0234 81.1328C26.7188 81.0633 22.1484 78.9078 20.3906 76.4742C17.7188 72.7891 17.4375 69.243 17.4375 39.2055C17.4375 8.33359 17.4375 8.26409 13.9922 4.3703C10.5469 0.546082 2.6016 -0.705487 -2.3906 1.86717ZM39.0234 19.389C38.8828 20.6406 38.7422 19.8062 38.7422 17.5117C38.7422 15.2172 38.8828 14.1742 39.0234 15.2172C39.1641 16.2601 39.1641 18.1375 39.0234 19.389ZM47.4609 19.389C47.3203 20.6406 47.1797 19.8062 47.1797 17.5117C47.1797 15.2172 47.3203 14.1742 47.4609 15.2172C47.6016 16.2601 47.6016 18.1375 47.4609 19.389ZM50.4844 27.1765C50.4844 33.9211 48.0234 37.3281 43.1016 37.3281C38.1797 37.3281 35.7188 33.9211 35.7188 27.1765V23.4219H43.1016H50.4844V27.1765Z" fill="white"/>
</svg>
