<svg width="37" height="75" viewBox="0 0 37 75" fill="none" xmlns="http://www.w3.org/2000/svg">
<path d="M6.48828 18.75C3.08985 29.1211 0.453128 37.793 0.628909 38.0859C0.80469 38.4375 3.5 38.6719 6.54688 38.6719C11.5859 38.6719 12.1133 38.7891 11.8203 39.668C10.0625 45.1758 2.67969 72.832 2.67969 73.7695C2.67969 74.4727 3.03125 75 3.44141 75C4.26172 75 33.9102 31.4062 34.2031 29.7656C34.4375 28.6523 34.3789 28.5938 28.0508 28.4766C26.0586 28.4766 24.3008 28.2422 24.125 28.0664C23.9492 27.8906 26.6445 21.7383 30.2188 14.4141C33.793 7.08984 36.5469 0.820312 36.3711 0.527344C36.1367 0.234375 30.8047 0 24.3594 0H12.6992L6.48828 18.75ZM33.1484 2.8125C33.1484 3.10547 30.2773 9.19922 26.7031 16.3477C23.1875 23.4961 20.2578 29.6484 20.2578 29.9414C20.2578 30.2344 22.6602 30.4688 25.5313 30.4688C28.4609 30.4688 30.8047 30.7031 30.8047 30.9375C30.8047 31.2305 28.6367 34.5703 26.0586 38.4375C23.4219 42.2461 18.1484 50.0977 14.2813 55.7812C10.4727 61.5234 7.19141 66.2109 7.07422 66.2109C6.83985 66.2109 6.83985 66.1523 11.2344 50.4492C12.9922 44.1797 14.3984 38.4375 14.3984 37.6758C14.3984 36.3867 14.2813 36.3281 8.77344 36.3281C4.4961 36.3281 3.20703 36.1523 3.38281 35.5664C3.5586 35.2148 6.13672 27.5391 9.06641 18.5742L14.5156 2.34375H23.832C28.9297 2.34375 33.1484 2.57812 33.1484 2.8125Z" fill="white"/>
</svg>
