<svg width="24" height="24" viewBox="0 0 24 24" fill="none" xmlns="http://www.w3.org/2000/svg">
<path d="M10.9376 2.89721C11.0038 4.55177 11.1362 4.98195 11.6325 5.08122C12.1289 5.1805 12.1951 4.91577 12.1951 3.02958C12.1951 1.04411 12.1289 0.845562 11.5333 0.845562C10.9045 0.845562 10.8384 1.01102 10.9376 2.89721Z" fill="black"/>
<path d="M6.04011 3.33046C5.77538 3.95919 6.93357 5.94466 7.66158 6.07702C8.42267 6.24248 8.38958 5.44829 7.52921 4.02537C6.76812 2.73482 6.33793 2.53627 6.04011 3.33046Z" fill="black"/>
<path d="M16.1003 3.29568C15.4716 3.89132 14.6774 5.77752 14.9421 6.04225C15.3392 6.43934 16.1996 5.77752 16.729 4.65242C17.3578 3.29568 16.9607 2.40222 16.1003 3.29568Z" fill="black"/>
<path d="M18.8802 7.33188C17.9867 7.86134 17.5896 8.32462 17.722 8.62244C17.9536 9.28426 18.2183 9.25117 19.6082 8.42389C20.7333 7.76207 21.1304 7.03406 20.5347 6.67006C20.3693 6.57079 19.6413 6.86861 18.8802 7.33188Z" fill="black"/>
<path d="M2.26801 7.26758C2.26801 7.86322 4.5182 9.21996 5.11384 8.98832C5.87494 8.6905 5.6433 8.16104 4.5182 7.46613C3.22765 6.70503 2.26801 6.60576 2.26801 7.26758Z" fill="black"/>
<path d="M9.6561 7.96606C8.13391 8.76024 7.57136 9.38897 6.97572 10.9443C5.88371 13.8232 7.17426 16.8014 10.0863 18.0919C12.1048 18.9854 13.9248 18.6876 15.7118 17.1654C19.6827 13.7901 17.4656 7.4366 12.3365 7.4366C11.4099 7.4366 10.2186 7.66824 9.6561 7.96606ZM14.9838 9.85225C16.4398 11.1759 16.8369 13.2937 15.9434 15.0145C15.1492 16.5697 12.7998 17.5625 11.1783 17.0661C6.3139 15.6101 7.14117 8.76024 12.171 8.76024C13.5608 8.76024 13.991 8.9257 14.9838 9.85225Z" fill="black"/>
<path d="M0.0178968 12.3287C0.084079 12.792 0.514263 12.9575 1.871 13.0237C3.59174 13.1229 4.78302 12.6597 4.38592 12.064C4.28665 11.8986 3.26083 11.7662 2.06955 11.7662C0.183352 11.7662 -0.0813765 11.8324 0.0178968 12.3287Z" fill="black"/>
<path d="M18.8798 12.3292C18.9791 12.8255 19.3431 12.9248 20.9646 12.9248C22.5861 12.9248 22.9501 12.8255 23.0493 12.3292C23.1486 11.8328 22.8839 11.7666 20.9646 11.7666C19.0453 11.7666 18.7806 11.8328 18.8798 12.3292Z" fill="black"/>
<path d="M3.52547 16.1337C2.79746 16.5638 2.26801 17.1264 2.26801 17.4573C2.26801 18.2846 2.89674 18.2184 4.35275 17.1926C5.37857 16.4977 5.54403 16.266 5.21311 15.8689C5.01457 15.6042 4.81602 15.4056 4.78293 15.4056C4.78293 15.4056 4.18729 15.7366 3.52547 16.1337Z" fill="black"/>
<path d="M17.8202 15.872C17.5224 16.2691 17.6878 16.5008 18.7798 17.1957C20.3682 18.2215 20.7984 18.2546 20.7984 17.4604C20.7984 17.0964 20.2689 16.567 19.5078 16.1368C18.4158 15.508 18.1842 15.4749 17.8202 15.872Z" fill="black"/>
<path d="M6.60294 19.5765C5.77566 20.9663 5.70948 21.6943 6.40439 21.6943C6.96694 21.6943 8.2244 19.8412 8.2244 18.9478C8.2244 17.9881 7.33094 18.319 6.60294 19.5765Z" fill="black"/>
<path d="M14.8426 18.7161C14.8426 19.4772 16.1993 21.6943 16.6626 21.6943C17.3575 21.6943 17.2913 20.8009 16.4641 19.5103C15.8022 18.4514 14.8426 17.9881 14.8426 18.7161Z" fill="black"/>
<path d="M11.0036 19.8086C10.9044 20.0733 10.8713 21.0991 10.9374 22.0588C11.0036 23.3824 11.1691 23.8457 11.5331 23.8457C12.1949 23.8457 12.2611 19.6762 11.6324 19.4777C11.4007 19.3784 11.136 19.5439 11.0036 19.8086Z" fill="black"/>
</svg>
