<svg width="31" height="26" viewBox="0 0 31 26" fill="none" xmlns="http://www.w3.org/2000/svg">
<path d="M12.4512 1.4649C12.4512 2.52687 12.5977 2.92969 13.0005 2.92969C13.4033 2.92969 13.5498 2.52687 13.5498 1.4649C13.5498 0.402927 13.4033 0.000109911 13.0005 0.000109911C12.5977 0.000109911 12.4512 0.402927 12.4512 1.4649Z" fill="black"/>
<path d="M21.4222 0.512939C20.8362 0.769278 19.994 1.35519 19.6278 1.79463C19.225 2.19745 18.5292 2.56364 18.0531 2.56364C17.0278 2.56364 15.7461 3.14956 15.7461 3.62562C15.7461 3.80871 16.625 3.91857 17.6869 3.88195C19.3348 3.84533 19.6644 3.69886 20.2503 2.81998C22.0081 0.000264168 26.6954 0.915757 27.3179 4.24815C27.4644 5.0904 27.8306 5.6397 28.5264 5.96928C29.6616 6.51857 29.9545 7.72702 29.1123 8.56928C28.6362 9.00871 27.794 9.15519 25.4137 9.15519C22.9236 9.15519 22.3376 9.26505 22.3376 9.70449C22.3376 10.4735 27.794 10.4735 29.2588 9.70449C31.0898 8.789 31.3095 6.73829 29.7348 5.41998C29.1489 4.94393 28.3799 3.91857 27.9771 3.11294C26.6954 0.4397 23.9855 -0.622272 21.4222 0.512939Z" fill="black"/>
<path d="M6.22656 1.86777C6.22656 2.41707 7.43501 4.39453 7.76459 4.39453C8.35051 4.39453 8.35051 3.73538 7.69135 2.63678C6.99558 1.46495 6.22656 1.09876 6.22656 1.86777Z" fill="black"/>
<path d="M9.66681 5.45592C6.77385 6.77423 4.75977 9.96014 4.75977 13.1461C4.75977 15.1968 6.29779 18.0897 8.05554 19.3714C14.5372 24.0587 23.2161 17.9066 20.726 10.363C19.2246 5.85873 13.9513 3.51507 9.66681 5.45592ZM15.8555 6.37141C17.3569 6.99394 19.1879 9.08127 19.7739 10.8024C21.4584 15.8925 16.4781 21.1658 11.3147 19.7742C7.06681 18.6024 4.79639 14.2446 6.44427 10.3263C7.14005 8.64183 8.64146 7.03056 10.0696 6.37141C11.4978 5.74887 14.3541 5.71225 15.8555 6.37141Z" fill="black"/>
<path d="M1.46484 6.51817C1.46484 7.03085 3.95498 8.2393 4.28456 7.90972C4.68738 7.54353 3.03949 6.22522 2.16062 6.22522C1.79442 6.22522 1.46484 6.37169 1.46484 6.51817Z" fill="black"/>
<path d="M0 12.9995C0 13.4023 0.402817 13.5488 1.46479 13.5488C2.52676 13.5488 2.92958 13.4023 2.92958 12.9995C2.92958 12.5967 2.52676 12.4502 1.46479 12.4502C0.402817 12.4502 0 12.5967 0 12.9995Z" fill="black"/>
<path d="M23.1796 12.8902C23.2528 13.1465 23.8754 13.3662 24.5345 13.3662C25.1937 13.3662 25.8162 13.1465 25.9261 12.8902C25.9993 12.5972 25.5965 12.4507 24.5345 12.4507C23.4725 12.4507 23.0697 12.5972 23.1796 12.8902Z" fill="black"/>
<path d="M2.59989 18.3464C1.79425 18.8224 1.5013 19.2253 1.72101 19.445C2.16045 19.8844 4.39425 18.7126 4.39425 18.0168C4.39425 17.3943 4.02806 17.4675 2.59989 18.3464Z" fill="black"/>
<path d="M21.6055 18.0168C21.6055 18.7126 23.8393 19.8844 24.2787 19.445C24.4984 19.2253 24.2055 18.8224 23.3998 18.3464C21.9717 17.4675 21.6055 17.3943 21.6055 18.0168Z" fill="black"/>
<path d="M17.8333 21.4957C17.5037 22.0084 18.7121 24.1689 19.3347 24.1689C20.0304 24.1689 19.8474 23.3633 18.9319 22.1915C18.3826 21.5323 17.9797 21.276 17.8333 21.4957Z" fill="black"/>
<path d="M6.81059 22.5211C6.11481 23.583 6.07819 24.1689 6.70073 24.1689C7.2134 24.1689 8.45847 22.1549 8.1289 21.8253C7.7627 21.4225 7.3965 21.6056 6.81059 22.5211Z" fill="black"/>
<path d="M12.4512 24.5352C12.4512 25.5972 12.5977 26 13.0005 26C13.4033 26 13.5498 25.5972 13.5498 24.5352C13.5498 23.4732 13.4033 23.0704 13.0005 23.0704C12.5977 23.0704 12.4512 23.4732 12.4512 24.5352Z" fill="black"/>
</svg>
