<svg width="231" height="227" viewBox="0 0 231 227" fill="none" xmlns="http://www.w3.org/2000/svg">
<path d="M31.1443 0.568661C31.1443 1.00795 31.2641 1.12775 31.3839 0.808271C31.5037 0.528727 31.4638 0.169313 31.344 0.0495079C31.2242 -0.110232 31.1044 0.129378 31.1443 0.568661Z" fill="black"/>
<path d="M10.7776 0.969052C10.7776 1.40834 10.8974 1.52814 11.0172 1.20866C11.137 0.929117 11.0971 0.569703 10.9773 0.449899C10.8575 0.290159 10.7377 0.529768 10.7776 0.969052Z" fill="black"/>
<path d="M74.7134 1.12824C74.7134 1.68733 74.7932 1.88701 74.9131 1.60746C74.9929 1.36785 74.9929 0.888633 74.9131 0.609089C74.7932 0.36948 74.7134 0.569154 74.7134 1.12824Z" fill="black"/>
<path d="M93.4827 1.12824C93.4827 1.68733 93.5625 1.88701 93.6823 1.60746C93.7622 1.36785 93.7622 0.888633 93.6823 0.609089C93.5625 0.36948 93.4827 0.569154 93.4827 1.12824Z" fill="black"/>
<path d="M54.7458 1.52766C54.7458 2.08675 54.8257 2.28642 54.9455 2.00688C55.0254 1.76727 55.0254 1.28805 54.9455 1.0085C54.8257 0.768894 54.7458 0.968568 54.7458 1.52766Z" fill="black"/>
<path d="M31.2243 4.92214C31.2243 5.80071 31.3041 6.12019 31.384 5.60103C31.4639 5.12181 31.4639 4.40299 31.384 4.00364C31.2642 3.64422 31.1843 4.04357 31.2243 4.92214Z" fill="black"/>
<path d="M74.7533 5.32106C74.7533 6.19963 74.8332 6.51911 74.913 5.99996C74.9929 5.52074 74.9929 4.80191 74.913 4.40256C74.7932 4.04315 74.7134 4.4425 74.7533 5.32106Z" fill="black"/>
<path d="M93.5226 5.32106C93.5226 6.19963 93.6025 6.51911 93.6823 5.99996C93.7622 5.52074 93.7622 4.80191 93.6823 4.40256C93.5625 4.04315 93.4827 4.4425 93.5226 5.32106Z" fill="black"/>
<path d="M10.8573 5.72146C10.8573 6.60002 10.9372 6.9195 11.0171 6.40035C11.0969 5.92113 11.0969 5.2023 11.0171 4.80295C10.8972 4.44354 10.8174 4.84289 10.8573 5.72146Z" fill="black"/>
<path d="M54.7858 5.72146C54.7858 6.60002 54.8656 6.9195 54.9455 6.40035C55.0254 5.92113 55.0254 5.2023 54.9455 4.80295C54.8257 4.44354 54.7458 4.84289 54.7858 5.72146Z" fill="black"/>
<path d="M31.2243 9.71364C31.2243 10.5922 31.3041 10.9117 31.384 10.3925C31.4639 9.91332 31.4639 9.19449 31.384 8.79514C31.2642 8.43573 31.1843 8.83508 31.2243 9.71364Z" fill="black"/>
<path d="M74.7134 10.3142C74.7134 11.073 74.7932 11.3924 74.9131 10.9931C74.9929 10.6337 74.9929 9.99471 74.9131 9.59536C74.7932 9.23595 74.7134 9.55543 74.7134 10.3142Z" fill="black"/>
<path d="M93.5226 10.513C93.5226 11.3915 93.6025 11.711 93.6823 11.1919C93.7622 10.7126 93.7622 9.99381 93.6823 9.59446C93.5625 9.23504 93.4827 9.63439 93.5226 10.513Z" fill="black"/>
<path d="M10.8573 10.9119C10.8573 11.7905 10.9372 12.1099 11.0171 11.5908C11.0969 11.1116 11.0969 10.3927 11.0171 9.99338C10.8972 9.63397 10.8174 10.0333 10.8573 10.9119Z" fill="black"/>
<path d="M54.7458 10.7131C54.7458 11.4719 54.8257 11.7914 54.9455 11.392C55.0254 11.0326 55.0254 10.3936 54.9455 9.99429C54.8257 9.63487 54.7458 9.95435 54.7458 10.7131Z" fill="black"/>
<path d="M31.1843 14.7058C31.1843 15.4646 31.2642 15.784 31.384 15.3847C31.4639 15.0253 31.4639 14.3863 31.384 13.987C31.2642 13.6275 31.1843 13.947 31.1843 14.7058Z" fill="black"/>
<path d="M74.7533 15.305C74.7533 16.1835 74.8332 16.503 74.913 15.9838C74.9929 15.5046 74.9929 14.7858 74.913 14.3864C74.7932 14.027 74.7134 14.4264 74.7533 15.305Z" fill="black"/>
<path d="M54.7858 15.7044C54.7858 16.5829 54.8656 16.9024 54.9455 16.3833C55.0254 15.904 55.0254 15.1852 54.9455 14.7859C54.8257 14.4264 54.7458 14.8258 54.7858 15.7044Z" fill="black"/>
<path d="M93.5226 15.7044C93.5226 16.5829 93.6025 16.9024 93.6823 16.3833C93.7622 15.904 93.7622 15.1852 93.6823 14.7859C93.5625 14.4264 93.4827 14.8258 93.5226 15.7044Z" fill="black"/>
<path d="M10.8174 16.3039C10.8174 17.0627 10.8973 17.3822 11.0171 16.9828C11.0969 16.6234 11.0969 15.9845 11.0171 15.5851C10.8973 15.2257 10.8174 15.5452 10.8174 16.3039Z" fill="black"/>
<path d="M31.1843 19.4983C31.1843 20.257 31.2642 20.5765 31.384 20.1772C31.4639 19.8178 31.4639 19.1788 31.384 18.7794C31.2642 18.42 31.1843 18.7395 31.1843 19.4983Z" fill="black"/>
<path d="M74.7533 20.0974C74.7533 20.976 74.8332 21.2955 74.913 20.7763C74.9929 20.2971 74.9929 19.5783 74.913 19.1789C74.7932 18.8195 74.7134 19.2189 74.7533 20.0974Z" fill="black"/>
<path d="M54.7858 20.4968C54.7858 21.3754 54.8656 21.6949 54.9455 21.1757C55.0254 20.6965 55.0254 19.9777 54.9455 19.5783C54.8257 19.2189 54.7458 19.6183 54.7858 20.4968Z" fill="black"/>
<path d="M93.5227 20.6958C93.5227 21.6942 93.6026 22.0935 93.6824 21.5744C93.7623 21.0951 93.7623 20.2965 93.6824 19.7773C93.6026 19.2981 93.5227 19.6974 93.5227 20.6958Z" fill="black"/>
<path d="M10.8573 21.6946C10.8573 22.5732 10.9372 22.8926 11.0171 22.3735C11.0969 21.8943 11.0969 21.1754 11.0171 20.7761C10.8972 20.4167 10.8174 20.816 10.8573 21.6946Z" fill="black"/>
<path d="M31.2243 24.4895C31.2243 25.3681 31.3041 25.6876 31.384 25.1684C31.4639 24.6892 31.4639 23.9704 31.384 23.571C31.2642 23.2116 31.1843 23.611 31.2243 24.4895Z" fill="black"/>
<path d="M74.7134 25.0896C74.7134 25.8483 74.7932 26.1678 74.9131 25.7685C74.9929 25.4091 74.9929 24.7701 74.9131 24.3708C74.7932 24.0113 74.7134 24.3308 74.7134 25.0896Z" fill="black"/>
<path d="M54.7858 25.6883C54.7858 26.5668 54.8656 26.8863 54.9455 26.3671C55.0254 25.8879 55.0254 25.1691 54.9455 24.7697C54.8257 24.4103 54.7458 24.8097 54.7858 25.6883Z" fill="black"/>
<path d="M93.5226 25.6883C93.5226 26.5668 93.6025 26.8863 93.6823 26.3671C93.7622 25.8879 93.7622 25.1691 93.6823 24.7697C93.5625 24.4103 93.4827 24.8097 93.5226 25.6883Z" fill="black"/>
<path d="M10.8573 26.8865C10.8573 27.7651 10.9372 28.0845 11.0171 27.5654C11.0969 27.0862 11.0969 26.3673 11.0171 25.968C10.8972 25.6086 10.8174 26.0079 10.8573 26.8865Z" fill="black"/>
<path d="M31.1444 28.3641C31.1045 28.7635 30.6652 29.083 30.0263 29.2028C29.3873 29.2827 29.7866 29.4025 30.9448 29.4424C35.3376 29.5622 39.7704 31.7187 41.9668 34.8735C42.9252 36.2313 43.9236 37.03 45.8005 37.9086C53.6278 41.6625 53.1086 52.2852 45.0018 55.0806C43.8437 55.4799 43.2048 55.7994 43.6041 55.8394C44.8421 55.8394 47.2382 54.6413 48.596 53.3235C50.7525 51.2468 51.631 49.2102 51.631 46.255C51.631 41.9819 49.6742 39.1865 45.4012 37.3096C44.1233 36.7505 43.085 36.1115 43.085 35.9518C43.085 35.7521 42.3661 34.7537 41.4876 33.7554C39.6506 31.6787 35.9766 29.6421 33.3009 29.2427C32.1827 29.083 31.5038 28.7635 31.384 28.3242C31.2243 27.7651 31.1844 27.7651 31.1444 28.3641Z" fill="black"/>
<path d="M74.7533 30.0803C74.7533 30.9589 74.8332 31.2784 74.913 30.7592C74.9929 30.28 74.9929 29.5612 74.913 29.1618C74.7932 28.8024 74.7134 29.2018 74.7533 30.0803Z" fill="black"/>
<path d="M54.7858 30.4802C54.7858 31.3588 54.8656 31.6783 54.9455 31.1591C55.0254 30.6799 55.0254 29.9611 54.9455 29.5617C54.8257 29.2023 54.7458 29.6017 54.7858 30.4802Z" fill="black"/>
<path d="M25.2341 30.4403C22.5584 31.7182 19.9227 34.354 18.7247 36.9897C18.0059 38.5471 17.5666 39.0663 16.7679 39.1861C15.8094 39.3458 15.8094 39.3458 16.9276 39.3857C18.0059 39.4656 18.2055 39.2659 18.8844 37.5887C20.2822 34.2341 23.6766 31.1592 27.2308 30.041C28.1493 29.7614 28.5487 29.5218 28.1094 29.5218C27.6701 29.4819 26.3922 29.9212 25.2341 30.4403Z" fill="black"/>
<path d="M93.5226 30.8797C93.5226 31.7582 93.6025 32.0777 93.6823 31.5586C93.7622 31.0793 93.7622 30.3605 93.6823 29.9612C93.5625 29.6017 93.4827 30.0011 93.5226 30.8797Z" fill="black"/>
<path d="M10.7776 31.7181C10.7776 32.1574 10.8974 32.2772 11.0172 31.9577C11.137 31.6781 11.0971 31.3187 10.9773 31.1989C10.8575 31.0392 10.7377 31.2788 10.7776 31.7181Z" fill="black"/>
<path d="M151.308 31.3186C138.969 33.5948 130.542 36.7497 122.515 42.101C116.605 46.0545 109.337 52.6837 107.34 56.0382C105.423 59.1532 107.66 63.0269 111.374 63.0269C113.211 63.0269 113.969 62.5077 118.163 58.2746C126.429 49.9681 135.255 44.8165 146.117 42.101C159.934 38.6266 174.231 40.3438 187.25 47.0928C193.08 50.088 196.994 53.0032 202.625 58.5941C207.058 62.9869 207.137 63.0269 209.014 63.0269C210.612 63.0269 211.091 62.8272 212.249 61.6691C213.367 60.5509 213.607 59.9918 213.607 58.674C213.607 57.7554 213.367 56.5175 213.048 55.8785C212.728 55.2795 210.292 52.6837 207.657 50.1678C197.992 40.8231 187.41 35.1922 174.311 32.4367C170.198 31.5582 168.241 31.3984 160.893 31.2786C156.181 31.1987 151.868 31.2387 151.308 31.3186Z" fill="black"/>
<path d="M74.7533 34.8738C74.7533 35.7524 74.8332 36.0718 74.913 35.5527C74.9929 35.0735 74.9929 34.3546 74.913 33.9553C74.7932 33.5959 74.7134 33.9952 74.7533 34.8738Z" fill="black"/>
<path d="M54.7858 35.2727C54.7858 36.1513 54.8656 36.4708 54.9455 35.9516C55.0254 35.4724 55.0254 34.7536 54.9455 34.3542C54.8257 33.9948 54.7458 34.3942 54.7858 35.2727Z" fill="black"/>
<path d="M93.5226 36.0711C93.5226 36.9496 93.6025 37.2691 93.6823 36.75C93.7622 36.2707 93.7622 35.5519 93.6823 35.1526C93.5625 34.7931 93.4827 35.1925 93.5226 36.0711Z" fill="black"/>
<path d="M74.7134 39.8655C74.7134 40.6242 74.7932 40.9437 74.9131 40.5444C74.9929 40.1849 74.9929 39.546 74.9131 39.1466C74.7932 38.7872 74.7134 39.1067 74.7134 39.8655Z" fill="black"/>
<path d="M54.7858 40.4641C54.7858 41.3427 54.8656 41.6622 54.9455 41.143C55.0254 40.6638 55.0254 39.945 54.9455 39.5456C54.8257 39.1862 54.7458 39.5856 54.7858 40.4641Z" fill="black"/>
<path d="M12.934 40.3845C12.0954 40.8637 10.8174 42.0218 10.1785 42.9803C9.22005 44.3381 8.98044 45.1368 8.90057 47.1335L8.78076 49.6494L9.10024 47.1735C9.49959 43.9387 10.9372 41.8222 13.6528 40.4644C14.771 39.9053 15.41 39.466 15.0905 39.466C14.8109 39.466 13.8126 39.8654 12.934 40.3845Z" fill="black"/>
<path d="M93.5226 40.8631C93.5226 41.7416 93.6025 42.0611 93.6823 41.542C93.7622 41.0627 93.7622 40.3439 93.6823 39.9446C93.5625 39.5851 93.4827 39.9845 93.5226 40.8631Z" fill="black"/>
<path d="M74.7533 44.8567C74.7533 45.7353 74.8332 46.0548 74.913 45.5356C74.9929 45.0564 74.9929 44.3376 74.913 43.9382C74.7932 43.5788 74.7134 43.9781 74.7533 44.8567Z" fill="black"/>
<path d="M54.7858 45.2566C54.7858 46.1352 54.8656 46.4547 54.9455 45.9355C55.0254 45.4563 55.0254 44.7375 54.9455 44.3381C54.8257 43.9787 54.7458 44.378 54.7858 45.2566Z" fill="black"/>
<path d="M93.5226 46.055C93.5226 46.9335 93.6025 47.253 93.6823 46.7338C93.7622 46.2546 93.7622 45.5358 93.6823 45.1364C93.5625 44.777 93.4827 45.1764 93.5226 46.055Z" fill="black"/>
<path d="M74.7533 49.6492C74.7533 50.5278 74.8332 50.8472 74.913 50.3281C74.9929 49.8489 74.9929 49.13 74.913 48.7307C74.7932 48.3713 74.7134 48.7706 74.7533 49.6492Z" fill="black"/>
<path d="M54.7858 50.0481C54.7858 50.9267 54.8656 51.2462 54.9455 50.727C55.0254 50.2478 55.0254 49.529 54.9455 49.1296C54.8257 48.7702 54.7458 49.1695 54.7858 50.0481Z" fill="black"/>
<path d="M9.14038 50.0884C9.14038 50.2881 9.65953 51.3264 10.2985 52.3247C11.0972 53.5627 12.0556 54.4413 13.3735 55.0802C15.3303 56.0387 15.4102 56.0387 29.1078 56.0786H42.8854L29.1078 55.8789C17.5666 55.6793 15.0907 55.5195 13.9326 55.0004C12.3751 54.2416 10.7378 52.6442 9.81927 50.8471C9.45986 50.1682 9.18032 49.8488 9.14038 50.0884Z" fill="black"/>
<path d="M93.5226 51.2473C93.5226 52.1259 93.6025 52.4454 93.6823 51.9262C93.7622 51.447 93.7622 50.7282 93.6823 50.3288C93.5625 49.9694 93.4827 50.3688 93.5226 51.2473Z" fill="black"/>
<path d="M156.42 50.7275C148.074 51.3266 140.007 54.122 133.058 58.7544C129.145 61.3502 123.873 66.1823 122.515 68.4187C120.559 71.5735 122.755 75.8066 126.349 75.8066C127.907 75.8066 128.825 75.2076 132.539 71.6534C136.573 67.7797 139.847 65.4635 144.28 63.4268C152.427 59.5931 161.851 58.9941 171.196 61.6697C178.105 63.6664 182.458 66.2622 188.408 72.0128C192.042 75.5271 192.162 75.607 194.039 75.607C195.636 75.607 196.195 75.4073 197.194 74.4489C198.552 73.131 199.031 71.6135 198.631 69.7365C198.272 68.1391 192.322 62.109 188.368 59.3135C178.824 52.5645 168.56 49.809 156.42 50.7275Z" fill="black"/>
<path d="M74.7134 54.6409C74.7134 55.3996 74.7932 55.7191 74.9131 55.3197C74.9929 54.9603 74.9929 54.3214 74.9131 53.922C74.7932 53.5626 74.7134 53.8821 74.7134 54.6409Z" fill="black"/>
<path d="M54.7858 55.2395C54.7858 56.1181 54.8656 56.4376 54.9455 55.9184C55.0254 55.4392 55.0254 54.7204 54.9455 54.321C54.8257 53.9616 54.7458 54.361 54.7858 55.2395Z" fill="black"/>
<path d="M93.5226 56.0388C93.5226 56.9174 93.6025 57.2369 93.6823 56.7177C93.7622 56.2385 93.7622 55.5197 93.6823 55.1203C93.5625 54.7609 93.4827 55.1603 93.5226 56.0388Z" fill="black"/>
<path d="M10.7776 58.4754C10.7776 58.9147 10.8974 59.0345 11.0172 58.715C11.137 58.4355 11.0971 58.0761 10.9773 57.9562C10.8575 57.7965 10.7377 58.0361 10.7776 58.4754Z" fill="black"/>
<path d="M74.7533 59.6331C74.7533 60.5116 74.8332 60.8311 74.913 60.312C74.9929 59.8328 74.9929 59.1139 74.913 58.7146C74.7932 58.3552 74.7134 58.7545 74.7533 59.6331Z" fill="black"/>
<path d="M54.7858 60.032C54.7858 60.9106 54.8656 61.23 54.9455 60.7109C55.0254 60.2317 55.0254 59.5128 54.9455 59.1135C54.8257 58.7541 54.7458 59.1534 54.7858 60.032Z" fill="black"/>
<path d="M93.5226 61.2298C93.5226 62.1083 93.6025 62.4278 93.6823 61.9086C93.7622 61.4294 93.7622 60.7106 93.6823 60.3113C93.5625 59.9518 93.4827 60.3512 93.5226 61.2298Z" fill="black"/>
<path d="M10.8573 62.8279C10.8573 63.7065 10.9372 64.0259 11.0171 63.5068C11.0969 63.0276 11.0969 62.3087 11.0171 61.9094C10.8972 61.55 10.8174 61.9493 10.8573 62.8279Z" fill="black"/>
<path d="M74.5535 63.7457C74.3937 64.3048 73.9944 64.6243 73.4353 64.6243C70.6798 64.6243 67.4451 68.458 67.4451 71.6928C67.4451 73.37 69.4418 77.2437 72.1973 80.8778C73.5551 82.7148 74.7532 84.1924 74.873 84.1924C75.3122 84.1924 80.0645 77.3236 81.0629 75.207C82.3008 72.6512 82.5005 70.9739 81.7817 69.1369C80.983 66.9804 78.1077 64.6243 76.2307 64.6243C75.7515 64.6243 75.2723 64.2649 75.0726 63.7457L74.7532 62.8671L74.5535 63.7457ZM76.7898 69.4564C78.6268 70.8941 77.908 74.2087 75.6317 74.7677C74.4736 75.0473 72.4769 74.1687 72.0775 73.2103C71.5983 71.8924 71.8778 70.5746 72.8363 69.6161C74.0343 68.4181 75.3921 68.3382 76.7898 69.4564Z" fill="black"/>
<path d="M54.7858 64.824C54.7858 65.7026 54.8656 66.022 54.9455 65.5029C55.0254 65.0237 55.0254 64.3048 54.9455 63.9055C54.8257 63.5461 54.7458 63.9454 54.7858 64.824Z" fill="black"/>
<path d="M93.5226 66.4221C93.5226 67.3007 93.6025 67.6202 93.6823 67.101C93.7622 66.6218 93.7622 65.903 93.6823 65.5036C93.5625 65.1442 93.4827 65.5436 93.5226 66.4221Z" fill="black"/>
<path d="M10.8174 67.82C10.8174 68.5788 10.8973 68.8983 11.0171 68.4989C11.0969 68.1395 11.0969 67.5006 11.0171 67.1012C10.8973 66.7418 10.8174 67.0613 10.8174 67.82Z" fill="black"/>
<path d="M54.7858 70.0159C54.7858 70.8945 54.8656 71.2139 54.9455 70.6948C55.0254 70.2156 55.0254 69.4967 54.9455 69.0974C54.8257 68.738 54.7458 69.1373 54.7858 70.0159Z" fill="black"/>
<path d="M93.5226 71.614C93.5226 72.4926 93.6025 72.8121 93.6823 72.2929C93.7622 71.8137 93.7622 71.0949 93.6823 70.6955C93.5625 70.3361 93.4827 70.7355 93.5226 71.614Z" fill="black"/>
<path d="M152.906 71.0142C148.353 72.2123 143.881 74.6483 140.406 77.8431C136.932 81.0379 136.173 82.5954 136.892 84.9915C137.531 87.108 138.569 87.9067 141.085 88.1064L143.202 88.2661L146.117 85.6304C152.307 79.9197 159.615 78.2425 166.883 80.7983C169.439 81.6769 171.196 82.8749 174.191 85.6703C176.747 88.0664 176.987 88.1862 178.864 88.1862C180.461 88.1862 181.1 87.9866 182.098 87.0681C183.736 85.6304 184.135 83.6337 183.216 81.7567C182.857 80.998 181.26 79.161 179.702 77.7233C176.388 74.5684 170.956 71.6931 166.683 70.8146C162.73 69.9759 156.58 70.0957 152.906 71.0142Z" fill="black"/>
<path d="M10.8573 72.8118C10.8573 73.6904 10.9372 74.0098 11.0171 73.4907C11.0969 73.0115 11.0969 72.2926 11.0171 71.8933C10.8972 71.5339 10.8174 71.9332 10.8573 72.8118Z" fill="black"/>
<path d="M54.7858 74.8079C54.7858 75.6864 54.8656 76.0059 54.9455 75.4868C55.0254 75.0076 55.0254 74.2887 54.9455 73.8894C54.8257 73.53 54.7458 73.9293 54.7858 74.8079Z" fill="black"/>
<path d="M93.5226 76.406C93.5226 77.2846 93.6025 77.6041 93.6823 77.0849C93.7622 76.6057 93.7622 75.8869 93.6823 75.4875C93.5625 75.1281 93.4827 75.5275 93.5226 76.406Z" fill="black"/>
<path d="M10.8174 77.8039C10.8174 78.5627 10.8973 78.8822 11.0171 78.4828C11.0969 78.1234 11.0969 77.4845 11.0171 77.0851C10.8973 76.7257 10.8174 77.0452 10.8174 77.8039Z" fill="black"/>
<path d="M54.7458 79.7995C54.7458 80.5583 54.8257 80.8778 54.9455 80.4784C55.0254 80.119 55.0254 79.4801 54.9455 79.0807C54.8257 78.7213 54.7458 79.0408 54.7458 79.7995Z" fill="black"/>
<path d="M93.5226 81.5965C93.5226 82.475 93.6025 82.7945 93.6823 82.2753C93.7622 81.7961 93.7622 81.0773 93.6823 80.678C93.5625 80.3185 93.4827 80.7179 93.5226 81.5965Z" fill="black"/>
<path d="M10.8573 82.7947C10.8573 83.6733 10.9372 83.9927 11.0171 83.4736C11.0969 82.9944 11.0969 82.2755 11.0171 81.8762C10.8972 81.5168 10.8174 81.9161 10.8573 82.7947Z" fill="black"/>
<path d="M24.3154 82.4759C24.3154 82.6755 26.392 83.9535 28.9079 85.3911C31.4238 86.8288 33.5005 88.1067 33.5005 88.2265C33.5005 88.3862 31.4638 90.343 28.9479 92.6193C26.432 94.8956 24.3554 96.8924 24.3554 97.0521C24.3154 97.2518 30.0661 97.3716 37.0946 97.3716H49.8738L49.7939 89.8638L49.6741 82.396L37.0147 82.2762C30.0261 82.2363 24.3154 82.3161 24.3154 82.4759ZM48.0368 82.995C47.7971 83.2346 45.2014 84.832 42.2861 86.5492L36.9349 89.6641L32.1027 86.8288C24.1158 82.1564 23.5567 82.6356 36.855 82.6356C44.802 82.5957 48.3163 82.7155 48.0368 82.995ZM49.4744 89.744C49.4744 95.5346 49.3945 96.5329 48.8355 96.7326C48.476 96.8524 42.965 96.9722 36.5754 96.9722H24.9145L28.3089 93.7774C30.1859 92.0203 32.3024 90.1034 32.9813 89.5443L34.2592 88.506L35.5771 89.3047L36.8949 90.1034L42.8852 86.5892C46.1998 84.6324 48.9952 83.035 49.1949 83.035C49.3546 82.995 49.4744 86.0301 49.4744 89.744Z" fill="black"/>
<path d="M41.887 90.5822C43.085 91.7004 45.1616 93.5374 46.4795 94.6556C48.2366 96.0933 47.9571 95.7738 45.4811 93.4176C43.6042 91.6205 41.5675 89.7835 40.8886 89.3443C40.2496 88.905 40.6889 89.4641 41.887 90.5822Z" fill="black"/>
<path d="M54.7858 84.7918C54.7858 85.6703 54.8656 85.9898 54.9455 85.4707C55.0254 84.9914 55.0254 84.2726 54.9455 83.8733C54.8257 83.5139 54.7458 83.9132 54.7858 84.7918Z" fill="black"/>
<path d="M93.5226 86.7888C93.5226 87.6674 93.6025 87.9869 93.6823 87.4677C93.7622 86.9885 93.7622 86.2697 93.6823 85.8703C93.5625 85.5109 93.4827 85.9103 93.5226 86.7888Z" fill="black"/>
<path d="M10.8174 87.7864C10.8174 88.5451 10.8973 88.8646 11.0171 88.4653C11.0969 88.1058 11.0969 87.4669 11.0171 87.0675C10.8973 86.7081 10.8174 87.0276 10.8174 87.7864Z" fill="black"/>
<path d="M54.7858 89.5838C54.7858 90.4623 54.8656 90.7818 54.9455 90.2627C55.0254 89.7834 55.0254 89.0646 54.9455 88.6653C54.8257 88.3058 54.7458 88.7052 54.7858 89.5838Z" fill="black"/>
<path d="M156.3 90.5428C154.423 91.3815 152.347 93.3383 151.468 95.0555C149.791 98.2902 150.55 103.242 153.145 105.918C155.062 107.875 156.66 108.633 159.495 108.873C163.648 109.192 167.562 106.836 169.119 103.122C169.958 101.086 169.838 97.1321 168.84 95.0954C166.683 90.6227 160.813 88.4662 156.3 90.5428Z" fill="black"/>
<path d="M93.5226 91.5803C93.5226 92.4589 93.6025 92.7784 93.6823 92.2592C93.7622 91.78 93.7622 91.0612 93.6823 90.6618C93.5625 90.3024 93.4827 90.7018 93.5226 91.5803Z" fill="black"/>
<path d="M10.8573 92.7786C10.8573 93.6572 10.9372 93.9766 11.0171 93.4575C11.0969 92.9783 11.0969 92.2594 11.0171 91.8601C10.8972 91.5007 10.8174 91.9 10.8573 92.7786Z" fill="black"/>
<path d="M54.7858 94.3767C54.7858 95.2553 54.8656 95.5748 54.9455 95.0556C55.0254 94.5764 55.0254 93.8576 54.9455 93.4582C54.8257 93.0988 54.7458 93.4982 54.7858 94.3767Z" fill="black"/>
<path d="M93.5226 96.7727C93.5226 97.6513 93.6025 97.9708 93.6823 97.4516C93.7622 96.9724 93.7622 96.2536 93.6823 95.8542C93.5625 95.4948 93.4827 95.8942 93.5226 96.7727Z" fill="black"/>
<path d="M10.8174 97.7702C10.8174 98.529 10.8973 98.8485 11.0171 98.4491C11.0969 98.0897 11.0969 97.4508 11.0171 97.0514C10.8973 96.692 10.8174 97.0115 10.8174 97.7702Z" fill="black"/>
<path d="M54.7858 99.5676C54.7858 100.446 54.8656 100.766 54.9455 100.247C55.0254 99.7673 55.0254 99.0485 54.9455 98.6491C54.8257 98.2897 54.7458 98.6891 54.7858 99.5676Z" fill="black"/>
<path d="M93.5226 101.963C93.5226 102.842 93.6025 103.161 93.6823 102.642C93.7622 102.163 93.7622 101.444 93.6823 101.045C93.5625 100.685 93.4827 101.085 93.5226 101.963Z" fill="black"/>
<path d="M10.8174 102.963C10.8174 103.721 10.8973 104.041 11.0171 103.642C11.0969 103.282 11.0969 102.643 11.0171 102.244C10.8973 101.884 10.8174 102.204 10.8174 102.963Z" fill="black"/>
<path d="M54.7858 104.36C54.7858 105.239 54.8656 105.558 54.9455 105.039C55.0254 104.56 55.0254 103.841 54.9455 103.442C54.8257 103.082 54.7458 103.482 54.7858 104.36Z" fill="black"/>
<path d="M93.5226 106.757C93.5226 107.635 93.6025 107.955 93.6823 107.436C93.7622 106.956 93.7622 106.237 93.6823 105.838C93.5625 105.479 93.4827 105.878 93.5226 106.757Z" fill="black"/>
<path d="M10.8573 107.954C10.8573 108.832 10.9372 109.152 11.0171 108.633C11.0969 108.154 11.0969 107.435 11.0171 107.035C10.8972 106.676 10.8174 107.075 10.8573 107.954Z" fill="black"/>
<path d="M54.7858 109.153C54.7858 110.031 54.8656 110.351 54.9455 109.832C55.0254 109.352 55.0254 108.633 54.9455 108.234C54.8257 107.875 54.7458 108.274 54.7858 109.153Z" fill="black"/>
<path d="M93.5226 111.947C93.5226 112.826 93.6025 113.145 93.6823 112.626C93.7622 112.147 93.7622 111.428 93.6823 111.029C93.5625 110.669 93.4827 111.068 93.5226 111.947Z" fill="black"/>
<path d="M2.7507 111.588C2.07181 112.387 2.07181 114.344 2.7507 115.142C3.11011 115.542 3.82894 115.741 4.90718 115.701C6.34484 115.622 6.94386 115.861 9.45976 117.738C11.9357 119.615 12.3351 120.094 12.3351 121.133C12.2951 122.171 11.8559 122.65 9.22015 124.607C6.78412 126.404 6.02536 126.763 5.42634 126.484C3.90881 125.645 1.59259 127.602 2.15168 129.279C3.11011 132.314 7.14354 131.795 7.14354 128.64C7.14354 128.001 7.94224 127.123 10.1387 125.485C12.6146 123.609 13.2935 123.289 14.2519 123.529C15.0506 123.688 15.6896 123.529 16.4484 122.93C18.5649 121.252 17.1672 118.217 14.4916 118.657C13.2935 118.856 12.7344 118.617 10.1387 116.66C7.70263 114.863 7.14354 114.264 7.14354 113.345C7.14354 112.746 6.82406 111.988 6.42471 111.628C5.50621 110.789 3.42959 110.75 2.7507 111.588Z" fill="black"/>
<path d="M10.7776 112.387C10.7776 112.826 10.8974 112.946 11.0172 112.627C11.137 112.347 11.0971 111.988 10.9773 111.868C10.8575 111.708 10.7377 111.948 10.7776 112.387Z" fill="black"/>
<path d="M54.7858 114.343C54.7858 115.222 54.8656 115.541 54.9455 115.022C55.0254 114.543 55.0254 113.824 54.9455 113.425C54.8257 113.065 54.7458 113.464 54.7858 114.343Z" fill="black"/>
<path d="M114.249 113.425C113.969 113.705 113.77 114.463 113.77 115.182C113.77 115.861 115.287 132.274 117.164 151.643C119.041 171.011 120.559 187.025 120.559 187.225C120.559 187.504 111.893 187.624 95.759 187.624C79.0662 187.624 70.7199 187.744 70.2007 188.063C69.7614 188.263 69.2423 188.902 69.0426 189.381C68.763 190.18 68.3238 190.38 66.367 190.579C61.415 191.178 56.9423 192.975 54.5862 195.332C53.8673 196.09 52.3498 197.169 51.1917 197.808C48.6359 199.165 45.8804 201.881 44.6024 204.237C43.8437 205.675 43.4843 205.994 42.5658 205.994C41.5674 205.994 41.4875 205.874 41.7271 205.076C42.2063 203.558 45.8804 196.41 47.5576 193.734C48.9953 191.458 49.2349 191.258 49.9537 191.658C50.4329 191.897 51.7108 192.017 52.869 191.937C60.0972 191.338 69.8413 181.155 69.8413 174.286C69.8413 172.808 69.6416 172.369 68.5634 171.451C67.4452 170.532 67.0059 170.372 65.3686 170.532C58.4199 171.211 48.2764 181.594 48.2764 188.024C48.2764 189.022 48.4362 190.06 48.6359 190.38C48.8755 190.739 48.4761 191.658 47.4777 193.175C46.1599 195.132 42.7255 201.721 41.168 205.196L40.7288 206.194L40.6888 205.196C40.6489 204.197 40.6489 204.197 40.2895 205.076C40.0898 205.595 39.6505 205.994 39.2911 205.994C38.7719 205.994 38.6921 204.956 38.6921 198.486V190.939L40.2495 189.301C42.8054 186.626 44.283 180.995 44.283 173.847C44.283 161.986 39.8502 154.119 35.4973 158.272C32.9814 160.668 31.5038 166.499 31.5038 174.046C31.5038 182.952 33.8999 189.741 37.3343 190.579L38.2927 190.819V198.407V205.994H36.9349C35.7369 205.994 35.5372 205.835 35.3775 204.876L35.2177 203.798L35.1379 204.876C35.058 206.673 33.86 206.234 32.5022 203.958C30.9846 201.442 28.2291 198.766 25.6733 197.488C24.5951 196.929 23.1973 195.931 22.5184 195.212C19.8827 192.416 14.6513 190.699 8.54123 190.659C5.26657 190.619 4.22826 190.779 2.6708 191.498C-1.72204 193.495 -0.603864 196.929 5.34644 199.645C8.66103 201.162 12.0555 201.721 16.4084 201.522C21.3204 201.322 22.5584 200.643 24.1957 197.288C24.3155 197.009 26.9911 198.566 28.6285 199.884C30.1859 201.162 33.1012 204.956 33.1012 205.675C33.1012 205.874 30.5853 205.994 27.5502 205.994H21.9594L21.6399 207.911C21.4801 208.949 21.3204 212.024 21.3603 214.78C21.4003 219.213 21.5201 220.171 22.5584 223.246L23.7564 226.76L14.3717 226.88C9.18019 226.92 56.9024 227 120.359 227C183.855 227 233.455 226.88 230.579 226.76C227.704 226.641 225.627 226.401 225.907 226.241C226.146 226.042 226.386 225.123 226.386 224.125C226.386 223.166 226.546 222.368 226.785 222.368C227.025 222.368 227.544 222.008 227.983 221.569C228.742 220.81 228.782 220.251 228.782 207.472C228.782 200.204 228.622 194.014 228.463 193.774C228.303 193.535 227.784 193.135 227.305 192.896C226.825 192.616 226.346 191.937 226.266 191.338L226.107 190.22L226.027 191.298L225.987 192.416H199.27H172.514L172.354 190.899L172.194 189.421L172.154 190.899L172.075 192.416H161.093C155.062 192.416 150.11 192.297 150.11 192.097C150.07 191.937 149.951 191.059 149.751 190.18L149.432 188.543L159.855 188.303C168.321 188.143 170.437 188.223 171.156 188.663C171.955 189.142 172.035 189.142 171.835 188.623C171.635 188.103 174.71 188.024 198.072 187.944C212.648 187.864 220.795 187.784 216.203 187.744L207.816 187.624L211.331 151.164C213.886 124.527 214.725 114.503 214.446 113.825C213.926 112.786 212.01 112.587 211.211 113.585C210.891 113.944 208.895 127.961 205.979 150.405C203.384 170.332 201.267 186.865 201.227 187.105C201.227 187.504 197.713 187.624 184.974 187.624H168.72L170.517 186.466C171.516 185.867 172.714 184.829 173.193 184.23C174.151 183.032 175.269 179.717 175.269 178.12C175.269 177.561 175.709 176.722 176.268 176.203C177.426 175.125 177.506 174.046 176.627 171.61C176.268 170.652 175.868 168.575 175.669 167.058C175.389 164.382 175.389 164.342 175.309 166.339C175.309 167.457 175.629 169.534 176.068 170.931C177.027 174.046 177.066 174.965 176.188 175.724C174.591 177.121 172.674 177.76 170.198 177.72C167.562 177.68 158.896 175.764 158.896 175.165C158.896 175.005 159.136 174.845 159.415 174.845C159.655 174.805 160.454 174.565 161.093 174.246L162.291 173.687L161.093 173.887C160.374 174.006 161.412 173.288 163.808 172.01C165.925 170.852 167.682 169.773 167.682 169.574C167.682 169.414 167.003 169.693 166.164 170.213C165.326 170.732 163.489 171.73 162.091 172.449C160.653 173.128 159.216 174.086 158.856 174.526C158.257 175.324 158.177 175.324 156.859 174.645C156.101 174.246 155.462 173.887 155.382 173.847C155.342 173.807 155.502 173.248 155.781 172.649C156.101 171.93 157.139 171.131 158.936 170.253L161.572 168.895L163.049 165.221C163.848 163.224 164.447 161.507 164.367 161.427C164.287 161.347 163.529 162.944 162.73 165.021L161.212 168.775L153.745 172.369L146.317 176.003L145.238 174.725C144.599 174.046 144.12 173.367 144.12 173.248C144.12 173.128 146.916 170.732 150.31 167.896C156.181 163.024 156.46 162.745 156.26 161.547C156.141 160.628 156.181 160.508 156.42 161.028C156.66 161.627 156.939 161.107 157.578 158.831C158.057 157.194 158.537 155.157 158.696 154.279C159.096 151.962 161.013 148.009 162.331 146.891C163.289 146.052 163.808 145.892 165.565 146.012C167.522 146.132 167.762 146.252 169.838 148.488C172.714 151.603 173.952 154.918 174.83 161.667C175.07 163.464 175.19 163.823 175.229 162.785C175.269 160.788 174.311 155.916 173.273 153.16C172.234 150.445 169.958 147.45 167.602 145.732C166.643 145.054 165.445 143.856 164.926 143.057L163.968 141.659L165.965 139.583C168.84 136.667 169.439 135.27 169.479 131.835C169.479 129.559 169.319 128.76 168.64 127.882C167.123 125.845 165.845 125.166 163.089 125.006C160.853 124.847 160.493 124.727 160.493 124.088C160.493 122.251 156.22 122.131 153.625 123.848C151.868 125.046 151.748 126.284 153.185 127.602L154.344 128.64L153.585 130.198C153.106 131.116 152.427 131.835 151.868 131.955C150.43 132.314 150.11 132.993 150.789 134.111C151.189 134.79 151.269 134.87 151.109 134.311C150.67 132.913 150.709 132.754 151.508 132.594C152.427 132.394 153.705 131.356 153.705 130.837C153.705 130.637 153.984 130.078 154.304 129.559C154.863 128.72 155.062 128.68 156.74 129.04C157.938 129.319 158.457 129.639 158.337 129.998C158.217 130.278 158.537 130.997 159.056 131.596C159.855 132.514 159.934 132.873 159.615 133.832C159.096 135.27 159.655 135.988 160.773 135.349C161.652 134.91 162.49 135.429 162.49 136.428C162.49 137.506 160.853 139.343 160.094 139.103C159.695 138.983 159.176 139.183 158.856 139.583C158.417 140.182 158.417 140.221 158.896 139.782C159.695 139.063 160.014 139.183 160.174 140.182C160.254 140.741 160.813 141.34 161.532 141.739L162.77 142.338L159.815 144.455C158.177 145.653 156.78 146.491 156.66 146.411C156.22 145.932 155.781 143.696 156.141 143.496C156.34 143.336 156.7 142.897 156.899 142.458C157.299 141.739 157.179 141.699 155.422 141.739C154.383 141.779 153.824 141.859 154.184 141.979C154.583 142.058 155.142 143.097 155.621 144.534L156.38 146.931L155.262 147.809C154.264 148.568 154.184 148.847 154.463 150.085C154.623 150.844 154.982 151.443 155.222 151.363C155.582 151.323 155.621 151.723 155.462 152.801C155.342 153.719 155.462 155.157 155.821 156.355C156.38 158.192 156.38 158.631 155.821 160.828L155.182 163.264L149.392 168.176C145.119 171.73 143.162 173.128 142.123 173.288L140.726 173.527L142.403 173.607C143.681 173.647 144.2 173.847 144.52 174.486C145.119 175.564 144.4 176.363 141.285 178.04C138.969 179.238 138.849 179.278 138.13 178.639C137.691 178.239 137.251 177.601 137.132 177.201C136.972 176.722 136.493 176.442 135.894 176.442C133.777 176.442 135.734 174.446 138.25 174.006L139.927 173.767L138.489 173.687C137.092 173.647 137.052 173.567 135.295 169.893C133.737 166.539 133.338 166.059 131.86 165.301C130.902 164.861 130.143 164.582 130.143 164.662C130.143 164.781 131.221 167.058 132.579 169.693C134.496 173.527 134.935 174.765 134.735 175.684C134.496 176.682 134.576 176.842 135.295 176.842C136.093 176.842 137.211 178.279 136.772 178.759C136.612 178.878 135.694 179.278 134.656 179.597C132.459 180.316 132.26 180.835 132.18 184.909L132.14 187.624H129.744C127.587 187.624 127.348 187.544 127.188 186.706C127.068 186.226 125.431 173.887 123.554 159.27C117.923 115.342 117.723 113.984 117.284 113.465C116.765 112.826 114.888 112.786 114.249 113.425ZM164.886 143.736C164.886 144.095 155.781 150.884 155.302 150.884C155.142 150.884 154.903 150.405 154.783 149.846C154.623 148.927 155.062 148.488 159.056 145.493C163.129 142.418 163.529 142.218 164.207 142.817C164.567 143.137 164.886 143.576 164.886 143.736ZM166.084 145.094C166.524 145.613 166.364 145.693 165.086 145.693C163.808 145.693 163.648 145.613 164.088 145.094C164.367 144.774 164.806 144.495 165.086 144.495C165.366 144.495 165.805 144.774 166.084 145.094ZM159.695 150.205C159.056 151.603 158.337 153.879 158.097 155.277C157.379 159.151 157.099 159.35 156.3 156.675C155.861 155.117 155.741 153.719 155.901 152.601C156.101 151.084 156.42 150.684 158.377 149.287C159.615 148.408 160.653 147.689 160.733 147.689C160.813 147.689 160.334 148.807 159.695 150.205ZM39.9301 158.512C43.2047 161.786 44.8021 172.529 43.2846 180.995C42.6856 184.429 40.6888 188.982 39.5307 189.621C38.8917 189.94 38.732 189.821 38.5323 188.742C38.4125 188.063 38.2927 184.549 38.2528 180.875C38.2129 177.241 38.093 172.728 37.8934 170.852C37.7336 168.975 37.6937 172.649 37.8135 178.998L38.0132 190.579L36.6554 189.781C33.7801 188.103 31.9031 181.794 31.9031 173.847C31.9031 164.422 34.419 157.673 37.8934 157.673C38.5723 157.673 39.4508 158.032 39.9301 158.512ZM68.5234 171.89C69.402 172.768 69.5218 173.168 69.3621 174.965C69.0825 178.359 67.2855 181.394 63.252 185.428C59.0988 189.581 56.1436 191.258 52.6693 191.498C49.1151 191.737 48.9953 191.298 51.5511 188.143C52.7891 186.666 54.5462 184.709 55.4248 183.83C56.3433 182.992 57.0621 182.073 57.0621 181.874C57.0621 181.235 54.067 184.31 51.5511 187.504C50.3131 189.062 49.155 190.26 48.9953 190.18C48.7956 190.06 48.6758 189.102 48.6758 188.063C48.6758 182.712 56.1037 174.046 62.7329 171.65C65.728 170.572 67.2455 170.612 68.5234 171.89ZM155.222 172.928C154.383 174.206 148.633 176.722 148.034 176.123C147.714 175.803 148.553 175.204 151.348 173.887C155.741 171.81 155.981 171.77 155.222 172.928ZM154.863 175.005C154.783 175.085 154.064 175.284 153.305 175.404L151.908 175.684L153.305 174.885C154.064 174.446 154.783 174.286 154.863 174.486C154.903 174.725 154.903 174.965 154.863 175.005ZM157.818 175.404C159.934 176.243 160.214 177.041 158.617 177.68C157.698 178.04 157.219 177.96 155.821 177.201C154.064 176.243 153.625 175.644 154.703 175.644C155.022 175.644 155.302 175.364 155.302 175.005C155.302 174.645 155.422 174.446 155.621 174.526C155.781 174.565 156.74 174.965 157.818 175.404ZM147.515 176.482C147.634 176.642 147.195 177.201 146.516 177.8C145.159 178.918 144.08 179.238 144.879 178.279C145.318 177.76 145.159 177.76 143.841 178.12C143.002 178.319 142.084 178.719 141.804 178.918C141.524 179.158 141.205 179.238 141.085 179.118C140.965 179.038 141.804 178.279 142.962 177.521C144.879 176.243 146.796 175.803 147.515 176.482ZM154.583 176.882C155.781 177.481 156.101 177.8 155.661 178.04C155.342 178.2 151.908 178.998 147.954 179.837C141.045 181.314 140.806 181.354 140.286 180.636C139.528 179.597 139.608 179.278 140.486 179.517C140.885 179.637 141.804 179.398 142.483 179.078C143.162 178.719 143.721 178.599 143.721 178.839C143.721 179.597 145.238 179.238 146.516 178.16C147.595 177.281 150.63 176.203 152.427 176.083C152.706 176.043 153.665 176.402 154.583 176.882ZM161.692 177.041C162.011 177.441 162.331 177.521 162.45 177.281C162.65 177.002 163.529 177.081 165.086 177.521C168.001 178.279 172.354 178.359 173.592 177.68C174.111 177.401 174.63 177.281 174.75 177.361C175.15 177.8 174.031 182.273 173.193 183.471C172.035 185.148 169.119 187.065 166.883 187.624C165.765 187.904 162.091 188.024 157.339 187.944L149.591 187.824L149.072 186.226C148.833 185.348 148.593 184.909 148.553 185.228C148.473 186.187 151.668 204.277 152.507 207.831C152.946 209.628 153.305 211.745 153.305 212.504C153.305 213.742 153.185 213.941 152.067 214.181C151.388 214.341 150.27 214.341 149.551 214.221L148.273 213.981L145.358 203.878C143.801 198.367 141.764 191.538 140.846 188.742C138.609 181.794 138.13 182.313 148.553 180.156C153.026 179.238 157.379 178.359 158.177 178.239C159.176 178.08 159.735 177.76 159.894 177.241C160.214 176.283 161.013 176.203 161.692 177.041ZM138.609 180.356C139.887 181.354 139.967 181.554 139.488 182.233C138.769 183.191 138.769 184.35 139.488 186.067C139.967 187.305 139.807 188.742 138.13 200.523C137.052 207.711 136.093 213.861 135.973 214.181C135.654 215.099 135.215 214.94 133.298 213.262L131.581 211.705L132.14 197.448C132.419 189.621 132.779 182.632 132.898 181.914C133.138 180.875 133.498 180.516 134.935 179.957C137.251 179.078 137.012 179.078 138.609 180.356ZM132.14 189.581C132.14 192.696 135.215 192.416 100.352 192.416H69.0426V191.378C69.0426 190.26 69.6815 188.782 70.4004 188.343C70.64 188.183 84.6172 188.024 101.51 188.024H132.14V189.581ZM141.045 190.619L141.684 192.416H140.686C140.127 192.416 139.727 192.177 139.727 191.857C139.727 191.138 140.207 188.822 140.326 188.822C140.406 188.822 140.726 189.621 141.045 190.619ZM15.0905 191.777C17.8461 192.536 21.2006 194.174 22.159 195.252C22.9178 196.09 22.9178 196.13 22.1191 195.851C20.6415 195.412 17.0074 194.812 15.9691 194.852C15.41 194.852 16.3685 195.132 18.0857 195.451C22.2389 196.21 23.3571 196.769 23.1973 198.007C22.9577 200.284 19.6431 201.402 14.0123 201.082C7.70259 200.763 2.43119 198.606 0.913662 195.771C0.274703 194.573 0.274703 194.413 0.873727 193.455C1.71236 192.217 2.6708 191.698 4.86722 191.218C7.0237 190.739 12.335 191.059 15.0905 191.777ZM68.6432 191.458C68.6432 191.817 68.2439 192.536 67.7647 193.015C66.2472 194.533 65.7679 195.212 66.2472 195.212C66.4868 195.212 66.6465 196.33 66.6465 197.967C66.6465 201.242 66.6864 201.202 62.1339 201.202C58.2202 201.202 56.1037 200.683 54.8258 199.405C52.6693 197.249 53.8673 196.37 60.0572 195.372C62.653 194.972 62.9326 194.892 61.455 194.852C60.4566 194.852 58.5797 195.092 57.2618 195.372C55.9439 195.691 54.8258 195.891 54.7459 195.811C54.4664 195.571 57.3417 193.614 59.2186 192.816C61.1355 191.937 65.5283 190.939 67.565 190.859C68.3238 190.819 68.6432 191.019 68.6432 191.458ZM131.74 196.011V199.205H104.505C79.7451 199.205 77.2292 199.245 76.5504 199.884C75.9114 200.443 75.8315 201.242 75.8315 207.072C75.8315 213.063 75.9114 213.662 76.6302 214.381C77.4289 215.179 77.9481 215.179 100.591 215.179C122.515 215.179 123.873 215.219 125.271 215.938C127.387 217.016 131.98 218.374 133.537 218.374C134.975 218.374 135.534 217.895 135.934 216.258L136.213 215.179H141.445H146.676L145.518 216.377C144.879 217.016 143.681 218.055 142.842 218.614C139.328 221.05 142.084 221.449 149.511 219.532C152.147 218.853 154.543 218.095 154.823 217.895C155.142 217.615 155.262 217.016 155.102 216.297L154.823 215.179H159.735C166.643 215.179 166.484 215.379 166.484 207.152C166.484 198.686 167.083 199.245 158.097 199.125L151.109 199.006L150.67 196.13C150.43 194.533 150.35 193.135 150.43 193.015C150.829 192.616 172.514 192.816 173.313 193.215C174.031 193.614 174.071 194.213 174.071 207.312C174.071 217.456 173.952 221.13 173.592 221.489C173.233 221.848 160.933 221.968 120.718 221.968C73.5952 221.968 68.2439 221.888 67.6848 221.329C67.1257 220.81 67.0459 218.973 67.0459 207.512C67.0459 195.771 67.1257 194.213 67.7247 193.535C68.3238 192.856 69.8812 192.816 100.072 192.816H131.74V196.011ZM142.523 195.451C143.681 199.245 143.681 199.205 141.085 199.205H138.809L139.128 196.33C139.448 192.896 139.488 192.816 140.726 192.816C141.564 192.816 141.804 193.175 142.523 195.451ZM227.504 193.455C228.383 194.054 228.383 194.054 228.383 207.392C228.383 218.973 228.303 220.81 227.744 221.329C227.185 221.888 224.19 221.968 200.708 221.968H174.271V207.392V192.816H200.428C223.471 192.816 226.706 192.896 227.504 193.455ZM53.468 197.967C53.468 199.006 55.5446 200.683 57.5014 201.202C58.4199 201.442 60.816 201.601 62.8926 201.522L66.6465 201.402V211.066C66.6465 220.251 66.6864 220.81 67.4452 221.569C68.2439 222.368 68.763 222.368 120.159 222.368H172.075V223.885C172.075 227 176.667 226.76 120.319 226.681L70.0809 226.561L69.5617 225.562C69.2423 224.963 69.0426 224.804 69.0426 225.163C69.0426 225.522 69.2423 226.002 69.5218 226.281C69.8812 226.641 68.2439 226.76 62.1339 226.76C57.8209 226.76 54.2667 226.681 54.2667 226.561C54.2667 226.481 54.6261 225.482 55.0654 224.404C56.9423 219.652 57.4615 212.144 56.2235 207.472L55.8241 205.994H50.0735C46.8787 205.994 44.283 205.835 44.283 205.675C44.283 205.036 46.5992 201.801 47.917 200.523C49.195 199.325 52.5095 197.209 53.1884 197.209C53.3482 197.209 53.468 197.568 53.468 197.967ZM83.2993 201.601C83.4192 202.041 83.8185 202.4 84.2178 202.4C85.1364 202.4 86.9734 204.237 87.2529 205.475C87.9717 208.31 86.0948 211.266 83.2594 211.785C80.1445 212.384 77.0296 209.309 77.5887 206.194C77.988 204.237 79.7052 202.28 80.9033 202.52C81.662 202.64 81.8218 202.52 81.8218 201.761C81.8218 200.563 83.0198 200.443 83.2993 201.601ZM133.018 213.542C134.097 214.421 135.175 215.179 135.414 215.259C136.213 215.539 135.414 216.777 134.416 216.777C133.058 216.777 129.264 215.738 126.509 214.58C125.151 213.981 123.993 213.622 123.913 213.702C123.594 214.021 130.143 216.417 132.659 216.896C135.454 217.416 135.854 217.975 133.458 217.975C131.661 217.975 126.349 216.178 124.432 214.94C123.274 214.181 123.035 213.861 123.394 213.462C123.674 213.183 124.432 213.023 125.111 213.103C125.79 213.143 127.148 212.943 128.146 212.623C130.742 211.825 130.822 211.825 133.018 213.542ZM46.9985 214.101C46.9187 214.78 46.5992 214.98 45.6807 214.98C44.283 214.98 43.8037 213.742 44.882 212.943C45.8804 212.224 47.1583 212.943 46.9985 214.101ZM54.1868 214.101C53.9871 215.579 51.5112 215.419 51.4712 213.901C51.4712 213.742 51.7508 213.342 52.1102 213.023C52.9488 212.144 54.3466 212.903 54.1868 214.101ZM24.9145 213.981C24.9145 215.139 23.5567 215.579 22.758 214.66C22.0392 213.742 22.6782 212.703 23.8762 212.863C24.6749 212.943 24.9145 213.183 24.9145 213.981ZM32.1028 213.981C32.1028 214.7 31.8632 215.02 31.1843 215.099C30.6652 215.179 30.1859 214.98 30.0661 214.62C29.6668 213.582 30.2259 212.703 31.1843 212.863C31.8632 212.943 32.1028 213.262 32.1028 213.981ZM39.2911 213.981C39.2911 214.7 39.0515 215.02 38.3726 215.099C37.8534 215.179 37.3742 214.98 37.2544 214.62C36.8551 213.582 37.4142 212.703 38.3726 212.863C39.0515 212.943 39.2911 213.262 39.2911 213.981ZM154.503 215.658C154.503 216.098 152.187 217.016 148.313 218.174C146.556 218.694 145.478 219.133 145.917 219.133C146.357 219.173 148.513 218.534 150.709 217.775C152.906 217.056 154.743 216.497 154.823 216.577C155.741 217.495 148.673 219.852 143.761 220.291L141.604 220.491L144.759 217.456L147.874 214.46L149.951 214.66C151.109 214.78 152.307 214.7 152.746 214.46C153.345 214.101 153.625 214.141 154.024 214.66C154.264 215.02 154.503 215.459 154.503 215.658ZM225.987 224.165C225.987 225.522 225.787 226.042 225.228 226.361C224.709 226.601 215.484 226.76 198.032 226.76C172.075 226.76 171.635 226.76 172.075 226.002C172.274 225.562 172.474 224.564 172.474 223.805V222.368H199.23H225.987V224.165Z" fill="black"/>
<path d="M37.574 165.061C37.574 165.7 37.6538 165.94 37.7736 165.541C37.8535 165.181 37.8535 164.622 37.7736 164.343C37.6538 164.103 37.574 164.382 37.574 165.061Z" fill="black"/>
<path d="M61.7744 177.641C60.2569 178.719 59.0588 179.757 59.0588 179.877C59.0588 180.037 59.4582 179.837 59.9773 179.478C60.4566 179.118 61.8143 178.16 62.9725 177.361C64.0906 176.562 65.0491 175.883 65.0491 175.804C65.0491 175.364 64.1705 175.844 61.7744 177.641Z" fill="black"/>
<path d="M163.848 178.559C164.287 178.838 165.246 179.557 166.004 180.236C166.803 180.875 167.322 181.155 167.202 180.835C167.003 180.196 164.128 178.08 163.489 178.08C163.289 178.08 163.449 178.319 163.848 178.559Z" fill="black"/>
<path d="M166.883 178.798C166.883 178.998 167.242 179.278 167.682 179.437C168.081 179.557 168.88 180.196 169.439 180.875C169.998 181.514 170.557 182.033 170.717 182.033C171.156 182.033 168.441 179.278 167.602 178.798C167.123 178.559 166.883 178.559 166.883 178.798Z" fill="black"/>
<path d="M168.081 182.432C168.321 182.871 168.6 183.23 168.72 183.23C168.8 183.23 168.72 182.871 168.48 182.432C168.241 181.992 167.961 181.633 167.841 181.633C167.762 181.633 167.841 181.992 168.081 182.432Z" fill="black"/>
<path d="M10.4582 195.091C10.8176 195.171 11.3767 195.171 11.6562 195.091C11.8958 194.972 11.6163 194.892 10.9374 194.892C10.2984 194.892 10.0588 194.972 10.4582 195.091Z" fill="black"/>
<path d="M80.5837 204.117C78.7467 205.514 78.587 207.631 80.1844 209.228C81.6221 210.666 82.9798 210.706 84.5772 209.348C86.2146 207.99 86.2944 206.034 84.737 204.516L83.6987 203.438L83.3792 204.316C82.9798 205.435 81.8217 205.474 81.8217 204.396C81.8217 203.478 81.5023 203.398 80.5837 204.117Z" fill="black"/>
<path d="M143.641 219.452C143.881 219.532 144.36 219.532 144.639 219.452C144.879 219.333 144.679 219.253 144.12 219.253C143.561 219.253 143.362 219.333 143.641 219.452Z" fill="black"/>
<path d="M93.5226 117.139C93.5226 118.018 93.6025 118.337 93.6823 117.818C93.7622 117.339 93.7622 116.62 93.6823 116.221C93.5625 115.862 93.4827 116.261 93.5226 117.139Z" fill="black"/>
<path d="M54.7458 118.537C54.7458 119.096 54.8257 119.296 54.9455 119.016C55.0254 118.777 55.0254 118.297 54.9455 118.018C54.8257 117.778 54.7458 117.978 54.7458 118.537Z" fill="black"/>
<path d="M93.5226 122.331C93.5226 123.209 93.6025 123.529 93.6823 123.01C93.7622 122.531 93.7622 121.812 93.6823 121.412C93.5625 121.053 93.4827 121.452 93.5226 122.331Z" fill="black"/>
<path d="M40.4491 125.086L39.0913 126.444V131.236C39.0913 135.789 39.1312 136.108 40.0897 137.227C41.128 138.465 43.4841 139.583 43.4841 138.864C43.4841 138.664 43.1247 138.505 42.6455 138.505C42.2062 138.505 41.2877 137.985 40.6488 137.346C39.4907 136.188 39.4907 136.148 39.4907 131.316C39.4907 126.484 39.4907 126.444 40.6488 125.286L41.8069 124.128H50.6724H59.498L60.4565 125.126C62.4532 127.083 62.0139 127.323 56.1036 127.323H50.7523L49.714 128.561C48.7955 129.639 48.6757 130.118 48.6757 133.113C48.6757 134.95 48.8354 136.907 49.075 137.466C49.3945 138.345 49.3546 138.505 48.7156 138.505C48.2763 138.505 47.278 139.583 46.04 141.38L44.0832 144.295L43.8436 142.099L43.604 139.902L43.564 142.578C43.5241 144.095 43.564 145.293 43.6439 145.293C43.7238 145.293 44.8419 143.856 46.0799 142.059C48.2763 138.944 48.3961 138.824 49.5942 139.104C50.313 139.263 52.9887 139.463 55.5844 139.583L60.2967 139.743L61.974 142.298C62.8925 143.736 63.7711 144.894 63.9707 144.894C64.1305 144.894 64.2503 143.736 64.2503 142.298C64.2503 140.182 64.3701 139.703 64.8892 139.703C65.2087 139.703 66.0474 139.183 66.6863 138.544C67.8045 137.426 67.8444 137.227 67.8444 133.593C67.8444 130.078 67.7646 129.679 66.8061 128.561C65.9276 127.522 65.4883 127.323 64.0107 127.323C62.4932 127.323 62.1737 127.163 61.8542 126.364C61.6945 125.845 61.0156 125.046 60.4165 124.567C59.4182 123.769 58.9389 123.729 50.5926 123.729H41.8069L40.4491 125.086ZM55.7442 132.754C56.0237 133.473 55.5045 134.551 54.7857 134.791C54.5461 134.87 54.0669 134.671 53.7075 134.311C53.2283 133.832 53.1883 133.473 53.4679 132.874C53.987 131.955 55.3847 131.875 55.7442 132.754ZM59.7376 132.754C60.0172 133.473 59.498 134.551 58.7792 134.791C58.5396 134.87 58.0604 134.671 57.701 134.311C57.2218 133.832 57.1818 133.473 57.4614 132.874C57.9805 131.955 59.3782 131.875 59.7376 132.754ZM63.7711 133.153C63.9308 134.152 62.9724 135.03 62.0938 134.671C61.4548 134.431 61.2152 132.874 61.7344 132.355C62.2935 131.795 63.6513 132.315 63.7711 133.153Z" fill="black"/>
<path d="M93.5226 127.122C93.5226 128.001 93.6025 128.32 93.6823 127.801C93.7622 127.322 93.7622 126.603 93.6823 126.204C93.5625 125.844 93.4827 126.244 93.5226 127.122Z" fill="black"/>
<path d="M154.903 130.797C155.222 130.917 155.661 131.236 155.821 131.476C156.061 131.756 156.101 131.716 155.981 131.316C155.901 130.997 155.502 130.677 155.062 130.637C154.543 130.558 154.463 130.597 154.903 130.797Z" fill="black"/>
<path d="M93.4827 131.715C93.4827 132.274 93.5625 132.474 93.6823 132.194C93.7622 131.955 93.7622 131.476 93.6823 131.196C93.5625 130.956 93.4827 131.156 93.4827 131.715Z" fill="black"/>
<path d="M154.383 131.995C154.224 132.115 154.104 132.434 154.104 132.674C154.104 132.913 154.303 132.873 154.583 132.594C154.823 132.354 154.942 132.035 154.863 131.915C154.743 131.795 154.503 131.835 154.383 131.995Z" fill="black"/>
<path d="M151.029 136.907C151.029 137.906 151.109 138.305 151.189 137.786C151.269 137.307 151.269 136.508 151.189 135.989C151.109 135.51 151.029 135.909 151.029 136.907Z" fill="black"/>
<path d="M89.1297 136.348C86.7336 137.226 84.058 139.782 82.7401 142.378C80.6236 146.771 81.582 152.521 85.0563 155.995C88.4907 159.47 94.0417 160.508 98.5144 158.511C104.305 155.916 107.1 148.488 104.465 142.777C103.107 139.782 101.709 138.304 98.9137 136.947C96.8371 135.908 96.0384 135.709 93.6423 135.748C92.0849 135.748 90.0482 136.028 89.1297 136.348ZM93.0034 139.343V142.218L91.5258 141.978C89.7287 141.659 89.2495 141.22 89.6089 140.101C89.9284 139.103 92.1248 136.507 92.644 136.507C92.8436 136.507 93.0034 137.785 93.0034 139.343ZM95.9985 137.785C97.2764 139.303 97.9553 140.9 97.516 141.339C97.3563 141.499 96.4378 141.779 95.5193 141.938L93.8021 142.218V139.343C93.8021 136.068 94.2813 135.709 95.9985 137.785ZM89.6089 138.344C89.0498 139.143 88.6105 140.061 88.6105 140.381C88.6105 140.82 88.3709 140.82 87.4125 140.221C86.7735 139.862 86.2144 139.383 86.2144 139.223C86.2144 138.863 89.4492 136.907 90.0881 136.907C90.3677 136.907 90.168 137.506 89.6089 138.344ZM99.7124 138.264L100.99 139.103L99.952 140.022C99.393 140.541 98.8738 140.9 98.8339 140.82C98.754 140.74 98.2748 139.822 97.6758 138.784C96.6374 136.867 96.6374 136.867 97.516 137.106C97.9952 137.266 98.9936 137.785 99.7124 138.264ZM86.7735 140.9L88.0514 141.659L87.6521 144.494L87.2527 147.29H84.9765C83.6985 147.29 82.5804 147.13 82.4606 146.93C81.9414 146.132 84.4573 140.101 85.256 140.101C85.4157 140.101 86.0946 140.461 86.7735 140.9ZM103.227 141.938C103.826 142.937 104.385 144.534 104.505 145.533L104.704 147.29H102.308H99.9121L99.4728 144.574C98.9936 141.898 98.9936 141.898 100.112 141.02C100.711 140.501 101.39 140.101 101.669 140.101C101.949 140.101 102.628 140.94 103.227 141.938ZM91.7255 142.777C92.9634 143.017 93.0034 143.057 93.0034 145.133V147.29H90.5673H88.0914L88.3709 145.053C88.6904 142.338 88.8901 141.978 89.7686 142.298C90.1281 142.458 91.0066 142.657 91.7255 142.777ZM98.3946 142.977C98.5144 143.496 98.6342 144.614 98.7141 145.493L98.7939 147.09H96.3978H94.0017L93.8819 145.053L93.7621 143.057L95.679 142.617C96.7173 142.378 97.7157 142.178 97.8754 142.138C98.0352 142.138 98.2748 142.497 98.3946 142.977ZM87.5722 150.245C87.692 151.443 87.8917 152.641 88.0115 152.96C88.0914 153.24 87.5722 153.879 86.8135 154.358L85.4557 155.237L84.4573 154.079C83.5388 152.96 82.9797 151.643 82.4606 149.167L82.2209 148.088H84.7368H87.2927L87.5722 150.245ZM93.0034 150.045C93.0034 152.202 93.0034 152.202 90.168 152.681C88.7303 152.96 88.7303 152.92 88.4907 151.403C87.9316 148.128 87.9316 148.088 90.6073 148.088H93.0034V150.045ZM98.7939 149.965C98.3946 152.92 98.3946 152.96 96.7173 152.681C93.8021 152.162 93.8021 152.202 93.8021 150.045V148.088H96.4378H99.0335L98.7939 149.965ZM104.584 149.167C104.584 150.405 103.267 153.52 102.308 154.558C101.749 155.197 101.629 155.197 100.351 154.358C99.2731 153.639 99.0335 153.28 99.1533 152.481C99.2731 151.922 99.4728 150.724 99.5926 149.766L99.8722 148.088H102.228C104.545 148.088 104.584 148.128 104.584 149.167ZM93.0034 155.676C93.0034 157.433 92.8436 158.471 92.5641 158.471C91.406 158.471 88.8501 154.518 89.529 153.799C89.7287 153.639 91.7654 153.04 92.7238 152.92C92.8836 152.881 93.0034 154.119 93.0034 155.676ZM96.7173 153.52C98.0751 153.839 98.0751 154.358 96.7572 156.315C94.6806 159.39 93.8021 159.27 93.8021 155.956C93.8021 153.24 94.0017 152.761 94.9602 153.04C95.3196 153.16 96.0784 153.36 96.7173 153.52ZM89.3294 156.275C90.2479 158.192 90.0482 158.432 88.2511 157.513C86.3742 156.515 86.0547 155.836 87.093 155.117C87.5722 154.757 88.0914 154.478 88.2112 154.478C88.331 154.478 88.8501 155.277 89.3294 156.275ZM100.112 155.117C100.591 155.436 100.91 155.916 100.751 156.115C100.391 156.714 96.5975 158.511 96.5975 158.112C96.5975 157.872 96.7972 157.593 97.0368 157.433C97.2764 157.313 97.7157 156.555 98.0352 155.836C98.6741 154.278 98.8738 154.238 100.112 155.117Z" fill="black"/>
<path d="M151.908 136.108C152.027 136.348 152.706 136.508 153.385 136.508C154.903 136.508 154.743 136.308 152.986 135.989C152.147 135.829 151.748 135.869 151.908 136.108Z" fill="black"/>
<path d="M150.55 139.782C150.51 140.94 151.428 141.738 152.786 141.659C153.186 141.659 152.946 141.459 152.227 141.259C151.269 140.98 150.909 140.62 150.789 139.782L150.63 138.703L150.55 139.782Z" fill="black"/>
<path d="M53.4281 151.204C51.3915 152.562 49.4347 155.397 48.0769 159.071C46.0003 164.582 45.8405 170.173 47.6775 172.369C48.3165 173.128 48.5561 173.847 48.4363 174.486C48.2765 175.364 48.2765 175.364 48.636 174.606C48.8356 174.127 49.5145 173.647 50.2333 173.527C53.7876 172.809 57.6612 166.259 58.6596 159.191C59.5781 152.801 56.9823 148.808 53.4281 151.204ZM57.0622 151.683C58.3401 152.961 58.6995 155.637 58.1804 159.43C57.7012 163.025 55.984 167.417 54.147 169.973C52.7093 171.89 50.1535 173.687 49.5944 173.128C49.4347 172.968 49.8739 171.131 50.5528 169.055C51.2317 166.978 51.671 165.261 51.4713 165.261C51.3116 165.261 50.6726 166.978 50.0337 169.055C49.4347 171.131 48.7558 172.849 48.596 172.849C48.4363 172.849 48.0369 172.329 47.7175 171.73C45.1616 166.818 48.7558 154.598 53.6278 151.643C55.2252 150.685 56.0638 150.685 57.0622 151.683Z" fill="black"/>
<path d="M52.7094 161.108C52.2301 162.346 51.9506 163.464 52.0704 163.584C52.2701 163.783 52.2701 163.743 53.2684 160.908C54.147 158.312 53.7077 158.472 52.7094 161.108Z" fill="black"/>
<path d="M165.765 157.353C165.326 158.511 164.806 159.829 164.647 160.268C164.487 160.708 165.126 160.149 166.004 159.03C166.923 157.872 167.682 156.834 167.682 156.674C167.682 156.515 167.322 156.794 166.883 157.313C166.044 158.352 165.805 157.753 166.524 156.395C166.763 155.955 166.843 155.516 166.763 155.396C166.643 155.317 166.204 156.195 165.765 157.353Z" fill="black"/>
<path d="M11.017 161.307C9.0203 162.465 8.62095 166.259 9.97874 170.692C11.5761 175.883 14.5313 180.516 18.9242 184.789C22.5582 188.343 25.4735 189.821 28.3089 189.541L30.2657 189.341L31.1442 191.378C31.6234 192.496 32.542 194.932 33.1809 196.809C33.7799 198.686 34.1793 199.565 34.0595 198.806C33.7799 197.169 31.1842 190.06 30.6251 189.341C30.3855 189.022 30.4653 188.543 30.8247 187.944C32.8614 184.749 31.1842 178.12 26.5118 171.051C21.9991 164.182 14.3316 159.39 11.017 161.307ZM16.6878 162.305C23.5566 165.74 31.0644 177.041 31.2241 184.11C31.264 186.266 30.8647 188.023 30.3455 188.023C30.2257 188.023 29.5069 186.825 28.7881 185.388C28.0293 183.91 26.8313 181.714 26.0326 180.476C24.0358 177.281 19.4433 171.251 19.044 171.251C18.8443 171.251 19.6829 172.449 20.841 173.926C23.3569 177.081 25.9128 180.955 28.3089 185.388C30.1858 188.822 30.1059 189.221 27.4702 189.221C20.6414 189.261 9.53945 174.805 9.53945 165.82C9.53945 164.142 9.73913 163.463 10.5778 162.505C11.8956 160.908 13.7726 160.868 16.6878 162.305Z" fill="black"/>
<path d="M16.129 168.456C16.5283 168.895 16.9277 169.254 17.0475 169.254C17.1673 169.254 16.9277 168.895 16.5283 168.456C16.129 168.016 15.7296 167.657 15.6098 167.657C15.49 167.657 15.7296 168.016 16.129 168.456Z" fill="black"/>
<path d="M169.639 167.936C169.12 168.575 169.159 168.615 169.798 168.096C170.158 167.816 170.477 167.497 170.477 167.417C170.477 167.098 170.158 167.297 169.639 167.936Z" fill="black"/>
<path d="M46.5593 180.517C44.1233 188.783 42.6457 194.494 42.8055 194.973C42.8853 195.213 43.2847 194.054 43.684 192.417C44.0834 190.78 45.2814 186.387 46.3597 182.673C47.398 178.959 48.2366 175.844 48.1567 175.764C48.0769 175.684 47.358 177.841 46.5593 180.517Z" fill="black"/>
<path d="M225.028 188.343C225.268 188.503 225.667 188.982 225.907 189.421C226.226 190.021 226.346 190.06 226.386 189.581C226.386 188.902 225.627 188.024 225.028 188.024C224.709 188.024 224.749 188.144 225.028 188.343Z" fill="black"/>
<path d="M41.727 198.647C41.3276 200.284 41.088 201.722 41.1679 201.842C41.2877 201.922 41.6471 200.644 42.0465 198.966C42.4458 197.329 42.6854 195.891 42.6055 195.772C42.4857 195.692 42.1263 196.97 41.727 198.647Z" fill="black"/>
<path d="M34.3792 201.003C34.3792 201.442 34.5389 202.241 34.6986 202.8C34.9382 203.598 35.0181 203.638 35.0181 202.999C35.0181 202.56 34.8584 201.761 34.6986 201.202C34.459 200.404 34.3792 200.364 34.3792 201.003Z" fill="black"/>
<path d="M40.7688 203.199C40.7688 203.758 40.8487 203.957 40.9685 203.678C41.0483 203.438 41.0483 202.959 40.9685 202.679C40.8487 202.44 40.7688 202.639 40.7688 203.199Z" fill="black"/>
</svg>
