<svg width="32" height="24" viewBox="0 0 32 24" fill="none" xmlns="http://www.w3.org/2000/svg">
<path d="M21.6442 0.784146C20.0283 1.77853 19.4482 2.77291 19.4482 4.72025C19.4482 6.70902 21.2713 8.65635 23.1357 8.65635C24.7102 8.65635 24.7931 8.03486 23.3015 7.62054C20.5669 6.95761 19.7797 4.14019 21.727 2.23429C23.1357 0.784146 24.9588 0.867011 26.5332 2.40002C27.8176 3.72587 28.0662 5.13458 27.279 7.33051C26.4089 9.8579 25.5388 10.0651 16.1751 10.3137C9.91873 10.4794 7.68136 10.6451 7.51563 11.018C7.39133 11.4323 9.21437 11.5566 15.7193 11.5566C23.3015 11.5566 24.1716 11.4738 25.7046 10.6866C27.5276 9.77504 28.9363 7.37194 28.9778 5.21744C28.9778 3.35297 27.8176 1.32277 26.2846 0.618416C24.4616 -0.251671 23.26 -0.210238 21.6442 0.784146Z" fill="black"/>
<path d="M30.2227 2.39995C30.2227 3.39434 31.0927 5.05164 31.4656 4.67875C32.0043 4.14013 31.4656 2.02706 30.8027 2.02706C30.4713 2.02706 30.2227 2.19279 30.2227 2.39995Z" fill="black"/>
<path d="M30.0144 8.11783C29.6415 8.98792 28.8543 10.2309 28.2328 10.8938C26.1197 13.1312 25.4568 13.2141 12.8613 13.2141C6.48066 13.2141 1.01155 13.3383 0.638653 13.4626C-1.39155 14.2499 1.13585 14.457 12.3227 14.457H24.6696L26.7827 13.4212C29.0615 12.2611 30.8845 10.1066 31.2988 7.91067C31.6717 6.0462 30.8016 6.21193 30.0144 8.11783Z" fill="black"/>
<path d="M3.70508 16.4871C3.70508 17.3986 7.76548 17.6472 7.97264 16.7357C8.01408 16.4871 7.06112 16.28 5.90101 16.1971C4.57516 16.1142 3.70508 16.2385 3.70508 16.4871Z" fill="black"/>
<path d="M9.58875 16.6114C9.71305 17.0258 11.7432 17.2329 17.0052 17.3987C20.9827 17.523 24.2559 17.6473 24.2559 17.6887C24.836 18.5588 25.2917 20.4647 25.0846 21.2933C24.5874 23.1992 21.107 22.9921 21.107 21.0862C21.107 20.6304 20.817 20.2575 20.4855 20.2575C19.5326 20.2575 19.7398 21.6662 20.8999 22.9092C22.3086 24.4422 24.0488 24.3593 25.4575 22.6606C26.9076 20.9619 26.659 18.8902 24.836 17.2329L23.593 16.1142H16.508C11.0389 16.1142 9.46445 16.2385 9.58875 16.6114Z" fill="black"/>
</svg>
