<svg width="49" height="50" viewBox="0 0 49 50" fill="none" xmlns="http://www.w3.org/2000/svg">
<path d="M11.4352 8.52041L0.107422 16.5408L0.272791 29.7704L0.520845 42.9173L13.2543 46.4727C20.2825 48.4571 26.4012 49.7801 26.98 49.4493C27.4761 49.1186 32.6025 45.5632 38.3904 41.4289L48.8914 34.07L48.726 20.8404L48.478 7.61088L35.6618 4.05544C28.6336 2.15369 22.8457 0.582684 22.8457 0.5C22.8457 0.5 17.7193 4.13812 11.4352 8.52041ZM44.5918 7.85894L48.0646 8.85115V20.2616C48.0646 26.5457 47.8992 31.8375 47.5685 32.0856C47.3204 32.3336 45.4186 32.0856 43.3515 31.5894L39.6307 30.5972L39.4653 23.2383L39.3827 15.7967L36.0753 14.8045C34.2562 14.2257 30.6181 13.2334 28.0549 12.4893L23.2591 11.1663V7.19746C23.2591 5.04766 23.4245 3.06322 23.6726 2.81517C24.086 2.40174 28.3856 3.47665 44.5918 7.85894ZM22.4323 7.5282C22.4323 11.001 22.2669 11.249 16.6444 15.3006L10.9391 19.5175L10.6911 27.0418L10.443 34.6488L6.39146 37.4601C4.24166 38.9484 2.09186 40.1887 1.67843 40.1887C1.26501 40.1887 0.934269 35.0622 0.934269 28.7782V17.4504L11.1045 10.3395C16.6444 6.4533 21.4401 3.39396 21.8535 3.55933C22.1842 3.7247 22.4323 5.54376 22.4323 7.5282ZM29.7086 14.2257C32.7679 14.9698 35.5792 15.8794 35.9926 16.2928C36.3233 16.6235 34.587 18.2772 32.0237 20.0136L27.3934 23.0729L21.7708 21.5846C13.337 19.3521 13.337 19.2694 17.9673 15.8794C20.1998 14.3083 22.515 12.9027 23.0938 12.9027C23.6726 12.9027 26.6492 13.4815 29.7086 14.2257ZM38.1424 24.3132V30.8453L33.7601 33.8219C31.2796 35.5583 29.0471 36.8813 28.799 36.8813C27.7241 36.8813 28.2202 29.605 29.2951 29.1089C30.122 28.6955 30.122 28.5301 29.2951 28.1167C26.8973 27.0418 28.3029 24.0651 32.6025 21.0058C35.0004 19.3521 37.1502 17.9465 37.5636 17.8638C37.8943 17.8638 38.1424 20.7578 38.1424 24.3132ZM26.2358 26.2976C25.9877 27.6206 26.0704 28.6128 26.4838 28.6128C27.1453 28.6128 26.8973 36.7986 26.2358 37.5427C26.0704 37.7081 22.9284 36.964 19.2076 35.9717L12.5101 34.1527V27.3725V20.5097L19.621 22.3288C26.5665 24.0651 26.6492 24.0651 26.2358 26.2976ZM45.5013 33.5739C46.2455 33.9873 43.5169 36.3025 36.158 41.3462L25.7397 48.5398L14.1638 45.3978C7.7971 43.6614 2.58796 42.0904 2.58796 41.8424C2.58796 41.5943 4.73777 40.0233 7.38368 38.3696L12.0967 35.3103L19.7864 37.4601L27.3934 39.6099L33.0159 35.8064C37.729 32.499 38.9692 32.0029 41.4498 32.4163C43.0208 32.6644 44.8399 33.1605 45.5013 33.5739Z" fill="black"/>
</svg>
