<svg width="31" height="23" viewBox="0 0 31 23" fill="none" xmlns="http://www.w3.org/2000/svg">
<path d="M29.932 3.48494C30.0335 4.56658 30.0184 7.80634 29.9067 8.89796C29.8115 9.83996 29.7599 10.1045 29.6043 10.4101L29.6043 10.4102L29.6032 10.4123C29.5252 10.5596 29.3925 10.7206 29.2458 10.8621C29.0987 11.0039 28.9276 11.1356 28.7653 11.2197C28.7651 11.2198 28.7649 11.2199 28.7647 11.22L28.5093 11.3552L28.4764 11.3727H28.4391H15.432H2.42482H2.38691L2.35355 11.3546L2.10265 11.2192C1.58774 10.9479 1.19098 10.4341 1.07556 9.8955L1.07555 9.89551L1.07521 9.89382C0.984264 9.4443 0.913742 8.43045 0.877331 7.34251C0.840784 6.25052 0.838114 5.06651 0.886326 4.26974L0.886352 4.26932C0.924235 3.67078 0.98354 2.98693 1.04159 2.4298C1.07061 2.15128 1.0994 1.90353 1.12516 1.71344C1.13803 1.6185 1.15027 1.5369 1.16156 1.47258C1.17212 1.41235 1.18364 1.35614 1.19688 1.31948L1.19686 1.31948L1.19769 1.3173C1.34053 0.940196 1.69652 0.621698 2.08511 0.534698C2.09822 0.531736 2.10955 0.530781 2.112 0.530573L2.11239 0.53054C2.11929 0.529902 2.12704 0.529396 2.13487 0.528969C2.15077 0.528101 2.17188 0.527302 2.19744 0.526542C2.24883 0.525016 2.32187 0.523548 2.41502 0.52213C2.60152 0.51929 2.87094 0.516614 3.21395 0.514097C3.90009 0.509063 4.88201 0.50466 6.08686 0.500885C8.49663 0.493338 11.7989 0.488306 15.4117 0.48579H15.4118C16.1412 0.485533 16.8311 0.485249 17.4836 0.484981C23.2106 0.482625 26.0605 0.481453 27.5112 0.509719C28.3146 0.525374 28.7019 0.550035 28.9123 0.591992C29.0224 0.613925 29.0955 0.64256 29.1571 0.683869C29.186 0.703198 29.2092 0.723336 29.2275 0.739282C29.2465 0.755954 29.2609 0.768808 29.2794 0.78285C29.3742 0.854024 29.4576 0.932163 29.5273 1.04704C29.5957 1.15965 29.6458 1.29907 29.6886 1.48609C29.7731 1.85593 29.8367 2.45247 29.932 3.48494ZM29.932 3.48494C29.932 3.48499 29.932 3.48504 29.932 3.4851L29.7826 3.49887L29.932 3.48485C29.932 3.48488 29.932 3.48491 29.932 3.48494ZM29.2191 2.53277C29.4757 5.03357 29.4857 7.16704 29.2442 9.27033C29.1687 9.94458 29.0882 10.171 28.8316 10.4226C28.5549 10.6994 28.3888 10.7597 27.8504 10.7849M29.2191 2.53277L29.0699 2.54828M29.2191 2.53277L29.0698 2.54808C29.0698 2.54815 29.0698 2.54822 29.0699 2.54828M29.2191 2.53277C29.1134 1.51635 29.058 1.33521 28.8165 1.20941L1.96305 10.0796M29.0699 2.54828C29.3256 5.0403 29.3353 7.16266 29.0952 9.25321L29.0951 9.25364C29.0575 9.5899 29.0199 9.7999 28.9646 9.95445C28.9119 10.1019 28.8416 10.2027 28.7266 10.3155L28.7255 10.3165C28.5942 10.4479 28.5016 10.5152 28.3873 10.5573C28.2674 10.6015 28.1117 10.6225 27.8437 10.635M29.0699 2.54828C29.0166 2.03599 28.9774 1.75225 28.9252 1.58078C28.9001 1.49811 28.8745 1.45129 28.8497 1.42054C28.8273 1.39277 28.7995 1.37066 28.756 1.34713C28.7541 1.34672 28.7514 1.3462 28.7479 1.3456C28.7328 1.34298 28.7088 1.33995 28.6722 1.33685C28.5992 1.33068 28.4863 1.32501 28.3144 1.31996C27.9713 1.30987 27.4024 1.30249 26.4683 1.29714C24.6008 1.28645 21.2791 1.28394 15.3968 1.28394H2.17815L2.08433 1.36385L2.08421 1.36396C2.0375 1.40366 2.00834 1.43297 1.98619 1.46361C1.96485 1.49311 1.94605 1.52938 1.92823 1.58596C1.89003 1.70718 1.86239 1.89867 1.81907 2.26815C1.54346 4.70876 1.52869 7.13264 1.76879 9.25852L1.7688 9.25863C1.82364 9.74721 1.86658 9.89971 1.96305 10.0796M27.8437 10.635C27.8438 10.635 27.8439 10.635 27.844 10.635L27.8504 10.7849M27.8437 10.635C27.8436 10.635 27.8435 10.6351 27.8434 10.6351L27.8504 10.7849M27.8437 10.635C27.7253 10.6401 27.6377 10.6434 27.5719 10.6443C27.5472 10.6446 27.5268 10.6445 27.51 10.6441M27.8504 10.7849C27.3774 10.805 27.3573 10.8 27.3573 10.7044C27.3573 10.644 27.3825 10.3169 27.4126 9.97477M27.4126 9.97477L27.5078 10.7171C27.5078 10.717 27.5078 10.7161 27.5076 10.7145M27.4126 9.97477C27.473 9.24517 27.4277 9.05396 27.146 8.88288C26.9799 8.78224 26.9246 8.78224 15.432 8.78224C4.06518 8.78224 3.87901 8.78224 3.72302 8.88288M27.4126 9.97477L3.6434 8.75574M27.51 10.6441C27.5082 10.6734 27.5073 10.6941 27.5073 10.7044C27.5073 10.7092 27.5074 10.7125 27.5076 10.7145M27.51 10.6441C27.5171 10.5255 27.5375 10.2659 27.5621 9.98796L27.5621 9.98715C27.5921 9.62544 27.599 9.37147 27.5534 9.18394C27.5294 9.08547 27.4905 9.00196 27.4319 8.92906C27.3742 8.85737 27.3029 8.80269 27.2238 8.75466L27.2237 8.7546C27.1955 8.73753 27.1618 8.71841 27.1016 8.70386C27.0489 8.69114 26.9779 8.68225 26.8719 8.67504C26.6586 8.66054 26.2724 8.65111 25.5377 8.64483C24.0659 8.63224 21.1785 8.63224 15.4343 8.63224H15.432H15.43C9.7484 8.63224 6.85972 8.63224 5.37218 8.64483C4.62948 8.65111 4.23209 8.66054 4.01014 8.67502C3.79242 8.68922 3.71674 8.70887 3.6434 8.75574M27.51 10.6441C27.4807 10.6435 27.4624 10.642 27.4511 10.6401C27.4492 10.6397 27.4477 10.6395 27.4467 10.6392M27.5076 10.7145C27.5072 10.7123 27.5065 10.7088 27.5053 10.7044C27.503 10.6966 27.499 10.6862 27.4917 10.6756C27.4742 10.6498 27.4527 10.6411 27.4467 10.6392M27.5076 10.7145L3.6434 8.75574M3.6434 8.75574C3.6439 8.75544 3.6444 8.75514 3.64489 8.75483L3.72302 8.88288M3.6434 8.75574C3.64284 8.75611 3.64227 8.75647 3.6417 8.75683L3.72302 8.88288M3.6434 8.75574C3.56444 8.80402 3.49207 8.85633 3.43358 8.92369C3.37264 8.99385 3.33213 9.07403 3.30774 9.17076C3.26218 9.35154 3.27209 9.60039 3.3018 9.96677L3.30184 9.96728C3.32614 10.2548 3.34642 10.5209 3.35374 10.6393M27.4467 10.6392C27.4456 10.639 27.4451 10.6388 27.4451 10.6388L27.4467 10.6392ZM3.72302 8.88288C3.42615 9.06402 3.39093 9.20994 3.45131 9.95465L3.35653 10.7026C3.35655 10.7027 3.35661 10.7021 3.35664 10.701M3.35374 10.6393C3.3758 10.6376 3.3918 10.6355 3.40351 10.6328C3.40572 10.6323 3.40727 10.6319 3.40823 10.6316C3.40398 10.6333 3.38953 10.6401 3.37578 10.6575C3.36182 10.6753 3.35787 10.6924 3.35685 10.6994C3.35675 10.7 3.35669 10.7005 3.35664 10.701M3.35374 10.6393C3.30236 10.6433 3.21815 10.645 3.07896 10.645C2.76939 10.645 2.54708 10.6011 2.37659 10.5132C2.20925 10.4269 2.07796 10.2909 1.96305 10.0796M3.35374 10.6393C3.35563 10.6699 3.35666 10.6907 3.35666 10.6994C3.35666 10.7 3.35665 10.7005 3.35664 10.701M3.35664 10.701L1.96305 10.0796M26.79 10.0897L26.7902 10.0883C26.8076 9.87685 26.8161 9.69951 26.8173 9.56957C26.8178 9.51476 26.817 9.46977 26.8152 9.43496C26.7795 9.43099 26.7275 9.42693 26.6525 9.42312C26.4238 9.41152 26.0081 9.40334 25.2504 9.39768C23.7365 9.38636 20.8692 9.3851 15.432 9.3851C9.99479 9.3851 7.12743 9.38636 5.61358 9.39768C4.85582 9.40334 4.44012 9.41152 4.21147 9.42312C4.13644 9.42693 4.08449 9.43099 4.04873 9.43496C4.04691 9.46977 4.0461 9.51476 4.04661 9.56957C4.04783 9.69951 4.05638 9.87685 4.07379 10.0883L4.0738 10.0883L4.0739 10.0897L4.11414 10.645H15.432H26.7498L26.79 10.0897Z" fill="black" stroke="black" stroke-width="0.3"/>
<path d="M2.56386 6.22941C2.49504 6.1606 2.45443 6.0709 2.46324 5.96891C2.47148 5.87364 2.52099 5.79011 2.58353 5.72115C2.62629 5.67335 2.68205 5.65584 2.73569 5.64563C2.79034 5.63523 2.87123 5.62767 2.99421 5.62139C3.24286 5.6087 3.69271 5.60005 4.51802 5.59408C6.17039 5.58212 9.33989 5.58087 15.4456 5.58087C21.169 5.58087 24.3384 5.58338 26.0857 5.59471C26.9589 5.60037 27.4787 5.60823 27.785 5.61917C27.9376 5.62462 28.0408 5.63094 28.1094 5.63862C28.1434 5.64242 28.1735 5.64704 28.1988 5.6534C28.2163 5.65782 28.2603 5.66929 28.2957 5.70388C28.4399 5.84181 28.4726 6.07408 28.3173 6.22941C28.3048 6.24064 28.2826 6.2554 28.2734 6.25997C28.2673 6.26266 28.2569 6.26653 28.2523 6.26799C28.2431 6.27075 28.2351 6.27227 28.2307 6.27306C28.2212 6.27473 28.2113 6.27583 28.2032 6.27661C28.1863 6.27824 28.164 6.27964 28.1381 6.28093C28.0857 6.28353 28.0105 6.28599 27.9149 6.28834C27.7234 6.29304 27.4456 6.29739 27.0944 6.3014C26.3918 6.30943 25.393 6.31611 24.197 6.32146C21.8049 6.33215 18.6227 6.3375 15.4406 6.3375C12.2585 6.3375 9.07627 6.33215 6.68414 6.32146C5.48813 6.31611 4.48934 6.30943 3.78674 6.3014C3.43554 6.29739 3.15779 6.29304 2.96624 6.28834C2.87065 6.28599 2.79548 6.28353 2.74304 6.28093C2.71713 6.27964 2.69491 6.27824 2.67793 6.27661C2.66983 6.27583 2.66001 6.27473 2.65048 6.27305C2.64603 6.27227 2.63805 6.27075 2.62889 6.26799C2.62423 6.26653 2.61384 6.26266 2.60771 6.25997C2.5986 6.2554 2.57638 6.24064 2.56386 6.22941Z" fill="black" stroke="black" stroke-width="0.3"/>
<path d="M12.4088 7.55252C12.4044 7.44307 12.4652 7.35766 12.5303 7.2954C12.5863 7.24055 12.6652 7.223 12.7425 7.21219C12.8289 7.20009 12.9578 7.1921 13.1525 7.18643C13.5439 7.17503 14.2257 7.17253 15.4224 7.17253C16.6191 7.17253 17.3009 7.17503 17.6923 7.18643C17.887 7.1921 18.0159 7.20009 18.1023 7.21219C18.1803 7.2231 18.26 7.24089 18.3161 7.29697C18.3722 7.35309 18.4364 7.43278 18.4348 7.54044C18.4334 7.64284 18.3722 7.72399 18.3165 7.78512C18.2971 7.80694 18.272 7.82896 18.2361 7.84711C18.2027 7.86403 18.1657 7.87465 18.1256 7.88235C18.0477 7.89735 17.9309 7.90614 17.7482 7.9121C17.379 7.92415 16.7015 7.92539 15.4325 7.92539C14.2158 7.92539 13.5375 7.92289 13.1528 7.91085C12.9615 7.90486 12.8361 7.89638 12.7512 7.88331C12.6672 7.87039 12.5996 7.85 12.5456 7.80233L12.5456 7.80234L12.544 7.80084C12.4784 7.74127 12.4132 7.65952 12.4088 7.55252Z" fill="black" stroke="black" stroke-width="0.3"/>
<path d="M3.04562 22.4245L3.04562 22.4245C3.09128 22.4488 3.14337 22.4682 3.20261 22.466C3.26275 22.4639 3.31669 22.4401 3.36741 22.4036C3.46257 22.3352 3.57231 22.2022 3.72594 21.999L3.72595 21.999C4.87518 20.4786 5.38403 19.148 5.63743 17.0143L5.63745 17.0141C5.69332 16.5342 5.73367 15.7835 5.74942 15.1407C5.7573 14.8191 5.75907 14.5229 5.75343 14.2998C5.75061 14.1885 5.74592 14.0938 5.73899 14.0226C5.73554 13.9872 5.73134 13.9555 5.72602 13.9296C5.72337 13.9167 5.72007 13.9034 5.71575 13.8909C5.71203 13.8801 5.70493 13.8619 5.69132 13.8451L5.69043 13.844L5.69042 13.844C5.62861 13.7698 5.52938 13.7385 5.44597 13.7345C5.36536 13.7307 5.25973 13.7513 5.1979 13.831C5.18402 13.8486 5.17788 13.8674 5.1757 13.874C5.17217 13.8848 5.16937 13.8965 5.16705 13.9076C5.16236 13.9302 5.15806 13.9587 5.15404 13.9912C5.14593 14.0567 5.13808 14.1453 5.1308 14.2502C5.11621 14.4601 5.10357 14.7396 5.096 15.0374M3.04562 22.4245L5.19596 15.0402M3.04562 22.4245L3.04459 22.4239C2.98955 22.3937 2.94481 22.3499 2.92014 22.2902C2.89593 22.2316 2.89544 22.1683 2.9087 22.106C2.93436 21.9854 3.01667 21.8449 3.13911 21.6867M3.04562 22.4245L3.21847 21.7475M5.096 15.0374C5.096 15.0375 5.096 15.0376 5.09599 15.0376L5.19596 15.0402M5.096 15.0374C5.096 15.0374 5.096 15.0373 5.09601 15.0372L5.19596 15.0402M5.096 15.0374C5.04829 16.6591 4.9078 17.8606 4.60566 18.8864C4.30411 19.9102 3.84014 20.7635 3.13911 21.6867M5.19596 15.0402C5.10036 18.2907 4.6324 19.8858 3.21847 21.7475M3.13911 21.6867C3.13921 21.6865 3.1393 21.6864 3.1394 21.6863L3.21847 21.7475M3.13911 21.6867C3.13902 21.6868 3.13893 21.6869 3.13884 21.687L3.21847 21.7475" fill="black" stroke="black" stroke-width="0.2"/>
<path d="M8.77341 13.4882L8.77337 13.4882L8.7753 13.4859C8.84451 13.4045 8.95155 13.3776 9.04184 13.3843C9.13138 13.3908 9.23465 13.4329 9.28648 13.5279L9.28673 13.5284C9.29456 13.543 9.298 13.5574 9.29942 13.5636C9.30134 13.572 9.30284 13.581 9.30407 13.5898C9.30656 13.6073 9.30871 13.6295 9.31067 13.6553C9.31461 13.7071 9.31815 13.7793 9.32135 13.8711C9.32776 14.055 9.33295 14.3217 9.33705 14.6703C9.34523 15.3678 9.349 16.3961 9.349 17.7522V17.7562C9.349 19.7604 9.349 20.7813 9.3364 21.3133C9.33013 21.5779 9.32068 21.728 9.30513 21.8193C9.2972 21.8658 9.28679 21.9029 9.27103 21.9345C9.25426 21.968 9.23439 21.989 9.21908 22.0043C9.18946 22.034 9.16094 22.0607 9.13281 22.081C9.1042 22.1018 9.07034 22.1202 9.02986 22.1262C8.94797 22.1385 8.87911 22.0939 8.82458 22.056L8.82454 22.056L8.82168 22.0539C8.76371 22.0104 8.74649 21.9375 8.73508 21.8437C8.7226 21.7411 8.7144 21.5727 8.70874 21.2909C8.6974 20.7255 8.69614 19.6863 8.69614 17.7623C8.69614 16.2553 8.69992 15.2143 8.70873 14.5438C8.71314 14.2086 8.71881 13.9651 8.72596 13.8017C8.72952 13.7203 8.73351 13.6573 8.73807 13.6124C8.74032 13.5901 8.74291 13.5703 8.74609 13.554C8.74766 13.5459 8.74974 13.5368 8.75264 13.5279C8.75477 13.5213 8.76046 13.5044 8.77341 13.4882Z" fill="black" stroke="black" stroke-width="0.2"/>
<mask id="path-6-outside-1_221_13358" maskUnits="userSpaceOnUse" x="10.3596" y="13.0273" width="10" height="10" fill="black">
<rect fill="white" x="10.3596" y="13.0273" width="10" height="10"/>
<path d="M15.2586 13.5908C15.1982 13.6713 15.1781 13.8273 15.1781 14.1594V14.6123L14.7302 14.1644L14.2774 13.7166L14.1516 13.8021C14.0811 13.8474 14.0208 13.9279 14.0208 13.9783C14.0208 14.0286 14.2824 14.3456 14.5994 14.6777L15.1781 15.2815V15.8098V16.3382L15.002 16.3985C14.9013 16.4338 14.7202 16.5344 14.5944 16.63C14.4736 16.7256 14.3478 16.8011 14.3176 16.8011C14.2874 16.8011 14.0711 16.6954 13.8446 16.5646L13.427 16.3281L13.2106 15.5482C12.949 14.6173 12.8383 14.4613 12.6169 14.6827C12.5213 14.7783 12.5213 14.7884 12.642 15.2261C12.793 15.7696 12.8333 15.9457 12.798 15.9457C12.788 15.9457 12.6471 15.8702 12.4961 15.7746C11.9275 15.4375 11.7313 15.4224 11.7313 15.7192C11.7313 15.845 11.7816 15.8903 12.154 16.1117C12.4458 16.2828 12.5565 16.3734 12.5062 16.3985C12.4659 16.4187 12.2294 16.4841 11.9728 16.5495C11.5049 16.6602 11.3288 16.7709 11.364 16.9319C11.4042 17.1332 11.52 17.1332 12.32 16.9369C12.7427 16.8313 13.1352 16.7508 13.1905 16.7558C13.2459 16.7558 13.4723 16.8665 13.6937 16.9973C14.0509 17.2036 14.0912 17.2439 14.0711 17.3546C14.0359 17.5458 14.0409 18.0238 14.0862 18.1395C14.1164 18.22 14.0962 18.2553 13.9855 18.3156C13.905 18.3509 13.7038 18.4716 13.5276 18.5773L13.2106 18.7685L12.4005 18.5622C11.9577 18.4515 11.5502 18.371 11.4998 18.3861C11.3841 18.4263 11.3237 18.6377 11.3992 18.7333C11.4344 18.7735 11.7061 18.8641 12.008 18.9396C12.315 19.0151 12.5615 19.0905 12.5615 19.1107C12.5615 19.1258 12.3653 19.2516 12.1288 19.3924C11.7615 19.6088 11.7061 19.6591 11.7162 19.7648C11.7263 19.8302 11.7766 19.9158 11.8319 19.951C11.9225 20.0114 11.9829 19.9912 12.3754 19.7749C12.642 19.6239 12.8131 19.5535 12.8131 19.5937C12.8131 19.6289 12.7578 19.8554 12.6873 20.0919C12.6169 20.3284 12.5615 20.5799 12.5615 20.6454C12.5615 20.8013 12.6823 20.897 12.8383 20.8567C12.9389 20.8315 12.9792 20.7712 13.0446 20.5347C13.0899 20.3787 13.1955 20.0013 13.2811 19.6994L13.4421 19.1509L13.8698 18.9094C14.1063 18.7735 14.3126 18.6628 14.3277 18.6628C14.3428 18.6628 14.4585 18.7383 14.5793 18.8339C14.7 18.9245 14.8862 19.0302 14.9919 19.0654L15.1781 19.1258V19.6541V20.1824L14.6145 20.7863C14.0459 21.3901 13.9604 21.5259 14.0711 21.6618C14.2019 21.8127 14.3428 21.7373 14.7604 21.2894L15.1781 20.8517V21.3397C15.1781 21.7624 15.1932 21.848 15.2787 21.9335C15.3944 22.0492 15.4297 22.0543 15.5504 21.9687C15.6561 21.8882 15.6712 21.8127 15.6762 21.2844L15.6812 20.8617L16.1039 21.2945C16.3354 21.536 16.5517 21.7322 16.5819 21.7322C16.7128 21.7322 16.8386 21.6215 16.8386 21.5159C16.8335 21.4454 16.6272 21.1888 16.2599 20.8013L15.6812 20.1975V19.6642V19.1358L15.953 19.0201C16.0989 18.9597 16.275 18.854 16.3354 18.7886C16.4008 18.7182 16.4813 18.6628 16.5165 18.6628C16.5517 18.6628 16.7731 18.7786 17.0046 18.9195L17.4323 19.1711L17.5682 19.6591C17.8801 20.7762 17.8952 20.8265 18.0261 20.8567C18.182 20.897 18.2978 20.8013 18.2978 20.6303C18.2978 20.5598 18.2424 20.3183 18.172 20.0969C17.9858 19.4981 17.9908 19.4931 18.3632 19.7044C18.9368 20.0365 18.9116 20.0265 19.0274 19.951C19.0827 19.9158 19.133 19.8302 19.1431 19.7598C19.1582 19.6491 19.1029 19.6038 18.7305 19.3874C18.494 19.2516 18.2978 19.1258 18.2978 19.1107C18.2978 19.0905 18.5443 19.0151 18.8513 18.9396C19.1532 18.8641 19.4249 18.7735 19.4601 18.7333C19.5356 18.6377 19.4752 18.4263 19.3595 18.3861C19.3092 18.371 18.9016 18.4515 18.4588 18.5622L17.6587 18.7685L17.2008 18.5018C16.8033 18.2704 16.743 18.22 16.7782 18.1345C16.8184 18.0188 16.8235 17.5458 16.7882 17.3596C16.7681 17.2489 16.8084 17.2087 17.1807 16.9923C17.4122 16.8615 17.6386 16.7508 17.6839 16.7508C17.7342 16.7508 18.1166 16.8313 18.5393 16.9369C19.3494 17.1382 19.4651 17.1332 19.4953 16.9168C19.5205 16.7508 19.3897 16.6703 18.8915 16.5495C18.6349 16.4841 18.3934 16.4187 18.3531 16.3985C18.3028 16.3734 18.4135 16.2828 18.7053 16.1117C19.1381 15.8551 19.2337 15.7243 19.1029 15.5633C19.0073 15.4526 18.9016 15.4777 18.4789 15.7192C18.2575 15.845 18.0713 15.9356 18.0613 15.9256C18.0462 15.9155 18.1066 15.6488 18.1871 15.3419C18.338 14.7884 18.338 14.7783 18.2424 14.6827C18.021 14.4613 17.9103 14.6223 17.6537 15.5431L17.4323 16.3231L16.9744 16.5847L16.5115 16.8413L16.3454 16.6904C16.1844 16.5545 15.9882 16.4489 15.7718 16.3784C15.6913 16.3533 15.6812 16.2828 15.6812 15.8149V15.2815L16.2599 14.6726C16.8738 14.0386 16.9191 13.938 16.6977 13.7921C16.592 13.7216 16.5668 13.7367 16.1341 14.1644L15.6812 14.6072V14.1695C15.6812 13.933 15.6561 13.6763 15.6209 13.6059C15.5504 13.4449 15.3642 13.4398 15.2586 13.5908ZM15.797 16.8715C16.0184 16.9621 16.27 17.259 16.3354 17.5106C16.4964 18.0993 16.0536 18.6628 15.4347 18.6628C14.6548 18.6628 14.2321 17.8729 14.6648 17.2087C14.8963 16.8514 15.3944 16.7004 15.797 16.8715Z"/>
</mask>
<path d="M15.2586 13.5908C15.1982 13.6713 15.1781 13.8273 15.1781 14.1594V14.6123L14.7302 14.1644L14.2774 13.7166L14.1516 13.8021C14.0811 13.8474 14.0208 13.9279 14.0208 13.9783C14.0208 14.0286 14.2824 14.3456 14.5994 14.6777L15.1781 15.2815V15.8098V16.3382L15.002 16.3985C14.9013 16.4338 14.7202 16.5344 14.5944 16.63C14.4736 16.7256 14.3478 16.8011 14.3176 16.8011C14.2874 16.8011 14.0711 16.6954 13.8446 16.5646L13.427 16.3281L13.2106 15.5482C12.949 14.6173 12.8383 14.4613 12.6169 14.6827C12.5213 14.7783 12.5213 14.7884 12.642 15.2261C12.793 15.7696 12.8333 15.9457 12.798 15.9457C12.788 15.9457 12.6471 15.8702 12.4961 15.7746C11.9275 15.4375 11.7313 15.4224 11.7313 15.7192C11.7313 15.845 11.7816 15.8903 12.154 16.1117C12.4458 16.2828 12.5565 16.3734 12.5062 16.3985C12.4659 16.4187 12.2294 16.4841 11.9728 16.5495C11.5049 16.6602 11.3288 16.7709 11.364 16.9319C11.4042 17.1332 11.52 17.1332 12.32 16.9369C12.7427 16.8313 13.1352 16.7508 13.1905 16.7558C13.2459 16.7558 13.4723 16.8665 13.6937 16.9973C14.0509 17.2036 14.0912 17.2439 14.0711 17.3546C14.0359 17.5458 14.0409 18.0238 14.0862 18.1395C14.1164 18.22 14.0962 18.2553 13.9855 18.3156C13.905 18.3509 13.7038 18.4716 13.5276 18.5773L13.2106 18.7685L12.4005 18.5622C11.9577 18.4515 11.5502 18.371 11.4998 18.3861C11.3841 18.4263 11.3237 18.6377 11.3992 18.7333C11.4344 18.7735 11.7061 18.8641 12.008 18.9396C12.315 19.0151 12.5615 19.0905 12.5615 19.1107C12.5615 19.1258 12.3653 19.2516 12.1288 19.3924C11.7615 19.6088 11.7061 19.6591 11.7162 19.7648C11.7263 19.8302 11.7766 19.9158 11.8319 19.951C11.9225 20.0114 11.9829 19.9912 12.3754 19.7749C12.642 19.6239 12.8131 19.5535 12.8131 19.5937C12.8131 19.6289 12.7578 19.8554 12.6873 20.0919C12.6169 20.3284 12.5615 20.5799 12.5615 20.6454C12.5615 20.8013 12.6823 20.897 12.8383 20.8567C12.9389 20.8315 12.9792 20.7712 13.0446 20.5347C13.0899 20.3787 13.1955 20.0013 13.2811 19.6994L13.4421 19.1509L13.8698 18.9094C14.1063 18.7735 14.3126 18.6628 14.3277 18.6628C14.3428 18.6628 14.4585 18.7383 14.5793 18.8339C14.7 18.9245 14.8862 19.0302 14.9919 19.0654L15.1781 19.1258V19.6541V20.1824L14.6145 20.7863C14.0459 21.3901 13.9604 21.5259 14.0711 21.6618C14.2019 21.8127 14.3428 21.7373 14.7604 21.2894L15.1781 20.8517V21.3397C15.1781 21.7624 15.1932 21.848 15.2787 21.9335C15.3944 22.0492 15.4297 22.0543 15.5504 21.9687C15.6561 21.8882 15.6712 21.8127 15.6762 21.2844L15.6812 20.8617L16.1039 21.2945C16.3354 21.536 16.5517 21.7322 16.5819 21.7322C16.7128 21.7322 16.8386 21.6215 16.8386 21.5159C16.8335 21.4454 16.6272 21.1888 16.2599 20.8013L15.6812 20.1975V19.6642V19.1358L15.953 19.0201C16.0989 18.9597 16.275 18.854 16.3354 18.7886C16.4008 18.7182 16.4813 18.6628 16.5165 18.6628C16.5517 18.6628 16.7731 18.7786 17.0046 18.9195L17.4323 19.1711L17.5682 19.6591C17.8801 20.7762 17.8952 20.8265 18.0261 20.8567C18.182 20.897 18.2978 20.8013 18.2978 20.6303C18.2978 20.5598 18.2424 20.3183 18.172 20.0969C17.9858 19.4981 17.9908 19.4931 18.3632 19.7044C18.9368 20.0365 18.9116 20.0265 19.0274 19.951C19.0827 19.9158 19.133 19.8302 19.1431 19.7598C19.1582 19.6491 19.1029 19.6038 18.7305 19.3874C18.494 19.2516 18.2978 19.1258 18.2978 19.1107C18.2978 19.0905 18.5443 19.0151 18.8513 18.9396C19.1532 18.8641 19.4249 18.7735 19.4601 18.7333C19.5356 18.6377 19.4752 18.4263 19.3595 18.3861C19.3092 18.371 18.9016 18.4515 18.4588 18.5622L17.6587 18.7685L17.2008 18.5018C16.8033 18.2704 16.743 18.22 16.7782 18.1345C16.8184 18.0188 16.8235 17.5458 16.7882 17.3596C16.7681 17.2489 16.8084 17.2087 17.1807 16.9923C17.4122 16.8615 17.6386 16.7508 17.6839 16.7508C17.7342 16.7508 18.1166 16.8313 18.5393 16.9369C19.3494 17.1382 19.4651 17.1332 19.4953 16.9168C19.5205 16.7508 19.3897 16.6703 18.8915 16.5495C18.6349 16.4841 18.3934 16.4187 18.3531 16.3985C18.3028 16.3734 18.4135 16.2828 18.7053 16.1117C19.1381 15.8551 19.2337 15.7243 19.1029 15.5633C19.0073 15.4526 18.9016 15.4777 18.4789 15.7192C18.2575 15.845 18.0713 15.9356 18.0613 15.9256C18.0462 15.9155 18.1066 15.6488 18.1871 15.3419C18.338 14.7884 18.338 14.7783 18.2424 14.6827C18.021 14.4613 17.9103 14.6223 17.6537 15.5431L17.4323 16.3231L16.9744 16.5847L16.5115 16.8413L16.3454 16.6904C16.1844 16.5545 15.9882 16.4489 15.7718 16.3784C15.6913 16.3533 15.6812 16.2828 15.6812 15.8149V15.2815L16.2599 14.6726C16.8738 14.0386 16.9191 13.938 16.6977 13.7921C16.592 13.7216 16.5668 13.7367 16.1341 14.1644L15.6812 14.6072V14.1695C15.6812 13.933 15.6561 13.6763 15.6209 13.6059C15.5504 13.4449 15.3642 13.4398 15.2586 13.5908ZM15.797 16.8715C16.0184 16.9621 16.27 17.259 16.3354 17.5106C16.4964 18.0993 16.0536 18.6628 15.4347 18.6628C14.6548 18.6628 14.2321 17.8729 14.6648 17.2087C14.8963 16.8514 15.3944 16.7004 15.797 16.8715Z" fill="black"/>
<path d="M15.2586 13.5908C15.1982 13.6713 15.1781 13.8273 15.1781 14.1594V14.6123L14.7302 14.1644L14.2774 13.7166L14.1516 13.8021C14.0811 13.8474 14.0208 13.9279 14.0208 13.9783C14.0208 14.0286 14.2824 14.3456 14.5994 14.6777L15.1781 15.2815V15.8098V16.3382L15.002 16.3985C14.9013 16.4338 14.7202 16.5344 14.5944 16.63C14.4736 16.7256 14.3478 16.8011 14.3176 16.8011C14.2874 16.8011 14.0711 16.6954 13.8446 16.5646L13.427 16.3281L13.2106 15.5482C12.949 14.6173 12.8383 14.4613 12.6169 14.6827C12.5213 14.7783 12.5213 14.7884 12.642 15.2261C12.793 15.7696 12.8333 15.9457 12.798 15.9457C12.788 15.9457 12.6471 15.8702 12.4961 15.7746C11.9275 15.4375 11.7313 15.4224 11.7313 15.7192C11.7313 15.845 11.7816 15.8903 12.154 16.1117C12.4458 16.2828 12.5565 16.3734 12.5062 16.3985C12.4659 16.4187 12.2294 16.4841 11.9728 16.5495C11.5049 16.6602 11.3288 16.7709 11.364 16.9319C11.4042 17.1332 11.52 17.1332 12.32 16.9369C12.7427 16.8313 13.1352 16.7508 13.1905 16.7558C13.2459 16.7558 13.4723 16.8665 13.6937 16.9973C14.0509 17.2036 14.0912 17.2439 14.0711 17.3546C14.0359 17.5458 14.0409 18.0238 14.0862 18.1395C14.1164 18.22 14.0962 18.2553 13.9855 18.3156C13.905 18.3509 13.7038 18.4716 13.5276 18.5773L13.2106 18.7685L12.4005 18.5622C11.9577 18.4515 11.5502 18.371 11.4998 18.3861C11.3841 18.4263 11.3237 18.6377 11.3992 18.7333C11.4344 18.7735 11.7061 18.8641 12.008 18.9396C12.315 19.0151 12.5615 19.0905 12.5615 19.1107C12.5615 19.1258 12.3653 19.2516 12.1288 19.3924C11.7615 19.6088 11.7061 19.6591 11.7162 19.7648C11.7263 19.8302 11.7766 19.9158 11.8319 19.951C11.9225 20.0114 11.9829 19.9912 12.3754 19.7749C12.642 19.6239 12.8131 19.5535 12.8131 19.5937C12.8131 19.6289 12.7578 19.8554 12.6873 20.0919C12.6169 20.3284 12.5615 20.5799 12.5615 20.6454C12.5615 20.8013 12.6823 20.897 12.8383 20.8567C12.9389 20.8315 12.9792 20.7712 13.0446 20.5347C13.0899 20.3787 13.1955 20.0013 13.2811 19.6994L13.4421 19.1509L13.8698 18.9094C14.1063 18.7735 14.3126 18.6628 14.3277 18.6628C14.3428 18.6628 14.4585 18.7383 14.5793 18.8339C14.7 18.9245 14.8862 19.0302 14.9919 19.0654L15.1781 19.1258V19.6541V20.1824L14.6145 20.7863C14.0459 21.3901 13.9604 21.5259 14.0711 21.6618C14.2019 21.8127 14.3428 21.7373 14.7604 21.2894L15.1781 20.8517V21.3397C15.1781 21.7624 15.1932 21.848 15.2787 21.9335C15.3944 22.0492 15.4297 22.0543 15.5504 21.9687C15.6561 21.8882 15.6712 21.8127 15.6762 21.2844L15.6812 20.8617L16.1039 21.2945C16.3354 21.536 16.5517 21.7322 16.5819 21.7322C16.7128 21.7322 16.8386 21.6215 16.8386 21.5159C16.8335 21.4454 16.6272 21.1888 16.2599 20.8013L15.6812 20.1975V19.6642V19.1358L15.953 19.0201C16.0989 18.9597 16.275 18.854 16.3354 18.7886C16.4008 18.7182 16.4813 18.6628 16.5165 18.6628C16.5517 18.6628 16.7731 18.7786 17.0046 18.9195L17.4323 19.1711L17.5682 19.6591C17.8801 20.7762 17.8952 20.8265 18.0261 20.8567C18.182 20.897 18.2978 20.8013 18.2978 20.6303C18.2978 20.5598 18.2424 20.3183 18.172 20.0969C17.9858 19.4981 17.9908 19.4931 18.3632 19.7044C18.9368 20.0365 18.9116 20.0265 19.0274 19.951C19.0827 19.9158 19.133 19.8302 19.1431 19.7598C19.1582 19.6491 19.1029 19.6038 18.7305 19.3874C18.494 19.2516 18.2978 19.1258 18.2978 19.1107C18.2978 19.0905 18.5443 19.0151 18.8513 18.9396C19.1532 18.8641 19.4249 18.7735 19.4601 18.7333C19.5356 18.6377 19.4752 18.4263 19.3595 18.3861C19.3092 18.371 18.9016 18.4515 18.4588 18.5622L17.6587 18.7685L17.2008 18.5018C16.8033 18.2704 16.743 18.22 16.7782 18.1345C16.8184 18.0188 16.8235 17.5458 16.7882 17.3596C16.7681 17.2489 16.8084 17.2087 17.1807 16.9923C17.4122 16.8615 17.6386 16.7508 17.6839 16.7508C17.7342 16.7508 18.1166 16.8313 18.5393 16.9369C19.3494 17.1382 19.4651 17.1332 19.4953 16.9168C19.5205 16.7508 19.3897 16.6703 18.8915 16.5495C18.6349 16.4841 18.3934 16.4187 18.3531 16.3985C18.3028 16.3734 18.4135 16.2828 18.7053 16.1117C19.1381 15.8551 19.2337 15.7243 19.1029 15.5633C19.0073 15.4526 18.9016 15.4777 18.4789 15.7192C18.2575 15.845 18.0713 15.9356 18.0613 15.9256C18.0462 15.9155 18.1066 15.6488 18.1871 15.3419C18.338 14.7884 18.338 14.7783 18.2424 14.6827C18.021 14.4613 17.9103 14.6223 17.6537 15.5431L17.4323 16.3231L16.9744 16.5847L16.5115 16.8413L16.3454 16.6904C16.1844 16.5545 15.9882 16.4489 15.7718 16.3784C15.6913 16.3533 15.6812 16.2828 15.6812 15.8149V15.2815L16.2599 14.6726C16.8738 14.0386 16.9191 13.938 16.6977 13.7921C16.592 13.7216 16.5668 13.7367 16.1341 14.1644L15.6812 14.6072V14.1695C15.6812 13.933 15.6561 13.6763 15.6209 13.6059C15.5504 13.4449 15.3642 13.4398 15.2586 13.5908ZM15.797 16.8715C16.0184 16.9621 16.27 17.259 16.3354 17.5106C16.4964 18.0993 16.0536 18.6628 15.4347 18.6628C14.6548 18.6628 14.2321 17.8729 14.6648 17.2087C14.8963 16.8514 15.3944 16.7004 15.797 16.8715Z" stroke="black" stroke-width="0.4" mask="url(#path-6-outside-1_221_13358)"/>
<path d="M22.1987 21.6319L22.1987 21.6319C22.2031 21.5896 22.2065 21.4399 22.2094 21.2153C22.2123 20.9872 22.2146 20.6749 22.2162 20.3012C22.2194 19.5536 22.2194 18.5596 22.2143 17.5002C22.2143 17.5001 22.2143 17.5001 22.2143 17.5001L22.1143 17.5005C22.0994 13.4794 22.0992 13.4794 21.8818 13.4801C21.8788 13.4801 21.8758 13.4802 21.8728 13.4802C21.8275 13.4802 21.752 13.5204 21.7068 13.5707L22.1987 21.6319ZM22.1987 21.6319L22.1985 21.6337C22.1824 21.7648 22.1497 21.8816 22.1011 21.969C22.0548 22.0522 21.9782 22.1342 21.8678 22.1342C21.8376 22.1342 21.8115 22.1225 21.7985 22.1162C21.7819 22.1082 21.7651 22.0978 21.7493 22.0869C21.7175 22.0649 21.6827 22.0358 21.6511 22.0043C21.6358 21.9889 21.616 21.9679 21.5992 21.9344C21.5834 21.9028 21.573 21.8656 21.5651 21.8191C21.5495 21.7278 21.5401 21.5775 21.5338 21.3126C21.5212 20.7799 21.5212 19.7578 21.5212 17.7511V17.7471C21.5212 15.8834 21.5225 14.8594 21.5338 14.2908C21.5395 14.0073 21.5477 13.8332 21.5601 13.7238C21.5717 13.6212 21.5885 13.5511 21.6331 13.5031L22.1987 21.6319Z" fill="black" stroke="black" stroke-width="0.2"/>
<path d="M27.8136 21.9833C27.9897 21.8877 27.9344 21.7066 27.5973 21.2638L25.7506 15.5678C25.7254 15.125 25.7003 14.501 25.7003 14.179C25.7003 13.7966 25.6802 13.5802 25.6399 13.54C25.5544 13.4544 25.3732 13.4645 25.2977 13.5551C25.2474 13.6154 25.2374 13.8922 25.2625 14.8029C25.3481 17.9679 25.8613 19.7291 27.24 21.5606C27.562 21.9883 27.6627 22.0638 27.8136 21.9833ZM25.8504 15.5618C26.0157 18.1549 26.5098 19.6736 27.6768 21.2031L27.6768 21.2032C27.8445 21.4234 27.9538 21.5927 27.9937 21.7248C28.0143 21.7934 28.02 21.8632 27.9949 21.9286C27.9694 21.9951 27.9188 22.04 27.8613 22.0712L27.8613 22.0712L27.8607 22.0715C27.8134 22.0967 27.7598 22.1153 27.6988 22.1111C27.638 22.107 27.5832 22.0811 27.5316 22.043C27.4334 21.9705 27.3191 21.8319 27.1601 21.6208L27.1601 21.6208C25.7649 19.7673 25.2485 17.9836 25.1626 14.8057C25.15 14.3505 25.1461 14.051 25.1519 13.8571C25.1547 13.7605 25.1601 13.6869 25.1687 13.632C25.1765 13.5822 25.1893 13.5289 25.2209 13.491C25.2817 13.4181 25.376 13.3856 25.4603 13.3816C25.5447 13.3775 25.6423 13.4009 25.7106 13.4693C25.7287 13.4874 25.7396 13.5086 25.7463 13.5247C25.7535 13.5419 25.7591 13.5608 25.7636 13.58C25.7727 13.6184 25.7795 13.6663 25.7848 13.7218C25.7953 13.8334 25.8003 13.9867 25.8003 14.179C25.8003 14.498 25.8253 15.1195 25.8504 15.5618Z" fill="black" stroke="black" stroke-width="0.2"/>
</svg>
