<svg width="33" height="48" viewBox="0 0 33 48" fill="none" xmlns="http://www.w3.org/2000/svg">
<path d="M7.87353 1.27939C6.95744 2.27182 6.57574 4.104 6.57574 7.76836V12.8069L3.75113 13.0359C1.00286 13.2649 0.850174 13.4176 0.621151 16.0132C0.46847 18.2271 0.697492 18.8378 2.37699 19.7539C4.05649 20.67 4.28551 21.2807 4.28551 25.0977C4.28551 31.5104 4.97258 34.106 7.41549 36.3962C8.78962 37.694 9.62937 39.2208 9.62937 40.5186C9.62937 41.8164 10.2401 43.0378 11.1562 43.5722C11.9959 44.1066 12.683 45.3281 12.683 46.2442C12.683 47.2366 13.0647 48 13.4464 48C13.9045 48 14.2098 47.3129 14.2098 46.4732C14.2098 45.2517 14.7442 44.9464 16.5 44.9464C18.2559 44.9464 18.7903 45.2517 18.7903 46.4732C18.7903 47.3129 19.172 48 19.5537 48C20.0117 48 20.3171 47.1603 20.3171 46.0915C20.3171 45.0227 20.9278 43.8776 21.8439 43.4195C22.76 42.9615 23.3707 41.8164 23.3707 40.6713C23.3707 39.5262 24.2868 37.7703 25.5846 36.5489C28.0275 34.106 28.7146 31.5104 28.7146 25.0977C28.7146 21.2807 28.9436 20.67 30.6231 19.7539C32.3026 18.8378 32.5316 18.2271 32.379 16.0132C32.1499 13.4176 31.9209 13.2649 29.3253 13.0359L26.5007 12.8069L26.2717 7.38666C26.119 2.95889 25.7373 1.81377 24.5158 0.974026C23.1417 0.0579338 22.6837 0.134274 21.2332 1.12671C19.7827 2.11914 19.5537 2.95889 19.5537 7.76836V13.3412L16.5 13.0359L13.4464 12.7305V7.53934C13.4464 2.95889 13.2174 2.11914 11.7669 1.12671C9.62937 -0.400112 9.40035 -0.400112 7.87353 1.27939ZM11.7669 7.76836C11.9959 12.8069 11.9959 12.8832 10.0111 12.8832C8.1789 12.8832 8.10256 12.7305 8.10256 8.07373C8.10256 2.88255 8.48426 2.0428 10.3928 2.34816C11.2325 2.57718 11.6142 3.79864 11.7669 7.76836ZM24.5158 7.92104C24.5158 12.7305 24.3632 13.2649 22.989 13.2649C21.6912 13.2649 21.4622 12.6542 21.2332 8.76079C20.9278 3.41693 21.3859 1.96646 23.1417 2.34816C24.2868 2.57718 24.5158 3.49327 24.5158 7.92104ZM31.0048 16.1659C31.0048 16.7766 30.0124 18.1507 28.7146 19.2195C26.577 21.2044 26.4244 21.5861 26.5007 27.0063C26.577 33.5716 25.5846 35.7855 21.9203 37.3123C19.401 38.3047 18.7903 39.6025 20.6988 39.6025C22.3783 39.6025 22.1493 41.6637 20.3934 42.6561C17.1108 44.3356 11.1562 43.1142 11.1562 40.6713C11.1562 39.8315 11.7669 39.5262 13.5991 39.7552C15.0496 39.9079 16.1183 39.6025 16.271 38.9918C16.5 38.4574 15.8893 38.0757 14.5915 38.0757C11.9959 38.0757 8.33158 36.1672 7.33915 34.335C6.95744 33.4952 6.57574 30.1362 6.57574 26.8536C6.57574 21.0517 6.4994 20.8227 4.28551 19.3722C3.06406 18.5324 1.99529 17.2346 1.99529 16.4712C1.99529 15.2498 3.21674 15.1734 16.5 15.1734C28.1039 15.1734 31.0048 15.4025 31.0048 16.1659Z" fill="black"/>
<path d="M13.9045 22.9604C11.5379 25.6323 9.62939 27.9989 9.62939 28.3042C9.62939 28.6859 10.6982 28.9149 11.996 28.9149C14.3625 28.9149 14.3625 28.9149 13.9045 31.9686C13.6755 33.7244 13.7518 35.0222 14.1335 35.0222C14.8969 35.0222 23.3707 25.6323 23.3707 24.7925C23.3707 24.5635 22.302 24.3345 21.0042 24.3345C18.7903 24.3345 18.714 24.1818 18.8666 21.7389C19.0193 20.2884 18.943 18.838 18.6376 18.6089C18.4086 18.3799 16.271 20.2884 13.9045 22.9604ZM18.5613 26.014L20.4698 26.243L18.6376 28.3042C16.5001 30.8235 15.7367 30.9762 16.271 28.9149C16.5764 27.6935 16.271 27.3881 14.5916 27.3881H12.6067L14.3625 24.8689C15.9657 22.5787 16.1184 22.5787 16.3474 24.1055C16.5001 25.2506 17.1871 25.8613 18.5613 26.014Z" fill="black"/>
</svg>
