<svg width="61" height="50" viewBox="0 0 61 50" fill="none" xmlns="http://www.w3.org/2000/svg">
<path d="M1.87953 2.13333C0.468926 3.69242 0.394684 4.65757 0.394684 23.2924C0.394684 41.853 0.468926 42.8924 1.87953 44.303C2.6962 45.1197 4.18105 45.7879 5.22044 45.7879C6.70529 45.7879 7.0765 46.1591 7.0765 47.6439C7.0765 49.4258 7.29923 49.5 11.531 49.5C15.6144 49.5 15.9856 49.3515 16.431 47.6439L16.8765 45.7879H30.9083H44.9401V47.6439C44.9401 49.5 45.0144 49.5742 49.6174 49.3515C53.6265 49.1288 54.2204 48.9803 54.2204 47.6439C54.2204 46.6045 54.8144 46.0848 56.1507 45.9364C60.531 45.4167 60.6053 44.897 60.6053 23.0697C60.531 3.69242 60.4568 3.02424 58.972 1.76212C57.5613 0.648483 55.0371 0.499996 30.3886 0.499996C3.58711 0.499996 3.43862 0.499996 1.87953 2.13333ZM58.1553 2.87576C59.4174 4.13788 59.4174 42.15 58.1553 43.4121C57.4871 44.0803 50.3598 44.303 30.6856 44.303H4.1068L2.99317 42.5212C1.28559 39.9227 1.65681 3.76666 3.36438 2.72727C5.07196 1.61363 57.0416 1.76212 58.1553 2.87576ZM14.5007 46.9758C14.5007 47.7924 13.8326 48.0152 11.7538 47.8667C7.89317 47.5697 7.5962 45.7879 11.4568 45.7879C13.6841 45.7879 14.5007 46.0848 14.5007 46.9758ZM52.3644 46.9758C52.3644 47.7924 51.6962 48.0152 49.6174 47.8667C45.7568 47.5697 45.4598 45.7879 49.3204 45.7879C51.5477 45.7879 52.3644 46.0848 52.3644 46.9758Z" fill="black"/>
<path d="M14.8723 8.44333C3.36475 14.9024 3.66172 32.0524 15.392 37.9176C22.9648 41.7039 31.5026 39.8479 36.4026 33.3145C42.342 25.5933 40.4117 14.3085 32.1708 8.88878C29.7208 7.18121 28.0875 6.80999 23.8557 6.58727C19.2526 6.43878 18.139 6.66151 14.8723 8.44333ZM29.7208 9.48272C42.0451 15.8676 40.7829 32.6464 27.642 37.5464C24.5238 38.7342 20.4405 38.5115 17.0254 36.9524C4.92384 31.4585 4.92384 14.8282 17.0254 9.33423C21.1087 7.47817 26.0087 7.55242 29.7208 9.48272Z" fill="black"/>
<path d="M19.5499 12.0824C18.4363 12.6763 17.3227 13.9385 17.0999 14.8294C16.803 15.7203 15.6893 16.9082 14.5757 17.4279C12.4227 18.393 10.7893 20.9915 10.7893 23.5157C10.7893 25.2233 14.2787 29.4551 15.6893 29.4551C16.2833 29.4551 16.7287 29.9006 16.7287 30.4945C16.7287 31.9794 20.9605 35.3945 22.8166 35.3945C25.0439 35.3945 28.6075 33.0188 29.053 31.3112C29.2757 30.4945 30.3893 29.3809 31.503 28.8612C33.5075 27.9703 35.2893 25.2976 35.2893 23.0703C35.2893 20.9173 32.9878 17.5763 31.206 17.1309C30.1666 16.9082 29.3499 16.1657 29.3499 15.5718C29.3499 13.8642 25.5636 10.8945 23.4848 10.8945C22.4454 10.9688 20.6636 11.4142 19.5499 12.0824ZM25.1181 13.196C26.6772 14.0127 27.8651 15.2748 27.8651 16.0915C27.8651 16.3142 26.009 17.5021 23.7818 18.69C20.2181 20.6203 19.5499 20.7688 18.956 19.8036C17.7681 17.9476 18.1393 16.0915 20.0696 14.2354C22.0742 12.1567 22.8166 12.0082 25.1181 13.196ZM20.1439 25.3718C20.5151 26.8567 20.2924 27.2279 18.659 27.6733C13.8333 28.8612 10.7893 22.8476 14.6499 19.6551C16.0605 18.393 16.209 18.393 17.9166 20.9173C18.8818 22.4021 19.8469 24.3324 20.1439 25.3718ZM32.2454 20.2491C33.1363 21.3627 33.8045 22.6248 33.8045 23.1445C33.8045 24.1839 30.9833 27.9703 30.2409 27.9703C29.9439 27.9703 29.3499 27.3021 28.9787 26.5597C25.3409 19.5067 25.3409 19.6551 26.4545 18.987C28.3848 17.7991 30.6863 18.3188 32.2454 20.2491ZM24.7469 22.996C25.0439 24.4809 22.8909 25.5203 21.7772 24.4067C20.6636 23.293 21.703 21.14 23.1878 21.437C23.9302 21.5854 24.5984 22.2536 24.7469 22.996ZM27.4196 26.9309C28.6818 30.1976 26.5287 33.3157 23.0393 33.3157C21.9999 33.3157 20.4409 32.7218 19.6984 32.0536C18.1393 30.643 17.7681 29.4551 18.956 29.4551C19.3272 29.4551 20.8863 28.6385 22.3712 27.5991C25.5636 25.446 26.7515 25.2976 27.4196 26.9309Z" fill="black"/>
<path d="M44.7184 8.66679C38.9275 13.1956 44.0502 22.0304 51.1032 19.5804C53.7017 18.6895 55.5578 15.2001 54.9638 12.3047C54.3699 9.63194 51.326 7.18194 48.6532 7.18194C47.5396 7.18194 45.7578 7.85012 44.7184 8.66679ZM51.4744 9.85467C53.4047 11.191 53.7017 15.3486 51.9199 17.1304C49.0987 20.0259 44.1987 17.6501 44.1987 13.4183C44.1987 10.8941 46.2775 8.66679 48.6532 8.66679C49.3214 8.66679 50.5835 9.18649 51.4744 9.85467Z" fill="black"/>
<path d="M44.1984 24.9998C44.1984 25.4452 46.203 25.7422 48.653 25.7422C51.103 25.7422 53.1075 25.4452 53.1075 24.9998C53.1075 24.5543 51.103 24.2573 48.653 24.2573C46.203 24.2573 44.1984 24.5543 44.1984 24.9998Z" fill="black"/>
<path d="M44.9408 30.0483C44.4954 30.1968 44.1984 30.6422 44.1984 31.0135C44.1984 31.3847 46.203 31.6816 48.653 31.6816C51.103 31.6816 53.1075 31.3847 53.1075 31.0135C53.1075 30.3453 46.4257 29.6029 44.9408 30.0483Z" fill="black"/>
<path d="M44.1984 36.0627C44.1984 37.1021 45.3121 37.2506 49.3954 37.0278C54.5924 36.6566 54.0727 35.3945 48.653 35.3945C46.203 35.3945 44.1984 35.6915 44.1984 36.0627Z" fill="black"/>
</svg>
