<svg width="37" height="50" viewBox="0 0 37 50" fill="none" xmlns="http://www.w3.org/2000/svg">
<path d="M2.60005 0.807339C1.74735 1.19816 1.19665 1.76662 0.823592 2.63709C0.592653 3.22332 0.557124 5.74589 0.557124 24.2743C0.557124 47.013 0.50383 45.8938 1.51641 46.8353C1.96052 47.2439 2.1737 47.2794 3.95016 47.3327L5.88649 47.4038V48.1144C5.88649 49.0204 6.15296 49.5 6.66813 49.5C7.2366 49.5 7.44977 49.198 7.52083 48.2565L7.57413 47.4571L18.5526 47.4038L29.5134 47.3683V48.221C29.5134 49.1447 29.7265 49.5 30.3128 49.5C30.899 49.5 31.1122 49.1447 31.1122 48.221V47.3683H32.8886C34.9316 47.3683 35.5 47.1728 36.0685 46.2313L36.4415 45.6273L36.406 24.15L36.3527 2.65485L35.8731 2.01533C35.5888 1.6778 35.1092 1.19816 34.8072 0.96722L34.221 0.558636L18.7658 0.523106C4.03898 0.46981 3.2751 0.487576 2.60005 0.807339ZM12.566 3.04567C12.8324 4.18261 12.8324 7.23811 12.566 8.37504L12.3706 9.26327L7.25436 9.31656L2.13817 9.35209L2.19146 6.26106C2.24476 3.47202 2.28029 3.13449 2.60005 2.77921C2.79546 2.56603 3.11522 2.31733 3.31063 2.2285C3.50604 2.15744 5.62002 2.10415 8.01824 2.12192L12.3706 2.15744L12.566 3.04567ZM22.8339 2.90356C22.6029 4.14708 22.6385 8.09081 22.8872 8.76586L23.1004 9.33433L18.5704 9.38762C14.1115 9.44091 14.0404 9.44091 14.1293 9.08562C14.5911 7.13152 14.6089 4.39578 14.1293 2.5305L14.0227 2.06862H18.4993H22.976L22.8339 2.90356ZM34.2387 2.67262L34.8427 3.27661V6.31435V9.35209H29.7976C25.1255 9.35209 24.7347 9.33433 24.6459 9.03233C24.1307 7.23811 24.0774 4.73331 24.5393 2.90356L24.7525 2.06862H29.1936H33.6347L34.2387 2.67262ZM6.34837 12.0523C6.72143 12.5675 7.43201 13.2248 7.91165 13.5268L8.78212 14.0597L18.2151 14.113C26.6888 14.1485 27.7369 14.1308 28.4297 13.8643C29.3357 13.5268 30.4016 12.6208 30.9523 11.7325L31.3253 11.1285H33.084H34.8427V28.2358C34.8427 41.3105 34.7894 45.3964 34.6296 45.5563C34.4697 45.7161 30.6503 45.7694 18.5704 45.7694C4.39427 45.7694 2.68887 45.7339 2.44017 45.4852C2.19146 45.2365 2.15593 43.4245 2.15593 28.1648V11.1285H3.91463H5.65555L6.34837 12.0523ZM28.9627 11.5904C28.0922 12.5497 28.11 12.5497 18.4816 12.5497C8.83541 12.5497 8.942 12.5675 8.00048 11.5549L7.60966 11.1285H18.4993H29.389L28.9627 11.5904Z" fill="black"/>
<path d="M3.91425 3.68581C3.06155 4.53851 3.93202 6.40379 4.85577 5.72874C5.17553 5.4978 5.31765 4.52075 5.10448 3.91675C4.9446 3.38381 4.3406 3.25946 3.91425 3.68581Z" fill="black"/>
<path d="M6.95209 3.66675C6.56127 4.05757 6.49021 4.91027 6.77445 5.46097C6.98762 5.83402 7.66268 5.90508 7.98244 5.58532C8.21338 5.35438 8.26667 4.05757 8.0535 3.7378C7.78703 3.34698 7.30738 3.31145 6.95209 3.66675Z" fill="black"/>
<path d="M9.83232 3.70339C9.70796 3.82774 9.61914 4.25409 9.61914 4.66268C9.61914 5.24891 9.70796 5.49761 10.01 5.69302C10.3475 5.92396 10.4541 5.94173 10.7738 5.72855C11.1824 5.44432 11.3601 4.14751 11.0225 3.73892C10.7738 3.43692 10.1165 3.41916 9.83232 3.70339Z" fill="black"/>
<path d="M17.7557 3.16996C16.9386 3.38314 16.0681 4.32466 15.9082 5.19512C15.7483 6.10112 16.0859 7.09593 16.7964 7.71769C18.5196 9.22768 21.1665 8.01969 21.1665 5.74582C21.1665 3.91607 19.5322 2.69032 17.7557 3.16996ZM19.2835 5.01748C20.1184 5.85241 19.0348 7.25581 18.04 6.61629C17.4893 6.24323 17.3471 5.69253 17.6847 5.17736C18.0222 4.66219 18.8571 4.57336 19.2835 5.01748Z" fill="black"/>
<path d="M26.7603 3.43658C26.032 3.61422 25.9609 3.8274 25.9609 5.69268C25.9609 6.86514 26.032 7.57572 26.1741 7.71784C26.4761 8.01984 32.9069 8.01984 33.2089 7.71784C33.351 7.57572 33.4221 6.86514 33.4221 5.69268C33.4221 3.24117 33.5109 3.31223 29.8691 3.32999C28.3592 3.34776 26.9558 3.40105 26.7603 3.43658ZM31.8232 5.71044V6.3322H29.6915H27.5597V5.71044V5.08868H29.6915H31.8232V5.71044Z" fill="black"/>
<path d="M16.8483 16.2798C11.9453 16.8661 7.50418 20.3301 5.65666 25.0022C2.24587 33.6891 8.4457 43.2997 17.7899 43.7616C21.1474 43.9392 24.0608 43.0688 26.6544 41.1502C32.6943 36.6735 34.1155 28.5196 29.9586 22.2487C27.2051 18.0918 21.929 15.6936 16.8483 16.2798ZM21.5559 18.2162C24.5759 18.9978 27.0097 20.7565 28.7328 23.4034C32.3035 28.8749 30.8823 36.2294 25.5352 39.9777C19.1222 44.4722 10.1333 41.8075 7.25548 34.5596C6.52713 32.7476 6.36725 31.7172 6.45607 29.4434C6.59819 26.0859 7.57524 23.8475 9.97345 21.4138C11.7499 19.6196 13.5974 18.6247 16.2799 18.003C17.2747 17.772 20.2947 17.8964 21.5559 18.2162Z" fill="black"/>
<path d="M16.6143 19.7265C14.3049 20.1706 12.1021 21.4852 10.5033 23.386C8.86897 25.3757 8.14062 27.3653 8.14062 29.9589C8.15839 34.3823 10.7165 38.1306 14.8556 39.7472C17.6091 40.8308 21.1088 40.5999 23.6136 39.161C25.6565 37.9885 28.0014 35.3061 27.8771 34.2579C27.8238 33.8316 27.6461 33.7072 26.4026 33.2098C25.6387 32.9078 24.9459 32.517 24.8926 32.3749C24.8393 32.2328 24.8393 31.0603 24.8926 29.7635L24.9814 27.4186L26.2072 26.9034C27.6816 26.2994 27.9126 26.1218 27.9126 25.6066C27.9126 25.1625 26.4381 22.9774 25.6565 22.3024C23.1694 20.1174 19.7409 19.1403 16.6143 19.7265ZM21.1976 21.6096C22.6543 22.0537 24.2531 23.084 25.2124 24.2032C25.621 24.6828 25.9585 25.127 25.9585 25.1803C25.9585 25.2513 25.4788 25.4645 24.8926 25.6777C23.6669 26.1218 23.2938 26.5837 23.1694 27.7206C23.0806 28.4134 23.0096 28.52 22.5477 28.6088C22.2457 28.6621 21.393 28.9996 20.6291 29.3372C19.4567 29.8701 19.0658 29.9589 17.9289 29.9589C16.7742 29.9589 16.4722 29.8879 15.2997 29.3016C14.0029 28.6621 13.9141 28.6443 11.8889 28.6266C10.7343 28.6266 9.79273 28.6088 9.79273 28.6088C9.79273 28.5911 9.95261 28.0581 10.148 27.4364C11.0007 24.6828 13.0081 22.6399 15.9215 21.5918C17.1828 21.1299 19.7054 21.1477 21.1976 21.6096ZM14.678 30.8116C16.8453 31.842 19.0125 31.8597 21.162 30.8649C23.1872 29.9412 23.0629 29.9056 23.1339 31.54C23.2227 33.2631 23.5425 33.7961 24.8571 34.329C26.0295 34.7909 26.0473 34.8264 25.6565 35.3061C24.413 36.9226 22.2457 38.2727 20.3271 38.6813C18.8704 38.9656 16.8808 38.7879 15.4063 38.2372C12.4752 37.1358 10.2724 34.4001 9.86379 31.4156C9.7572 30.5629 9.77496 30.5274 10.2546 30.3497C10.5388 30.2254 11.3738 30.1721 12.1021 30.1899C13.1858 30.2254 13.6654 30.332 14.678 30.8116Z" fill="black"/>
</svg>
