<svg width="35" height="50" viewBox="0 0 35 50" fill="none" xmlns="http://www.w3.org/2000/svg">
<path d="M6.87977 1.45075C6.25813 2.21866 6.11186 2.95 6.11186 4.99776V7.55746L2.96708 12.2746C1.21186 14.944 -0.0679924 17.2478 0.0417091 17.5403C0.187978 17.9425 1.06559 18.0522 3.91783 18.0522H7.57454L8.08648 19.259C8.70813 20.7948 10.0977 21.709 11.8529 21.709C13.6081 21.709 14.8148 20.9045 15.4731 19.2955L15.985 18.0522H19.6417C22.5671 18.0522 23.3716 17.9425 23.5178 17.5037C23.6641 17.1746 22.4574 15.0172 20.5925 12.2015C18.3253 8.76418 17.4477 7.11866 17.4477 6.27761V5.14403L20.4828 5.32687C23.8835 5.54627 25.7119 6.27761 27.5768 8.25224C29.8074 10.556 29.8805 11.141 29.8805 27.0478V41.4552H23.6641C18.0693 41.4552 17.4111 41.3821 17.1917 40.797C16.6066 39.1515 15.985 38.8955 12.6208 38.8955C9.87828 38.8955 9.2932 39.0052 8.67156 39.6269C8.26932 40.0291 7.94022 40.6142 7.94022 40.9067C7.94022 41.309 7.53798 41.4552 6.58723 41.4552C3.25962 41.4552 1.24843 43.7224 1.43126 47.306L1.54096 49.3172L18.0693 49.4269L34.5611 49.5L34.8171 48.3664C35.4022 45.8067 34.1589 42.5522 32.4402 42.0037C31.782 41.7843 31.7454 41.2358 31.6357 26.5358L31.526 11.2873L30.5387 9.42239C29.5148 7.44776 27.7231 5.69254 25.7484 4.63209C24.9439 4.22985 23.4081 3.97388 21.0313 3.86418C17.6305 3.71791 17.4477 3.68135 17.4477 2.91343C17.4477 2.43806 17.082 1.74329 16.6066 1.30448C15.8387 0.573135 15.3633 0.500004 11.7066 0.500004C7.72081 0.500004 7.61111 0.536568 6.87977 1.45075ZM15.6193 4.52239V6.71642H11.7798H7.94022V4.52239V2.32836H11.7798H15.6193V4.52239ZM18.6178 12.3112L21.1044 16.041L16.5335 16.1507C14.0469 16.1873 9.87828 16.1873 7.24544 16.1507L2.49171 16.041L4.94171 12.3112L7.39171 8.61791L11.7798 8.58134L16.1678 8.54478L18.6178 12.3112ZM13.791 18.7836C13.1693 19.9537 12.1089 20.356 10.9387 19.8075C10.3902 19.5515 9.91484 19.0396 9.84171 18.6739C9.73201 18.1254 10.0245 18.0522 11.9626 18.0522C14.0469 18.0522 14.1566 18.0888 13.791 18.7836ZM15.0342 40.5776C16.3872 41.0896 15.4365 41.4552 12.6939 41.4552C10.0245 41.4552 9.36634 41.2358 10.0245 40.6142C10.3171 40.2851 14.2663 40.2851 15.0342 40.5776ZM32.2939 44.1978C33.0253 44.9291 33.2081 45.441 33.0984 46.5015L32.9887 47.8545L18.1059 47.9642L3.18649 48.0373V46.4649C3.18649 44.856 3.66186 43.9052 4.64917 43.5396C4.94171 43.4299 11.085 43.3201 18.2887 43.3201L31.3798 43.2836L32.2939 44.1978Z" fill="black"/>
</svg>
