<svg width="87" height="48" viewBox="0 0 87 48" fill="none" xmlns="http://www.w3.org/2000/svg">
<path d="M34.6356 1.81184C33.4692 4.8444 34.7522 7.76032 37.4349 8.11023C39.7676 8.46014 40.0009 9.15996 40.0009 14.7585C40.0009 18.2576 39.5343 21.4068 38.8345 21.7567C38.2513 22.1066 37.6682 23.5063 37.6682 24.7893C37.6682 26.1889 36.8517 27.0054 35.3354 27.0054C34.1691 27.0054 32.6528 27.8218 32.0696 28.9882C31.1365 30.6211 29.1537 30.7378 15.6238 30.1546C7.22596 29.8047 0.344391 29.9213 0.344391 30.5045C0.344391 31.0877 1.74403 32.6039 3.61022 34.0036C6.52614 36.453 7.57587 36.5696 19.3562 35.8698L31.8363 35.17V38.2025C31.8363 39.8354 32.886 42.7513 34.2857 44.6175C36.3852 47.6501 37.3182 48 43.0334 48C49.6817 48 53.764 45.5506 54.2306 41.2351C54.2306 40.1853 54.3472 38.4358 54.4639 37.5027C54.5805 36.1031 57.2631 35.8698 70.6764 36.2197C80.8238 36.453 86.6556 36.1031 86.6556 35.4032C86.6556 34.7034 84.906 33.1871 82.9232 31.9041C79.5408 29.8047 77.6746 29.5714 66.5941 30.1546C55.3969 30.7378 53.9973 30.6211 53.9973 28.8716C53.9973 27.8218 53.0642 27.0054 51.6646 27.0054C50.1483 27.0054 49.3318 26.1889 49.3318 24.7893C49.3318 23.5063 48.8653 22.1066 48.1655 21.7567C47.5823 21.4068 46.9991 18.141 46.9991 14.6419C46.9991 9.15996 47.349 8.3435 49.2152 8.3435C51.7812 8.3435 53.2975 5.07767 52.1311 2.04512C51.198 -0.520893 35.5687 -0.754166 34.6356 1.81184ZM50.4982 4.8444C50.4982 6.94386 49.6817 7.17714 43.5 7.17714C37.3182 7.17714 36.5018 6.94386 36.5018 4.8444C36.5018 2.74494 37.3182 2.51166 43.5 2.51166C49.6817 2.51166 50.4982 2.74494 50.4982 4.8444ZM44.6664 14.7585C44.6664 18.2576 44.1998 21.1735 43.5 21.1735C42.9168 21.1735 42.3336 18.2576 42.3336 14.7585C42.3336 11.2594 42.9168 8.3435 43.5 8.3435C44.1998 8.3435 44.6664 11.2594 44.6664 14.7585ZM46.9991 24.6726C46.9991 26.4222 46.1826 27.0054 43.6166 27.0054C40.0009 27.0054 38.1347 25.4891 39.4177 23.5063C39.7676 22.8065 41.6338 22.3399 43.6166 22.3399C46.1826 22.3399 46.9991 22.9231 46.9991 24.6726ZM52.8309 29.3381C52.8309 29.9213 51.0814 31.3209 49.0986 32.4873L45.2495 34.5868L49.0986 34.9367C56.5633 35.6365 52.5977 37.5027 43.5 37.5027C33.7025 37.5027 31.8363 36.453 37.6682 34.0036C41.6338 32.3707 41.2839 30.5045 36.9683 30.5045C35.4521 30.5045 34.1691 29.9213 34.1691 29.3381C34.1691 28.6383 38.0181 28.1718 43.5 28.1718C48.7486 28.1718 52.8309 28.6383 52.8309 29.3381ZM33.0027 32.8372C34.9855 33.4204 32.0696 33.887 24.2549 34.1202C7.69251 34.4701 6.05959 34.3535 4.65995 32.9539C3.14367 31.4376 28.3372 31.3209 33.0027 32.8372ZM81.4069 32.9539C81.8735 33.6537 81.9901 34.3535 81.8735 34.4701C81.6402 34.7034 74.642 34.4701 66.2442 34.1202C54.5805 33.6537 52.3644 33.3038 56.9132 32.7206C66.944 31.5542 80.5905 31.5542 81.4069 32.9539ZM52.8309 39.8354C52.8309 40.5352 48.9819 41.0018 43.5 41.0018C38.0181 41.0018 34.1691 40.5352 34.1691 39.8354C34.1691 39.1356 38.0181 38.6691 43.5 38.6691C48.9819 38.6691 52.8309 39.1356 52.8309 39.8354ZM50.7315 44.7342C48.8653 46.6004 38.1347 46.6004 36.3852 44.7342C35.2188 43.5678 36.6184 43.3345 43.5 43.3345C50.1483 43.3345 51.7812 43.6844 50.7315 44.7342Z" fill="black"/>
</svg>
