<svg width="39" height="50" viewBox="0 0 39 50" fill="none" xmlns="http://www.w3.org/2000/svg">
<path d="M12.6479 1.70989C12.6479 4.04898 15.0273 7.07368 17.3261 7.71894L18.4957 8.00125L18.6166 12.9214L18.7376 17.8013L16.1969 19.0918C10.4701 21.9552 5.38864 26.593 3.25119 30.7873C2.08164 33.1264 0.992754 37.8046 1.51703 38.2885C1.67835 38.4902 4.58206 38.6515 7.92939 38.7321L14.0594 38.8935L14.6644 40.1437C15.471 41.8778 17.6487 43.249 19.5039 43.249C21.359 43.249 23.5368 41.8375 24.3434 40.1437L24.9483 38.8128H30.7961C34.0224 38.8128 36.8858 38.6515 37.2084 38.4498C37.7327 38.1272 37.7327 37.6433 37.3294 35.5461C36.1599 29.2144 31.4817 23.77 23.4158 19.4548L20.2701 17.7609L20.3911 12.8811L20.5121 8.04158L21.722 7.63829C24.1417 6.87203 26.3599 4.04898 26.3599 1.70989V0.500008H19.5039H12.6479V1.70989ZM24.908 2.03252C25.2306 2.5568 23.9804 4.69425 22.8512 5.50084C21.3187 6.63005 18.415 6.79137 16.7212 5.82347C15.35 5.09755 13.6965 2.67779 14.0998 2.03252C14.3821 1.62923 24.6257 1.5889 24.908 2.03252ZM22.7302 20.705C28.8199 23.8507 33.6998 28.8111 35.2323 33.328C36.6841 37.6029 38.378 37.1996 19.4636 37.1996H2.8479L3.1302 35.5461C3.73514 31.6745 7.16313 26.835 11.5187 23.649C13.2125 22.3585 18.8989 19.0918 19.4232 19.0515C19.5039 19.0515 20.9961 19.7774 22.7302 20.705ZM23.1335 39.2564C23.1335 40.1033 21.964 41.1116 20.4315 41.6762C19.4232 41.9988 18.8989 41.9585 17.931 41.4745C16.7212 40.8293 15.3903 39.2968 15.6323 38.8531C15.7129 38.7321 17.4471 38.6112 19.4636 38.6112C22.5689 38.6112 23.1335 38.7321 23.1335 39.2564Z" fill="black" stroke="black"/>
<path d="M9.90518 42.5232C9.25991 43.1684 9.30024 44.0557 9.94551 44.0557C10.6311 44.0153 11.841 43.0474 11.841 42.4828C11.841 41.8779 10.5101 41.9182 9.90518 42.5232Z" fill="black" stroke="black"/>
<path d="M27.1661 42.6441C27.1661 43.2087 28.3356 44.0557 29.1422 44.0557C29.8682 44.0557 29.6262 42.8861 28.8196 42.4425C27.7307 41.8779 27.1661 41.9182 27.1661 42.6441Z" fill="black" stroke="black"/>
<path d="M13.9389 46.0724C13.2936 47.121 13.3339 48.0889 13.9792 48.0889C14.6245 48.0889 15.5924 46.1934 15.2697 45.6288C14.9068 45.0642 14.5035 45.1852 13.9389 46.0724Z" fill="black" stroke="black"/>
<path d="M23.7388 45.6288C23.4161 46.1934 24.3841 48.0889 25.0293 48.0889C25.6746 48.0889 25.7149 47.121 25.1503 46.0321C24.6664 45.2255 24.1421 45.0238 23.7388 45.6288Z" fill="black" stroke="black"/>
<path d="M18.8587 46.9996C18.4957 48.0078 18.8587 49.5 19.5039 49.5C19.9072 49.5 20.1089 49.0967 20.1089 48.1288C20.1089 46.677 19.262 45.951 18.8587 46.9996Z" fill="black" stroke="black"/>
</svg>
