<svg width="49" height="50" viewBox="0 0 49 50" fill="none" xmlns="http://www.w3.org/2000/svg">
<path d="M0 25V49.5H24.5H49V25V0.5H24.5H0V25ZM43.931 4.30172L41.9879 6.41379H24.5H7.01207L5.06897 4.30172L3.12586 2.18966H24.5H45.8741L43.931 4.30172ZM5.91379 25V42.4879L3.80172 44.431L1.68966 46.3741V25V3.62586L3.80172 5.56897L5.91379 7.51207V25ZM47.3103 25.169V46.3741L45.1983 44.431L43.0862 42.4879V25.0845C43.0862 8.52586 43.1707 7.68103 44.9448 5.82241C45.9586 4.72414 46.8879 3.87931 47.0569 3.87931C47.2259 3.87931 47.3103 13.4259 47.3103 25.169ZM41.3966 25V41.8966H24.5H7.60345V25V8.10345H24.5H41.3966V25ZM43.931 45.6983L45.8741 47.8103H24.5H3.12586L5.06897 45.6983L7.01207 43.5862H24.5H41.9879L43.931 45.6983Z" fill="black"/>
</svg>
