<svg width="48" height="48" viewBox="0 0 48 48" fill="none" xmlns="http://www.w3.org/2000/svg">
<path d="M2.32 2.32L0 4.64V24V43.36L2.32 45.68L4.64 48H24H43.36L45.68 45.68L48 43.36V24V4.64L45.68 2.32L43.36 0H24H4.64L2.32 2.32ZM44.4 3.6L46.4 5.52V24.4C46.4 42.16 46.32 43.28 44.8 44.8C43.28 46.32 42.16 46.4 24 46.4C5.36 46.4 4.8 46.32 3.2 44.64C1.68 42.96 1.6 41.92 1.6 23.92V4.88L3.68 3.28C5.68 1.68 6.8 1.6 24.16 1.6H42.48L44.4 3.6Z" fill="black"/>
<path d="M23.2613 37.1804L23.2612 37.1804C20.0155 37.0026 16.9773 35.6396 14.6564 33.3099C12.3257 30.9754 10.9865 27.9678 10.8185 24.6993L23.2613 37.1804ZM23.2613 37.1804C28.5458 37.4667 33.4804 34.5986 35.8268 29.8736L35.8268 29.8735C36.7747 27.9638 37.2 26.1294 37.2 23.9743L37.2 23.9738C37.1951 21.8382 36.7843 20.0672 35.8317 18.1479C33.8654 14.1635 30.0567 11.4636 25.6086 10.8862L25.6082 10.8862C24.2956 10.7178 22.536 10.8018 21.2158 11.0885L21.2154 11.0885M23.2613 37.1804L21.2154 11.0885M21.2154 11.0885C19.1855 11.5328 17.0931 12.5533 15.5593 13.849M21.2154 11.0885L15.5593 13.849M36.3379 23.6537L36.3379 23.6529C36.3091 22.3574 36.2144 21.7421 35.8639 20.5038C35.147 17.9768 33.3555 15.4671 31.1593 13.9175C29.5603 12.793 27.8279 12.0942 25.8036 11.7633L36.3379 23.6537ZM36.3379 23.6537C36.3764 25.1377 36.2616 26.0898 35.898 27.3716M36.3379 23.6537L35.898 27.3716M22.75 11.7014L22.7487 11.7016C19.0082 12.1037 15.7248 14.0991 13.6808 17.2042C12.7089 18.6829 12.1154 20.1937 11.7891 22.016C11.6615 22.7346 11.6129 24.4555 11.6939 25.2565C11.9095 27.2475 12.5699 29.0987 13.6761 30.7834C14.1989 31.5792 14.5697 32.0354 15.241 32.7063L15.2413 32.7067C17.209 34.683 19.717 35.9126 22.4849 36.2717C23.1741 36.3571 24.7812 36.3571 25.4703 36.2717C27.4592 36.0178 29.2197 35.3671 30.8472 34.2811M22.75 11.7014L35.8979 27.3718C35.084 30.2236 33.3278 32.625 30.8472 34.2811M22.75 11.7014C23.0761 11.6642 23.6847 11.6541 24.2974 11.6668M22.75 11.7014L24.2974 11.6668M30.8472 34.2811L30.9582 34.4475M30.8472 34.2811L30.9582 34.4475M30.9582 34.4475C33.478 32.7651 35.2633 30.3243 36.0903 27.4264M30.9582 34.4475C29.3042 35.5512 27.514 36.2125 25.4952 36.4701L36.0903 27.4264M36.0903 27.4264C36.46 26.1234 36.5768 25.1509 36.5379 23.6485L36.0903 27.4264ZM36.0903 27.4264L35.898 27.3716M36.0903 27.4264L35.898 27.3716M15.5593 13.849C12.3063 16.5922 10.6012 20.4983 10.8185 24.6993L15.5593 13.849ZM24.2974 11.6668C24.9106 11.6796 25.5049 11.7147 25.8035 11.7633L24.2974 11.6668Z" fill="black" stroke="black" stroke-width="0.4"/>
<path d="M17.3132 27.3887L17.3133 27.3885C17.8136 26.885 18.1288 26.5741 18.3499 26.3743C18.5716 26.174 18.7067 26.0778 18.8471 26.0103C19.4217 25.7307 20.0893 25.8225 20.5672 26.242L20.5675 26.2423C21.1516 26.7582 21.3084 27.5015 20.9835 28.2003L20.9831 28.2011C20.968 28.2332 20.9429 28.2688 20.9184 28.301C20.8919 28.336 20.8581 28.3772 20.8189 28.4231C20.7404 28.5149 20.636 28.63 20.5149 28.7595C20.2723 29.0188 19.9586 29.3399 19.6405 29.6563C19.3225 29.9727 18.999 30.2856 18.7369 30.5283C18.6059 30.6496 18.4893 30.7542 18.3958 30.8334C18.3491 30.8729 18.3072 30.907 18.2714 30.9339C18.2382 30.9589 18.2028 30.9836 18.171 30.9991M17.3132 27.3887L18.1053 30.8642M17.3132 27.3887C16.6398 28.068 16.2728 28.4446 16.078 28.7247C15.9775 28.8694 15.9178 28.9948 15.8853 29.1284C15.8536 29.259 15.85 29.3893 15.85 29.5348C15.85 30.2794 16.3182 30.8981 17.0486 31.1012M17.3132 27.3887L17.0891 30.9568M18.171 30.9991C18.1709 30.9991 18.1707 30.9992 18.1706 30.9993L18.1053 30.8642M18.171 30.9991C18.1712 30.999 18.1713 30.9989 18.1715 30.9988L18.1053 30.8642M18.171 30.9991C18.0115 31.0775 17.8114 31.1245 17.6161 31.1421C17.4208 31.1596 17.2168 31.1489 17.0486 31.1012M18.1053 30.8642C17.8281 31.0006 17.3808 31.0396 17.0891 30.9568M17.0486 31.1012C17.0487 31.1012 17.0488 31.1013 17.049 31.1013L17.0891 30.9568M17.0486 31.1012C17.0484 31.1011 17.0483 31.1011 17.0482 31.1011L17.0891 30.9568M19.1992 29.0546L19.1996 29.0542C19.8206 28.4273 20.1234 28.1184 20.271 27.9031C20.341 27.801 20.3695 27.7289 20.3817 27.6603C20.3949 27.5869 20.3917 27.5073 20.3819 27.3791C20.3688 27.2086 20.3261 27.0777 20.2564 26.9728C20.1869 26.8681 20.0839 26.7792 19.9344 26.7031C19.8078 26.6409 19.7032 26.6091 19.6001 26.5996C19.4965 26.5902 19.385 26.6024 19.2435 26.6407C19.2014 26.6522 19.1243 26.693 18.9204 26.8746C18.7217 27.0515 18.4208 27.3443 17.934 27.8294L17.9339 27.8295C17.6092 28.1523 17.3041 28.4664 17.0739 28.7116C16.9586 28.8342 16.8628 28.939 16.7928 29.0186C16.7578 29.0584 16.73 29.0912 16.7097 29.1163C16.691 29.1395 16.6832 29.1508 16.6813 29.1535L19.1992 29.0546ZM19.1992 29.0546C18.8916 29.3676 18.5902 29.6634 18.3521 29.8892M19.1992 29.0546L18.3521 29.8892M18.3521 29.8892C18.233 30.0021 18.1304 30.0969 18.0511 30.1673M18.3521 29.8892L18.0511 30.1673M18.0511 30.1673C17.9685 30.2407 17.9213 30.2783 17.9063 30.2877M18.0511 30.1673L17.9063 30.2877M17.9063 30.2877C17.4609 30.5494 16.8552 30.3529 16.6635 29.8958C16.6259 29.8051 16.6049 29.665 16.6088 29.5162C16.6127 29.3688 16.6404 29.2359 16.6812 29.1536C16.6818 29.1524 16.6824 29.1512 16.683 29.15L17.9063 30.2877Z" fill="black" stroke="black" stroke-width="0.3"/>
<path d="M28.3272 29.6178L28.327 29.6177C27.6355 28.9261 27.2633 28.55 27.069 28.2711C26.9683 28.1265 26.9101 28.0011 26.8797 27.866C26.8503 27.7351 26.8491 27.6027 26.8503 27.4539M28.3272 29.6178L29.0964 25.9816C28.5201 25.724 27.7993 25.8527 27.3383 26.2961L27.3383 26.2961L27.3381 26.2963C27.1697 26.4589 27.0455 26.6251 26.9647 26.8165C26.884 27.0077 26.8503 27.2148 26.8503 27.4539M28.3272 29.6178C28.8968 30.1854 29.2477 30.5256 29.502 30.7381M28.3272 29.6178L29.502 30.7381M26.8503 27.4539C26.8503 27.4541 26.8503 27.4543 26.8503 27.4545H27.0003L26.8503 27.4533C26.8503 27.4535 26.8503 27.4537 26.8503 27.4539ZM29.502 30.7381C29.7612 30.9547 29.9284 31.0458 30.1307 31.1112M29.502 30.7381L30.1307 31.1112M30.1307 31.1112C30.2739 31.1577 30.4785 31.1581 30.6702 31.135C30.8656 31.1113 31.0752 31.0598 31.2336 30.9822L30.1305 31.1112C30.1305 31.1112 30.1306 31.1112 30.1307 31.1112ZM31.3493 29.8616L31.3492 29.8616L31.3471 29.8672C31.3147 29.9571 31.2361 30.0645 31.1287 30.1612C31.0222 30.2569 30.9019 30.329 30.8 30.3599C30.7345 30.3785 30.6677 30.3957 30.6136 30.4075C30.5862 30.4135 30.5638 30.4177 30.5474 30.4201C30.5386 30.4214 30.5337 30.4218 30.5317 30.4219C30.3663 30.4093 30.1787 30.3421 30.0294 30.2403C29.9734 30.2005 29.8058 30.0466 29.5718 29.8208C29.3417 29.5987 29.0585 29.3181 28.7807 29.0376C28.5029 28.7571 28.231 28.4774 28.0235 28.2574C27.9197 28.1473 27.8327 28.0529 27.7693 27.9811C27.7376 27.9451 27.7126 27.9159 27.6948 27.8937C27.6782 27.873 27.6728 27.8646 27.6727 27.8647C27.6726 27.8647 27.6729 27.8653 27.6735 27.8664L27.6735 27.8664L27.673 27.8654C27.3338 27.2018 27.9052 26.4598 28.6454 26.614L28.6456 26.614C28.708 26.6269 28.7424 26.6357 28.7822 26.6554C28.8242 26.6762 28.8792 26.713 28.9708 26.7911C29.1559 26.9492 29.459 27.2486 30.0614 27.8465L30.0619 27.847C30.4228 28.2018 30.7359 28.5211 30.9637 28.7631C31.0778 28.8843 31.1696 28.9852 31.2352 29.0612C31.268 29.0993 31.2933 29.13 31.3111 29.1531C31.3257 29.1722 31.3315 29.1812 31.3327 29.1829C31.3596 29.2504 31.381 29.3801 31.385 29.5248C31.3892 29.6746 31.3735 29.8022 31.3493 29.8616Z" fill="black" stroke="black" stroke-width="0.3"/>
<path d="M23.2201 20.0521L23.2201 20.052C23.0052 19.9865 22.7327 19.8181 22.4906 19.6114L22.49 19.6109L22.4812 19.6033C22.3379 19.4797 22.214 19.3729 22.1197 19.2462C22.0191 19.1111 21.9557 18.9594 21.916 18.7484C21.8405 18.3471 21.8457 17.692 21.8554 16.439L21.8557 16.4009L21.8557 16.4007C21.8657 15.3355 21.8724 14.7798 21.8946 14.4628C21.9057 14.3039 21.9212 14.1953 21.9464 14.1084C21.9728 14.0174 22.008 13.9569 22.0453 13.8964L22.0458 13.8955L22.0458 13.8955C22.6226 12.9726 23.8802 12.5997 24.9201 13.0252L24.9202 13.0252C25.2969 13.1798 25.7365 13.5486 25.9542 13.9013C25.9919 13.9611 26.0272 14.0213 26.0537 14.1125C26.0788 14.1994 26.0943 14.3086 26.1054 14.4678C26.1276 14.7855 26.1343 15.3412 26.1443 16.4006L26.1443 16.4009C26.1543 17.6351 26.1583 18.2858 26.0956 18.684C26.0633 18.8893 26.012 19.0384 25.9295 19.1704C25.8493 19.2984 25.7441 19.4024 25.6236 19.5193L23.2201 20.0521ZM23.2201 20.0521L23.2243 20.0532M23.2201 20.0521L23.2243 20.0532M23.2243 20.0532C23.4053 20.1026 23.7461 20.1498 23.9993 20.1499M23.2243 20.0532L23.9993 20.1499M23.9993 20.1499C24.6049 20.1558 25.2055 19.9253 25.6236 19.5193L23.9993 20.1499ZM24.5161 19.2427L24.5161 19.2427L24.5146 19.2433C24.3833 19.2942 24.1474 19.3416 24 19.3416C23.74 19.3416 23.4729 19.257 23.2525 19.1184C23.031 18.979 22.8694 18.7935 22.8033 18.6029L22.8033 18.6029L22.8027 18.6013C22.7973 18.5863 22.7871 18.5322 22.7783 18.4171C22.77 18.3088 22.7638 18.1616 22.7597 17.9735C22.7513 17.5977 22.7513 17.0657 22.758 16.3693C22.758 16.3693 22.758 16.3692 22.758 16.3692L22.7776 14.3594L22.9453 14.1495C23.2 13.8417 23.5975 13.6824 24.0025 13.6824C24.4077 13.6824 24.8032 13.8418 25.0545 14.1492L25.2224 14.3594L25.242 16.3692C25.2487 17.0657 25.2487 17.5977 25.2403 17.9735C25.2362 18.1616 25.23 18.3088 25.2217 18.4171C25.2129 18.5322 25.2027 18.5863 25.1973 18.6013L25.1973 18.6012L25.1962 18.6045C25.1598 18.7132 25.0691 18.8446 24.9406 18.9668C24.8135 19.0877 24.6612 19.1882 24.5161 19.2427Z" fill="black" stroke="black" stroke-width="0.3"/>
</svg>
