<svg width="57" height="50" viewBox="0 0 57 50" fill="none" xmlns="http://www.w3.org/2000/svg">
<path d="M9.32998 1.83636V3.17273H5.98907C3.00452 3.17273 2.46998 3.30636 1.53452 4.24182C-0.514567 6.29091 -0.470021 10.79 1.66816 12.9282L2.82634 14.0864L2.95998 26.3364L3.04907 38.5864L1.75725 39.7445C-0.470021 41.7936 -0.559112 46.3373 1.53452 48.4309L2.60361 49.5H28.44H54.2763L55.4791 48.4755C57.8845 46.3818 57.2609 40.2791 54.5436 39.2545L53.43 38.8091V26.47V14.0864L54.7663 13.3291C56.5036 12.3491 57.1273 10.6564 56.86 7.67182C56.7263 5.71182 56.4591 5.04364 55.4791 4.19727C54.3209 3.21727 53.9645 3.17273 47.5945 3.17273H40.9573V1.83636V0.5H34.0527H27.1482V1.88091C27.1482 3.17273 27.1036 3.21727 25.2773 3.08364C23.54 2.95 23.3618 2.81636 23.2282 1.70272L23.0945 0.5H16.19H9.32998V1.83636ZM22.2482 7.18182V13.0173L16.3682 12.8836L10.4436 12.75L10.31 7.67182C10.2654 4.86546 10.31 2.28182 10.3991 1.97C10.5773 1.52454 12.0473 1.39091 16.4573 1.39091H22.2482V7.18182ZM39.8436 7.18182V12.75L33.9636 12.8836L28.0391 13.0173V7.49364C28.0391 4.46455 28.1727 1.83636 28.3509 1.65818C28.5291 1.52454 31.1573 1.43546 34.2309 1.48L39.8436 1.61364V7.18182ZM9.32998 8.51818V12.9727H6.47907C2.42543 12.9727 1.3118 12.0373 1.3118 8.51818C1.3118 4.99909 2.42543 4.06364 6.47907 4.06364H9.32998V8.51818ZM27.0591 8.38454L26.9254 12.75H25.1436H23.3618L23.3173 8.74091C23.2727 6.51364 23.3173 4.59818 23.4509 4.37545C23.54 4.19727 24.4309 4.06364 25.4109 4.06364H27.1927L27.0591 8.38454ZM54.0091 4.55364C55.4345 5.31091 55.6573 5.80091 55.6573 8.60727C55.6573 12.75 54.9891 13.0618 46.7482 12.8836L41.18 12.75L41.0463 8.38454L40.9127 4.06364H46.9709C50.6682 4.06364 53.43 4.24182 54.0091 4.55364ZM8.43907 15.4673C8.43907 16.67 8.6618 17.1155 9.32998 17.2936C10.5773 17.6055 10.4436 18.3182 9.1518 18.3182C5.32089 18.3182 3.58361 21.6145 6.43452 23.4855C7.36998 24.0645 7.6818 24.0645 9.81998 23.2182C11.1563 22.7282 12.4036 22.3273 12.5818 22.3273C12.76 22.3273 13.25 23.04 13.6063 23.8864C14.1854 25.3564 15.1209 26.0245 15.1209 25C15.1209 24.7327 15.7445 24.5545 16.4573 24.5545C17.2145 24.5545 17.7936 24.7327 17.7936 25C17.7936 25.2227 18.0163 25.4455 18.2391 25.4455C18.5063 25.4455 18.6845 25.1336 18.6845 24.7773C18.6845 23.7973 19.62 22.3273 21.0009 21.1245C21.6245 20.5455 22.2927 19.4764 22.4709 18.7636C22.6491 18.0064 23.05 17.4273 23.4063 17.4273C23.8518 17.4273 24.03 16.8927 24.03 15.6455C24.03 14.0418 24.1636 13.8636 25.1436 13.8636C26.1236 13.8636 26.2573 14.0418 26.2573 15.4227C26.2573 16.4027 26.5245 17.1155 26.9254 17.2491C27.8609 17.6055 27.7718 18.3182 26.7473 18.3182C25.1882 18.3182 23.1836 19.2982 22.9163 20.1891C22.4709 21.57 23.0054 23.04 24.2527 23.5745C25.1436 23.9755 25.8118 23.9309 27.8163 23.1291C30.2218 22.1936 30.3109 22.1936 30.9345 23.04C31.2909 23.4855 31.6027 24.2427 31.6027 24.6436C31.6027 25.49 32.4936 25.8018 32.4936 25C32.4936 24.7327 33.0727 24.5545 33.7854 24.5545C34.5427 24.5545 35.2554 24.7327 35.3891 25C35.8791 25.8018 36.3691 25.49 36.6363 24.1982C36.77 23.53 37.6163 22.2382 38.4627 21.3473C39.3982 20.3673 40.0663 19.2536 40.0663 18.63C40.0663 17.9173 40.3782 17.4718 40.9573 17.2936C41.6254 17.1155 41.8482 16.67 41.8482 15.4673V13.8636H44.0754C46.7927 13.8636 46.9263 14.3982 44.7436 16.9818L43.14 18.8973L43.2736 23.8418L43.4073 28.7864H44.9663H46.5254V24.2873C46.5254 19.8327 46.57 19.7436 47.9954 17.9618C48.7527 16.9373 49.4209 15.6455 49.4209 15.0218C49.4209 13.9973 49.5991 13.8636 50.98 13.8636H52.5391V26.3364V38.8091L45.7682 38.7645C39.7991 38.7645 39.1309 38.6755 40.4673 38.1855C43.9863 36.9382 44.6991 32.9736 41.4918 32.6618C40.7345 32.5727 40.0663 32.2609 40.0663 31.9491C40.0663 30.7464 38.8191 29.8555 36.28 29.2318C34.32 28.6973 33.34 28.6527 32.5827 28.9645C32.0036 29.2318 31.0682 29.4545 30.4891 29.4545C27.9945 29.4545 26.7473 33.7309 28.2173 37.25L28.8854 38.8091L25.01 38.7645C21.7136 38.7645 21.3573 38.6755 22.4709 38.2745C24.5645 37.5173 25.8118 36.1809 25.8118 34.5327C25.8118 33.1073 25.2327 32.5727 23.5845 32.5727C23.1391 32.5727 22.56 32.0382 22.2482 31.2364C21.8918 30.3455 21.2682 29.8109 20.5109 29.6327C19.8873 29.4991 18.5954 29.1873 17.66 28.92C16.4573 28.5636 15.7 28.5636 14.8982 28.92C14.2745 29.2318 13.2945 29.4545 12.7154 29.4545C9.90907 29.4545 9.06271 33.5527 10.8891 38.0073C11.1563 38.72 10.8445 38.8091 7.59271 38.8091H3.98452V26.3364V13.8636H6.2118H8.43907V15.4673ZM23.1391 14.9773V16.0909H16.4573H9.77543V14.9773V13.8636H16.4573H23.1391V14.9773ZM40.9573 14.9773V16.0909H34.0527H27.1482V14.9773V13.8636H34.0527H40.9573V14.9773ZM48.53 14.71C48.53 15.1555 47.8173 16.4027 46.9709 17.4718C45.8127 18.9418 45.4118 19.8773 45.4118 21.08C45.4118 22.0155 45.2336 22.7727 44.9663 22.7727C44.7436 22.7727 44.5209 21.9264 44.5209 20.8573C44.5209 19.3873 44.8773 18.5855 46.08 17.0264C46.9263 15.9573 47.6391 14.7991 47.6391 14.4873C47.6391 14.1309 47.8618 13.8636 48.0845 13.8636C48.3518 13.8636 48.53 14.22 48.53 14.71ZM21.3573 18.2736C21.3573 19.7882 19.8873 21.0355 17.8382 21.3027C15.9673 21.57 15.9227 21.5255 16.4127 20.59C17.4373 18.7191 16.68 17.9173 13.6509 17.7391C12.0473 17.65 13.1163 17.5609 16.1454 17.5164C21.0009 17.4273 21.3573 17.4718 21.3573 18.2736ZM39.1754 18.1845C39.1309 19.8327 37.0373 21.4364 34.9882 21.4364C33.9191 21.4364 33.8745 21.3473 34.3645 20.3227C35.1663 18.5409 34.1863 17.7836 31.2909 17.9618C29.9991 18.0509 28.93 17.9618 28.93 17.7391C28.93 17.5609 31.2463 17.4273 34.0527 17.4273C38.6409 17.4273 39.1754 17.5164 39.1754 18.1845ZM15.7 19.4318C15.6554 19.8327 10.6218 22.0155 10.4436 21.7482C10.3991 21.7036 10.2209 21.1245 10.0427 20.4564C9.77543 19.3427 9.86452 19.2536 11.4236 19.0755C14.0073 18.8082 15.7891 18.9418 15.7 19.4318ZM33.3845 19.3873C33.3845 19.8327 28.4845 22.1045 28.2173 21.7482C28.2173 21.7036 28.0391 21.1245 27.8609 20.4564C27.5936 19.3427 27.6827 19.2536 29.2418 19.0755C32.8054 18.7191 33.3845 18.7636 33.3845 19.3873ZM8.92907 20.3673C9.68634 21.3027 8.92907 22.55 7.50361 22.55C6.43452 22.55 5.89998 21.5255 6.38998 20.2782C6.7018 19.4318 8.1718 19.4764 8.92907 20.3673ZM26.6582 20.5009C27.2373 21.57 26.3018 22.9509 25.1436 22.7282C23.8963 22.4609 23.2727 21.2136 23.9854 20.3673C24.7873 19.3873 26.1236 19.4764 26.6582 20.5009ZM18.2391 22.7727C18.2391 22.9955 17.3482 23.2182 16.2345 23.2182C15.1209 23.2182 14.23 22.9955 14.23 22.7727C14.23 22.5055 15.1209 22.3273 16.2345 22.3273C17.3482 22.3273 18.2391 22.5055 18.2391 22.7727ZM36.0573 22.7727C36.0573 22.9955 35.1663 23.2182 34.0527 23.2182C32.9391 23.2182 32.0482 22.9955 32.0482 22.7727C32.0482 22.5055 32.9391 22.3273 34.0527 22.3273C35.1663 22.3273 36.0573 22.5055 36.0573 22.7727ZM45.7682 26.0245C45.9018 27.8955 45.8127 28.1182 45.0109 28.1182C44.2091 28.1182 44.0754 27.8509 44.0754 25.8464C44.0754 23.9309 44.2091 23.6191 44.8773 23.7527C45.4563 23.8418 45.6791 24.4209 45.7682 26.0245ZM17.2145 30.1673C17.3927 30.7018 17.8382 30.7909 18.9518 30.6127C19.7536 30.4345 20.5109 30.5236 20.6891 30.7909C20.8673 31.1027 19.3527 31.2364 16.1454 31.2364C12.8491 31.2364 11.5573 31.1027 12.0027 30.7909C12.3591 30.5236 13.2054 30.4791 13.8291 30.6127C14.6309 30.7464 15.0763 30.6127 15.2545 30.1673C15.6109 29.2318 16.8582 29.2764 17.2145 30.1673ZM35.1663 30.7018C35.1663 31.37 34.8991 31.5036 33.8745 31.3255C32.2709 31.1027 32.4936 29.9 34.0973 29.9C34.8545 29.9 35.1663 30.1673 35.1663 30.7018ZM31.3354 30.6127C32.5382 31.0582 32.1372 31.5482 30.6673 31.3255C29.6873 31.1918 29.4645 31.0136 29.8654 30.7464C30.6227 30.2564 30.4891 30.3009 31.3354 30.6127ZM38.0618 30.7909C38.24 31.0582 37.75 31.2364 36.8591 31.1918C35.6563 31.1918 35.5227 31.1027 36.28 30.7909C37.4827 30.2564 37.75 30.2564 38.0618 30.7909ZM21.6245 34.6664C21.4909 35.8245 21.0454 37.2055 20.6891 37.7845C20.0654 38.72 19.6645 38.8091 16.5463 38.8091C14.6754 38.8091 12.8936 38.6309 12.6263 38.4527C11.7354 37.8736 11.1118 36.2255 11.1118 34.3991V32.5727H16.5018H21.9363L21.6245 34.6664ZM39.1754 34.3545C39.1754 35.3791 38.8636 36.76 38.5073 37.4727C37.8391 38.8091 37.75 38.8091 34.0527 38.8091C30.6227 38.8091 30.2218 38.72 29.5982 37.7845C29.2418 37.2055 28.7963 35.8245 28.6627 34.6664L28.3509 32.5727H33.7854H39.1754V34.3545ZM24.8318 34.4882C24.9654 35.2009 23.4509 37.0273 22.6936 37.0273C22.1591 37.0273 22.6936 34.2209 23.3173 33.82C24.03 33.33 24.6536 33.6418 24.8318 34.4882ZM42.2936 34.8C42.2936 35.9582 41.3136 37.0273 40.2445 37.0273C39.7545 37.0273 40.4673 34.2209 41.0909 33.82C42.0263 33.2409 42.2936 33.4191 42.2936 34.8ZM54.0536 40.2345C55.4791 40.9918 55.6573 41.4373 55.6573 44.4664C55.6573 48.9655 57.7063 48.6536 28.0836 48.52C-1.09366 48.3864 1.3118 48.7427 1.3118 44.1545C1.3118 41.3927 1.97998 40.4127 3.98452 40.0118C4.60816 39.9227 15.8782 39.7891 29.1082 39.7891C45.9909 39.7445 53.3854 39.8782 54.0536 40.2345Z" fill="black"/>
<path d="M12.4739 2.88395C12.2957 3.06213 12.1621 5.06668 12.1621 7.38304V11.5703L16.5276 11.4367L20.8485 11.303V7.07122V2.8394L16.8394 2.70577C14.6121 2.66122 12.6521 2.70577 12.4739 2.88395ZM19.7348 7.07122V10.1894H16.3939H13.053V7.07122V3.95304H16.3939H19.7348V7.07122Z" fill="black"/>
<path d="M30.0685 2.97273C29.6676 3.24001 29.534 4.44273 29.6231 7.33819L29.7567 11.3027H34.2112H38.6658L38.7994 7.96183C39.0222 2.52728 39.1112 2.61637 34.5231 2.61637C32.3849 2.61637 30.3803 2.79455 30.0685 2.97273ZM37.5522 7.07092V10.1891H34.2112H30.8703V7.07092V3.95273H34.2112H37.5522V7.07092Z" fill="black"/>
<path d="M44.6797 8.18333V10.2324L48.1542 10.0988L51.5842 9.96515V8.18333V6.40151L48.1542 6.26788L44.6797 6.13424V8.18333ZM50.4706 8.22788C50.4706 9.29697 50.3815 9.34151 48.1542 9.20788C46.1051 9.07424 45.7933 8.9406 45.6597 8.04969C45.5261 7.11424 45.6597 7.06969 47.9761 7.06969C50.337 7.06969 50.4706 7.11424 50.4706 8.22788Z" fill="black"/>
</svg>
