<svg width="49" height="48" viewBox="0 0 49 48" fill="none" xmlns="http://www.w3.org/2000/svg">
<path d="M2.82 2.32L0.5 4.64V24V43.36L2.82 45.68L5.14 48H24.5H43.86L46.18 45.68L48.5 43.36V24V4.64L46.18 2.32L43.86 0H24.5H5.14L2.82 2.32ZM44.9 3.6L46.9 5.52V24.4C46.9 42.16 46.82 43.28 45.3 44.8C43.78 46.32 42.66 46.4 24.5 46.4C5.86 46.4 5.3 46.32 3.7 44.64C2.18 42.96 2.1 41.92 2.1 23.92V4.88L4.18 3.28C6.18 1.68 7.3 1.6 24.66 1.6H42.98L44.9 3.6Z" fill="black"/>
<path d="M23.7613 37.1804L23.7612 37.1804C20.5155 37.0026 17.4773 35.6396 15.1564 33.3099C12.8257 30.9754 11.4865 27.9678 11.3185 24.6993L23.7613 37.1804ZM23.7613 37.1804C29.0458 37.4667 33.9804 34.5986 36.3268 29.8736L36.3268 29.8735C37.2747 27.9638 37.7 26.1294 37.7 23.9743L37.7 23.9738C37.6951 21.8382 37.2843 20.0672 36.3317 18.1479C34.3654 14.1635 30.5567 11.4636 26.1086 10.8862L26.1082 10.8862C24.7956 10.7178 23.036 10.8018 21.7158 11.0885L21.7154 11.0885M23.7613 37.1804L21.7154 11.0885M21.7154 11.0885C19.6855 11.5328 17.5931 12.5533 16.0593 13.849M21.7154 11.0885L16.0593 13.849M36.8379 23.6537L36.8379 23.6529C36.8091 22.3574 36.7144 21.7421 36.3639 20.5038C35.647 17.9768 33.8555 15.4671 31.6593 13.9175C30.0603 12.793 28.3279 12.0942 26.3036 11.7633L36.8379 23.6537ZM36.8379 23.6537C36.8764 25.1377 36.7616 26.0898 36.398 27.3716M36.8379 23.6537L36.398 27.3716M23.25 11.7014L23.2487 11.7016C19.5082 12.1037 16.2248 14.0991 14.1808 17.2042C13.2089 18.6829 12.6154 20.1937 12.2891 22.016C12.1615 22.7346 12.1129 24.4555 12.1939 25.2565C12.4095 27.2475 13.0699 29.0987 14.1761 30.7834C14.6989 31.5792 15.0697 32.0354 15.741 32.7063L15.7413 32.7067C17.709 34.683 20.217 35.9126 22.9849 36.2717C23.6741 36.3571 25.2812 36.3571 25.9703 36.2717C27.9592 36.0178 29.7197 35.3671 31.3472 34.2811M23.25 11.7014L36.3979 27.3718C35.584 30.2236 33.8278 32.625 31.3472 34.2811M23.25 11.7014C23.5761 11.6642 24.1847 11.6541 24.7974 11.6668M23.25 11.7014L24.7974 11.6668M31.3472 34.2811L31.4582 34.4475M31.3472 34.2811L31.4582 34.4475M31.4582 34.4475C33.978 32.7651 35.7633 30.3243 36.5903 27.4264M31.4582 34.4475C29.8042 35.5512 28.014 36.2125 25.9952 36.4701L36.5903 27.4264M36.5903 27.4264C36.96 26.1234 37.0768 25.1509 37.0379 23.6485L36.5903 27.4264ZM36.5903 27.4264L36.398 27.3716M36.5903 27.4264L36.398 27.3716M16.0593 13.849C12.8063 16.5922 11.1012 20.4983 11.3185 24.6993L16.0593 13.849ZM24.7974 11.6668C25.4106 11.6796 26.0049 11.7147 26.3035 11.7633L24.7974 11.6668Z" fill="black" stroke="black" stroke-width="0.4"/>
<path d="M17.8132 27.3887L17.8133 27.3885C18.3136 26.885 18.6288 26.5741 18.8499 26.3743C19.0716 26.174 19.2067 26.0778 19.3471 26.0103C19.9217 25.7307 20.5893 25.8225 21.0672 26.242L21.0675 26.2423C21.6516 26.7582 21.8084 27.5015 21.4835 28.2003L21.4831 28.2011C21.468 28.2332 21.4429 28.2688 21.4184 28.301C21.3919 28.336 21.3581 28.3772 21.3189 28.4231C21.2404 28.5149 21.136 28.63 21.0149 28.7595C20.7723 29.0188 20.4586 29.3399 20.1405 29.6563C19.8225 29.9727 19.499 30.2856 19.2369 30.5283C19.1059 30.6496 18.9893 30.7542 18.8958 30.8334C18.8491 30.8729 18.8072 30.907 18.7714 30.9339C18.7382 30.9589 18.7028 30.9836 18.671 30.9991M17.8132 27.3887L18.6053 30.8642M17.8132 27.3887C17.1398 28.068 16.7728 28.4446 16.578 28.7247C16.4775 28.8694 16.4178 28.9948 16.3853 29.1284C16.3536 29.259 16.35 29.3893 16.35 29.5348C16.35 30.2794 16.8182 30.8981 17.5486 31.1012M17.8132 27.3887L17.5891 30.9568M18.671 30.9991C18.6709 30.9991 18.6707 30.9992 18.6706 30.9993L18.6053 30.8642M18.671 30.9991C18.6712 30.999 18.6713 30.9989 18.6715 30.9988L18.6053 30.8642M18.671 30.9991C18.5115 31.0775 18.3114 31.1245 18.1161 31.1421C17.9208 31.1596 17.7168 31.1489 17.5486 31.1012M18.6053 30.8642C18.3281 31.0006 17.8808 31.0396 17.5891 30.9568M17.5486 31.1012C17.5487 31.1012 17.5488 31.1013 17.549 31.1013L17.5891 30.9568M17.5486 31.1012C17.5484 31.1011 17.5483 31.1011 17.5482 31.1011L17.5891 30.9568M19.6992 29.0546L19.6996 29.0542C20.3206 28.4273 20.6234 28.1184 20.771 27.9031C20.841 27.801 20.8695 27.7289 20.8817 27.6603C20.8949 27.5869 20.8917 27.5073 20.8819 27.3791C20.8688 27.2086 20.8261 27.0777 20.7564 26.9728C20.6869 26.8681 20.5839 26.7792 20.4344 26.7031C20.3078 26.6409 20.2032 26.6091 20.1001 26.5996C19.9965 26.5902 19.885 26.6024 19.7435 26.6407C19.7014 26.6522 19.6243 26.693 19.4204 26.8746C19.2217 27.0515 18.9208 27.3443 18.434 27.8294L18.4339 27.8295C18.1092 28.1523 17.8041 28.4664 17.5739 28.7116C17.4586 28.8342 17.3628 28.939 17.2928 29.0186C17.2578 29.0584 17.23 29.0912 17.2097 29.1163C17.191 29.1395 17.1832 29.1508 17.1813 29.1535L19.6992 29.0546ZM19.6992 29.0546C19.3916 29.3676 19.0902 29.6634 18.8521 29.8892M19.6992 29.0546L18.8521 29.8892M18.8521 29.8892C18.733 30.0021 18.6304 30.0969 18.5511 30.1673M18.8521 29.8892L18.5511 30.1673M18.5511 30.1673C18.4685 30.2407 18.4213 30.2783 18.4063 30.2877M18.5511 30.1673L18.4063 30.2877M18.4063 30.2877C17.9609 30.5494 17.3552 30.3529 17.1635 29.8958C17.1259 29.8051 17.1049 29.665 17.1088 29.5162C17.1127 29.3688 17.1404 29.2359 17.1812 29.1536C17.1818 29.1524 17.1824 29.1512 17.183 29.15L18.4063 30.2877Z" fill="black" stroke="black" stroke-width="0.3"/>
<path d="M28.8272 29.6178L28.827 29.6177C28.1355 28.9261 27.7633 28.55 27.569 28.2711C27.4683 28.1265 27.4101 28.0011 27.3797 27.866C27.3503 27.7351 27.3491 27.6027 27.3503 27.4539M28.8272 29.6178L29.5964 25.9816C29.0201 25.724 28.2993 25.8527 27.8383 26.2961L27.8383 26.2961L27.8381 26.2963C27.6697 26.4589 27.5455 26.6251 27.4647 26.8165C27.384 27.0077 27.3503 27.2148 27.3503 27.4539M28.8272 29.6178C29.3968 30.1854 29.7477 30.5256 30.002 30.7381M28.8272 29.6178L30.002 30.7381M27.3503 27.4539C27.3503 27.4541 27.3503 27.4543 27.3503 27.4545H27.5003L27.3503 27.4533C27.3503 27.4535 27.3503 27.4537 27.3503 27.4539ZM30.002 30.7381C30.2612 30.9547 30.4284 31.0458 30.6307 31.1112M30.002 30.7381L30.6307 31.1112M30.6307 31.1112C30.7739 31.1577 30.9785 31.1581 31.1702 31.135C31.3656 31.1113 31.5752 31.0598 31.7336 30.9822L30.6305 31.1112C30.6305 31.1112 30.6306 31.1112 30.6307 31.1112ZM31.8493 29.8616L31.8492 29.8616L31.8471 29.8672C31.8147 29.9571 31.7361 30.0645 31.6287 30.1612C31.5222 30.2569 31.4019 30.329 31.3 30.3599C31.2345 30.3785 31.1677 30.3957 31.1136 30.4075C31.0862 30.4135 31.0638 30.4177 31.0474 30.4201C31.0386 30.4214 31.0337 30.4218 31.0317 30.4219C30.8663 30.4093 30.6787 30.3421 30.5294 30.2403C30.4734 30.2005 30.3058 30.0466 30.0718 29.8208C29.8417 29.5987 29.5585 29.3181 29.2807 29.0376C29.0029 28.7571 28.731 28.4774 28.5235 28.2574C28.4197 28.1473 28.3327 28.0529 28.2693 27.9811C28.2376 27.9451 28.2126 27.9159 28.1948 27.8937C28.1782 27.873 28.1728 27.8646 28.1727 27.8647C28.1726 27.8647 28.1729 27.8653 28.1735 27.8664L28.1735 27.8664L28.173 27.8654C27.8338 27.2018 28.4052 26.4598 29.1454 26.614L29.1456 26.614C29.208 26.6269 29.2424 26.6357 29.2822 26.6554C29.3242 26.6762 29.3792 26.713 29.4708 26.7911C29.6559 26.9492 29.959 27.2486 30.5614 27.8465L30.5619 27.847C30.9228 28.2018 31.2359 28.5211 31.4637 28.7631C31.5778 28.8843 31.6696 28.9852 31.7352 29.0612C31.768 29.0993 31.7933 29.13 31.8111 29.1531C31.8257 29.1722 31.8315 29.1812 31.8327 29.1829C31.8596 29.2504 31.881 29.3801 31.885 29.5248C31.8892 29.6746 31.8735 29.8022 31.8493 29.8616Z" fill="black" stroke="black" stroke-width="0.3"/>
<path d="M23.7201 20.0521L23.7201 20.052C23.5052 19.9865 23.2327 19.8181 22.9906 19.6114L22.99 19.6109L22.9812 19.6033C22.8379 19.4797 22.714 19.3729 22.6197 19.2462C22.5191 19.1111 22.4557 18.9594 22.416 18.7484C22.3405 18.3471 22.3457 17.692 22.3554 16.439L22.3557 16.4009L22.3557 16.4007C22.3657 15.3355 22.3724 14.7798 22.3946 14.4628C22.4057 14.3039 22.4212 14.1953 22.4464 14.1084C22.4728 14.0174 22.508 13.9569 22.5453 13.8964L22.5458 13.8955L22.5458 13.8955C23.1226 12.9726 24.3802 12.5997 25.4201 13.0252L25.4202 13.0252C25.7969 13.1798 26.2365 13.5486 26.4542 13.9013C26.4919 13.9611 26.5272 14.0213 26.5537 14.1125C26.5788 14.1994 26.5943 14.3086 26.6054 14.4678C26.6276 14.7855 26.6343 15.3412 26.6443 16.4006L26.6443 16.4009C26.6543 17.6351 26.6583 18.2858 26.5956 18.684C26.5633 18.8893 26.512 19.0384 26.4295 19.1704C26.3493 19.2984 26.2441 19.4024 26.1236 19.5193L23.7201 20.0521ZM23.7201 20.0521L23.7243 20.0532M23.7201 20.0521L23.7243 20.0532M23.7243 20.0532C23.9053 20.1026 24.2461 20.1498 24.4993 20.1499M23.7243 20.0532L24.4993 20.1499M24.4993 20.1499C25.1049 20.1558 25.7055 19.9253 26.1236 19.5193L24.4993 20.1499ZM25.0161 19.2427L25.0161 19.2427L25.0146 19.2433C24.8833 19.2942 24.6474 19.3416 24.5 19.3416C24.24 19.3416 23.9729 19.257 23.7525 19.1184C23.531 18.979 23.3694 18.7935 23.3033 18.6029L23.3033 18.6029L23.3027 18.6013C23.2973 18.5863 23.2871 18.5322 23.2783 18.4171C23.27 18.3088 23.2638 18.1616 23.2597 17.9735C23.2513 17.5977 23.2513 17.0657 23.258 16.3693C23.258 16.3693 23.258 16.3692 23.258 16.3692L23.2776 14.3594L23.4453 14.1495C23.7 13.8417 24.0975 13.6824 24.5025 13.6824C24.9077 13.6824 25.3032 13.8418 25.5545 14.1492L25.7224 14.3594L25.742 16.3692C25.7487 17.0657 25.7487 17.5977 25.7403 17.9735C25.7362 18.1616 25.73 18.3088 25.7217 18.4171C25.7129 18.5322 25.7027 18.5863 25.6973 18.6013L25.6973 18.6012L25.6962 18.6045C25.6598 18.7132 25.5691 18.8446 25.4406 18.9668C25.3135 19.0877 25.1612 19.1882 25.0161 19.2427Z" fill="black" stroke="black" stroke-width="0.3"/>
</svg>
