<svg width="47" height="50" viewBox="0 0 47 50" fill="none" xmlns="http://www.w3.org/2000/svg">
<path d="M15.3991 1.48C14.8111 2.068 13.2431 2.46 11.2831 2.46C7.29779 2.46 5.14179 3.57066 3.90046 6.184C3.37779 7.36 2.59379 8.34 2.20179 8.34C1.09112 8.34 0.633789 9.97333 0.633789 13.5667C0.633789 17.356 1.09112 18.7933 2.33246 18.7933C3.11646 18.7933 3.24712 21.1453 3.24712 32.056C3.24712 46.2333 3.37779 46.8867 6.51379 46.8867C7.42846 46.8867 8.47379 47.4093 8.99646 48.1933C9.45379 48.912 10.2378 49.5 10.7605 49.5C11.2831 49.5 12.0671 48.912 12.5245 48.1933C13.3085 46.952 14.0925 46.8867 23.5005 46.8867C32.9085 46.8867 33.6925 46.952 34.4765 48.1933C34.9338 48.912 35.7178 49.5 36.2405 49.5C36.7631 49.5 37.5471 48.912 38.0045 48.1933C38.5271 47.4093 39.5725 46.8867 40.4871 46.8867C43.6231 46.8867 43.7538 46.2333 43.7538 32.056C43.7538 21.1453 43.8845 18.7933 44.6685 18.7933C45.9098 18.7933 46.3671 17.356 46.3671 13.5667C46.3671 9.77733 45.9098 8.34 44.6685 8.34C44.1458 8.34 43.7538 7.88266 43.7538 7.29467C43.7538 6.772 42.9045 5.4 41.8591 4.35466C40.1605 2.72133 39.4418 2.46 36.2405 2.46C33.8231 2.46 32.1898 2.13333 31.6018 1.48C30.8178 0.76133 28.9231 0.499996 23.5005 0.499996C18.0778 0.499996 16.1831 0.76133 15.3991 1.48ZM31.0138 3.11333C31.0138 3.89733 29.7725 4.09333 23.5005 4.09333C16.8365 4.09333 15.9871 3.96267 15.7911 2.91733C15.5951 1.872 16.1831 1.80666 23.3045 1.93733C29.6418 2.068 31.0138 2.32933 31.0138 3.11333ZM15.9871 4.812C17.6205 6.05333 29.5111 5.92266 31.2098 4.68133C31.8631 4.15866 34.0845 3.76666 36.3711 3.76666C39.9645 3.76666 40.5525 3.96267 41.7285 5.46533C42.6431 6.64133 43.1005 8.144 43.1005 10.0387V12.9133H37.4818C31.5365 12.9133 29.3805 13.5667 29.3805 15.396C29.3805 17.4867 27.9431 18.14 23.3045 18.14C18.8618 18.14 18.8618 18.14 17.9471 15.9187C16.7711 13.1747 16.1178 12.9133 9.38846 12.9133H3.90046V10.0387C3.90046 8.144 4.35779 6.64133 5.27246 5.46533C6.44846 3.96267 7.03646 3.76666 10.6298 3.76666C13.2431 3.832 15.1378 4.15866 15.9871 4.812ZM3.24712 13.5667C3.24712 16.18 2.98579 18.14 2.59379 18.14C2.20179 18.14 1.94046 16.18 1.94046 13.5667C1.94046 10.9533 2.20179 8.99333 2.59379 8.99333C2.98579 8.99333 3.24712 10.9533 3.24712 13.5667ZM45.0605 13.9587C45.0605 16.3107 44.7991 18.14 44.4071 18.14C44.0151 18.14 43.7538 16.18 43.7538 13.5013C43.7538 10.6267 44.0151 9.05867 44.4071 9.32C44.7991 9.516 45.0605 11.6067 45.0605 13.9587ZM17.0325 16.3107L17.9471 18.4667H23.5005H29.0538L29.9685 16.3107L30.9485 14.22H37.0245H43.1005V27.94V41.66H23.5005H3.90046V27.94V14.22H9.97646H16.0525L17.0325 16.3107ZM42.9045 43.3587C43.8845 45.9067 41.7285 46.2333 23.5005 46.2333C5.27246 46.2333 3.11646 45.9067 4.09646 43.3587C4.48846 42.444 6.51379 42.3133 23.5005 42.3133C40.4871 42.3133 42.5125 42.444 42.9045 43.3587ZM11.6098 47.6053C11.4791 47.9973 11.0871 48.2587 10.7605 48.2587C10.4338 48.2587 10.0418 47.9973 9.91112 47.6053C9.78046 47.2133 10.1725 46.8867 10.7605 46.8867C11.3485 46.8867 11.7405 47.2133 11.6098 47.6053ZM37.0898 47.6707C36.6978 48.8467 35.2605 49.0427 35.2605 47.932C35.2605 47.344 35.7178 46.8867 36.3058 46.8867C36.8938 46.8867 37.2205 47.2133 37.0898 47.6707Z" fill="black"/>
<path d="M19.5811 13.8921C19.5811 15.4601 19.7771 15.5254 23.5011 15.5254C27.2251 15.5254 27.4211 15.4601 27.4211 13.8921C27.4211 12.3241 27.2251 12.2587 23.5011 12.2587C19.7771 12.2587 19.5811 12.3241 19.5811 13.8921ZM26.6371 14.0227C26.7677 14.6107 25.9184 14.8721 23.5664 14.8721C20.4304 14.8721 19.5811 14.4147 20.6917 13.3041C21.4757 12.5854 26.3104 13.1734 26.6371 14.0227Z" fill="black"/>
<path d="M16.5756 21.6686C16.3796 22.1912 16.3143 23.4326 16.4449 24.4779L16.6409 26.3072L23.6969 26.5032L30.7529 26.6992L30.5569 23.8899L30.3609 21.0806L23.6316 20.8846C18.2743 20.7539 16.9023 20.8846 16.5756 21.6686ZM29.2503 21.9952C29.7729 22.2566 30.0343 23.2366 29.9036 24.0859C29.7076 25.5886 29.5769 25.6539 23.5009 25.6539H17.2943L17.0983 23.8899L16.9023 22.1259L22.3249 21.8646C25.3303 21.7992 27.8783 21.6032 28.0743 21.5379C28.2703 21.4726 28.7929 21.6686 29.2503 21.9952Z" fill="black"/>
<path d="M15.4652 28.9856C14.6812 29.7696 14.9425 31.7296 15.8572 32.0563C17.2292 32.579 18.4052 31.5336 18.1439 30.1616C17.9479 28.9203 16.2492 28.2016 15.4652 28.9856ZM17.6212 30.5536C17.6212 30.8803 17.1639 31.207 16.6412 31.207C16.1185 31.207 15.6612 30.8803 15.6612 30.5536C15.6612 30.1616 16.1185 29.9003 16.6412 29.9003C17.1639 29.9003 17.6212 30.1616 17.6212 30.5536Z" fill="black"/>
<path d="M29.1849 28.9856C28.4009 29.7696 28.6623 31.7296 29.5769 32.0563C30.9489 32.579 32.1249 31.5336 31.8636 30.1616C31.6676 28.9203 29.9689 28.2016 29.1849 28.9856ZM31.3409 30.5536C31.3409 30.8803 30.8836 31.207 30.3609 31.207C29.8383 31.207 29.3809 30.8803 29.3809 30.5536C29.3809 30.1616 29.8383 29.9003 30.3609 29.9003C30.8836 29.9003 31.3409 30.1616 31.3409 30.5536Z" fill="black"/>
<path d="M21.934 30.2913C21.346 30.814 20.8887 31.5327 20.8887 31.8593C20.8887 32.186 21.346 32.9047 21.934 33.4273C22.4567 34.0153 23.1753 34.4727 23.502 34.4727C23.8287 34.4727 24.5473 34.0153 25.07 33.4273C25.658 32.9047 26.1153 32.186 26.1153 31.8593C26.1153 31.5327 25.658 30.814 25.07 30.2913C24.5473 29.7033 23.8287 29.246 23.502 29.246C23.1753 29.246 22.4567 29.7033 21.934 30.2913ZM24.8087 31.8593C24.8087 32.7087 24.3513 33.166 23.502 33.166C22.6527 33.166 22.1953 32.7087 22.1953 31.8593C22.1953 31.01 22.6527 30.5527 23.502 30.5527C24.3513 30.5527 24.8087 31.01 24.8087 31.8593Z" fill="black"/>
</svg>
