<svg width="49" height="50" viewBox="0 0 49 50" fill="none" xmlns="http://www.w3.org/2000/svg">
<path d="M0.096344 24.9679V49.5L10.4358 49.1789C16.7936 48.9862 21.0321 48.5367 21.4817 48.0872C21.867 47.7018 23.2798 47.3807 24.6285 47.3807C26.8119 47.3807 27.0688 47.1881 27.0688 45.7752V44.1697H35.4174H43.7661V25.867V7.56422H45.9496C48.3257 7.56422 48.9037 6.60092 48.9037 2.55505V0.5H24.5H0.096344V24.9679ZM48.133 3.19725L47.9404 4.67431H24.5H1.05965L0.866986 3.19725L0.674326 1.7844H24.5H48.3257L48.133 3.19725ZM15.3807 26.9587L15.1881 48.344H8.12387H1.05965L0.866986 26.9587L0.738546 5.63762H8.12387H15.5092L15.3807 26.9587ZM46.9771 6.27982C46.9771 6.66514 41.3899 6.92202 31.5642 6.92202C21.7385 6.92202 16.1514 6.66514 16.1514 6.27982C16.1514 5.8945 21.7385 5.63762 31.5642 5.63762C41.3899 5.63762 46.9771 5.8945 46.9771 6.27982ZM20.6468 27.4725V47.3807H18.3991H16.1514V27.4725V7.56422H18.3991H20.6468V27.4725ZM26.4266 27.1514V46.7385H24.1789H21.9312V27.1514V7.56422H24.1789H26.4266V27.1514ZM29.1881 8.33486C29.6376 9.61927 29.7661 20.6651 29.2523 21.8853C29.0596 22.4633 28.4817 22.9771 27.9679 22.9771C27.2615 22.9771 27.0688 21.4358 27.0688 15.2706C27.0688 9.10551 27.2615 7.56422 27.9679 7.56422C28.4817 7.56422 28.9954 7.94954 29.1881 8.33486ZM39.2707 15.2706V22.9771H34.7752H30.2798V15.2706V7.56422H34.7752H39.2707V15.2706ZM42.4817 8.01376C42.5459 8.33486 42.6101 16.2339 42.6743 25.6743L42.8028 42.8211L40.8762 43.0138C39.8486 43.1422 36.2523 43.1422 33.0413 43.0138C28.4817 42.8211 27.0688 42.5642 27.0688 41.922C27.0688 41.2156 28.5459 40.9587 33.6835 40.8303L40.234 40.6376L40.4266 24.0688C40.5551 10.0046 40.7477 7.56422 41.5184 7.56422C42.0321 7.56422 42.4817 7.75688 42.4817 8.01376ZM29.3165 24.9037C29.5092 25.6101 29.6376 29.2064 29.5734 32.9312C29.445 38.9679 29.2523 39.6743 28.2248 39.6743C27.1973 39.6743 27.0688 38.9679 27.0688 32.0963C27.0688 27.922 27.2615 24.2615 27.5184 24.0688C28.2248 23.2982 28.867 23.6193 29.3165 24.9037ZM39.2707 31.6468V39.6743H34.7752H30.2798V31.6468V23.6193H34.7752H39.2707V31.6468Z" fill="black"/>
</svg>
