<svg width="49" height="50" viewBox="0 0 49 50" fill="none" xmlns="http://www.w3.org/2000/svg">
<path d="M6.84742 1.11349C5.07277 1.48908 3.39202 2.80363 2.58451 4.45621C1.85211 5.93039 1.87089 5.60175 1.87089 14.813L1.8615 22.982L1.45775 23.2262C0.180751 24.0055 0.180751 25.9961 1.45775 26.7755L1.8615 27.0196L1.87089 36.0055C1.87089 42.1745 1.89906 45.151 1.97418 45.4891C2.33099 47.1792 3.78639 48.6158 5.48592 48.9445C5.88028 49.0196 7.75822 49.0384 11.73 49.0196C17.2793 48.9914 17.4202 48.982 17.946 48.7942C19.8052 48.0806 21.0634 46.1839 20.9038 44.2966C20.7535 42.6064 19.1197 37.8928 17.6737 35.0196C16.3592 32.3905 14.5282 29.5736 12.7066 27.367L12.2089 26.7567L12.4343 26.5877C12.7723 26.3154 13.1385 25.4985 13.1385 25.0102C13.1385 24.5219 12.9131 23.9679 12.5469 23.536L12.3028 23.2449L12.9789 22.5032C13.3545 22.09 14.0493 21.3013 14.5376 20.7379L15.4202 19.7238L15.8991 20.2027C16.4718 20.7567 16.9038 20.9633 17.5516 20.9633C18.115 20.9633 18.6221 20.7755 18.9977 20.4187C19.2981 20.137 19.608 19.5172 19.6174 19.2074C19.6174 19.0102 19.6549 19.0008 21.007 18.9726C22.3498 18.9445 22.4155 18.9351 22.7911 18.6816C23.4014 18.2778 23.6925 17.7708 23.73 17.0196C23.7582 16.5126 23.73 16.3154 23.561 15.9867C23.0822 15.0478 22.4343 14.7661 20.7347 14.7661H19.6455L19.5892 14.428C19.5423 14.1276 19.608 13.9679 20.0962 13.1323C20.8099 11.9398 21.8239 9.93039 22.3404 8.70974C22.9883 7.18861 23.6737 5.02898 23.7207 4.33415C23.8333 2.85997 22.9225 1.53603 21.4953 1.11349C21.0634 0.982037 20.331 0.963257 16.331 0.963257C11.7488 0.963257 11.6549 0.963257 11.4108 1.16044C11.2324 1.30128 11.1667 1.44213 11.1667 1.66748C11.1667 1.89283 11.2324 2.03368 11.4108 2.17453C11.6549 2.37171 11.7488 2.37171 16.3122 2.37171C20.8662 2.37171 20.9789 2.37171 21.3826 2.56889C21.8803 2.81302 22.2559 3.34823 22.3122 3.91161C22.4343 4.98204 20.7254 9.31067 19.0915 12.0712C18.5469 12.9726 18.5376 12.9914 18.2559 12.9163C17.7394 12.7849 16.9601 12.8412 16.5657 13.0478C16.1338 13.2825 13.8897 15.5172 13.6737 15.9398C13.2793 16.7191 13.4014 17.6018 14.0023 18.2872C14.331 18.6628 14.3592 18.7379 14.2559 18.8787C13.8991 19.3388 12.8944 20.4938 11.8427 21.6393L10.669 22.9351H8.76291C7.71127 22.9351 6.84742 22.9163 6.84742 22.8881C6.84742 22.86 7.20423 22.4093 7.62676 21.8741C9.99296 18.9726 12.885 14.5407 12.885 13.8177C12.885 13.6675 12.8099 13.4609 12.716 13.3576C12.5188 13.1417 12.0305 13.1041 11.8052 13.2825C11.73 13.3482 11.392 13.8647 11.0728 14.4374C9.6831 16.8881 6.87559 20.7849 5.24178 22.5313L4.8662 22.9351H4.06808H3.26995L3.29812 14.5971C3.32629 6.30598 3.32629 6.26842 3.53286 5.73321C3.83333 4.93509 4.19953 4.37171 4.75352 3.81772C5.73944 2.85058 6.65962 2.47499 8.23709 2.39988C9.48592 2.33415 9.70188 2.23086 9.70188 1.66748C9.70188 1.09471 9.45775 0.963257 8.35916 0.972645C7.8615 0.972645 7.18545 1.03837 6.84742 1.11349ZM17.9742 14.4093C18.2183 14.5971 18.2277 14.6346 18.1714 15.1417C18.115 15.5924 18.1338 15.705 18.3028 15.921L18.5 16.1745H20.1714C21.7207 16.1745 21.8615 16.1933 22.0962 16.3717C22.3779 16.5877 22.4249 17.0478 22.2089 17.3576C22.0869 17.5172 21.9178 17.536 20.2746 17.583C18.5188 17.6299 18.4718 17.6393 18.2934 17.8553C18.1432 18.0431 18.1244 18.1651 18.1714 18.6628C18.2277 19.198 18.2183 19.2543 18.0117 19.4046C17.8897 19.4891 17.6643 19.5548 17.5047 19.5548C17.2606 19.5548 17.0352 19.3764 16.0211 18.3529C15.3638 17.6863 14.8286 17.0759 14.8286 16.982C14.8286 16.6628 15.1103 16.2966 16.1714 15.2543C17.3357 14.1088 17.4953 14.0337 17.9742 14.4093ZM11.5423 24.5501C11.9085 24.9445 11.7207 25.4985 11.1573 25.6581C10.7347 25.7802 2.8662 25.7802 2.44366 25.6581C1.88028 25.4985 1.69249 24.9445 2.05869 24.5501L2.25587 24.3435H6.80047H11.3451L11.5423 24.5501ZM5.777 28.0806C8.36854 31.198 10.5 34.7661 11.9648 38.428C12.4812 39.7332 12.7911 40.2121 13.0915 40.2121C13.3732 40.2121 13.7019 39.9867 13.7958 39.7144C13.8803 39.4609 13.8239 39.2731 13.3638 38.1088C11.9836 34.6252 9.76761 30.7849 7.51408 27.9773L6.85681 27.1604H8.7723H10.6878L11.3826 27.9773C14.9883 32.2402 17.8239 37.7332 19.2606 43.2168C19.4859 44.0806 19.5235 44.4093 19.4859 44.86C19.3826 45.9304 18.6596 46.9163 17.6643 47.3764C17.223 47.583 17.1667 47.583 11.4484 47.583C5.97418 47.583 5.64554 47.5736 5.20423 47.4046C4.5939 47.1604 3.82394 46.4374 3.55164 45.8177L3.32629 45.3295L3.29812 36.2403L3.27934 27.1604H4.14319H5.01643L5.777 28.0806Z" fill="black"/>
<path d="M27.4676 1.12259C26.0685 1.54513 25.1671 2.87846 25.2798 4.33386C25.3267 5.02869 26.0122 7.18832 26.6601 8.70945C27.1765 9.9301 28.1906 11.9395 28.9042 13.132C29.3925 13.9677 29.4582 14.1273 29.4112 14.4278L29.3549 14.7658H28.2657C26.9981 14.7658 26.3784 14.9066 25.9371 15.3104C25.0263 16.1555 25.0169 17.7048 25.9183 18.4653C26.4629 18.9254 26.7352 18.9911 28.1155 18.9911C29.3643 18.9911 29.3831 18.9911 29.3831 19.1977C29.3925 19.517 29.7023 20.1367 30.0028 20.4184C30.3878 20.7752 30.8948 20.963 31.4957 20.963C32.1436 20.963 32.4817 20.8033 33.1014 20.193L33.5802 19.7235L34.4629 20.7376C34.9511 21.301 35.646 22.0897 36.0216 22.5029L36.6976 23.2447L36.4535 23.5357C36.0873 23.9677 35.8619 24.5217 35.8619 25.0099C35.8619 25.4982 36.2281 26.3151 36.5662 26.578L36.7821 26.747L36.031 27.686C32.9887 31.4982 30.707 35.6672 29.1859 40.2118C28.5004 42.2681 28.0685 43.9395 28.0685 44.531C28.0685 46.3808 29.2892 48.1179 31.0544 48.794C31.5615 48.9817 31.768 48.9911 35.2986 49.0193C38.9699 49.0475 39.0169 49.0475 39.2704 48.8503C39.5896 48.5968 39.6178 48.1179 39.3267 47.855C39.1389 47.686 38.8948 47.6766 35.4488 47.6296L31.7774 47.5827L31.2516 47.3198C30.6319 47.0193 30.0122 46.3808 29.7399 45.7893C29.43 45.085 29.4206 44.5029 29.7023 43.3761C31.0544 37.9677 33.984 32.2775 37.6178 27.9771L38.3126 27.1602H40.2281H42.1436L41.4864 27.9771C39.2234 30.8033 37.0169 34.6156 35.6272 38.1273C35.1483 39.3292 35.1014 39.4982 35.2047 39.7329C35.3079 39.9864 35.6366 40.2118 35.9089 40.2118C36.2094 40.2118 36.5192 39.7329 37.0356 38.4278C38.5004 34.7658 40.6319 31.1977 43.2234 28.0803L43.984 27.1602H44.8572H45.7211L45.7023 36.24L45.6741 45.3292L45.4582 45.7986C45.1765 46.4184 44.491 47.0944 43.8995 47.3573C43.5333 47.517 43.1671 47.5827 42.369 47.6202C41.1671 47.686 40.9887 47.7799 40.9887 48.3433C40.9887 48.8972 41.2516 49.0381 42.2563 49.0381C42.707 49.0381 43.3079 48.9911 43.5802 48.9348C45.2422 48.5874 46.6788 47.1508 47.0263 45.4888C47.1014 45.1508 47.1295 42.1742 47.1295 36.0052L47.1389 27.0193L47.5427 26.7752C48.8197 25.9958 48.8197 24.0052 47.5427 23.2259L47.1389 22.9817L47.1295 14.8127C47.1295 5.60147 47.1483 5.9301 46.4159 4.45592C45.815 3.22588 44.8666 2.27752 43.6366 1.67658C42.1812 0.953579 42.3314 0.962967 34.6882 0.972359C28.923 0.972359 27.8619 1.00053 27.4676 1.12259ZM42.3596 2.62494C43.8807 3.2071 44.8854 4.2118 45.4676 5.73292C45.6741 6.26813 45.6741 6.30569 45.7023 14.5968L45.7305 22.9348H44.9324H44.1342L43.7587 22.531C42.1155 20.7752 39.3267 16.9066 37.9277 14.4371C37.6084 13.8644 37.2704 13.3479 37.1953 13.2822C36.9699 13.1038 36.4817 13.1414 36.2845 13.3573C36.1906 13.4606 36.1155 13.6672 36.1155 13.8174C36.1155 14.5404 39.0075 18.9724 41.3737 21.8738C41.7962 22.409 42.153 22.8597 42.153 22.8879C42.153 22.916 41.2892 22.9348 40.2375 22.9348H38.3314L37.1577 21.639C36.1061 20.4935 35.1014 19.3386 34.7446 18.8785C34.6413 18.7376 34.6694 18.6625 34.9981 18.2869C35.599 17.6015 35.7211 16.7188 35.3267 15.9395C35.1108 15.517 32.8666 13.2822 32.4347 13.0475C32.0403 12.8409 31.261 12.7846 30.7446 12.916C30.4629 12.9911 30.4535 12.9724 29.9089 12.0709C28.2751 9.30099 26.5662 4.98175 26.6882 3.91132C26.7446 3.34795 27.1202 2.82212 27.6178 2.5686L28.0216 2.37142L34.923 2.3902C41.7399 2.41837 41.8338 2.41837 42.3596 2.62494ZM32.8291 15.254C33.8901 16.2963 34.1718 16.6625 34.1718 16.9817C34.1718 17.0756 33.6366 17.686 32.9793 18.3526C31.9652 19.3761 31.7399 19.5545 31.4957 19.5545C31.3361 19.5545 31.1108 19.4888 30.9887 19.4043C30.7821 19.254 30.7727 19.1977 30.8291 18.6625C30.876 18.1648 30.8572 18.0428 30.707 17.855C30.5286 17.639 30.4817 17.6296 28.7258 17.5827C27.0826 17.5357 26.9136 17.517 26.7915 17.3573C26.5756 17.0475 26.6225 16.5874 26.9042 16.3714C27.1389 16.193 27.2798 16.1742 28.8291 16.1742H30.5004L30.6976 15.9207C30.8666 15.7048 30.8854 15.5921 30.8291 15.1414C30.7727 14.6343 30.7821 14.5968 31.0263 14.409C31.4957 14.0428 31.6554 14.1179 32.8291 15.254ZM46.9417 24.5498C47.3079 24.9442 47.1202 25.4982 46.5568 25.6578C46.1342 25.7799 38.2657 25.7799 37.8432 25.6578C37.2798 25.4982 37.092 24.9442 37.4582 24.5498L37.6554 24.3433H42.2H46.7446L46.9417 24.5498Z" fill="black"/>
<path d="M23.5139 21.0194C21.2604 21.2448 19.0444 21.9678 17.42 23.01C16.7064 23.4607 15.5327 24.4091 15.1008 24.8786C14.5749 25.4326 14.4153 25.8739 14.4716 26.5969C14.5468 27.6204 15.3073 28.3809 16.3308 28.456C17.0914 28.5124 17.4576 28.3622 18.2839 27.6485C18.6782 27.3105 19.2979 26.8504 19.6547 26.6157C21.2885 25.5546 23.5045 25.0476 25.467 25.2823C27.5421 25.5265 28.9975 26.1837 30.7252 27.6485C31.5608 28.3622 31.9083 28.5124 32.6688 28.456C33.7017 28.3809 34.4529 27.6204 34.528 26.5875C34.5937 25.7237 34.3871 25.3199 33.4951 24.4936C31.6923 22.8129 29.2792 21.6204 26.8378 21.2072C25.9834 21.057 24.143 20.9537 23.5139 21.0194ZM25.6735 22.4654C27.4951 22.672 29.1759 23.2072 30.5562 24.0335C31.2885 24.4748 32.5749 25.4795 32.8942 25.8457C33.3449 26.3809 33.1101 27.0664 32.4716 27.0664C32.2557 27.0664 32.0491 26.9537 31.6923 26.6345C29.5984 24.7377 27.2416 23.8363 24.4529 23.8457C21.7017 23.8551 19.3731 24.7659 17.3073 26.6345C16.9505 26.9537 16.7439 27.0664 16.528 27.0664C16.143 27.0664 15.8613 26.7753 15.8613 26.3715C15.8613 26.118 15.9458 25.9772 16.312 25.6485C18.8754 23.2636 22.312 22.0899 25.6735 22.4654Z" fill="black"/>
<path d="M23.4198 26.6905C22.6687 26.8125 21.6546 27.1224 21.0724 27.4135C19.8424 28.0426 18.7626 29.0191 18.5278 29.714C18.2086 30.6905 18.6311 31.7703 19.5231 32.2304C20.3682 32.6623 21.1757 32.5496 21.9738 31.8924C23.5795 30.5496 25.3353 30.5027 26.8471 31.7609C27.5137 32.3055 27.8611 32.4557 28.4903 32.4557C29.9457 32.4557 30.9316 31.0942 30.4715 29.714C30.218 28.9722 29.0536 27.9487 27.7579 27.3478C26.5372 26.775 24.6968 26.4933 23.4198 26.6905ZM26.1428 28.2492C27.4292 28.5872 29.1945 29.8078 29.1945 30.3712C29.1945 30.6999 28.9316 31.0003 28.5841 31.0661C28.3494 31.113 28.2086 31.0379 27.6921 30.6248C26.9597 30.0426 26.34 29.7327 25.4668 29.5543C24.6687 29.3853 24.3306 29.3853 23.5325 29.5543C22.6593 29.7327 22.0395 30.0426 21.3072 30.6248C20.7907 31.0379 20.6499 31.113 20.4151 31.0661C20.0677 31.0003 19.8048 30.6999 19.8048 30.3712C19.8048 29.8454 21.5325 28.606 22.7156 28.2867C23.8236 27.9863 25.0536 27.9675 26.1428 28.2492Z" fill="black"/>
<path d="M23.6083 32.503C22.8571 32.8504 22.4346 33.5453 22.4346 34.4373C22.4346 35.0852 22.6693 35.564 23.1951 36.0147C24.5191 37.1603 26.566 36.1837 26.566 34.4185C26.5566 33.5077 26.0965 32.7941 25.2796 32.4467C24.8477 32.2683 24.0496 32.2964 23.6083 32.503ZM24.9698 33.9208C25.2515 34.2025 25.2233 34.7002 24.9134 34.9443C24.7726 35.057 24.5942 35.1415 24.5003 35.1415C24.4064 35.1415 24.228 35.057 24.0872 34.9443C23.7585 34.6908 23.7397 34.0992 24.0496 33.8833C24.3407 33.6767 24.7444 33.6955 24.9698 33.9208Z" fill="black"/>
</svg>
