<svg width="49" height="34" viewBox="0 0 49 34" fill="none" xmlns="http://www.w3.org/2000/svg">
<path d="M2.4978 0.263714C2.09443 0.410393 1.3977 0.960442 0.920995 1.43715L0.114258 2.3539L0.187598 18.0853L0.297607 33.8167L23.1063 33.9267L45.9149 34L47.4184 32.6065L48.8852 31.1764L48.8118 15.6284L48.7018 0.0803642L25.9665 0.00702286C13.4621 -0.029644 2.90117 0.0803642 2.4978 0.263714ZM46.465 1.36381C46.2083 1.6205 11.8119 1.91386 2.20444 1.73051C2.02109 1.73051 2.02109 1.54716 2.1311 1.36381C2.27778 1.14379 10.1618 0.997112 24.6097 0.997112C39.2043 0.997112 46.7217 1.10712 46.465 1.36381ZM47.3084 31.7265C46.8683 32.1298 46.7583 30.553 46.575 22.009C46.1716 5.43417 46.2083 3.1973 46.9783 2.3539C47.5651 1.69384 47.6017 2.31723 47.7117 16.4351C47.7851 28.4628 47.7117 31.3231 47.3084 31.7265ZM45.5849 17.8653V32.8999L25.0498 32.9732C13.7554 33.0099 3.74457 33.0466 2.79116 33.0833H1.031L0.920995 17.9386L0.847655 2.8306H23.2163H45.5849V17.8653Z" fill="black"/>
<path d="M6.8938 6.79078C6.27041 7.19415 4.87695 9.321 4.87695 9.79771C4.87695 10.0544 5.64702 11.5945 6.60044 13.2447L8.36059 16.2149L8.54394 21.1654L8.72729 26.1158L12.9443 26.2258C16.2079 26.2992 17.2347 26.2258 17.5281 25.8225C17.7481 25.4924 17.8581 22.3755 17.7848 17.5717L17.6747 9.79771H15.7679C13.8244 9.79771 13.8244 9.79771 13.0177 8.14756L12.2109 6.49742H9.75405C8.36059 6.49742 7.07715 6.6441 6.8938 6.79078ZM9.9374 8.03755C9.53403 8.66094 8.94731 8.91763 7.84721 8.99097C6.19707 9.10098 6.05039 8.91763 6.96714 7.89087C7.33384 7.45084 8.06723 7.23082 9.02065 7.23082C10.4508 7.23082 10.4508 7.23082 9.9374 8.03755ZM13.091 10.2377C14.3378 12.658 14.4478 13.0247 14.0444 14.0147L13.6411 15.0782L11.9542 12.2546C10.4874 9.76104 10.3408 9.28433 10.6708 8.47759C10.9275 8.00089 11.2208 7.59752 11.3675 7.59752C11.5509 7.59752 12.2843 8.80762 13.091 10.2377ZM11.3675 13.0613L13.2377 16.325L11.3675 16.4716C9.60737 16.5816 9.49736 16.5083 8.72729 15.2982C7.81054 13.8681 5.97705 10.3111 5.97705 9.98106C5.97705 9.87105 6.78379 9.79771 7.7372 9.79771H9.49736L11.3675 13.0613ZM16.9047 17.9384L16.7947 25.3824L13.0543 25.4924L9.27734 25.6024L9.31401 24.0256C9.31401 22.4855 9.31401 22.4855 9.90073 23.2556C10.4141 23.989 10.7808 24.099 13.1643 24.099H15.8779V17.9018C15.8779 12.0346 15.8412 11.7045 15.1445 11.5212C13.9344 11.1912 14.3011 10.5311 15.6946 10.5311H16.978L16.9047 17.9384ZM15.1445 17.9384C15.1445 21.8254 14.9612 22.2655 14.3745 19.6619C14.0444 18.2685 14.5211 14.1981 14.9978 14.1981C15.0712 14.1981 15.1445 15.8849 15.1445 17.9384ZM13.5677 19.2219C13.7877 20.3953 14.1178 21.7888 14.2278 22.3388C14.4845 23.3656 14.4845 23.3656 12.6143 23.3656C10.9642 23.3656 10.7075 23.2556 10.2308 22.3388C9.60737 21.1287 9.09399 18.0851 9.46069 17.5351C9.5707 17.315 10.4874 17.1317 11.4409 17.1317H13.1643L13.5677 19.2219Z" fill="black"/>
<path d="M28.6043 10.0543C28.4577 10.1643 28.3477 12.2545 28.3477 14.6381V19.0018L26.5142 22.4121C25.5241 24.2822 24.6807 26.0424 24.6807 26.3357C24.6807 26.6291 25.1207 27.4358 25.7074 28.0959C26.6242 29.2327 26.8442 29.306 29.2277 29.3427L31.7946 29.416L32.6014 27.9492C33.4081 26.5924 33.5914 26.4824 35.3883 26.2991L37.3318 26.1157L37.4418 17.9383L37.5151 9.79763H33.1881C30.8045 9.79763 28.7144 9.90764 28.6043 10.0543ZM36.7817 17.865C36.7817 21.8987 36.6717 25.199 36.525 25.2356C36.3417 25.2356 35.7916 25.309 35.2416 25.3823C34.0315 25.529 33.8848 25.0156 34.9482 24.4656C35.645 24.0989 35.6816 23.6955 35.6816 18.0484V11.9978H33.0414C31.1346 11.9978 30.2545 12.1445 29.7411 12.6212C29.1177 13.1713 29.081 13.1346 29.081 11.8878V10.531H32.9314H36.7817V17.865ZM34.0315 13.868C33.7015 14.4547 33.3348 15.7748 33.2247 16.8016L33.0047 18.5984H31.0612H29.081V17.3883C29.081 16.7649 29.3744 15.4448 29.7044 14.4547L30.3278 12.7312H32.4547H34.6182L34.0315 13.868ZM34.9482 18.1217C34.9116 21.2386 34.8382 21.9354 34.5082 21.3486C33.8115 20.1385 34.0315 14.198 34.7649 14.198C34.8749 14.198 34.9482 15.9582 34.9482 18.1217ZM32.6014 19.8085C32.7114 19.9185 32.0146 21.422 31.0246 23.1455L29.2644 26.2991H27.3209H25.3407L26.6242 23.9889C27.3209 22.7421 28.1643 21.1653 28.531 20.4686C29.1177 19.2951 29.2277 19.2585 30.7679 19.4418C31.6846 19.5151 32.4913 19.6985 32.6014 19.8085ZM32.9314 25.529C32.2347 26.9225 31.5379 28.1692 31.3913 28.2426C31.2079 28.3526 30.8412 28.0592 30.5112 27.6192C29.9611 26.8858 29.9978 26.7024 31.6113 23.8422L33.2981 20.8353L33.7748 21.9354C34.1782 22.9254 34.1048 23.2555 32.9314 25.529ZM29.5211 27.6559C30.5478 28.5726 30.3278 28.9026 28.6777 28.7926C27.5776 28.7193 26.9909 28.4626 26.5875 27.8392C26.0741 27.0691 26.0741 27.0325 27.4309 27.0325C28.2376 27.0325 29.1177 27.2892 29.5211 27.6559Z" fill="black"/>
</svg>
