<svg width="41" height="40" viewBox="0 0 41 40" fill="none" xmlns="http://www.w3.org/2000/svg">
<path d="M0.532052 2.95404C1.09573 5.88515 4.81598 6.22336 4.81598 3.40498C4.81598 1.71396 4.13957 1.03755 2.44855 1.03755C0.870257 1.03755 0.306582 1.60122 0.532052 2.95404Z" fill="black"/>
<path d="M12.3242 3.091C12.3242 4.55656 13.1134 5.3457 14.5789 5.3457C16.0445 5.3457 16.8336 4.55656 16.8336 3.091C16.8336 1.62545 16.0445 0.836301 14.5789 0.836301C13.1134 0.836301 12.3242 1.62545 12.3242 3.091Z" fill="black"/>
<path d="M24.1602 3.091C24.1602 4.55656 24.9493 5.3457 26.4149 5.3457C27.8804 5.3457 28.6696 4.55656 28.6696 3.091C28.6696 1.62545 27.8804 0.836301 26.4149 0.836301C24.9493 0.836301 24.1602 1.62545 24.1602 3.091Z" fill="black"/>
<path d="M35.1621 3.091C35.1621 4.55656 35.9513 5.3457 37.4168 5.3457C38.8824 5.3457 39.6715 4.55656 39.6715 3.091C39.6715 1.62545 38.8824 0.836301 37.4168 0.836301C35.9513 0.836301 35.1621 1.62545 35.1621 3.091Z" fill="black"/>
<path d="M1.31532 9.23482C-0.375701 10.9258 0.638914 12.9551 3.23182 12.9551C5.37379 12.9551 5.82473 12.5041 5.37379 10.7004C4.81011 8.44568 2.78088 7.76927 1.31532 9.23482Z" fill="black"/>
<path d="M12.3242 10.9816C12.3242 12.4472 13.1134 13.2363 14.5789 13.2363C16.0445 13.2363 16.8336 12.4472 16.8336 10.9816C16.8336 9.51607 16.0445 8.72693 14.5789 8.72693C13.1134 8.72693 12.3242 9.51607 12.3242 10.9816Z" fill="black"/>
<path d="M24.1602 10.9816C24.1602 12.4472 24.9493 13.2363 26.4149 13.2363C27.8804 13.2363 28.6696 12.4472 28.6696 10.9816C28.6696 9.51607 27.8804 8.72693 26.4149 8.72693C24.9493 8.72693 24.1602 9.51607 24.1602 10.9816Z" fill="black"/>
<path d="M35.1621 10.9816C35.1621 12.4472 35.9513 13.2363 37.4168 13.2363C38.8824 13.2363 39.6715 12.4472 39.6715 10.9816C39.6715 9.51607 38.8824 8.72693 37.4168 8.72693C35.9513 8.72693 35.1621 9.51607 35.1621 10.9816Z" fill="black"/>
<path d="M0.484375 18.3098C0.484375 19.7753 1.27352 20.5645 2.73908 20.5645C4.20463 20.5645 4.99378 19.7753 4.99378 18.3098C4.99378 16.8442 4.20463 16.0551 2.73908 16.0551C1.27352 16.0551 0.484375 16.8442 0.484375 18.3098Z" fill="black"/>
<path d="M12.3242 19.1555C12.3242 20.621 13.1134 21.4102 14.5789 21.4102C16.0445 21.4102 16.8336 20.621 16.8336 19.1555C16.8336 17.6899 16.0445 16.9008 14.5789 16.9008C13.1134 16.9008 12.3242 17.6899 12.3242 19.1555Z" fill="black"/>
<path d="M24.1602 19.1555C24.1602 20.621 24.9493 21.4102 26.4149 21.4102C27.8804 21.4102 28.6696 20.621 28.6696 19.1555C28.6696 17.6899 27.8804 16.9008 26.4149 16.9008C24.9493 16.9008 24.1602 17.6899 24.1602 19.1555Z" fill="black"/>
<path d="M35.1621 19.1555C35.1621 20.621 35.9513 21.4102 37.4168 21.4102C38.8824 21.4102 39.6715 20.621 39.6715 19.1555C39.6715 17.6899 38.8824 16.9008 37.4168 16.9008C35.9513 16.9008 35.1621 17.6899 35.1621 19.1555Z" fill="black"/>
<path d="M0.73775 25.9195C-0.0513948 27.9487 1.07596 29.8652 3.10519 29.8652C5.13442 29.8652 6.0363 28.1742 5.24715 26.0322C4.34527 23.7775 1.5269 23.6648 0.73775 25.9195Z" fill="black"/>
<path d="M12.3242 27.8926C12.3242 29.9218 12.8879 30.7109 14.5789 30.7109C16.2699 30.7109 16.8336 29.9218 16.8336 27.8926C16.8336 25.8633 16.2699 25.0742 14.5789 25.0742C12.8879 25.0742 12.3242 25.8633 12.3242 27.8926Z" fill="black"/>
<path d="M24.1602 27.7798C24.1602 30.0345 24.7238 30.7109 26.5276 30.7109C28.2186 30.7109 28.7823 30.1473 28.4441 28.2308C27.8804 24.3978 24.1602 24.0596 24.1602 27.7798Z" fill="black"/>
<path d="M37.0773 26.4258C35.3863 28.1169 36.2881 31.2734 38.5429 31.2734C40.2339 31.2734 40.7976 30.4843 40.7976 28.4551C40.7976 25.7494 38.7683 24.6221 37.0773 26.4258Z" fill="black"/>
<path d="M0.203125 36.9113C0.203125 38.6023 0.99227 39.166 3.13424 39.166C5.38894 39.166 5.95261 38.7151 5.38894 37.3623C5.05073 36.3476 4.71253 35.333 4.71253 35.1076C4.71253 34.8821 3.69791 34.6566 2.45783 34.6566C0.99227 34.6566 0.203125 35.4458 0.203125 36.9113Z" fill="black"/>
<path d="M12.6016 36.9113C12.6016 38.3769 13.3907 39.166 14.8563 39.166C16.3218 39.166 17.111 38.3769 17.111 36.9113C17.111 35.4458 16.3218 34.6566 14.8563 34.6566C13.3907 34.6566 12.6016 35.4458 12.6016 36.9113Z" fill="black"/>
<path d="M25.002 36.9113C25.002 38.3769 25.7911 39.166 27.2567 39.166C28.7222 39.166 29.5114 38.3769 29.5114 36.9113C29.5114 35.4458 28.7222 34.6566 27.2567 34.6566C25.7911 34.6566 25.002 35.4458 25.002 36.9113Z" fill="black"/>
<path d="M36.2773 36.9113C36.2773 38.3769 37.0665 39.166 38.532 39.166C39.9976 39.166 40.7867 38.3769 40.7867 36.9113C40.7867 35.4458 39.9976 34.6566 38.532 34.6566C37.0665 34.6566 36.2773 35.4458 36.2773 36.9113Z" fill="black"/>
</svg>
