<svg width="49" height="48" viewBox="0 0 49 48" fill="none" xmlns="http://www.w3.org/2000/svg">
<path d="M17.5971 0.515659C11.2479 2.57242 4.63054 8.65327 2.03724 14.7341C-0.198372 20.0996 0.159325 29.042 2.93148 34.3181C6.95558 42.2768 15.898 48 24.4828 48C29.5799 48 36.1973 45.4067 40.3109 41.7403C56.3178 27.7007 47.1071 1.14163 26.003 0.0685349C22.6943 -0.110313 18.9384 0.0685349 17.5971 0.515659ZM30.8319 2.84069C47.9119 7.93788 51.936 30.8305 37.5387 41.2932C19.2067 54.7963 -5.02729 35.0335 4.71997 14.4659C7.49212 8.65327 11.2479 5.25515 17.0605 3.19839C22.8731 1.23105 25.1087 1.14163 30.8319 2.84069Z" fill="black"/>
<path d="M23.4096 11.2259C23.227 11.4299 23.2055 11.6662 23.1733 14.0076C23.1518 16.0806 23.1733 16.6391 23.3022 16.9506C23.474 17.3587 23.807 17.5198 24.2903 17.4017C24.8166 17.262 24.881 16.8431 24.8488 14.0076C24.8166 11.6662 24.7951 11.4299 24.6125 11.2259C24.4729 11.0755 24.2795 11.0003 24.011 11.0003C23.7425 11.0003 23.5492 11.0755 23.4096 11.2259Z" fill="black"/>
<path d="M17.1865 12.8796C17.0361 13.0192 16.918 13.2448 16.918 13.3844C16.918 13.524 17.5087 14.6733 18.2391 15.9406C19.6675 18.4539 19.8609 18.658 20.4623 18.411C20.9027 18.2284 21.0746 17.745 20.8597 17.2832C20.4623 16.4562 18.3894 12.9763 18.1854 12.7937C17.8846 12.5359 17.4872 12.5681 17.1865 12.8796Z" fill="black"/>
<path d="M29.7779 12.8473C29.5094 13.1265 27.0176 17.4335 27.0176 17.6268C27.0176 17.9275 27.2861 18.3035 27.5761 18.4001C28.1024 18.5827 28.3494 18.4001 28.9831 17.3153C30.562 14.6195 31.099 13.6206 31.099 13.395C31.099 13.0513 30.6371 12.611 30.2934 12.611C30.1431 12.611 29.9068 12.7184 29.7779 12.8473Z" fill="black"/>
<path d="M35.0161 17.026C34.7798 17.1549 34.0279 17.5845 33.3513 17.9712C32.6746 18.3686 31.7939 18.8841 31.3965 19.1096C30.5695 19.5822 30.3869 19.8937 30.6125 20.42C30.7521 20.7529 30.9562 20.8818 31.3321 20.8818C31.461 20.8818 32.5887 20.2911 33.8454 19.5608C36.3372 18.1323 36.509 17.9712 36.2512 17.3482C36.176 17.1549 35.9935 16.983 35.8001 16.9186C35.6175 16.8541 35.4564 16.8004 35.4564 16.8004C35.4457 16.8004 35.2524 16.9078 35.0161 17.026Z" fill="black"/>
<path d="M11.9798 17.2291C11.7113 17.4976 11.7005 17.9917 11.9583 18.2817C12.1194 18.4643 13.1183 19.0765 15.7604 20.5801C16.1578 20.8057 16.6304 20.9883 16.813 20.9883C17.4574 20.9883 17.8011 20.215 17.3822 19.7209C17.2748 19.6028 16.2115 18.9476 15.0193 18.2602C12.7316 16.9498 12.3772 16.8317 11.9798 17.2291Z" fill="black"/>
<path d="M22.5563 18.5182C21.3104 18.7653 19.6671 19.7104 18.8508 20.6449C18.2601 21.3108 17.6372 22.3741 17.3257 23.2441C17.0894 23.91 17.0787 24.1033 17.0464 27.6155L17.0142 31.278L16.5631 31.3532C15.6716 31.5035 14.9305 32.0298 14.4902 32.8246C14.2217 33.3187 14.1787 33.512 14.1787 34.1994C14.1787 34.8224 14.2432 35.1124 14.415 35.4453C14.7265 36.0253 15.4998 36.702 16.0368 36.8631C16.6383 37.0456 31.9006 37.0456 32.502 36.8631C33.0498 36.702 33.8231 36.0253 34.1346 35.4453C34.3065 35.1124 34.3709 34.8224 34.3709 34.1994C34.3709 33.5013 34.3279 33.3187 34.0594 32.8246C33.5439 31.9117 32.4913 31.2995 31.4065 31.2995H30.9984L30.9661 27.6155C30.9339 23.9422 30.9339 23.9422 30.6439 23.1582C30.2358 22.0197 29.7525 21.2678 28.8717 20.3978C28.0232 19.5493 26.8203 18.8619 25.6711 18.5719C24.9944 18.4001 23.2974 18.3679 22.5563 18.5182ZM25.5207 19.979C27.3896 20.5267 28.9254 22.1163 29.4303 24.0067C29.5484 24.447 29.5914 25.3814 29.5914 27.9377V31.2995H24.0063H18.4212V27.9377C18.4212 24.2537 18.4642 23.953 19.0764 22.7393C19.4738 21.966 20.5801 20.8275 21.3212 20.4515C22.5671 19.8071 24.2748 19.6138 25.5207 19.979ZM32.1691 32.8891C32.3732 32.9857 32.6524 33.2435 32.792 33.4476C33.2324 34.092 32.9639 35.1016 32.2658 35.456C32.0724 35.5635 30.2036 35.5957 24.2748 35.5957C16.7027 35.5957 16.5309 35.5849 16.1872 35.3809C15.532 34.9835 15.3387 34.0705 15.7683 33.4368C16.2839 32.6635 15.8972 32.6957 24.2748 32.6957C31.2132 32.6957 31.8254 32.7065 32.1691 32.8891Z" fill="black"/>
<path d="M10.6913 23.5344C10.3369 23.6633 10.1543 23.9318 10.1543 24.3185C10.1543 25.0596 10.1865 25.0703 13.355 25.0703C16.0294 25.0703 16.1797 25.0596 16.3838 24.8555C16.5986 24.6407 16.6631 24.2755 16.5342 23.9426C16.3623 23.5237 15.9649 23.4592 13.355 23.47C11.9802 23.47 10.7772 23.5022 10.6913 23.5344Z" fill="black"/>
<path d="M31.9928 23.5344C31.4557 23.6418 31.2409 24.4581 31.6383 24.8555C31.8424 25.0596 31.9928 25.0703 34.6779 25.0703C37.2879 25.0703 37.5241 25.0596 37.6853 24.877C37.943 24.587 37.9215 23.964 37.6423 23.717C37.4382 23.5344 37.2127 23.5129 34.8175 23.5022C33.3998 23.4915 32.1217 23.5022 31.9928 23.5344Z" fill="black"/>
</svg>
