<svg width="37" height="50" viewBox="0 0 37 50" fill="none" xmlns="http://www.w3.org/2000/svg">
<path d="M1.85348 0.940907C0.549369 1.24776 0.472656 3.01215 0.472656 23.878C0.472656 38.3767 0.779507 46.4315 1.23978 46.4315C1.70006 46.4315 2.00691 47.1219 2.00691 47.9657C2.00691 49.3466 2.5439 49.5 8.52748 49.5C14.5111 49.5 15.0481 49.3466 15.0481 47.9657C15.0481 47.1219 15.4316 46.4315 15.8152 46.4315C16.2755 46.4315 16.5823 43.5931 16.5823 39.5274C16.5823 33.9273 16.8124 32.6232 17.733 32.6232C18.3467 32.6232 18.8837 32.0862 18.8837 31.3958C18.8837 30.7054 19.344 30.3218 19.881 30.4753C20.4947 30.7054 20.9549 33.3136 21.1851 38.4534C21.5686 45.7411 21.6453 46.0479 23.4097 46.2781C24.407 46.4315 25.5577 46.1246 25.8645 45.5109C26.2481 44.974 26.555 40.4479 26.555 35.5383C26.555 29.9383 26.8618 26.4862 27.3988 26.3328C27.7824 26.1794 28.3961 24.6451 28.6262 22.804C29.0098 20.0424 29.3166 19.5821 30.8509 19.5821C34.1495 19.5821 36.5276 18.2012 36.5276 16.2834C36.5276 12.2177 26.7084 11.9875 23.87 15.9766C22.4125 18.0478 22.4125 23.1109 23.87 26.0259C24.7138 27.5602 25.0207 30.6287 25.0207 36.6123C25.0207 44.2068 24.8673 44.974 23.7166 44.7438C22.4892 44.5137 22.3358 43.4397 22.1056 36.9191C21.9522 30.1684 21.7221 29.3246 20.4179 29.0177C19.5741 28.7876 18.8837 28.0972 18.8837 27.5602C18.8837 26.9465 18.3467 26.4862 17.733 26.4862C16.7357 26.4862 16.5823 24.6451 16.5823 14.2122C16.5823 2.93543 16.5056 1.93817 15.1248 1.17104C13.6672 0.403915 4.46171 0.250492 1.85348 0.940907ZM14.8946 23.5711L15.0481 44.8972H8.52748H2.00691V23.4177V1.86146L8.37406 2.09159L14.6645 2.32173L14.8946 23.5711ZM32.3084 16.13C32.3084 17.204 31.6947 17.741 30.1604 17.8944C28.4728 18.1245 27.9358 18.6615 27.5522 20.4259C27.0152 23.341 24.2536 23.5711 24.2536 20.6561C24.2536 19.5821 24.6371 18.0478 25.0974 17.204C26.7084 14.1355 32.3084 13.2916 32.3084 16.13ZM34.9933 16.5136C34.9933 16.8971 34.8399 17.2807 34.6865 17.2807C34.4564 17.2807 34.0728 16.8971 33.8427 16.5136C33.6125 16.0533 33.7659 15.7464 34.1495 15.7464C34.6098 15.7464 34.9933 16.0533 34.9933 16.5136ZM26.555 24.4917C26.555 24.7218 26.2481 25.1054 25.7878 25.3355C25.4043 25.5657 25.0207 25.4122 25.0207 25.0287C25.0207 24.5684 25.4043 24.1848 25.7878 24.1848C26.2481 24.1848 26.555 24.3383 26.555 24.4917ZM17.1193 30.4753C16.8892 31.0123 16.7357 30.6287 16.7357 29.5547C16.7357 28.4807 16.8892 28.0972 17.1193 28.5575C17.2727 29.0944 17.2727 30.015 17.1193 30.4753ZM13.5138 47.1986C13.5138 47.5822 12.3631 47.9657 10.9056 47.9657C9.52475 47.9657 7.22337 48.1959 5.91925 48.426C4.07815 48.8096 3.54116 48.6562 3.54116 47.6589C3.54116 46.6616 4.46171 46.4315 8.52748 46.4315C11.3658 46.4315 13.5138 46.7383 13.5138 47.1986Z" fill="black"/>
<path d="M3.54004 12.6783V21.1934L8.37293 20.9632L13.1291 20.7331L13.3593 12.4481L13.5894 4.23987H8.52636H3.54004V12.6783ZM11.9784 12.6783V19.5824H8.52636H5.07429V12.6783V5.77412H8.52636H11.9784V12.6783Z" fill="black"/>
<path d="M6.83946 28.3276C5.07507 31.0893 5.2285 31.8564 7.52988 31.8564C9.21755 31.8564 9.21755 32.1633 7.6833 34.5414C5.91891 37.2263 7.6833 36.9195 9.60112 34.2345C11.7491 31.3194 11.5956 30.3222 9.21755 30.3222C7.37645 30.3222 7.37645 30.2455 8.45043 28.6345C9.14084 27.7139 9.67783 26.64 9.67783 26.3331C9.67783 25.029 8.45043 25.8728 6.83946 28.3276Z" fill="black"/>
</svg>
