<svg width="33" height="50" viewBox="0 0 33 50" fill="none" xmlns="http://www.w3.org/2000/svg">
<path d="M12.8109 0.96896C7.37243 2.32857 2.7109 6.92536 1.02757 12.6875C-0.914734 19.4208 1.93398 26.4779 8.27884 30.492C10.7391 31.9811 12.2929 32.4343 15.7891 32.6285C21.2275 32.9522 24.8532 31.3984 28.5435 27.2548C38.8377 15.601 27.8961 -2.65667 12.8109 0.96896ZM22.5224 3.29972C23.623 3.75293 25.3711 4.98305 26.5365 6.08369C29.9032 9.38561 30.8743 11.8459 30.939 17.0253C30.939 21.1042 30.7448 21.9458 28.9967 24.4061C24.2705 31.1394 17.0839 33.2759 10.2859 29.9093C4.84743 27.2548 2.06347 22.8522 1.99872 16.8958C1.86923 6.08369 12.4224 -0.843857 22.5224 3.29972Z" fill="black"/>
<path d="M14.9464 4.91762C13.2631 5.95351 12.2919 9.57914 13.1336 11.7804C14.04 14.1759 15.0759 15.3413 15.788 14.8881C16.1118 14.6939 15.9175 13.917 15.3996 13.14C12.2919 8.73748 16.565 3.16954 20.2553 6.85992C21.8739 8.47851 21.8739 9.12594 20.1906 10.2913C19.2842 10.9388 19.09 11.392 19.6079 11.7157C20.5791 12.2984 22.8451 10.2266 22.8451 8.67274C22.8451 5.69454 17.7951 3.29903 14.9464 4.91762Z" fill="black"/>
<path d="M5.94746 11.9741C3.48721 14.4343 3.42246 17.283 5.75323 19.0958C7.82502 20.7792 10.1558 20.7792 13.0692 19.2253C15.8532 17.7362 14.6878 16.8946 11.8391 18.3189C7.88976 20.2612 4.13464 17.542 6.0122 14.1106C7.17758 12.0388 9.18463 11.4561 10.0263 12.9452C10.6737 14.1106 11.8391 14.3696 11.8391 13.3337C11.8391 12.492 9.4436 10.0965 8.5372 10.0965C8.14874 10.0965 6.98335 10.9382 5.94746 11.9741Z" fill="black"/>
<path d="M21.8101 13.3981C20.7095 13.7219 19.3499 14.434 18.8967 15.0815C18.055 16.0526 18.1197 16.1174 19.6088 15.6642C22.846 14.6283 25.4358 14.4988 26.4069 15.2757C27.7665 16.3763 27.637 19.3545 26.2127 20.6494C24.6588 22.0738 24.0114 22.009 22.9755 20.4552C22.5223 19.6783 21.8749 19.2898 21.5511 19.484C20.5152 20.1315 22.846 23.0449 24.3999 23.0449C26.1479 23.0449 28.4139 20.7789 28.9966 18.4481C29.3204 17.218 28.9966 16.3116 27.896 15.0815C26.0832 13.0744 24.4646 12.6212 21.8101 13.3981Z" fill="black"/>
<path d="M17.3426 19.6147C18.9612 23.6288 19.0906 24.4704 18.3785 26.0243C17.8605 27.1249 17.1483 27.5781 15.7887 27.5781C12.7458 27.5781 10.415 24.2115 12.8105 23.3051C13.3285 23.0461 13.7817 22.6576 13.7817 22.3339C13.7817 21.298 12.0983 21.6865 10.933 22.9813C9.50861 24.5999 10.4798 27.1897 13.0695 28.5493C15.724 29.9089 16.5656 29.7794 18.5727 27.9018C20.515 26.089 20.774 23.3698 19.2849 20.4563C18.1842 18.3845 16.5656 17.7371 17.3426 19.6147Z" fill="black"/>
<path d="M12.4877 36.7714C12.4229 40.8503 11.4518 41.8214 7.04922 41.8214C4.26525 41.8214 3.09987 42.1451 2.12871 43.1163C0.639614 44.6054 0.445384 47.7778 1.74025 48.8785C2.32294 49.3964 6.98447 49.5906 17.0845 49.4612L31.587 49.2669L31.7812 46.6124C32.0402 42.8573 30.8748 41.8214 26.1485 41.8214C21.6812 41.8214 20.9043 41.1092 20.3864 36.9657C20.2569 35.3471 19.8037 34.0522 19.4152 34.0522C18.3793 34.0522 19.2857 40.3971 20.5806 41.8214C21.487 42.7926 22.5876 43.1163 25.1774 43.1163C29.9037 43.1163 30.6158 43.5048 30.6158 46.0945V48.2958H16.696C1.48128 48.2958 1.09282 48.1663 2.64666 44.6701C3.35884 43.2458 3.7473 43.1163 7.56716 43.1163C11.2575 43.1163 11.7755 42.9221 12.7466 41.4977C13.8473 39.7496 14.171 34.0522 13.1351 34.0522C12.8114 34.0522 12.4877 35.2823 12.4877 36.7714Z" fill="black"/>
</svg>
