<svg width="43" height="42" viewBox="0 0 43 42" fill="none" xmlns="http://www.w3.org/2000/svg">
<path d="M6.07402 1.02795C3.52433 1.19793 3.35435 1.24043 2.16449 2.94022L0.889648 4.68251V22.6153C0.889648 38.5934 0.974638 40.6331 1.56957 40.8456C1.95202 40.9731 10.451 41.1006 20.5223 41.1006H38.7951L40.4524 39.4433L42.1096 37.786L42.0247 19.3857L41.8972 0.942963L25.3242 0.900467C16.2303 0.900467 7.56134 0.942963 6.07402 1.02795ZM39.7724 2.85523C39.0075 3.66263 38.4551 3.70513 20.9472 3.70513C2.9294 3.70513 2.88691 3.70513 3.65181 2.85523C4.41672 2.04783 4.96915 2.00533 22.477 2.00533C40.4948 2.00533 40.5373 2.00533 39.7724 2.85523ZM41.0473 20.4906C41.0473 36.2987 41.0048 37.7435 40.3249 38.4234C39.6025 39.1033 39.56 38.3384 39.56 21.7229C39.56 4.80999 39.645 3.28018 40.8348 3.28018C40.9623 3.28018 41.0473 11.0142 41.0473 20.4906ZM38.2851 22.4029V39.8257H20.2248H2.16449V22.4029V4.97997H20.2248H38.2851V22.4029Z" fill="black"/>
<path d="M17.1208 13.9465C16.1435 14.4564 15.0811 15.2638 14.8261 15.7737C14.5287 16.2412 14.1887 18.6634 14.0187 21.0856C13.8062 24.6552 13.8912 25.8025 14.4862 27.3323C15.4635 30.0095 16.1435 30.5194 19.0756 30.7744C22.2627 31.0719 24.8124 29.8395 25.5348 27.6723C26.1722 25.7175 26.1297 17.5585 25.4498 16.1562C24.09 13.394 20.223 12.3742 17.1208 13.9465ZM23.6226 15.7312C24.8549 17.1336 25.2374 19.8532 24.8549 24.1877C24.5999 27.1199 24.3875 27.7998 23.4951 28.6497C21.5828 30.4345 17.4608 30.477 15.931 28.6922C15.1236 27.7998 15.1236 27.7998 15.9735 28.1397C16.4409 28.3522 17.8857 28.6072 19.1606 28.6922C21.0729 28.8197 21.7103 28.6922 22.6877 27.9273C23.7925 27.0349 23.835 26.9074 23.835 22.3604C23.835 17.9835 23.7925 17.6435 22.7727 16.6661C21.9653 15.8162 21.3278 15.6038 19.5855 15.6038C17.0783 15.6038 15.931 16.4962 15.591 18.6634C15.4635 19.4283 15.2936 20.5332 15.2086 21.1281C15.0811 21.723 14.9961 21.0856 14.9536 19.7258C14.9536 18.3659 15.1236 16.8786 15.3361 16.4537C16.6109 14.0739 21.8378 13.649 23.6226 15.7312ZM21.9228 17.516C22.6027 18.1535 22.9851 19.0458 22.9851 19.8532V21.1281H19.5855H16.186V19.8532C16.186 18.111 17.8433 16.4537 19.5855 16.4537C20.3929 16.4537 21.2853 16.8361 21.9228 17.516ZM22.0502 22.7004C22.1352 22.9979 21.6253 23.8053 20.9454 24.5277C19.8405 25.6325 19.3306 25.8025 17.4608 25.8025C14.9111 25.8025 14.4862 25.2076 15.6335 23.2528C16.3559 21.978 16.4834 21.9355 19.1181 22.063C20.8179 22.148 21.9228 22.4029 22.0502 22.7004ZM22.1352 27.1624C21.1579 27.9698 18.5232 28.1822 17.5458 27.5448C17.1633 27.3323 17.5458 27.1199 18.7356 26.9074C19.8405 26.7374 20.9454 26.185 21.6253 25.4626L22.7727 24.3152L22.9001 25.3776C23.0276 26.0575 22.7302 26.6524 22.1352 27.1624Z" fill="black"/>
</svg>
