<svg width="31" height="50" viewBox="0 0 31 50" fill="none" xmlns="http://www.w3.org/2000/svg">
<path d="M10.4585 0.783836C4.02115 1.64215 1.07072 3.84156 0.587922 8.29403C0.373345 10.3325 0.69521 11.3517 3.05555 15.8579C5.57683 20.6858 5.68412 21.0613 4.71852 21.3832C3.80657 21.6514 3.64564 22.1879 3.64564 25.1919C3.64564 27.1231 3.86022 28.6252 4.18208 28.6252C4.50395 28.6252 4.71852 29.1616 4.71852 29.8053C4.71852 30.4491 5.09403 31.4147 5.63048 31.9511C6.11327 32.4876 6.64971 34.3115 6.81065 36.2426C7.13251 39.5686 7.13251 39.6222 8.90277 39.7832L10.6194 39.9441L10.4048 43.1091C10.2439 46.0059 10.2975 46.2741 11.585 46.8642C12.3896 47.1861 13.3016 47.9371 13.7307 48.5272C14.75 49.9756 16.0911 49.8146 18.0223 47.9907C20.2217 45.845 20.6508 44.8794 20.4899 42.1972C20.3826 40.0514 20.4363 39.9441 22.0456 39.7832C23.7086 39.6222 23.7622 39.5686 24.0841 36.2963C24.245 34.4724 24.6205 32.6485 24.9424 32.273C25.2642 31.8975 25.6398 30.9319 25.8543 30.0736C26.0153 29.2689 26.4444 28.6252 26.7126 28.6252C27.0345 28.6252 27.2491 27.0695 27.2491 25.1919C27.2491 22.1879 27.1418 21.7587 26.1226 21.4905C25.0497 21.2223 25.157 20.9541 27.7319 15.9651C29.2339 13.0684 30.4677 10.0106 30.4677 9.20597C30.4677 6.73834 29.073 4.05613 27.1954 2.92961C23.9231 0.944771 16.6275 -0.0208244 10.4585 0.783836ZM20.4363 1.80308C24.8887 2.44681 26.9809 3.46605 28.3756 5.7191C29.9313 8.18674 29.4485 10.8689 26.3371 16.5552L23.7622 21.3296L21.3482 21.3832H18.9342L18.6124 18.4328C18.3441 16.1261 18.5051 15.1068 19.2561 13.8194C20.3826 11.9418 20.4899 11.459 19.8462 11.459C19.578 11.459 18.9342 12.2637 18.4514 13.1756C17.6468 14.6777 17.2176 14.9459 15.4474 14.9459C13.6771 14.9459 13.248 14.6777 12.4433 13.1756C11.9605 12.2637 11.3168 11.459 11.0485 11.459C10.4048 11.459 10.5121 12.1028 11.585 13.873C12.336 15.1068 12.4969 16.1261 12.2824 18.4328L11.9605 21.3832H9.5465H7.18616L4.50395 16.5552C0.426989 9.09869 0.641566 5.55817 5.30861 3.09054C8.36633 1.53486 14.75 0.998413 20.4363 1.80308ZM17.3786 17.038C17.5395 17.7354 17.5931 19.0229 17.4858 19.8275C17.3249 21.2223 17.1103 21.3832 15.4474 21.3832C13.7844 21.3832 13.5698 21.2223 13.4089 19.8275C13.087 16.9844 13.6771 15.7506 15.4474 15.7506C16.6812 15.7506 17.1103 16.0188 17.3786 17.038ZM26.1762 24.8701V27.5523H15.4474H4.71852V24.8701V22.1879H15.4474H26.1762V24.8701ZM24.996 29.8053C24.8351 31.0392 24.7815 31.0392 15.4474 31.0392C6.11327 31.0392 6.05963 31.0392 5.8987 29.8053L5.73776 28.6252H15.4474H25.157L24.996 29.8053ZM23.494 32.6485C23.494 33.3459 22.2602 33.4532 15.4474 33.4532C8.63455 33.4532 7.40073 33.3459 7.40073 32.6485C7.40073 31.9511 8.63455 31.8438 15.4474 31.8438C22.2602 31.8438 23.494 31.9511 23.494 32.6485ZM22.9575 36.5109V38.8176H15.4474H7.93718V36.5109V34.2578H15.4474H22.9575V36.5109ZM19.2025 40.6415C19.2025 41.1779 18.3441 41.5534 16.6812 41.768C12.0141 42.3581 11.9605 42.3581 11.7996 41.0706C11.6386 39.9441 11.7996 39.8905 15.3937 39.8905C18.3441 39.8905 19.2025 40.0514 19.2025 40.6415ZM19.2025 43.3237C19.2025 44.0747 16.5739 44.7184 13.4089 44.7184C10.7267 44.7184 11.5313 43.431 14.4281 43.0555C18.5051 42.519 19.2025 42.519 19.2025 43.3237ZM18.666 45.7377C18.666 46.435 17.2713 46.8642 15.1791 46.8642C12.7652 46.8642 12.2824 45.8986 14.4818 45.6304C17.8077 45.2549 18.666 45.2549 18.666 45.7377Z" fill="black" stroke="black"/>
<path d="M8.97196 3.8242C8.11366 3.93149 7.46992 4.307 7.46992 4.62887C7.46992 4.95073 8.11366 5.05802 9.13289 4.84344C10.0448 4.68251 11.4932 4.52158 12.3515 4.52158C13.2099 4.52158 13.9072 4.25336 13.9072 3.98514C13.9072 3.44869 11.8687 3.39505 8.97196 3.8242Z" fill="black" stroke="black"/>
<path d="M4.25139 6.72159C3.44673 8.22363 4.03681 8.76007 5.05605 7.41897C5.968 6.23879 6.07529 5.59506 5.32427 5.59506C5.05605 5.59506 4.57325 6.07786 4.25139 6.72159Z" fill="black" stroke="black"/>
</svg>
