<svg width="49" height="48" viewBox="0 0 49 48" fill="none" xmlns="http://www.w3.org/2000/svg">
<path d="M17.5971 0.515659C11.2479 2.57242 4.63054 8.65327 2.03724 14.7341C-0.198372 20.0996 0.159325 29.042 2.93148 34.3181C6.95558 42.2768 15.898 48 24.4828 48C29.5799 48 36.1973 45.4067 40.3109 41.7403C56.3178 27.7007 47.1071 1.14163 26.003 0.0685349C22.6943 -0.110313 18.9384 0.0685349 17.5971 0.515659ZM30.8319 2.84069C47.9119 7.93788 51.936 30.8305 37.5387 41.2932C19.2067 54.7963 -5.02729 35.0335 4.71997 14.4659C7.49212 8.65327 11.2479 5.25515 17.0605 3.19839C22.8731 1.23105 25.1087 1.14163 30.8319 2.84069Z" fill="black"/>
<path d="M21.0793 17.403C19.2457 20.8411 17.4884 24.4321 17.1445 25.4636C16.0749 28.5579 16.8771 32.4163 19.0546 34.7848C20.4681 36.3511 21.958 36.9241 24.7467 36.8859C27.0006 36.8859 27.5737 36.7331 28.9107 35.7781C29.7894 35.1668 30.8972 33.9062 31.4321 32.9511C32.2343 31.423 32.3107 30.8882 32.1579 27.9849C31.9669 24.7377 31.9669 24.6995 28.4523 18.167C26.5422 14.5378 24.8231 11.4817 24.6703 11.4053C24.5175 11.2906 22.8748 14.003 21.0793 17.403ZM27.6501 20.0007C29.1399 22.8658 30.3624 25.3871 30.3624 25.6164C30.3624 25.9602 28.6815 26.0748 24.4411 26.0748C21.1939 26.0748 18.5198 25.9602 18.5198 25.8456C18.5198 25.2343 24.4793 14.3086 24.6703 14.5378C24.8231 14.6906 26.1602 17.1355 27.6501 20.0007ZM19.2839 28.5579C19.2839 30.0096 20.2389 31.9961 21.2321 32.7219C22.4928 33.6006 22.6456 32.7219 21.6142 31.0028C21.1557 30.277 20.8119 29.2073 20.8119 28.6343V27.5647L25.8928 27.6793L30.9354 27.7939L30.8208 29.1309C30.5152 32.4927 29.0635 34.4792 26.2748 35.205C24.2501 35.7399 21.8434 35.2432 20.5445 34.0208C18.5962 32.2635 17.2974 27.6029 18.7108 27.6029C19.0546 27.6029 19.2839 27.9467 19.2839 28.5579Z" fill="black"/>
</svg>
