<svg width="57" height="44" viewBox="0 0 57 44" fill="none" xmlns="http://www.w3.org/2000/svg">
<path d="M1.84125 21.1084C1.84125 36.7714 1.60863 41.6564 0.910774 41.9666C-2.03573 42.9746 3.08188 43.2848 23.8625 43.3623C44.488 43.3623 50.0709 43.0521 47.0468 41.9666C46.2714 41.6564 46.0388 36.7714 46.0388 21.1084V0.637981H23.94H1.84125V21.1084ZM44.488 21.9614V41.734H42.1618H39.8356V27.0014V12.2689H23.94H8.04441V27.0014V41.734H5.71823H3.39204V21.9614V2.18877H23.94H44.488V21.9614ZM38.2849 27.7768V41.734H23.94H9.59521V27.7768V13.8197H23.94H38.2849V27.7768Z" fill="black"/>
<path d="M20.9233 5.75524C20.2254 6.37556 19.6826 7.61619 19.6826 8.46913C19.6826 9.70976 20.2254 9.94238 23.5596 9.94238C26.8938 9.94238 27.4366 9.70976 27.4366 8.46913C27.4366 6.53064 25.4205 4.51461 23.5596 4.51461C22.7842 4.51461 21.5436 5.05739 20.9233 5.75524ZM24.6452 6.53064C26.7387 7.30604 26.0409 8.39159 23.4821 8.39159C21.3885 8.39159 21.1559 8.23651 22.0088 7.2285C23.0944 5.91032 23.0168 5.91032 24.6452 6.53064Z" fill="black"/>
<path d="M14.2432 20.7978C14.2432 21.2631 17.9651 21.5732 23.9356 21.5732C29.9062 21.5732 33.6281 21.2631 33.6281 20.7978C33.6281 20.3326 29.9062 20.0225 23.9356 20.0225C17.9651 20.0225 14.2432 20.3326 14.2432 20.7978Z" fill="black"/>
<path d="M14.2432 28.5518C14.2432 29.017 17.9651 29.3271 23.9356 29.3271C29.9062 29.3271 33.6281 29.017 33.6281 28.5518C33.6281 28.0865 29.9062 27.7764 23.9356 27.7764C17.9651 27.7764 14.2432 28.0865 14.2432 28.5518Z" fill="black"/>
<path d="M14.7941 35.9955C13.3208 37.5463 15.0267 37.8564 24.0213 37.8564C31.4651 37.8564 33.7137 37.6238 33.4811 36.8484C33.0934 35.8404 15.8021 35.065 14.7941 35.9955Z" fill="black"/>
<path d="M51.6235 9.39999C49.5299 11.6486 49.4524 12.5016 51.4684 11.8813C52.9417 11.416 53.0192 11.7262 53.0192 16.9213C53.0192 22.1165 52.9417 22.4266 51.4684 21.9614C49.2973 21.2635 49.5299 22.8143 51.8561 24.3651C53.7171 25.6058 53.9497 25.6058 55.3454 24.2876C57.2063 22.6593 57.3614 21.186 55.7331 21.8839C54.8026 22.194 54.57 21.3411 54.57 16.8438C54.57 12.269 54.8026 11.416 55.7331 11.8037C57.439 12.424 57.1288 11.1834 55.1128 9.32245L53.3294 7.61658L51.6235 9.39999Z" fill="black"/>
</svg>
