<svg width="49" height="48" viewBox="0 0 49 48" fill="none" xmlns="http://www.w3.org/2000/svg">
<path d="M17.5971 0.515659C11.2479 2.57242 4.63054 8.65327 2.03724 14.7341C-0.198372 20.0996 0.159325 29.042 2.93148 34.3181C6.95558 42.2768 15.898 48 24.4828 48C29.5799 48 36.1973 45.4067 40.3109 41.7403C56.3178 27.7007 47.1071 1.14163 26.003 0.0685349C22.6943 -0.110313 18.9384 0.0685349 17.5971 0.515659ZM30.8319 2.84069C47.9119 7.93788 51.936 30.8305 37.5387 41.2932C19.2067 54.7963 -5.02729 35.0335 4.71997 14.4659C7.49212 8.65327 11.2479 5.25515 17.0605 3.19839C22.8731 1.23105 25.1087 1.14163 30.8319 2.84069Z" fill="black"/>
<path d="M22.7668 10.0607C19.7503 10.2722 17.357 10.9957 16.6446 11.9085C16.333 12.2981 16.3441 12.8324 16.678 13.2999C16.8339 13.5114 17.4238 14.4798 18.0138 15.4593C19.2716 17.5632 19.9172 18.4203 20.4515 18.6652C21.3309 19.0881 22.4997 19.244 24.648 19.2328C26.8075 19.2328 27.9095 19.077 28.7443 18.6652C29.2898 18.398 30.0578 17.4184 31.0708 15.682C31.5383 14.8805 32.0837 13.99 32.2952 13.7006C32.9631 12.7544 32.9854 12.3648 32.4065 11.7415C31.2934 10.5504 26.8298 9.77126 22.7668 10.0607ZM28.5996 11.0068C30.6144 11.3742 32.106 12.042 32.106 12.5541C32.106 12.7099 32.0281 12.9103 31.9279 13.0105C31.4381 13.5002 29.9799 14.0011 28.1433 14.3017C26.7852 14.5354 22.099 14.5021 20.7632 14.2572C18.6705 13.8564 17.0788 13.1663 17.0788 12.6431C17.0788 12.5318 17.1901 12.3315 17.3348 12.209C18.0249 11.5745 19.4163 11.1627 22.1435 10.7953C23.034 10.6729 27.6423 10.8287 28.5996 11.0068ZM20.4961 14.9139C21.7873 15.1477 25.8947 15.2478 27.442 15.0809C28.0765 15.003 29.1228 14.8249 29.7462 14.669C30.3806 14.5132 30.9261 14.413 30.9483 14.4353C31.004 14.4909 30.4029 15.5484 30.1357 15.8712C29.7684 16.2942 26.6294 16.8508 24.559 16.8508C22.9672 16.8508 20.3959 16.4612 19.3829 16.0827C19.1826 16.0048 18.1919 14.58 18.1919 14.3573C18.1919 14.3351 18.4924 14.4019 18.8598 14.5243C19.216 14.6356 19.9618 14.8137 20.4961 14.9139ZM21.3643 17.2626C23.3791 17.6299 26.3956 17.5743 28.5885 17.1179C29.0115 17.0289 29.3788 16.9732 29.4011 16.9955C29.4679 17.0734 28.7555 17.9082 28.4995 18.0418C27.6757 18.4759 24.7037 18.7431 22.9783 18.5316C21.2975 18.3201 20.6964 18.1197 20.2512 17.5965C19.7837 17.0511 19.7614 16.9175 20.1733 17.0177C20.3402 17.0622 20.8745 17.1624 21.3643 17.2626Z" fill="black"/>
<path d="M28.2646 20.4682C26.9623 21.5925 25.0699 22.0934 23.4002 21.7372C22.6099 21.5702 21.5747 21.0693 20.9959 20.5795C20.495 20.1454 20.161 20.112 20.1054 20.4793C20.0386 20.9135 21.7751 22.0377 23.0218 22.3717C23.7119 22.5609 25.0922 22.572 25.8936 22.4051C27.2628 22.1156 29.1551 20.9135 29.0772 20.368C29.0215 20.0118 28.7544 20.0452 28.2646 20.4682Z" fill="black"/>
<path d="M31.048 23.8633C29.0666 25.5441 26.4842 26.4235 23.9796 26.2788C21.6977 26.1452 19.7275 25.366 18.0022 23.8967C17.3009 23.2956 16.9669 23.2288 16.9669 23.6629C16.9669 24.1416 18.8927 25.5552 20.3509 26.1563C20.8518 26.3678 21.3193 26.5348 21.3972 26.5348C21.464 26.5348 21.5308 26.5793 21.5308 26.6461C21.5308 26.7018 21.464 26.7574 21.3749 26.7574C21.297 26.7574 20.8072 26.9689 20.2952 27.2249C19.6384 27.5477 19.1598 27.8928 18.6144 28.4382L17.8574 29.1952L17.2118 28.8167C16.4104 28.3492 15.3084 27.5477 14.6739 26.9578C14.1619 26.4903 13.8168 26.4346 13.7611 26.8242C13.7166 27.1136 15.3863 28.5273 16.6553 29.2842L17.5124 29.7851L17.3009 30.2081C17.0894 30.62 17.0894 30.62 16.2545 30.6868C15.3974 30.7535 14.5292 31.0652 13.8391 31.555L13.5051 31.7887L12.9263 31.3435C12.6035 31.0875 12.0358 30.6088 11.6573 30.2749C11.29 29.9298 10.9227 29.6515 10.8559 29.6515C10.7891 29.6515 10.6889 29.7517 10.6221 29.863C10.5331 30.0411 10.5665 30.1413 10.8113 30.4085C11.1342 30.7424 12.392 31.811 12.8261 32.1227L13.0821 32.3008L12.8038 32.7015C12.3809 33.336 12.136 34.182 12.136 35.0502C12.136 36.386 12.8595 37.3989 14.1062 37.8219C14.5849 37.9777 15.698 38 24.4583 38C30.792 38 34.4208 37.9555 34.6879 37.8887C35.5005 37.6549 36.135 37.1095 36.5469 36.2858C36.9031 35.5845 36.9365 35.4287 36.981 34.2822C37.0144 33.2469 36.9921 32.9353 36.8029 32.3787L36.5691 31.7108L37.5153 30.8426C38.428 29.9966 38.6395 29.607 38.2945 29.4734C38.1943 29.44 37.7602 29.7295 37.2259 30.197C36.7138 30.6311 36.2797 30.9873 36.2352 30.9873C36.1907 30.9873 36.0793 30.8426 35.968 30.6645C35.6898 30.197 34.5766 29.1952 33.9644 28.8724C33.675 28.7165 33.4412 28.5718 33.4412 28.5384C33.4524 28.505 33.6305 28.3492 33.842 28.1822C34.6211 27.5923 35.3335 26.8576 35.3335 26.635C35.3335 26.1786 34.9996 26.2899 34.0312 27.1136C33.4969 27.57 32.9626 28.0041 32.8513 28.0932C32.7066 28.2045 32.2724 28.249 31.3486 28.2601C30.3245 28.2713 29.9015 28.3269 29.3783 28.505L28.7216 28.7388L28.1539 28.2267C27.8311 27.9373 27.2634 27.5255 26.8849 27.3028L26.2059 26.9021L26.9517 26.7129C28.2095 26.3901 29.3561 25.8892 30.3913 25.2102C31.5489 24.4421 32.2502 23.752 32.1945 23.4626C32.1277 23.0952 31.8383 23.1954 31.048 23.8633ZM24.859 27.2583C25.9276 27.5143 26.9072 28.0486 27.7643 28.839C28.1761 29.2174 28.5546 29.5402 28.6103 29.5402C28.6548 29.5402 28.9999 29.4178 29.3783 29.2619C31.215 28.5384 33.1963 28.9169 34.6768 30.2972C35.879 31.3992 36.4022 32.7015 36.3131 34.3378C36.2129 35.9518 35.623 36.898 34.4987 37.2097C33.9087 37.3655 15.0858 37.3766 14.5069 37.2208C12.3363 36.6197 12.2473 33.6699 14.3288 32.0893C15.0412 31.5661 15.6089 31.388 16.6664 31.3769H17.5346L17.9242 30.5532C19.1487 28.0375 22.1319 26.6238 24.859 27.2583Z" fill="black"/>
<path d="M21.6971 30.9539C21.1516 31.0653 20.8511 31.2656 20.6173 31.6441C20.3947 31.9891 20.3613 32.2006 20.3613 33.1579C20.3613 34.7497 20.673 35.2506 21.7861 35.3953C22.7768 35.54 23.7564 34.9055 23.7564 34.1264C23.7564 33.7145 23.3334 33.8035 23.1441 34.2711C23.0551 34.4826 22.877 34.7052 22.7657 34.772C22.4206 34.9501 21.5858 34.9055 21.3186 34.6829C20.6285 34.1375 20.7621 31.811 21.4967 31.5328C22.1869 31.2767 22.8547 31.4882 23.1219 32.0559C23.2443 32.3008 23.389 32.4344 23.5337 32.4344C23.9901 32.4344 23.6784 31.5105 23.0996 31.1877C22.7768 30.9985 22.0422 30.876 21.6971 30.9539Z" fill="black"/>
<path d="M25.716 31.01C24.8255 31.1992 24.5361 31.7447 24.5361 33.2251C24.5361 34.5275 24.7142 34.9393 25.4044 35.251C25.7828 35.418 26.0389 35.4514 26.4618 35.4069C27.6084 35.2621 27.9312 34.7724 27.9312 33.1361C27.9312 32.1677 27.8978 31.9673 27.6974 31.7001C27.2076 31.0434 26.5732 30.8208 25.716 31.01ZM26.9405 31.689C27.5972 32.2567 27.5082 34.5497 26.818 34.8169C26.3951 34.9727 25.7717 34.8837 25.46 34.6165C25.1595 34.3494 25.1484 34.3271 25.1484 33.1583C25.1484 31.9896 25.1595 31.9673 25.46 31.7001C25.883 31.3439 26.5286 31.3328 26.9405 31.689Z" fill="black"/>
<path d="M29.1112 31.0204C28.8106 31.1763 28.5769 31.6549 28.7995 31.6549C28.8774 31.6549 28.9998 31.5547 29.0778 31.4212C29.2781 31.0984 29.8124 31.1651 29.857 31.5325C29.8903 31.7328 29.7456 31.9555 29.2559 32.4452C28.8997 32.8014 28.6325 33.1131 28.6659 33.1465C28.7216 33.2022 29.3227 33.2356 29.857 33.2244C30.4135 33.2022 30.2799 32.9907 29.7011 32.9907H29.1779L29.7011 32.4341C30.3022 31.7996 30.3579 31.4546 29.9237 31.1095C29.5787 30.8423 29.4785 30.8312 29.1112 31.0204Z" fill="black"/>
</svg>
