<svg width="65" height="50" viewBox="0 0 65 50" fill="none" xmlns="http://www.w3.org/2000/svg">
<path d="M28.1186 1.17495C23.4976 2.14214 18.0168 5.68851 19.199 6.87064C19.5214 7.3005 21.4558 6.44077 23.2827 5.04372C28.0112 1.60481 37.898 1.60481 42.519 5.04372C46.2804 7.83783 47.7849 8.16023 45.743 5.68851C42.4116 1.60481 34.7815 -0.329573 28.1186 1.17495Z" fill="black"/>
<path d="M52.9417 1.28117C51.3297 2.46329 51.2223 4.93501 51.4372 23.5266L51.7596 44.4824H54.4462H57.1329L57.4553 23.4191C57.6702 6.76192 57.4553 2.03343 56.2732 1.1737C55.1985 0.206512 54.3388 0.313976 52.9417 1.28117ZM55.5209 22.4519C55.5209 35.3478 55.091 42.8704 54.4462 42.8704C53.8015 42.8704 53.3716 35.3478 53.3716 22.4519C53.3716 9.55603 53.8015 2.03343 54.4462 2.03343C55.091 2.03343 55.5209 9.55603 55.5209 22.4519Z" fill="black"/>
<path d="M8.23694 22.8816V45.0195H10.9236H13.6102L13.3953 23.204C13.0729 1.60335 13.0729 1.49588 10.7087 1.17348L8.23694 0.851089V22.8816ZM12.3206 22.989C12.3206 39.0014 11.9982 42.8702 10.8161 42.8702C9.63399 42.8702 9.3116 39.1089 9.3116 23.204C9.3116 12.3499 9.63399 3.10787 9.95639 2.78547C11.9982 0.851089 12.4281 4.93479 12.3206 22.989Z" fill="black"/>
<path d="M26.8264 8.05175C24.892 9.01895 23.28 10.2011 23.28 10.7384C23.28 12.1355 24.5696 11.9205 26.9339 10.0936C29.728 8.05175 34.349 8.05175 38.4327 10.2011C42.5164 12.2429 43.806 11.3832 40.1522 9.01895C36.1759 6.43977 30.8026 6.0099 26.8264 8.05175Z" fill="black"/>
<path d="M28.9767 13.5324C26.0752 14.6071 27.7946 15.4668 32.953 15.4668C37.574 15.4668 38.1113 15.2519 36.4993 14.0697C34.6724 12.7802 31.341 12.4578 28.9767 13.5324Z" fill="black"/>
<path d="M31.8784 19.6575C31.8784 20.6247 32.4157 21.377 32.953 21.377C33.5978 21.377 34.0277 20.9471 34.0277 20.4098C34.0277 19.765 33.5978 19.0127 32.953 18.6903C32.4157 18.3679 31.8784 18.7978 31.8784 19.6575Z" fill="black"/>
<path d="M2.43169 37.8198C1.03463 38.8945 0.604769 40.399 0.927166 43.9454L1.24956 48.7813L30.8027 49.3187C47.03 49.641 61.2155 49.5336 62.2901 48.9963C64.6544 47.9216 64.8693 39.4318 62.5051 37.4974C61.5379 36.7452 60.5707 36.4228 60.1408 36.8526C59.711 37.175 60.2483 38.1422 61.3229 38.8945C62.6125 39.8617 63.1499 41.3662 62.8275 43.9454L62.5051 47.7067L32.737 48.0291C9.20203 48.244 2.86155 48.0291 2.75408 46.9544C2.43169 43.3006 3.18395 39.0019 4.25861 38.3571C4.9034 37.9273 5.2258 37.3899 4.9034 37.0676C4.581 36.7452 3.50635 37.0676 2.43169 37.8198Z" fill="black"/>
<path d="M16.8321 37.4976C16.8321 38.1424 22.9576 38.5723 32.952 38.5723C42.9463 38.5723 49.0718 38.1424 49.0718 37.4976C49.0718 36.8528 42.9463 36.4229 32.952 36.4229C22.9576 36.4229 16.8321 36.8528 16.8321 37.4976Z" fill="black"/>
<path d="M20.0561 42.8707C20.0561 43.408 20.4859 43.9453 21.0233 43.9453C21.668 43.9453 22.4203 43.408 22.7427 42.8707C23.0651 42.2259 22.6352 41.796 21.7755 41.796C20.8083 41.796 20.0561 42.2259 20.0561 42.8707Z" fill="black"/>
<path d="M26.504 42.8707C26.504 43.408 27.2563 43.9453 28.116 43.9453C28.9757 43.9453 29.728 43.408 29.728 42.8707C29.728 42.2259 28.9757 41.796 28.116 41.796C27.2563 41.796 26.504 42.2259 26.504 42.8707Z" fill="black"/>
<path d="M34.0287 42.8707C34.0287 43.408 34.781 43.9453 35.6407 43.9453C36.5004 43.9453 37.2527 43.408 37.2527 42.8707C37.2527 42.2259 36.5004 41.796 35.6407 41.796C34.781 41.796 34.0287 42.2259 34.0287 42.8707Z" fill="black"/>
</svg>
