<svg width="51" height="50" viewBox="0 0 51 50" fill="none" xmlns="http://www.w3.org/2000/svg">
<path d="M6.12958 8.95873L0.969727 17.5021V27.991V38.5645H24.9927C46.5625 38.5645 49.1002 38.3953 49.5231 37.1265C49.8615 36.3652 50.0306 31.882 49.9461 27.0605L49.8615 18.4326L44.5324 9.63543L39.288 0.922886L25.2464 0.669125L11.2894 0.499947L6.12958 8.95873ZM42.2486 9.63543C44.7016 13.7802 46.6471 17.3329 46.6471 17.6713C46.6471 18.0096 36.9195 18.2634 25.0772 18.2634C13.235 18.2634 3.50736 18.0096 3.50736 17.6713C3.50736 17.3329 5.53747 13.6956 7.99051 9.63543L12.3891 2.1917H25.0772H37.85L42.2486 9.63543ZM47.493 28.4139V36.8727H25.0772H2.66148V28.4139V19.9551H25.0772H47.493V28.4139Z" fill="black"/>
<path d="M24.1474 6.92783C22.8786 8.78876 22.8786 9.2117 23.8937 9.80381C24.8241 10.3959 24.8241 10.8189 23.9783 11.6647C22.794 12.849 22.6248 14.0332 23.8091 14.0332C24.232 14.0332 25.2471 13.0181 26.0084 11.8339C27.2772 9.97299 27.2772 9.55005 26.2621 8.95794C25.3317 8.36582 25.3317 7.94288 26.1775 7.097C27.3618 5.91278 27.5309 4.72855 26.3467 4.72855C25.9238 4.72855 24.9087 5.7436 24.1474 6.92783Z" fill="black"/>
<path d="M8.58078 25.8756C8.58078 26.9752 7.98866 27.5673 6.88902 27.5673C5.95856 27.5673 5.19727 27.9057 5.19727 28.4132C5.19727 28.8361 5.95856 29.2591 6.88902 29.2591C7.98866 29.2591 8.58078 29.8512 8.58078 30.9508C8.58078 31.8813 9.00372 32.6426 9.42666 32.6426C9.93418 32.6426 10.2725 31.8813 10.2725 30.9508C10.2725 29.8512 10.8646 29.2591 11.9643 29.2591C12.8948 29.2591 13.656 28.8361 13.656 28.4132C13.656 27.9057 12.8948 27.5673 11.9643 27.5673C10.8646 27.5673 10.2725 26.9752 10.2725 25.8756C10.2725 24.9451 9.93418 24.1838 9.42666 24.1838C9.00372 24.1838 8.58078 24.9451 8.58078 25.8756Z" fill="black"/>
<path d="M18.901 25.1986C17.463 26.6366 17.6321 30.5276 19.0701 31.7964C21.0156 33.319 24.0608 32.4731 25.4142 29.9355C26.5984 27.9054 26.5984 27.567 25.1604 25.9598C23.3841 24.0143 20.4235 23.676 18.901 25.1986ZM23.6379 27.9054C24.0608 29.9355 22.792 31.1197 21.0156 30.443C19.5777 29.9355 19.0701 27.4824 20.1698 26.3828C21.1848 25.3677 23.3841 26.2982 23.6379 27.9054Z" fill="black"/>
<path d="M29.7285 28.4134V31.7969H33.112H36.4955V28.4134V25.0299H33.112H29.7285V28.4134ZM34.8038 28.4134C34.8038 29.513 34.2117 30.1051 33.112 30.1051C32.0124 30.1051 31.4203 29.513 31.4203 28.4134C31.4203 27.3137 32.0124 26.7216 33.112 26.7216C34.2117 26.7216 34.8038 27.3137 34.8038 28.4134Z" fill="black"/>
<path d="M39.4553 28.4139C39.1169 28.9214 40.132 29.2598 41.9083 29.2598C43.6001 29.2598 44.9535 28.8368 44.9535 28.4139C44.9535 27.9064 43.8538 27.568 42.5004 27.568C41.0624 27.568 39.709 27.9064 39.4553 28.4139Z" fill="black"/>
<path d="M45.7167 42.4555C45.6321 42.8784 45.6321 43.4706 45.7167 43.8089C45.8858 45.0777 41.5719 45.3315 21.44 45.0777C5.53747 44.9931 0.969727 45.1623 0.969727 45.9236C0.969727 46.7695 6.04499 47.0232 23.3855 47.0232C42.9253 47.0232 45.7167 47.1924 45.2937 48.2921C44.5324 50.153 46.1396 49.8146 48.1697 47.6154L50.0306 45.6698L47.916 43.6397C46.7317 42.5401 45.7167 42.0326 45.7167 42.4555Z" fill="black"/>
</svg>
