<svg width="33" height="50" viewBox="0 0 33 50" fill="none" xmlns="http://www.w3.org/2000/svg">
<path d="M11.2313 1.83949C7.94752 2.88749 3.12667 7.84808 2.21839 11.1319C0.611444 17.0007 1.65946 21.7517 5.6419 26.2931C7.73792 28.6686 8.4366 30.0659 8.4366 31.8126C8.4366 33.3497 8.92567 34.747 9.83395 35.5156C10.9518 36.4937 11.2313 37.6815 11.2313 41.1748C11.2313 45.1573 11.371 45.6464 13.3972 47.3232C16.0521 49.5589 16.4714 49.5589 19.4058 47.3232C21.5717 45.6464 21.7114 45.3669 21.7114 41.1748C21.7114 37.6815 21.9909 36.4937 23.1088 35.5156C24.017 34.747 24.5061 33.3497 24.5061 31.8126C24.5061 30.0659 25.2048 28.6686 27.3008 26.2931C33.0299 19.7954 32.8902 11.3415 26.9515 5.47259C22.8293 1.28054 17.1002 -0.046936 11.2313 1.83949ZM23.4581 4.00537C31.3531 8.19742 32.7505 18.6077 26.3925 25.804C24.3664 28.1096 23.3882 29.9262 23.1088 31.9523L22.7594 34.8169H16.4714H10.1833L9.83395 31.9523C9.55448 29.9262 8.57633 28.1096 6.55018 25.804C-1.27498 16.9308 2.70747 4.49445 14.026 2.32856C17.3098 1.69975 20.1045 2.18882 23.4581 4.00537ZM18.9167 37.1924C14.7945 38.45 11.93 38.5898 11.93 37.5417C11.93 36.7732 12.9081 36.5636 16.3316 36.6335C19.4058 36.6335 20.1743 36.8431 18.9167 37.1924ZM20.873 38.7994C20.5237 39.7775 17.7988 40.546 14.2356 40.6858C10.6724 40.8255 11.5108 39.6378 15.6329 38.8692C20.8031 37.8212 21.1525 37.8212 20.873 38.7994ZM21.0127 41.3844C21.0127 42.4325 20.3141 42.6421 15.9823 43.201C10.8121 43.8298 10.4628 42.5023 15.6329 41.5941C20.5935 40.6858 21.0127 40.6858 21.0127 41.3844ZM21.0127 44.1791C21.0127 45.0874 17.5892 47.7424 16.4714 47.7424C15.9823 47.7424 14.8644 47.1136 13.9561 46.4149L12.2793 45.0874L14.026 44.6682C17.8687 43.8298 18.6372 43.6901 19.825 43.6202C20.4538 43.6202 21.0127 43.8298 21.0127 44.1791Z" fill="black" stroke="black"/>
<path d="M10.7423 5.6118C9.76411 5.96114 9.48464 7.21875 10.3929 7.21875C10.7423 7.21875 11.5807 6.72968 12.3492 6.17074C13.3274 5.4022 13.3972 5.19259 12.6287 5.19259C12.0697 5.19259 11.1615 5.4022 10.7423 5.6118Z" fill="black" stroke="black"/>
<path d="M5.99122 10.9223C4.45414 14.6253 4.66374 20.4941 6.41043 20.4941C6.6899 20.4941 6.62003 19.516 6.20082 18.3981C5.64188 16.7213 5.78162 15.4637 6.62003 12.7389C8.01738 8.54681 7.52831 7.21933 5.99122 10.9223Z" fill="black" stroke="black"/>
</svg>
