<svg width="49" height="48" viewBox="0 0 49 48" fill="none" xmlns="http://www.w3.org/2000/svg">
<path d="M17.5971 0.515659C11.2479 2.57242 4.63054 8.65327 2.03724 14.7341C-0.198372 20.0996 0.159325 29.042 2.93148 34.3181C6.95558 42.2768 15.898 48 24.4828 48C29.5799 48 36.1973 45.4067 40.3109 41.7403C56.3178 27.7007 47.1071 1.14163 26.003 0.0685349C22.6943 -0.110313 18.9384 0.0685349 17.5971 0.515659ZM30.8319 2.84069C47.9119 7.93788 51.936 30.8305 37.5387 41.2932C19.2067 54.7963 -5.02729 35.0335 4.71997 14.4659C7.49212 8.65327 11.2479 5.25515 17.0605 3.19839C22.8731 1.23105 25.1087 1.14163 30.8319 2.84069Z" fill="black"/>
<path d="M23.7706 10.3235C23.528 10.5662 23.4471 12.2648 23.4471 16.2821C23.4471 21.8901 23.4471 21.9171 22.7731 22.7259C21.9103 23.7505 21.9103 24.6672 22.7731 25.5299C23.4471 26.177 23.4471 26.204 23.501 32.0547C23.5819 37.5279 23.6089 37.9054 24.0942 37.9863C24.3638 38.0402 24.6873 37.9323 24.8221 37.7166C24.957 37.5279 25.0648 34.8317 25.0648 31.7581C25.0648 26.4736 25.0918 26.0961 25.604 25.6917C26.4938 24.9368 26.5747 23.7235 25.7658 22.7529L25.0648 21.9171V16.2821C25.0648 10.9167 24.957 10 24.256 10C24.1751 10 23.9594 10.1348 23.7706 10.3235Z" fill="black"/>
<path d="M11.4763 13.2894C6.97371 18.4391 6.2727 26.6624 9.88557 32.567C11.2067 34.7239 12.5817 36.2068 13.1479 36.099C13.9568 35.9372 13.795 35.1553 12.6626 33.8612C10.3709 31.2189 9.15761 27.8217 9.15761 24.0201C9.15761 20.2994 10.2091 17.3067 12.5278 14.4757C13.4984 13.2624 13.7681 12.7771 13.5524 12.4536C13.094 11.7256 12.7435 11.8604 11.4763 13.2894Z" fill="black"/>
<path d="M35.0943 12.2109C34.609 12.6962 34.6629 12.858 35.9571 14.4218C38.2219 17.1988 39.3543 20.4612 39.3543 24.1549C39.3543 27.7948 38.1679 31.0571 35.8492 33.8342C34.7168 35.1823 34.5551 35.9372 35.3639 36.099C35.9301 36.2068 37.3052 34.7239 38.6263 32.567C42.1044 26.905 41.619 19.0592 37.4669 13.8016C36.1997 12.2109 35.5257 11.7795 35.0943 12.2109Z" fill="black"/>
<path d="M15.6547 15.5812C15.3042 15.7969 14.5762 16.7136 14.01 17.5764C11.7722 21.0545 11.5026 25.611 13.309 29.2239C13.8213 30.3023 14.6301 31.5695 15.1154 32.0548C16.6253 33.6725 17.6498 32.621 16.1939 30.9494C15.7356 30.4371 15.0346 29.3047 14.6032 28.442C13.9561 27.013 13.8752 26.5547 13.8752 24.0203C13.8752 21.5398 13.9561 21.0005 14.5762 19.7064C14.9537 18.8706 15.6547 17.7651 16.14 17.2259C17.0567 16.1744 17.1376 15.8778 16.6253 15.4464C16.3557 15.2038 16.113 15.2577 15.6547 15.5812Z" fill="black"/>
<path d="M31.8589 15.4459C31.3736 15.9312 31.4545 16.1739 32.3712 17.2254C33.881 18.951 34.609 20.8922 34.7168 23.6153C34.8517 26.5002 34.2855 28.2797 32.5869 30.5445C31.4814 32.0274 31.3466 32.7014 32.1285 32.8632C33.0452 33.0519 35.0404 30.194 35.8492 27.5517C37.0895 23.6153 36.1189 19.1936 33.3688 16.0661C32.479 15.0415 32.3442 14.9606 31.8589 15.4459Z" fill="black"/>
<path d="M18.0547 19.4901C15.9787 22.348 16.0326 26.2575 18.2165 28.8458C18.9445 29.7355 19.7803 29.9243 20.0499 29.2772C20.1308 29.0615 19.8881 28.5223 19.5107 28.0909C17.5964 25.7991 17.6503 22.348 19.6724 19.7867C20.0769 19.2474 20.1308 19.0048 19.9151 18.7352C19.4028 18.115 18.8905 18.3038 18.0547 19.4901Z" fill="black"/>
<path d="M28.6238 18.7088C28.3542 19.0054 28.4081 19.2481 28.8395 19.7873C30.8616 22.3487 30.9425 25.3144 29.0821 27.9028C27.8419 29.6283 28.9204 30.4911 30.2954 28.8464C32.3984 26.3659 32.5332 22.5913 30.6459 19.7873C29.7292 18.4122 29.1091 18.0887 28.6238 18.7088Z" fill="black"/>
</svg>
