<svg width="31" height="27" viewBox="0 0 31 27" fill="none" xmlns="http://www.w3.org/2000/svg">
<mask id="path-1-outside-1_221_13348" maskUnits="userSpaceOnUse" x="4" y="0.380859" width="27" height="27" fill="black">
<rect fill="white" x="4" y="0.380859" width="27" height="27"/>
<path d="M16.6328 0.723606C16.5832 0.78969 16.5419 0.872295 16.5502 0.905338C16.5585 0.94664 16.5585 3.49915 16.5502 6.57207L16.5419 12.1727H14.5181H12.4943V10.5206V8.87676L12.7421 8.74459C13.0147 8.60417 13.2377 8.2407 13.2377 7.91854C13.2377 7.71203 13.246 7.71203 13.9233 7.71203C14.2951 7.71203 14.6585 7.67072 14.7246 7.62942C14.832 7.56334 14.7907 7.31552 14.4107 5.83688C14.1712 4.89518 13.8903 3.82131 13.7912 3.45785L13.6012 2.797L12.3456 2.77222L11.0982 2.74744L11.0404 2.97873C11.0074 3.1109 10.7265 4.17651 10.4209 5.34951C9.99959 6.9438 9.87568 7.52203 9.95002 7.60464C10.0078 7.67899 10.2474 7.71203 10.677 7.71203H11.3213L11.3791 8.04245C11.4204 8.28201 11.5195 8.44722 11.7591 8.64547L12.0812 8.92633V10.5371V12.1562L10.9082 12.1892C9.49569 12.2388 9.12397 12.3545 8.49617 12.9244C7.86837 13.4944 7.62881 14.0644 7.57925 15.1135L7.53794 15.9313L7.14144 15.9808C6.25756 16.0965 5.62976 16.4599 5.27455 17.0712C4.68806 18.0708 5.06804 19.252 6.15843 19.8055L6.62928 20.045V22.1019C6.62928 24.2249 6.67059 24.5388 6.98449 24.8031C7.08361 24.8774 7.12492 25.0427 7.12492 25.3235C7.12492 26.0174 7.43882 26.3809 8.04184 26.3809C8.34748 26.3809 8.74398 26.1826 8.85963 25.9761C8.90093 25.8852 8.94224 25.6209 8.94224 25.3896C8.94224 25.1335 8.9918 24.9187 9.05788 24.8444C9.15701 24.7453 10.4457 24.7288 17.8801 24.7288C24.5464 24.7288 26.6115 24.7535 26.6859 24.8279C26.7437 24.8857 26.785 25.1005 26.785 25.3235C26.785 25.5383 26.8263 25.8026 26.8759 25.91C26.9915 26.1661 27.3633 26.3809 27.6854 26.3809C28.2719 26.3809 28.6023 26.0174 28.6023 25.3731C28.6023 25.117 28.6767 24.9187 28.8501 24.6544L29.098 24.2909V22.168V20.045L29.4449 19.8881C30.2214 19.5411 30.7501 18.7894 30.7501 18.0294C30.7501 17.509 30.3949 16.8234 29.9488 16.5095L29.6019 16.2617L29.5771 8.45548L29.5523 0.649261L23.1421 0.624479C17.7232 0.607958 16.7154 0.624479 16.6328 0.723606ZM29.098 2.8383V4.65562H23.0678H17.0376V2.89613C17.0376 1.92138 17.0624 1.10359 17.0954 1.07881C17.1202 1.04577 19.8379 1.02098 23.1256 1.02098H29.098V2.8383ZM13.3534 3.59828C13.4195 3.83783 13.6425 4.69693 13.8573 5.51472C14.072 6.32425 14.262 7.04292 14.2868 7.10075C14.3199 7.19987 14.0059 7.21639 12.3786 7.21639C11.3048 7.21639 10.4291 7.19161 10.4291 7.15857C10.4291 7.06771 11.4287 3.3009 11.47 3.23481C11.4947 3.19351 11.8995 3.16873 12.3704 3.16873H13.2295L13.3534 3.59828ZM29.098 5.31647V5.56429H23.0678H17.0376V5.31647V5.06865H23.0678H29.098V5.31647ZM29.098 7.71203V9.36414H27.4872C26.6033 9.36414 25.8764 9.33109 25.8764 9.28979C25.8764 9.24849 25.9672 9.05024 26.0829 8.84372C26.3555 8.35635 26.5702 7.35682 26.4546 7.13379C26.372 6.97684 26.2729 6.96858 24.5216 6.96858C22.9686 6.96858 22.6547 6.9851 22.5721 7.09249C22.4152 7.27422 22.5887 8.19114 22.8778 8.77764C23.0017 9.03371 23.1256 9.26501 23.1339 9.29805C23.1504 9.33935 21.7874 9.36414 20.1022 9.36414H17.0376V7.71203V6.05992H23.0678H29.098V7.71203ZM26.0416 7.53856C26.0416 7.78637 25.6698 8.72807 25.4633 9.01719L25.2155 9.36414H24.4886H23.7699L23.5056 8.96763C23.2412 8.57112 22.9852 7.91854 22.9852 7.62942C22.9852 7.47247 23.0512 7.46421 24.5134 7.46421C25.3559 7.46421 26.0416 7.49725 26.0416 7.53856ZM12.7834 7.93506C12.7008 8.27374 12.5851 8.37287 12.2795 8.37287C11.9904 8.37287 11.8334 8.20766 11.8334 7.8855C11.8334 7.72855 11.883 7.71203 12.3373 7.71203H12.8412L12.7834 7.93506ZM29.098 10.025V10.2728H23.0678H17.0376V10.025V9.77716H23.0678H29.098V10.025ZM29.098 13.3953V16.0304L28.6436 16.0221L28.1893 16.0139V15.3943C28.1893 13.7422 27.4046 12.6023 26.0581 12.2884C25.6946 12.1975 24.5877 12.1727 21.3165 12.1727H17.0376V11.4706V10.7684H23.0678H29.098V13.3953ZM17.5332 16.4682V20.2681L13.6755 20.2928C11.5443 20.3011 9.72699 20.3424 9.62786 20.3837L9.43787 20.4498V19.1033C9.43787 18.3599 9.39657 17.6082 9.347 17.4347C9.23962 17.0464 8.79355 16.5343 8.34748 16.2865L8.01706 16.0965L8.0501 15.1878C8.07488 14.4609 8.11618 14.2131 8.25661 13.9487C8.50443 13.4779 8.91745 13.0896 9.39657 12.8666L9.80959 12.6684H13.6755H17.5332V16.4682ZM26.4959 12.9244C26.9833 13.1805 27.4789 13.7835 27.6028 14.2874C27.6524 14.4857 27.6937 14.9813 27.6937 15.3861V16.1378L27.388 16.2947C26.975 16.5012 26.6694 16.8399 26.4629 17.2943C26.3142 17.6164 26.2894 17.8395 26.2894 19.062C26.2894 20.3589 26.2811 20.4498 26.149 20.3837C26.0663 20.3424 24.1995 20.2928 21.9939 20.2681L17.9875 20.2268L17.9628 16.4434L17.9462 12.6601L22.0104 12.6849L26.0829 12.7097L26.4959 12.9244ZM7.99227 16.6252C8.41356 16.8151 8.82659 17.2777 8.93398 17.6825C9.05788 18.1121 9.05788 23.8779 8.93398 24.2166C8.81007 24.5718 8.52921 24.7288 8.01706 24.7288C7.66185 24.7288 7.5462 24.6874 7.35621 24.5057L7.12492 24.2827V22.1349C7.12492 20.9454 7.10014 19.9046 7.07535 19.8055C7.04231 19.6898 6.9184 19.6072 6.67059 19.5411C6.24104 19.4255 5.73715 19.0125 5.58846 18.6407C5.44803 18.3186 5.43977 17.8064 5.56367 17.4843C5.87757 16.6499 7.10014 16.2121 7.99227 16.6252ZM29.2467 16.6004C29.891 16.8647 30.2544 17.3851 30.2544 18.0377C30.2544 18.7316 29.8745 19.2355 29.131 19.5163L28.7262 19.6733L28.6849 21.9284C28.6602 23.1758 28.6106 24.2579 28.5775 24.3322C28.4454 24.5883 28.1232 24.7288 27.6689 24.7288C27.2972 24.7288 27.1815 24.6957 27.0163 24.5222C26.9007 24.4066 26.785 24.2001 26.752 24.0596C26.6776 23.6631 26.6941 18.1203 26.7768 17.7651C27.0163 16.7491 28.2306 16.1708 29.2467 16.6004ZM25.8846 20.805C26.1324 20.9372 26.2894 21.2098 26.2894 21.5154C26.2894 21.6723 26.1407 21.6723 17.8636 21.6723C9.56178 21.6723 9.43787 21.6723 9.43787 21.5071C9.43787 21.2263 9.6196 20.9454 9.88394 20.8133C10.107 20.6976 11.0817 20.6811 17.8884 20.6811C24.7199 20.6811 25.6698 20.6976 25.8846 20.805ZM26.2729 23.2171L26.2481 24.2744H17.8636H9.47917L9.45439 23.2171L9.42961 22.168H17.8636H26.2976L26.2729 23.2171ZM28.1728 25.4144C28.2058 25.6622 27.9415 25.9678 27.6937 25.9678C27.4706 25.9678 27.198 25.6787 27.198 25.4474C27.198 25.1831 27.2063 25.1831 27.7102 25.1913C28.115 25.1996 28.148 25.2161 28.1728 25.4144ZM8.52921 25.4309C8.52921 25.5465 8.45486 25.7118 8.35574 25.8109C8.05836 26.1083 7.53794 25.8604 7.53794 25.4144C7.53794 25.2409 7.57099 25.2244 8.03358 25.2244C8.50443 25.2244 8.52921 25.2326 8.52921 25.4309Z"/>
</mask>
<path d="M16.6328 0.723606C16.5832 0.78969 16.5419 0.872295 16.5502 0.905338C16.5585 0.94664 16.5585 3.49915 16.5502 6.57207L16.5419 12.1727H14.5181H12.4943V10.5206V8.87676L12.7421 8.74459C13.0147 8.60417 13.2377 8.2407 13.2377 7.91854C13.2377 7.71203 13.246 7.71203 13.9233 7.71203C14.2951 7.71203 14.6585 7.67072 14.7246 7.62942C14.832 7.56334 14.7907 7.31552 14.4107 5.83688C14.1712 4.89518 13.8903 3.82131 13.7912 3.45785L13.6012 2.797L12.3456 2.77222L11.0982 2.74744L11.0404 2.97873C11.0074 3.1109 10.7265 4.17651 10.4209 5.34951C9.99959 6.9438 9.87568 7.52203 9.95002 7.60464C10.0078 7.67899 10.2474 7.71203 10.677 7.71203H11.3213L11.3791 8.04245C11.4204 8.28201 11.5195 8.44722 11.7591 8.64547L12.0812 8.92633V10.5371V12.1562L10.9082 12.1892C9.49569 12.2388 9.12397 12.3545 8.49617 12.9244C7.86837 13.4944 7.62881 14.0644 7.57925 15.1135L7.53794 15.9313L7.14144 15.9808C6.25756 16.0965 5.62976 16.4599 5.27455 17.0712C4.68806 18.0708 5.06804 19.252 6.15843 19.8055L6.62928 20.045V22.1019C6.62928 24.2249 6.67059 24.5388 6.98449 24.8031C7.08361 24.8774 7.12492 25.0427 7.12492 25.3235C7.12492 26.0174 7.43882 26.3809 8.04184 26.3809C8.34748 26.3809 8.74398 26.1826 8.85963 25.9761C8.90093 25.8852 8.94224 25.6209 8.94224 25.3896C8.94224 25.1335 8.9918 24.9187 9.05788 24.8444C9.15701 24.7453 10.4457 24.7288 17.8801 24.7288C24.5464 24.7288 26.6115 24.7535 26.6859 24.8279C26.7437 24.8857 26.785 25.1005 26.785 25.3235C26.785 25.5383 26.8263 25.8026 26.8759 25.91C26.9915 26.1661 27.3633 26.3809 27.6854 26.3809C28.2719 26.3809 28.6023 26.0174 28.6023 25.3731C28.6023 25.117 28.6767 24.9187 28.8501 24.6544L29.098 24.2909V22.168V20.045L29.4449 19.8881C30.2214 19.5411 30.7501 18.7894 30.7501 18.0294C30.7501 17.509 30.3949 16.8234 29.9488 16.5095L29.6019 16.2617L29.5771 8.45548L29.5523 0.649261L23.1421 0.624479C17.7232 0.607958 16.7154 0.624479 16.6328 0.723606ZM29.098 2.8383V4.65562H23.0678H17.0376V2.89613C17.0376 1.92138 17.0624 1.10359 17.0954 1.07881C17.1202 1.04577 19.8379 1.02098 23.1256 1.02098H29.098V2.8383ZM13.3534 3.59828C13.4195 3.83783 13.6425 4.69693 13.8573 5.51472C14.072 6.32425 14.262 7.04292 14.2868 7.10075C14.3199 7.19987 14.0059 7.21639 12.3786 7.21639C11.3048 7.21639 10.4291 7.19161 10.4291 7.15857C10.4291 7.06771 11.4287 3.3009 11.47 3.23481C11.4947 3.19351 11.8995 3.16873 12.3704 3.16873H13.2295L13.3534 3.59828ZM29.098 5.31647V5.56429H23.0678H17.0376V5.31647V5.06865H23.0678H29.098V5.31647ZM29.098 7.71203V9.36414H27.4872C26.6033 9.36414 25.8764 9.33109 25.8764 9.28979C25.8764 9.24849 25.9672 9.05024 26.0829 8.84372C26.3555 8.35635 26.5702 7.35682 26.4546 7.13379C26.372 6.97684 26.2729 6.96858 24.5216 6.96858C22.9686 6.96858 22.6547 6.9851 22.5721 7.09249C22.4152 7.27422 22.5887 8.19114 22.8778 8.77764C23.0017 9.03371 23.1256 9.26501 23.1339 9.29805C23.1504 9.33935 21.7874 9.36414 20.1022 9.36414H17.0376V7.71203V6.05992H23.0678H29.098V7.71203ZM26.0416 7.53856C26.0416 7.78637 25.6698 8.72807 25.4633 9.01719L25.2155 9.36414H24.4886H23.7699L23.5056 8.96763C23.2412 8.57112 22.9852 7.91854 22.9852 7.62942C22.9852 7.47247 23.0512 7.46421 24.5134 7.46421C25.3559 7.46421 26.0416 7.49725 26.0416 7.53856ZM12.7834 7.93506C12.7008 8.27374 12.5851 8.37287 12.2795 8.37287C11.9904 8.37287 11.8334 8.20766 11.8334 7.8855C11.8334 7.72855 11.883 7.71203 12.3373 7.71203H12.8412L12.7834 7.93506ZM29.098 10.025V10.2728H23.0678H17.0376V10.025V9.77716H23.0678H29.098V10.025ZM29.098 13.3953V16.0304L28.6436 16.0221L28.1893 16.0139V15.3943C28.1893 13.7422 27.4046 12.6023 26.0581 12.2884C25.6946 12.1975 24.5877 12.1727 21.3165 12.1727H17.0376V11.4706V10.7684H23.0678H29.098V13.3953ZM17.5332 16.4682V20.2681L13.6755 20.2928C11.5443 20.3011 9.72699 20.3424 9.62786 20.3837L9.43787 20.4498V19.1033C9.43787 18.3599 9.39657 17.6082 9.347 17.4347C9.23962 17.0464 8.79355 16.5343 8.34748 16.2865L8.01706 16.0965L8.0501 15.1878C8.07488 14.4609 8.11618 14.2131 8.25661 13.9487C8.50443 13.4779 8.91745 13.0896 9.39657 12.8666L9.80959 12.6684H13.6755H17.5332V16.4682ZM26.4959 12.9244C26.9833 13.1805 27.4789 13.7835 27.6028 14.2874C27.6524 14.4857 27.6937 14.9813 27.6937 15.3861V16.1378L27.388 16.2947C26.975 16.5012 26.6694 16.8399 26.4629 17.2943C26.3142 17.6164 26.2894 17.8395 26.2894 19.062C26.2894 20.3589 26.2811 20.4498 26.149 20.3837C26.0663 20.3424 24.1995 20.2928 21.9939 20.2681L17.9875 20.2268L17.9628 16.4434L17.9462 12.6601L22.0104 12.6849L26.0829 12.7097L26.4959 12.9244ZM7.99227 16.6252C8.41356 16.8151 8.82659 17.2777 8.93398 17.6825C9.05788 18.1121 9.05788 23.8779 8.93398 24.2166C8.81007 24.5718 8.52921 24.7288 8.01706 24.7288C7.66185 24.7288 7.5462 24.6874 7.35621 24.5057L7.12492 24.2827V22.1349C7.12492 20.9454 7.10014 19.9046 7.07535 19.8055C7.04231 19.6898 6.9184 19.6072 6.67059 19.5411C6.24104 19.4255 5.73715 19.0125 5.58846 18.6407C5.44803 18.3186 5.43977 17.8064 5.56367 17.4843C5.87757 16.6499 7.10014 16.2121 7.99227 16.6252ZM29.2467 16.6004C29.891 16.8647 30.2544 17.3851 30.2544 18.0377C30.2544 18.7316 29.8745 19.2355 29.131 19.5163L28.7262 19.6733L28.6849 21.9284C28.6602 23.1758 28.6106 24.2579 28.5775 24.3322C28.4454 24.5883 28.1232 24.7288 27.6689 24.7288C27.2972 24.7288 27.1815 24.6957 27.0163 24.5222C26.9007 24.4066 26.785 24.2001 26.752 24.0596C26.6776 23.6631 26.6941 18.1203 26.7768 17.7651C27.0163 16.7491 28.2306 16.1708 29.2467 16.6004ZM25.8846 20.805C26.1324 20.9372 26.2894 21.2098 26.2894 21.5154C26.2894 21.6723 26.1407 21.6723 17.8636 21.6723C9.56178 21.6723 9.43787 21.6723 9.43787 21.5071C9.43787 21.2263 9.6196 20.9454 9.88394 20.8133C10.107 20.6976 11.0817 20.6811 17.8884 20.6811C24.7199 20.6811 25.6698 20.6976 25.8846 20.805ZM26.2729 23.2171L26.2481 24.2744H17.8636H9.47917L9.45439 23.2171L9.42961 22.168H17.8636H26.2976L26.2729 23.2171ZM28.1728 25.4144C28.2058 25.6622 27.9415 25.9678 27.6937 25.9678C27.4706 25.9678 27.198 25.6787 27.198 25.4474C27.198 25.1831 27.2063 25.1831 27.7102 25.1913C28.115 25.1996 28.148 25.2161 28.1728 25.4144ZM8.52921 25.4309C8.52921 25.5465 8.45486 25.7118 8.35574 25.8109C8.05836 26.1083 7.53794 25.8604 7.53794 25.4144C7.53794 25.2409 7.57099 25.2244 8.03358 25.2244C8.50443 25.2244 8.52921 25.2326 8.52921 25.4309Z" fill="black"/>
<path d="M16.6328 0.723606C16.5832 0.78969 16.5419 0.872295 16.5502 0.905338C16.5585 0.94664 16.5585 3.49915 16.5502 6.57207L16.5419 12.1727H14.5181H12.4943V10.5206V8.87676L12.7421 8.74459C13.0147 8.60417 13.2377 8.2407 13.2377 7.91854C13.2377 7.71203 13.246 7.71203 13.9233 7.71203C14.2951 7.71203 14.6585 7.67072 14.7246 7.62942C14.832 7.56334 14.7907 7.31552 14.4107 5.83688C14.1712 4.89518 13.8903 3.82131 13.7912 3.45785L13.6012 2.797L12.3456 2.77222L11.0982 2.74744L11.0404 2.97873C11.0074 3.1109 10.7265 4.17651 10.4209 5.34951C9.99959 6.9438 9.87568 7.52203 9.95002 7.60464C10.0078 7.67899 10.2474 7.71203 10.677 7.71203H11.3213L11.3791 8.04245C11.4204 8.28201 11.5195 8.44722 11.7591 8.64547L12.0812 8.92633V10.5371V12.1562L10.9082 12.1892C9.49569 12.2388 9.12397 12.3545 8.49617 12.9244C7.86837 13.4944 7.62881 14.0644 7.57925 15.1135L7.53794 15.9313L7.14144 15.9808C6.25756 16.0965 5.62976 16.4599 5.27455 17.0712C4.68806 18.0708 5.06804 19.252 6.15843 19.8055L6.62928 20.045V22.1019C6.62928 24.2249 6.67059 24.5388 6.98449 24.8031C7.08361 24.8774 7.12492 25.0427 7.12492 25.3235C7.12492 26.0174 7.43882 26.3809 8.04184 26.3809C8.34748 26.3809 8.74398 26.1826 8.85963 25.9761C8.90093 25.8852 8.94224 25.6209 8.94224 25.3896C8.94224 25.1335 8.9918 24.9187 9.05788 24.8444C9.15701 24.7453 10.4457 24.7288 17.8801 24.7288C24.5464 24.7288 26.6115 24.7535 26.6859 24.8279C26.7437 24.8857 26.785 25.1005 26.785 25.3235C26.785 25.5383 26.8263 25.8026 26.8759 25.91C26.9915 26.1661 27.3633 26.3809 27.6854 26.3809C28.2719 26.3809 28.6023 26.0174 28.6023 25.3731C28.6023 25.117 28.6767 24.9187 28.8501 24.6544L29.098 24.2909V22.168V20.045L29.4449 19.8881C30.2214 19.5411 30.7501 18.7894 30.7501 18.0294C30.7501 17.509 30.3949 16.8234 29.9488 16.5095L29.6019 16.2617L29.5771 8.45548L29.5523 0.649261L23.1421 0.624479C17.7232 0.607958 16.7154 0.624479 16.6328 0.723606ZM29.098 2.8383V4.65562H23.0678H17.0376V2.89613C17.0376 1.92138 17.0624 1.10359 17.0954 1.07881C17.1202 1.04577 19.8379 1.02098 23.1256 1.02098H29.098V2.8383ZM13.3534 3.59828C13.4195 3.83783 13.6425 4.69693 13.8573 5.51472C14.072 6.32425 14.262 7.04292 14.2868 7.10075C14.3199 7.19987 14.0059 7.21639 12.3786 7.21639C11.3048 7.21639 10.4291 7.19161 10.4291 7.15857C10.4291 7.06771 11.4287 3.3009 11.47 3.23481C11.4947 3.19351 11.8995 3.16873 12.3704 3.16873H13.2295L13.3534 3.59828ZM29.098 5.31647V5.56429H23.0678H17.0376V5.31647V5.06865H23.0678H29.098V5.31647ZM29.098 7.71203V9.36414H27.4872C26.6033 9.36414 25.8764 9.33109 25.8764 9.28979C25.8764 9.24849 25.9672 9.05024 26.0829 8.84372C26.3555 8.35635 26.5702 7.35682 26.4546 7.13379C26.372 6.97684 26.2729 6.96858 24.5216 6.96858C22.9686 6.96858 22.6547 6.9851 22.5721 7.09249C22.4152 7.27422 22.5887 8.19114 22.8778 8.77764C23.0017 9.03371 23.1256 9.26501 23.1339 9.29805C23.1504 9.33935 21.7874 9.36414 20.1022 9.36414H17.0376V7.71203V6.05992H23.0678H29.098V7.71203ZM26.0416 7.53856C26.0416 7.78637 25.6698 8.72807 25.4633 9.01719L25.2155 9.36414H24.4886H23.7699L23.5056 8.96763C23.2412 8.57112 22.9852 7.91854 22.9852 7.62942C22.9852 7.47247 23.0512 7.46421 24.5134 7.46421C25.3559 7.46421 26.0416 7.49725 26.0416 7.53856ZM12.7834 7.93506C12.7008 8.27374 12.5851 8.37287 12.2795 8.37287C11.9904 8.37287 11.8334 8.20766 11.8334 7.8855C11.8334 7.72855 11.883 7.71203 12.3373 7.71203H12.8412L12.7834 7.93506ZM29.098 10.025V10.2728H23.0678H17.0376V10.025V9.77716H23.0678H29.098V10.025ZM29.098 13.3953V16.0304L28.6436 16.0221L28.1893 16.0139V15.3943C28.1893 13.7422 27.4046 12.6023 26.0581 12.2884C25.6946 12.1975 24.5877 12.1727 21.3165 12.1727H17.0376V11.4706V10.7684H23.0678H29.098V13.3953ZM17.5332 16.4682V20.2681L13.6755 20.2928C11.5443 20.3011 9.72699 20.3424 9.62786 20.3837L9.43787 20.4498V19.1033C9.43787 18.3599 9.39657 17.6082 9.347 17.4347C9.23962 17.0464 8.79355 16.5343 8.34748 16.2865L8.01706 16.0965L8.0501 15.1878C8.07488 14.4609 8.11618 14.2131 8.25661 13.9487C8.50443 13.4779 8.91745 13.0896 9.39657 12.8666L9.80959 12.6684H13.6755H17.5332V16.4682ZM26.4959 12.9244C26.9833 13.1805 27.4789 13.7835 27.6028 14.2874C27.6524 14.4857 27.6937 14.9813 27.6937 15.3861V16.1378L27.388 16.2947C26.975 16.5012 26.6694 16.8399 26.4629 17.2943C26.3142 17.6164 26.2894 17.8395 26.2894 19.062C26.2894 20.3589 26.2811 20.4498 26.149 20.3837C26.0663 20.3424 24.1995 20.2928 21.9939 20.2681L17.9875 20.2268L17.9628 16.4434L17.9462 12.6601L22.0104 12.6849L26.0829 12.7097L26.4959 12.9244ZM7.99227 16.6252C8.41356 16.8151 8.82659 17.2777 8.93398 17.6825C9.05788 18.1121 9.05788 23.8779 8.93398 24.2166C8.81007 24.5718 8.52921 24.7288 8.01706 24.7288C7.66185 24.7288 7.5462 24.6874 7.35621 24.5057L7.12492 24.2827V22.1349C7.12492 20.9454 7.10014 19.9046 7.07535 19.8055C7.04231 19.6898 6.9184 19.6072 6.67059 19.5411C6.24104 19.4255 5.73715 19.0125 5.58846 18.6407C5.44803 18.3186 5.43977 17.8064 5.56367 17.4843C5.87757 16.6499 7.10014 16.2121 7.99227 16.6252ZM29.2467 16.6004C29.891 16.8647 30.2544 17.3851 30.2544 18.0377C30.2544 18.7316 29.8745 19.2355 29.131 19.5163L28.7262 19.6733L28.6849 21.9284C28.6602 23.1758 28.6106 24.2579 28.5775 24.3322C28.4454 24.5883 28.1232 24.7288 27.6689 24.7288C27.2972 24.7288 27.1815 24.6957 27.0163 24.5222C26.9007 24.4066 26.785 24.2001 26.752 24.0596C26.6776 23.6631 26.6941 18.1203 26.7768 17.7651C27.0163 16.7491 28.2306 16.1708 29.2467 16.6004ZM25.8846 20.805C26.1324 20.9372 26.2894 21.2098 26.2894 21.5154C26.2894 21.6723 26.1407 21.6723 17.8636 21.6723C9.56178 21.6723 9.43787 21.6723 9.43787 21.5071C9.43787 21.2263 9.6196 20.9454 9.88394 20.8133C10.107 20.6976 11.0817 20.6811 17.8884 20.6811C24.7199 20.6811 25.6698 20.6976 25.8846 20.805ZM26.2729 23.2171L26.2481 24.2744H17.8636H9.47917L9.45439 23.2171L9.42961 22.168H17.8636H26.2976L26.2729 23.2171ZM28.1728 25.4144C28.2058 25.6622 27.9415 25.9678 27.6937 25.9678C27.4706 25.9678 27.198 25.6787 27.198 25.4474C27.198 25.1831 27.2063 25.1831 27.7102 25.1913C28.115 25.1996 28.148 25.2161 28.1728 25.4144ZM8.52921 25.4309C8.52921 25.5465 8.45486 25.7118 8.35574 25.8109C8.05836 26.1083 7.53794 25.8604 7.53794 25.4144C7.53794 25.2409 7.57099 25.2244 8.03358 25.2244C8.50443 25.2244 8.52921 25.2326 8.52921 25.4309Z" stroke="black" stroke-width="0.2" mask="url(#path-1-outside-1_221_13348)"/>
<path d="M20.7588 13.2101L20.7588 13.2101L20.7582 13.2101C20.5689 13.2164 20.4128 13.2175 20.287 13.2113C20.1636 13.2052 20.0579 13.1915 19.9754 13.1624C19.8906 13.1325 19.8064 13.0769 19.773 12.974C19.7434 12.8825 19.7674 12.7901 19.7951 12.7181C19.8208 12.6493 19.873 12.6057 19.9299 12.5797C19.9825 12.5558 20.0454 12.5436 20.1123 12.5363C20.247 12.5215 20.4493 12.5221 20.741 12.5303L20.741 12.5303L20.7422 12.5303C21.0768 12.5424 21.2848 12.5526 21.4064 12.5833C21.4697 12.5993 21.5403 12.6276 21.588 12.692C21.6353 12.756 21.6385 12.8274 21.6385 12.8702C21.6385 12.9131 21.6353 12.9839 21.5889 13.0475C21.5419 13.112 21.472 13.1407 21.4092 13.1569C21.2893 13.1878 21.0851 13.198 20.7588 13.2101Z" fill="black" stroke="black" stroke-width="0.3"/>
<path d="M22.0588 12.7797C21.9597 13.044 22.1083 13.077 23.62 13.077C24.8922 13.077 25.1647 13.1018 25.4043 13.2257C25.7512 13.3992 25.9908 13.7048 26.0651 14.0766C26.1065 14.2831 26.1643 14.3574 26.2799 14.3574C26.4204 14.3574 26.4451 14.2996 26.4369 13.9774C26.4369 13.5314 26.2799 13.267 25.8586 12.9366L25.553 12.7053L23.8265 12.6805C22.3562 12.6557 22.1001 12.6723 22.0588 12.7797Z" fill="black"/>
<path d="M2.89413 14.2833C3.40628 13.2011 3.55497 11.6151 3.24107 10.6817C2.99326 9.95475 2.795 9.60781 2.62153 9.60781C2.27459 9.60781 1.54766 10.7973 1.36593 11.6564C1.16768 12.6146 1.41549 13.6885 2.00199 14.4567C2.11764 14.6054 2.28285 14.9359 2.36546 15.1837C2.45632 15.4397 2.62153 15.8197 2.73718 16.0428C2.95195 16.431 2.95195 16.4558 2.86935 17.2323M2.89413 14.2833L2.93937 14.3046C2.93936 14.3046 2.93934 14.3046 2.93932 14.3047M2.89413 14.2833L2.93932 14.3047M2.89413 14.2833C2.69588 14.7046 2.69588 14.7211 2.82805 15.1093C3.01804 15.7041 3.08412 15.7123 3.19151 15.1754C3.24933 14.9028 3.39802 14.3328 3.52193 13.9033C3.71192 13.2672 3.75323 12.9616 3.75323 12.2842C3.74497 11.8299 3.79453 11.2517 3.85235 11.0038L3.33577 21.3704L3.27435 20.7716C3.27435 20.7715 3.27434 20.7714 3.27433 20.7713C3.20045 19.9415 3.291 17.7238 3.44749 16.6613L3.44755 16.6609C3.58758 15.6477 3.7522 14.9398 4.03245 13.9919C4.13223 13.6593 4.19034 13.4847 4.25649 13.3758C4.31896 13.2729 4.38855 13.2286 4.52623 13.1638L4.52642 13.1637C5.73709 12.5876 6.87644 11.33 7.50811 9.86718C7.66618 9.50113 7.82179 9.03833 7.92965 8.64526C7.98358 8.44872 8.02584 8.26866 8.05048 8.1262C8.06279 8.05505 8.07087 7.99232 8.07366 7.94111C8.07633 7.89219 8.07474 7.8464 8.06239 7.81399L8.0621 7.81322C8.03866 7.75464 7.98918 7.71653 7.92589 7.69448C7.86354 7.67275 7.78403 7.66504 7.69076 7.66823C7.50389 7.67464 7.24726 7.72555 6.92806 7.81675C5.28449 8.28398 4.1632 9.42892 3.80363 10.9926C3.74455 11.246 3.69497 11.8283 3.70323 12.2847C3.70321 12.9572 3.6625 13.258 3.47402 13.889L3.47389 13.8894C3.34985 14.3194 3.20078 14.8907 3.1426 15.165L3.14248 15.1656C3.11564 15.2998 3.09201 15.3965 3.06925 15.4579C3.05955 15.484 3.05105 15.5008 3.04432 15.5107C3.04258 15.5088 3.04055 15.5063 3.03825 15.5032C3.02638 15.4873 3.01211 15.4621 2.9954 15.4254C2.96213 15.3522 2.92312 15.2426 2.87568 15.0941L2.87539 15.0932L2.87538 15.0932C2.80819 14.8959 2.77974 14.8055 2.78703 14.7126C2.79441 14.6185 2.83871 14.5185 2.93932 14.3047M2.93932 14.3047C3.19835 13.7574 3.36476 13.0845 3.42715 12.4315C3.48948 11.779 3.44844 11.1415 3.28847 10.6657L3.2884 10.6655C3.16421 10.3013 3.05146 10.0291 2.94676 9.8472C2.89446 9.75635 2.8428 9.68554 2.79085 9.63688C2.73902 9.58833 2.68245 9.55781 2.62153 9.55781C2.56457 9.55781 2.50569 9.58186 2.44847 9.61848C2.39057 9.65554 2.32995 9.70832 2.26844 9.77249C2.14534 9.90089 2.01415 10.0796 1.88913 10.2838C1.63927 10.692 1.40937 11.2095 1.31701 11.6461L1.31697 11.6463C1.11577 12.6187 1.36697 13.7074 1.96225 14.4871L1.96252 14.4874C2.07363 14.6303 2.23657 14.9551 2.31802 15.1995L2.31833 15.2004L2.31833 15.2004C2.40995 15.4586 2.57607 15.8407 2.69279 16.0658L2.69341 16.067L2.69343 16.067C2.80121 16.2618 2.84978 16.3569 2.86508 16.4973C2.88086 16.6424 2.86123 16.8359 2.81965 17.2268M2.81965 17.2268C2.81965 17.2268 2.81966 17.2267 2.81967 17.2267L2.86935 17.2323M2.81965 17.2268C2.81964 17.2269 2.81964 17.2269 2.81963 17.227L2.86935 17.2323M2.81965 17.2268C2.76976 17.6677 2.72848 18.7933 2.72848 19.727V21.3704M2.86935 17.2323C2.81979 17.6701 2.77848 18.7935 2.77848 19.727V21.3704H2.72848M2.72848 21.3704H1.91939C1.67478 21.3704 1.45021 21.3787 1.2831 21.3933C1.19975 21.4006 1.12941 21.4096 1.0776 21.4202C1.05189 21.4255 1.02897 21.4315 1.01073 21.4387C1.00162 21.4422 0.992213 21.4467 0.983749 21.4523C0.975859 21.4576 0.96481 21.4665 0.957744 21.4806L1.00247 21.503M2.72848 21.3704V21.4204M2.72848 21.4204H1.91939C1.43201 21.4204 1.02725 21.4534 1.00247 21.503M2.72848 21.4204L1.82852 26.0876L1.72939 25.6333M2.72848 21.4204L1.68058 25.6441M1.00247 21.503C0.961163 21.5773 1.44854 24.3859 1.72939 25.6333M1.00247 21.503L0.958758 21.4787C0.953725 21.4878 0.952148 21.4967 0.951521 21.5007C0.95071 21.5059 0.950335 21.5111 0.950155 21.516C0.949791 21.5257 0.950093 21.5375 0.950813 21.5507C0.952263 21.5771 0.955651 21.6128 0.96065 21.6564C0.970673 21.7436 0.987524 21.8649 1.00969 22.0118C1.05404 22.3055 1.11994 22.703 1.19587 23.1369C1.34768 24.0044 1.53988 25.0192 1.68058 25.6441M1.72939 25.6333L1.68061 25.6442C1.6806 25.6442 1.68059 25.6441 1.68058 25.6441M1.72939 25.6333L1.68054 25.6439L1.68058 25.6441M1.68058 25.6441L1.77967 26.0982L1.78809 26.1369L1.8276 26.1376L3.17407 26.1624L3.17437 26.1624L3.18232 26.1625C3.8397 26.1706 4.17688 26.1748 4.35889 26.1538C4.45043 26.1432 4.51203 26.1255 4.5563 26.0917C4.60028 26.0582 4.62079 26.013 4.64037 25.9699L4.64132 25.9679L4.64198 25.9664L4.64196 25.9664C4.65946 25.9244 4.68517 25.8247 4.71623 25.6884C4.74778 25.55 4.78592 25.3688 4.82797 25.1597C4.91209 24.7415 5.01205 24.2107 5.10657 23.6854C5.20109 23.1601 5.29021 22.6401 5.35263 22.2435C5.38383 22.0453 5.40842 21.8775 5.42367 21.7551C5.43128 21.6941 5.43665 21.6437 5.43931 21.6063C5.44064 21.5876 5.44136 21.5714 5.44125 21.5583C5.4412 21.5518 5.44094 21.5453 5.4403 21.5393C5.43976 21.5343 5.43866 21.5263 5.43553 21.5182L1.68058 25.6441ZM7.3965 8.50017L7.39657 8.4998C7.41336 8.41168 7.42286 8.35188 7.42153 8.31151C7.42088 8.29188 7.4177 8.2817 7.41501 8.27669C7.41321 8.27333 7.41114 8.27106 7.40542 8.26892C7.39801 8.26614 7.38451 8.26382 7.361 8.26512C7.33787 8.26639 7.30826 8.27096 7.2705 8.27921C7.19488 8.29573 7.09315 8.32554 6.95656 8.36693C5.59356 8.79963 4.66518 9.78562 4.34715 11.1555C4.29561 11.3822 4.26256 11.5541 4.24843 11.6724C4.24133 11.7319 4.23931 11.7755 4.24142 11.8048C4.24155 11.8066 4.24169 11.8083 4.24184 11.8098C4.25881 11.7942 4.28119 11.7683 4.3093 11.7303C4.37344 11.6433 4.45942 11.5036 4.56868 11.3099C4.87081 10.7636 5.15099 10.3254 5.38346 10.0273C5.49955 9.87837 5.60502 9.76273 5.69651 9.68593C5.74224 9.64754 5.78591 9.61764 5.82691 9.59835C5.86729 9.57935 5.909 9.56882 5.94915 9.5748C6.01709 9.58336 6.08128 9.60226 6.11902 9.65061C6.15904 9.70189 6.1569 9.76901 6.13462 9.84141C6.11204 9.91479 6.06488 10.0069 5.99417 10.1221C5.92305 10.238 5.82623 10.38 5.7021 10.5538L5.70183 10.5542C5.45986 10.8864 5.16362 11.3738 4.93704 11.7878C4.82377 11.9948 4.72847 12.1824 4.66627 12.3223C4.63507 12.3926 4.61285 12.4493 4.60073 12.4899C4.59924 12.4949 4.59794 12.4995 4.59681 12.5038C4.62015 12.4943 4.65121 12.4781 4.68942 12.4549C4.7759 12.4025 4.89072 12.3198 5.01909 12.2182C5.27558 12.015 5.58137 11.74 5.81483 11.4902C6.15791 11.1184 6.51484 10.5835 6.8057 10.0336C7.09683 9.48323 7.31934 8.92254 7.3965 8.50017ZM4.82409 21.9292C4.823 21.929 4.82186 21.9288 4.82067 21.9286C4.79851 21.9251 4.7655 21.9216 4.72207 21.9181C4.63556 21.9112 4.51176 21.9051 4.35972 21.8999C4.05583 21.8896 3.64133 21.8834 3.19151 21.8834C2.74169 21.8834 2.32719 21.8896 2.0233 21.8999C1.87126 21.9051 1.74746 21.9112 1.66095 21.9181C1.62021 21.9213 1.58864 21.9247 1.56659 21.928C1.56687 21.9305 1.56718 21.9331 1.56752 21.9359C1.57103 21.9652 1.57696 22.0073 1.58504 22.0605C1.60119 22.1669 1.62569 22.3165 1.65594 22.4949C1.71643 22.8517 1.79978 23.3229 1.88495 23.7926C1.97011 24.2623 2.05707 24.7303 2.12478 25.0809C2.15865 25.2562 2.18766 25.4019 2.2092 25.5037C2.21999 25.5546 2.2288 25.5941 2.23536 25.6206C2.23564 25.6217 2.23592 25.6228 2.23619 25.6239L2.279 25.6232L2.49574 25.6194C2.67853 25.6163 2.93051 25.6122 3.20728 25.608L4.18211 25.5922L4.35657 24.6168C4.35657 24.6168 4.35658 24.6167 4.35658 24.6167C4.41859 24.2653 4.50331 23.8101 4.57824 23.4074C4.62309 23.1664 4.66443 22.9442 4.6953 22.7744L4.69529 22.7744L4.69546 22.7736C4.74077 22.547 4.77776 22.3353 4.8003 22.1754C4.81159 22.0954 4.81915 22.0291 4.82238 21.9808C4.82383 21.9592 4.82436 21.942 4.82409 21.9292ZM2.64633 13.5236C2.68211 13.4209 2.72406 13.2788 2.77139 13.0977C2.85245 12.7856 2.88954 12.3486 2.8844 11.9172C2.87927 11.4859 2.83199 11.0662 2.74736 10.7877C2.70656 10.6654 2.66194 10.552 2.62182 10.4677C2.60166 10.4254 2.58321 10.3917 2.56754 10.3681C2.56016 10.3571 2.55404 10.3493 2.54932 10.3442C2.54384 10.3472 2.53588 10.3528 2.52545 10.3623C2.50071 10.3849 2.46996 10.4224 2.43468 10.4738C2.36456 10.5759 2.28244 10.7241 2.20089 10.8934C2.03755 11.2324 1.88068 11.647 1.82814 11.9298C1.78703 12.1559 1.76925 12.3064 1.77522 12.4557C1.7812 12.6051 1.81105 12.7558 1.86868 12.9821C1.90975 13.1403 1.94856 13.2693 1.98353 13.3677C2.01307 13.4507 2.03883 13.5088 2.05951 13.5438C2.06038 13.5385 2.06122 13.5327 2.062 13.5262C2.06561 13.4964 2.06764 13.4571 2.06764 13.4077C2.06764 13.2239 2.09224 13.0818 2.14955 12.9899C2.17903 12.9426 2.21785 12.9075 2.26665 12.8883C2.31492 12.8694 2.36842 12.8678 2.42473 12.8795C2.46111 12.8864 2.49651 12.8977 2.52612 12.9214C2.55678 12.9458 2.5762 12.9794 2.58806 13.0213C2.61045 13.1002 2.60934 13.2227 2.59711 13.4104C2.59226 13.5176 2.59272 13.5961 2.5973 13.6484C2.59758 13.6478 2.59785 13.6472 2.59813 13.6466C2.61232 13.6159 2.62843 13.5751 2.64633 13.5236Z" fill="black" stroke="black" stroke-width="0.1"/>
</svg>
