<svg width="49" height="48" viewBox="0 0 49 48" fill="none" xmlns="http://www.w3.org/2000/svg">
<path d="M17.5971 0.515659C11.2479 2.57242 4.63054 8.65327 2.03724 14.7341C-0.198372 20.0996 0.159325 29.042 2.93148 34.3181C6.95558 42.2768 15.898 48 24.4828 48C29.5799 48 36.1973 45.4067 40.3109 41.7403C56.3178 27.7007 47.1071 1.14163 26.003 0.0685349C22.6943 -0.110313 18.9384 0.0685349 17.5971 0.515659ZM30.8319 2.84069C47.9119 7.93788 51.936 30.8305 37.5387 41.2932C19.2067 54.7963 -5.02729 35.0335 4.71997 14.4659C7.49212 8.65327 11.2479 5.25515 17.0605 3.19839C22.8731 1.23105 25.1087 1.14163 30.8319 2.84069Z" fill="black"/>
<path d="M21.5179 7.16937C21.4615 7.28217 21.4373 7.7414 21.4615 8.48263C21.4857 9.59446 21.4937 9.6428 21.7274 10.0295C21.8643 10.239 22.1302 10.529 22.3236 10.666L22.67 10.9077L24.6278 10.9319L26.5936 10.9561L26.9965 10.7546C27.4315 10.529 27.7699 10.1504 27.9391 9.68308C28.068 9.31247 28.0922 7.38691 27.9714 7.15326C27.8908 7.00824 27.7699 7.00018 24.7486 7.00018C21.6387 7.00018 21.6146 7.00018 21.5179 7.16937ZM27.2462 8.53097C27.2462 9.36887 27.1012 9.77171 26.6984 9.9973C26.4889 10.1262 26.2311 10.1423 24.7325 10.1423C23.1937 10.1423 22.9923 10.1262 22.7667 9.98924C22.38 9.7556 22.251 9.38498 22.251 8.53902V7.80586H24.7486H27.2462V8.53097Z" fill="black"/>
<path d="M25.3324 8.47455C25.0182 8.74042 25.0182 9.20771 25.3243 9.46553C25.9044 9.96505 26.7101 9.39302 26.42 8.68402C26.2347 8.24896 25.711 8.14422 25.3324 8.47455ZM26.0253 8.82099C26.0978 8.90961 26.1058 8.98212 26.0414 9.0788C25.9205 9.27217 25.6869 9.29634 25.566 9.1352C25.3404 8.82904 25.7836 8.53094 26.0253 8.82099Z" fill="black"/>
<path d="M23.502 8.62045C23.1959 8.73325 23.212 9.27305 23.5262 9.35362C23.8968 9.4503 24.211 9.10386 24.0419 8.78964C23.9452 8.60434 23.7276 8.53183 23.502 8.62045Z" fill="black"/>
<path d="M19.2902 10.77C19.0485 10.8506 19.2177 11.1245 19.7978 11.5837C22.7949 13.9685 26.8153 13.9524 29.756 11.5435C30.2797 11.1164 30.4247 10.8667 30.2313 10.7458C30.191 10.7217 29.8365 10.9553 29.4579 11.2615C28.6361 11.9302 27.5726 12.478 26.6058 12.7359C25.6148 13.0017 23.8745 12.9937 22.8997 12.7278C21.9087 12.4539 20.8613 11.9141 20.0717 11.2856C19.7011 10.9795 19.3466 10.7458 19.2902 10.77Z" fill="black"/>
<path d="M17.048 13.0187C16.9513 13.2604 18.2646 14.3481 19.5214 15.0732C20.4157 15.5889 22.438 16.2656 23.0745 16.2656C23.3967 16.2656 23.4048 15.9675 23.0906 15.895C21.4228 15.5163 20.5366 15.1941 19.4973 14.5979C18.9494 14.2756 17.8215 13.4216 17.5153 13.0913C17.2897 12.8496 17.1205 12.8254 17.048 13.0187Z" fill="black"/>
<path d="M31.7177 13.3332C30.8879 14.0986 29.486 14.9526 28.4144 15.3394C27.9552 15.5086 27.7699 15.6455 27.8424 15.7744C27.9391 15.9195 28.1808 15.8792 28.8817 15.5972C30.3964 14.9849 32.604 13.3896 32.4589 13.011C32.3784 12.8015 32.2253 12.8659 31.7177 13.3332Z" fill="black"/>
<path d="M14.885 15.1138C14.7481 15.2427 14.8689 15.4039 15.5376 15.984C17.1409 17.3939 19.2196 18.5057 21.1854 19.0053C21.8944 19.1825 22.112 19.1744 22.0636 18.9569C22.0475 18.8683 21.7494 18.7474 21.1129 18.5621C19.0021 17.9498 17.2457 16.983 15.6263 15.5247C15.1267 15.0735 14.9898 15.001 14.885 15.1138Z" fill="black"/>
<path d="M33.7655 15.6131C32.7745 16.4832 31.8158 17.1278 30.6234 17.6998C29.866 18.0704 29.5196 18.2799 29.5357 18.3604C29.5437 18.4249 29.6163 18.4893 29.6968 18.5055C29.8902 18.5457 31.6224 17.6917 32.412 17.1761C33.2901 16.596 34.684 15.3875 34.6517 15.2344C34.6034 14.9766 34.3778 15.0652 33.7655 15.6131Z" fill="black"/>
<path d="M25.1594 16.3869C24.5955 16.548 24.2974 16.7333 23.8462 17.2167C22.6779 18.4655 23.0969 20.5361 24.6841 21.3499C25.2158 21.6238 26.1665 21.656 26.803 21.4143C28.1888 20.8906 28.8656 19.1906 28.221 17.8371C27.6731 16.6769 26.3599 16.0566 25.1594 16.3869ZM26.5613 17.2731C27.23 17.5471 27.649 18.1916 27.649 18.9731C27.649 20.8906 25.0144 21.4868 24.1765 19.7546C23.959 19.3034 23.9429 18.5944 24.1443 18.1916C24.6196 17.257 25.6026 16.8784 26.5613 17.2731Z" fill="black"/>
<path d="M12.7136 17.3459C12.6814 17.4184 12.8667 17.644 13.1648 17.934C14.623 19.3279 16.4922 20.5122 18.4178 21.2857C19.6021 21.761 20.867 22.1074 20.9718 22.0027C21.149 21.8255 20.9395 21.6804 20.1742 21.471C18.6434 21.0359 16.9595 20.2624 15.6382 19.3843C14.8728 18.8686 13.761 17.9904 13.342 17.5634C13.0197 17.225 12.7861 17.1445 12.7136 17.3459Z" fill="black"/>
<path d="M35.899 17.7647C35.1337 18.4817 34.1507 19.2149 33.1678 19.803C31.8546 20.5845 30.8958 20.9713 28.5674 21.6883C28.3821 21.7447 28.2451 21.8333 28.2451 21.9059C28.2451 22.1234 28.9299 22.0186 30.1062 21.6319C32.1043 20.9632 34.0057 19.9078 35.5768 18.5865C36.4791 17.8291 36.8578 17.4343 36.7934 17.3216C36.6806 17.1362 36.4469 17.2571 35.899 17.7647Z" fill="black"/>
<path d="M10.6678 19.3843C10.3456 19.4971 10.8773 20.0852 12.3436 21.2535C13.7939 22.4056 16.1142 23.7108 17.7578 24.307C18.5151 24.5809 18.7407 24.6212 18.8293 24.4762C18.918 24.3311 18.7004 24.2022 18.0156 23.9686C17.1374 23.6624 15.2521 22.752 14.4223 22.2283C13.5038 21.6321 12.2872 20.7217 11.4574 19.9724C11.0787 19.634 10.7162 19.3682 10.6678 19.3843Z" fill="black"/>
<path d="M38.2931 19.7466C35.7391 22.1072 33.1046 23.5736 29.7368 24.5243C29.3582 24.629 29.2695 24.6854 29.2695 24.8224C29.2695 24.9754 29.3018 24.9835 29.624 24.9432C30.5506 24.8143 32.9676 23.8717 34.4259 23.074C36.2306 22.0831 38.9779 19.9238 38.9215 19.5371C38.8813 19.2712 38.7604 19.3115 38.2931 19.7466Z" fill="black"/>
<path d="M23.5169 21.9951C23.0254 22.1079 20.9629 23.2036 20.5923 23.542C20.407 23.7112 20.1814 24.0012 20.0928 24.1865C20.0041 24.3718 19.6899 25.6287 19.3918 26.9822C18.7956 29.7538 18.7795 30.0196 19.1743 30.5031C19.698 31.1637 20.4473 31.2684 20.4473 30.6884C20.4473 30.4547 20.407 30.3983 20.125 30.2533C19.6416 30.0035 19.6174 29.8263 19.8752 28.6178C20.4714 25.8462 20.7373 24.7022 20.8421 24.5008C21.0274 24.1463 21.2771 23.969 22.4776 23.3486C23.533 22.8088 23.6539 22.7605 24.1292 22.7605C25.3377 22.7605 26.2965 23.6709 26.3045 24.8311C26.3045 25.1775 25.6922 28.231 25.2008 30.3016C25.1363 30.5836 25.0799 30.8898 25.0799 30.9865C25.0799 31.1154 25.4022 31.4296 26.3126 32.1869C27.8192 33.4438 28.1173 33.7258 28.2785 34.0239C28.3751 34.2011 28.4476 35.031 28.5846 37.5044C28.7055 39.7522 28.7941 40.7996 28.8666 40.8802C28.9955 41.0413 29.3017 41.0333 29.4628 40.8721C29.5675 40.7754 29.5836 40.6224 29.5434 40.0906C29.5192 39.7281 29.4306 38.2537 29.35 36.8115C29.1969 34.0319 29.1486 33.758 28.7216 33.2262C28.6168 33.0893 27.9562 32.5092 27.2552 31.9372C26.5543 31.3571 25.9742 30.8334 25.9742 30.7689C25.9662 30.7045 26.1676 29.7215 26.4173 28.5936C27.1827 25.0647 27.1908 24.9922 27.1022 24.4444C26.9813 23.7595 26.6671 23.1794 26.1917 22.7524C25.7083 22.3174 25.4344 22.1643 24.8785 22.0193C24.4273 21.8984 23.9761 21.8904 23.5169 21.9951Z" fill="black"/>
<path d="M22.808 25.1849C22.6711 25.3058 22.5502 25.7328 22.1957 27.4247C21.5431 30.446 21.5753 30.2607 21.672 30.8166C21.8412 31.7109 22.0668 31.9929 23.9199 33.5479C25.1042 34.5388 25.644 35.0545 25.7487 35.2559C25.8615 35.4976 25.9179 36.0696 26.0307 38.1724C26.1274 39.7838 26.216 40.8231 26.2724 40.8876C26.4094 41.0568 26.8042 41.0245 26.9089 40.8392C27.0056 40.662 26.7961 36.1985 26.6592 35.4734C26.5302 34.7967 26.216 34.4099 24.8786 33.2981C22.9047 31.6545 22.8161 31.5659 22.6388 31.1953C22.5502 31.0019 22.4696 30.6716 22.4696 30.4541C22.4616 30.2365 22.6872 29.0038 22.9692 27.7067L23.4767 25.3461L23.2914 25.201C23.0578 25.0157 23.0256 25.0157 22.808 25.1849Z" fill="black"/>
<path d="M27.6623 25.468C27.5093 25.6211 27.5495 25.9192 27.751 26.0883C30.023 28.022 29.9827 27.9736 29.7007 28.594C29.5154 29.0049 29.6362 29.2627 29.9988 29.2224C30.3533 29.1902 30.5628 28.8679 30.6111 28.312C30.6675 27.5789 30.5225 27.3694 29.2495 26.3059C28.1457 25.3794 27.8879 25.2424 27.6623 25.468Z" fill="black"/>
<path d="M21.1795 32.4195C21.0667 32.5565 21.0506 32.621 19.6084 39.3081C19.2862 40.7986 19.3023 41 19.7212 41C19.8501 41 19.9871 40.9517 20.0354 40.8953C20.1321 40.7825 21.824 33.0399 21.824 32.7096C21.824 32.5887 21.7838 32.4518 21.7274 32.3954C21.5904 32.2584 21.3004 32.2745 21.1795 32.4195Z" fill="black"/>
<path d="M23.4164 34.2818C23.3439 34.3463 23.2875 34.4268 23.2875 34.443C23.2875 34.4671 23.1585 35.0553 23.0135 35.7482C21.9339 40.6467 21.9178 40.7272 22.0951 40.9045C22.2481 41.0576 22.5462 41.0173 22.6751 40.8239C22.7396 40.7192 23.086 39.2529 23.4566 37.5609C24.1012 34.5638 24.1173 34.4671 23.9723 34.3141C23.795 34.1207 23.5856 34.1046 23.4164 34.2818Z" fill="black"/>
</svg>
