<svg width="67" height="50" viewBox="0 0 67 50" fill="none" xmlns="http://www.w3.org/2000/svg">
<path d="M1.36111 1.79522C1.09804 2.49676 0.834961 12.3182 0.834961 23.5427C0.834961 45.0271 1.01034 45.9917 4.86877 45.9917C6.09645 45.9917 7.06105 46.6932 7.41182 47.7455C7.76258 48.7978 8.72719 49.4994 10.0426 49.4994C11.2702 49.4994 12.2348 48.8855 12.4979 47.7455C12.9364 46.0794 13.7256 45.9917 33.9823 45.9917C54.239 45.9917 55.0283 46.0794 55.4667 47.7455C56.0806 50.0255 59.5882 50.1132 60.2021 47.8332C60.4651 46.6056 61.5174 45.9917 63.4467 45.8163L66.1651 45.5533V23.1919V0.83062L34.07 0.567543C5.30722 0.392162 1.88726 0.479855 1.36111 1.79522ZM48.8899 22.9289L48.6268 44.6763H25.827H3.02725L2.76417 24.0688C2.67648 12.7567 2.76417 3.0229 2.93956 2.40907C3.29032 1.53215 8.55181 1.26908 26.2655 1.26908H49.0653L48.8899 22.9289ZM65.5512 18.1935L65.7266 34.6795L58.0975 34.4164L50.3806 34.1534L50.1175 17.6674L49.9422 1.18139L57.5713 1.44446L65.2882 1.70753L65.5512 18.1935ZM65.7266 39.8533C65.7266 45.0271 65.0251 45.3779 56.0806 44.9394L50.3806 44.6763L50.1175 40.0287L49.8545 35.4687H57.7467H65.7266V39.8533ZM11.3579 47.3071C11.3579 48.0086 10.7441 48.6225 10.0426 48.6225C9.34103 48.6225 8.72719 48.0086 8.72719 47.3071C8.72719 46.6056 9.34103 45.9917 10.0426 45.9917C10.7441 45.9917 11.3579 46.6056 11.3579 47.3071ZM59.5882 46.7809C59.5882 48.0086 58.0098 48.7978 56.9575 48.184C56.4313 47.8332 56.256 47.2194 56.519 46.7809C57.2206 45.7286 59.5882 45.7286 59.5882 46.7809Z" fill="black"/>
<path d="M5.93164 22.6919V34.9688L25.4868 34.7934L44.9543 34.5303V22.6919V10.8536L25.4868 10.5905L5.93164 10.4151V22.6919ZM43.639 22.6919V34.0918L25.4868 33.9165L7.24701 33.6534L6.98394 22.4289L6.72086 11.2921H25.2238H43.639V22.6919Z" fill="black"/>
<path d="M55.0389 7.78452C52.8466 9.97681 52.8466 11.4676 54.8635 13.3091C56.9681 15.2383 58.8096 15.1506 60.5635 13.2214C62.4927 11.1168 62.405 9.27527 60.4758 7.52145C58.3712 5.59223 57.1435 5.67992 55.0389 7.78452ZM59.8619 10.4153C59.8619 11.9937 59.3358 12.6952 57.845 12.8706C55.7404 13.2214 54.5127 11.2922 55.3897 9.0122C55.6527 8.22298 56.705 7.78452 57.845 7.9599C59.3358 8.13529 59.8619 8.83682 59.8619 10.4153Z" fill="black"/>
<path d="M54.5987 21.8151C51.2664 25.4981 56.7909 30.5842 60.3863 26.9889C62.4032 24.972 62.4909 23.3058 60.6494 21.4643C58.8079 19.5351 56.5279 19.7105 54.5987 21.8151ZM60.1232 24.7089C59.9478 26.112 59.2463 26.6381 57.6679 26.6381C55.2125 26.6381 54.2479 24.2704 55.914 22.2535C57.4925 20.412 60.474 22.1659 60.1232 24.7089Z" fill="black"/>
</svg>
