<svg width="49" height="50" viewBox="0 0 49 50" fill="none" xmlns="http://www.w3.org/2000/svg">
<path d="M1.05598 1.55598C0.314672 2.2973 0.314672 47.7354 1.05598 48.4767C1.44844 48.8692 7.33534 49 24.778 49C45.5347 49 48.0203 48.9128 48.2384 48.3023C48.3692 47.9098 48.5 37.357 48.5 24.8419C48.5 7.70452 48.3692 1.94844 47.9767 1.55598C47.2354 0.814671 1.7973 0.814671 1.05598 1.55598ZM47.5407 25.1036L47.6279 48.1279H24.5164H1.40484V25.3216C1.40484 12.7629 1.53566 2.3409 1.71008 2.21008C1.8409 2.03566 12.2193 1.94844 24.6908 1.99205L47.4098 2.12287L47.5407 25.1036Z" fill="black" stroke="black"/>
<path d="M8.00977 25.1907V42.3281H25.0164H42.0229V25.1907V8.0097H25.0164H8.00977V25.1907ZM41.0636 25.0599L40.9328 41.238H25.0164H9.09994L8.96912 25.0599L8.8819 8.88184H25.0164H41.1508L41.0636 25.0599Z" fill="black" stroke="black"/>
</svg>
