<svg width="49" height="48" viewBox="0 0 49 48" fill="none" xmlns="http://www.w3.org/2000/svg">
<path d="M17.5971 0.515659C11.2479 2.57242 4.63054 8.65327 2.03724 14.7341C-0.198372 20.0996 0.159325 29.042 2.93148 34.3181C6.95558 42.2768 15.898 48 24.4828 48C29.5799 48 36.1973 45.4067 40.3109 41.7403C56.3178 27.7007 47.1071 1.14163 26.003 0.0685349C22.6943 -0.110313 18.9384 0.0685349 17.5971 0.515659ZM30.8319 2.84069C47.9119 7.93788 51.936 30.8305 37.5387 41.2932C19.2067 54.7963 -5.02729 35.0335 4.71997 14.4659C7.49212 8.65327 11.2479 5.25515 17.0605 3.19839C22.8731 1.23105 25.1087 1.14163 30.8319 2.84069Z" fill="black"/>
<path d="M23.1757 9.34574C22.2353 9.81592 21.5888 11.1383 21.8239 12.0786C22.5292 14.8115 26.702 14.4883 26.702 11.6966C26.702 10.3743 26.4375 9.87469 25.4972 9.40451C24.498 8.87556 24.116 8.87556 23.1757 9.34574Z" fill="black"/>
<path d="M17.7976 17.3603C17.0042 18.1537 19.1494 20.1226 21.6178 20.8572C24.5271 21.7388 28.0828 20.9748 30.1986 19.0647C31.0801 18.2419 31.1683 18.0362 30.8451 17.6248C30.3455 17.0077 29.8165 17.037 29.317 17.6542C28.5236 18.5945 26.0551 19.5055 24.2626 19.5055C22.4113 19.5055 21.0595 19.0353 19.5608 17.9186C18.5323 17.1252 18.1209 17.0077 17.7976 17.3603Z" fill="black"/>
<path d="M13.8591 21.4748C13.5946 22.1507 15.7398 23.9726 18.0319 25.0599C23.1157 27.499 28.5815 26.8819 33.2539 23.3555C34.2236 22.6209 34.635 22.1213 34.5762 21.7099C34.4293 20.7696 33.5477 20.8577 32.3723 21.8862C28.1407 25.5595 21.4407 25.7652 16.7389 22.2976C14.7994 20.8871 14.1529 20.6814 13.8591 21.4748Z" fill="black"/>
<path d="M10.0387 25.2951C9.62728 26.353 14.1821 29.556 17.9435 30.8784C21.0878 31.9951 25.9659 32.1714 29.1984 31.2898C30.4914 30.9372 32.3133 30.2613 33.2243 29.7911C35.5164 28.6744 38.455 26.3236 38.455 25.6183C38.455 24.7073 37.6322 24.6779 36.6037 25.5008C32.7247 28.7038 29.0808 30.1144 24.6436 30.1731C23.1155 30.2025 21.1172 30.0556 20.2356 29.8205C17.7672 29.2034 14.6817 27.7047 12.8304 26.1766C11.0378 24.7073 10.3325 24.5016 10.0387 25.2951Z" fill="black"/>
<path d="M6.60139 29.967C6.18998 31.0543 11.0975 34.6687 15.094 36.285C21.3826 38.7828 29.258 38.5477 35.0177 35.6091C38.8085 33.699 42.2467 30.8779 41.894 29.967C41.5708 29.1735 40.8068 29.438 39.2493 30.8192C35.3116 34.3749 30.0221 36.3144 24.233 36.285C18.7084 36.285 14.1242 34.6687 9.83385 31.26C7.51236 29.4086 6.89525 29.1735 6.60139 29.967Z" fill="black"/>
</svg>
