<svg width="49" height="44" viewBox="0 0 49 44" fill="none" xmlns="http://www.w3.org/2000/svg">
<path d="M0.5 8.03656V15.4837H18.9318H37.3635V12.691C37.3635 10.0473 37.4008 9.89835 38.2199 9.89835C41.3478 9.89835 44.1777 12.3187 44.6245 15.2976C44.9969 17.7179 43.7309 20.1382 41.4967 21.3298C39.8956 22.1862 39.6721 22.1862 28.278 22.1862C16.8838 22.1862 16.6604 22.2234 14.7986 23.0799C8.20783 26.1704 8.20783 35.5166 14.8358 38.6072C16.1391 39.203 17.3306 39.3147 24.1075 39.3147H31.8898L33.2676 40.8041C34.3846 42.0329 34.9059 42.2936 36.023 42.2936C36.8794 42.2936 37.4752 42.4797 37.5869 42.8521C37.7359 43.2245 38.3316 43.4106 39.4487 43.4106H41.0871V41.9212V40.4318H42.7627C44.1777 40.4318 44.4383 40.3201 44.4383 39.6871C44.4383 39.054 44.1777 38.9423 42.7627 38.9423H41.0871V37.4529V35.9635H42.7627C44.1777 35.9635 44.4383 35.8518 44.4383 35.2188C44.4383 34.5857 44.1777 34.474 42.7627 34.474H41.0871V32.9846V31.4952H39.4115C38.1827 31.4952 37.7359 31.6441 37.7359 32.0537C37.7359 32.4261 37.3635 32.6122 36.5443 32.6122C35.0549 32.6122 33.0442 33.7666 32.709 34.8092C32.4856 35.5539 32.225 35.5911 24.7778 35.5911C17.703 35.5911 16.9583 35.5166 15.8412 34.8464C14.2773 33.8783 13.3836 31.8675 13.7187 30.043C13.9794 28.4418 14.4635 27.7716 15.9529 26.8034C16.9583 26.1704 18.0009 26.096 29.3578 25.9098L41.6456 25.7236L43.3957 24.7182C49.1673 21.2925 50.2471 13.8081 45.5926 9.15364C43.6936 7.25461 41.1988 6.17477 38.7785 6.17477H37.3635V3.38208V0.589386H18.9318H0.5V8.03656ZM35.8741 8.03656V13.9943H18.9318H1.98943V8.03656V2.07882H18.9318H35.8741V8.03656ZM41.1243 8.0738C44.1404 9.00469 47.0448 12.7655 47.0448 15.8189C47.0448 19.2446 44.2894 23.1916 41.2733 24.0108C40.3424 24.2714 35.5017 24.4203 28.5014 24.4203C16.2508 24.4203 15.7295 24.4948 13.8304 26.5056C11.2239 29.3355 11.6335 33.6548 14.7241 36.0007C15.9157 36.8571 16.1391 36.8944 24.0703 37.0061C28.7993 37.0805 32.1505 37.2667 32.1505 37.4901C32.1505 37.6763 29.0227 37.8253 24.4427 37.8253C17.5168 37.8253 16.5859 37.7508 15.2082 37.0805C12.8623 35.9635 11.2984 33.3197 11.2984 30.6015C11.2984 29.1121 12.4155 26.6917 13.5698 25.6491C15.6178 23.7873 16.437 23.6756 28.6876 23.6756C38.9647 23.6756 40.3051 23.6012 41.6456 22.9681C45.5926 21.1808 47.3427 16.3029 45.3692 12.5049C44.1777 10.1962 41.1243 8.40892 38.4061 8.40892C37.8103 8.40892 37.3635 8.22274 37.3635 8.03656C37.3635 7.55249 39.3743 7.55249 41.1243 8.0738ZM39.486 39.7615C39.4115 41.0648 39.3743 40.0222 39.3743 37.4529C39.3743 34.8836 39.4115 33.841 39.486 35.107C39.5604 36.4103 39.5604 38.4955 39.486 39.7615ZM37.7359 37.4529V40.8041H36.4699C34.7942 40.8041 33.6399 39.4264 33.6399 37.3784C33.6399 35.5539 34.9432 34.1017 36.6188 34.1017H37.7359V37.4529Z" fill="black"/>
<path d="M28.427 8.03669V13.6221H31.4059H34.3847V8.03669V2.45131H31.4059H28.427V8.03669ZM32.8953 5.61636V7.29197H31.4059H29.9164V5.61636V3.94074H31.4059H32.8953V5.61636ZM32.8953 10.457V12.1326H31.4059H29.9164V10.457V8.78141H31.4059H32.8953V10.457Z" fill="black"/>
<path d="M7.20236 3.56817C4.74479 4.83419 3.81389 8.03648 5.11715 10.5685C6.86723 13.957 11.8941 14.0687 13.942 10.7547C15.99 7.47794 13.2718 2.74898 9.36204 2.82345C8.87797 2.86069 7.90984 3.15858 7.20236 3.56817ZM10.8887 4.72248C12.7505 5.39273 13.7559 8.11095 12.7877 9.93551C12.5643 10.3079 11.8568 10.9036 11.2238 11.2388C8.84073 12.4675 6.08528 10.8292 6.08528 8.14819C6.08528 6.50981 6.60658 5.57891 7.8726 4.90866C9.10139 4.20118 9.39927 4.20118 10.8887 4.72248Z" fill="black"/>
<path d="M9.17608 5.31842C8.50583 5.54184 8.5803 6.80786 9.21331 7.03127C9.5112 7.14298 9.95803 6.99403 10.2187 6.69615C10.591 6.24932 10.5538 6.0259 10.1442 5.65354C9.84632 5.35566 9.39949 5.20671 9.17608 5.31842Z" fill="black"/>
<path d="M8.69189 9.86092C8.69189 10.7546 9.17596 11.0897 9.99515 10.7918C10.8516 10.4567 10.5165 9.37686 9.51108 9.22792C8.91531 9.11621 8.69189 9.30239 8.69189 9.86092Z" fill="black"/>
<path d="M18.7828 3.45682C15.0965 5.39308 14.8731 10.0848 18.336 12.3934C22.7298 15.3351 28.2035 9.71245 25.2991 5.24414C23.8842 3.1217 20.9798 2.30251 18.7828 3.45682ZM23.5863 5.6165C25.0012 7.03146 24.8895 9.26561 23.2884 10.6806C22.5437 11.3508 21.6872 11.7604 20.9798 11.7604C20.2723 11.7604 19.4159 11.3508 18.6711 10.6806C17.6658 9.78692 17.4424 9.34009 17.4424 8.1113C17.4424 4.76007 21.2032 3.2334 23.5863 5.6165Z" fill="black"/>
<path d="M20.2351 6.13779C20.2351 7.14316 20.9426 7.47828 21.6128 6.80804C22.2831 6.13779 21.948 5.43031 20.9426 5.43031C20.4958 5.43031 20.2351 5.69096 20.2351 6.13779Z" fill="black"/>
<path d="M20.1233 9.67498C19.7882 10.4942 20.8308 11.2389 21.501 10.6431C22.2085 10.0846 21.8734 9.15368 20.9797 9.15368C20.6074 9.15368 20.235 9.37709 20.1233 9.67498Z" fill="black"/>
</svg>
