<svg width="35" height="48" viewBox="0 0 35 48" fill="none" xmlns="http://www.w3.org/2000/svg">
<path d="M5.02866 0.138317C3.3044 0.569386 1.8634 1.75174 1.08748 3.36517L0.619462 4.33815L0.582514 22.5292C0.557881 40.7202 0.557881 40.7325 0.816522 41.4961C1.45696 43.4175 3.14428 44.957 5.09025 45.4127L5.73069 45.5605V46.5704C5.73069 48.0853 5.509 47.9991 9.52408 47.9991C13.5638 47.9991 13.3667 48.073 13.3667 46.5212V45.5359H17.4311H21.4954V46.5212C21.4954 48.073 21.2984 47.9991 25.3504 47.9991C27.2348 47.9991 28.7866 47.9498 28.8852 47.8759C29.0206 47.7897 29.0822 47.4572 29.1315 46.6813L29.1931 45.5974L29.7473 45.4373C32.2475 44.723 33.9594 42.8509 34.292 40.4246C34.4644 39.2176 34.4767 6.29642 34.3043 5.1387C33.9841 2.92178 32.5923 1.14825 30.4986 0.310745L29.8089 0.0274734L17.739 0.00284195C8.36636 -0.00947571 5.52131 0.0151558 5.02866 0.138317ZM29.4394 1.50542C30.1537 1.62858 31.2991 2.26902 31.7918 2.84789C32.0258 3.11884 32.3706 3.64844 32.5554 4.03024L32.8879 4.70763L32.9249 22.4922C32.9618 42.1243 32.9988 40.9419 32.1859 42.1612C31.7179 42.8509 30.7819 43.5899 29.9936 43.8978C29.4763 44.1072 28.5649 44.1195 17.7513 44.1564C7.62738 44.1811 5.97701 44.1564 5.33657 43.9963C3.93252 43.6392 2.91028 42.8017 2.29447 41.4838L1.97425 40.7941L1.9373 22.9972L1.90035 5.20028L2.1713 4.46131C2.65164 3.11884 3.35366 2.34292 4.5976 1.77637L5.17646 1.50542L16.6921 1.44384C28.5403 1.38226 28.6142 1.38226 29.4394 1.50542ZM11.8888 46.0901V46.6443L9.52408 46.6197L7.14705 46.5827L7.1101 46.0531L7.07315 45.5359H9.47482H11.8888V46.0901ZM27.7521 46.0531L27.7151 46.5827L25.3504 46.6197L22.9734 46.6566V46.1024V45.5359H25.3874H27.789L27.7521 46.0531Z" fill="black"/>
<path d="M16.3217 4.90436C13.6121 5.43396 11.6046 8.25437 11.9987 10.9886C12.282 12.9099 13.3165 14.3263 15.0654 15.2007C15.866 15.5948 16.1123 15.6564 17.073 15.7057C17.7504 15.7426 18.4031 15.7057 18.7603 15.6071C21.5068 14.8559 23.2557 12.2818 22.8616 9.53525C22.4182 6.41925 19.4254 4.30086 16.3217 4.90436ZM19.253 6.64094C19.955 6.97348 20.6816 7.71245 21.1004 8.51301C21.3837 9.05492 21.4329 9.28893 21.4329 10.2496C21.4329 11.124 21.3713 11.4812 21.162 11.9369C20.7802 12.7744 19.9427 13.6119 19.1667 13.9568C18.3292 14.3263 18.2553 14.3263 18.7603 13.9321C19.6717 13.2055 20.1397 11.629 19.7702 10.4836C19.5609 9.84316 18.6371 7.94646 18.1322 7.14591L17.7381 6.50547V8.37753C17.7381 10.0033 17.7011 10.3112 17.4917 10.7422C17.1715 11.3704 16.7158 11.6413 16.2355 11.4812C15.9399 11.3704 15.4472 10.8038 15.2995 10.3974C15.164 10.0156 15.0285 10.5452 15.0285 11.4566C15.0285 12.331 15.0778 12.5404 15.3733 13.0454C15.5581 13.3656 15.8783 13.7351 16.0877 13.8829C16.6419 14.2893 16.4325 14.3139 15.6689 13.9568C14.8807 13.575 14.0678 12.7498 13.6983 11.9369C13.2919 11.0501 13.3165 9.36283 13.7599 8.52532C14.8191 6.49315 17.2331 5.66796 19.253 6.64094Z" fill="black"/>
<path d="M10.1646 37.4191C9.73354 37.5916 9.19163 38.1335 8.92067 38.6631C8.41571 39.6484 8.7852 40.9662 9.77049 41.6559L10.3124 42.0254H17.4312H24.5499L25.0919 41.6559C26.2126 40.8677 26.5205 39.2912 25.7323 38.3059C25.5229 38.0596 25.2027 37.7394 25.018 37.6039C24.6854 37.3452 24.5376 37.3452 17.579 37.3206C13.0343 37.3083 10.3617 37.3452 10.1646 37.4191ZM24.4021 38.934C24.8578 39.3158 24.8825 40.0425 24.4637 40.375C24.1928 40.5967 23.8356 40.609 17.4681 40.609C13.3299 40.609 10.6819 40.5598 10.5341 40.4859C10.2262 40.3258 10.0291 39.6853 10.1646 39.3281C10.4233 38.6261 10.2508 38.6384 17.4558 38.6384H24.0696L24.4021 38.934Z" fill="black"/>
</svg>
