<svg width="27" height="29" viewBox="0 0 27 29" fill="none" xmlns="http://www.w3.org/2000/svg">
<path d="M0.557731 0.177238C-0.0434801 0.539734 0.000726606 -0.450495 0.000726606 13.6072V26.3299L0.230601 26.6128C0.495842 26.9223 0.876019 27.1433 1.1501 27.1433C1.3004 27.1433 1.32693 27.1964 1.32693 27.5589C1.32693 28.0893 1.54796 28.5403 1.93698 28.7966C2.20222 28.9823 2.34368 29 3.21897 29C4.03238 29 4.24457 28.9735 4.48328 28.8232C4.88999 28.5845 5.07565 28.2396 5.1287 27.6738L5.17291 27.1875L9.66431 27.161L14.1469 27.1433V27.5677C14.1469 28.0805 14.3767 28.5314 14.7658 28.7966C15.0222 28.9823 15.1636 29 16.0389 29C16.8523 29 17.0645 28.9735 17.3032 28.8232C17.7099 28.5845 17.8956 28.2396 17.9486 27.6826C17.9928 27.2052 18.0017 27.1964 18.3288 27.1168C18.762 27.0107 19.1422 26.6394 19.266 26.2061C19.319 26.0205 19.3633 25.2778 19.3633 24.5528V23.2531H18.9212H18.4791V24.712C18.4791 26.0558 18.4703 26.1708 18.3111 26.2592C18.1962 26.3211 15.3139 26.3476 9.60242 26.3476C1.9635 26.3476 1.06169 26.3299 0.937908 26.2061C0.81413 26.0824 0.796447 25.1894 0.796447 17.7185V9.37223H5.56193H10.3274L10.3628 9.12467C10.3893 8.99205 10.4423 8.81523 10.4777 8.72681C10.5396 8.58535 10.2744 8.57651 5.66802 8.57651H0.796447V4.82778C0.796447 1.52996 0.81413 1.06137 0.937908 0.937593C1.06169 0.813816 1.97234 0.796133 9.67315 0.796133C16.2423 0.796133 18.2935 0.822657 18.373 0.902229C18.4438 0.97296 18.4791 1.44155 18.4791 2.43178V3.84639L18.93 3.85524L19.3809 3.86408L19.3456 2.35221C19.319 0.937593 19.3102 0.822657 19.1157 0.548576C18.6913 -0.0349522 19.2925 0.000411987 9.6201 0.000411987C1.07053 0.000411987 0.831812 0.00925446 0.557731 0.177238ZM4.33298 27.5147C4.33298 28.107 4.18268 28.2043 3.21897 28.2043C2.46746 28.2043 2.38789 28.1866 2.26411 28.0098C2.18454 27.9037 2.12265 27.665 2.12265 27.4793V27.1433H3.22781H4.33298V27.5147ZM17.1529 27.5147C17.1529 28.107 17.0026 28.2043 16.0389 28.2043C15.2874 28.2043 15.2078 28.1866 15.084 28.0098C15.0045 27.9037 14.9426 27.665 14.9426 27.4793V27.1433H16.0478H17.1529V27.5147Z" fill="black"/>
<path d="M2.52865 2.17542C2.31646 2.37877 2.31646 6.46347 2.52865 6.66682C2.68779 6.8348 2.92651 6.85249 3.07681 6.70218C3.22712 6.55188 3.22712 2.29036 3.07681 2.14005C2.92651 1.98975 2.68779 2.00743 2.52865 2.17542Z" fill="black"/>
<path d="M18.621 4.82771C18.5149 4.92497 18.4795 5.146 18.4795 5.67648C18.4795 6.31306 18.4618 6.37495 18.3292 6.3219C17.613 6.01245 17.4362 5.97709 17.2948 6.10087C17.2063 6.16276 17.1533 6.31306 17.171 6.44568C17.1887 6.63135 17.3124 6.7286 17.8429 6.985L18.4795 7.29445V7.7542V8.21395L17.5423 7.82493C17.0207 7.60389 16.5344 7.42707 16.4548 7.42707C16.1365 7.42707 15.9597 7.91334 16.2073 8.11669C16.2603 8.1609 16.7908 8.40845 17.3743 8.64717L18.4353 9.09808L18.4618 9.57551L18.4883 10.0618L18.0905 9.92032C17.6484 9.76118 17.4185 9.85843 17.4185 10.2032C17.4185 10.4773 17.5069 10.5569 17.9932 10.7514C18.4264 10.9282 18.4353 10.9371 18.4618 11.3438L18.4883 11.7505L18.0286 12.0157L17.56 12.281L17.2329 12.0953L16.8969 11.9096L16.9499 11.3526C17.0118 10.7249 16.9146 10.5215 16.5698 10.5215C16.3399 10.5215 16.1807 10.7514 16.1807 11.0874C16.1807 11.2112 16.1454 11.3261 16.0923 11.3615C16.0039 11.4145 15.2966 11.0078 15.2966 10.8929C15.2966 10.8575 15.3585 10.4331 15.4292 9.94685C15.6237 8.61181 15.6061 8.32888 15.3408 8.2051C14.9518 8.02828 14.8015 8.27584 14.6777 9.31027C14.5274 10.6099 14.5539 10.5657 14.1649 10.3359C13.9881 10.2298 13.8113 10.1148 13.7759 10.0795C13.7317 10.0529 13.7405 9.73466 13.7847 9.37216C13.882 8.63833 13.8113 8.39961 13.493 8.39961C13.2101 8.39961 12.9979 8.66485 12.9979 9.02735C12.9979 9.57551 12.9006 9.60204 12.2994 9.24838C11.6009 8.84168 11.3445 8.83284 11.2031 9.22186C11.1235 9.42521 11.3976 9.69929 12.0076 10.0353C12.2552 10.1679 12.4674 10.3093 12.4674 10.3359C12.4585 10.3624 12.2817 10.5215 12.0695 10.6807C11.6628 10.9724 11.5567 11.2554 11.7778 11.4764C11.9634 11.6621 12.2375 11.5825 12.768 11.1846L13.2808 10.7956L13.6256 10.9636C13.8024 11.0609 13.9793 11.1758 14.0058 11.22C14.0323 11.2642 13.6963 11.5648 13.2631 11.8919C12.3878 12.5462 12.2375 12.7319 12.3701 12.9883C12.5735 13.3508 12.7945 13.28 13.8113 12.502C14.3506 12.0953 14.828 11.7593 14.8722 11.7593C14.9164 11.7593 15.1198 11.8477 15.3143 11.945L15.6856 12.1307L15.4204 12.3782C15.0667 12.6877 15.0137 12.8468 15.1728 13.0767C15.3585 13.3419 15.5795 13.3066 16.057 12.9441L16.4725 12.6258L16.7908 12.8026C17.1002 12.9794 17.1091 13.006 17.1356 13.5453C17.1533 14.0846 17.1533 14.1023 16.8792 14.2526C16.5167 14.4648 16.4637 14.4559 15.9774 14.1111C15.5 13.7751 15.2347 13.784 15.1021 14.1376C15.0402 14.3056 15.0844 14.394 15.3585 14.6416C15.5353 14.8096 15.668 14.951 15.6414 14.9687C15.6237 14.9864 15.4381 15.0925 15.2347 15.2074L14.8722 15.4108L13.8732 14.6416C13.325 14.2261 12.8034 13.8812 12.7149 13.8812C12.5293 13.8812 12.2994 14.1995 12.3524 14.394C12.3701 14.4736 12.7326 14.8007 13.1393 15.119C14.1561 15.8882 14.1384 15.8705 13.714 16.0827C13.5195 16.1888 13.325 16.2684 13.2719 16.2684C13.2277 16.2684 12.9979 16.1181 12.7592 15.9324C12.2021 15.4904 12.0784 15.4462 11.8397 15.6407C11.5656 15.8617 11.6717 16.1888 12.1137 16.4806C12.3082 16.6044 12.4674 16.7282 12.4674 16.7547C12.4674 16.7724 12.1933 16.9492 11.8573 17.1437C11.2119 17.5239 11.0881 17.683 11.2296 17.9483C11.3976 18.2665 11.6451 18.2489 12.2729 17.8775C12.9183 17.4885 12.9802 17.5062 12.989 18.0809C13.0067 18.6556 13.4841 18.9473 13.7405 18.5406C13.8466 18.3815 13.8555 18.2312 13.7936 17.7714C13.7494 17.4531 13.7052 17.1702 13.7052 17.1349C13.7052 17.0995 13.8732 16.9669 14.0677 16.8342C14.3329 16.6663 14.4567 16.6309 14.5009 16.7105C14.5363 16.7635 14.6158 17.241 14.6777 17.7537C14.7927 18.7705 14.8545 18.9208 15.164 18.9208C15.5619 18.9208 15.6061 18.7351 15.4823 17.6123C15.4204 17.0464 15.3497 16.4718 15.3231 16.348C15.2878 16.1446 15.332 16.0827 15.6768 15.8882C16.11 15.6495 16.1807 15.6849 16.1807 16.1269C16.1807 16.2419 16.2603 16.401 16.3576 16.4894C16.5079 16.6221 16.5698 16.6309 16.7643 16.5425C16.9853 16.4452 16.9942 16.4187 16.9676 15.8087L16.9323 15.1721L17.2329 14.9953L17.5335 14.8184L18.0021 15.0748C18.4707 15.3312 18.4795 15.3401 18.4795 15.7468V16.1535L17.949 16.3833C17.4716 16.5867 17.4185 16.6309 17.4185 16.8785C17.4185 17.2586 17.6661 17.3736 18.0905 17.1967C18.2673 17.126 18.4264 17.0641 18.4441 17.0641C18.4618 17.0641 18.4795 17.2763 18.4795 17.5239V17.9925L17.3036 18.4876C16.1896 18.9562 16.1365 18.9915 16.11 19.2568C16.0923 19.4601 16.1277 19.5574 16.2692 19.6281C16.4195 19.7077 16.6051 19.6635 17.3478 19.354C17.8429 19.1595 18.3027 18.9739 18.3646 18.9473C18.453 18.912 18.4795 19.0269 18.4795 19.3717V19.8491L17.8606 20.1055C17.3743 20.3001 17.224 20.4062 17.1798 20.583C17.1445 20.751 17.171 20.8482 17.3213 20.9632C17.5069 21.1135 17.5423 21.1135 17.8429 20.9897C18.506 20.6979 18.4795 20.6802 18.4795 21.4317C18.4795 21.9887 18.5149 22.1391 18.6563 22.2805C18.8774 22.5015 18.9658 22.5015 19.1868 22.2805C19.3283 22.1391 19.3636 21.9887 19.3636 21.4406C19.3636 21.0781 19.399 20.7775 19.4432 20.7775C19.4874 20.7775 19.6908 20.8571 19.8941 20.9455C20.3981 21.1753 20.7075 21.0516 20.6721 20.6537C20.6456 20.415 20.5837 20.3619 20.009 20.1144L19.3636 19.8491V19.3806C19.3636 19.133 19.3813 18.9208 19.4078 18.9208C19.4344 18.9208 19.8941 19.1065 20.4246 19.3275C21.2115 19.6546 21.4148 19.7165 21.5651 19.6281C21.6889 19.5662 21.7508 19.4424 21.7508 19.2656C21.7508 18.9739 21.8304 19.0269 20.0975 18.2931L19.3636 17.9925V17.5239C19.3636 17.2763 19.3813 17.0641 19.399 17.0641C19.4167 17.0641 19.5758 17.126 19.7526 17.1967C20.177 17.3736 20.4246 17.2586 20.4246 16.8785C20.4246 16.6309 20.3715 16.5867 19.8941 16.3833L19.3636 16.1535V15.7468C19.3636 15.3489 19.3725 15.3401 19.8411 15.0837L20.3185 14.8273L20.6103 15.0041L20.9109 15.1721L20.8755 15.8087C20.849 16.4187 20.8578 16.4452 21.0788 16.5425C21.2734 16.6309 21.3352 16.6221 21.4856 16.4894C21.5828 16.401 21.6624 16.2419 21.6624 16.1446C21.6624 15.7556 21.7862 15.7026 22.1929 15.9148C22.5554 16.1004 22.5642 16.1181 22.5111 16.4275C22.4846 16.6044 22.4139 17.1791 22.3608 17.7007C22.2459 18.7351 22.2901 18.9208 22.6791 18.9208C22.9886 18.9208 23.0593 18.7617 23.1742 17.7537C23.2361 17.2321 23.3069 16.7635 23.3422 16.7105C23.4218 16.5867 24.138 16.9846 24.138 17.1525C24.138 17.2233 24.0937 17.5239 24.0495 17.8156C23.9788 18.24 23.9876 18.3726 24.0937 18.5406C24.359 18.9473 24.8364 18.6556 24.8541 18.0809C24.8629 17.5062 24.9248 17.4885 25.5526 17.8598C26.2245 18.2665 26.3837 18.2842 26.5693 18.0013C26.7727 17.7007 26.6666 17.5416 25.9858 17.1437C25.6498 16.9492 25.3757 16.7812 25.3757 16.7635C25.3757 16.7547 25.5526 16.6132 25.7736 16.4541C26.2245 16.1358 26.2952 15.8352 25.9769 15.6141C25.7648 15.4638 25.6498 15.4992 25.0309 15.9766C24.8187 16.1358 24.5977 16.2684 24.5447 16.2684C24.4916 16.2684 24.2971 16.1711 24.1026 16.0562L23.7666 15.8529L24.6065 15.1986C25.0751 14.8361 25.4818 14.4913 25.5084 14.4206C25.5702 14.2526 25.3227 13.8812 25.137 13.8812C25.0575 13.8812 24.5358 14.2261 23.9788 14.6416L22.9709 15.402L22.5819 15.1898C22.3697 15.0837 22.1929 14.9599 22.1929 14.9334C22.1929 14.898 22.2901 14.8096 22.4139 14.73C22.7145 14.5355 22.8383 14.2791 22.7322 14.0669C22.573 13.7751 22.3166 13.7928 21.8657 14.1111C21.3795 14.4559 21.3264 14.4648 20.9639 14.2526C20.6898 14.1023 20.6898 14.0846 20.7075 13.5453C20.734 13.006 20.7429 12.9794 21.0523 12.8026L21.3795 12.6169L21.795 12.9441C22.2813 13.3154 22.4846 13.3419 22.6703 13.0678C22.8648 12.7938 22.856 12.7761 22.5023 12.4489L22.184 12.166L22.52 11.9627C22.7057 11.8477 22.9002 11.7593 22.9621 11.7593C23.0151 11.7593 23.413 12.0334 23.8462 12.3605C24.8983 13.1739 25.0575 13.28 25.2343 13.2093C25.4553 13.1209 25.5791 12.8468 25.473 12.6523C25.4199 12.5639 25.0221 12.2191 24.58 11.8919C24.1468 11.5648 23.8108 11.2642 23.8373 11.22C23.8639 11.1758 24.0407 11.0609 24.2175 10.9636L24.5623 10.7956L25.0751 11.1846C25.6056 11.5825 25.8797 11.6621 26.0654 11.4764C26.2864 11.2554 26.1803 10.9724 25.7736 10.6807C25.5614 10.5215 25.3846 10.3712 25.3757 10.3447C25.3757 10.3182 25.5879 10.1856 25.8355 10.0441C26.3218 9.77002 26.7019 9.44289 26.7019 9.29259C26.7019 9.15113 26.4367 8.93009 26.2599 8.93009C26.1715 8.93009 25.8443 9.07156 25.5526 9.24838C25.252 9.42521 24.9867 9.54899 24.9602 9.52246C24.9425 9.49594 24.8983 9.30143 24.8718 9.08924C24.8011 8.57644 24.7038 8.39961 24.4562 8.39961C24.2175 8.39961 23.9434 8.6737 23.9965 8.85052C24.0142 8.92125 24.0584 9.22186 24.0937 9.52246L24.1468 10.0618L23.7666 10.2917C23.3069 10.5657 23.3245 10.5923 23.1654 9.31027C23.0416 8.27584 22.8913 8.02828 22.5023 8.2051C22.2371 8.32888 22.2282 8.47919 22.4227 9.93801C22.4935 10.5127 22.5465 10.9901 22.5288 10.999C22.5111 11.0078 22.3432 11.1051 22.1575 11.22C21.795 11.4234 21.6624 11.3791 21.6624 11.0255C21.6624 10.7426 21.4856 10.5215 21.2734 10.5215C20.9285 10.5215 20.8401 10.7249 20.902 11.3438L20.9551 11.9008L20.6191 12.0953L20.2831 12.281L19.8145 12.0157L19.3548 11.7505L19.3813 11.3438C19.4078 10.9371 19.4167 10.9282 19.8499 10.7514C20.3362 10.5569 20.4246 10.4773 20.4246 10.2032C20.4246 9.85843 20.1947 9.76118 19.7526 9.92032L19.3636 10.0618V9.59319V9.1246L20.1417 8.80632C21.459 8.24931 21.7066 8.10785 21.7331 7.88682C21.7685 7.63926 21.6093 7.42707 21.3971 7.42707C21.3176 7.42707 20.8225 7.60389 20.3008 7.82493L19.3636 8.21395V7.7542V7.29445L20.009 6.985C20.5307 6.7286 20.6545 6.63135 20.6721 6.44568C20.6898 6.31306 20.6368 6.16276 20.5484 6.10087C20.4069 5.97709 20.2301 6.01245 19.5228 6.3219C19.3813 6.37495 19.3636 6.31306 19.3636 5.67648C19.3636 4.92497 19.2575 4.68625 18.9216 4.68625C18.8331 4.68625 18.6917 4.74814 18.621 4.82771ZM19.4167 12.7407L19.8941 13.006V13.5541V14.1023L19.4609 14.341C19.2222 14.4825 18.9746 14.5886 18.9127 14.5886C18.842 14.5886 18.6033 14.4648 18.3734 14.3233L17.949 14.0581V13.5364V13.0148L18.4176 12.7496C18.6652 12.5992 18.895 12.4755 18.9127 12.4755C18.9304 12.4666 19.1603 12.5904 19.4167 12.7407Z" fill="black"/>
<path d="M2.53861 11.2999C2.40599 11.4413 2.38831 11.7331 2.38831 13.5809C2.38831 15.8089 2.40599 15.915 2.78617 15.915C3.16634 15.915 3.18403 15.8089 3.18403 13.5102C3.18403 11.4413 3.17518 11.3175 3.01604 11.2291C2.77732 11.1054 2.70659 11.1142 2.53861 11.2999Z" fill="black"/>
</svg>
