<svg width="93" height="44" viewBox="0 0 93 44" fill="none" xmlns="http://www.w3.org/2000/svg">
<path d="M8.15365 15.808C0.929647 29.2813 -0.0450193 31.3453 0.126981 33.4093L0.298981 35.76H3.05098H5.74565V38.4547C5.74565 40.92 5.63098 41.1493 4.19765 41.3213C3.22298 41.436 2.53498 41.8947 2.42031 42.468C2.24831 43.4427 4.42698 43.5 42.3816 43.5C82.171 43.5 82.5723 43.5 82.5723 42.3533C82.5723 41.4933 82.171 41.2067 81.139 41.2067C79.8203 41.2067 79.7056 40.9773 79.7056 38.6267C79.7056 35.76 79.419 35.8747 85.0376 36.0467C86.815 36.104 88.3056 36.0467 88.3056 35.932C88.3056 35.8173 89.3376 32.2627 90.599 28.02C91.8603 23.7773 92.8923 19.592 92.8923 18.6747V17.1267H85.7256C81.311 17.1267 78.559 17.356 78.559 17.7C78.559 18.044 81.139 18.2733 85.1523 18.2733C88.7643 18.2733 91.7456 18.5027 91.7456 18.7893C91.7456 19.0187 91.459 20.0507 91.115 21.0827L90.4843 22.86L83.547 22.9747L76.5523 23.0893L83.3176 23.2613C90.599 23.4907 90.5416 23.4907 89.395 26.816L88.7643 28.5933L81.827 28.708L74.8323 28.8227L81.5976 28.9947C88.8216 29.224 88.879 29.2813 87.7323 32.2627C87.159 33.7533 87.159 33.7533 79.9923 33.7533C73.227 33.7533 72.8256 33.8107 72.8256 34.9C72.8256 35.8173 73.1696 36.0467 74.431 35.9893C78.387 35.76 78.559 35.8747 78.559 38.6267V41.2067H71.679H64.799V38.684V36.104L67.4936 35.932L70.1883 35.76L73.8003 25.7267C76.151 19.0187 77.355 14.776 77.355 12.9413L77.4123 10.2467H66.2323C56.6576 10.2467 55.0523 10.3613 55.0523 11.1067C55.0523 11.852 56.6003 11.9667 65.6016 11.9667H76.2083L75.1763 14.948L74.1443 17.9867L62.735 18.2733L51.3256 18.6173L62.6203 18.732L73.915 18.8467L72.711 22.2867L71.5643 25.7267L59.7536 25.8413L47.8856 26.0133L59.5243 26.128C69.1563 26.3 71.163 26.472 70.9336 27.1027C70.7616 27.5613 70.303 28.9373 69.9016 30.256L69.2136 32.6067H57.3456H45.4776L44.847 34.04C44.4456 34.9 44.3883 35.4733 44.7323 35.5307C45.0763 35.588 45.8216 35.7027 46.4523 35.76C47.083 35.8173 47.8856 35.932 48.1723 35.9893C48.5163 35.9893 48.7456 37.1933 48.7456 38.6267V41.2067H42.7256H36.7056V38.6267C36.7056 36.104 36.763 36.0467 38.5976 36.0467C39.5723 36.0467 40.719 35.8173 41.063 35.588C41.407 35.3587 43.1843 31.9187 44.9616 27.848C46.739 23.8347 49.6056 17.356 51.3256 13.4573C53.791 7.83867 54.479 5.66 54.479 3.424V0.5H35.387H16.3523L8.15365 15.808ZM52.1856 3.30933C52.1856 3.53867 51.383 5.488 50.4656 7.60933L48.7456 11.3933H30.6856C20.767 11.3933 12.6256 11.2787 12.6256 11.1067C12.6256 10.9347 13.543 8.98534 14.6323 6.80667L16.639 2.79333H34.4123C44.2163 2.79333 52.1856 3.02267 52.1856 3.30933ZM47.6563 13.8013C47.3696 14.5467 46.5096 16.6107 45.707 18.388L44.2163 21.7133H25.583C15.263 21.7133 6.89231 21.5987 6.89231 21.484C6.89231 21.312 7.92431 19.248 9.24298 16.8973L11.5936 12.54H29.883H48.1723L47.6563 13.8013ZM43.4136 23.548C43.2416 23.9493 42.439 25.8987 41.579 27.848L39.9736 31.46H20.8243C10.275 31.46 1.73231 31.2307 1.84698 31.0013C1.96165 30.7147 2.93631 28.8227 4.02565 26.7013L6.03231 22.86H24.895C39.687 22.86 43.643 23.032 43.4136 23.548ZM20.5376 38.6267L20.7096 41.2067H13.8296H6.89231V38.7413C6.89231 37.3653 7.00698 36.104 7.12165 35.9893C7.23631 35.8747 10.275 35.8173 13.887 35.8747L20.3656 35.9893L20.5376 38.6267ZM35.559 38.684V41.2067H28.679H21.799V38.7413C21.799 37.3653 21.9136 36.104 22.0283 35.9893C22.143 35.8747 25.239 35.8173 28.9083 35.932L35.559 36.104V38.684ZM63.6523 38.684V41.2067H56.7723H49.8923V38.7413C49.8923 37.3653 50.007 36.104 50.1216 35.9893C50.2363 35.8747 53.3323 35.8173 57.0016 35.932L63.6523 36.104V38.684Z" fill="black"/>
</svg>
