<svg width="55" height="50" viewBox="0 0 55 50" fill="none" xmlns="http://www.w3.org/2000/svg">
<path d="M14.1229 1.62922C13.376 2.17244 10.9994 5.70335 8.82655 9.43797C6.65368 13.1726 4.27711 16.6356 3.46228 17.043C2.71535 17.4504 1.69682 18.2653 1.22151 18.8764C-0.000733912 20.506 0.135071 28.5185 1.42521 30.3519L2.44375 31.8457H27.4997H52.5556L53.5741 30.3519C54.321 29.3333 54.6605 27.2963 54.6605 24.5123C54.6605 20.3023 54.5247 20.0307 52.0124 17.6541C50.5864 16.2961 47.8024 12.3578 45.8333 8.89475C43.8641 5.43174 41.6233 2.10453 40.8085 1.56132C38.7714 0.135368 16.2279 0.135368 14.1229 1.62922ZM39.5863 3.25887C40.1295 3.53048 42.1665 6.65398 44.1357 10.1849L47.8024 16.5677L37.6171 16.7714C32.0491 16.8393 22.9502 16.8393 17.3143 16.7714L7.129 16.5677L10.9315 10.117C12.9686 6.58608 15.0736 3.46258 15.481 3.19097C16.5674 2.44404 38.4998 2.51195 39.5863 3.25887ZM51.8087 19.7591C52.8951 20.8455 52.8951 27.9074 51.8087 28.9938C50.6543 30.1481 4.34501 30.1481 3.19067 28.9938C2.10423 27.9074 2.10423 20.8455 3.19067 19.7591C4.34501 18.6048 50.6543 18.6048 51.8087 19.7591Z" fill="black"/>
<path d="M5.56693 21.3888C5.29532 21.6604 5.09161 23.2222 5.09161 24.8518C5.09161 28.6543 6.72127 28.5185 6.99288 24.716C7.19658 22.2036 6.44966 20.5061 5.56693 21.3888Z" fill="black"/>
<path d="M10.729 22.0003C10.3895 22.5435 10.2537 24.1052 10.3895 25.3954L10.6611 27.8398L18.9452 27.6361L27.1613 27.4324L27.365 24.7842C27.5008 23.1546 27.2292 21.9324 26.686 21.5928C26.2107 21.2533 22.544 20.9817 18.5377 20.9817C12.7661 20.9817 11.1364 21.1854 10.729 22.0003ZM25.4638 24.7163C25.4638 25.5312 24.3094 25.7349 19.0131 25.7349C13.7167 25.7349 12.5623 25.5312 12.5623 24.7163C12.5623 23.9015 13.7167 23.6978 19.0131 23.6978C24.3094 23.6978 25.4638 23.9015 25.4638 24.7163Z" fill="black"/>
<path d="M42.1663 21.4558C41.4194 22.2028 41.7589 23.0176 42.7774 23.0176C43.3206 23.0176 43.796 22.746 43.796 22.4065C43.796 21.5237 42.7095 20.9126 42.1663 21.4558Z" fill="black"/>
<path d="M48.1431 21.8643C47.532 23.4939 48.1431 27.2965 49.0937 27.636C49.637 27.7718 49.9086 26.957 49.9086 24.7841C49.9086 21.7285 48.89 20.0309 48.1431 21.8643Z" fill="black"/>
<path d="M33.0678 22.4069C33.2036 22.8143 33.611 23.0859 33.9505 23.0859C34.29 23.0859 34.6974 22.8143 34.8332 22.4069C34.969 21.9995 34.5616 21.66 33.9505 21.66C33.3394 21.66 32.932 21.9995 33.0678 22.4069Z" fill="black"/>
<path d="M37.4129 22.6787C37.6845 23.2219 38.092 23.4935 38.4315 23.2898C39.3821 22.7466 39.1105 21.6601 38.0241 21.6601C37.4129 21.6601 37.2092 22.0675 37.4129 22.6787Z" fill="black"/>
<path d="M35.1044 24.511C35.5118 25.7332 37.0057 25.9369 37.0057 24.7826C37.0057 24.1715 36.5303 23.6962 35.9192 23.6962C35.3081 23.6962 34.9686 24.0357 35.1044 24.511Z" fill="black"/>
<path d="M39.7217 24.7826C39.7217 25.9369 41.2156 25.7332 41.623 24.511C41.7588 24.0357 41.4193 23.6962 40.8082 23.6962C40.1971 23.6962 39.7217 24.1715 39.7217 24.7826Z" fill="black"/>
<path d="M32.9322 26.753C32.9322 27.2962 33.4075 27.7715 33.9507 27.7715C34.4939 27.7715 34.9693 27.2962 34.9693 26.753C34.9693 26.2097 34.4939 25.7344 33.9507 25.7344C33.4075 25.7344 32.9322 26.2097 32.9322 26.753Z" fill="black"/>
<path d="M37.482 26.1418C36.9388 26.685 37.5499 27.7715 38.4326 27.7715C38.7721 27.7715 39.0437 27.2962 39.0437 26.753C39.0437 25.7344 38.2289 25.3949 37.482 26.1418Z" fill="black"/>
<path d="M41.7588 26.8197C41.7588 27.974 43.2526 27.7703 43.6601 26.5481C43.7959 26.0728 43.4563 25.7333 42.8452 25.7333C42.2341 25.7333 41.7588 26.2086 41.7588 26.8197Z" fill="black"/>
<path d="M1.42555 36.0554C0.678622 37.0739 0.339111 39.111 0.339111 41.895C0.339111 45.4938 0.61072 46.4444 2.03667 47.8024L3.66632 49.5H27.5H51.3337L52.9633 47.8024C54.3893 46.4444 54.6609 45.4938 54.6609 41.895C54.6609 39.111 54.3214 37.0739 53.5744 36.0554L52.5559 34.5615H27.5H2.44408L1.42555 36.0554ZM52.2164 37.685C52.9633 39.5863 52.6238 45.8333 51.809 46.6481C50.6547 47.8024 4.34534 47.8024 3.191 46.6481C2.37618 45.8333 2.03667 39.5863 2.78359 37.685C3.1231 36.7344 5.975 36.5986 27.5 36.5986C49.025 36.5986 51.8769 36.7344 52.2164 37.685Z" fill="black"/>
<path d="M5.09161 41.6226C5.09161 43.9992 5.36322 44.7461 6.17805 44.7461C6.99288 44.7461 7.12868 44.135 6.99288 41.8942C6.72127 37.888 5.09161 37.6164 5.09161 41.6226Z" fill="black"/>
<path d="M10.5244 41.6905V44.7461H19.0122H27.5V41.6905V38.6349H19.0122H10.5244V41.6905ZM25.4629 41.6905C25.4629 42.5053 24.3086 42.709 19.0122 42.709C13.7158 42.709 12.5615 42.5053 12.5615 41.6905C12.5615 40.8757 13.7158 40.672 19.0122 40.672C24.3086 40.672 25.4629 40.8757 25.4629 41.6905Z" fill="black"/>
<path d="M32.9322 39.6533C32.9322 40.1966 33.4075 40.6719 33.9507 40.6719C34.4939 40.6719 34.9693 40.1966 34.9693 39.6533C34.9693 39.1101 34.4939 38.6348 33.9507 38.6348C33.4075 38.6348 32.9322 39.1101 32.9322 39.6533Z" fill="black"/>
<path d="M37.3451 39.2474C36.8698 40.0623 38.1599 40.8771 39.0427 40.3339C39.7896 39.8586 39.3143 38.6363 38.3636 38.6363C38.0241 38.6363 37.6167 38.9079 37.3451 39.2474Z" fill="black"/>
<path d="M41.7588 39.6533C41.7588 40.1966 42.2341 40.6719 42.7773 40.6719C43.3205 40.6719 43.7959 40.1966 43.7959 39.6533C43.7959 39.1101 43.3205 38.6348 42.7773 38.6348C42.2341 38.6348 41.7588 39.1101 41.7588 39.6533Z" fill="black"/>
<path d="M48.3453 39.1102C48.0737 39.3139 47.87 40.7399 47.87 42.1658C47.87 43.9992 48.1416 44.7461 48.8885 44.7461C49.6355 44.7461 49.9071 43.9313 49.9071 41.6905C49.9071 38.8386 49.4317 38.0238 48.3453 39.1102Z" fill="black"/>
<path d="M35.445 41.1472C34.6302 41.8942 34.9018 42.709 35.9882 42.709C36.5314 42.709 37.0067 42.2337 37.0067 41.6905C37.0067 40.604 36.1919 40.3324 35.445 41.1472Z" fill="black"/>
<path d="M39.3822 41.2846C38.9068 42.0994 40.197 42.9142 41.0797 42.371C41.8266 41.8957 41.3513 40.6734 40.4007 40.6734C40.0612 40.6734 39.6538 40.945 39.3822 41.2846Z" fill="black"/>
<path d="M33.3397 43.1843C32.5928 43.9313 32.9323 44.7461 33.9508 44.7461C34.494 44.7461 34.9693 44.4745 34.9693 44.135C34.9693 43.2522 33.8829 42.6411 33.3397 43.1843Z" fill="black"/>
<path d="M37.482 43.1164C36.9388 43.6597 37.5499 44.7461 38.4326 44.7461C38.7721 44.7461 39.0437 44.2708 39.0437 43.7276C39.0437 42.709 38.2289 42.3695 37.482 43.1164Z" fill="black"/>
<path d="M42.1663 43.1843C41.4194 43.9313 41.7589 44.7461 42.7774 44.7461C43.3206 44.7461 43.796 44.4745 43.796 44.135C43.796 43.2522 42.7095 42.6411 42.1663 43.1843Z" fill="black"/>
</svg>
