<svg width="49" height="48" viewBox="0 0 49 48" fill="none" xmlns="http://www.w3.org/2000/svg">
<path d="M17.5971 0.515659C11.2479 2.57242 4.63054 8.65327 2.03724 14.7341C-0.198372 20.0996 0.159325 29.042 2.93148 34.3181C6.95558 42.2768 15.898 48 24.4828 48C29.5799 48 36.1973 45.4067 40.3109 41.7403C56.3178 27.7007 47.1071 1.14163 26.003 0.0685349C22.6943 -0.110313 18.9384 0.0685349 17.5971 0.515659ZM30.8319 2.84069C47.9119 7.93788 51.936 30.8305 37.5387 41.2932C19.2067 54.7963 -5.02729 35.0335 4.71997 14.4659C7.49212 8.65327 11.2479 5.25515 17.0605 3.19839C22.8731 1.23105 25.1087 1.14163 30.8319 2.84069Z" fill="black"/>
<path d="M10.1397 15.3271C9.69757 15.8041 8.77838 17.7123 8.31297 19.1085C7.69629 21.0167 7.52176 22.3432 7.59158 24.6935C7.67302 27.5093 8.04535 29.0102 9.26706 31.4885C10.0001 32.9895 10.3142 33.3502 10.6866 33.164C11.024 32.9779 11.0007 32.8266 10.4771 31.9074C9.61612 30.4181 8.94128 28.5797 8.59222 26.753C8.35951 25.5778 8.39441 22.4712 8.63876 21.2844C9.02272 19.4576 9.72084 17.6076 10.5237 16.2695C10.9891 15.5132 11.024 15.2922 10.6982 15.1176C10.4888 15.0129 10.4073 15.0362 10.1397 15.3271Z" fill="black"/>
<path d="M38.3414 15.1863C38.0971 15.419 38.1087 15.5702 38.3996 15.9891C39.1792 17.141 40.0518 19.3284 40.4358 21.1668C40.7616 22.7143 40.7383 25.7395 40.3893 27.3336C40.0286 28.9276 39.5864 30.1028 38.7952 31.6037C38.4462 32.2669 38.1553 32.8371 38.1553 32.8603C38.1553 32.9418 38.5276 33.2676 38.6207 33.2676C39.0047 33.2676 40.1449 31.1499 40.75 29.3116C41.9135 25.7977 41.8437 21.7835 40.5638 18.4325C39.9122 16.7221 38.9232 15.0001 38.6091 15.0001C38.5625 15.0001 38.4345 15.0815 38.3414 15.1863Z" fill="black"/>
<path d="M14.316 17.8854C13.6877 18.7696 12.9895 20.4917 12.6638 21.9345C12.4311 22.9467 12.466 25.6927 12.7103 26.6351C13.0245 27.8219 13.6877 29.4276 14.1647 30.1257C14.6185 30.8006 14.9326 30.9286 15.1654 30.5562C15.2701 30.3933 15.2352 30.2654 15.0257 29.9163C13.9553 28.1826 13.4899 26.6119 13.4084 24.5408C13.327 22.3882 13.5713 21.2829 14.5487 19.3281C15.1304 18.1646 15.2352 17.8737 15.1188 17.7341C14.8977 17.4665 14.572 17.5247 14.316 17.8854Z" fill="black"/>
<path d="M33.9553 17.7463C33.8273 17.9092 33.8389 18.0023 34.06 18.363C36.2242 21.842 36.294 26.2518 34.2461 29.5678C33.8273 30.266 33.7924 30.615 34.1647 30.7546C34.4672 30.8826 34.8628 30.3939 35.4795 29.149C36.1776 27.6829 36.515 26.3681 36.6081 24.7159C36.7361 22.2725 36.038 19.7011 34.7581 17.8743C34.5021 17.5253 34.188 17.4671 33.9553 17.7463Z" fill="black"/>
<path d="M18.5173 20.3647C18.3079 20.6323 17.9821 21.249 17.7726 21.7376C17.4236 22.5638 17.4003 22.7034 17.3887 24.0182C17.3887 25.1701 17.4352 25.554 17.6563 26.2289C18.017 27.3226 18.6918 28.3232 19.0642 28.3232C19.5645 28.3232 19.611 28.0091 19.2154 27.4273C17.8541 25.4493 17.8657 22.7848 19.2387 20.8417C19.5179 20.4461 19.5645 20.2949 19.4714 20.1436C19.2271 19.7713 18.8896 19.8411 18.5173 20.3647Z" fill="black"/>
<path d="M29.738 20.0735C29.4937 20.3062 29.4937 20.2829 29.8893 20.853C30.0638 21.1207 30.3664 21.7024 30.5525 22.1562C30.8318 22.8543 30.8783 23.1336 30.8783 24.076C30.8899 25.3559 30.6223 26.2867 29.9591 27.3223C29.645 27.8226 29.5868 27.9971 29.6799 28.1717C29.8893 28.5556 30.2733 28.3811 30.7387 27.683C32.1815 25.5654 32.0884 22.354 30.5176 20.2596C30.2035 19.8408 30.0057 19.7942 29.738 20.0735Z" fill="black"/>
<path d="M23.7259 20.8761C22.8649 21.1554 22.0969 21.8302 21.6548 22.6796C21.2825 23.3894 21.2592 23.4941 21.3057 24.3086C21.3872 25.6932 22.0387 26.6938 23.2721 27.357C24.0051 27.741 25.413 27.741 26.2042 27.3454C27.9495 26.496 28.6942 24.4831 27.8913 22.796C27.135 21.1787 25.3315 20.3525 23.7259 20.8761ZM26.1577 22.0164C26.879 22.4934 27.2514 23.145 27.3096 24.006C27.4143 25.5884 26.3322 26.752 24.7731 26.752C23.2488 26.752 22.19 25.6932 22.2016 24.1689C22.2016 23.1334 22.7834 22.2375 23.7259 21.807C24.3775 21.5161 25.5526 21.6208 26.1577 22.0164Z" fill="black"/>
</svg>
