<svg width="51" height="50" viewBox="0 0 51 50" fill="none" xmlns="http://www.w3.org/2000/svg">
<path d="M17.9791 7.80702C13.9387 11.8474 11.2738 15.114 11.9616 15.114C12.6493 15.114 16.0019 12.3632 19.4405 8.92456L25.7159 2.73509L30.7019 7.63509C33.4528 10.3 35.9458 12.5351 36.2896 12.5351C36.6335 12.5351 36.8914 11.1596 36.8914 9.52632C36.8914 6.8614 37.1493 6.51754 39.0405 6.51754C41.1896 6.51754 41.1896 6.68948 41.1037 12.1912C40.9317 17.693 41.0177 17.8649 44.5423 21.4754C47.2931 24.3123 47.8089 25.3439 47.0352 26.1175C46.4335 26.7193 45.7458 27.1491 45.4879 27.1491C45.23 27.1491 40.5879 22.8509 35.258 17.607L25.458 8.06491L22.0195 11.5895C20.0423 13.4807 18.8387 15.3719 19.1826 15.7158C19.5265 16.0597 20.9879 15.114 22.3633 13.5667C23.7387 12.1053 25.1142 10.8158 25.544 10.8158C25.8879 10.8158 29.9282 14.5982 34.5703 19.2404L42.9089 27.5789V36.3474C42.9089 41.1614 42.651 45.6316 42.3931 46.4053C41.9633 47.5228 40.158 47.7807 31.7335 47.7807C25.8019 47.7807 21.3317 48.1246 20.9879 48.6404C20.644 49.1561 24.2545 49.5 31.2177 49.5C44.5423 49.5 44.6282 49.414 44.6282 38.1526C44.6282 30.6737 44.7142 30.5018 47.4651 28.0088L50.2159 25.5158L46.1756 21.3895L42.0493 17.1772V10.9877V4.79825H38.6107C35.5159 4.79825 35.1721 4.97018 35.1721 6.94737C35.1721 8.15088 34.9142 9.09649 34.5703 9.09649C34.2265 9.09649 31.9914 7.20527 29.5844 4.79825L25.2002 0.5L17.9791 7.80702Z" fill="black"/>
<path d="M7.40446 18.5531C1.04305 20.1864 0.785156 20.5303 0.785156 27.4074C0.785156 30.846 1.21498 35.0583 1.73077 36.8636C2.76235 40.646 6.54481 45.2022 10.7571 47.8671C13.336 49.4145 14.1097 49.5864 16.2588 48.6408C19.8694 47.1794 25.4571 40.818 26.4887 36.9496C27.0045 35.0583 27.4343 30.7601 27.4343 27.3215V21.046L24.2536 19.6706C20.2992 18.0373 11.7887 17.4355 7.40446 18.5531ZM23.3939 21.046C25.629 21.9057 25.715 22.1636 25.715 28.439C25.715 36.8636 23.9957 40.9899 19.0097 44.8583C16.8606 46.4057 14.7115 47.7811 14.1957 47.7811C11.9606 47.7811 5.94305 42.3653 4.22375 38.8408C2.76235 35.746 2.50445 33.7689 2.67638 28.3531L2.93428 21.6478L6.37288 20.5303C10.2413 19.3267 19.7834 19.5846 23.3939 21.046Z" fill="black"/>
<path d="M16.6902 31.4473C12.9078 35.3157 12.306 35.4877 10.0709 33.4245C7.49198 31.1034 7.49198 32.6508 10.0709 35.1438L12.4779 37.4648L16.6902 33.1666C19.0113 30.8455 20.7306 28.6964 20.4727 28.4385C20.2148 28.2666 18.4955 29.5561 16.6902 31.4473Z" fill="black"/>
</svg>
