<svg width="43" height="50" viewBox="0 0 43 50" fill="none" xmlns="http://www.w3.org/2000/svg">
<path d="M1.1066 1.01333C0.313268 1.43333 0.266602 3.06667 0.266602 24.7667V48.0533L1.29327 48.7533C2.17993 49.4067 4.93327 49.5 21.7799 49.5C39.9799 49.5 41.2399 49.4533 41.9399 48.66C42.6399 47.8667 42.7333 45.58 42.7333 25.0467C42.7333 10.2533 42.5466 1.99333 42.2666 1.38667C41.7999 0.546665 41.0533 0.5 21.8266 0.5C9.17993 0.5 1.61993 0.686665 1.1066 1.01333ZM36.1066 24.9067L36.1999 47.6333L19.0733 47.54L1.89993 47.4L1.75993 25.2333C1.71327 13.0533 1.75993 2.78667 1.89993 2.46C2.03993 1.99333 5.7266 1.9 19.0266 1.99333L35.9666 2.13333L36.1066 24.9067ZM40.9599 24.3C41.0533 36.62 41.0533 46.9333 40.9599 47.1667C40.8666 47.4467 40.0733 47.6333 39.1866 47.6333H37.5999V24.7667V1.9H39.2333H40.8666L40.9599 24.3Z" fill="black"/>
<path d="M4.28085 5.9132C3.67418 6.4732 3.53418 7.7332 3.53418 11.9332C3.53418 16.7399 3.62751 17.2999 4.42085 17.7665C5.86751 18.5132 33.1675 18.4199 33.7742 17.6265C34.0542 17.2999 34.3342 14.6399 34.3808 11.7465C34.4742 7.0332 34.3808 6.37987 33.6342 5.81987C32.9342 5.30654 29.8075 5.16654 18.8875 5.16654C6.89418 5.16654 4.88751 5.25987 4.28085 5.9132ZM13.2408 11.7932L13.1008 16.5999H9.13418H5.16751L5.02751 12.4465C4.93418 10.1599 4.98085 8.0132 5.12085 7.63987C5.30751 7.21987 6.47418 7.0332 9.36751 7.0332H13.3808L13.2408 11.7932ZM23.0408 11.7932L22.9008 16.5999H18.9342H14.9675L14.8275 11.7932L14.6875 7.0332H18.9342H23.1808L23.0408 11.7932ZM32.8408 11.7932L32.7008 16.5999H28.7342H24.7675L24.6275 11.7932L24.4875 7.0332H28.7342H32.9808L32.8408 11.7932Z" fill="black"/>
<path d="M7.59371 9.2729C6.61371 10.3462 6.56704 13.2862 7.54704 14.2196C8.38704 15.1062 10.1137 15.1996 10.907 14.4062C11.2337 14.0796 11.467 12.8662 11.467 11.6062C11.467 9.87956 11.2804 9.2729 10.5804 8.89956C9.27371 8.19956 8.43371 8.33956 7.59371 9.2729ZM9.83371 11.8396C9.83371 12.5396 9.64704 13.1462 9.41371 13.1929C8.76038 13.4262 8.01371 11.8862 8.34038 11.0462C8.80704 9.8329 9.83371 10.3929 9.83371 11.8396Z" fill="black"/>
<path d="M17.3935 9.2729C16.4135 10.3462 16.3668 13.2862 17.3468 14.2196C18.1868 15.1062 19.9135 15.1996 20.7068 14.4062C21.5468 13.5662 21.4068 10.0196 20.5202 9.17956C19.5402 8.19956 18.3268 8.24623 17.3935 9.2729ZM19.7735 11.7929C19.5868 13.6129 18.6068 14.0329 18.1868 12.4462C17.8602 11.0929 18.2335 10.2996 19.2135 10.2996C19.7268 10.2996 19.8668 10.7196 19.7735 11.7929Z" fill="black"/>
<path d="M27.1933 9.2729C26.2133 10.3462 26.1667 13.2862 27.1467 14.2196C27.9867 15.1062 29.7133 15.1996 30.5067 14.4062C30.8333 14.0796 31.0667 12.8662 31.0667 11.6062C31.0667 9.87956 30.88 9.2729 30.18 8.89956C28.8733 8.19956 28.0333 8.33956 27.1933 9.2729ZM29.5733 11.7929C29.4333 13.4729 28.8733 13.7529 28.1267 12.5862C27.52 11.6062 28.0333 10.2996 28.9667 10.2996C29.5267 10.2996 29.6667 10.6729 29.5733 11.7929Z" fill="black"/>
<path d="M23.1338 21.5003C23.1338 22.2936 23.4605 22.4336 25.4671 22.4336C27.4738 22.4336 27.8005 22.2936 27.8005 21.5003C27.8005 20.7069 27.4738 20.5669 25.4671 20.5669C23.4605 20.5669 23.1338 20.7069 23.1338 21.5003Z" fill="black"/>
<path d="M29.667 21.5003C29.667 22.2936 29.9937 22.4336 31.907 22.4336C34.3803 22.4336 34.847 22.2003 34.4737 21.2203C34.3337 20.8003 33.4937 20.5669 31.9537 20.5669C29.9937 20.5669 29.667 20.7069 29.667 21.5003Z" fill="black"/>
<path d="M16.1804 25.3262C14.1271 25.8862 12.4004 27.0529 12.4004 27.8462C12.4004 28.7329 13.0071 28.6862 15.0604 27.5662C17.5804 26.2129 21.1271 26.3062 23.2737 27.7529C24.6271 28.6862 25.0471 28.7795 25.4671 28.2662C26.1204 27.4729 24.2071 26.0262 21.5004 25.2795C19.3071 24.6729 18.3271 24.6729 16.1804 25.3262Z" fill="black"/>
<path d="M16.6001 28.6402C14.8268 29.2469 14.2668 30.6936 15.9001 30.4602C16.4135 30.3669 17.5335 30.1802 18.3735 30.0402C19.2135 29.9002 20.5201 30.0402 21.3135 30.3669C23.2268 31.2069 24.2068 30.3202 22.5268 29.2002C20.9401 28.1736 18.5601 27.9402 16.6001 28.6402Z" fill="black"/>
<path d="M17.6731 31.6265C17.3464 31.7198 17.0664 32.1398 17.0664 32.5131C17.0664 33.2598 20.5664 33.4465 21.0331 32.7465C21.5464 31.8598 19.0731 31.0198 17.6731 31.6265Z" fill="black"/>
<path d="M8.8541 37.6C8.1541 38.6733 8.1541 38.86 8.8541 39.9333C10.1608 41.8933 13.3341 41.0533 13.3341 38.7667C13.3341 36.48 10.1608 35.64 8.8541 37.6ZM11.4674 38.4867C11.4674 38.86 11.2808 39.28 11.0474 39.4667C10.4874 39.7933 9.92744 38.9067 10.3008 38.3C10.7208 37.6 11.4674 37.74 11.4674 38.4867Z" fill="black"/>
<path d="M17.1602 36.9929C15.8068 38.3463 16.9268 41.0996 18.8402 41.0996C20.4735 41.0996 21.2668 40.3529 21.2668 38.7663C21.2668 37.2263 20.4735 36.4329 18.9335 36.4329C18.2802 36.4329 17.4868 36.6663 17.1602 36.9929ZM19.6802 38.3463C20.1468 39.1396 19.0735 40.0263 18.4202 39.3729C17.8602 38.8129 18.2335 37.8329 18.9335 37.8329C19.1668 37.8329 19.4935 38.0663 19.6802 38.3463Z" fill="black"/>
<path d="M25.1881 37.6C24.4881 38.6733 24.4881 38.86 25.1881 39.9333C26.4948 41.8933 29.6681 41.0533 29.6681 38.7667C29.6681 36.48 26.4948 35.64 25.1881 37.6ZM27.8014 38.7667C27.8014 39.7467 27.1014 40.0267 26.6348 39.2333C26.3081 38.6733 26.7281 37.8333 27.3814 37.8333C27.6148 37.8333 27.8014 38.2533 27.8014 38.7667Z" fill="black"/>
<path d="M8.2002 43.6672C8.2002 44.2272 8.80686 44.3672 10.7669 44.3672C12.7269 44.3672 13.3335 44.2272 13.3335 43.6672C13.3335 43.1072 12.7269 42.9672 10.7669 42.9672C8.80686 42.9672 8.2002 43.1072 8.2002 43.6672Z" fill="black"/>
<path d="M16.6006 43.6672C16.6006 44.1805 17.1606 44.3672 18.9339 44.3672C20.7073 44.3672 21.2673 44.1805 21.2673 43.6672C21.2673 43.1539 20.7073 42.9672 18.9339 42.9672C17.1606 42.9672 16.6006 43.1539 16.6006 43.6672Z" fill="black"/>
<path d="M24.5342 43.6672C24.5342 44.2272 25.1408 44.3672 27.1008 44.3672C29.0608 44.3672 29.6675 44.2272 29.6675 43.6672C29.6675 43.1072 29.0608 42.9672 27.1008 42.9672C25.1408 42.9672 24.5342 43.1072 24.5342 43.6672Z" fill="black"/>
</svg>
