<svg width="51" height="50" viewBox="0 0 51 50" fill="none" xmlns="http://www.w3.org/2000/svg">
<path d="M3.9393 3.81792C0.773744 9.20611 0.234925 11.4287 1.24521 13.9208C2.18814 16.2107 5.15164 17.7599 7.57633 17.2884C9.93366 16.8843 12.1563 14.1228 12.1563 11.7655C12.1563 9.54287 7.98044 0.921772 6.7681 0.517658C6.29663 0.315601 5.01694 1.8647 3.9393 3.81792ZM8.78867 6.71407C10.8766 11.0246 11.0786 12.8431 9.46219 14.5943C7.03751 17.221 2.5249 15.2678 2.5249 11.5634C2.5249 9.67757 5.62311 3.00969 6.56604 3.00969C6.7681 3.00969 7.77839 4.6935 8.78867 6.71407Z" fill="black"/>
<path d="M21.3833 1.05652C18.4198 1.9321 14.5134 4.8956 15.0522 5.77118C15.3216 6.24265 15.8604 6.10794 16.534 5.50177C20.7098 1.86475 27.1756 1.25857 31.9576 4.08737C34.8538 5.77118 36.1335 5.90588 35.1906 4.42413C34.3823 3.07709 29.533 0.989165 26.6368 0.652403C25.0204 0.517699 22.663 0.652403 21.3833 1.05652Z" fill="black"/>
<path d="M41.3193 4.49043C38.2884 10.0133 37.8843 11.8318 39.164 14.3239C40.9152 17.6915 45.2257 18.2977 48.3239 15.6709C50.816 13.5156 50.6813 11.4951 47.8525 5.90483C46.4381 3.07603 44.9563 0.651344 44.4849 0.51664C44.0807 0.381935 42.6663 2.1331 41.3193 4.49043ZM46.5054 6.57835C48.5933 10.7542 48.7954 12.8421 47.1789 14.5933C44.889 17.1527 40.2417 15.3342 40.2417 11.7645C40.2417 9.94597 43.3399 3.00868 44.2154 3.00868C44.4849 3.00868 45.4951 4.62513 46.5054 6.57835Z" fill="black"/>
<path d="M20.7109 5.56938C19.4312 6.17556 18.2189 7.32054 18.1515 7.99407C17.8821 9.20641 18.0168 9.13906 19.97 7.79201C23.2029 5.50203 25.897 5.36733 29.6687 7.25319C32.2281 8.53289 32.8343 8.66759 32.6996 7.92672C32.4302 6.37761 28.187 4.35704 25.4256 4.35704C24.1459 4.35704 21.9906 4.89586 20.7109 5.56938Z" fill="black"/>
<path d="M21.5196 9.47478C20.7114 10.0136 20.1726 10.8218 20.3746 11.1586C20.6441 11.4954 21.3849 11.3606 22.2605 10.7545C24.1464 9.47478 26.7731 9.47478 28.659 10.8218C30.006 11.6974 30.1407 11.6974 30.1407 10.8218C30.1407 8.4645 24.2811 7.52157 21.5196 9.47478Z" fill="black"/>
<path d="M23.4715 13.0452C22.5959 13.9208 22.3265 14.8637 22.5285 15.8067C23 17.5578 24.2123 18.0966 26.435 17.5578C27.782 17.2211 28.1188 16.6822 28.1188 15.1331C28.1188 13.8534 27.6473 12.9105 26.8391 12.439C25.0879 11.5635 24.9532 11.5635 23.4715 13.0452ZM26.637 14.9311C26.5023 15.6046 25.9635 16.1434 25.4247 16.1434C24.8859 16.1434 24.347 15.6046 24.2123 14.9311C24.0776 14.1228 24.4144 13.7861 25.4247 13.7861C26.435 13.7861 26.7717 14.1228 26.637 14.9311Z" fill="black"/>
<path d="M1.24619 20.7905C0.707373 21.3966 0.505316 25.8419 0.640021 35.4059L0.842078 49.1458L3.73823 49.3479C5.96085 49.5499 6.56702 49.3479 6.56702 48.4723C6.56702 47.5293 7.37525 47.3946 12.8308 47.664C16.1984 47.8661 20.5763 48.4049 22.5295 48.8764C25.6277 49.6173 26.5033 49.6173 29.6689 48.607C34.3835 47.1252 43.4761 47.0579 44.0149 48.4723C44.5537 49.8867 49.4031 49.8193 49.9419 48.4049C50.7501 46.317 50.4134 21.5313 49.5378 20.6558C48.2581 19.3761 45.0925 19.7128 44.1496 21.1946C43.4087 22.3396 42.5332 22.5416 38.492 22.5416C35.8653 22.5416 32.363 22.0702 30.8139 21.5313C29.2648 20.9925 26.8401 20.5211 25.4257 20.5211C24.0113 20.5211 21.5866 20.9925 20.0375 21.5313C18.4884 22.0702 14.9187 22.5416 12.2246 22.5416C7.98142 22.5416 7.1732 22.3396 6.56702 21.1946C5.69144 19.6455 2.45853 19.3761 1.24619 20.7905ZM5.21998 35.0018C5.21998 47.664 5.15263 48.1355 3.87293 48.1355C2.59324 48.1355 2.52589 47.664 2.45853 36.3489C2.39118 29.883 2.32383 24.1581 2.25648 23.6866C2.05442 22.4069 2.52589 21.8681 3.94028 21.8681C5.15263 21.8681 5.21998 22.4743 5.21998 35.0018ZM28.9953 22.609C39.7044 25.5725 41.3208 41.1309 31.3527 46.1823C27.3115 48.2029 21.1825 47.7988 17.7475 45.2394C9.59788 38.9756 11.4837 26.3134 21.1151 22.8784C24.348 21.7334 25.6951 21.6661 28.9953 22.609ZM48.3255 35.0018C48.3255 47.664 48.2581 48.1355 46.9784 48.1355C45.6987 48.1355 45.6314 47.664 45.6314 35.0018C45.6314 22.3396 45.6987 21.8681 46.9784 21.8681C48.2581 21.8681 48.3255 22.3396 48.3255 35.0018ZM13.7064 26.3807C10.2041 31.7015 10.2041 38.6388 13.7064 43.2188C14.582 44.3638 15.3228 45.5088 15.3228 45.7782C15.3228 45.9802 13.437 46.1149 11.147 45.9802L6.90379 45.7782L6.70173 36.3489C6.43232 23.5519 6.29762 23.8887 11.2817 23.8887H15.3228L13.7064 26.3807ZM43.6108 35.0018V46.1149H39.5697C35.7979 46.1149 34.5182 45.4414 36.2694 44.3638C37.7511 43.4882 39.5697 38.3021 39.5697 34.7998C39.5697 31.3648 37.8185 26.5828 36.202 25.5725C34.5182 24.5622 35.8653 23.8887 39.5697 23.8887H43.6108V35.0018Z" fill="black"/>
<path d="M24.752 24.9002C24.752 25.8431 25.0887 26.584 25.4255 26.584C25.8296 26.584 26.099 25.8431 26.099 24.9002C26.099 23.9572 25.8296 23.2164 25.4255 23.2164C25.0887 23.2164 24.752 23.9572 24.752 24.9002Z" fill="black"/>
<path d="M19.3633 25.5047C19.3633 25.9762 19.8347 26.7844 20.3736 27.2559C21.4512 28.1315 21.7206 27.4579 20.9797 25.6394C20.4409 24.2924 19.3633 24.225 19.3633 25.5047Z" fill="black"/>
<path d="M29.8706 25.6411C29.6012 26.2473 29.6012 26.9208 29.7359 27.0555C30.2748 27.5943 31.4871 26.5167 31.4871 25.5064C31.4871 24.2267 30.4095 24.294 29.8706 25.6411Z" fill="black"/>
<path d="M24.7504 29.884C24.7504 30.9616 24.2789 32.1739 23.7401 32.6454C21.4501 34.5313 24.1442 38.5051 26.6363 36.956C28.1854 35.9457 28.3874 34.3966 27.1077 33.1169C26.5689 32.5107 26.0974 31.1637 26.0974 30.0187C26.0974 28.8737 25.828 27.9307 25.4239 27.9307C25.0872 27.9307 24.7504 28.8063 24.7504 29.884ZM26.1648 35.0027C26.0974 36.013 24.5483 35.811 24.2116 34.8007C24.0095 34.1945 24.3463 33.9251 25.0198 34.1272C25.6933 34.1945 26.1648 34.5986 26.1648 35.0027Z" fill="black"/>
<path d="M14.6484 29.1417C14.6484 30.0846 17.2752 31.2969 17.7466 30.5561C18.0161 30.1519 17.7466 29.5458 17.2752 29.209C16.1302 28.4681 14.6484 28.4008 14.6484 29.1417Z" fill="black"/>
<path d="M33.5073 29.2781C32.9685 29.6149 32.7664 30.0863 32.9685 30.3557C33.642 30.9619 35.5278 30.1537 35.5278 29.2781C35.5278 28.4699 34.8543 28.4025 33.5073 29.2781Z" fill="black"/>
<path d="M13.7052 34.5977C13.2337 35.3385 15.1869 36.1468 16.0625 35.608C16.3993 35.4059 16.6687 35.0018 16.6687 34.5977C16.6687 33.7894 14.1766 33.7894 13.7052 34.5977Z" fill="black"/>
<path d="M34.3152 34.7327C34.4499 35.1368 34.7866 35.4062 35.056 35.4062C35.3254 35.3389 35.999 35.3389 36.6051 35.3389C37.144 35.3389 37.4134 35.0021 37.2113 34.6654C36.6725 33.7898 33.9784 33.7898 34.3152 34.7327Z" fill="black"/>
<path d="M23.8074 41.0631C22.5277 43.0163 22.4604 44.2286 23.538 45.3063C24.683 46.4513 26.4341 46.3166 27.4444 45.1042C28.1853 44.2286 28.1179 43.6225 27.2424 41.7366C25.8953 38.9752 25.2891 38.8405 23.8074 41.0631ZM26.0974 43.4204C26.0974 44.7001 25.3565 45.1716 24.5483 44.3633C24.0095 43.8245 24.7503 42.0734 25.4912 42.0734C25.828 42.0734 26.0974 42.6795 26.0974 43.4204Z" fill="black"/>
</svg>
