<svg width="53" height="50" viewBox="0 0 53 50" fill="none" xmlns="http://www.w3.org/2000/svg">
<path d="M5.73148 1.79256C5.04236 2.48167 3.40571 6.01339 2.19976 9.63124C-0.470563 17.5561 -0.0398661 18.6759 6.16217 21.0016C10.2969 22.5522 10.7276 22.9829 10.8998 25.567C11.0721 27.2037 12.1058 29.3572 13.3979 30.7354C14.9484 32.3721 15.5514 33.7503 15.293 35.4731C15.0345 37.885 14.8623 37.9711 9.69389 38.2295C2.80273 38.5741 2.54432 40.1246 9.26319 40.1246C14.7761 40.1246 17.188 38.5741 17.188 35.1285C17.188 33.6641 17.7049 33.2334 19.4276 33.2334C21.5811 33.2334 21.6673 33.4057 21.2366 36.4206C20.3752 41.3306 17.4464 43.7425 11.5028 44.1732C4.52552 44.69 4.52552 45.293 11.5028 45.293C16.7573 45.293 17.5326 45.0346 19.8583 42.7949C21.8395 40.8137 22.3564 39.5216 22.3564 36.5929C22.3564 33.7503 22.8732 32.5443 24.6821 30.8215L27.0941 28.6681L32.004 30.477C36.4832 32.0275 37.1724 32.1136 38.2922 30.9938C39.1536 30.0463 40.4457 29.874 42.0823 30.2186C44.4942 30.7354 44.6665 30.5631 46.3893 25.9116C47.423 23.2413 48.1982 20.8294 48.1982 20.3987C48.1982 20.0541 49.2319 19.2789 50.4378 18.6759C51.6438 18.159 52.5052 17.2977 52.3329 16.7808C51.9883 15.8333 10.8137 0.500469 8.4018 0.500469C7.62654 0.500469 6.42059 1.10344 5.73148 1.79256ZM29.4198 9.28669C40.1872 13.2491 49.0596 16.6947 49.0596 16.9531C49.0596 17.9006 42.2546 21.1739 40.4457 21.1739C38.5506 21.1739 5.98989 9.45897 4.95622 8.42529C3.92255 7.39162 6.67901 2.22326 8.31566 2.22326C9.17705 2.22326 18.6524 5.41042 29.4198 9.28669ZM32.0901 20.3125C40.1872 23.3274 39.9288 22.9829 37.7753 28.6681L37.0862 30.5631L28.8168 27.6344C24.3376 25.9977 16.8435 23.2413 12.2781 21.6046C1.8552 17.8145 1.16609 17.2115 2.54432 13.0768L3.49185 10.0619L14.0009 13.8521C19.7722 15.9194 27.8693 18.8482 32.0901 20.3125ZM44.7526 25.9116C43.719 29.0988 43.2883 29.3572 41.3932 28.1512C39.6704 27.0314 40.8764 23.3274 43.2021 22.2937C45.7002 21.1739 46.0447 22.0353 44.7526 25.9116ZM18.394 25.4809C25.0267 27.7205 25.2851 27.9789 23.5623 29.874C20.3752 33.4057 13.5702 31.08 12.3642 26.0839C11.7612 23.3274 12.0197 23.2413 18.394 25.4809Z" fill="black"/>
<path d="M31.2293 37.1954C30.1094 38.4013 29.248 39.5211 29.248 39.6934C29.248 40.7271 31.1431 39.9518 32.6936 38.4013C34.4164 36.6785 35.0194 34.8696 33.8134 35.0419C33.3827 35.128 32.2629 36.0755 31.2293 37.1954Z" fill="black"/>
<path d="M37.0006 36.6779C37.0006 39.0037 33.2966 42.7077 30.9708 42.7077C30.0233 42.7077 29.248 43.0522 29.248 43.569C29.248 44.6889 31.2293 44.6889 33.8134 43.4829C37.0867 42.0185 40.4462 34.9551 37.862 34.9551C37.4313 34.9551 37.0006 35.7304 37.0006 36.6779Z" fill="black"/>
<path d="M41.0491 39.349C39.4125 43.8282 36.3115 46.5847 31.66 47.6184C30.2817 47.8768 29.248 48.3936 29.248 48.8243C29.248 50.7194 36.2253 48.3075 38.9818 45.551C42.169 42.1916 45.0977 34.9559 43.2026 34.9559C42.8581 34.9559 41.9105 36.9371 41.0491 39.349Z" fill="black"/>
</svg>
