<svg width="49" height="50" viewBox="0 0 49 50" fill="none" xmlns="http://www.w3.org/2000/svg">
<path d="M6.14142 1.91263C4.81709 3.14866 4.19908 6.94506 4.55223 11.536C4.99367 19.482 4.90538 21.1595 3.49277 22.1306C2.69817 22.7487 2.08016 23.7198 2.08016 24.2496C2.08016 24.8676 1.727 25.1324 1.28556 24.7793C0.755833 24.5144 0.579257 25.1324 0.755833 26.2802C1.0207 27.3396 1.727 28.5757 2.43331 28.9288C3.05133 29.282 3.93421 30.6063 4.19908 31.9306C4.90538 34.5793 8.79006 38.8171 9.93781 38.1108C10.9973 37.4045 9.58466 44.3793 8.34862 45.8802C7.73061 46.5865 5.69998 47.2928 3.75763 47.4694C1.81529 47.6459 0.314392 48.0874 0.314392 48.6171C0.314392 49.1468 6.22971 49.5 16.2063 49.5C26.2711 49.5 32.0982 49.1468 32.0982 48.6171C32.0982 48.0874 30.9504 47.6459 29.6261 47.6459C28.3018 47.5577 26.7126 47.4694 26.0946 47.3811C24.7702 47.2928 21.5919 40.2297 22.1216 38.7288C22.3865 38.1108 22.9162 37.7577 23.2693 38.0225C24.1522 38.5523 28.5666 33.4315 28.5666 31.9306C28.5666 31.3126 29.3612 30.0766 30.3324 29.1937C32.5396 27.1631 32.2747 24.2496 29.891 23.0135C28.3018 22.2189 28.1252 21.2478 28.1252 12.7721C28.1252 0.411728 28.2135 0.500015 16.5594 0.500015C9.49637 0.500015 7.20088 0.764877 6.14142 1.91263ZM25.918 4.47298C25.918 6.94506 26.2711 6.94506 14.882 6.68019C6.49457 6.50362 5.17025 6.15046 6.14142 3.76668C6.58286 2.53064 8.17205 2.26578 16.2946 2.26578H25.918V4.47298ZM26.0946 14.7144C26.2711 18.1577 26.0063 21.1595 25.5648 21.4243C24.9468 21.8658 7.20088 21.8658 6.84772 21.4243C6.40628 20.8063 5.87655 10.6532 6.22971 9.682C6.58286 8.71082 8.96664 8.44596 16.2063 8.44596H25.7414L26.0946 14.7144ZM29.4495 24.6027C29.4495 25.0442 29.8027 25.1324 30.2441 24.8676C30.6856 24.5144 30.8621 25.1324 30.5973 26.1036C30.1558 27.7811 29.3612 27.8694 18.7666 27.9577C12.4982 28.046 6.49457 28.1342 5.43511 28.1342C3.93421 28.2225 3.31619 27.6928 3.13962 26.1036L2.87475 23.8964H16.2063C23.4459 23.8964 29.4495 24.2496 29.4495 24.6027ZM23.3576 29.9883C24.7702 29.1937 27.9486 30.6063 26.9774 31.5775C26.4477 32.1072 26.2711 33.0784 26.536 33.873C26.8892 34.7559 26.7126 35.0207 26.0946 34.5793C25.4765 34.2261 25.0351 34.3144 25.0351 34.6676C25.0351 35.109 23.8874 36.0802 22.4747 36.9631C20.0027 38.3757 19.9144 38.6405 20.7973 41.8189C21.2387 43.5847 22.1216 45.6153 22.563 46.145C23.0928 46.7631 23.3576 47.2928 23.181 47.2928C20.5324 47.6459 10.8207 47.4694 10.3793 47.1162C10.1144 46.8514 10.5558 45.2622 11.3504 43.7613C13.0279 40.5829 12.4982 36.6982 10.4675 36.6982C9.14322 36.6982 6.84772 33.6964 6.31799 31.4009C6.14142 30.3414 7.55403 29.9883 13.9991 29.6351C18.4135 29.3703 22.1216 29.4586 22.2099 29.9C22.3865 30.2532 22.9162 30.3414 23.3576 29.9883Z" fill="black"/>
<path d="M44.459 9.32961C45.1653 9.77106 45.5184 10.2125 45.1653 10.2125C44.8121 10.2125 45.1653 11.6251 45.8716 13.3026C46.5779 15.0684 46.9311 16.9224 46.5779 17.4521C46.2248 17.9819 46.313 18.1584 46.9311 17.8053C47.3725 17.5404 46.9311 19.1296 45.7833 21.4251C43.5761 25.9278 43.5761 26.9873 45.7833 25.2215C46.5779 24.6035 46.9311 23.8972 46.7545 23.6323C46.4896 23.4557 46.8428 22.6611 47.5491 21.9548C50.286 19.2179 47.6374 8.44673 44.2824 8.44673C43.4878 8.44673 43.5761 8.7116 44.459 9.32961Z" fill="black"/>
<path d="M39.1621 12.3309C39.1621 12.5075 39.7801 14.0967 40.4864 15.8624C41.1927 17.6282 41.4576 19.0408 41.0162 19.0408C40.5747 19.0408 40.045 19.6588 39.6918 20.3651C39.427 21.1597 39.6918 21.6895 40.4864 21.6895C43.2234 21.6895 43.2234 13.5669 40.4864 12.5075C39.7801 12.2426 39.1621 12.1543 39.1621 12.3309Z" fill="black"/>
<path d="M35.6288 17.2753C35.6288 17.7168 36.0703 18.1582 36.5117 18.1582C37.0415 18.1582 37.3946 17.7168 37.3946 17.2753C37.3946 16.7456 37.0415 16.3924 36.5117 16.3924C36.0703 16.3924 35.6288 16.7456 35.6288 17.2753Z" fill="black"/>
</svg>
