<svg width="41" height="49" viewBox="0 0 41 49" fill="none" xmlns="http://www.w3.org/2000/svg">
<path d="M17.0324 0.373318C16.8816 0.599476 16.8439 1.73027 16.9193 2.86107L17.0324 4.9342L12.1322 6.96964C8.40059 8.55276 6.44054 9.15585 3.91509 9.4574C1.31425 9.79664 0.522692 10.0605 0.221146 10.6259C-0.30656 11.6059 0.0326792 11.9452 4.48049 15.2999L8.09904 18.0515L8.85291 21.3685C9.26754 23.1778 9.75755 25.2886 9.87063 26.0048C10.0214 26.7209 10.3229 27.5502 10.5114 27.7763C11.0391 28.4171 10.813 29.7741 8.43828 39.7628C7.30748 44.5122 6.44054 48.5453 6.55362 48.6961C6.77978 49.1484 30.7904 49.073 30.7904 48.6207C30.7904 48.4323 29.8481 44.2483 28.7173 39.3482C26.5688 30.151 26.3803 28.7941 26.9834 26.9094C27.1718 26.3063 27.8503 23.5924 28.4911 20.9162C30.5265 12.3221 30.5642 12.209 32.1851 11.9452C32.9766 11.7944 34.032 11.6059 34.5597 11.4928C35.3136 11.3044 35.6905 11.5305 36.5198 12.5482L37.4998 13.8298L35.9544 18.9561C34.7482 22.9516 34.2205 24.1578 33.5797 24.4593C33.0897 24.6855 32.6374 24.6855 32.4112 24.4593C31.8835 23.9316 29.6596 24.8363 29.6596 25.5524C29.6596 26.2309 31.0166 28.6433 31.3935 28.6433C31.6197 28.6433 36.8967 26.3817 37.1229 26.1932C37.349 25.9671 40.9299 14.1314 40.9676 13.566C40.9676 13.0006 37.0475 7.83659 36.4821 7.61043C36.2936 7.57273 35.2759 7.83659 34.2205 8.28891C33.1651 8.70353 31.8835 9.04277 31.4312 9.04277C30.9789 9.00508 28.4157 8.10044 25.7018 7.00734L20.8017 5.04728V2.97415C20.8017 1.84335 20.6509 0.712555 20.5001 0.448704C20.1232 -0.116695 17.3716 -0.154388 17.0324 0.373318ZM19.8593 2.1449C19.8593 4.89651 18.2762 5.42422 17.8616 2.78569C17.5601 1.08949 17.7485 0.750248 18.9547 0.750248C19.7463 0.750248 19.8593 0.901024 19.8593 2.1449ZM22.9879 6.85656C25.0987 7.72351 26.9834 8.55276 27.2095 8.74123C27.398 8.892 23.6664 9.04277 18.917 9.04277C14.2054 9.04277 10.436 8.92969 10.5868 8.74123C10.926 8.40199 18.0124 5.38652 18.6532 5.31114C18.917 5.27345 20.8771 5.98962 22.9879 6.85656ZM38.2914 11.0782L40.2137 13.4906L38.4044 19.4838L36.5575 25.4394L34.032 26.5702C31.8835 27.5125 31.4312 27.5879 31.1673 27.1356C30.3381 25.8163 30.715 25.2886 32.4866 25.364C33.542 25.4017 34.3713 25.2509 34.7105 24.874C35.2005 24.3462 38.3291 14.8098 38.3291 13.7921C38.3291 13.566 37.6883 12.6236 36.8967 11.719L35.4644 10.0605L33.6174 10.6636C31.3558 11.4551 31.0919 11.4551 31.2427 10.7013C31.3558 10.1359 34.3336 8.81661 35.7659 8.70353C36.1052 8.70353 37.1983 9.72125 38.2914 11.0782ZM11.3407 11.0028C11.5291 12.209 12.3207 24.3086 12.3207 25.9671C12.3207 26.4948 12.0945 26.7586 11.6422 26.7586C11.0768 26.7586 10.7753 25.9671 9.94601 22.0847C9.04138 17.9384 8.17443 12.3975 8.17443 10.4374C8.17443 9.94741 8.51367 9.79664 9.68216 9.79664C11.0391 9.79664 11.1522 9.87202 11.3407 11.0028ZM18.3516 18.2776V26.7963L15.8262 26.6832L13.263 26.5702L12.8107 19.7854C12.5845 16.0537 12.3584 12.2844 12.3584 11.3798L12.3207 9.79664H15.3362H18.3516V18.2776ZM25.1364 10.4374C25.1364 10.9651 24.081 26.2686 24.0056 26.6455C24.0056 26.7209 22.9125 26.7586 21.5555 26.7586H19.0678L19.1055 18.5038C19.1432 13.9806 19.2563 10.1359 19.3693 10.0228C19.5201 9.90972 20.8394 9.79664 22.3848 9.79664C24.7595 9.79664 25.1364 9.87202 25.1364 10.4374ZM30.2627 10.4374C29.3581 13.7167 27.6996 20.0869 27.0211 23.0647C26.4557 25.5524 26.0034 26.7586 25.6641 26.7586C25.0233 26.7586 25.0233 26.2686 25.5887 17.0338L26.0034 9.79664H28.2273C30.1873 9.79664 30.4512 9.87202 30.2627 10.4374ZM7.57134 13.2267C7.72211 14.9229 7.7598 16.3553 7.72211 16.4307C7.45826 16.6568 1.20117 11.6813 1.20117 11.229C1.20117 10.7013 3.01045 10.3243 5.76206 10.2113L7.30748 10.1736L7.57134 13.2267ZM25.5133 29.5856V31.2818H18.5401H11.5668V29.5856V27.8894H18.5401H25.5133V29.5856ZM12.3207 32.2995C12.3207 32.8272 10.813 45.3791 10.5868 46.8114C10.3606 48.1684 10.3229 48.2438 8.8906 48.2438C8.09904 48.2438 7.42056 48.1684 7.42056 48.0553C7.42056 47.9422 8.17443 44.5498 9.11676 40.479C10.0591 36.4458 10.813 32.9026 10.813 32.6011C10.813 32.2995 11.1522 32.0357 11.5668 32.0357C11.9815 32.0357 12.3207 32.1488 12.3207 32.2995ZM18.3516 40.1397V48.2438H14.9592H11.5668V47.2638C11.5668 46.0199 13.0369 33.1288 13.263 32.488C13.3761 32.1864 14.243 32.0357 15.9016 32.0357H18.3516V40.1397ZM24.1564 32.8649C24.3825 33.958 25.8903 46.7361 25.8903 47.603C25.8903 48.1684 25.438 48.2438 22.4979 48.2438H19.1055V40.1397V32.0357H21.5555C23.7794 32.0357 24.0056 32.1111 24.1564 32.8649ZM27.888 39.6497C28.868 43.8714 29.6596 47.5276 29.6596 47.7538C29.6596 48.0553 29.1319 48.2438 28.3403 48.2438C26.7949 48.2438 26.9457 48.7715 25.8903 40.0643C24.9856 32.3749 24.9856 32.0357 25.6264 32.0357C25.9657 32.0357 26.7195 34.5988 27.888 39.6497Z" fill="black"/>
</svg>
