<svg width="49" height="50" viewBox="0 0 49 50" fill="none" xmlns="http://www.w3.org/2000/svg">
<path d="M16.8629 6.76381L6.82609 12.9465L6.5852 17.2824C6.42461 19.6913 6.74579 22.0198 7.14726 22.4213C7.78962 23.0637 8.03051 21.8592 8.03051 18.4869V13.7495L17.7462 7.88793C23.4471 4.43526 28.0239 2.187 28.7466 2.50818C29.3889 2.74907 33.8854 5.39879 38.6228 8.3697L47.375 13.7495V27.1587V40.6482H45.3676H43.3602V30.2099V19.7716H35.7322C31.1554 19.7716 28.1042 20.0927 28.1042 20.5745C28.1042 21.0563 31.0751 21.3775 35.411 21.3775C41.7543 21.3775 42.6376 21.5381 42.2361 22.6622C41.9952 23.3848 41.7543 24.1075 41.7543 24.2681C41.7543 24.4287 38.8637 24.5893 35.411 24.5893C31.8781 24.5893 28.7466 24.9104 28.5057 25.3922C28.1845 25.874 30.5131 26.1952 34.849 26.1952C41.674 26.1952 41.7543 26.1952 41.7543 28.2025C41.7543 30.2099 41.674 30.2099 34.9293 30.2099C30.9145 30.2099 28.1042 30.5311 28.1042 31.0128C28.1042 31.4946 30.9145 31.8158 34.9293 31.8158C41.674 31.8158 41.7543 31.8158 41.7543 33.8232C41.7543 35.7502 41.5938 35.7502 34.7687 36.0714L27.7027 36.3123L34.7687 36.4729C39.6667 36.5532 41.7543 36.9547 41.8346 37.597C41.9149 38.1591 41.9952 38.962 42.1558 39.4438C42.2361 39.8453 42.3967 40.7285 42.3967 41.2103C42.6376 42.8965 47.2144 42.495 48.1779 40.7285C48.6597 39.8453 48.9809 33.502 48.9809 26.0346V12.9465L38.7834 6.68351C33.0825 3.31113 28.1845 0.500813 27.7027 0.500813C27.3013 0.500813 22.4033 3.31113 16.8629 6.76381Z" fill="black"/>
<path d="M15.1752 12.6244C13.489 14.0697 13.489 14.2303 14.854 13.6683C18.0658 12.5441 21.8396 12.3835 23.7667 13.3471C24.8105 13.9894 25.9347 14.2303 26.1755 13.9091C26.9785 13.1865 21.9199 10.9382 19.4308 10.9382C18.0658 10.9382 16.219 11.6609 15.1752 12.6244Z" fill="black"/>
<path d="M17.5039 15.0328C15.336 16.2373 15.7374 17.4417 17.9857 16.4781C19.3507 15.8358 20.3143 15.8358 21.599 16.4781C22.6428 17.0402 23.2852 17.1205 23.2852 16.6387C23.2852 15.8358 20.7157 14.1496 19.5113 14.1496C19.1901 14.1496 18.2266 14.5511 17.5039 15.0328Z" fill="black"/>
<path d="M28.1035 14.9529C28.1035 15.3544 28.8262 15.7559 29.7897 15.7559C30.673 15.7559 31.1547 15.3544 30.9138 14.9529C30.673 14.4711 29.87 14.15 29.2276 14.15C28.5853 14.15 28.1035 14.4711 28.1035 14.9529Z" fill="black"/>
<path d="M35.3301 14.9529C35.3301 15.3544 36.7754 15.7559 38.5419 15.7559C40.3084 15.7559 41.7537 15.3544 41.7537 14.9529C41.7537 14.4711 40.3084 14.15 38.5419 14.15C36.7754 14.15 35.3301 14.4711 35.3301 14.9529Z" fill="black"/>
<path d="M14.1319 22.3403C13.1683 24.5082 12.526 24.9097 10.1171 25.0703C6.18267 25.2309 5.05854 26.355 3.93441 31.4939C3.37235 33.8224 2.32851 36.3919 1.44527 37.1145C-0.160625 38.6401 -0.562099 40.5672 1.0438 39.2022C2.64969 37.8372 10.7595 46.1878 9.95652 48.3558C9.39446 49.8814 9.39446 49.8814 11.0807 48.3558C12.0442 47.4726 12.6865 46.6696 12.4457 46.4287C12.2851 46.1878 13.1683 44.8228 14.453 43.2972C15.818 41.8519 16.8619 40.0854 16.8619 39.4431C16.8619 38.8007 17.9057 37.2751 19.2707 36.151C22.1613 33.5815 22.9643 31.3333 21.6796 29.8077C20.154 27.9609 18.3875 28.3624 15.4969 31.1727C13.2486 33.3407 12.6063 33.5815 12.0442 32.618C11.6427 31.9757 11.0807 31.7348 10.7595 32.0559C10.4383 32.3771 10.7595 33.2604 11.4821 33.983C12.7668 35.2677 13.0077 35.1874 15.4969 32.7786C16.9422 31.3333 18.5481 30.2092 19.0298 30.2092C21.1175 30.2092 20.9569 32.1362 18.6284 34.4648C17.2634 35.9101 15.6575 38.3992 15.0151 40.0051C14.2924 41.611 13.088 43.2972 12.2048 43.779C10.9201 44.4214 10.1171 44.0199 7.30679 41.1293L3.85412 37.6766L5.37972 32.1362L6.82503 26.5959L10.2777 26.355C12.9274 26.1944 13.6501 26.355 13.6501 27.3186C13.6501 30.2092 15.1757 28.3624 15.4166 25.1506L15.6575 21.7782L19.8328 21.5373C24.7308 21.2161 24.5702 21.0556 24.249 30.6909C24.0081 37.1948 23.9278 37.4357 22.0008 37.4357C20.9569 37.4357 20.0737 37.7569 20.0737 38.2386C20.0737 39.2825 22.1613 39.2825 24.1687 38.2386C25.5337 37.4357 25.6943 36.4722 25.6943 29.5668C25.6943 24.5082 25.3731 21.3767 24.7308 20.7344C24.1687 20.1723 21.8402 19.7708 19.5116 19.7708C15.4166 19.7708 15.0954 19.9314 14.1319 22.3403Z" fill="black"/>
</svg>
