<svg width="49" height="48" viewBox="0 0 49 48" fill="none" xmlns="http://www.w3.org/2000/svg">
<path d="M17.5971 0.515659C11.2479 2.57242 4.63054 8.65327 2.03724 14.7341C-0.198372 20.0996 0.159325 29.042 2.93148 34.3181C6.95558 42.2768 15.898 48 24.4828 48C29.5799 48 36.1973 45.4067 40.3109 41.7403C56.3178 27.7007 47.1071 1.14163 26.003 0.0685349C22.6943 -0.110313 18.9384 0.0685349 17.5971 0.515659ZM30.8319 2.84069C47.9119 7.93788 51.936 30.8305 37.5387 41.2932C19.2067 54.7963 -5.02729 35.0335 4.71997 14.4659C7.49212 8.65327 11.2479 5.25515 17.0605 3.19839C22.8731 1.23105 25.1087 1.14163 30.8319 2.84069Z" fill="black"/>
<path d="M22.8281 9.0462C16.8612 9.34193 11.9381 11.1598 10.8422 13.4735L10.616 13.9519L10.59 16.7874C10.5639 20.0753 10.4769 19.7622 11.5989 20.5537C12.5731 21.2408 12.9471 21.6757 14.1822 23.5197C14.7911 24.4243 15.4782 25.355 15.7044 25.5725C16.7221 26.5466 18.7313 27.2947 21.4451 27.7122C22.9846 27.947 26.4726 27.9209 28.1078 27.6687C30.7433 27.2599 32.8395 26.4336 33.7615 25.4594C33.9094 25.3028 34.5182 24.4504 35.1097 23.5632C36.3187 21.7366 36.771 21.2321 37.7191 20.5624C38.8499 19.7709 38.7629 20.084 38.7368 16.744L38.7107 13.8649L38.4671 13.4213C37.954 12.508 36.9276 11.6643 35.4924 10.9859C32.4568 9.54199 27.6207 8.80266 22.8281 9.0462ZM26.7074 9.82033C32.4307 10.203 36.7449 11.7513 37.7974 13.8127C37.954 14.1346 37.9714 14.3259 37.9714 15.9089V17.6573L37.4495 17.2224C36.4231 16.3612 35.1097 15.7176 33.3179 15.1696C26.029 12.9603 15.3739 14.0389 11.712 17.3441L11.3554 17.666V15.9176C11.3554 14.2302 11.3641 14.1432 11.5641 13.7431C12.8601 11.1946 19.8882 9.36803 26.7074 9.82033ZM28.3165 14.9522C32.5786 15.4653 35.7708 16.5787 37.2146 18.0487C37.6408 18.4923 38.0062 19.1185 37.954 19.336C37.9366 19.4056 37.5365 19.7448 37.0668 20.084L36.197 20.7103L35.9795 20.4493C35.4924 19.8839 34.3269 19.1533 33.1092 18.6575C32.4568 18.3966 32.3524 18.3792 32.2828 18.5618C32.2481 18.6575 32.335 18.7358 32.5612 18.8315C33.9964 19.449 34.8488 19.9361 35.3967 20.4493L35.9882 20.9973L35.6664 21.3974L35.3533 21.8062L34.9531 21.38C34.7357 21.1452 34.3356 20.8146 34.0659 20.632C33.4919 20.2493 32.0915 19.6317 31.8914 19.6665C31.5696 19.7274 31.7958 19.9535 32.4916 20.2493C33.4571 20.6668 34.1964 21.1191 34.5878 21.5366C35.1706 22.1628 35.1619 22.1106 34.7879 22.6934C34.5965 22.9804 34.4226 23.2066 34.3878 23.1892C34.3617 23.1805 34.2051 22.9804 34.0399 22.7369C33.257 21.5627 30.7259 20.5363 27.6207 20.1188C26.3073 19.9448 23.3587 19.9274 22.0975 20.0753C18.6704 20.4841 16.1393 21.4844 15.2608 22.7717C15.0955 23.0152 14.9477 23.2153 14.9216 23.2153C14.8955 23.2153 14.7302 22.9804 14.5389 22.6934L14.2083 22.1715L14.4432 21.8671C14.9129 21.2495 15.9218 20.6059 17.3831 20.0144C17.5136 19.9622 17.618 19.8753 17.618 19.8231C17.618 19.6143 17.3222 19.6491 16.6525 19.91C15.774 20.2667 14.8172 20.8842 14.3388 21.4061L13.9735 21.8062L13.6604 21.4061L13.3385 20.9973L13.9213 20.4493C14.4867 19.9274 15.6609 19.2577 16.7221 18.8489C17.0091 18.7358 17.0787 18.6749 17.0439 18.5618C16.9743 18.3879 16.7916 18.4227 15.9131 18.788C15.0781 19.1359 14.0605 19.7796 13.5386 20.2841L13.1037 20.7103L12.2252 20.0753C11.7468 19.7274 11.3554 19.3795 11.3554 19.3099C11.3554 18.9968 11.7642 18.3966 12.3122 17.8921C13.843 16.4656 17.2787 15.3262 21.1407 14.9522C21.6712 14.9087 22.254 14.8478 22.4454 14.8304C23.0803 14.7695 27.5685 14.8565 28.3165 14.9522ZM26.4639 20.7798C30.6389 21.1278 33.7093 22.476 33.7093 23.9633C33.7093 24.5896 32.97 25.3115 31.7697 25.8682C29.0559 27.1207 24.1154 27.4947 20.3404 26.738C18.1051 26.2857 16.3394 25.4333 15.8349 24.5722C15.4609 23.9285 15.5913 23.398 16.2785 22.7891C17.9311 21.3191 22.341 20.4493 26.4639 20.7798Z" fill="black"/>
<path d="M22.9938 17.3007C21.6543 17.379 20.654 17.5007 19.4537 17.7443C19.0101 17.8313 18.6274 17.9095 18.61 17.9095C18.5926 17.9095 18.5752 17.9965 18.5752 18.0922C18.5752 18.2575 18.61 18.2749 18.8622 18.2314C19.0101 18.2053 19.5929 18.1009 20.1408 18.0052C21.5934 17.753 22.9416 17.6486 24.6638 17.6486C26.386 17.6486 27.7342 17.753 29.1868 18.0052C29.7348 18.1009 30.3175 18.2053 30.4741 18.2314C30.709 18.2749 30.7524 18.2575 30.7524 18.1009C30.7524 17.9617 30.6655 17.9095 30.3088 17.8313C28.1604 17.3703 25.3684 17.1702 22.9938 17.3007Z" fill="black"/>
<path d="M21.4972 18.7441C19.9141 18.9441 19.0617 19.1442 19.0269 19.3269C18.9921 19.5095 19.2096 19.5182 20.0272 19.353C21.3754 19.0746 22.4714 18.9963 24.7937 19.005C26.7856 19.005 27.3249 19.0398 28.3599 19.2051C30.3692 19.5269 30.3431 19.5269 30.2996 19.3356C30.2648 19.1529 29.9082 19.0572 28.4034 18.8137C27.1161 18.6049 22.9323 18.5614 21.4972 18.7441Z" fill="black"/>
<path d="M22.8366 23.0406C21.8885 23.2406 21.3667 23.4668 20.9753 23.8582C20.5664 24.2757 20.5491 24.6497 20.9318 25.0759C22.1321 26.4415 26.8986 26.5024 28.2903 25.1716C28.7252 24.7454 28.7774 24.4496 28.473 23.9973C27.838 23.0667 24.9677 22.5796 22.8366 23.0406ZM26.6986 23.4755C27.5075 23.6755 28.0555 23.98 28.2294 24.2931C28.3338 24.5018 28.3251 24.5453 28.1772 24.7628C27.751 25.3455 26.3419 25.737 24.6632 25.737C23.4368 25.737 22.4713 25.563 21.7929 25.2325C21.1927 24.9367 20.9405 24.6149 21.0796 24.3105C21.2623 23.9017 22.2191 23.4929 23.402 23.3015C24.2022 23.1797 25.907 23.2667 26.6986 23.4755Z" fill="black"/>
<path d="M21.4193 30.0602C21.2888 30.182 21.3758 30.5299 21.6281 30.9388C21.9412 31.4432 22.0369 32.1391 21.889 32.7479C21.8281 32.9741 21.5846 33.4612 21.3497 33.8178C20.7931 34.6615 20.6278 35.2356 20.6887 36.0445C20.7844 37.2796 21.5063 38.3408 21.9499 37.8972C22.0804 37.7667 22.0891 37.4188 21.9586 37.3405C21.715 37.1926 21.4454 36.3837 21.4454 35.827C21.4454 35.2095 21.602 34.792 22.0543 34.1309C22.8893 32.9132 22.9502 31.6172 22.2195 30.4517C21.9934 30.0863 21.8977 29.9994 21.7063 29.9994C21.5759 29.9994 21.4454 30.0255 21.4193 30.0602Z" fill="black"/>
<path d="M24.376 30.0602C24.2542 30.1733 24.3238 30.469 24.576 30.9213C25.124 31.8607 25.0457 32.687 24.3151 33.8264C23.5931 34.9572 23.454 35.7226 23.7932 36.7925C24.0628 37.6797 24.6021 38.2016 24.9065 37.8971C25.0718 37.7319 25.0283 37.5231 24.7413 37.0534C24.5412 36.7316 24.4629 36.488 24.4281 36.0705C24.3673 35.3834 24.4977 34.9224 24.8978 34.3309C25.8546 32.9219 25.9503 31.6258 25.1849 30.4342C24.9587 30.0863 24.8544 29.9993 24.6717 29.9993C24.5412 29.9993 24.4021 30.0254 24.376 30.0602Z" fill="black"/>
<path d="M27.386 30.0605C27.2034 30.13 27.2556 30.3736 27.5774 30.9912C27.8296 31.4869 27.8818 31.6696 27.8818 32.1393C27.8818 32.7916 27.7775 33.07 27.2382 33.905C26.5075 35.0183 26.4032 36.1491 26.9337 37.2015C27.2469 37.8452 27.4556 38.0366 27.734 37.967C28.0471 37.8887 28.0645 37.6364 27.7948 37.2015C27.3599 36.497 27.2469 35.7316 27.4817 35.0618C27.5513 34.8618 27.7862 34.4443 28.0036 34.1224C28.2211 33.8093 28.4646 33.3483 28.5342 33.1048C28.8038 32.2089 28.6473 31.1825 28.1341 30.4084C27.8731 30.0083 27.6992 29.93 27.386 30.0605Z" fill="black"/>
</svg>
