<svg width="29" height="29" viewBox="0 0 29 29" fill="none" xmlns="http://www.w3.org/2000/svg">
<path d="M1.40167 1.40167L0 2.80333V14.5V26.1967L1.40167 27.5983L2.80333 29H14.5H26.1967L27.5983 27.5983L29 26.1967V14.5V2.80333L27.5983 1.40167L26.1967 0H14.5H2.80333L1.40167 1.40167ZM26.825 2.175L28.0333 3.335V14.7417C28.0333 25.4717 27.985 26.1483 27.0667 27.0667C26.1483 27.985 25.4717 28.0333 14.5 28.0333C3.23833 28.0333 2.9 27.985 1.93333 26.97C1.015 25.955 0.966667 25.3267 0.966667 14.4517V2.94833L2.22333 1.98167C3.43167 1.015 4.10833 0.966667 14.5967 0.966667H25.665L26.825 2.175Z" fill="black"/>
<path d="M11.1166 4.88108C9.47331 5.55774 5.79998 9.18274 5.79998 10.1977C5.79998 10.6327 5.46164 11.2611 5.07498 11.5994C4.63998 11.9861 4.34998 13.0494 4.34998 14.4994C4.34998 15.9494 4.63998 17.0127 5.07498 17.3994C5.46164 17.7377 5.79998 18.3661 5.79998 18.8011C5.84831 19.8161 7.68498 21.8944 9.95664 23.4411C12.325 25.0361 13.05 24.9877 13.05 23.2477C13.05 22.2327 13.34 21.7011 14.0166 21.5077C15.37 21.0727 15.95 21.6044 15.95 23.2477C15.95 24.0211 16.1916 24.6494 16.5783 24.6494C18.3666 24.6494 23.2 20.2994 23.2 18.7044C23.2 18.3177 23.5383 17.7377 23.925 17.3994C24.36 17.0127 24.65 15.9977 24.65 14.6927C24.65 13.5327 24.36 12.3244 23.925 11.8894C23.5383 11.5027 23.2 10.7777 23.2 10.2944C23.2 9.08608 19.9616 5.84775 18.0283 5.02608C15.95 4.15608 16.0466 4.10774 15.8533 5.89608C15.7566 7.24941 15.515 7.49108 14.5 7.49108C13.485 7.49108 13.2433 7.24941 13.1466 5.89608C12.9533 4.20441 12.905 4.15608 11.1166 4.88108ZM12.0833 6.95941C12.0833 8.36108 13.34 8.94108 15.4666 8.45774C16.5783 8.21608 16.9166 7.87774 16.9166 6.95941C16.9166 6.33108 17.1583 5.79941 17.4 5.79941C18.27 5.79941 22.2333 9.76275 22.2333 10.6327C22.2333 11.1161 22.5716 11.7444 22.9583 12.0827C23.345 12.4211 23.6833 13.4844 23.6833 14.4994C23.6833 15.5144 23.345 16.5777 22.9583 16.9161C22.5716 17.2544 22.2333 17.9311 22.2333 18.4144C22.2333 19.4777 18.6083 23.1994 17.5933 23.1994C17.2066 23.1994 16.9166 22.7644 16.9166 22.2327C16.9166 20.8311 14.8866 19.9611 13.2916 20.6861C12.5666 21.0244 12.0833 21.6527 12.0833 22.2327C12.0833 23.3927 11.9383 23.3927 10.15 22.4744C8.65164 21.7011 6.76664 19.3327 6.76664 18.2211C6.76664 17.8344 6.42831 17.2544 6.04164 16.9161C5.12331 16.1427 5.12331 13.5327 6.04164 12.2761C6.42831 11.7927 6.76664 11.0194 6.76664 10.6327C6.81498 9.42441 10.4883 5.79941 11.6966 5.79941C11.9383 5.79941 12.0833 6.33108 12.0833 6.95941Z" fill="black"/>
<path d="M8.94157 13.0497C7.78157 14.3064 8.31324 16.3364 9.90824 16.723C11.5999 17.158 12.4699 16.6747 12.8566 15.2247C13.1949 13.823 11.9866 12.083 10.6332 12.083C10.1982 12.083 9.4249 12.518 8.94157 13.0497ZM11.5999 13.7747C12.3249 14.6447 11.8899 15.9497 10.9716 15.9497C10.5849 15.9497 10.0049 15.6114 9.66657 15.2247C9.18324 14.6447 9.18324 14.3547 9.66657 13.7747C10.4399 12.8564 10.8266 12.8564 11.5999 13.7747Z" fill="black"/>
<path d="M16.7716 12.9533C15.7083 14.1133 15.7566 15.1283 16.9166 16.1916C19.0916 18.1249 21.9916 15.2249 20.0583 13.0499C18.9466 11.8416 17.7866 11.8416 16.7716 12.9533ZM19.2849 13.7266C20.0099 14.5966 19.4299 15.9499 18.3183 15.9499C17.1099 15.9499 16.6266 14.6933 17.3999 13.7749C18.1249 12.8566 18.5599 12.8566 19.2849 13.7266Z" fill="black"/>
</svg>
