<svg width="49" height="48" viewBox="0 0 49 48" fill="none" xmlns="http://www.w3.org/2000/svg">
<path d="M2.82 2.32L0.5 4.64V24V43.36L2.82 45.68L5.14 48H24.5H43.86L46.18 45.68L48.5 43.36V24V4.64L46.18 2.32L43.86 0H24.5H5.14L2.82 2.32ZM44.9 3.6L46.9 5.52V24.4C46.9 42.16 46.82 43.28 45.3 44.8C43.78 46.32 42.66 46.4 24.5 46.4C5.86 46.4 5.3 46.32 3.7 44.64C2.18 42.96 2.1 41.92 2.1 23.92V4.88L4.18 3.28C6.18 1.68 7.3 1.6 24.66 1.6H42.98L44.9 3.6Z" fill="black"/>
<path d="M18.9 8.08005C16.18 9.20005 10.1 15.2 10.1 16.88C10.1 17.6 9.53995 18.64 8.89995 19.2C8.17995 19.84 7.69995 21.6 7.69995 24C7.69995 26.4 8.17995 28.16 8.89995 28.8C9.53995 29.36 10.1 30.4 10.1 31.12C10.18 32.8 13.22 36.24 16.98 38.8C20.9 41.44 22.1 41.36 22.1 38.48C22.1 36.8 22.58 35.92 23.7 35.6C25.94 34.88 26.9 35.76 26.9 38.48C26.9 39.76 27.3 40.8 27.94 40.8C30.9 40.8 38.9 33.6 38.9 30.96C38.9 30.32 39.46 29.36 40.0999 28.8C40.82 28.16 41.2999 26.48 41.2999 24.32C41.2999 22.4 40.82 20.4 40.0999 19.68C39.46 19.04 38.9 17.84 38.9 17.04C38.9 15.04 33.54 9.68005 30.34 8.32005C26.9 6.88005 27.0599 6.80005 26.74 9.76005C26.58 12 26.18 12.4 24.5 12.4C22.82 12.4 22.42 12 22.26 9.76005C21.94 6.96004 21.86 6.88005 18.9 8.08005ZM20.5 11.52C20.5 13.84 22.58 14.8 26.1 14C27.94 13.6 28.5 13.04 28.5 11.52C28.5 10.48 28.9 9.60005 29.3 9.60005C30.74 9.60005 37.2999 16.16 37.2999 17.6C37.2999 18.4 37.86 19.44 38.5 20C39.1399 20.56 39.7 22.32 39.7 24C39.7 25.68 39.1399 27.44 38.5 28C37.86 28.56 37.2999 29.68 37.2999 30.48C37.2999 32.24 31.3 38.4 29.62 38.4C28.9799 38.4 28.5 37.68 28.5 36.8C28.5 34.48 25.14 33.04 22.5 34.24C21.3 34.8 20.5 35.84 20.5 36.8C20.5 38.72 20.26 38.72 17.3 37.2C14.82 35.92 11.7 32 11.7 30.16C11.7 29.52 11.14 28.56 10.5 28C8.97995 26.72 8.97995 22.4 10.5 20.32C11.14 19.52 11.7 18.24 11.7 17.6C11.78 15.6 17.86 9.60005 19.86 9.60005C20.26 9.60005 20.5 10.48 20.5 11.52Z" fill="black"/>
<path d="M15.3001 21.6001C13.3801 23.6801 14.2601 27.0401 16.9001 27.6801C19.7001 28.4001 21.1401 27.6001 21.7801 25.2001C22.3401 22.8801 20.3401 20.0001 18.1001 20.0001C17.3801 20.0001 16.1001 20.7201 15.3001 21.6001ZM19.7001 22.8001C20.9001 24.2401 20.1801 26.4001 18.6601 26.4001C18.0201 26.4001 17.0601 25.8401 16.5001 25.2001C15.7001 24.2401 15.7001 23.7601 16.5001 22.8001C17.7801 21.2801 18.4201 21.2801 19.7001 22.8001Z" fill="black"/>
<path d="M28.2599 21.44C26.4999 23.36 26.5799 25.04 28.4999 26.8C32.0999 30 36.8999 25.2 33.6999 21.6C31.8599 19.6 29.9399 19.6 28.2599 21.44ZM32.4199 22.72C33.6199 24.16 32.6599 26.4 30.8199 26.4C28.8199 26.4 28.0199 24.32 29.2999 22.8C30.4999 21.28 31.2199 21.28 32.4199 22.72Z" fill="black"/>
</svg>
