<svg width="51" height="50" viewBox="0 0 51 50" fill="none" xmlns="http://www.w3.org/2000/svg">
<path d="M18.3245 1.7822C7.63381 5.29887 0.389456 16.2006 1.51479 27.0319C2.64013 38.215 10.4471 46.5847 21.4895 48.6243C35.2045 51.086 48.0756 41.169 49.4823 27.1023C50.5373 17.1852 44.4182 6.84621 35.0639 2.69653C30.9845 0.867863 22.4742 0.445862 18.3245 1.7822ZM30.9845 2.55587C37.6662 4.31421 42.9412 8.46388 46.1062 14.5126C48.7086 19.6469 49.0603 27.7353 46.9502 33.4323C45.0512 38.426 40.4796 43.3493 35.3452 45.811C32.3912 47.288 30.8439 47.5693 25.4985 47.499C17.6915 47.499 13.8935 45.9517 8.97014 40.8876C4.53913 36.3863 2.64013 31.3926 2.64013 24.4999C2.64013 18.0996 5.17213 12.4026 9.81415 8.11222C13.6825 4.52521 14.8782 3.8922 19.6608 2.6262C24.5139 1.28986 26.1315 1.28986 30.9845 2.55587Z" fill="black" stroke="black"/>
<path d="M18.594 5.98144C11.7013 8.44311 6.8483 13.9995 5.44163 20.9625C2.83929 33.2005 12.053 44.4539 24.7834 44.5242C40.8897 44.5945 50.1034 26.8002 40.8897 13.4368C39.5534 11.4674 38.9907 10.1311 39.5534 10.3421C40.1864 10.6234 40.6084 10.3421 40.6084 9.63878C40.6084 8.37277 39.8347 8.16177 38.7094 9.28711C38.2171 9.77945 37.2324 9.49811 35.3334 8.23211C30.5507 4.99677 23.9394 4.08243 18.594 5.98144ZM29.9177 6.7551C30.4804 6.96611 30.7617 8.72444 30.7617 12.3818V17.6568H24.7834H18.7347L18.9457 12.1708L19.1567 6.7551L21.6183 6.3331C23.869 5.9111 27.8077 6.1221 29.9177 6.7551ZM17.3983 12.7335V17.6568H12.475C9.80231 17.6568 7.55164 17.3755 7.55164 17.0941C7.55164 15.2655 15.007 7.81011 16.8357 7.81011C17.117 7.81011 17.3983 9.99044 17.3983 12.7335ZM35.6147 9.49811C37.7951 11.1158 41.9447 16.0391 42.0151 17.0941C42.0151 17.4458 39.8347 17.6568 37.0917 17.6568H32.1684V12.7335C32.1684 9.99044 32.4497 7.81011 32.731 7.81011C33.0124 7.81011 34.3487 8.58377 35.6147 9.49811ZM17.3983 24.6902V31.0202H12.1936C6.28563 31.0202 6.14497 30.8795 6.14497 25.1825C6.14497 18.5008 6.28563 18.3601 12.1936 18.3601H17.3983V24.6902ZM30.7617 24.6902V31.0202H24.7834H18.805V24.6902V18.3601H24.7834H30.7617V24.6902ZM42.9997 19.9075C43.5624 22.0175 43.5624 28.4882 42.9997 29.8948C42.6481 30.8092 41.4524 31.0202 37.3731 31.0202H32.1684V24.6902V18.3601H37.3731C42.1557 18.3601 42.5777 18.5008 42.9997 19.9075ZM17.3983 37.3502V42.3439L15.4993 41.2889C13.319 40.1635 10.5056 37.2799 8.60664 34.3258L7.41097 32.4268H12.4047H17.3983V37.3502ZM30.7617 37.6315C30.7617 43.4692 30.5507 43.6802 24.7834 43.6802C19.016 43.6802 18.805 43.4692 18.805 37.6315V32.4268H24.7834H30.7617V37.6315ZM40.8194 34.5368C39.4127 36.9985 36.9511 39.3899 34.1377 41.2185L32.1684 42.4142V37.4205V32.4268H37.1621H42.0854L40.8194 34.5368Z" fill="black" stroke="black"/>
<path d="M9.1108 10.0115C9.25147 10.4335 9.67347 10.7148 10.0251 10.7148C10.3768 10.7148 10.7988 10.4335 10.9395 10.0115C11.0801 9.58951 10.6581 9.23784 10.0251 9.23784C9.39214 9.23784 8.97014 9.58951 9.1108 10.0115Z" fill="black" stroke="black"/>
<path d="M39.9169 39.7624C39.9169 40.3954 40.4092 40.8877 41.0422 40.8877C42.2379 40.8877 42.0269 39.3404 40.7609 38.9184C40.2686 38.7777 39.9169 39.1294 39.9169 39.7624Z" fill="black" stroke="black"/>
<path d="M9.81416 40.2547C9.95483 40.6767 10.3768 40.958 10.7285 40.958C11.0802 40.958 11.5022 40.6767 11.6428 40.2547C11.7835 39.8327 11.3615 39.481 10.7285 39.481C10.0955 39.481 9.67349 39.8327 9.81416 40.2547Z" fill="black" stroke="black"/>
</svg>
