<svg width="55" height="40" viewBox="0 0 55 40" fill="none" xmlns="http://www.w3.org/2000/svg">
<path d="M0.70989 0.320087C0.509215 0.621101 2.11461 1.37363 4.67322 2.17633C9.08807 3.53089 9.79043 4.38376 7.08132 4.93561C4.82373 5.38713 4.42238 5.78848 4.42238 7.59456C4.42238 8.74844 3.97086 9.65148 2.91731 10.6549C-0.0426411 13.5145 -0.0928098 17.3273 2.71664 23.4479C6.22845 31.0735 10.8941 31.4247 14.406 24.4513C17.4662 18.3307 17.6168 13.665 14.9578 10.9559C14.1049 10.1532 13.4528 8.94911 13.4528 8.29692C13.4528 6.64135 12.0982 4.88544 10.7938 4.88544C10.1416 4.88544 9.94094 4.68477 10.242 4.43393C10.4928 4.13291 11.5965 4.08274 12.7504 4.23325C14.406 4.43393 14.8575 4.73494 15.309 5.93899C15.8107 7.19321 16.1117 7.39388 17.9178 7.39388C19.4228 7.39388 20.1252 7.14304 20.5767 6.39051C21.0282 5.68814 21.7808 5.38713 23.035 5.38713C25.1421 5.38713 25.6939 5.88882 26.3963 8.49759C26.898 10.3037 26.8478 10.404 25.7441 10.404C24.1387 10.404 22.9848 11.6582 22.9848 13.4141C22.9848 14.3673 22.433 15.3707 21.2289 16.5748C19.6737 18.13 19.473 18.6317 19.473 20.8893C19.473 25.4045 22.3828 32.3277 25.0919 34.184C26.5468 35.1874 28.4532 35.1874 29.9081 34.184C32.6172 32.3277 35.527 25.4045 35.527 20.8893C35.527 18.6317 35.3263 18.13 33.7711 16.5748C32.567 15.3707 32.0152 14.3673 32.0152 13.4141C32.0152 11.6582 30.8613 10.404 29.2559 10.404C28.1522 10.404 28.102 10.3037 28.6037 8.49759C29.3061 5.88882 29.8579 5.38713 31.965 5.38713C33.2192 5.38713 33.9718 5.68814 34.4233 6.39051C34.8748 7.14304 35.5772 7.39388 37.0822 7.39388C38.8883 7.39388 39.1893 7.19321 39.691 5.93899C40.0924 4.78511 40.594 4.43393 42.1994 4.18308C43.3533 3.98241 44.457 4.08274 44.758 4.38376C45.1092 4.73494 44.9086 4.88544 44.2062 4.88544C42.9018 4.88544 41.5472 6.64135 41.5472 8.29692C41.5472 8.94911 40.8951 10.1532 40.0422 10.9559C37.3832 13.665 37.5337 18.3307 40.594 24.4513C44.1059 31.4247 48.7715 31.0735 52.2834 23.4479C55.0928 17.3273 55.0426 13.5145 52.0827 10.6549C51.0291 9.60131 50.5776 8.74844 50.5776 7.54439C50.5776 5.83865 49.5241 4.88544 47.6678 4.88544C47.116 4.88544 46.4136 4.58443 46.1126 4.23325C45.7113 3.68139 46.514 3.28004 50.1763 2.17633C52.8352 1.37363 54.541 0.621101 54.2901 0.370258C54.0393 0.119415 51.9823 0.470596 49.3736 1.22313C44.9587 2.47734 44.8584 2.47734 43.3533 1.57431C42.0991 0.821777 40.9452 0.671272 37.6341 0.771606C33.3196 0.871944 31.4633 1.47397 29.8078 3.33021C28.6037 4.68477 26.3963 4.68477 25.1922 3.33021C23.5367 1.47397 21.6804 0.871944 17.3659 0.771606C14.0046 0.671272 12.9009 0.821777 11.5965 1.57431C10.0413 2.52752 9.99111 2.52752 6.22845 1.47397C4.17153 0.871944 2.16478 0.219753 1.76343 0.0692444C1.36208 -0.0812607 0.860396 0.0190773 0.70989 0.320087ZM16.1619 2.62785C15.8107 3.43055 13.2019 3.68139 12.7504 2.92886C12.3992 2.37701 13.2521 1.97566 15.0582 1.92549C16.0615 1.87532 16.3625 2.076 16.1619 2.62785ZM22.9848 2.97903L24.7407 4.13291L22.9848 4.28342C21.7808 4.43393 21.0784 4.18308 20.6269 3.58106C19.172 1.57431 20.3259 1.32346 22.9848 2.97903ZM35.0253 2.27667C35.0253 3.53089 33.6206 4.43393 32.0152 4.28342L30.2593 4.13291L32.0152 2.97903C33.8213 1.87532 35.0253 1.57431 35.0253 2.27667ZM41.9486 2.32684C42.5005 2.67802 42.4503 2.82853 41.7981 3.07937C40.3934 3.58106 39.1391 3.43055 38.8381 2.62785C38.6375 2.076 38.9385 1.87532 39.9418 1.87532C40.6944 1.87532 41.5974 2.076 41.9486 2.32684ZM18.9713 3.12954C19.5232 3.78173 19.3727 3.88207 18.2689 3.88207C17.0147 3.88207 16.6134 3.38038 17.3157 2.72819C17.8174 2.17633 18.2689 2.32684 18.9713 3.12954ZM37.9351 3.28004C38.0354 3.63123 37.5839 3.88207 36.7812 3.88207C35.5772 3.88207 35.4768 3.78173 36.0287 3.12954C36.731 2.27667 37.5839 2.32684 37.9351 3.28004ZM19.2222 5.38713C20.1252 5.73831 20.1252 5.83865 19.3727 6.13966C18.2188 6.59118 16.8642 6.29017 16.5632 5.48747C16.3625 4.78511 17.6669 4.73494 19.2222 5.38713ZM38.4368 5.48747C38.1358 6.29017 36.7812 6.59118 35.6273 6.13966C34.925 5.88882 34.925 5.78848 35.527 5.38713C36.6307 4.68477 38.6375 4.78511 38.4368 5.48747ZM28.0017 6.64135C28.0017 7.0427 27.801 7.39388 27.5 7.39388C27.2492 7.39388 26.9983 7.0427 26.9983 6.64135C26.9983 6.24 27.2492 5.88882 27.5 5.88882C27.801 5.88882 28.0017 6.24 28.0017 6.64135ZM7.93419 12.9124C7.78368 14.267 7.23183 15.8222 6.78031 16.3239C5.97761 17.227 5.62643 18.431 6.17828 18.431C6.32879 18.431 6.98098 17.829 7.63318 17.0765L8.78706 15.7219L10.0914 17.1768C11.8474 19.2337 12.3992 18.3808 10.7436 16.2236C9.8406 15.0195 9.43925 13.8657 9.43925 12.4609C9.43925 10.5043 9.53959 10.404 10.8941 10.404C12.8006 10.404 15.309 12.5111 15.7103 14.4175C16.0615 16.1232 14.9076 21.0899 13.5029 23.8492C12.2989 26.2072 10.0914 28.4648 8.88739 28.4648C6.12811 28.4648 2.4658 22.1435 2.01428 16.6249C1.8136 13.6148 1.86377 13.4141 3.31866 11.9592C4.42238 10.8054 5.32541 10.404 6.52946 10.404H8.2352L7.93419 12.9124ZM45.5607 12.4609C45.5607 13.8657 45.1594 15.0195 44.2564 16.2236C42.6008 18.3808 43.1526 19.2337 44.9086 17.1768L46.2129 15.7219L47.3668 17.0765C49.2732 19.2839 49.8753 18.3808 48.0692 16.0731C47.417 15.2202 47.0658 14.0162 47.0658 12.6114C47.0658 10.5043 47.116 10.404 48.621 10.404C49.6746 10.404 50.6278 10.9057 51.6813 11.9091C53.0861 13.364 53.1864 13.6148 52.9857 16.5748C52.6345 22.0432 48.8719 28.4648 46.0624 28.4648C43.5038 28.4648 39.4903 21.0398 39.39 15.9727C39.3398 13.5646 39.4903 13.1633 40.9452 11.8589C41.9486 10.9559 43.1025 10.404 44.0557 10.404C45.4604 10.404 45.5607 10.5043 45.5607 12.4609ZM26.9983 17.8792C26.9983 19.2337 26.597 20.3374 25.7441 21.3408C24.54 22.7957 24.1387 23.9496 24.8411 23.9496C25.0417 23.9496 25.7441 23.3475 26.3461 22.5448L27.5 21.1903L28.6539 22.5448C29.2559 23.3475 29.9583 23.9496 30.1589 23.9496C30.8613 23.9496 30.46 22.7957 29.2559 21.3408C28.403 20.3374 28.0017 19.2337 28.0017 17.8792C28.0017 15.9727 28.0519 15.9226 29.7576 15.9226C31.8647 15.9226 33.7711 17.528 34.3229 19.7354C35.4267 24.1502 30.6606 33.9833 27.3495 33.9833C24.3394 33.9833 19.6235 23.8492 20.677 19.6351C21.2289 17.528 23.1855 15.9226 25.2424 15.9226C26.9481 15.9226 26.9983 15.9727 26.9983 17.8792Z" fill="black"/>
<path d="M3.51935 31.116C2.91733 31.7682 2.56615 32.4706 2.76682 32.6211C3.118 33.0224 5.42576 31.0659 5.42576 30.3635C5.42576 29.611 4.62306 29.9621 3.51935 31.116Z" fill="black"/>
<path d="M11.9477 30.3715C11.9477 31.0237 14.406 33.181 14.7571 32.8298C15.1585 32.4284 13.3524 30.0203 12.5999 29.9702C12.2487 29.9702 11.9477 30.1708 11.9477 30.3715Z" fill="black"/>
<path d="M40.8951 31.2746C40.3432 31.9769 40.0924 32.6793 40.2429 32.8298C40.5941 33.181 43.0523 31.0237 43.0523 30.3715C43.0523 29.5186 41.7479 30.0705 40.8951 31.2746Z" fill="black"/>
<path d="M49.5742 30.3635C49.5742 31.0659 51.882 33.0224 52.2332 32.6211C52.4339 32.4706 52.0827 31.7682 51.4807 31.116C50.3769 29.9621 49.5742 29.611 49.5742 30.3635Z" fill="black"/>
<path d="M8.13487 31.6688C7.73352 32.7224 8.08471 34.1271 8.83724 34.3779C9.23859 34.4783 9.43926 34.0267 9.43926 33.0234C9.43926 31.3678 8.58639 30.4648 8.13487 31.6688Z" fill="black"/>
<path d="M45.912 31.3201C45.7113 31.4707 45.5608 32.2734 45.5608 33.0761C45.5608 34.832 46.7147 34.7818 46.9655 33.0259C47.1662 31.7717 46.4638 30.7181 45.912 31.3201Z" fill="black"/>
<path d="M22.3326 36.388C21.4296 37.3914 21.2289 38.4951 21.8811 38.4951C22.4831 38.4951 23.9882 36.7894 23.9882 36.087C23.9882 35.2341 23.2357 35.3345 22.3326 36.388Z" fill="black"/>
<path d="M31.0118 36.1372C31.0118 36.8395 32.567 38.4951 33.1691 38.4951C33.8714 38.4951 33.5202 37.1406 32.6172 36.3379C31.5135 35.2843 31.0118 35.2843 31.0118 36.1372Z" fill="black"/>
<path d="M26.9983 38.2441C26.9983 39.1973 27.2492 40 27.5 40C27.801 40 28.0017 39.1973 28.0017 38.2441C28.0017 37.2909 27.801 36.4882 27.5 36.4882C27.2492 36.4882 26.9983 37.2909 26.9983 38.2441Z" fill="black"/>
</svg>
