<svg width="39" height="29" viewBox="0 0 39 29" fill="none" xmlns="http://www.w3.org/2000/svg">
<path d="M0.0416566 0.23241C-0.10382 0.450624 1.05999 0.996162 2.91482 1.57807C6.11531 2.56004 6.62448 3.17831 4.66054 3.57837C3.02393 3.9057 2.73298 4.19665 2.73298 5.50594C2.73298 6.34243 2.40565 6.99708 1.6419 7.72446C-0.503881 9.79751 -0.54025 12.5616 1.49642 16.9986C4.04227 22.5267 7.4246 22.7813 9.97044 17.726C12.189 13.2889 12.2981 9.90661 10.3705 7.94268C9.75223 7.36077 9.27943 6.48791 9.27943 6.01511C9.27943 4.81493 8.29746 3.54201 7.35186 3.54201C6.87906 3.54201 6.73359 3.39653 6.9518 3.21468C7.13365 2.99647 7.93377 2.9601 8.77026 3.06921C9.97044 3.21468 10.2978 3.4329 10.6251 4.30576C10.9888 5.21499 11.207 5.36047 12.5163 5.36047C13.6074 5.36047 14.1165 5.17862 14.4439 4.63308C14.7712 4.12391 15.3167 3.9057 16.2259 3.9057C17.7534 3.9057 18.1535 4.26939 18.6627 6.16059C19.0264 7.46988 18.99 7.54262 18.1899 7.54262C17.0261 7.54262 16.1896 8.45185 16.1896 9.72477C16.1896 10.4158 15.7895 11.1432 14.9167 12.016C13.7892 13.1435 13.6437 13.5072 13.6437 15.1438C13.6437 18.417 15.7531 23.436 17.7171 24.7816C18.7718 25.509 20.1538 25.509 21.2085 24.7816C23.1725 23.436 25.2819 18.417 25.2819 15.1438C25.2819 13.5072 25.1364 13.1435 24.0089 12.016C23.1361 11.1432 22.736 10.4158 22.736 9.72477C22.736 8.45185 21.8995 7.54262 20.7357 7.54262C19.9356 7.54262 19.8992 7.46988 20.2629 6.16059C20.7721 4.26939 21.1722 3.9057 22.6997 3.9057C23.6089 3.9057 24.1544 4.12391 24.4817 4.63308C24.8091 5.17862 25.3182 5.36047 26.4093 5.36047C27.7186 5.36047 27.9368 5.21499 28.3005 4.30576C28.5915 3.46927 28.9552 3.21468 30.119 3.03284C30.9555 2.88736 31.7556 2.9601 31.9738 3.17831C32.2284 3.4329 32.0829 3.54201 31.5737 3.54201C30.6281 3.54201 29.6462 4.81493 29.6462 6.01511C29.6462 6.48791 29.1734 7.36077 28.5551 7.94268C26.6275 9.90661 26.7366 13.2889 28.9552 17.726C31.501 22.7813 34.8833 22.5267 37.4292 16.9986C39.4659 12.5616 39.4295 9.79751 37.2837 7.72446C36.5199 6.96071 36.1926 6.34243 36.1926 5.46957C36.1926 4.23302 35.4289 3.54201 34.0832 3.54201C33.6832 3.54201 33.174 3.32379 32.9558 3.06921C32.6648 2.66915 33.2467 2.37819 35.9017 1.57807C37.8292 0.996162 39.0658 0.450624 38.8839 0.26878C38.7021 0.0869331 37.211 0.341518 35.3198 0.887056C32.1193 1.79629 32.0465 1.79629 30.9555 1.14164C30.0462 0.596102 29.2097 0.486994 26.8094 0.559732C23.6816 0.632471 22.336 1.0689 21.1358 2.41456C20.2629 3.39653 18.6627 3.39653 17.7898 2.41456C16.5896 1.0689 15.244 0.632471 12.1162 0.559732C9.67949 0.486994 8.87937 0.596102 7.93377 1.14164C6.80632 1.83265 6.76996 1.83265 4.04227 1.0689C2.55113 0.632471 1.09636 0.159672 0.805409 0.0505638C0.514456 -0.0585442 0.150764 0.0141945 0.0416566 0.23241ZM11.2434 1.90539C10.9888 2.4873 9.09758 2.66915 8.77026 2.12361C8.51568 1.72355 9.13395 1.43259 10.4432 1.39622C11.1706 1.35986 11.3888 1.50533 11.2434 1.90539ZM16.1896 2.15998L17.4625 2.99647L16.1896 3.10558C15.3167 3.21468 14.8075 3.03284 14.4802 2.59641C13.4255 1.14164 14.262 0.959793 16.1896 2.15998ZM24.9182 1.65081C24.9182 2.56004 23.8998 3.21468 22.736 3.10558L21.4631 2.99647L22.736 2.15998C24.0453 1.35986 24.9182 1.14164 24.9182 1.65081ZM29.9371 1.68718C30.3372 1.94176 30.3008 2.05087 29.828 2.23272C28.8097 2.59641 27.9004 2.4873 27.6822 1.90539C27.5368 1.50533 27.755 1.35986 28.4824 1.35986C29.0279 1.35986 29.6825 1.50533 29.9371 1.68718ZM13.28 2.26908C13.6801 2.74188 13.571 2.81462 12.7709 2.81462C11.8616 2.81462 11.5707 2.45093 12.0799 1.97813C12.4435 1.57807 12.7709 1.68718 13.28 2.26908ZM27.0276 2.37819C27.1003 2.63278 26.773 2.81462 26.1911 2.81462C25.3182 2.81462 25.2455 2.74188 25.6456 2.26908C26.1547 1.65081 26.773 1.68718 27.0276 2.37819ZM13.4619 3.9057C14.1165 4.16028 14.1165 4.23302 13.571 4.45123C12.7345 4.77856 11.7525 4.56034 11.5343 3.97844C11.3888 3.46927 12.3344 3.4329 13.4619 3.9057ZM27.3913 3.97844C27.1731 4.56034 26.1911 4.77856 25.3546 4.45123C24.8454 4.26939 24.8454 4.19665 25.2819 3.9057C26.082 3.39653 27.5368 3.46927 27.3913 3.97844ZM19.8265 4.81493C19.8265 5.10588 19.681 5.36047 19.4628 5.36047C19.281 5.36047 19.0991 5.10588 19.0991 4.81493C19.0991 4.52397 19.281 4.26939 19.4628 4.26939C19.681 4.26939 19.8265 4.52397 19.8265 4.81493ZM5.27882 9.36108C5.16971 10.343 4.76965 11.4705 4.44233 11.8342C3.86042 12.4888 3.60584 13.3617 4.0059 13.3617C4.11501 13.3617 4.5878 12.9253 5.0606 12.3797L5.8971 11.3977L6.84269 12.4525C8.11561 13.9436 8.51568 13.3253 7.31549 11.7614C6.66085 10.8886 6.36989 10.0521 6.36989 9.03375C6.36989 7.61535 6.44263 7.54262 7.4246 7.54262C8.80663 7.54262 10.6251 9.07012 10.916 10.4522C11.1706 11.6887 10.3341 15.2893 9.3158 17.2896C8.44294 18.9989 6.84269 20.6355 5.96983 20.6355C3.96953 20.6355 1.31458 16.053 0.987255 12.0524C0.841779 9.87024 0.878148 9.72477 1.93285 8.67006C2.73298 7.83357 3.38762 7.54262 4.26048 7.54262H5.49703L5.27882 9.36108ZM32.5557 9.03375C32.5557 10.0521 32.2648 10.8886 31.6101 11.7614C30.4099 13.3253 30.81 13.9436 32.0829 12.4525L33.0285 11.3977L33.865 12.3797C35.247 13.98 35.6835 13.3253 34.3742 11.6523C33.9014 11.0341 33.6468 10.1612 33.6468 9.14286C33.6468 7.61535 33.6832 7.54262 34.7742 7.54262C35.538 7.54262 36.229 7.90631 36.9927 8.63369C38.0111 9.6884 38.0838 9.87024 37.9383 12.016C37.6838 15.9803 34.9561 20.6355 32.9194 20.6355C31.0646 20.6355 28.155 15.2529 28.0823 11.5796C28.0459 9.83388 28.155 9.54292 29.2097 8.59732C29.9371 7.94268 30.7736 7.54262 31.4646 7.54262C32.483 7.54262 32.5557 7.61535 32.5557 9.03375ZM19.0991 12.9616C19.0991 13.9436 18.8082 14.7437 18.1899 15.4711C17.317 16.5258 17.0261 17.3623 17.5352 17.3623C17.6807 17.3623 18.1899 16.9259 18.6263 16.344L19.4628 15.362L20.2993 16.344C20.7357 16.9259 21.2449 17.3623 21.3904 17.3623C21.8995 17.3623 21.6086 16.5258 20.7357 15.4711C20.1174 14.7437 19.8265 13.9436 19.8265 12.9616C19.8265 11.5796 19.8629 11.5432 21.0994 11.5432C22.6269 11.5432 24.0089 12.707 24.409 14.3073C25.2091 17.5078 21.7541 24.6361 19.3537 24.6361C17.1715 24.6361 13.7528 17.2896 14.5166 14.2345C14.9167 12.707 16.3351 11.5432 17.8262 11.5432C19.0627 11.5432 19.0991 11.5796 19.0991 12.9616Z" fill="black"/>
<path d="M2.07833 22.5624C1.6419 23.0352 1.38732 23.5443 1.53279 23.6534C1.78738 23.9444 3.46036 22.526 3.46036 22.0168C3.46036 21.4713 2.87845 21.7259 2.07833 22.5624Z" fill="black"/>
<path d="M8.18835 22.0172C8.18835 22.49 9.97044 24.0539 10.225 23.7993C10.516 23.5084 9.20669 21.7627 8.66115 21.7263C8.40657 21.7263 8.18835 21.8718 8.18835 22.0172Z" fill="black"/>
<path d="M29.1734 22.6719C28.7733 23.181 28.5915 23.6902 28.7006 23.7993C28.9552 24.0539 30.7373 22.49 30.7373 22.0172C30.7373 21.399 29.7917 21.799 29.1734 22.6719Z" fill="black"/>
<path d="M35.4652 22.0168C35.4652 22.526 37.1382 23.9444 37.3928 23.6534C37.5383 23.5443 37.2837 23.0352 36.8473 22.5624C36.0471 21.7259 35.4652 21.4713 35.4652 22.0168Z" fill="black"/>
<path d="M5.42431 22.9627C5.13335 23.7264 5.38794 24.7448 5.93348 24.9266C6.22443 24.9993 6.36991 24.672 6.36991 23.9446C6.36991 22.7445 5.75163 22.0898 5.42431 22.9627Z" fill="black"/>
<path d="M32.8103 22.7083C32.6648 22.8175 32.5557 23.3994 32.5557 23.9813C32.5557 25.2542 33.3922 25.2178 33.5741 23.9449C33.7195 23.0357 33.2104 22.2719 32.8103 22.7083Z" fill="black"/>
<path d="M15.7168 26.3817C15.0621 27.1091 14.9167 27.9092 15.3895 27.9092C15.8259 27.9092 16.917 26.6726 16.917 26.1635C16.917 25.5452 16.3714 25.6179 15.7168 26.3817Z" fill="black"/>
<path d="M22.0086 26.1998C22.0086 26.709 23.1361 27.9092 23.5725 27.9092C24.0817 27.9092 23.8271 26.9272 23.1725 26.3453C22.3723 25.5816 22.0086 25.5816 22.0086 26.1998Z" fill="black"/>
<path d="M19.0991 27.7271C19.0991 28.4181 19.281 29 19.4628 29C19.681 29 19.8265 28.4181 19.8265 27.7271C19.8265 27.0361 19.681 26.4542 19.4628 26.4542C19.281 26.4542 19.0991 27.0361 19.0991 27.7271Z" fill="black"/>
</svg>
