<svg width="39" height="48" viewBox="0 0 39 48" fill="none" xmlns="http://www.w3.org/2000/svg">
<path d="M3.92237 0.875465C2.82645 1.42342 1.65225 2.36279 1.33913 2.83247C1.02601 3.38042 0.712891 12.8523 0.712891 23.9681V44.1643L2.66989 46.043C4.54861 48 4.70517 48 19.5001 48C34.295 48 34.4515 48 36.3303 46.043L38.2873 44.1643V23.8115C38.2873 3.85011 38.2873 3.38042 36.5651 1.81483C35.6257 0.953747 34.4515 0.249226 34.0602 0.170948C33.5905 0.170948 27.015 0.0926666 19.5001 0.0143852C9.55853 -0.0638924 5.33141 0.170948 3.92237 0.875465ZM8.14949 24.1246C8.14949 45.5733 8.07121 46.4344 6.66217 46.4344C5.80109 46.4344 4.47033 45.8864 3.68753 45.1036C2.43505 43.9294 2.27849 42.2073 2.27849 24.3595C2.27849 12.3826 2.59161 4.2415 3.06129 3.30214C3.60925 2.44107 4.70517 1.81483 6.03593 1.81483H8.14949V24.1246ZM35.9389 3.30214C36.4085 4.2415 36.7217 12.4609 36.7217 24.4377C36.7217 48.3914 37.8959 46.4344 22.8661 46.4344C8.22777 46.4344 9.32368 48.2348 9.32368 23.9681C9.32368 7.13786 9.48024 4.47635 10.6544 3.22387C11.7504 1.97139 13.2377 1.81483 23.4924 1.81483C34.1384 1.81483 35.1561 1.97139 35.9389 3.30214Z" fill="black"/>
<path d="M21.614 6.19843C20.5964 7.21607 21.066 7.99887 22.6316 7.84231C23.4927 7.76403 24.119 7.37263 23.9624 6.98123C23.6493 5.96359 22.3185 5.57219 21.614 6.19843Z" fill="black"/>
<path d="M17.1516 24.1246V34.6924H23.0226C28.3456 34.6924 28.8936 34.5358 28.8936 33.1268C28.8936 32.2657 30.3026 30.3087 32.0248 28.7431C33.747 27.1775 35.156 25.6119 35.156 25.2205C35.156 24.8291 33.9035 22.9504 32.4162 20.9151C30.9289 18.9581 29.4416 16.5314 29.2067 15.4355C28.737 13.6351 28.4239 13.5568 22.9443 13.5568H17.1516V24.1246ZM20.6742 16.8446C20.9873 17.8622 22.2398 19.9758 23.4923 21.5414C24.7448 23.1069 25.7624 24.7508 25.7624 25.2205C25.7624 25.6119 24.7448 26.7078 23.414 27.6472C20.048 30.0739 20.3611 31.5612 24.1968 31.5612C25.919 31.5612 27.328 31.8743 27.328 32.344C27.328 32.7354 25.371 33.1268 23.0226 33.1268H18.7172V24.1246C18.7172 15.6704 19.5 12.8523 20.6742 16.8446ZM27.7194 16.688C28.0325 17.5491 29.4416 19.8192 30.8506 21.7762L33.5121 25.2205L30.7723 27.5689C29.285 28.8997 27.1714 29.9956 26.1538 29.9956C24.0402 29.9956 23.5706 28.8997 25.2144 27.882C25.6841 27.5689 26.6235 26.6295 27.2497 25.8467C28.1891 24.5943 28.1108 24.2029 26.3886 22.3241C24.0402 19.8192 21.8484 16.6097 21.8484 15.7486C21.8484 15.3572 23.0226 15.1224 24.5099 15.1224C26.5452 15.1224 27.328 15.5138 27.7194 16.688Z" fill="black"/>
<path d="M21.0659 40.172C21.0659 40.5634 21.5356 40.9548 22.1618 40.9548C22.7881 40.9548 23.5709 40.5634 23.8057 40.172C24.0406 39.7024 23.5709 39.3892 22.7098 39.3892C21.7704 39.3892 21.0659 39.7024 21.0659 40.172Z" fill="black"/>
</svg>
