<svg width="59" height="42" viewBox="0 0 59 42" fill="none" xmlns="http://www.w3.org/2000/svg">
<path d="M2.81677 1.34053C2.13161 1.64505 1.25613 2.25408 0.799355 2.67279C0 3.43408 0 3.58634 0 22.238V41.0799L26.569 41.156C41.1477 41.1941 53.671 41.1941 54.3561 41.156C55.0413 41.118 56.3736 40.6612 57.2871 40.0902L59 39.1005L58.9239 19.9921L58.8097 0.921822L31.4032 0.845695C7.30839 0.769566 3.84452 0.807629 2.81677 1.34053ZM55.9548 2.4444C55.5361 2.93924 52.0342 3.01537 28.5865 3.01537C5.10065 2.97731 1.8271 2.90118 2.66452 2.4444C3.46387 1.98763 7.84129 1.9115 30.0329 1.87344C53.4426 1.87344 56.3736 1.94957 55.9548 2.4444ZM57.9342 38.3012C57.8581 38.5296 57.3632 39.0244 56.8684 39.367L55.9548 39.938L55.9168 27.1102C55.9168 20.0302 55.8406 11.9986 55.7265 9.29602C55.6503 6.55537 55.6884 4.15731 55.8406 3.92892C56.031 3.70053 56.4877 3.31989 56.9065 3.0915C57.6677 2.67279 57.6677 2.82505 57.8581 20.2586C57.9723 29.927 57.9723 38.0347 57.9342 38.3012ZM54.8129 22.0476V39.938H27.9774H1.14194V22.0476V4.15731H27.9774H54.8129V22.0476Z" fill="black"/>
<path d="M5.59067 9.37173C5.43841 9.48592 5.32422 15.3098 5.32422 22.2756C5.32422 33.5808 5.40035 34.9511 5.93325 35.1414C6.65648 35.4079 46.7384 35.3698 48.832 35.1034L50.2404 34.913V22.2375V9.56205L49.4029 9.33367C48.2229 9.02915 5.89519 9.02915 5.59067 9.37173ZM49.4791 22.2375V34.2279H27.7823H6.08551V33.0859C6.08551 31.7917 6.65648 31.5634 7.03712 32.7053C7.26551 33.4666 7.60809 33.4666 27.4016 33.4666C46.9287 33.4666 47.5758 33.4285 47.9565 32.7434C48.4133 31.8679 48.4894 11.9221 48.0326 11.6175C47.8042 11.5033 10.1203 11.2369 7.53196 11.3511C6.92293 11.3892 6.8468 11.8079 6.80874 14.5104C6.73261 19.7633 6.16164 20.1059 6.12357 14.8911L6.08551 10.2472H27.7823H49.4791V22.2375ZM20.1694 13.1401C20.1694 14.3962 18.2281 29.8124 18.0758 30.0027C17.8474 30.2311 6.54228 30.2311 6.3139 30.0027C6.08551 29.8124 7.83648 13.673 8.17906 12.6072C8.29325 12.2646 9.8539 12.1504 14.2694 12.1504H20.1694V13.1401ZM33.6823 13.3685C33.5681 14.0537 33.1494 17.4414 32.7307 20.9053C32.312 24.3692 31.8552 27.833 31.741 28.5943L31.5126 30.0408H25.4604C22.1487 30.0408 19.4081 29.9266 19.4081 29.7363C19.4081 29.584 19.8268 25.8917 20.3597 21.4763C20.8926 17.0608 21.3113 13.1782 21.3113 12.7975C21.3113 12.2266 21.8823 12.1504 27.592 12.1504H33.9107L33.6823 13.3685ZM46.4339 12.9879C46.4339 13.4827 46.0152 17.2892 45.4823 21.4763C44.9494 25.6634 44.5307 29.3175 44.5307 29.5459C44.5307 29.9266 43.0842 30.0408 38.6307 30.0408C34.1771 30.0408 32.7307 29.9266 32.7307 29.5459C32.7307 29.3175 33.1494 25.3969 33.6823 20.9053C34.2152 16.4137 34.6339 12.6072 34.6339 12.4169C34.6339 12.2646 37.2984 12.1504 40.5339 12.1504C46.3958 12.1504 46.4339 12.1504 46.4339 12.9879ZM47.1191 28.2137L47.0049 32.0201L46.1675 31.335L45.292 30.6117L46.1675 23.3795L47.0049 16.1472L47.1191 20.2582C47.1571 22.504 47.1571 26.0821 47.1191 28.2137ZM19.4081 31.7537C19.8268 32.2485 19.1797 32.3246 13.9649 32.3246C9.2068 32.3246 7.98874 32.2105 7.60809 31.7537C7.18938 31.2588 7.83648 31.1827 13.0513 31.1827C17.8094 31.1827 19.0274 31.2969 19.4081 31.7537ZM32.35 31.7537C32.7687 32.2485 32.1597 32.3246 27.1352 32.3246C22.7197 32.3246 21.2733 32.2105 20.7023 31.7537C20.0552 31.2588 20.6262 31.2208 25.9171 31.1827C30.7513 31.1827 31.9694 31.2969 32.35 31.7537ZM45.4062 31.7156C45.7487 31.9821 46.0533 32.3627 46.0533 32.515C46.0533 32.6672 43.541 32.7053 40.4958 32.553C36.4991 32.4008 34.71 32.1724 34.1391 31.7537C33.4158 31.2208 33.8345 31.1827 39.0113 31.1827C43.1604 31.2208 44.9113 31.335 45.4062 31.7156Z" fill="black"/>
<path d="M11.7939 14.6243C11.7939 15.1192 12.2127 15.1953 14.1539 15.1192C15.6004 15.0431 16.552 14.8147 16.6662 14.5101C16.7804 14.1676 16.1333 14.0534 14.3062 14.0534C12.2888 14.0534 11.7939 14.1676 11.7939 14.6243Z" fill="black"/>
<path d="M25.1211 14.2054C25.1211 14.7003 25.5779 14.8145 27.2527 14.8145C30.0314 14.8145 29.9172 13.9009 27.1004 13.7486C25.5017 13.6725 25.1211 13.7486 25.1211 14.2054Z" fill="black"/>
<path d="M38.1245 14.1279C38.2387 14.4325 39.1142 14.6608 40.2561 14.737C41.8548 14.8131 42.2354 14.737 42.2354 14.2802C42.2354 13.7854 41.7787 13.6712 40.1038 13.6712C38.5812 13.6712 38.0103 13.8234 38.1245 14.1279Z" fill="black"/>
</svg>
