<svg width="21" height="28" viewBox="0 0 21 28" fill="none" xmlns="http://www.w3.org/2000/svg">
<path d="M9.96188 0.174917C9.44976 0.415915 8.36527 1.52048 8.1544 2.01252C7.93349 2.5648 7.96361 3.18738 8.24477 3.71958L8.47573 4.16141L5.31265 7.62573L2.13952 11.08L1.56716 11.0499C0.683501 10.9896 0.201507 11.3311 0.0207599 12.1143C-0.129863 12.8172 0.563003 13.6406 1.32616 13.6406C1.52699 13.6406 1.61736 13.7109 1.71778 13.9619C2.09936 14.8757 5.11182 22.1558 5.74443 23.6821L6.47746 25.4394L5.64402 25.4997C4.99132 25.5499 4.71016 25.6202 4.34866 25.831C3.72608 26.1925 3.36459 26.7549 3.30434 27.4578L3.26417 28L10.6246 27.9799L17.9951 27.9498L17.9851 27.4778C17.9851 26.8051 17.5432 26.1323 16.8905 25.8009C16.4788 25.58 16.2278 25.5298 15.4144 25.5097C14.6714 25.4796 14.4304 25.4394 14.4304 25.339C14.4304 25.2587 14.2998 25.0779 14.1492 24.9172L13.858 24.6361L14.099 24.1039C14.3801 23.4512 14.3902 23.2805 14.1291 23.2805C13.9684 23.2805 13.858 23.4311 13.6672 23.883C13.4362 24.4152 13.366 24.4855 13.0547 24.5457C12.6932 24.616 12.1208 25.108 12.1208 25.349C12.1208 25.4695 11.7091 25.4896 9.5803 25.4896H7.02975L4.54949 19.5049L2.07927 13.5302L2.34035 13.1787C2.62152 12.8172 2.70185 12.2348 2.54118 11.7227C2.47089 11.4716 2.71189 11.1905 5.65406 7.97719C7.41133 6.0693 8.86735 4.5229 8.89747 4.55302C8.91756 4.58315 8.83722 4.79402 8.70668 5.03502C8.3954 5.57726 8.38535 6.30025 8.67656 6.86258C8.87739 7.24416 13.7977 12.2348 13.9684 12.2348C14.0086 12.2348 14.3601 11.9335 14.7517 11.562L15.4446 10.8892L16.268 10.8792C17.1817 10.8792 17.5432 10.7386 18.1256 10.1863C18.708 9.64408 18.8988 9.18217 18.8988 8.24831V7.43494L19.5817 6.722C20.144 6.13959 20.2444 5.98896 20.1641 5.83834C19.9733 5.48689 15.1835 0.807533 14.832 0.636827C14.35 0.38579 13.5367 0.415915 13.0346 0.697077L12.6329 0.91799L12.3016 0.636827C11.5384 -0.00583076 10.7049 -0.166494 9.96188 0.174917ZM11.4681 0.64687C11.6489 0.727201 11.8999 0.907949 12.0204 1.03849C12.2112 1.24936 12.2313 1.30961 12.1208 1.44015C12.0003 1.58073 11.9601 1.57069 11.6991 1.31965C11.438 1.07866 11.3978 1.05857 11.2572 1.19915C11.1167 1.33974 11.1267 1.38994 11.3576 1.66106C11.5786 1.92214 11.5986 1.98239 11.4781 2.09285C11.3576 2.18322 11.2673 2.16314 11.0363 1.99243C10.5543 1.63094 10.3234 1.92214 10.7351 2.36397C10.9359 2.58488 10.9459 2.61501 10.7853 2.76563C10.6347 2.9263 10.6045 2.91626 10.3736 2.70538C10.1225 2.46439 9.81125 2.47443 9.81125 2.71542C9.81125 2.77567 9.91167 2.93634 10.0221 3.06688C10.2029 3.25767 10.223 3.31792 10.1125 3.44846C9.992 3.58904 9.96188 3.58904 9.76104 3.39825C9.30918 2.9765 8.9276 3.24763 9.34934 3.68945C9.59034 3.94049 9.60038 3.98066 9.4598 4.10116C9.32926 4.21161 9.25897 4.19153 9.03805 3.9907C8.53598 3.51875 8.35523 2.66522 8.64643 2.11293C8.83722 1.75144 9.90163 0.717159 10.2129 0.596661C10.5945 0.446039 11.0966 0.466122 11.4681 0.64687ZM14.3801 0.998323C14.7115 1.0887 15.2036 1.53052 17.1717 3.47858C18.4771 4.78398 19.5515 5.89859 19.5515 5.95884C19.5515 6.00905 18.2963 7.31445 16.76 8.8508L13.9684 11.6323L11.4982 9.15205C9.24893 6.88266 9.02801 6.62158 8.95772 6.24C8.83722 5.50697 9.0983 5.13543 11.1869 3.06688C12.5727 1.69119 13.1952 1.1389 13.4865 1.03849C13.9684 0.867783 13.8982 0.867783 14.3801 0.998323ZM18.3466 8.95122C18.1056 9.76458 17.2219 10.4173 16.3382 10.4273H15.8864L17.1416 9.17213L18.3968 7.9069L18.4269 8.23827C18.447 8.41901 18.4168 8.74034 18.3466 8.95122ZM1.94873 11.793C2.44077 12.285 2.04915 13.1385 1.3362 13.1385C0.793958 13.1285 0.41238 12.6565 0.522837 12.1243C0.663418 11.5118 1.47678 11.321 1.94873 11.793ZM13.7977 25.2085C14.0488 25.4193 13.9182 25.4896 13.2756 25.4896C12.7233 25.4896 12.643 25.4695 12.6932 25.329C12.8137 25.0076 13.4664 24.9373 13.7977 25.2085ZM16.6094 26.2026C17.0211 26.4034 17.5432 27.0661 17.5432 27.3774C17.5432 27.4678 15.8261 27.4979 10.6648 27.4979C4.03737 27.4979 3.78633 27.4879 3.78633 27.3071C3.78633 26.9858 4.22816 26.4536 4.69007 26.2126L5.1319 25.9917H10.6547C16.0571 25.9917 16.1876 25.9917 16.6094 26.2026Z" fill="black"/>
</svg>
