<svg width="37" height="52" viewBox="0 0 37 52" fill="none" xmlns="http://www.w3.org/2000/svg">
<mask id="path-1-outside-1_392_10405" maskUnits="userSpaceOnUse" x="-0.164818" y="0.5" width="38" height="51" fill="black">
<rect fill="white" x="-0.164818" y="0.5" width="38" height="51"/>
<path d="M18.2685 1.80611C17.3723 2.22785 15.4744 4.16085 15.1054 5.02191C14.7188 5.9884 14.7715 7.07791 15.2635 8.00926L15.6677 8.78246L10.1323 14.845L4.57935 20.89L3.5777 20.8373C2.03131 20.7319 1.18782 21.3294 0.871512 22.7C0.607922 23.9301 1.82044 25.3711 3.15596 25.3711C3.50741 25.3711 3.66557 25.4941 3.84129 25.9334C4.50906 27.5325 9.78086 40.2727 10.8879 42.9437L12.1707 46.019L10.7122 46.1244C9.56999 46.2123 9.07795 46.3353 8.44534 46.7043C7.35583 47.3369 6.72321 48.321 6.61778 49.5511L6.54749 50.5L19.4283 50.4649L32.3266 50.4121L32.309 49.5862C32.309 48.4089 31.5358 47.2315 30.3936 46.6516C29.6731 46.265 29.2338 46.1771 27.8104 46.142C26.51 46.0893 26.0883 46.019 26.0883 45.8432C26.0883 45.7027 25.8599 45.3864 25.5963 45.1052L25.0867 44.6132L25.5084 43.6818C26.0004 42.5396 26.018 42.2408 25.5611 42.2408C25.28 42.2408 25.0867 42.5044 24.7528 43.2952C24.3486 44.2266 24.2256 44.3496 23.6808 44.455C23.0482 44.578 22.0466 45.4391 22.0466 45.8608C22.0466 46.0717 21.3261 46.1068 17.6007 46.1068H13.1372L8.79679 35.6335L4.47391 25.1778L4.9308 24.5627C5.42284 23.9301 5.56342 22.9109 5.28225 22.0147C5.15925 21.5754 5.58099 21.0833 10.7298 15.4601C13.805 12.1213 16.353 9.41508 16.4058 9.4678C16.4409 9.52051 16.3003 9.88954 16.0719 10.3113C15.5271 11.2602 15.5096 12.5254 16.0192 13.5095C16.3706 14.1773 24.9812 22.9109 25.28 22.9109C25.3503 22.9109 25.9653 22.3837 26.6506 21.7335L27.8631 20.5562L29.3041 20.5386C30.9032 20.5386 31.5358 20.2926 32.5551 19.3261C33.5743 18.3771 33.9081 17.5688 33.9081 15.9345V14.5112L35.1031 13.2635C36.0872 12.2443 36.2629 11.9807 36.1223 11.7171C35.7884 11.1021 27.4063 2.91319 26.7912 2.61445C25.9477 2.17513 24.5243 2.22785 23.6457 2.71989L22.9428 3.10649L22.3629 2.61445C21.0274 1.4898 19.5688 1.20864 18.2685 1.80611ZM20.9044 2.63202C21.2207 2.77261 21.66 3.08891 21.8709 3.31736C22.2047 3.68638 22.2399 3.79182 22.0466 4.02026C21.8357 4.26628 21.7654 4.24871 21.3085 3.80939C20.8516 3.38765 20.7814 3.3525 20.5353 3.59852C20.2893 3.84454 20.3069 3.9324 20.7111 4.40686C21.0977 4.86375 21.1328 4.96919 20.9219 5.16249C20.7111 5.32064 20.5529 5.2855 20.1487 4.98676C19.3053 4.35415 18.9011 4.86375 19.6216 5.63695C19.973 6.02355 19.9906 6.07627 19.7094 6.33986C19.4458 6.62102 19.3931 6.60345 18.9889 6.23442C18.5496 5.81268 18.0049 5.83025 18.0049 6.252C18.0049 6.35743 18.1806 6.6386 18.3739 6.86704C18.6902 7.20092 18.7254 7.30635 18.5321 7.5348C18.3212 7.78082 18.2685 7.78082 17.917 7.44694C17.1262 6.70889 16.4585 7.18335 17.1965 7.95655C17.6183 8.39586 17.6358 8.46615 17.3898 8.67702C17.1614 8.87032 17.0384 8.83518 16.6518 8.48373C15.7731 7.65781 15.4568 6.16413 15.9664 5.19764C16.3003 4.56502 18.163 2.75503 18.7078 2.54416C19.3755 2.28057 20.2542 2.31572 20.9044 2.63202ZM26.0004 3.24707C26.5803 3.40522 27.4414 4.17842 30.8856 7.58752C33.1701 9.87197 35.0504 11.8225 35.0504 11.928C35.0504 12.0158 32.8538 14.3003 30.1652 16.9889L25.28 21.8565L20.9571 17.5161C17.0208 13.5447 16.6342 13.0878 16.5112 12.42C16.3003 11.1372 16.7572 10.487 20.4123 6.86704C22.8374 4.45958 23.9269 3.49308 24.4365 3.31736C25.28 3.01862 25.157 3.01862 26.0004 3.24707ZM32.9417 17.1646C32.5199 18.588 30.9735 19.7302 29.4271 19.7478H28.6363L30.8329 17.5512L33.0295 15.3371L33.0822 15.917C33.1174 16.2333 33.0647 16.7956 32.9417 17.1646ZM4.24547 22.1377C5.10653 22.9988 4.42119 24.4924 3.17353 24.4924C2.22461 24.4749 1.55685 23.6489 1.75015 22.7176C1.99616 21.6457 3.41955 21.3118 4.24547 22.1377ZM24.9812 45.6148C25.4205 45.9838 25.1921 46.1068 24.0674 46.1068C23.101 46.1068 22.9604 46.0717 23.0482 45.8257C23.2591 45.2633 24.4013 45.1403 24.9812 45.6148ZM29.9016 47.3545C30.6221 47.7059 31.5358 48.8657 31.5358 49.4105C31.5358 49.5686 28.5309 49.6214 19.4986 49.6214C7.90058 49.6214 7.46127 49.6038 7.46127 49.2875C7.46127 48.7252 8.23446 47.7938 9.04281 47.3721L9.81601 46.9855H19.481C28.9351 46.9855 29.1635 46.9855 29.9016 47.3545Z"/>
</mask>
<path d="M18.2685 1.80611C17.3723 2.22785 15.4744 4.16085 15.1054 5.02191C14.7188 5.9884 14.7715 7.07791 15.2635 8.00926L15.6677 8.78246L10.1323 14.845L4.57935 20.89L3.5777 20.8373C2.03131 20.7319 1.18782 21.3294 0.871512 22.7C0.607922 23.9301 1.82044 25.3711 3.15596 25.3711C3.50741 25.3711 3.66557 25.4941 3.84129 25.9334C4.50906 27.5325 9.78086 40.2727 10.8879 42.9437L12.1707 46.019L10.7122 46.1244C9.56999 46.2123 9.07795 46.3353 8.44534 46.7043C7.35583 47.3369 6.72321 48.321 6.61778 49.5511L6.54749 50.5L19.4283 50.4649L32.3266 50.4121L32.309 49.5862C32.309 48.4089 31.5358 47.2315 30.3936 46.6516C29.6731 46.265 29.2338 46.1771 27.8104 46.142C26.51 46.0893 26.0883 46.019 26.0883 45.8432C26.0883 45.7027 25.8599 45.3864 25.5963 45.1052L25.0867 44.6132L25.5084 43.6818C26.0004 42.5396 26.018 42.2408 25.5611 42.2408C25.28 42.2408 25.0867 42.5044 24.7528 43.2952C24.3486 44.2266 24.2256 44.3496 23.6808 44.455C23.0482 44.578 22.0466 45.4391 22.0466 45.8608C22.0466 46.0717 21.3261 46.1068 17.6007 46.1068H13.1372L8.79679 35.6335L4.47391 25.1778L4.9308 24.5627C5.42284 23.9301 5.56342 22.9109 5.28225 22.0147C5.15925 21.5754 5.58099 21.0833 10.7298 15.4601C13.805 12.1213 16.353 9.41508 16.4058 9.4678C16.4409 9.52051 16.3003 9.88954 16.0719 10.3113C15.5271 11.2602 15.5096 12.5254 16.0192 13.5095C16.3706 14.1773 24.9812 22.9109 25.28 22.9109C25.3503 22.9109 25.9653 22.3837 26.6506 21.7335L27.8631 20.5562L29.3041 20.5386C30.9032 20.5386 31.5358 20.2926 32.5551 19.3261C33.5743 18.3771 33.9081 17.5688 33.9081 15.9345V14.5112L35.1031 13.2635C36.0872 12.2443 36.2629 11.9807 36.1223 11.7171C35.7884 11.1021 27.4063 2.91319 26.7912 2.61445C25.9477 2.17513 24.5243 2.22785 23.6457 2.71989L22.9428 3.10649L22.3629 2.61445C21.0274 1.4898 19.5688 1.20864 18.2685 1.80611ZM20.9044 2.63202C21.2207 2.77261 21.66 3.08891 21.8709 3.31736C22.2047 3.68638 22.2399 3.79182 22.0466 4.02026C21.8357 4.26628 21.7654 4.24871 21.3085 3.80939C20.8516 3.38765 20.7814 3.3525 20.5353 3.59852C20.2893 3.84454 20.3069 3.9324 20.7111 4.40686C21.0977 4.86375 21.1328 4.96919 20.9219 5.16249C20.7111 5.32064 20.5529 5.2855 20.1487 4.98676C19.3053 4.35415 18.9011 4.86375 19.6216 5.63695C19.973 6.02355 19.9906 6.07627 19.7094 6.33986C19.4458 6.62102 19.3931 6.60345 18.9889 6.23442C18.5496 5.81268 18.0049 5.83025 18.0049 6.252C18.0049 6.35743 18.1806 6.6386 18.3739 6.86704C18.6902 7.20092 18.7254 7.30635 18.5321 7.5348C18.3212 7.78082 18.2685 7.78082 17.917 7.44694C17.1262 6.70889 16.4585 7.18335 17.1965 7.95655C17.6183 8.39586 17.6358 8.46615 17.3898 8.67702C17.1614 8.87032 17.0384 8.83518 16.6518 8.48373C15.7731 7.65781 15.4568 6.16413 15.9664 5.19764C16.3003 4.56502 18.163 2.75503 18.7078 2.54416C19.3755 2.28057 20.2542 2.31572 20.9044 2.63202ZM26.0004 3.24707C26.5803 3.40522 27.4414 4.17842 30.8856 7.58752C33.1701 9.87197 35.0504 11.8225 35.0504 11.928C35.0504 12.0158 32.8538 14.3003 30.1652 16.9889L25.28 21.8565L20.9571 17.5161C17.0208 13.5447 16.6342 13.0878 16.5112 12.42C16.3003 11.1372 16.7572 10.487 20.4123 6.86704C22.8374 4.45958 23.9269 3.49308 24.4365 3.31736C25.28 3.01862 25.157 3.01862 26.0004 3.24707ZM32.9417 17.1646C32.5199 18.588 30.9735 19.7302 29.4271 19.7478H28.6363L30.8329 17.5512L33.0295 15.3371L33.0822 15.917C33.1174 16.2333 33.0647 16.7956 32.9417 17.1646ZM4.24547 22.1377C5.10653 22.9988 4.42119 24.4924 3.17353 24.4924C2.22461 24.4749 1.55685 23.6489 1.75015 22.7176C1.99616 21.6457 3.41955 21.3118 4.24547 22.1377ZM24.9812 45.6148C25.4205 45.9838 25.1921 46.1068 24.0674 46.1068C23.101 46.1068 22.9604 46.0717 23.0482 45.8257C23.2591 45.2633 24.4013 45.1403 24.9812 45.6148ZM29.9016 47.3545C30.6221 47.7059 31.5358 48.8657 31.5358 49.4105C31.5358 49.5686 28.5309 49.6214 19.4986 49.6214C7.90058 49.6214 7.46127 49.6038 7.46127 49.2875C7.46127 48.7252 8.23446 47.7938 9.04281 47.3721L9.81601 46.9855H19.481C28.9351 46.9855 29.1635 46.9855 29.9016 47.3545Z" fill="black"/>
<path d="M18.2685 1.80611C17.3723 2.22785 15.4744 4.16085 15.1054 5.02191C14.7188 5.9884 14.7715 7.07791 15.2635 8.00926L15.6677 8.78246L10.1323 14.845L4.57935 20.89L3.5777 20.8373C2.03131 20.7319 1.18782 21.3294 0.871512 22.7C0.607922 23.9301 1.82044 25.3711 3.15596 25.3711C3.50741 25.3711 3.66557 25.4941 3.84129 25.9334C4.50906 27.5325 9.78086 40.2727 10.8879 42.9437L12.1707 46.019L10.7122 46.1244C9.56999 46.2123 9.07795 46.3353 8.44534 46.7043C7.35583 47.3369 6.72321 48.321 6.61778 49.5511L6.54749 50.5L19.4283 50.4649L32.3266 50.4121L32.309 49.5862C32.309 48.4089 31.5358 47.2315 30.3936 46.6516C29.6731 46.265 29.2338 46.1771 27.8104 46.142C26.51 46.0893 26.0883 46.019 26.0883 45.8432C26.0883 45.7027 25.8599 45.3864 25.5963 45.1052L25.0867 44.6132L25.5084 43.6818C26.0004 42.5396 26.018 42.2408 25.5611 42.2408C25.28 42.2408 25.0867 42.5044 24.7528 43.2952C24.3486 44.2266 24.2256 44.3496 23.6808 44.455C23.0482 44.578 22.0466 45.4391 22.0466 45.8608C22.0466 46.0717 21.3261 46.1068 17.6007 46.1068H13.1372L8.79679 35.6335L4.47391 25.1778L4.9308 24.5627C5.42284 23.9301 5.56342 22.9109 5.28225 22.0147C5.15925 21.5754 5.58099 21.0833 10.7298 15.4601C13.805 12.1213 16.353 9.41508 16.4058 9.4678C16.4409 9.52051 16.3003 9.88954 16.0719 10.3113C15.5271 11.2602 15.5096 12.5254 16.0192 13.5095C16.3706 14.1773 24.9812 22.9109 25.28 22.9109C25.3503 22.9109 25.9653 22.3837 26.6506 21.7335L27.8631 20.5562L29.3041 20.5386C30.9032 20.5386 31.5358 20.2926 32.5551 19.3261C33.5743 18.3771 33.9081 17.5688 33.9081 15.9345V14.5112L35.1031 13.2635C36.0872 12.2443 36.2629 11.9807 36.1223 11.7171C35.7884 11.1021 27.4063 2.91319 26.7912 2.61445C25.9477 2.17513 24.5243 2.22785 23.6457 2.71989L22.9428 3.10649L22.3629 2.61445C21.0274 1.4898 19.5688 1.20864 18.2685 1.80611ZM20.9044 2.63202C21.2207 2.77261 21.66 3.08891 21.8709 3.31736C22.2047 3.68638 22.2399 3.79182 22.0466 4.02026C21.8357 4.26628 21.7654 4.24871 21.3085 3.80939C20.8516 3.38765 20.7814 3.3525 20.5353 3.59852C20.2893 3.84454 20.3069 3.9324 20.7111 4.40686C21.0977 4.86375 21.1328 4.96919 20.9219 5.16249C20.7111 5.32064 20.5529 5.2855 20.1487 4.98676C19.3053 4.35415 18.9011 4.86375 19.6216 5.63695C19.973 6.02355 19.9906 6.07627 19.7094 6.33986C19.4458 6.62102 19.3931 6.60345 18.9889 6.23442C18.5496 5.81268 18.0049 5.83025 18.0049 6.252C18.0049 6.35743 18.1806 6.6386 18.3739 6.86704C18.6902 7.20092 18.7254 7.30635 18.5321 7.5348C18.3212 7.78082 18.2685 7.78082 17.917 7.44694C17.1262 6.70889 16.4585 7.18335 17.1965 7.95655C17.6183 8.39586 17.6358 8.46615 17.3898 8.67702C17.1614 8.87032 17.0384 8.83518 16.6518 8.48373C15.7731 7.65781 15.4568 6.16413 15.9664 5.19764C16.3003 4.56502 18.163 2.75503 18.7078 2.54416C19.3755 2.28057 20.2542 2.31572 20.9044 2.63202ZM26.0004 3.24707C26.5803 3.40522 27.4414 4.17842 30.8856 7.58752C33.1701 9.87197 35.0504 11.8225 35.0504 11.928C35.0504 12.0158 32.8538 14.3003 30.1652 16.9889L25.28 21.8565L20.9571 17.5161C17.0208 13.5447 16.6342 13.0878 16.5112 12.42C16.3003 11.1372 16.7572 10.487 20.4123 6.86704C22.8374 4.45958 23.9269 3.49308 24.4365 3.31736C25.28 3.01862 25.157 3.01862 26.0004 3.24707ZM32.9417 17.1646C32.5199 18.588 30.9735 19.7302 29.4271 19.7478H28.6363L30.8329 17.5512L33.0295 15.3371L33.0822 15.917C33.1174 16.2333 33.0647 16.7956 32.9417 17.1646ZM4.24547 22.1377C5.10653 22.9988 4.42119 24.4924 3.17353 24.4924C2.22461 24.4749 1.55685 23.6489 1.75015 22.7176C1.99616 21.6457 3.41955 21.3118 4.24547 22.1377ZM24.9812 45.6148C25.4205 45.9838 25.1921 46.1068 24.0674 46.1068C23.101 46.1068 22.9604 46.0717 23.0482 45.8257C23.2591 45.2633 24.4013 45.1403 24.9812 45.6148ZM29.9016 47.3545C30.6221 47.7059 31.5358 48.8657 31.5358 49.4105C31.5358 49.5686 28.5309 49.6214 19.4986 49.6214C7.90058 49.6214 7.46127 49.6038 7.46127 49.2875C7.46127 48.7252 8.23446 47.7938 9.04281 47.3721L9.81601 46.9855H19.481C28.9351 46.9855 29.1635 46.9855 29.9016 47.3545Z" stroke="black" stroke-width="1.4" mask="url(#path-1-outside-1_392_10405)"/>
</svg>
