<svg width="41" height="50" viewBox="0 0 41 50" fill="none" xmlns="http://www.w3.org/2000/svg">
<path d="M8.54892 0.98595C8.26545 1.26942 8.06297 1.95785 8.06297 2.56529C8.06297 4.83306 9.35884 13.7017 9.88528 14.957C10.6142 16.7388 12.6795 17.9132 14.9473 17.9132C16.5266 17.9132 16.8506 18.0752 17.2555 19.0066C17.701 19.938 17.6605 20.1405 16.9721 20.6264C16.5266 20.9504 16.1621 21.4769 16.1621 21.8008C16.1621 22.2058 15.5952 22.3678 13.8539 22.3678C9.80429 22.3678 6.84809 23.0562 5.26875 24.3116C3.48694 25.7289 -0.238683 33.7066 0.166276 35.205C0.409251 36.2579 2.19107 36.8653 3.16297 36.2579C3.48694 36.0554 4.62082 33.9901 5.63322 31.6818C7.01008 28.6041 7.739 27.4298 8.42743 27.1463C8.95388 26.9843 9.43983 26.8628 9.52082 26.9438C9.60181 26.9843 9.27784 28.2397 8.83239 29.657C7.86049 32.8562 7.69851 37.5537 8.58942 39.1736C9.15636 40.3074 9.11586 40.3884 7.81999 41.6438C6.64561 42.6967 6.44313 43.1826 6.44313 44.681C6.44313 45.6934 6.72661 46.9083 7.09107 47.4347C8.46793 49.3785 9.39933 49.5 25.0307 49.5C33.0489 49.5 39.8522 49.3785 40.2167 49.257C40.7836 49.014 40.8646 46.5033 40.8646 24.757V0.5H24.9497C13.125 0.5 8.91338 0.621487 8.54892 0.98595ZM21.6291 3.01074C21.7911 3.98264 22.6415 7.3438 23.4919 10.5025C24.3828 13.6612 25.0712 16.4149 25.0712 16.6579C25.0712 16.9413 23.2489 17.1033 19.5638 17.1033C11.8696 17.1033 11.0192 16.6579 10.1283 11.8388C9.60181 9.12562 8.91338 2.03884 9.15636 1.59339C9.23735 1.4314 12.0316 1.30992 15.3522 1.30992H21.3456L21.6291 3.01074ZM40.0547 24.7975V48.2851H24.7473C7.81999 48.2851 7.94148 48.2851 7.45553 45.6934C7.21256 44.5595 7.86049 42.3727 8.58942 41.7248C8.62991 41.6843 12.8415 41.5223 17.9845 41.4008L27.2985 41.1983L28.1894 39.538C30.2952 35.6909 29.7687 28.6446 26.4481 17.3868C24.0993 9.3281 22.6415 3.65868 22.6415 2.36281V1.30992H31.3481H40.0547V24.7975ZM20.9407 18.6017C20.7787 19.4926 19.1588 19.776 18.3894 19.1281C17.4985 18.3992 18.025 17.9132 19.6448 17.9132C20.7787 17.9132 21.0621 18.0752 20.9407 18.6017ZM25.8407 18.8041C26.0431 19.3306 26.3266 20.343 26.4886 21.0314L26.7721 22.3678H24.9092C23.8968 22.3678 23.0464 22.1653 23.0464 21.9628C23.0464 21.7198 22.682 21.1934 22.2365 20.7479C21.5481 20.0595 21.5076 19.776 21.9126 18.9256C22.277 18.1157 22.6415 17.9132 23.9373 17.9132C25.1927 17.9132 25.5572 18.1157 25.8407 18.8041ZM21.6291 21.5578C22.358 22.3678 22.3175 22.3678 19.6853 22.3678C16.9721 22.3678 16.3241 21.9628 17.701 21.1934C18.8754 20.505 20.8192 20.6669 21.6291 21.5578ZM9.80429 24.6355C9.92578 25.3645 9.80429 25.7289 9.31834 25.8504C7.17206 26.4983 6.64561 27.1463 4.7828 31.2769C3.36545 34.476 2.71751 35.5289 2.15057 35.5289C0.895201 35.5289 1.01669 34.1521 2.63652 30.5074C4.70181 25.8099 5.14727 25.2025 7.05057 24.3521C9.19685 23.3397 9.56132 23.3802 9.80429 24.6355ZM27.42 24.676L27.5415 25.6074H19.2803C12.0721 25.6074 10.9382 25.5264 10.7357 24.9595C10.6142 24.595 10.6142 24.1496 10.7357 23.9471C10.8572 23.7446 14.3803 23.6231 19.1183 23.6636C27.258 23.7851 27.2985 23.7851 27.42 24.676ZM28.1489 28.5231C28.6754 32.4512 28.4324 36.7033 27.582 38.6876L26.7721 40.5504L19.1183 40.5099C14.9473 40.5099 11.2216 40.4289 10.8167 40.3479C9.84479 40.0645 8.87289 37.6752 8.87289 35.4479C8.87289 33.3421 9.7233 29.2521 10.5332 27.4702L11.0192 26.4174H19.4423H27.8249L28.1489 28.5231Z" fill="black"/>
<path d="M32.8463 5.44033C32.4818 5.8048 32.3604 8.63951 32.3604 15.7668V25.6073L33.3727 26.0932C34.2232 26.4577 34.5066 26.4172 35.1951 25.8098C35.9645 25.1213 36.005 24.5544 36.005 15.8073C36.005 10.1784 35.843 6.20975 35.6 5.7238C35.1141 4.87339 33.5752 4.71141 32.8463 5.44033ZM34.7091 7.78909C34.7901 8.88248 34.6686 9.65191 34.3042 9.89488C33.8992 10.2188 33.8992 10.3403 34.3042 10.5023C34.5876 10.6238 34.7901 11.5147 34.7901 12.8511C34.7901 14.1874 34.5876 15.1188 34.3042 15.2403C33.8992 15.4428 33.8992 15.5238 34.3042 15.7263C34.8711 16.0098 34.9926 19.5329 34.3851 19.5329C34.1827 19.5329 33.9802 19.8164 33.9802 20.1403C33.9802 20.4643 34.1827 20.7478 34.3851 20.7478C34.6281 20.7478 34.7901 21.7602 34.7901 23.0155C34.7901 24.9188 34.6686 25.2428 34.1017 25.1213C33.4537 24.9998 33.3727 24.1899 33.2513 15.8883C33.2108 10.9073 33.2513 6.53372 33.3727 6.25025C33.7777 5.15686 34.5876 6.08827 34.7091 7.78909Z" fill="black"/>
</svg>
