<svg width="49" height="48" viewBox="0 0 49 48" fill="none" xmlns="http://www.w3.org/2000/svg">
<path d="M17.5971 0.515659C11.2479 2.57242 4.63054 8.65327 2.03724 14.7341C-0.198372 20.0996 0.159325 29.042 2.93148 34.3181C6.95558 42.2768 15.898 48 24.4828 48C29.5799 48 36.1973 45.4067 40.3109 41.7403C56.3178 27.7007 47.1071 1.14163 26.003 0.0685349C22.6943 -0.110313 18.9384 0.0685349 17.5971 0.515659ZM30.8319 2.84069C47.9119 7.93788 51.936 30.8305 37.5387 41.2932C19.2067 54.7963 -5.02729 35.0335 4.71997 14.4659C7.49212 8.65327 11.2479 5.25515 17.0605 3.19839C22.8731 1.23105 25.1087 1.14163 30.8319 2.84069Z" fill="black"/>
<path d="M23.0362 12.3713C21.2539 13.3847 21.1141 13.9089 21.1141 19.7451V25.2667L19.856 26.9092C18.6678 28.4819 18.5979 28.6915 18.7377 30.7534C18.9124 33.3045 19.6114 34.4578 21.6733 35.646C26.7755 38.5816 32.5069 32.9551 29.8509 27.6781C29.4315 26.9092 28.9073 26.2103 28.6277 26.0705C28.2084 25.9307 28.1035 24.8474 28.1035 20.1645V14.4331L27.16 13.3847C26.0766 12.1965 24.1545 11.7073 23.0362 12.3713ZM26.2863 14.3283C26.5659 14.7477 26.7056 16.5999 26.7056 20.6188V26.3151L27.789 27.2937C28.6976 28.0974 28.9073 28.6216 29.0471 30.0195C29.2218 32.0814 28.6976 33.1648 27.0551 34.2831C26.0416 34.9471 25.5174 35.0868 24.1196 34.9471C22.6867 34.8073 22.1975 34.5626 21.219 33.5142C20.2404 32.4658 20.0657 32.0115 20.0657 30.5787C20.0657 28.9012 20.6598 27.6082 21.8829 26.7345C22.4421 26.3151 22.512 25.6511 22.512 20.5139C22.512 15.167 22.5469 14.7477 23.2459 14.0487C24.0846 13.21 25.5174 13.3498 26.2863 14.3283Z" fill="black"/>
<path d="M23.9099 24.3921C23.9099 27.6072 23.8749 27.7819 22.9663 28.5508C21.1491 30.1234 22.1276 32.9541 24.504 32.9541C26.9153 32.9541 28.0336 29.9487 26.1814 28.4809C25.3427 27.8169 25.3078 27.6072 25.3078 24.427C25.3078 21.3167 25.2728 21.0721 24.6088 21.0721C23.9448 21.0721 23.9099 21.3167 23.9099 24.3921ZM25.4126 29.8788C26.2513 31.1718 24.5389 32.2202 23.5604 31.032C23.2109 30.5777 23.2459 30.368 23.7351 29.8089C24.4341 29.04 24.8884 29.04 25.4126 29.8788Z" fill="black"/>
</svg>
