<svg width="73" height="50" viewBox="0 0 73 50" fill="none" xmlns="http://www.w3.org/2000/svg">
<path d="M3.40834 0.788036L0.335938 1.04407V22.4868V43.8656H16.9781C27.9235 43.8656 33.6202 44.1217 33.6202 44.5057C33.6202 45.7219 30.8039 46.2979 21.9707 46.746C11.9854 47.2581 9.16908 47.7061 8.78503 48.8583C8.65701 49.3703 9.2971 49.4983 11.3454 49.1783C15.2499 48.5382 60.4397 48.5382 62.744 49.1783C64.4722 49.6904 64.5362 49.6264 63.7041 48.7302C62.936 47.9621 60.1837 47.5781 52.8227 47.002C42.9014 46.2979 40.0211 45.7859 40.0211 44.5057C40.0211 44.1217 45.6538 43.8656 56.3432 43.8656H72.6653V22.4868C72.6653 1.17208 72.6653 1.10807 71.2571 0.788036C69.7849 0.403984 8.27297 0.403984 3.40834 0.788036ZM70.617 20.8226C70.681 30.4879 70.617 39.065 70.425 39.8331L70.105 41.3053H36.1806H2.25619V22.5509C2.25619 12.1815 2.44821 3.54039 2.70424 3.34837C2.89627 3.09233 18.2583 2.96432 36.7567 3.02832L70.425 3.22035L70.617 20.8226Z" fill="black"/>
</svg>
