<svg width="65" height="48" viewBox="0 0 65 48" fill="none" xmlns="http://www.w3.org/2000/svg">
<path d="M2.83568 0.104782C2.08417 0.273031 1.37753 0.901159 1.09711 1.64145C0.951296 2.04525 0.592366 5.46631 0.424117 8.12464C0.211002 11.6466 0.44655 18.6346 0.83913 20.575C1.07468 21.6743 1.89349 22.7398 2.95906 23.3007L3.51989 23.6035H32.5147H61.5096L62.0816 23.3007C62.7322 22.9642 63.5062 22.2127 63.809 21.6406C64.1231 21.0237 64.2352 20.4965 64.4483 18.3878C64.6951 15.9762 64.7288 8.7752 64.5044 6.38607C64.0782 1.76484 63.9436 1.17036 63.1809 0.598312C62.3396 -0.0410328 64.2689 -0.00738335 32.4699 0.00383377C16.3629 0.0150509 3.02636 0.0487003 2.83568 0.104782ZM62.3508 1.28252C62.8892 1.56294 63.0126 1.96673 63.2482 4.23248C63.8202 9.80712 63.8427 14.563 63.3043 19.2515C63.136 20.7545 62.9565 21.2593 62.3845 21.8201C61.7676 22.437 61.3974 22.5716 60.1973 22.6277C59.1429 22.6725 59.098 22.6613 59.098 22.4482C59.098 22.3136 59.1541 21.5845 59.2214 20.8218C59.356 19.1954 59.2551 18.7692 58.6269 18.3878C58.2568 18.1635 58.1334 18.1635 32.5147 18.1635C7.1765 18.1635 6.76148 18.1635 6.41377 18.3878C5.75199 18.7916 5.67348 19.1169 5.80807 20.7769C5.87537 21.5733 5.93146 22.3248 5.93146 22.437C5.93146 22.6277 5.83051 22.6501 4.97805 22.6501C3.54233 22.6501 2.75717 22.2463 2.19634 21.2144C1.94957 20.7545 1.84862 20.3619 1.72524 19.2627C1.18684 14.4957 1.22049 9.06683 1.83741 3.60435C2.02809 1.97795 2.09539 1.75362 2.54405 1.37226L2.8469 1.11427H32.4362C58.6606 1.11427 62.0592 1.13671 62.3508 1.28252ZM58.1895 19.3636C58.2456 19.487 58.2456 20.1488 58.1671 21.1022L58.0549 22.6501H32.5147H6.9746L6.86243 21.1022C6.78392 20.1488 6.78392 19.487 6.84 19.3636C6.94095 19.1842 8.27572 19.173 32.5147 19.173C56.7538 19.173 58.0885 19.1842 58.1895 19.3636Z" fill="black"/>
<path d="M4.10303 11.8598C3.8787 12.1065 3.85627 12.3421 4.04695 12.5328C4.23763 12.7235 60.7916 12.7235 60.9823 12.5328C61.173 12.3421 61.1505 12.0392 60.9374 11.8373C60.7804 11.6803 58.0436 11.6579 32.5258 11.6579C5.30321 11.6579 4.27128 11.6691 4.10303 11.8598Z" fill="black"/>
<path d="M26.3007 15.0909C26.0652 15.3152 26.0764 15.5059 26.3232 15.7302C26.5138 15.8985 27.1083 15.9209 32.5371 15.9209C38.2015 15.9209 38.5492 15.9097 38.7175 15.719C38.953 15.461 38.953 15.3152 38.7287 15.0909C38.5717 14.9338 37.8538 14.9114 32.5147 14.9114C27.1756 14.9114 26.4578 14.9338 26.3007 15.0909Z" fill="black"/>
<path d="M9.77966 29.0668C9.71237 29.1454 9.63385 30.3007 9.6002 31.6242C9.38708 38.8701 8.34394 42.4258 5.19208 46.5759C4.65369 47.2714 4.56396 47.6976 4.91167 47.8883C5.24817 48.0677 5.45007 47.9219 6.14549 47.0022C8.68044 43.6484 9.8021 40.7209 10.3629 35.9987C10.6097 33.8788 10.7219 29.336 10.5312 29.1005C10.3629 28.8986 9.92548 28.8762 9.77966 29.0668Z" fill="black"/>
<path d="M17.8324 29.0884C17.7426 29.2006 17.709 31.7579 17.709 38.4767C17.709 47.0574 17.7202 47.7304 17.8997 47.865C18.1576 48.0444 18.2362 48.0332 18.4941 47.7752C18.7185 47.5509 18.7185 47.4051 18.7185 38.4542C18.7185 32.4085 18.6848 29.2903 18.6063 29.1445C18.4717 28.8977 18.023 28.8641 17.8324 29.0884Z" fill="black"/>
<path d="M32.1328 29.1791C31.9982 29.3585 31.9533 29.7062 31.9533 30.4465V31.456L30.955 30.4578L29.9455 29.4595L29.6651 29.6502C29.5081 29.7511 29.3735 29.9306 29.3735 30.0427C29.3735 30.1549 29.9567 30.8616 30.6634 31.6019L31.9533 32.9478V34.1256V35.3033L31.5607 35.4379C31.3364 35.5164 30.9326 35.7408 30.6522 35.9539C30.383 36.167 30.1026 36.3352 30.0353 36.3352C29.968 36.3352 29.4856 36.0997 28.9809 35.8081L28.0499 35.2809L27.5676 33.5423C26.9843 31.4673 26.7376 31.1195 26.244 31.6131C26.0309 31.8262 26.0309 31.8486 26.3001 32.8245C26.6366 34.0358 26.7264 34.4284 26.6478 34.4284C26.6254 34.4284 26.3113 34.2602 25.9748 34.0471C24.7074 33.2956 24.2699 33.2619 24.2699 33.9237C24.2699 34.2041 24.3821 34.305 25.2121 34.7986C25.8627 35.1799 26.1094 35.3818 25.9973 35.4379C25.9075 35.4828 25.3804 35.6286 24.8083 35.7744C23.7652 36.0212 23.3726 36.2679 23.4511 36.6269C23.5409 37.0755 23.7988 37.0755 25.5823 36.6381C26.5245 36.4025 27.3994 36.2231 27.5227 36.2343C27.6461 36.2343 28.1509 36.4811 28.6444 36.7727C29.4408 37.2326 29.5305 37.3223 29.4856 37.5691C29.4071 37.9953 29.4183 39.0609 29.5193 39.3189C29.5866 39.4983 29.5417 39.5768 29.295 39.7114C29.1155 39.79 28.6668 40.0592 28.2742 40.2947L27.5676 40.7209L25.7617 40.261C24.7747 40.0143 23.8661 39.8348 23.754 39.8685C23.496 39.9582 23.3614 40.4293 23.5296 40.6424C23.6082 40.7321 24.2138 40.934 24.8868 41.1023C25.5711 41.2705 26.1207 41.4388 26.1207 41.4837C26.1207 41.5173 25.6832 41.7977 25.156 42.1118C24.3372 42.5941 24.2138 42.7063 24.2363 42.9418C24.2587 43.0876 24.3709 43.2783 24.4943 43.3568C24.6962 43.4914 24.8308 43.4466 25.7057 42.9642C26.3001 42.6277 26.6815 42.4707 26.6815 42.5604C26.6815 42.639 26.5581 43.1437 26.4011 43.6709C26.244 44.1981 26.1207 44.7589 26.1207 44.9047C26.1207 45.2524 26.3899 45.4655 26.7376 45.3758C26.9619 45.3197 27.0516 45.1851 27.1975 44.6579C27.2984 44.3102 27.534 43.469 27.7246 42.796L28.0836 41.5734L29.037 41.035C29.5642 40.7321 30.024 40.4854 30.0577 40.4854C30.0913 40.4854 30.3493 40.6536 30.6185 40.8667C30.8877 41.0686 31.3027 41.3042 31.5383 41.3827L31.9533 41.5173V42.695V43.8728L30.697 45.2188C29.4296 46.5648 29.2389 46.8676 29.4856 47.1705C29.7773 47.507 30.0913 47.3387 31.0223 46.3404L31.9533 45.3646V46.4526C31.9533 47.3948 31.9869 47.5855 32.1776 47.7762C32.4356 48.0341 32.5141 48.0454 32.7833 47.8547C33.0189 47.6752 33.0525 47.507 33.0637 46.3292L33.0749 45.387L34.0171 46.3517C34.5331 46.89 35.0154 47.3275 35.0827 47.3275C35.3743 47.3275 35.6548 47.0807 35.6548 46.8452C35.6435 46.6881 35.1837 46.1161 34.3649 45.2524L33.0749 43.9064V42.7175V41.5397L33.6806 41.2818C34.0059 41.1472 34.3985 40.9116 34.5331 40.7658C34.6789 40.6088 34.8584 40.4854 34.9369 40.4854C35.0154 40.4854 35.5089 40.7434 36.0249 41.0574L36.9783 41.6183L37.2812 42.7063C37.9766 45.1963 38.0102 45.3085 38.3019 45.3758C38.6496 45.4655 38.9076 45.2524 38.9076 44.8711C38.9076 44.714 38.7842 44.1756 38.6271 43.6821C38.2121 42.3473 38.2234 42.3361 39.0534 42.8072C40.3321 43.5475 40.276 43.5251 40.534 43.3568C40.6574 43.2783 40.7695 43.0876 40.7919 42.9306C40.8256 42.6838 40.7022 42.5829 39.8722 42.1006C39.345 41.7977 38.9076 41.5173 38.9076 41.4837C38.9076 41.4388 39.4572 41.2705 40.1414 41.1023C40.8144 40.934 41.4201 40.7321 41.4986 40.6424C41.6668 40.4293 41.5322 39.9582 41.2743 39.8685C41.1621 39.8348 40.2536 40.0143 39.2665 40.261L37.4831 40.7209L36.4623 40.1264C35.5762 39.6105 35.4416 39.4983 35.5202 39.3076C35.6099 39.0497 35.6211 37.9953 35.5426 37.5803C35.4977 37.3335 35.5875 37.2438 36.4175 36.7615C36.9334 36.4698 37.4382 36.2231 37.5391 36.2231C37.6513 36.2231 38.5038 36.4025 39.446 36.6381C41.2518 37.0868 41.5098 37.0755 41.5771 36.5932C41.6332 36.2231 41.3416 36.0436 40.2311 35.7744C39.6591 35.6286 39.1207 35.4828 39.0309 35.4379C38.9188 35.3818 39.1655 35.1799 39.8161 34.7986C40.7807 34.2265 40.9938 33.9349 40.7022 33.576C40.4891 33.3292 40.2536 33.3853 39.3114 33.9237C38.8178 34.2041 38.4028 34.406 38.3804 34.3836C38.3467 34.3611 38.4813 33.7666 38.6608 33.0824C38.9973 31.8486 38.9973 31.8262 38.7842 31.6131C38.2907 31.1195 38.0439 31.4785 37.4718 33.5311L36.9783 35.2697L35.9576 35.8529L34.9257 36.425L34.5555 36.0885C34.1966 35.7856 33.7592 35.5501 33.2768 35.3931C33.0974 35.337 33.0749 35.1799 33.0749 34.1368V32.9478L34.3649 31.5906C35.7333 30.1773 35.8342 29.953 35.3407 29.6277C35.1051 29.4707 35.0491 29.5043 34.0844 30.4578L33.0749 31.4448V30.469C33.0749 29.9418 33.0189 29.3698 32.9403 29.2127C32.7833 28.8538 32.3683 28.8426 32.1328 29.1791ZM33.3329 36.4923C33.8265 36.6942 34.3873 37.356 34.5331 37.9168C34.892 39.2291 33.905 40.4854 32.5253 40.4854C30.7868 40.4854 29.8446 38.7244 30.8092 37.2438C31.3252 36.4474 32.4356 36.1109 33.3329 36.4923Z" fill="black"/>
<path d="M46.5012 29.1337C46.3218 29.3244 46.3105 30.132 46.3105 38.4435C46.3105 47.4055 46.3105 47.5513 46.5349 47.7757C46.6583 47.8991 46.8041 48 46.8602 48C47.1069 48 47.3088 47.6299 47.3761 47.0802C47.4098 46.755 47.4322 42.616 47.4098 37.8939C47.3761 28.8084 47.3761 28.9318 46.8714 28.9318C46.7704 28.9318 46.6022 29.0215 46.5012 29.1337Z" fill="black"/>
<path d="M54.4987 29.1001C54.3865 29.2347 54.3641 29.8516 54.4202 31.8818C54.6109 38.937 55.7549 42.8628 58.8283 46.9456C59.5462 47.899 59.7705 48.0673 60.107 47.8878C60.4996 47.6747 60.3762 47.2709 59.6247 46.2839C56.9888 42.8291 55.8783 39.3969 55.5082 33.5867C55.4521 32.5996 55.396 31.2088 55.396 30.4909C55.396 29.6385 55.3512 29.1561 55.2614 29.0664C55.0707 28.8757 54.6669 28.8982 54.4987 29.1001Z" fill="black"/>
</svg>
