<svg width="37" height="48" viewBox="0 0 37 48" fill="none" xmlns="http://www.w3.org/2000/svg">
<path d="M9.45854 0.608173C8.71025 1.04468 8.46081 2.7907 8.39846 8.34055C8.21138 15.3246 8.27374 15.5117 9.77033 16.6965C10.8304 17.5695 11.3293 18.5673 11.3293 19.8144C11.3293 22.6205 12.4517 22.8699 12.7012 20.1262L12.8882 17.7566H18.5004H24.1127L24.2997 20.1262C24.5492 22.9947 25.6716 22.5582 25.6716 19.565C25.6716 18.1307 25.9834 17.4448 26.607 17.4448C28.353 17.4448 28.9142 15.0129 28.6648 8.02876C28.5401 2.7907 28.2283 1.04468 27.5423 0.608173C26.2952 -0.20248 10.7057 -0.20248 9.45854 0.608173ZM26.9188 2.16712C26.9188 2.97777 25.5469 3.10249 18.5004 3.10249C11.454 3.10249 10.0821 2.97777 10.0821 2.16712C10.0821 1.35647 11.454 1.23175 18.5004 1.23175C25.5469 1.23175 26.9188 1.35647 26.9188 2.16712ZM12.327 5.9086C12.5141 6.71925 12.5141 8.58999 12.327 10.0866C12.1399 11.5832 12.0152 12.955 12.0152 13.2045C11.9529 13.3915 11.454 13.5163 10.8928 13.4539C10.2068 13.3292 9.77033 12.768 9.83269 11.9573C10.0821 4.72379 10.0821 4.34965 11.0175 4.34965C11.5164 4.34965 12.0776 5.03559 12.327 5.9086ZM16.1932 8.83942C16.0061 12.8927 15.8814 13.3915 14.759 13.3915C13.886 13.3915 13.5742 13.0174 13.6365 11.9573C13.6365 11.209 13.6989 9.15121 13.7612 7.46754C13.8236 4.78615 14.0107 4.34965 15.0708 4.34965C16.3179 4.34965 16.3803 4.66144 16.1932 8.83942ZM19.9347 8.83942C19.81 12.5185 19.5605 13.3915 18.6875 13.5786C17.4404 13.8281 17.1909 12.768 17.4404 8.02876C17.6274 4.84851 17.8769 4.34965 18.8746 4.34965C19.997 4.34965 20.1217 4.72379 19.9347 8.83942ZM23.8009 8.7147C23.8009 12.0197 23.5514 13.2045 22.8655 13.4539C21.3065 14.0775 20.9948 13.2668 21.1818 8.77706C21.3689 4.91087 21.556 4.34965 22.6161 4.34965C23.6761 4.34965 23.8009 4.84851 23.8009 8.7147ZM27.5423 8.65234C27.5423 12.7056 27.1058 13.7033 25.2975 13.7033C25.1727 13.7033 25.048 11.5832 25.048 9.02649C25.048 4.78615 25.1727 4.34965 26.2952 4.34965C27.4176 4.34965 27.5423 4.78615 27.5423 8.65234ZM26.794 15.5117C26.9811 16.0106 24.4244 16.1977 18.5628 16.1977C12.2023 16.1977 10.0821 16.0106 10.0821 15.387C10.0821 14.3893 26.4199 14.4516 26.794 15.5117Z" fill="black"/>
<path d="M14.4463 20.5005C14.4463 21.1864 14.7581 21.9347 15.0699 22.1218C15.444 22.3089 15.6934 22.0594 15.6934 21.5606C15.6934 20.8123 16.3794 20.5629 18.4996 20.5629C20.5574 20.5629 21.3057 20.8123 21.3057 21.4982C21.3057 21.9971 21.6175 22.4336 21.9292 22.4336C22.3034 22.4336 22.5528 21.7477 22.5528 20.8746C22.5528 19.3781 22.4281 19.3157 18.4996 19.3157C14.8828 19.3157 14.4463 19.4404 14.4463 20.5005Z" fill="black"/>
<path d="M9.21062 24.6781C8.39996 25.4888 8.21289 27.3595 8.21289 35.5908C8.21289 41.3277 8.46232 46.1293 8.83647 46.8152C9.46005 47.8753 10.2083 48 17.9407 48C22.5552 48 26.9203 47.6882 27.6062 47.3764C28.7286 46.7528 28.791 45.9422 28.791 35.9649C28.791 28.4196 28.5416 24.9276 28.0427 24.4287C27.5438 23.9298 24.5507 23.6804 18.7514 23.6804C11.7673 23.6804 9.95891 23.8675 9.21062 24.6781ZM27.2321 35.8402V46.4411H18.689C13.9498 46.4411 10.0836 46.254 10.0836 45.9422C10.0836 45.6928 10.0836 40.8912 10.0836 35.2166V24.8652L18.689 25.0523L27.2321 25.2394V35.8402Z" fill="black"/>
<path d="M0.104492 41.7643V46.7529H2.28702C3.47182 46.7529 4.46955 46.4411 4.46955 46.1294C4.46955 45.7552 5.03077 45.5058 5.7167 45.5058C6.40264 45.5058 6.96386 45.194 6.96386 44.8822C6.96386 44.508 6.40264 44.2586 5.7167 44.2586C4.65662 44.2586 4.46955 43.8221 4.46955 41.8267C4.46955 39.7688 4.71898 39.3323 5.90378 39.0829L7.27565 38.8335L5.90378 38.3346C5.09313 38.0852 4.46955 37.6487 4.46955 37.3369C4.46955 37.0251 3.47182 36.7757 2.28702 36.7757H0.104492V41.7643ZM3.22239 41.7643C3.22239 44.6951 3.03531 45.5058 2.28702 45.5058C1.53872 45.5058 1.35165 44.6951 1.35165 41.7643C1.35165 38.8335 1.53872 38.0228 2.28702 38.0228C3.03531 38.0228 3.22239 38.8335 3.22239 41.7643Z" fill="black"/>
<path d="M32.5309 37.3992C32.5309 37.711 32.0944 38.0228 31.5955 38.0228C31.0967 38.0228 30.6602 38.2723 30.6602 38.6464C30.6602 38.9582 31.0967 39.27 31.5955 39.27C32.2815 39.27 32.5309 39.9559 32.5309 41.7643C32.5309 43.5727 32.2815 44.2586 31.5955 44.2586C31.0967 44.2586 30.6602 44.508 30.6602 44.8822C30.6602 45.194 31.0967 45.5058 31.5955 45.5058C32.0944 45.5058 32.5309 45.7552 32.5309 46.1294C32.5309 46.4411 33.5286 46.7529 34.7134 46.7529H36.8959V41.7643V36.7757H34.7134C33.5286 36.7757 32.5309 37.0251 32.5309 37.3992ZM35.6488 41.7643C35.6488 44.6951 35.4617 45.5058 34.7134 45.5058C33.9651 45.5058 33.7781 44.6951 33.7781 41.7643C33.7781 38.8335 33.9651 38.0228 34.7134 38.0228C35.4617 38.0228 35.6488 38.8335 35.6488 41.7643Z" fill="black"/>
</svg>
