<svg width="45" height="48" viewBox="0 0 45 48" fill="none" xmlns="http://www.w3.org/2000/svg">
<path d="M1.32548 0.293362C0.330377 0.893353 0.403546 -0.745651 0.403546 22.5223V43.5806L0.784029 44.0488C1.22305 44.561 1.85231 44.9269 2.30596 44.9269C2.55474 44.9269 2.59864 45.0147 2.59864 45.6147C2.59864 46.4927 2.96449 47.239 3.60838 47.6634C4.0474 47.9707 4.28154 48 5.7303 48C7.07662 48 7.42784 47.9561 7.82295 47.7073C8.49611 47.3122 8.80343 46.7415 8.89123 45.8049L8.9644 45L16.3984 44.9561L23.8178 44.9269V45.6293C23.8178 46.4781 24.1983 47.2244 24.8422 47.6634C25.2666 47.9707 25.5007 48 26.9495 48C28.2958 48 28.647 47.9561 29.0422 47.7073C29.7153 47.3122 30.0226 46.7415 30.1104 45.8195C30.1836 45.0293 30.1982 45.0147 30.7397 44.883C31.4568 44.7074 32.086 44.0927 32.2909 43.3757C32.3787 43.0684 32.4519 41.8391 32.4519 40.6391V38.4879H31.7202H30.9885V40.9025C30.9885 43.1269 30.9738 43.3171 30.7104 43.4635C30.5202 43.5659 25.7495 43.6098 16.296 43.6098C3.65228 43.6098 2.15962 43.5806 1.95474 43.3757C1.74987 43.1708 1.7206 41.6928 1.7206 29.3271V15.5127H9.60829H17.496L17.5545 15.1029C17.5984 14.8834 17.6862 14.5907 17.7448 14.4444C17.8472 14.2102 17.4082 14.1956 9.7839 14.1956H1.7206V7.99081C1.7206 2.53235 1.74987 1.75675 1.95474 1.55188C2.15962 1.347 3.66691 1.31773 16.4131 1.31773C27.2861 1.31773 30.6812 1.36164 30.8129 1.49334C30.9299 1.61041 30.9885 2.38601 30.9885 4.02501V6.36644L31.7348 6.38108L32.4811 6.39571L32.4226 3.89331C32.3787 1.55188 32.3641 1.36164 32.0421 0.907986C31.3397 -0.0578537 32.3348 0.000682831 16.3253 0.000682831C2.17425 0.000682831 1.77914 0.015316 1.32548 0.293362ZM7.57418 45.5415C7.57418 46.522 7.3254 46.6829 5.7303 46.6829C4.48641 46.6829 4.35471 46.6537 4.14983 46.361C4.01813 46.1854 3.91569 45.7903 3.91569 45.483V44.9269H5.74493H7.57418V45.5415ZM28.7934 45.5415C28.7934 46.522 28.5446 46.6829 26.9495 46.6829C25.7056 46.6829 25.5739 46.6537 25.369 46.361C25.2373 46.1854 25.1349 45.7903 25.1349 45.483V44.9269H26.9641H28.7934V45.5415Z" fill="black"/>
<path d="M4.58958 3.60046C4.23837 3.93704 4.23837 10.6979 4.58958 11.0345C4.85299 11.3125 5.24811 11.3418 5.49689 11.093C5.74566 10.8443 5.74566 3.7907 5.49689 3.54192C5.24811 3.29315 4.85299 3.32241 4.58958 3.60046Z" fill="black"/>
<path d="M31.2232 7.99056C31.0476 8.15154 30.989 8.51738 30.989 9.39542C30.989 10.4491 30.9598 10.5515 30.7403 10.4637C29.5549 9.95151 29.2622 9.89297 29.0281 10.0978C28.8817 10.2003 28.7939 10.4491 28.8232 10.6686C28.8525 10.9759 29.0573 11.1369 29.9354 11.5612L30.989 12.0734V12.8344V13.5954L29.4378 12.9515C28.5744 12.5856 27.7696 12.2929 27.6379 12.2929C27.111 12.2929 26.8184 13.0978 27.2281 13.4344C27.3159 13.5076 28.1939 13.9173 29.1598 14.3124L30.9159 15.0588L30.9598 15.849L31.0037 16.6539L30.3451 16.4197C29.6134 16.1563 29.233 16.3173 29.233 16.888C29.233 17.3417 29.3793 17.4734 30.1842 17.7953C30.9012 18.088 30.9159 18.1026 30.9598 18.7758L31.0037 19.4489L30.2427 19.888L29.4671 20.327L28.9256 20.0197L28.3696 19.7123L28.4574 18.7904C28.5598 17.7514 28.3988 17.4148 27.8281 17.4148C27.4476 17.4148 27.1842 17.7953 27.1842 18.3514C27.1842 18.5563 27.1257 18.7465 27.0379 18.805C26.8915 18.8928 25.7208 18.2197 25.7208 18.0294C25.7208 17.9709 25.8232 17.2685 25.9403 16.4636C26.2623 14.2539 26.233 13.7856 25.794 13.5807C25.1501 13.288 24.9013 13.6978 24.6964 15.41C24.4477 17.5612 24.4916 17.488 23.8477 17.1075C23.555 16.9319 23.2623 16.7417 23.2038 16.6831C23.1306 16.6392 23.1452 16.1124 23.2184 15.5124C23.3794 14.2978 23.2623 13.9027 22.7355 13.9027C22.2672 13.9027 21.916 14.3417 21.916 14.9417C21.916 15.849 21.755 15.8929 20.7599 15.3075C19.6038 14.6344 19.1794 14.6197 18.9453 15.2636C18.8136 15.6002 19.2672 16.0539 20.277 16.61C20.6867 16.8295 21.038 17.0636 21.038 17.1075C21.0233 17.1514 20.7306 17.4148 20.3794 17.6782C19.7063 18.1611 19.5307 18.6294 19.8965 18.9953C20.2038 19.3026 20.6575 19.1709 21.5355 18.5124L22.3843 17.8685L22.955 18.1465C23.2477 18.3075 23.5404 18.4977 23.5843 18.5709C23.6282 18.6441 23.0721 19.1416 22.355 19.6831C20.9062 20.766 20.6575 21.0733 20.877 21.4977C21.2136 22.0977 21.5794 21.9806 23.2623 20.6928C24.155 20.0197 24.9452 19.4636 25.0184 19.4636C25.0916 19.4636 25.4281 19.6099 25.7501 19.7709L26.3647 20.0782L25.9257 20.4879C25.3403 21.0001 25.2525 21.2635 25.5159 21.644C25.8232 22.083 26.1891 22.0245 26.9793 21.4245L27.6671 20.8977L28.1939 21.1904C28.7061 21.4831 28.7208 21.527 28.7647 22.4196C28.7939 23.3123 28.7939 23.3416 28.3403 23.5903C27.7403 23.9416 27.6525 23.9269 26.8476 23.3562C26.0574 22.8001 25.6184 22.8147 25.3989 23.4001C25.2964 23.6781 25.3696 23.8245 25.8232 24.2342C26.1159 24.5123 26.3354 24.7464 26.2915 24.7757C26.2623 24.805 25.955 24.9806 25.6184 25.1708L25.0184 25.5074L23.3647 24.2342C22.4574 23.5464 21.594 22.9757 21.4477 22.9757C21.1404 22.9757 20.7599 23.5025 20.8477 23.8245C20.877 23.9562 21.477 24.4976 22.1501 25.0245C23.833 26.2976 23.8038 26.2684 23.1013 26.6196C22.7794 26.7952 22.4574 26.9269 22.3696 26.9269C22.2965 26.9269 21.916 26.6781 21.5209 26.3708C20.5989 25.6391 20.3941 25.5659 19.9989 25.8879C19.5453 26.2537 19.7209 26.7952 20.4526 27.2781C20.7745 27.483 21.038 27.6878 21.038 27.7317C21.038 27.761 20.5843 28.0537 20.0282 28.3756C18.9599 29.0049 18.7551 29.2683 18.9892 29.7073C19.2672 30.2341 19.677 30.2049 20.716 29.5903C21.7843 28.9464 21.8867 28.9756 21.9014 29.9268C21.9306 30.878 22.7209 31.361 23.1452 30.6878C23.3208 30.4244 23.3355 30.1756 23.233 29.4146C23.1599 28.8878 23.0867 28.4195 23.0867 28.361C23.0867 28.3025 23.3647 28.083 23.6867 27.8635C24.1257 27.5854 24.3306 27.5269 24.4038 27.6586C24.4623 27.7464 24.594 28.5366 24.6964 29.3854C24.8867 31.0683 24.9891 31.3171 25.5013 31.3171C26.1598 31.3171 26.233 31.0097 26.0281 29.1512C25.9257 28.2147 25.8086 27.2635 25.7647 27.0586C25.7062 26.722 25.7793 26.6196 26.3501 26.2976C27.0671 25.9025 27.1842 25.961 27.1842 26.6927C27.1842 26.883 27.3159 27.1464 27.4769 27.2927C27.7257 27.5122 27.8281 27.5269 28.15 27.3805C28.5159 27.2196 28.5305 27.1757 28.4866 26.1659L28.4281 25.1123L28.9256 24.8196L29.4232 24.5269L30.1988 24.9513C30.9744 25.3757 30.989 25.3903 30.989 26.0635V26.7366L30.111 27.1171C29.3208 27.4537 29.233 27.5269 29.233 27.9366C29.233 28.5659 29.6427 28.7561 30.3451 28.4634C30.6378 28.3464 30.9012 28.2439 30.9305 28.2439C30.9598 28.2439 30.989 28.5951 30.989 29.0049V29.7805L29.0427 30.6C27.1988 31.3756 27.111 31.4341 27.0671 31.8732C27.0379 32.2097 27.0964 32.3707 27.3305 32.4878C27.5793 32.6195 27.8866 32.5463 29.1159 32.0341C29.9354 31.7122 30.6964 31.4049 30.7988 31.361C30.9451 31.3024 30.989 31.4927 30.989 32.0634V32.8536L29.9647 33.278C29.1598 33.6 28.911 33.7756 28.8378 34.0682C28.7793 34.3463 28.8232 34.5073 29.072 34.6975C29.3793 34.9463 29.4378 34.9463 29.9354 34.7414C31.0329 34.2585 30.989 34.2292 30.989 35.4731C30.989 36.395 31.0476 36.6438 31.2817 36.878C31.6476 37.2438 31.7939 37.2438 32.1597 36.878C32.3939 36.6438 32.4524 36.395 32.4524 35.4877C32.4524 34.8877 32.511 34.3902 32.5841 34.3902C32.6573 34.3902 32.9939 34.5219 33.3305 34.6682C34.1646 35.0487 34.6768 34.8438 34.6182 34.1853C34.5743 33.7902 34.4719 33.7024 33.5207 33.2926L32.4524 32.8536V32.078C32.4524 31.6683 32.4817 31.3171 32.5256 31.3171C32.5695 31.3171 33.3305 31.6244 34.2085 31.9902C35.5109 32.5317 35.8475 32.6341 36.0963 32.4878C36.3011 32.3853 36.4036 32.1805 36.4036 31.8878C36.4036 31.4049 36.5353 31.4927 33.667 30.2781L32.4524 29.7805V29.0049C32.4524 28.5951 32.4817 28.2439 32.511 28.2439C32.5402 28.2439 32.8036 28.3464 33.0963 28.4634C33.7987 28.7561 34.2085 28.5659 34.2085 27.9366C34.2085 27.5269 34.1207 27.4537 33.3305 27.1171L32.4524 26.7366V26.0635C32.4524 25.4049 32.4671 25.3903 33.2427 24.9659L34.0329 24.5415L34.5158 24.8342L35.0134 25.1123L34.9548 26.1659C34.9109 27.1757 34.9256 27.2196 35.2914 27.3805C35.6134 27.5269 35.7158 27.5122 35.9646 27.2927C36.1255 27.1464 36.2572 26.883 36.2572 26.722C36.2572 26.0781 36.4621 25.9903 37.1353 26.3415C37.7353 26.6488 37.7499 26.6781 37.6621 27.1903C37.6182 27.483 37.5011 28.4342 37.4133 29.2976C37.2231 31.0097 37.2963 31.3171 37.9401 31.3171C38.4523 31.3171 38.5694 31.0536 38.7596 29.3854C38.8621 28.522 38.9792 27.7464 39.0377 27.6586C39.1694 27.4537 40.3547 28.1122 40.3547 28.3903C40.3547 28.5073 40.2816 29.0049 40.2084 29.4878C40.0913 30.1902 40.106 30.4098 40.2816 30.6878C40.7206 31.361 41.5108 30.878 41.5401 29.9268C41.5547 28.9756 41.6572 28.9464 42.6962 29.561C43.8084 30.2341 44.0718 30.2634 44.3791 29.7951C44.7157 29.2976 44.5401 29.0342 43.4132 28.3756C42.8572 28.0537 42.4035 27.7756 42.4035 27.7464C42.4035 27.7317 42.6962 27.4976 43.062 27.2342C43.8084 26.7074 43.9254 26.2098 43.3986 25.844C43.0474 25.5952 42.8572 25.6537 41.8328 26.444C41.4816 26.7074 41.1157 26.9269 41.0279 26.9269C40.9401 26.9269 40.6182 26.7659 40.2962 26.5757L39.7401 26.2391L41.1303 25.1562C41.9059 24.5562 42.5791 23.9855 42.623 23.8684C42.7254 23.5903 42.3157 22.9757 42.0084 22.9757C41.8767 22.9757 41.0133 23.5464 40.0913 24.2342L38.4231 25.4928L37.7792 25.1415C37.428 24.9659 37.1353 24.7611 37.1353 24.7172C37.1353 24.6586 37.2963 24.5123 37.5011 24.3806C37.9987 24.0586 38.2036 23.6342 38.028 23.283C37.7645 22.8001 37.3402 22.8294 36.5938 23.3562C35.789 23.9269 35.7012 23.9416 35.1012 23.5903C34.6475 23.3416 34.6475 23.3123 34.6768 22.4196C34.7207 21.527 34.7353 21.4831 35.2475 21.1904L35.789 20.8831L36.4768 21.4245C37.2816 22.0391 37.6182 22.083 37.9255 21.6294C38.2475 21.1757 38.2328 21.1465 37.6475 20.605L37.1206 20.1367L37.6767 19.8002C37.9841 19.6099 38.306 19.4636 38.4084 19.4636C38.4962 19.4636 39.1548 19.9172 39.8718 20.4587C41.6133 21.805 41.8767 21.9806 42.1694 21.8635C42.5352 21.7172 42.7401 21.2635 42.5645 20.9416C42.4767 20.7953 41.8181 20.2245 41.0864 19.6831C40.3694 19.1416 39.8133 18.6441 39.8572 18.5709C39.9011 18.4977 40.1938 18.3075 40.4865 18.1465L41.0572 17.8685L41.9059 18.5124C42.784 19.1709 43.2376 19.3026 43.5449 18.9953C43.9108 18.6294 43.7352 18.1611 43.062 17.6782C42.7108 17.4148 42.4181 17.166 42.4035 17.1221C42.4035 17.0782 42.7547 16.8587 43.1645 16.6246C43.9693 16.1709 44.5986 15.6295 44.5986 15.3807C44.5986 15.1466 44.1596 14.7807 43.8669 14.7807C43.7206 14.7807 43.1791 15.0149 42.6962 15.3075C42.1986 15.6002 41.7596 15.8051 41.7157 15.7612C41.6864 15.7173 41.6133 15.3953 41.5694 15.0441C41.4523 14.1954 41.2913 13.9027 40.8816 13.9027C40.4865 13.9027 40.0328 14.3563 40.1206 14.649C40.1499 14.7661 40.223 15.2636 40.2816 15.7612L40.3694 16.6539L39.7401 17.0343C38.9792 17.488 39.0084 17.5319 38.745 15.41C38.5401 13.6978 38.2914 13.288 37.6475 13.5807C37.2085 13.7856 37.1938 14.0344 37.5158 16.449C37.6328 17.4002 37.7206 18.1904 37.6914 18.2051C37.6621 18.2197 37.3841 18.3807 37.0767 18.5709C36.4768 18.9075 36.2572 18.8343 36.2572 18.249C36.2572 17.7807 35.9646 17.4148 35.6134 17.4148C35.0426 17.4148 34.8963 17.7514 34.9987 18.7758L35.0865 19.6977L34.5304 20.0197L33.9744 20.327L33.1988 19.888L32.4378 19.4489L32.4817 18.7758C32.5256 18.1026 32.5402 18.088 33.2573 17.7953C34.0622 17.4734 34.2085 17.3417 34.2085 16.888C34.2085 16.3173 33.828 16.1563 33.0963 16.4197L32.4524 16.6539V15.8783V15.1027L33.7402 14.5758C35.9207 13.6539 36.3304 13.4198 36.3743 13.0539C36.4329 12.6442 36.1694 12.2929 35.8182 12.2929C35.6865 12.2929 34.867 12.5856 34.0036 12.9515L32.4524 13.5954V12.8344V12.0734L33.5207 11.5612C34.3841 11.1369 34.589 10.9759 34.6182 10.6686C34.6475 10.4491 34.5597 10.2003 34.4134 10.0978C34.1792 9.89297 33.8865 9.95151 32.7158 10.4637C32.4817 10.5515 32.4524 10.4491 32.4524 9.39542C32.4524 8.15154 32.2768 7.75642 31.7207 7.75642C31.5744 7.75642 31.3402 7.85886 31.2232 7.99056ZM32.5402 21.0879L33.3305 21.527V22.4343V23.3416L32.6134 23.7367C32.2183 23.9708 31.8085 24.1464 31.7061 24.1464C31.589 24.1464 31.1939 23.9416 30.8134 23.7074L30.111 23.2684V22.405V21.5416L30.8866 21.1026C31.2963 20.8538 31.6768 20.6489 31.7061 20.6489C31.7354 20.6343 32.1158 20.8392 32.5402 21.0879Z" fill="black"/>
<path d="M4.60425 18.7029C4.38474 18.937 4.35547 19.4199 4.35547 22.4784C4.35547 26.1662 4.38474 26.3418 5.014 26.3418C5.64326 26.3418 5.67252 26.1662 5.67252 22.3614C5.67252 18.937 5.65789 18.7321 5.39448 18.5858C4.99936 18.3809 4.88229 18.3956 4.60425 18.7029Z" fill="black"/>
</svg>
