<svg width="45" height="45" viewBox="0 0 45 45" fill="none" xmlns="http://www.w3.org/2000/svg">
<path d="M2.51191 2.33229C1.05124 3.79296 0.974365 4.86924 0.974365 22.551C0.974365 41.1553 0.974365 41.309 2.74254 42.9234C4.51072 44.5379 5.12573 44.6147 22.7306 44.6147C39.9511 44.6147 41.0274 44.5379 42.4881 43.0772C43.9487 41.6165 44.0256 40.5403 44.0256 22.3972C44.0256 3.40857 44.0256 3.17794 42.3343 2.02478C40.8736 1.02538 37.6448 0.794746 22.3462 0.794746C5.04886 0.794746 3.97258 0.871624 2.51191 2.33229ZM41.0274 3.10106C42.4112 3.86983 42.4881 4.94611 42.4881 22.7047C42.4881 34.3132 42.1805 41.6165 41.7193 41.924C41.3349 42.1547 32.5709 42.3853 22.3462 42.3853C7.97019 42.3853 3.66507 42.1547 3.2038 41.3859C2.81942 40.8478 2.51191 32.3913 2.51191 22.551C2.51191 7.40619 2.66566 4.56173 3.74194 3.56232C4.74135 2.48605 7.50893 2.33229 22.1925 2.33229C32.6478 2.33229 40.1049 2.6398 41.0274 3.10106Z" fill="black"/>
<path d="M7.12476 22.705V38.4648H22.5002H37.8756V22.705V6.94519H22.5002H7.12476V22.705ZM36.3381 22.7819V36.1585H29.8035H23.269V22.705V9.32839L28.881 9.09776C31.8792 8.944 34.8774 9.02088 35.4156 9.17463C36.1075 9.32839 36.3381 12.711 36.3381 22.7819ZM21.7314 22.705V36.1585H15.1969H8.6623V22.705V9.25151H15.1969H21.7314V22.705Z" fill="black"/>
</svg>
